<?xml version="1.0" encoding="utf-8"?>
<!-- Generator: Adobe Illustrator 26.3.1, SVG Export Plug-In . SVG Version: 6.00 Build 0)  -->
<svg version="1.1" id="Layer_1" xmlns="http://www.w3.org/2000/svg" xmlns:xlink="http://www.w3.org/1999/xlink" x="0px" y="0px"
	 viewBox="0 0 1000 1000" style="enable-background:new 0 0 1000 1000;" xml:space="preserve">
<style type="text/css">
	.st0{fill:#CCCCCC;}
	.st1{fill:#FFFFFF;}
	.st2{fill:none;stroke:#000000;stroke-width:7;stroke-miterlimit:10;}
	.st3{fill:none;stroke:#000000;stroke-width:3;stroke-miterlimit:10;}
	.st4{fill:none;stroke:#000000;stroke-width:9;stroke-miterlimit:10;}
	.st5{fill:none;stroke:#808080;stroke-width:6;stroke-miterlimit:10;}
	.st6{fill:#FFFFFF;stroke:#000000;stroke-width:7;stroke-miterlimit:10;}
</style>
<g>
	<path class="st0" d="M401.2,340.4c-20.5,0-37.3-16.7-37.3-37.3v-97c0-20.5,16.7-37.3,37.3-37.3h356.2c20.5,0,37.3,16.7,37.3,37.3
		v97c0,20.5-16.7,37.3-37.3,37.3L401.2,340.4L401.2,340.4z"/>
	<path class="st0" d="M757.4,170.6c19.5,0,35.5,15.9,35.5,35.5v97c0,19.5-15.9,35.5-35.5,35.5H401.2c-19.5,0-35.5-15.9-35.5-35.5
		v-97c0-19.5,15.9-35.5,35.5-35.5H757.4 M757.4,167H401.2c-21.6,0-39.1,17.5-39.1,39.1v97c0,21.6,17.5,39.1,39.1,39.1h356.2
		c21.6,0,39.1-17.5,39.1-39.1v-97C796.5,184.5,779,167,757.4,167L757.4,167z"/>
</g>
<g>
	<path class="st1" d="M386.7,322.5c-20.5,0-37.3-16.7-37.3-37.3v-97c0-20.5,16.7-37.3,37.3-37.3h356.2c20.5,0,37.3,16.7,37.3,37.3
		v97c0,20.5-16.7,37.3-37.3,37.3H386.7z"/>
	<path d="M742.9,152.7c19.5,0,35.5,15.9,35.5,35.5v97c0,19.5-15.9,35.5-35.5,35.5H386.7c-19.5,0-35.5-15.9-35.5-35.5v-97
		c0-19.5,15.9-35.5,35.5-35.5H742.9 M742.9,149.1H386.7c-21.6,0-39.1,17.5-39.1,39.1v97c0,21.6,17.5,39.1,39.1,39.1h356.2
		c21.6,0,39.1-17.5,39.1-39.1v-97C782,166.6,764.5,149.1,742.9,149.1L742.9,149.1z"/>
</g>
<line class="st2" x1="347.6" y1="188.2" x2="782" y2="188.2"/>
<line class="st2" x1="381.7" y1="172.8" x2="457.5" y2="172.8"/>
<line class="st3" x1="590.1" y1="171.1" x2="638.7" y2="171.1"/>
<line class="st3" x1="644.2" y1="171.1" x2="684" y2="171.1"/>
<line class="st3" x1="690.2" y1="171.1" x2="733.6" y2="171.1"/>
<line class="st3" x1="739.9" y1="170.5" x2="763.4" y2="170.5"/>
<line class="st4" x1="515.4" y1="206.2" x2="646.8" y2="206.2"/>
<line class="st5" x1="492.1" y1="218.1" x2="556.3" y2="218.1"/>
<line class="st5" x1="562.7" y1="218.4" x2="618.1" y2="218.4"/>
<line class="st5" x1="624.5" y1="218.3" x2="661.8" y2="218.3"/>
<line class="st5" x1="478.9" y1="226.1" x2="579" y2="226.1"/>
<line class="st5" x1="586" y1="226.1" x2="654.3" y2="226.1"/>
<line class="st5" x1="658.7" y1="226.7" x2="682.8" y2="226.7"/>
<line class="st5" x1="472.2" y1="234.3" x2="523.5" y2="234.3"/>
<line class="st5" x1="530" y1="234.6" x2="586" y2="234.6"/>
<line class="st5" x1="599.5" y1="234.6" x2="641.4" y2="234.6"/>
<line class="st5" x1="644.9" y1="235.2" x2="677.5" y2="235.2"/>
<line class="st5" x1="491.9" y1="241.3" x2="542" y2="241.3"/>
<line class="st5" x1="547.9" y1="241.3" x2="613.8" y2="241.3"/>
<line class="st5" x1="619.4" y1="242.2" x2="668.4" y2="242.2"/>
<line class="st5" x1="484.8" y1="248.1" x2="553.2" y2="248.1"/>
<line class="st5" x1="560.2" y1="248.4" x2="622.9" y2="248.4"/>
<line class="st5" x1="629.7" y1="248.7" x2="697.7" y2="248.7"/>
<g>
	<path class="st0" d="M489.5,306.3c-7.8,0-14.2-6.4-14.2-14.2v-5.9c0-7.8,6.4-14.2,14.2-14.2h198.1c7.8,0,14.2,6.4,14.2,14.2v5.9
		c0,7.8-6.4,14.2-14.2,14.2H489.5z"/>
	<g>
		<path class="st0" d="M687.7,273.9c6.8,0,12.4,5.5,12.4,12.4v5.9c0,6.8-5.5,12.4-12.4,12.4H489.5c-6.8,0-12.4-5.5-12.4-12.4v-5.9
			c0-6.8,5.5-12.4,12.4-12.4H687.7 M687.7,270.2H489.5c-8.8,0-16,7.1-16,16v5.9c0,8.8,7.1,16,16,16h198.1c8.8,0,16-7.1,16-16v-5.9
			C703.7,277.4,696.5,270.2,687.7,270.2L687.7,270.2z"/>
	</g>
</g>
<g>
	<path class="st1" d="M479.6,301.5c-8.1,0-14.7-6.6-14.7-14.7v-5.9c0-8.1,6.6-14.7,14.7-14.7h198.1c8.1,0,14.7,6.6,14.7,14.7v5.9
		c0,8.1-6.6,14.7-14.7,14.7H479.6z"/>
	<path d="M677.7,267.5c7.4,0,13.4,6,13.4,13.4v5.9c0,7.4-6,13.4-13.4,13.4H479.6c-7.4,0-13.4-6-13.4-13.4v-5.9
		c0-7.4,6-13.4,13.4-13.4H677.7 M677.7,264.9H479.6c-8.8,0-16,7.1-16,16v5.9c0,8.8,7.1,16,16,16h198.1c8.8,0,16-7.1,16-16v-5.9
		C693.7,272.1,686.5,264.9,677.7,264.9L677.7,264.9z"/>
</g>
<path class="st0" d="M362.6,594.2c0,0,10.8-129.9,46.6-129.9S456.2,595,456.2,595L362.6,594.2z"/>
<ellipse transform="matrix(7.088905e-02 -0.9975 0.9975 7.088905e-02 -71.3482 826.4174)" class="st0" cx="407.9" cy="451.5" rx="38.4" ry="38.4"/>
<path class="st6" d="M347.6,586.3c0,0,10.8-129.9,46.6-129.9s46.9,130.7,46.9,130.7L347.6,586.3z"/>
<circle class="st6" cx="392.9" cy="443.6" r="38.4"/>
<path class="st0" d="M404.3,633c0,0,10.8-129.9,46.6-129.9s46.9,130.7,46.9,130.7L404.3,633z"/>
<ellipse transform="matrix(7.088901e-02 -0.9975 0.9975 7.088901e-02 -71.3574 903.981)" class="st0" cx="449.6" cy="490.3" rx="38.4" ry="38.4"/>
<path class="st6" d="M389.2,625.1c0,0,10.8-129.9,46.6-129.9s46.9,130.7,46.9,130.7L389.2,625.1z"/>
<circle class="st6" cx="434.5" cy="482.4" r="38.4"/>
<path class="st0" d="M495.4,543.8c0,0,7-84.3,30.3-84.3c23.3,0,30.5,84.9,30.5,84.9L495.4,543.8z"/>
<circle class="st0" cx="524.8" cy="451.1" r="24.9"/>
<path class="st6" d="M485.6,538.6c0,0,7-84.3,30.3-84.3c23.3,0,30.5,84.9,30.5,84.9L485.6,538.6z"/>
<circle class="st6" cx="515" cy="446" r="24.9"/>
<path class="st0" d="M563.2,600c0,0,7.4-89.1,32-89.1c24.6,0,32.2,89.6,32.2,89.6L563.2,600z"/>
<circle class="st0" cx="594.2" cy="502.1" r="26.3"/>
<path class="st6" d="M552.8,594.6c0,0,7.4-89.1,32-89.1c24.6,0,32.2,89.6,32.2,89.6L552.8,594.6z"/>
<circle class="st6" cx="583.9" cy="496.7" r="26.3"/>
<path class="st0" d="M646.1,497.8c0,0,7.4-89.1,32-89.1c24.6,0,32.2,89.6,32.2,89.6L646.1,497.8z"/>
<circle class="st0" cx="677.2" cy="400" r="26.3"/>
<path class="st6" d="M635.8,492.4c0,0,7.4-89.1,32-89.1c24.6,0,32.2,89.6,32.2,89.6L635.8,492.4z"/>
<circle class="st6" cx="666.9" cy="394.6" r="26.3"/>
<path class="st0" d="M733.1,783.4c0,0,18-216.4,77.7-216.4s78.1,217.7,78.1,217.7L733.1,783.4z"/>
<ellipse transform="matrix(0.7071 -0.7071 0.7071 0.7071 -149.0786 731.5606)" class="st0" cx="808.5" cy="545.7" rx="63.9" ry="63.9"/>
<path class="st6" d="M708,770.1c0,0,18-216.4,77.7-216.4s78.1,217.7,78.1,217.7L708,770.1z"/>
<ellipse transform="matrix(0.7071 -0.7071 0.7071 0.7071 -147.0482 709.9838)" class="st6" cx="783.5" cy="532.5" rx="63.9" ry="63.9"/>
</svg>
