<?xml version="1.0" encoding="utf-8"?>
<!-- Generator: Adobe Illustrator 26.3.1, SVG Export Plug-In . SVG Version: 6.00 Build 0)  -->
<svg version="1.1" id="Layer_1" xmlns="http://www.w3.org/2000/svg" xmlns:xlink="http://www.w3.org/1999/xlink" x="0px" y="0px"
	 viewBox="0 0 1000 1000" style="enable-background:new 0 0 1000 1000;" xml:space="preserve">
<style type="text/css">
	.st0{fill:#999999;}
	.st1{fill:#FFFFFF;stroke:#000000;stroke-width:7;stroke-miterlimit:10;}
	.st2{fill:#FFFFFF;stroke:#000000;stroke-width:4;stroke-miterlimit:10;}
	.st3{fill:#FFFFFF;stroke:#000000;stroke-width:2;stroke-miterlimit:10;}
	.st4{fill:#FFFFFF;stroke:#000000;stroke-width:3;stroke-miterlimit:10;}
	.st5{fill:none;stroke:#000000;stroke-width:5;stroke-miterlimit:10;}
	.st6{fill:none;stroke:#999999;stroke-width:3;stroke-miterlimit:10;}
</style>
<path class="st0" d="M929.4,707.6H129.2c-27,0-48.9-21.9-48.9-48.9V366.2c0-27,21.9-48.9,48.9-48.9h800.3c27,0,48.9,21.9,48.9,48.9
	v292.6C978.3,685.7,956.4,707.6,929.4,707.6z"/>
<path class="st1" d="M875,682.7H74.7c-27,0-48.9-21.9-48.9-48.9V341.2c0-27,21.9-48.9,48.9-48.9H875c27,0,48.9,21.9,48.9,48.9v292.6
	C923.9,660.8,902,682.7,875,682.7z"/>
<polyline class="st2" points="235.5,345 280.9,345 280.9,630.8 235.5,630.8 "/>
<path class="st0" d="M499.2,579.4H389.3c-7.6,0-13.8-6.2-13.8-13.8v-0.9c0-7.6,6.2-13.8,13.8-13.8h109.9c7.6,0,13.8,6.2,13.8,13.8
	v0.9C513,573.2,506.8,579.4,499.2,579.4z"/>
<path class="st3" d="M492,575.7H382.2c-7.6,0-13.8-6.2-13.8-13.8V561c0-7.6,6.2-13.8,13.8-13.8H492c7.6,0,13.8,6.2,13.8,13.8v0.9
	C505.9,569.5,499.7,575.7,492,575.7z"/>
<path class="st0" d="M839.7,582.4h-6.2c-18.1,0-32.8-14.6-32.8-32.8v-112c0-18.1,14.6-32.8,32.8-32.8h6.2
	c18.1,0,32.8,14.6,32.8,32.8v112C872.4,567.8,857.8,582.4,839.7,582.4z"/>
<polyline class="st3" points="372.9,533.9 372.9,513.8 503.6,513.8 503.6,540.5 "/>
<polyline class="st4" points="539.5,406.5 623.4,483.4 767.9,483.4 "/>
<path class="st4" d="M830.3,575.7h-6.2c-18.1,0-32.8-14.6-32.8-32.8v-112c0-18.1,14.6-32.8,32.8-32.8h6.2
	c18.1,0,32.8,14.6,32.8,32.8v112C863,561.1,848.3,575.7,830.3,575.7z"/>
<ellipse class="st0" cx="650.3" cy="630.1" rx="89" ry="19.9"/>
<ellipse class="st3" cx="643.4" cy="621.2" rx="89" ry="19.9"/>
<polyline class="st3" points="543.4,584.6 543.4,547.3 752.1,547.3 752.1,601.3 "/>
<line class="st5" x1="415.9" y1="339.6" x2="501.1" y2="339.6"/>
<line class="st5" x1="516.2" y1="339.8" x2="571.1" y2="339.8"/>
<line class="st6" x1="416.2" y1="356.9" x2="577.6" y2="356.9"/>
<line class="st6" x1="590.6" y1="356.9" x2="658.3" y2="356.9"/>
<line class="st6" x1="417" y1="366.7" x2="500.1" y2="366.7"/>
<line class="st6" x1="509.1" y1="366.7" x2="627.3" y2="366.7"/>
<line class="st6" x1="639.5" y1="366.7" x2="684.4" y2="366.7"/>
<line class="st6" x1="417" y1="376.5" x2="552.3" y2="376.5"/>
<line class="st6" x1="565.3" y1="374.9" x2="679.5" y2="374.9"/>
<line class="st5" x1="342.3" y1="456.1" x2="413.1" y2="456.1"/>
<line class="st6" x1="342.5" y1="469" x2="433.4" y2="469"/>
<line class="st6" x1="439.6" y1="468" x2="534.3" y2="468"/>
<line class="st6" x1="342.3" y1="477.2" x2="459.9" y2="477.2"/>
<line class="st6" x1="466.9" y1="476.6" x2="546.1" y2="476.6"/>
<line class="st6" x1="342" y1="484.7" x2="463.4" y2="484.7"/>
<line class="st6" x1="470.9" y1="485.2" x2="534" y2="485.2"/>
<line class="st6" x1="540.9" y1="485.8" x2="580.8" y2="485.8"/>
<line class="st6" x1="342" y1="492.8" x2="452.4" y2="492.8"/>
<line class="st6" x1="457" y1="492.8" x2="521.2" y2="492.8"/>
<path class="st0" d="M202.4,640.6h-83.5c-13.6,0-24.6-11-24.6-24.6V369.2c0-13.6,11-24.6,24.6-24.6h83.5c13.6,0,24.6,11,24.6,24.6
	v246.7C227,629.5,216,640.6,202.4,640.6z"/>
<path class="st2" d="M188.3,634.5h-83.5c-13.6,0-24.6-11-24.6-24.6V363.2c0-13.6,11-24.6,24.6-24.6h83.5c13.6,0,24.6,11,24.6,24.6
	v246.7C212.9,623.5,201.9,634.5,188.3,634.5z"/>
</svg>
