<?xml version="1.0" encoding="utf-8"?>
<!-- Generator: Adobe Illustrator 26.3.1, SVG Export Plug-In . SVG Version: 6.00 Build 0)  -->
<svg version="1.1" id="Layer_1" xmlns="http://www.w3.org/2000/svg" xmlns:xlink="http://www.w3.org/1999/xlink" x="0px" y="0px"
	 viewBox="0 0 1000 1000" style="enable-background:new 0 0 1000 1000;" xml:space="preserve">
<style type="text/css">
	.st0{fill:#736357;}
	.st1{fill:#CCCCCC;}
	.st2{fill:#FFFFFF;stroke:#000000;stroke-width:4;stroke-miterlimit:10;}
	.st3{fill:#E6E6E6;}
	.st4{fill:#808080;}
	.st5{fill:#666666;}
	.st6{fill:none;stroke:#006E54;stroke-width:6;stroke-miterlimit:10;}
	.st7{fill:none;stroke:#CCCCCC;stroke-width:2;stroke-miterlimit:10;}
	.st8{fill:none;stroke:#999999;stroke-width:4;stroke-miterlimit:10;}
	.st9{fill:none;stroke:#720027;stroke-width:6;stroke-miterlimit:10;}
	.st10{fill:none;stroke:#4D4D4D;stroke-width:2;stroke-miterlimit:10;}
	.st11{font-family:'MontserratAlternates-Black';}
	.st12{font-size:22.7286px;}
</style>
<path class="st0" d="M817.2,221.1c33.7,0,61.2,27.5,61.2,61.2v302.5c0,33.7-27.5,61.2-61.2,61.2H190.6c-33.7,0-61.2-27.5-61.2-61.2
	V282.4c0-33.7,27.5-61.2,61.2-61.2L817.2,221.1 M817.2,220.2H190.6c-34.3,0-62.1,27.8-62.1,62.1v302.5c0,34.3,27.8,62.1,62.1,62.1
	h626.5c34.3,0,62.1-27.8,62.1-62.1V282.4C879.3,248.1,851.4,220.2,817.2,220.2L817.2,220.2z"/>
<path class="st1" d="M843.4,665.6H224.3c-36.1,0-65.3-29.3-65.3-65.3V305.1c0-36.1,29.3-65.3,65.3-65.3h619.1
	c36.1,0,65.3,29.3,65.3,65.3v295.1C908.8,636.3,879.5,665.6,843.4,665.6z"/>
<path class="st2" d="M813.4,646.4H194.3c-36.1,0-65.3-29.3-65.3-65.3V286.1c0-36.1,29.3-65.3,65.3-65.3h619.1
	c36.1,0,65.3,29.3,65.3,65.3v295.1C878.8,617.2,849.5,646.4,813.4,646.4z"/>
<g>
	<path class="st3" d="M188.2,271.5c-8.3,0-14.9-6.7-14.9-14.9v-7c0-8.3,6.7-14.9,14.9-14.9h477.4c8.3,0,14.9,6.7,14.9,14.9v7
		c0,8.3-6.7,14.9-14.9,14.9H188.2z"/>
	<path d="M665.6,235.1c8,0,14.5,6.5,14.5,14.5v7c0,8-6.5,14.5-14.5,14.5H188.2c-8,0-14.5-6.5-14.5-14.5v-7c0-8,6.5-14.5,14.5-14.5
		H665.6 M665.6,234.2H188.2c-8.5,0-15.4,6.9-15.4,15.4v7c0,8.5,6.9,15.4,15.4,15.4h477.4c8.5,0,15.4-6.9,15.4-15.4v-7
		C681,241.1,674.2,234.2,665.6,234.2L665.6,234.2z"/>
</g>
<g>
	<circle class="st4" cx="754.1" cy="246.6" r="2.4"/>
	<path class="st5" d="M754.1,244.7c1,0,1.9,0.8,1.9,1.9c0,1.1-0.8,1.9-1.9,1.9c-1,0-1.9-0.8-1.9-1.9
		C752.2,245.5,753.1,244.7,754.1,244.7 M754.1,243.8c-1.5,0-2.8,1.3-2.8,2.8c0,1.5,1.3,2.8,2.8,2.8c1.5,0,2.8-1.3,2.8-2.8
		C756.9,245.1,755.6,243.8,754.1,243.8L754.1,243.8z"/>
</g>
<g>
	<path class="st4" d="M754.1,256.4c-1.3,0-2.4-1.1-2.4-2.4s1.1-2.4,2.4-2.4s2.4,1.1,2.4,2.4S755.3,256.4,754.1,256.4z"/>
	<path class="st5" d="M754.1,252.2c1,0,1.9,0.8,1.9,1.9c0,1.1-0.8,1.9-1.9,1.9c-1,0-1.9-0.8-1.9-1.9
		C752.2,253.1,753.1,252.2,754.1,252.2 M754.1,251.3c-1.5,0-2.8,1.3-2.8,2.8c0,1.5,1.3,2.8,2.8,2.8c1.5,0,2.8-1.3,2.8-2.8
		C756.9,252.5,755.6,251.3,754.1,251.3L754.1,251.3z"/>
</g>
<g>
	<circle class="st4" cx="754.1" cy="261.6" r="2.4"/>
	<path class="st5" d="M754.1,259.7c1,0,1.9,0.8,1.9,1.9c0,1.1-0.8,1.9-1.9,1.9c-1,0-1.9-0.8-1.9-1.9
		C752.2,260.5,753.1,259.7,754.1,259.7 M754.1,258.8c-1.5,0-2.8,1.3-2.8,2.8c0,1.5,1.3,2.8,2.8,2.8c1.5,0,2.8-1.3,2.8-2.8
		C756.9,260.1,755.6,258.8,754.1,258.8L754.1,258.8z"/>
</g>
<g>
	<path class="st4" d="M761.4,249c-1.3,0-2.4-1.1-2.4-2.4c0-1.3,1.1-2.4,2.4-2.4c1.3,0,2.4,1.1,2.4,2.4
		C763.8,247.9,762.7,249,761.4,249z"/>
	<path class="st5" d="M761.4,244.7c1,0,1.9,0.8,1.9,1.9c0,1.1-0.8,1.9-1.9,1.9c-1,0-1.9-0.8-1.9-1.9
		C759.5,245.5,760.3,244.7,761.4,244.7 M761.4,243.8c-1.5,0-2.8,1.3-2.8,2.8c0,1.5,1.3,2.8,2.8,2.8s2.8-1.3,2.8-2.8
		C764.2,245.1,763,243.8,761.4,243.8L761.4,243.8z"/>
</g>
<g>
	<path class="st4" d="M761.4,256.4c-1.3,0-2.4-1.1-2.4-2.4s1.1-2.4,2.4-2.4c1.3,0,2.4,1.1,2.4,2.4S762.7,256.4,761.4,256.4z"/>
	<path class="st5" d="M761.4,252.2c1,0,1.9,0.8,1.9,1.9c0,1.1-0.8,1.9-1.9,1.9c-1,0-1.9-0.8-1.9-1.9
		C759.5,253.1,760.3,252.2,761.4,252.2 M761.4,251.3c-1.5,0-2.8,1.3-2.8,2.8c0,1.5,1.3,2.8,2.8,2.8s2.8-1.3,2.8-2.8
		C764.2,252.5,763,251.3,761.4,251.3L761.4,251.3z"/>
</g>
<g>
	<path class="st4" d="M761.4,263.9c-1.3,0-2.4-1.1-2.4-2.4c0-1.3,1.1-2.4,2.4-2.4c1.3,0,2.4,1.1,2.4,2.4
		C763.8,262.8,762.7,263.9,761.4,263.9z"/>
	<path class="st5" d="M761.4,259.7c1,0,1.9,0.8,1.9,1.9c0,1.1-0.8,1.9-1.9,1.9c-1,0-1.9-0.8-1.9-1.9
		C759.5,260.5,760.3,259.7,761.4,259.7 M761.4,258.8c-1.5,0-2.8,1.3-2.8,2.8c0,1.5,1.3,2.8,2.8,2.8s2.8-1.3,2.8-2.8
		C764.2,260.1,763,258.8,761.4,258.8L761.4,258.8z"/>
</g>
<g>
	<path class="st4" d="M768.2,249c-1.3,0-2.4-1.1-2.4-2.4c0-1.3,1.1-2.4,2.4-2.4c1.3,0,2.4,1.1,2.4,2.4
		C770.5,247.9,769.4,249,768.2,249z"/>
	<path class="st5" d="M768.2,244.7c1,0,1.9,0.8,1.9,1.9c0,1.1-0.8,1.9-1.9,1.9c-1,0-1.9-0.8-1.9-1.9
		C766.3,245.5,767.2,244.7,768.2,244.7 M768.2,243.8c-1.5,0-2.8,1.3-2.8,2.8c0,1.5,1.3,2.8,2.8,2.8c1.5,0,2.8-1.3,2.8-2.8
		C771,245.1,769.7,243.8,768.2,243.8L768.2,243.8z"/>
</g>
<g>
	<path class="st4" d="M768.2,256.4c-1.3,0-2.4-1.1-2.4-2.4s1.1-2.4,2.4-2.4c1.3,0,2.4,1.1,2.4,2.4S769.4,256.4,768.2,256.4z"/>
	<path class="st5" d="M768.2,252.2c1,0,1.9,0.8,1.9,1.9c0,1.1-0.8,1.9-1.9,1.9c-1,0-1.9-0.8-1.9-1.9
		C766.3,253.1,767.2,252.2,768.2,252.2 M768.2,251.3c-1.5,0-2.8,1.3-2.8,2.8c0,1.5,1.3,2.8,2.8,2.8c1.5,0,2.8-1.3,2.8-2.8
		C771,252.5,769.7,251.3,768.2,251.3L768.2,251.3z"/>
</g>
<g>
	<path class="st4" d="M768.2,263.9c-1.3,0-2.4-1.1-2.4-2.4c0-1.3,1.1-2.4,2.4-2.4c1.3,0,2.4,1.1,2.4,2.4
		C770.5,262.8,769.4,263.9,768.2,263.9z"/>
	<path class="st5" d="M768.2,259.7c1,0,1.9,0.8,1.9,1.9c0,1.1-0.8,1.9-1.9,1.9c-1,0-1.9-0.8-1.9-1.9
		C766.3,260.5,767.2,259.7,768.2,259.7 M768.2,258.8c-1.5,0-2.8,1.3-2.8,2.8c0,1.5,1.3,2.8,2.8,2.8c1.5,0,2.8-1.3,2.8-2.8
		C771,260.1,769.7,258.8,768.2,258.8L768.2,258.8z"/>
</g>
<g>
	<path d="M807.4,238.7c7.9,0,14.4,6.5,14.4,14.4s-6.5,14.4-14.4,14.4c-7.9,0-14.4-6.5-14.4-14.4S799.5,238.7,807.4,238.7
		 M807.4,236.9c-8.9,0-16.2,7.3-16.2,16.2s7.3,16.2,16.2,16.2s16.2-7.3,16.2-16.2S816.3,236.9,807.4,236.9L807.4,236.9z"/>
</g>
<line class="st6" x1="172.9" y1="293" x2="247.1" y2="293"/>
<line class="st6" x1="255.6" y1="293" x2="304.4" y2="293"/>
<line class="st6" x1="315.8" y1="293" x2="350.2" y2="293"/>
<line class="st6" x1="360.4" y1="293" x2="444.6" y2="293"/>
<line class="st6" x1="453.7" y1="293" x2="466.7" y2="293"/>
<line class="st7" x1="172.9" y1="306.5" x2="210" y2="306.5"/>
<line class="st7" x1="222.5" y1="306.5" x2="255.6" y2="306.5"/>
<line class="st7" x1="268.6" y1="306.5" x2="315.8" y2="306.5"/>
<line class="st7" x1="325.6" y1="306.5" x2="358" y2="306.5"/>
<line class="st7" x1="367.2" y1="306.5" x2="416.5" y2="306.5"/>
<line class="st7" x1="427" y1="306.5" x2="466.7" y2="306.5"/>
<line class="st7" x1="475.1" y1="306.5" x2="509.5" y2="306.5"/>
<line class="st8" x1="172.9" y1="326.2" x2="247.1" y2="326.2"/>
<line class="st8" x1="255.6" y1="326.2" x2="274.1" y2="326.2"/>
<line class="st8" x1="280" y1="326.2" x2="296.9" y2="326.2"/>
<line class="st8" x1="304.4" y1="326.2" x2="321.7" y2="326.2"/>
<line class="st8" x1="333" y1="326.2" x2="386" y2="326.2"/>
<line class="st8" x1="398.8" y1="326.2" x2="444.6" y2="326.2"/>
<line class="st9" x1="172.9" y1="389" x2="274.1" y2="389"/>
<line class="st8" x1="460.1" y1="326.2" x2="525.4" y2="326.2"/>
<line class="st8" x1="172.9" y1="336.8" x2="259.4" y2="336.8"/>
<line class="st8" x1="268.6" y1="336.8" x2="350.2" y2="336.8"/>
<line class="st8" x1="363.6" y1="336.8" x2="432.5" y2="336.8"/>
<line class="st8" x1="444.6" y1="336.8" x2="548.6" y2="336.8"/>
<line class="st8" x1="172.9" y1="347.3" x2="224.9" y2="347.3"/>
<line class="st8" x1="239" y1="347.3" x2="333" y2="347.3"/>
<line class="st8" x1="341.8" y1="347.3" x2="388.9" y2="347.3"/>
<line class="st10" x1="306.6" y1="265" x2="314.2" y2="265"/>
<line class="st8" x1="402.5" y1="347.3" x2="492.3" y2="347.3"/>
<line class="st8" x1="500.8" y1="347.3" x2="548.6" y2="347.3"/>
<text transform="matrix(1 0 0 1 186.9552 262.0394)" class="st11 st12">WEBLISH</text>
<line class="st10" x1="310.4" y1="243.1" x2="310.4" y2="264.2"/>
<line class="st10" x1="306.6" y1="242.5" x2="314.2" y2="242.5"/>
<text transform="matrix(1 0 0 1 477.4513 299.1273)" class="st11 st12">#1</text>
<line class="st9" x1="288.4" y1="389" x2="341.8" y2="389"/>
<line class="st9" x1="358" y1="389" x2="398.1" y2="389"/>
<line class="st9" x1="412.1" y1="389" x2="466.7" y2="389"/>
<line class="st7" x1="173.8" y1="402.7" x2="198.9" y2="402.7"/>
<line class="st7" x1="210" y1="402.7" x2="310.4" y2="402.7"/>
<line class="st7" x1="325.6" y1="402.7" x2="360.4" y2="402.7"/>
<line class="st7" x1="373" y1="402.7" x2="432.5" y2="402.7"/>
<line class="st7" x1="444.6" y1="402.7" x2="475.1" y2="402.7"/>
<line class="st8" x1="173.8" y1="423.6" x2="255.6" y2="423.6"/>
<line class="st8" x1="268.6" y1="423.6" x2="359.5" y2="423.6"/>
<line class="st8" x1="373" y1="423.6" x2="517.5" y2="423.6"/>
<line class="st8" x1="533.9" y1="423.6" x2="558.4" y2="423.6"/>
<line class="st8" x1="173.8" y1="433.7" x2="286" y2="433.7"/>
<line class="st8" x1="296.9" y1="433.7" x2="350.2" y2="433.7"/>
<line class="st8" x1="363.6" y1="433.6" x2="453.7" y2="433.7"/>
<line class="st8" x1="466.7" y1="433.7" x2="571.2" y2="433.7"/>
<line class="st8" x1="173.8" y1="443.6" x2="247.1" y2="443.6"/>
<line class="st8" x1="259.4" y1="443.6" x2="363.6" y2="443.6"/>
<line class="st8" x1="378" y1="443.6" x2="496.6" y2="443.6"/>
<line class="st8" x1="509.5" y1="443.6" x2="563.9" y2="443.6"/>
<line class="st8" x1="173.8" y1="452.7" x2="264.9" y2="452.7"/>
<line class="st9" x1="173.8" y1="493.6" x2="325.6" y2="493.6"/>
<line class="st9" x1="341.8" y1="493.6" x2="432.5" y2="493.6"/>
<line class="st9" x1="444.6" y1="493.6" x2="483.9" y2="493.6"/>
<line class="st7" x1="173.8" y1="506.3" x2="224.9" y2="506.3"/>
<line class="st7" x1="239" y1="506.3" x2="286" y2="506.3"/>
<line class="st7" x1="296.9" y1="506.3" x2="341.8" y2="506.3"/>
<line class="st7" x1="350.2" y1="506.3" x2="378" y2="506.3"/>
<line class="st7" x1="388.9" y1="506.3" x2="421.7" y2="506.3"/>
<line class="st7" x1="432.5" y1="506.3" x2="503.9" y2="506.3"/>
<line class="st8" x1="173.8" y1="525.4" x2="255.6" y2="525.4"/>
<line class="st8" x1="264.9" y1="525.4" x2="325.6" y2="525.4"/>
<line class="st8" x1="341.8" y1="525.4" x2="405.2" y2="525.4"/>
<line class="st8" x1="416.5" y1="525.4" x2="496.6" y2="525.4"/>
<line class="st8" x1="509.5" y1="525.4" x2="533.9" y2="525.4"/>
<line class="st8" x1="173.8" y1="539.1" x2="321.7" y2="539.1"/>
<line class="st8" x1="333" y1="539.1" x2="402.8" y2="539.1"/>
<line class="st8" x1="412.1" y1="539.1" x2="483.9" y2="539.1"/>
<line class="st8" x1="496.6" y1="539.1" x2="548.6" y2="539.1"/>
<line class="st8" x1="173.8" y1="548.2" x2="292.1" y2="548.2"/>
</svg>
