<?xml version="1.0" encoding="utf-8"?>
<!-- Generator: Adobe Illustrator 26.3.1, SVG Export Plug-In . SVG Version: 6.00 Build 0)  -->
<svg version="1.1" id="Layer_1" xmlns="http://www.w3.org/2000/svg" xmlns:xlink="http://www.w3.org/1999/xlink" x="0px" y="0px"
	 viewBox="0 0 1000 1000" style="enable-background:new 0 0 1000 1000;" xml:space="preserve">
<style type="text/css">
	.st0{fill:#CCCCCC;}
	.st1{fill:#FFFFFF;}
	.st2{fill:none;stroke:#006E54;stroke-width:6;stroke-miterlimit:10;}
	.st3{fill:none;stroke:#000000;stroke-width:9;stroke-miterlimit:10;}
	.st4{fill:none;stroke:#CCCCCC;stroke-width:4;stroke-miterlimit:10;}
	.st5{fill:#E6E6E6;stroke:#CCCCCC;stroke-width:2;stroke-miterlimit:10;}
	.st6{fill:#006E54;stroke:#006054;stroke-width:2;stroke-miterlimit:10;}
	.st7{fill:none;stroke:#CCCCCC;stroke-width:2;stroke-miterlimit:10;}
	.st8{fill:none;stroke:#006054;stroke-width:4;stroke-miterlimit:10;}
	.st9{fill:none;stroke:#C1272D;stroke-width:6;stroke-miterlimit:10;}
	.st10{fill:none;stroke:#006E54;stroke-width:8;stroke-miterlimit:10;}
</style>
<g>
	<path class="st0" d="M437.8,307.3H166.5c-25.7,0-46.6-20.9-46.6-46.6v-89.9c0-25.7,20.9-46.6,46.6-46.6h271.3
		c25.7,0,46.6,20.9,46.6,46.6v89.9C484.3,286.4,463.5,307.3,437.8,307.3z"/>
</g>
<g>
	<path class="st0" d="M748.8,560.7H477.5c-25.7,0-46.6-20.9-46.6-46.6v-89.9c0-25.7,20.9-46.6,46.6-46.6h271.3
		c25.7,0,46.6,20.9,46.6,46.6v89.9C795.3,539.9,774.5,560.7,748.8,560.7z"/>
</g>
<g>
	<path class="st1" d="M468.5,552.1c-24.8,0-44.9-20.1-44.9-44.9v-89.9c0-24.8,20.1-44.9,44.9-44.9h271.3c24.8,0,44.9,20.1,44.9,44.9
		v89.9c0,24.8-20.1,44.9-44.9,44.9L468.5,552.1L468.5,552.1z"/>
	<path d="M739.8,374c23.9,0,43.2,19.4,43.2,43.2v89.9c0,23.9-19.4,43.2-43.2,43.2H468.5c-23.9,0-43.2-19.4-43.2-43.2v-89.9
		c0-23.9,19.4-43.2,43.2-43.2H739.8 M739.8,370.7H468.5c-25.7,0-46.6,20.9-46.6,46.6v89.9c0,25.7,20.9,46.6,46.6,46.6h271.3
		c25.7,0,46.6-20.9,46.6-46.6v-89.9C786.4,391.6,765.5,370.7,739.8,370.7L739.8,370.7z"/>
</g>
<line class="st2" x1="698.9" y1="388.7" x2="698.9" y2="414.2"/>
<line class="st2" x1="708.3" y1="388.7" x2="708.3" y2="414.2"/>
<line class="st2" x1="718.9" y1="388.7" x2="718.9" y2="414.2"/>
<line class="st2" x1="728.9" y1="388.7" x2="728.9" y2="414.2"/>
<line class="st2" x1="739.3" y1="388.7" x2="739.3" y2="414.2"/>
<line class="st2" x1="749.3" y1="388.7" x2="749.3" y2="414.2"/>
<line class="st3" x1="458.5" y1="394.5" x2="511.4" y2="394.5"/>
<line class="st4" x1="458.5" y1="429" x2="519" y2="429"/>
<line class="st4" x1="536.7" y1="429" x2="588.9" y2="429"/>
<line class="st4" x1="609.1" y1="429" x2="657.9" y2="429"/>
<line class="st4" x1="678.9" y1="429" x2="723.5" y2="429"/>
<line class="st4" x1="458.5" y1="439" x2="506.4" y2="439"/>
<line class="st4" x1="515.7" y1="439" x2="578.8" y2="439"/>
<line class="st4" x1="588.9" y1="439" x2="642.7" y2="439"/>
<line class="st4" x1="652.8" y1="439" x2="701.2" y2="439"/>
<line class="st4" x1="458.5" y1="448.4" x2="519" y2="448.4"/>
<line class="st4" x1="531.6" y1="448.4" x2="578.8" y2="448.4"/>
<line class="st4" x1="588.9" y1="448.4" x2="662" y2="448.4"/>
<line class="st4" x1="675.1" y1="448.4" x2="739.3" y2="448.4"/>
<line class="st4" x1="458.5" y1="458.4" x2="506.4" y2="458.4"/>
<path class="st5" d="M664.6,535h-57.2c-5.8,0-10.5-4.7-10.5-10.5l0,0c0-5.8,4.7-10.5,10.5-10.5h57.2c5.8,0,10.5,4.7,10.5,10.5l0,0
	C675.1,530.3,670.4,535,664.6,535z"/>
<path class="st6" d="M752.1,535h-57.2c-5.8,0-10.5-4.7-10.5-10.5l0,0c0-5.8,4.7-10.5,10.5-10.5h57.2c5.8,0,10.5,4.7,10.5,10.5l0,0
	C762.7,530.3,757.9,535,752.1,535z"/>
<line class="st7" x1="604.2" y1="524.4" x2="615.8" y2="524.4"/>
<line class="st7" x1="619.3" y1="524.4" x2="652.8" y2="524.4"/>
<line class="st7" x1="660.4" y1="524.4" x2="666.9" y2="524.4"/>
<line class="st8" x1="689.9" y1="524.4" x2="708.3" y2="524.4"/>
<line class="st8" x1="712.7" y1="524.4" x2="726.2" y2="524.4"/>
<line class="st8" x1="730.6" y1="524.4" x2="755.1" y2="524.4"/>
<line class="st8" x1="665.7" y1="401.5" x2="684.6" y2="401.5"/>
<line class="st8" x1="675.1" y1="410.9" x2="675.1" y2="392.1"/>
<g>
	<path class="st1" d="M157.5,298.7c-24.8,0-44.9-20.1-44.9-44.9v-89.9c0-24.8,20.1-44.9,44.9-44.9h271.4c24.8,0,44.9,20.1,44.9,44.9
		v89.9c0,24.8-20.1,44.9-44.9,44.9H157.5z"/>
	<path d="M428.9,120.6c23.9,0,43.2,19.4,43.2,43.2v89.9c0,23.9-19.4,43.2-43.2,43.2H157.5c-23.9,0-43.2-19.4-43.2-43.2v-89.9
		c0-23.9,19.4-43.2,43.2-43.2L428.9,120.6 M428.9,117.3H157.5c-25.7,0-46.6,20.9-46.6,46.6v89.9c0,25.7,20.9,46.6,46.6,46.6h271.4
		c25.7,0,46.6-20.9,46.6-46.6v-89.9C475.3,138.2,454.6,117.3,428.9,117.3L428.9,117.3z"/>
</g>
<line class="st9" x1="356" y1="148.1" x2="372.3" y2="148.1"/>
<line class="st9" x1="387.9" y1="135.3" x2="387.9" y2="160.8"/>
<line class="st9" x1="397.3" y1="135.3" x2="397.3" y2="160.8"/>
<line class="st9" x1="408" y1="135.3" x2="408" y2="160.8"/>
<line class="st9" x1="418" y1="135.3" x2="418" y2="160.8"/>
<line class="st9" x1="428.3" y1="135.3" x2="428.3" y2="160.8"/>
<line class="st9" x1="438.3" y1="135.3" x2="438.3" y2="160.8"/>
<line class="st3" x1="147.4" y1="141.1" x2="200.5" y2="141.1"/>
<line class="st3" x1="220.6" y1="141.1" x2="282.1" y2="141.1"/>
<line class="st4" x1="147.4" y1="175.6" x2="208.1" y2="175.6"/>
<line class="st4" x1="225.7" y1="175.6" x2="277.9" y2="175.6"/>
<line class="st4" x1="298" y1="175.6" x2="346.9" y2="175.6"/>
<line class="st4" x1="367.9" y1="175.6" x2="412.6" y2="175.6"/>
<line class="st4" x1="147.4" y1="185.6" x2="195.4" y2="185.6"/>
<line class="st4" x1="204.7" y1="185.6" x2="267.8" y2="185.6"/>
<line class="st4" x1="277.9" y1="185.6" x2="331.7" y2="185.6"/>
<line class="st4" x1="341.9" y1="185.6" x2="390.2" y2="185.6"/>
<line class="st4" x1="147.4" y1="195" x2="208.1" y2="195"/>
<line class="st4" x1="220.6" y1="195" x2="267.8" y2="195"/>
<line class="st4" x1="277.9" y1="195" x2="351.1" y2="195"/>
<line class="st4" x1="364.2" y1="195" x2="428.3" y2="195"/>
<line class="st4" x1="147.4" y1="205" x2="195.4" y2="205"/>
<path class="st5" d="M353.6,281.5h-57.2c-5.8,0-10.5-4.7-10.5-10.5l0,0c0-5.8,4.7-10.5,10.5-10.5h57.2c5.8,0,10.5,4.7,10.5,10.5l0,0
	C364.2,276.9,359.4,281.5,353.6,281.5z"/>
<path class="st6" d="M441.2,281.5H384c-5.8,0-10.5-4.7-10.5-10.5l0,0c0-5.8,4.7-10.5,10.5-10.5h57.2c5.8,0,10.5,4.7,10.5,10.5l0,0
	C451.6,276.9,447,281.5,441.2,281.5z"/>
<line class="st7" x1="293.1" y1="271.1" x2="304.8" y2="271.1"/>
<line class="st7" x1="308.4" y1="271.1" x2="341.9" y2="271.1"/>
<line class="st7" x1="349.4" y1="271.1" x2="356" y2="271.1"/>
<line class="st8" x1="379" y1="271.1" x2="397.3" y2="271.1"/>
<line class="st8" x1="401.7" y1="271.1" x2="415.2" y2="271.1"/>
<line class="st8" x1="419.7" y1="271.1" x2="444.1" y2="271.1"/>
<g>
	<path class="st0" d="M826.9,599.4H555.6c-25.7,0-46.6-20.9-46.6-46.6v-89.9c0-25.7,20.9-46.6,46.6-46.6h271.3
		c25.7,0,46.6,20.9,46.6,46.6v89.9C873.4,578.6,852.6,599.4,826.9,599.4z"/>
</g>
<g>
	<path class="st1" d="M547.4,590.7c-24.8,0-44.9-20.1-44.9-44.9v-89.9c0-24.8,20.1-44.9,44.9-44.9h271.3c24.8,0,44.9,20.1,44.9,44.9
		v89.9c0,24.8-20.1,44.9-44.9,44.9L547.4,590.7L547.4,590.7z"/>
	<path d="M818.6,412.7c23.9,0,43.2,19.4,43.2,43.2v89.9c0,23.9-19.4,43.2-43.2,43.2H547.4c-23.9,0-43.2-19.4-43.2-43.2v-89.9
		c0-23.9,19.4-43.2,43.2-43.2H818.6 M818.6,409.4H547.4c-25.7,0-46.6,20.9-46.6,46.6v89.9c0,25.7,20.9,46.6,46.6,46.6h271.3
		c25.7,0,46.6-20.9,46.6-46.6v-89.9C865.2,430.2,844.3,409.4,818.6,409.4L818.6,409.4z"/>
</g>
<line class="st2" x1="776.9" y1="427.4" x2="776.9" y2="452.8"/>
<line class="st2" x1="765.7" y1="427.4" x2="765.7" y2="452.8"/>
<line class="st2" x1="786.4" y1="427.4" x2="786.4" y2="452.8"/>
<line class="st2" x1="797" y1="427.4" x2="797" y2="452.8"/>
<line class="st2" x1="807" y1="427.4" x2="807" y2="452.8"/>
<line class="st2" x1="817.3" y1="427.4" x2="817.3" y2="452.8"/>
<line class="st2" x1="827.4" y1="427.4" x2="827.4" y2="452.8"/>
<line class="st2" x1="836.8" y1="427.4" x2="836.8" y2="452.8"/>
<line class="st3" x1="536.5" y1="433.1" x2="589.5" y2="433.1"/>
<line class="st3" x1="603.5" y1="433.1" x2="647" y2="433.1"/>
<line class="st3" x1="660.5" y1="433.1" x2="704" y2="433.1"/>
<line class="st4" x1="536.5" y1="467.6" x2="584.5" y2="467.6"/>
<line class="st4" x1="589.5" y1="467.6" x2="666.9" y2="467.6"/>
<line class="st4" x1="687.2" y1="467.6" x2="736" y2="467.6"/>
<line class="st4" x1="757" y1="467.6" x2="801.6" y2="467.6"/>
<line class="st4" x1="536.5" y1="477.8" x2="584.5" y2="477.8"/>
<line class="st4" x1="630.9" y1="477.8" x2="656.8" y2="477.8"/>
<line class="st4" x1="597.1" y1="477.8" x2="623" y2="477.8"/>
<line class="st4" x1="666.9" y1="477.8" x2="711.5" y2="477.8"/>
<line class="st4" x1="722.8" y1="477.8" x2="790.8" y2="477.8"/>
<line class="st4" x1="536.5" y1="487" x2="597.1" y2="487"/>
<line class="st4" x1="609.7" y1="487" x2="656.8" y2="487"/>
<line class="st4" x1="666.9" y1="487" x2="740.1" y2="487"/>
<line class="st4" x1="753.2" y1="487" x2="817.3" y2="487"/>
<line class="st4" x1="536.5" y1="497.1" x2="584.5" y2="497.1"/>
<line class="st4" x1="593.8" y1="497.1" x2="641.7" y2="497.1"/>
<path class="st5" d="M742.6,573.7h-57.2c-5.8,0-10.5-4.7-10.5-10.5l0,0c0-5.8,4.7-10.5,10.5-10.5h57.2c5.8,0,10.5,4.7,10.5,10.5l0,0
	C753.2,568.9,748.4,573.7,742.6,573.7z"/>
<path class="st6" d="M830.2,573.7H773c-5.8,0-10.5-4.7-10.5-10.5l0,0c0-5.8,4.7-10.5,10.5-10.5h57.2c5.8,0,10.5,4.7,10.5,10.5l0,0
	C840.7,568.9,836,573.7,830.2,573.7z"/>
<line class="st7" x1="682.2" y1="563.1" x2="693.9" y2="563.1"/>
<line class="st7" x1="697.4" y1="563.1" x2="730.9" y2="563.1"/>
<line class="st7" x1="738.5" y1="563.1" x2="745" y2="563.1"/>
<line class="st8" x1="768" y1="563.1" x2="786.4" y2="563.1"/>
<line class="st8" x1="790.8" y1="563.1" x2="804.2" y2="563.1"/>
<line class="st8" x1="808.7" y1="563.1" x2="833.1" y2="563.1"/>
<line class="st8" x1="735.6" y1="440.1" x2="754.4" y2="440.1"/>
<line class="st8" x1="745" y1="449.6" x2="745" y2="430.7"/>
<path class="st10" d="M507.6,210.8c15.3,0.7,119.8,7.2,160.6,81.5c5.2,9.3,9.8,20.9,12.8,34.8"/>
<path class="st10" d="M653.4,325.6c0,0,9.9,24.8,32.4,18.8C708.4,338.3,704,313,704,313"/>
<g>
	<path class="st0" d="M667.5,647.6H396.2c-25.7,0-46.6-20.9-46.6-46.6v-89.9c0-25.7,20.9-46.6,46.6-46.6h271.4
		c25.7,0,46.6,20.9,46.6,46.6V601C714.1,626.7,693.2,647.6,667.5,647.6z"/>
</g>
<g>
	<path class="st1" d="M388,639c-24.8,0-44.9-20.1-44.9-44.9v-89.9c0-24.8,20.1-44.9,44.9-44.9h271.3c24.8,0,44.9,20.1,44.9,44.9
		v89.9c0,24.8-20.1,44.9-44.9,44.9L388,639L388,639z"/>
	<path d="M659.3,460.9c23.9,0,43.2,19.4,43.2,43.2v89.9c0,23.9-19.4,43.2-43.2,43.2H388c-23.9,0-43.2-19.4-43.2-43.2v-89.9
		c0-23.9,19.4-43.2,43.2-43.2H659.3 M659.3,457.6H388c-25.7,0-46.6,20.9-46.6,46.6v89.9c0,25.7,20.9,46.6,46.6,46.6h271.3
		c25.7,0,46.6-20.9,46.6-46.6v-89.9C705.9,478.5,685,457.6,659.3,457.6L659.3,457.6z"/>
</g>
<line class="st2" x1="617.5" y1="475.6" x2="617.5" y2="501.1"/>
<line class="st2" x1="606.3" y1="475.6" x2="606.3" y2="501.1"/>
<line class="st2" x1="627" y1="475.6" x2="627" y2="501.1"/>
<line class="st2" x1="637.7" y1="475.6" x2="637.7" y2="501.1"/>
<line class="st2" x1="647.7" y1="475.6" x2="647.7" y2="501.1"/>
<line class="st2" x1="658" y1="475.6" x2="658" y2="501.1"/>
<line class="st2" x1="668" y1="475.6" x2="668" y2="501.1"/>
<line class="st3" x1="377.1" y1="481.4" x2="430.2" y2="481.4"/>
<line class="st3" x1="444.2" y1="481.4" x2="487.7" y2="481.4"/>
<line class="st4" x1="377.1" y1="515.9" x2="425.1" y2="515.9"/>
<line class="st4" x1="436.8" y1="515.9" x2="519.9" y2="515.9"/>
<line class="st4" x1="527.8" y1="515.9" x2="554.8" y2="515.9"/>
<line class="st4" x1="560.5" y1="515.9" x2="587.4" y2="515.9"/>
<line class="st4" x1="597.6" y1="515.9" x2="630.4" y2="515.9"/>
<line class="st4" x1="377.1" y1="525.9" x2="425.1" y2="525.9"/>
<line class="st4" x1="471.5" y1="525.9" x2="512" y2="525.9"/>
<line class="st4" x1="437.8" y1="525.9" x2="463.7" y2="525.9"/>
<line class="st4" x1="522.9" y1="525.9" x2="552.2" y2="525.9"/>
<line class="st4" x1="563.5" y1="525.9" x2="631.4" y2="525.9"/>
<line class="st4" x1="377.1" y1="535.3" x2="407.4" y2="535.3"/>
<line class="st4" x1="414.1" y1="535.3" x2="497.5" y2="535.3"/>
<line class="st4" x1="507.6" y1="535.3" x2="580.8" y2="535.3"/>
<line class="st4" x1="593.8" y1="535.3" x2="666.9" y2="535.3"/>
<line class="st4" x1="377.1" y1="545.3" x2="425.1" y2="545.3"/>
<line class="st4" x1="434.4" y1="545.3" x2="482.4" y2="545.3"/>
<path class="st5" d="M583.3,621.8h-57.2c-5.8,0-10.5-4.7-10.5-10.5l0,0c0-5.8,4.7-10.5,10.5-10.5h57.2c5.8,0,10.5,4.7,10.5,10.5l0,0
	C593.8,617.2,589.1,621.8,583.3,621.8z"/>
<path class="st6" d="M670.9,621.8h-57.2c-5.8,0-10.5-4.7-10.5-10.5l0,0c0-5.8,4.7-10.5,10.5-10.5h57.2c5.8,0,10.5,4.7,10.5,10.5l0,0
	C681.3,617.2,676.7,621.8,670.9,621.8z"/>
<line class="st7" x1="522.9" y1="611.3" x2="534.6" y2="611.3"/>
<line class="st7" x1="538" y1="611.3" x2="571.6" y2="611.3"/>
<line class="st7" x1="579.1" y1="611.3" x2="585.7" y2="611.3"/>
<line class="st8" x1="608.7" y1="611.3" x2="627" y2="611.3"/>
<line class="st8" x1="631.4" y1="611.3" x2="644.9" y2="611.3"/>
<line class="st8" x1="649.4" y1="611.3" x2="673.8" y2="611.3"/>
<line class="st8" x1="576.2" y1="488.4" x2="595.1" y2="488.4"/>
<line class="st8" x1="585.7" y1="497.8" x2="585.7" y2="479"/>
</svg>
