<?xml version="1.0" encoding="utf-8"?>
<!-- Generator: Adobe Illustrator 26.3.1, SVG Export Plug-In . SVG Version: 6.00 Build 0)  -->
<svg version="1.1" id="Layer_1" xmlns="http://www.w3.org/2000/svg" xmlns:xlink="http://www.w3.org/1999/xlink" x="0px" y="0px"
	 viewBox="0 0 1000 1000" style="enable-background:new 0 0 1000 1000;" xml:space="preserve">
<style type="text/css">
	.st0{fill:#4D4D4D;}
	.st1{fill:#CCCCCC;}
	.st2{fill:#FFFFFF;}
	.st3{fill:#FFFFFF;stroke:#4D4D4D;stroke-width:4;stroke-miterlimit:10;}
	.st4{fill:none;stroke:#720027;stroke-width:6;stroke-miterlimit:10;}
	.st5{fill:none;stroke:#999999;stroke-width:4;stroke-miterlimit:10;}
	.st6{fill:#006E54;}
	.st7{fill:none;stroke:#F7F5DD;stroke-width:4;stroke-miterlimit:10;}
	.st8{fill:none;stroke:#4D4D4D;stroke-width:4;stroke-miterlimit:10;}
	.st9{fill:none;stroke:#006E54;stroke-width:6;stroke-miterlimit:10;}
	.st10{fill:#720027;}
</style>
<g id="Layer_3">
	<path class="st0" d="M476.4,265c1.8,97.5,3.7,195.1,5.6,292.6h57.5c0-100.5,0-200.9,0-301.5C518.4,259.1,497.4,262,476.4,265z"/>
	<path class="st0" d="M508.1,568.2c0,0,134.1-13.8,134.1,67.2H373.1C373.1,635.4,381,568.2,508.1,568.2"/>
	<path class="st0" d="M248.5,265.6c175.5-28.7,351.1-57.5,526.6-86.2c10.2-5.3,22.4-0.3,25.7,9c3.1,8.3-1.4,18.7-10.8,22.6
		c-178.7,27.7-357.2,55.4-535.9,83.1c-11.7,3.5-22.3-2.1-24-8.4C228.2,278.9,235.1,267.6,248.5,265.6z"/>
</g>
<g id="Layer_1_00000093867543169963087830000015656888657892052378_">
	<g>
		<path class="st1" d="M421.9,626.1H162.6c-38.3,0-69.4-31.1-69.4-69.4v-83.3c0-38.3,31.1-69.4,69.4-69.4h259.3
			c38.3,0,69.4,31.1,69.4,69.4v83.3C491.3,595,460.2,626.1,421.9,626.1z"/>
	</g>
	<g>
		<path class="st2" d="M154.5,617.5c-37.2,0-67.5-30.2-67.5-67.5v-83.3c0-37.2,30.2-67.5,67.5-67.5h259.3
			c37.2,0,67.5,30.2,67.5,67.5v83.3c0,37.2-30.2,67.5-67.5,67.5H154.5z"/>
		<path d="M413.7,401.3c36.2,0,65.5,29.4,65.5,65.5v83.3c0,36.2-29.4,65.5-65.5,65.5H154.5c-36.2,0-65.5-29.4-65.5-65.5v-83.3
			c0-36.2,29.4-65.5,65.5-65.5L413.7,401.3 M413.7,397.4H154.5c-38.3,0-69.4,31.1-69.4,69.4v83.3c0,38.3,31.1,69.4,69.4,69.4h259.3
			c38.3,0,69.4-31.1,69.4-69.4v-83.3C483.1,428.5,452,397.4,413.7,397.4L413.7,397.4z"/>
	</g>
	<path class="st3" d="M150,625.6h269.9c0,0-4.3,29-134.9,29S150,625.6,150,625.6z"/>
	<line class="st4" x1="132.4" y1="427" x2="284.1" y2="427"/>
	<line class="st4" x1="299.2" y1="427" x2="389.4" y2="427"/>
	<line class="st4" x1="402.1" y1="427" x2="423.5" y2="427"/>
	<line class="st5" x1="132.4" y1="461" x2="321.3" y2="461"/>
	<line class="st5" x1="334.1" y1="461" x2="368.9" y2="461"/>
	<line class="st5" x1="379.2" y1="461" x2="423.5" y2="461"/>
	<line class="st5" x1="132.4" y1="472.1" x2="222.6" y2="472.1"/>
	<line class="st5" x1="237.1" y1="472.1" x2="347.6" y2="472.1"/>
	<line class="st5" x1="356.2" y1="472.1" x2="401.4" y2="472.1"/>
	<line class="st5" x1="412.9" y1="472.1" x2="442.1" y2="472.1"/>
	<line class="st5" x1="132.4" y1="482.8" x2="292.3" y2="482.8"/>
	<line class="st5" x1="305.1" y1="482.8" x2="442.1" y2="482.8"/>
	<line class="st5" x1="132.4" y1="494.2" x2="284.1" y2="494.2"/>
	<line class="st5" x1="299.2" y1="494.2" x2="321.3" y2="494.2"/>
	<line class="st5" x1="334.1" y1="494.2" x2="369.6" y2="494.2"/>
	<line class="st5" x1="382.6" y1="494.2" x2="437.9" y2="494.2"/>
	<line class="st5" x1="132.4" y1="506.1" x2="208.3" y2="506.1"/>
	<line class="st5" x1="222.6" y1="506.1" x2="277" y2="506.1"/>
	<path class="st6" d="M359.5,586.1H208.7c-10.1,0-18.2-8.2-18.2-18.2v-9.6c0-10.1,8.2-18.2,18.2-18.2h150.8
		c10.1,0,18.2,8.2,18.2,18.2v9.6C377.8,577.9,369.6,586.1,359.5,586.1z"/>
	<line class="st7" x1="209.5" y1="558.1" x2="259.4" y2="558.1"/>
	<line class="st7" x1="266" y1="558.1" x2="312.2" y2="558.1"/>
	<line class="st7" x1="319" y1="558.1" x2="351.2" y2="558.1"/>
	<line class="st7" x1="249.9" y1="568.9" x2="318.3" y2="568.9"/>
	<polyline class="st8" points="150,625.6 284.9,267.4 419.9,625.6 	"/>
</g>
<g id="Layer_2_00000103229016107213722750000013747949415042149037_">
	<g>
		<path class="st1" d="M876.3,541.6H617.1c-38.3,0-69.4-31.1-69.4-69.4V389c0-38.3,31.1-69.4,69.4-69.4h259.3
			c38.3,0,69.4,31.1,69.4,69.4v83.3C945.6,510.6,914.6,541.6,876.3,541.6z"/>
	</g>
	<g>
		<path class="st2" d="M608.9,533.2c-37.2,0-67.5-30.2-67.5-67.5v-83.3c0-37.2,30.2-67.5,67.5-67.5h259.3
			c37.2,0,67.5,30.2,67.5,67.5v83.3c0,37.2-30.2,67.5-67.5,67.5H608.9L608.9,533.2z"/>
		<path d="M868.2,316.9c36.2,0,65.5,29.4,65.5,65.5v83.3c0,36.2-29.4,65.5-65.5,65.5H608.9c-36.2,0-65.5-29.4-65.5-65.5v-83.3
			c0-36.2,29.4-65.5,65.5-65.5H868.2 M868.2,313.1H608.9c-38.3,0-69.4,31.1-69.4,69.4v83.3c0,38.3,31.1,69.4,69.4,69.4h259.3
			c38.3,0,69.4-31.1,69.4-69.4v-83.3C937.6,344.2,906.5,313.1,868.2,313.1L868.2,313.1z"/>
	</g>
	<line class="st9" x1="589.4" y1="340.7" x2="666.9" y2="340.7"/>
	<line class="st9" x1="681.2" y1="340.7" x2="761.5" y2="340.7"/>
	<line class="st9" x1="771.9" y1="340.7" x2="814.7" y2="340.7"/>
	<line class="st5" x1="589.4" y1="367.9" x2="681.2" y2="367.9"/>
	<line class="st5" x1="699.1" y1="367.9" x2="766.7" y2="367.9"/>
	<line class="st5" x1="777.7" y1="367.9" x2="808.9" y2="367.9"/>
	<line class="st5" x1="818.7" y1="367.9" x2="858" y2="367.9"/>
	<line class="st5" x1="589.4" y1="381.5" x2="662.2" y2="381.5"/>
	<line class="st5" x1="673.8" y1="381.5" x2="711.1" y2="381.5"/>
	<line class="st5" x1="718.2" y1="381.5" x2="761.5" y2="381.5"/>
	<line class="st5" x1="766.7" y1="381.5" x2="858" y2="381.5"/>
	<line class="st5" x1="589.4" y1="392.2" x2="619.4" y2="392.2"/>
	<line class="st5" x1="625.8" y1="392.2" x2="758.5" y2="392.2"/>
	<line class="st5" x1="766.7" y1="392.2" x2="825.7" y2="392.2"/>
	<line class="st5" x1="589.4" y1="403.1" x2="737.3" y2="403.1"/>
	<line class="st5" x1="748.5" y1="403.1" x2="865.1" y2="403.1"/>
	<line class="st5" x1="589.4" y1="413.1" x2="639.3" y2="413.1"/>
	<line class="st5" x1="648.8" y1="413.1" x2="758.5" y2="413.1"/>
	<line class="st5" x1="766.7" y1="413.1" x2="796.2" y2="413.1"/>
	<line class="st5" x1="808.9" y1="413.1" x2="848.1" y2="413.1"/>
	<line class="st5" x1="589.4" y1="424.1" x2="656.3" y2="424.1"/>
	<line class="st5" x1="666.9" y1="424.1" x2="738.6" y2="424.1"/>
	<line class="st5" x1="748.5" y1="424.1" x2="800" y2="424.1"/>
	<path class="st10" d="M822.1,501.9H671.3c-10.1,0-18.2-8.2-18.2-18.2v-9.6c0-10.1,8.2-18.2,18.2-18.2h150.8
		c10.1,0,18.2,8.2,18.2,18.2v9.6C840.3,493.8,832.1,501.9,822.1,501.9z"/>
	<line class="st7" x1="673.8" y1="478.9" x2="699.1" y2="478.9"/>
	<line class="st7" x1="711.1" y1="478.9" x2="761.5" y2="478.9"/>
	<line class="st7" x1="777.7" y1="478.9" x2="800" y2="478.9"/>
	<line class="st7" x1="812.3" y1="478.9" x2="828.6" y2="478.9"/>
	<path class="st3" d="M626.6,542.3h263.8c0,0-4.2,28.4-131.8,28.4S626.6,542.3,626.6,542.3z"/>
	<polyline class="st8" points="626.6,542.3 758.5,192.3 890.4,542.3 	"/>
</g>
</svg>
