<?xml version="1.0" encoding="utf-8"?>
<!-- Generator: Adobe Illustrator 26.3.1, SVG Export Plug-In . SVG Version: 6.00 Build 0)  -->
<svg version="1.1" id="Layer_1" xmlns="http://www.w3.org/2000/svg" xmlns:xlink="http://www.w3.org/1999/xlink" x="0px" y="0px"
	 viewBox="0 0 1000 1000" style="enable-background:new 0 0 1000 1000;" xml:space="preserve">
<style type="text/css">
	.st0{fill:#CCCCCC;stroke:#CCCCCC;stroke-width:7;stroke-miterlimit:10;}
	.st1{fill:none;stroke:#CCCCCC;stroke-width:8;stroke-miterlimit:10;}
	.st2{fill:#CCCCCC;stroke:#CCCCCC;stroke-width:5;stroke-miterlimit:10;}
	.st3{fill:#FFFFFF;stroke:#000000;stroke-width:6;stroke-miterlimit:10;}
	.st4{fill:none;stroke:#CCCCCC;stroke-width:7;stroke-miterlimit:10;}
	.st5{fill:#E6E6E6;}
	.st6{fill:#FFFFFF;}
	.st7{fill:#FFFFFF;stroke:#000000;stroke-width:7;stroke-miterlimit:10;}
	.st8{fill:none;stroke:#000000;stroke-width:7;stroke-miterlimit:10;}
	.st9{fill:none;stroke:#000000;stroke-width:15;stroke-miterlimit:10;}
	.st10{fill:none;stroke:#000000;stroke-width:10;stroke-miterlimit:10;}
	.st11{fill:#FF855B;}
	.st12{fill:#FF635B;}
	.st13{fill:#C7385B;}
	.st14{fill:#62245B;}
	.st15{fill:#83005B;}
	.st16{fill:none;stroke:#FF855B;stroke-width:2;stroke-miterlimit:10;}
	.st17{fill:none;stroke:#CCCCCC;stroke-width:3;stroke-miterlimit:10;}
	.st18{fill:#CCCCCC;stroke:#CCCCCC;stroke-width:3;stroke-miterlimit:10;}
	.st19{fill:none;stroke:#000000;stroke-width:9;stroke-miterlimit:10;}
</style>
<path class="st0" d="M591.6,302.3"/>
<path class="st1" d="M656.7,552.8c0,0-34.8,3.7-34.8,44.6s34.8,44.7,34.8,44.7"/>
<path class="st1" d="M624.9,343.5c0,0,147.3-22.9,147.3,147.3c0,0-2.4,111.1-111.1,111.1"/>
<path class="st2" d="M542.5,775.5H341.4c-30.5,0-55.3-24.8-55.3-55.3V527.3c0-30.5,24.8-55.3,55.3-55.3h201.2
	c30.5,0,55.3,24.8,55.3,55.3v192.8C597.8,750.7,573.1,775.5,542.5,775.5z"/>
<path class="st3" d="M534.3,770.2H333.2c-30.5,0-55.3-24.8-55.3-55.3V522.1c0-30.5,24.8-55.3,55.3-55.3h201.2
	c30.5,0,55.3,24.8,55.3,55.3v192.8C589.6,745.4,564.9,770.2,534.3,770.2z"/>
<path class="st0" d="M528.9,412.4"/>
<polygon class="st0" points="287.4,439.9 287.4,338.2 289.1,338.2 496.5,338.2 496.5,439.9 "/>
<path class="st0" d="M496.2,337.6c23.6-27.8,47.1-55.6,70.7-83.4c-68.2,1-136.5,2-204.7,3.1l-75.1,80.4H496.2z"/>
<path class="st0" d="M496.9,440.4c23.9-27.1,48.1-53.8,72.2-80.8c0-34.3,0-68.6,0-102.8l-71.4,81
	C497.6,337.8,493.4,444.3,496.9,440.4z"/>
<path class="st0" d="M374.2,271.3"/>
<line class="st4" x1="341.9" y1="305.7" x2="551" y2="305.7"/>
<path class="st5" d="M713.7,450.9"/>
<path class="st6" d="M495.3,464.5"/>
<path class="st7" d="M577.3,284.6"/>
<path class="st7" d="M514.6,394.6"/>
<polygon class="st7" points="285.1,433.6 285.1,331.8 286.8,331.8 494.2,331.8 494.2,433.6 "/>
<path class="st7" d="M493.9,331.2c23.3-28,46.6-56,70-84c-67.9,1.2-136,2.4-203.9,3.6c-23.9,25.6-47.8,51.1-71.7,76.7
	C356.8,328.7,425.4,329.9,493.9,331.2z"/>
<path class="st7" d="M566.7,353.2c0-34.3,0-68.6,0-102.8l-71.3,80.9C495.4,331.4,542.7,380.2,566.7,353.2z"/>
<path class="st7" d="M359.9,250.8"/>
<line class="st8" x1="327.7" y1="285.2" x2="536.8" y2="285.2"/>
<path class="st9" d="M618.5,343.5c0,0,147.3-22.9,147.3,147.3c0,0-2.4,111.1-111.1,111.1"/>
<path class="st10" d="M653.3,552.8c0,0-34.8,3.7-34.8,44.6s34.8,44.7,34.8,44.7"/>
<path class="st7" d="M566.7,353.2c-22.9,25.8-45.8,51.5-68.6,77.3c-0.8-33-1.5-66.1-2.2-99.1"/>
<g>
	<circle class="st11" cx="433.6" cy="622.8" r="75.6"/>
	<path class="st12" d="M441.9,547.3c5.9,10.7,9.2,23.2,9.2,36.4c0,41.7-33.9,75.6-75.6,75.6c-2.8,0-5.4-0.1-8.2-0.5
		c12.9,23.4,37.7,39.2,66.4,39.2c41.7,0,75.6-33.9,75.6-75.6C509.4,583.6,479.8,551.6,441.9,547.3z"/>
	<path class="st13" d="M452.1,549.1c7.2,11.5,11.2,25,11.2,39.8c0,41.7-33.8,75.6-75.6,75.6c-6.3,0-12.4-0.8-18.3-2.3
		c13.4,21.6,37.1,36.1,64.6,36.1c41.7,0,75.6-33.9,75.6-75.6C509.4,587.2,484.8,557.3,452.1,549.1z"/>
	<path class="st14" d="M470.4,556.2c6.6,11.2,10.4,24.2,10.4,38.2c0,41.7-33.9,75.6-75.6,75.6c-13,0-25.5-3.3-36.2-9.2
		c13,22.6,37.6,37.6,65.4,37.6c41.7,0,75.6-33.9,75.6-75.6C509.7,593.9,493.7,569,470.4,556.2z"/>
	<path class="st15" d="M470.5,556.4c10.4,13,16.6,29.5,16.6,47.4c0,41.7-33.9,75.6-75.6,75.6c-13.4,0-25.9-3.6-36.9-9.5
		c13.8,17.3,35.3,28.5,59,28.5c41.7,0,75.6-33.9,75.6-75.6C509.4,594.1,493.6,569.2,470.5,556.4z"/>
</g>
<circle class="st16" cx="433.6" cy="622.8" r="95.7"/>
<polyline class="st17" points="342.9,496 433.6,525.7 513.6,492.7 "/>
<circle class="st18" cx="342.9" cy="496.1" r="2.6"/>
<circle class="st18" cx="513.8" cy="492.4" r="2.6"/>
<polyline class="st17" points="307.5,709.2 337.2,618.5 304.2,538.6 "/>
<circle class="st18" cx="307.6" cy="709.2" r="2.6"/>
<circle class="st18" cx="303.9" cy="538.3" r="2.6"/>
<polyline class="st17" points="560.1,529.6 530.3,620.3 563.4,700.3 "/>
<circle class="st18" cx="560" cy="529.6" r="2.6"/>
<circle class="st18" cx="563.7" cy="700.5" r="2.6"/>
<polyline class="st17" points="523.7,749.6 433,719.8 353,752.9 "/>
<circle class="st18" cx="523.7" cy="749.5" r="2.6"/>
<circle class="st18" cx="352.8" cy="753.2" r="2.6"/>
<line class="st17" x1="337.2" y1="618.5" x2="350.3" y2="618.5"/>
<line class="st17" x1="352.8" y1="618.5" x2="365.8" y2="618.5"/>
<line class="st17" x1="368.1" y1="618.5" x2="381.2" y2="618.5"/>
<line class="st17" x1="382.8" y1="618.5" x2="396" y2="618.5"/>
<line class="st17" x1="398.4" y1="618.5" x2="411.5" y2="618.5"/>
<line class="st17" x1="415.2" y1="618.5" x2="428.2" y2="618.5"/>
<line class="st17" x1="430.2" y1="618.5" x2="443.2" y2="618.5"/>
<line class="st17" x1="445.7" y1="618.5" x2="458.8" y2="618.5"/>
<line class="st17" x1="462.2" y1="618.5" x2="475.2" y2="618.5"/>
<line class="st17" x1="476.9" y1="618.5" x2="490" y2="618.5"/>
<line class="st17" x1="492.8" y1="618.5" x2="505.8" y2="618.5"/>
<line class="st17" x1="507.3" y1="618.5" x2="520.4" y2="618.5"/>
<line class="st17" x1="522.8" y1="618.5" x2="530.3" y2="618.5"/>
<line class="st17" x1="433.8" y1="527.2" x2="433.8" y2="540.3"/>
<line class="st17" x1="433.8" y1="542.7" x2="433.8" y2="555.8"/>
<line class="st17" x1="433.8" y1="558" x2="433.8" y2="571.2"/>
<line class="st17" x1="433.8" y1="572.8" x2="433.8" y2="585.9"/>
<line class="st17" x1="433.8" y1="588.4" x2="433.8" y2="601.4"/>
<line class="st17" x1="433.8" y1="605.1" x2="433.8" y2="618.3"/>
<line class="st17" x1="433.8" y1="620.1" x2="433.8" y2="633.2"/>
<line class="st17" x1="433.8" y1="635.7" x2="433.8" y2="648.8"/>
<line class="st17" x1="433.8" y1="652.1" x2="433.8" y2="665.2"/>
<line class="st17" x1="433.8" y1="666.9" x2="433.8" y2="679.9"/>
<line class="st17" x1="433.8" y1="682.7" x2="433.8" y2="695.8"/>
<line class="st17" x1="433.8" y1="697.3" x2="433.8" y2="710.3"/>
<line class="st17" x1="433.8" y1="712.8" x2="433.8" y2="720.3"/>
<line class="st19" x1="379.3" y1="489.8" x2="485.1" y2="489.8"/>
</svg>
