<?xml version="1.0" encoding="utf-8"?>
<!-- Generator: Adobe Illustrator 26.3.1, SVG Export Plug-In . SVG Version: 6.00 Build 0)  -->
<svg version="1.1" id="Layer_1" xmlns="http://www.w3.org/2000/svg" xmlns:xlink="http://www.w3.org/1999/xlink" x="0px" y="0px"
	 viewBox="0 0 1000 1000" style="enable-background:new 0 0 1000 1000;" xml:space="preserve">
<style type="text/css">
	.st0{fill:#E6E6E6;stroke:#E6E6E6;stroke-width:13;stroke-miterlimit:10;}
	.st1{fill:#FFFFFF;}
	.st2{fill:none;stroke:#000000;stroke-width:15;stroke-miterlimit:10;}
	.st3{fill:#FFFFFF;stroke:#000000;stroke-width:9;stroke-miterlimit:10;}
	.st4{fill:none;stroke:#000000;stroke-width:16;stroke-miterlimit:10;}
	.st5{fill:#FF855B;}
	.st6{fill:#FF635B;}
	.st7{fill:#C7385B;}
	.st8{fill:#62245B;}
	.st9{fill:#83005B;}
	.st10{fill:none;stroke:#FF855B;stroke-width:2;stroke-miterlimit:10;}
	.st11{fill:none;stroke:#1A1A1A;stroke-width:9;stroke-miterlimit:10;}
	.st12{fill:none;stroke:#CCCCCC;stroke-width:5;stroke-miterlimit:10;}
	.st13{fill:none;stroke:#CCCCCC;stroke-width:7;stroke-miterlimit:10;}
	.st14{stroke:#CCCCCC;stroke-width:5;stroke-miterlimit:10;}
	.st15{stroke:#CCCCCC;stroke-width:2;stroke-miterlimit:10;}
	.st16{fill:none;stroke:#000000;stroke-width:13;stroke-miterlimit:10;}
	.st17{fill:none;stroke:#000000;stroke-width:24;stroke-miterlimit:10;}
	.st18{stroke:#000000;stroke-width:24;stroke-miterlimit:10;}
	.st19{fill:none;stroke:#000000;stroke-width:9;stroke-miterlimit:10;}
	.st20{fill:none;stroke:#000000;stroke-width:20;stroke-miterlimit:10;}
	.st21{fill:none;stroke:#000000;stroke-width:12;stroke-miterlimit:10;}
</style>
<path class="st0" d="M443.1,577.4c0,0-189.5,192.3-203.6,206.4c-14,14,7,32.5,21.1,18.2C275,787.8,465,597.7,465,597.7
	C457.2,591.5,449.9,584.7,443.1,577.4z"/>
<path class="st1" d="M787.2,575.3c-26.9-14.5-47.2-15-60.8-12.8c-37.7,6-44,36.6-90.8,49.3c-8.8,2.4-26.1,3.6-60.5,5.2
	c-37.4,1.6-56,2.4-65.6,0.4c-39.5-8.4-51.1-37.7-77.1-55.3c-27.1-18.3-76-27.9-171.9,13.3c0-106.4,0-212.7,0-319.1
	c147.2,36.7,197.9,24,216,4c3.2-3.5,11.4-14,26.5-23.3c28.2-17.5,58-17.1,73.1-16.7c14.7,0.4,38.6,3.1,64.5,15.2
	c31.6,14.8,34.3,29,55.6,37.2c17.9,6.9,46.1,8.7,91.1-16.3C787.2,362.6,787.2,468.9,787.2,575.3z"/>
<line class="st2" x1="661.4" y1="605.5" x2="491.1" y2="605.5"/>
<path class="st3" d="M667.9,248.3h109.7c22.5,0,40.7,18.2,40.7,40.7v255.3c0,22.5-18.2,40.7-40.7,40.7h-73.3"/>
<line class="st4" x1="480" y1="236.5" x2="646.8" y2="236.5"/>
<path class="st3" d="M446,585.1H259c-22.5,0-40.7-18.2-40.7-40.7V289c0-22.5,18.2-40.7,40.7-40.7h216.8"/>
<path class="st0" d="M718,278.2c38.6,37,62.7,89,62.7,146.8c0,112.2-91,203.2-203.2,203.2c-48.3,0-92.7-16.9-127.7-45.1
	c36.5,34.9,86,56.4,140.5,56.4c112.2,0,203.2-91,203.2-203.2C793.5,372.4,764.1,315.5,718,278.2z"/>
<g>
	<circle class="st5" cx="375.7" cy="380.2" r="74.3"/>
	<path class="st6" d="M383.8,306.1c5.8,10.6,9.1,22.8,9.1,35.8c0,41-33.4,74.3-74.3,74.3c-2.7,0-5.4-0.2-8.1-0.4
		c12.6,22.9,37,38.5,65.2,38.5c41,0,74.3-33.4,74.3-74.3C450,341.6,421,310.2,383.8,306.1z"/>
	<path class="st7" d="M393.7,307.9c7,11.4,11,24.7,11,39.2c0,41-33.1,74.3-74.3,74.3c-6.2,0-12.2-0.9-18-2.3
		c13.1,21.1,36.4,35.4,63.4,35.4c41,0,74.3-33.4,74.3-74.3C450,345.2,426,316,393.7,307.9z"/>
	<path class="st8" d="M411.7,314.8c6.4,11,10.2,23.8,10.2,37.4c0,41-33.4,74.3-74.3,74.3c-12.8,0-25.1-3.3-35.6-9.1
		c12.8,22.2,36.9,36.9,64.1,36.9c41,0,74.3-33.4,74.3-74.3C450.4,351.8,434.7,327.4,411.7,314.8z"/>
	<path class="st9" d="M412,314.9c10.2,12.8,16.4,29,16.4,46.6c0,41-33.4,74.3-74.3,74.3c-13.1,0-25.5-3.5-36.3-9.3
		c13.6,17,34.5,28,58,28c41,0,74.3-33.4,74.3-74.3C450,352,434.5,327.6,412,314.9z"/>
</g>
<circle class="st10" cx="375.7" cy="380.2" r="94"/>
<line class="st11" x1="315.2" y1="505.3" x2="381.2" y2="505.3"/>
<line class="st12" x1="357.9" y1="521.4" x2="386.9" y2="521.4"/>
<line class="st12" x1="370.2" y1="535.6" x2="393.9" y2="535.6"/>
<line class="st13" x1="569.9" y1="316.4" x2="639.6" y2="316.4"/>
<line class="st13" x1="650.4" y1="316.4" x2="688" y2="316.4"/>
<polyline class="st14" points="796.7,323.9 798.8,323.9 805.1,323.9 "/>
<path class="st15" d="M761.3,311.5"/>
<line class="st13" x1="569.9" y1="330.4" x2="650.4" y2="330.4"/>
<line class="st13" x1="663.1" y1="330.4" x2="710.7" y2="330.4"/>
<line class="st13" x1="716.4" y1="330.4" x2="727.4" y2="330.4"/>
<line class="st12" x1="751.6" y1="336.2" x2="784.6" y2="336.2"/>
<line class="st13" x1="569.9" y1="345.4" x2="679.3" y2="345.4"/>
<line class="st13" x1="690.7" y1="345.4" x2="754.2" y2="345.4"/>
<line class="st12" x1="760.3" y1="353.7" x2="809.7" y2="353.7"/>
<line class="st12" x1="233.7" y1="548.5" x2="403.6" y2="548.5"/>
<line class="st13" x1="427.1" y1="560.9" x2="489.1" y2="560.9"/>
<line class="st13" x1="699.4" y1="316.4" x2="733.3" y2="316.4"/>
<polyline class="st14" points="749.7,323.9 768.1,323.9 786.5,323.9 "/>
<line class="st13" x1="441.6" y1="573.3" x2="497.8" y2="573.3"/>
<line class="st13" x1="464.2" y1="588.7" x2="494" y2="588.7"/>
<g>
	<ellipse class="st5" cx="310.5" cy="450" rx="15.1" ry="15.1"/>
	<path class="st6" d="M312.1,434.8c1.3,2,1.9,4.5,1.9,7.3c0,8.3-6.8,15.1-15.1,15.1c-0.6,0-1,0-1.6,0c2.5,4.8,7.7,7.8,13.2,7.8
		c8.3,0,15.1-6.8,15.1-15.1C325.6,442.1,319.6,435.6,312.1,434.8z"/>
	<path class="st7" d="M314.2,435.2c1.5,2.3,2.3,4.9,2.3,7.8c0,8.3-6.8,15.1-15.1,15.1c-1.3,0-2.5-0.2-3.8-0.4
		c2.7,4.4,7.4,7.3,12.8,7.3c8.3,0,15.1-6.8,15.1-15.1C325.6,442.7,320.6,436.9,314.2,435.2z"/>
	<path class="st8" d="M317.7,436.5c1.3,2.3,2,4.8,2,7.7c0,8.3-6.8,15.1-15.1,15.1c-2.7,0-5.2-0.6-7.3-1.9c2.7,4.5,7.4,7.4,13.1,7.4
		c8.3,0,15.1-6.8,15.1-15.1C325.8,444.2,322.5,439.2,317.7,436.5z"/>
</g>
<g>
	<path class="st5" d="M446.8,267.9c-0.5,0.5-1.3,1.1-2.2,1.9c-2.3,1.9-4,3.2-4.2,3.4c-17,13.5-34.2,38.4-34.2,38.4
		c-4,5.8-9.8,14.2-15.4,26.1c-3,6.3-5.1,11.9-6.5,15.7c-3.8,9.9-6,17.9-7,21.1c-2.1,7.5-4.1,14.6-5.3,23.9
		c-0.9,6.1-0.6,7.9-0.9,16.1c-0.2,4.5-0.2,6.4-0.4,10.1c-0.4,9.6-0.2,21.1,0,25.4c0.4,7.1,2.3,20.2,12.1,38.5
		c4.7,2.3,11,5.2,18.9,7.6c0,0,16.4,5,33.9,5c33.6,0,116.5-37.7,116.6-116.6C552.4,326,507.1,274.9,446.8,267.9z"/>
	<path class="st6" d="M448.4,268.1c5.6,9.3,16.3,29.9,14.3,56.2c-2.2,28.7-18.2,47.6-31.9,63.8c-20,23.7-42.9,37.7-60.5,46
		c-0.2,4.8-0.1,10.1,0.5,15.7c1.9,16.4,7.3,29.5,12.1,38.5c3.5,1.7,8.5,3.9,14.7,6c0,0,18.6,6.3,38.1,6.3
		c64.3,0,116.6-52.3,116.6-116.6C552.3,323.9,506.8,274.6,448.4,268.1z"/>
	<path class="st7" d="M464,271c3.8,6.1,7,12.5,9.6,19.3c2.3,6.3,8.6,22.9,7.7,42.1c-1.2,23.1-12.4,39.4-19,49.2
		c-28.4,41.5-75.5,55.8-91.9,59.9c0,1.2,0.1,2.3,0.2,3.7c0.1,1.4,0.2,3,0.5,4.7c0,0,0.3,2.1,0.8,4.5c0.9,4.5,5.1,17.3,11.3,34.1
		c4.9,2.5,11.7,5.5,19.9,7.9c0,0,16,4.7,32.8,4.7c64.3,0,116.6-52.3,116.6-116.6C552.3,329.4,514.6,283.7,464,271z"/>
	<path class="st8" d="M492.2,281.7c10.1,17.2,15.9,37.4,15.9,58.8c0,42.3-59.5,125.1-116.6,116.6c-8.7-1.3-15.7-4.5-20.7-7.3
		c0.1,2.1,0.3,4.9,0.9,8.2c0.2,1.4,0.9,4.9,2.4,9.8c2.7,8.5,6.5,16.4,8.7,20.6c3.4,1.5,8.1,3.5,14.1,5.5c0,0,19.6,6.7,39.2,6.7
		c64.3,0,116.6-52.3,116.6-116.6C552.9,339.8,528.3,301.5,492.2,281.7z"/>
	<path class="st9" d="M492.6,282c7.4,10.3,24.2,36.3,25.7,73.1c0.5,12.5,1.7,43.4-18.5,71.9c-32.2,45.4-90.7,45-98.1,44.7
		c-11.4-0.2-20.8-2.2-27.3-3.9c0.3,1.2,0.8,3.1,1.6,5.2c1,2.8,1.8,4.5,3.4,8.2c0.7,1.6,1.8,4.2,3.1,7.2c3.8,1.7,8,3.5,12.5,5.2
		c5.6,2,10.9,3.4,15.7,4.6c0,0,12.5,2.7,25.1,2.7c64.3,0,116.6-52.3,116.6-116.6C552.3,340.2,528,301.9,492.6,282z"/>
</g>
<line class="st16" x1="416.7" y1="548.5" x2="491.5" y2="548.5"/>
<path class="st10" d="M462.3,256.2c66,11.7,116.1,69.3,116.1,138.6c0,77.8-63,140.7-140.7,140.7c-11.7,0-23.2-1.4-34.1-4.2"/>
<circle class="st17" cx="570.6" cy="423.5" r="203.2"/>
<path class="st18" d="M424.9,575.3c0,0-189.5,192.3-203.6,206.4c-14,14.1,7,32.5,21.1,18.2c14.2-14.3,204.3-204.3,204.3-204.3
	C438.9,589.4,431.6,582.6,424.9,575.3z"/>
<line class="st19" x1="233.7" y1="505.3" x2="295.3" y2="505.3"/>
<line class="st16" x1="497.3" y1="548.5" x2="580.3" y2="548.5"/>
<line class="st12" x1="236.1" y1="521.4" x2="301.4" y2="521.4"/>
<line class="st12" x1="312.3" y1="521.4" x2="344.5" y2="521.4"/>
<line class="st12" x1="236.1" y1="535.6" x2="353.9" y2="535.6"/>
<line class="st13" x1="507.2" y1="562" x2="613.1" y2="562"/>
<line class="st13" x1="510.7" y1="573.3" x2="618.3" y2="573.3"/>
<line class="st13" x1="505.2" y1="588.7" x2="564.5" y2="588.7"/>
<line class="st20" x1="552.9" y1="286.7" x2="671.5" y2="286.2"/>
<line class="st21" x1="727.4" y1="297.9" x2="771.8" y2="297.9"/>
<line class="st20" x1="683.6" y1="286.7" x2="719.4" y2="286.7"/>
</svg>
