<?xml version="1.0" encoding="utf-8"?>
<!-- Generator: Adobe Illustrator 26.3.1, SVG Export Plug-In . SVG Version: 6.00 Build 0)  -->
<svg version="1.1" id="Layer_1" xmlns="http://www.w3.org/2000/svg" xmlns:xlink="http://www.w3.org/1999/xlink" x="0px" y="0px"
	 viewBox="0 0 1000 1000" style="enable-background:new 0 0 1000 1000;" xml:space="preserve">
<style type="text/css">
	.st0{fill:#CCCCCC;}
	.st1{fill:#FFFFFF;stroke:#000000;stroke-width:3;stroke-miterlimit:10;}
	.st2{fill:#FF855B;}
	.st3{fill:#FF635B;}
	.st4{fill:#C7385B;}
	.st5{fill:#62245B;}
	.st6{fill:#83005B;}
	.st7{fill:none;stroke:#FF855B;stroke-width:2;stroke-miterlimit:10;}
	.st8{font-family:'MontserratAlternates-Black';}
	.st9{font-size:63.5569px;}
	.st10{fill:none;stroke:#CCCCCC;stroke-width:5;stroke-miterlimit:10;}
	.st11{fill:none;stroke:#000000;stroke-width:3;stroke-miterlimit:10;}
	.st12{fill:none;stroke:#000000;stroke-width:4;stroke-miterlimit:10;}
	.st13{fill:none;stroke:#CCCCCC;stroke-width:2;stroke-miterlimit:10;}
	.st14{fill:none;stroke:#CCCCCC;stroke-width:3;stroke-miterlimit:10;}
	.st15{fill:none;stroke:#000000;stroke-width:5;stroke-miterlimit:10;}
</style>
<path class="st0" d="M842,740.3H211c-42.9,0-77.6-34.7-77.6-77.6V378.3c0-42.9,34.7-77.6,77.6-77.6h631c42.9,0,77.6,34.7,77.6,77.6
	v284.3C919.6,705.6,884.8,740.3,842,740.3z"/>
<path class="st1" d="M822.6,725.6h-631c-42.9,0-77.6-34.7-77.6-77.6V363.6c0-42.9,34.7-77.6,77.6-77.6h631
	c42.9,0,77.6,34.7,77.6,77.6v284.3C900.4,690.9,865.5,725.6,822.6,725.6z"/>
<g>
	<circle class="st2" cx="340.6" cy="505.8" r="91.3"/>
	<path class="st3" d="M350.5,414.7c7.2,13,11.2,28,11.2,44c0,50.3-40.9,91.3-91.3,91.3c-3.3,0-6.6-0.3-9.9-0.5
		c15.5,28.3,45.5,47.3,80.1,47.3c50.3,0,91.3-40.9,91.3-91.3C431.9,458.5,396.3,419.8,350.5,414.7z"/>
	<path class="st4" d="M362.7,417.1c8.6,13.9,13.4,30.2,13.4,48.1c0,50.3-40.7,91.3-91.3,91.3c-7.7,0-15-1-22.1-2.7
		c16,25.9,44.7,43.5,77.8,43.5c50.3,0,91.3-40.9,91.3-91.3C431.9,462.8,402.4,427,362.7,417.1z"/>
	<path class="st5" d="M384.8,425.4c7.9,13.4,12.5,29.2,12.5,46c0,50.3-40.9,91.3-91.3,91.3c-15.8,0-30.7-4-43.8-11.2
		c15.8,27.2,45.2,45.2,78.8,45.2c50.3,0,91.3-40.9,91.3-91.3C432.4,471,413,440.9,384.8,425.4z"/>
	<path class="st6" d="M385.1,425.7c12.5,15.8,20.1,35.6,20.1,57.2c0,50.3-40.9,91.3-91.3,91.3c-16,0-31.3-4.3-44.5-11.5
		c16.8,20.8,42.5,34.3,71.1,34.3c50.3,0,91.3-40.9,91.3-91.3C431.9,471.3,412.8,441.2,385.1,425.7z"/>
</g>
<circle class="st7" cx="340.6" cy="505.8" r="115.4"/>
<g>
	
		<ellipse transform="matrix(0.9951 -9.853767e-02 9.853767e-02 0.9951 -57.0141 28.5533)" class="st2" cx="260.6" cy="591.5" rx="18.5" ry="18.5"/>
	<path class="st3" d="M262.5,572.9c1.6,2.6,2.3,5.6,2.3,8.9c0,10.2-8.3,18.5-18.5,18.5c-0.8,0-1.3,0-2.1,0c3,5.9,9.4,9.6,16.3,9.6
		c10.2,0,18.5-8.3,18.5-18.5C279.1,581.9,271.7,573.9,262.5,572.9z"/>
	<path class="st4" d="M265.1,573.4c1.8,2.7,2.7,6.1,2.7,9.6c0,10.2-8.3,18.5-18.5,18.5c-1.6,0-3-0.3-4.6-0.5
		c3.3,5.3,9.1,8.9,15.8,8.9c10.2,0,18.5-8.3,18.5-18.5C279.1,582.5,272.9,575.5,265.1,573.4z"/>
	<path class="st5" d="M269.4,575c1.6,2.7,2.6,5.9,2.6,9.4c0,10.2-8.3,18.5-18.5,18.5c-3.3,0-6.4-0.8-8.9-2.3c3.3,5.6,9.1,9.1,16,9.1
		c10.2,0,18.5-8.3,18.5-18.5C279.3,584.4,275.3,578.2,269.4,575z"/>
</g>
<text transform="matrix(1 0 0 1 481.4178 525.2747)" class="st2 st8 st9">WE</text>
<text transform="matrix(1 0 0 1 604.972 525.2747)" class="st3 st8 st9">BL</text>
<text transform="matrix(1 0 0 1 694.9681 525.2747)" class="st4 st8 st9">I</text>
<text transform="matrix(1 0 0 1 728.5267 525.2747)" class="st5 st8 st9">S</text>
<text transform="matrix(1 0 0 1 771.2357 525.2747)" class="st6 st8 st9">H</text>
<path class="st10" d="M225.1,373.6c0-35.2,230.8-35.2,230.8,0"/>
<path class="st11" d="M225.1,370.8c0-35.2,230.8-35.2,230.8,0"/>
<line class="st12" x1="225.1" y1="310.6" x2="291.9" y2="310.6"/>
<line class="st12" x1="301.7" y1="310.6" x2="347.3" y2="310.6"/>
<line class="st12" x1="357.1" y1="310.6" x2="380.3" y2="310.6"/>
<line class="st13" x1="225.1" y1="322.8" x2="244.8" y2="322.8"/>
<line class="st13" x1="250.9" y1="322.8" x2="289.7" y2="322.8"/>
<line class="st13" x1="294" y1="322.8" x2="331.8" y2="322.8"/>
<line class="st13" x1="340.6" y1="322.8" x2="359.7" y2="322.8"/>
<line class="st13" x1="225.1" y1="328.7" x2="262.3" y2="328.7"/>
<line class="st13" x1="267.5" y1="328.7" x2="311.1" y2="328.7"/>
<line class="st13" x1="315.9" y1="328.7" x2="348.5" y2="328.7"/>
<line class="st13" x1="354.4" y1="328.7" x2="384" y2="328.7"/>
<line class="st13" x1="226.3" y1="334.4" x2="260.6" y2="334.4"/>
<path class="st14" d="M484.7,541.6c0,9.2,69.2,9.2,69.2,0"/>
<path class="st11" d="M484.7,542.4c0,9.2,69.2,9.2,69.2,0"/>
<line class="st11" x1="482.4" y1="564.9" x2="515.7" y2="564.9"/>
<line class="st11" x1="528.8" y1="564.9" x2="600.8" y2="564.9"/>
<line class="st13" x1="482.4" y1="575" x2="519.2" y2="575"/>
<line class="st13" x1="526.5" y1="575" x2="574.4" y2="575"/>
<line class="st13" x1="581.6" y1="575" x2="625.8" y2="575"/>
<line class="st13" x1="484.7" y1="584" x2="543.9" y2="584"/>
<line class="st13" x1="550.4" y1="584" x2="616.2" y2="584"/>
<line class="st13" x1="484.7" y1="591.8" x2="538" y2="591.8"/>
<path class="st1" d="M829.5,479.8c17.6,0,17.6,46.5,0,46.5"/>
<line class="st11" x1="773.3" y1="420.6" x2="825.5" y2="420.6"/>
<line class="st11" x1="838.5" y1="420.6" x2="871" y2="420.6"/>
<line class="st11" x1="718.6" y1="420.6" x2="752.9" y2="420.6"/>
<line class="st13" x1="718.6" y1="435.4" x2="755.6" y2="435.4"/>
<line class="st13" x1="764.8" y1="435.4" x2="825.5" y2="435.4"/>
<line class="st13" x1="831.7" y1="435.4" x2="857.7" y2="435.4"/>
<line class="st13" x1="864.5" y1="435.4" x2="884.8" y2="435.4"/>
<line class="st13" x1="718.6" y1="441.6" x2="781.4" y2="441.6"/>
<line class="st13" x1="788.2" y1="441.6" x2="842.7" y2="441.6"/>
<line class="st13" x1="847.7" y1="441.6" x2="882" y2="441.6"/>
<line class="st13" x1="718.6" y1="447.9" x2="755.6" y2="447.9"/>
<line class="st13" x1="764.8" y1="447.9" x2="816.8" y2="447.9"/>
<path class="st11" d="M831.7,479.8c17.6,0,17.6,46.5,0,46.5"/>
<path class="st10" d="M481.7,396.7c0-26.2,360-26.2,360,0"/>
<path class="st11" d="M481.7,393.3c0-26.2,360-26.2,360,0"/>
<line class="st13" x1="217" y1="660.5" x2="324.4" y2="660.5"/>
<line class="st13" x1="346.2" y1="660.5" x2="466.8" y2="660.5"/>
<line class="st13" x1="477.6" y1="660.5" x2="526.5" y2="660.5"/>
<line class="st13" x1="217" y1="675.6" x2="301.7" y2="675.6"/>
<line class="st13" x1="319.2" y1="675.6" x2="390.6" y2="675.6"/>
<line class="st13" x1="406.5" y1="675.6" x2="569.9" y2="675.6"/>
<line class="st13" x1="217" y1="686.8" x2="279.1" y2="686.8"/>
<line class="st13" x1="286.8" y1="686.8" x2="330.8" y2="686.8"/>
<line class="st13" x1="340.6" y1="686.8" x2="417.6" y2="686.8"/>
<line class="st13" x1="431.9" y1="686.8" x2="504.9" y2="686.8"/>
<line class="st13" x1="515.7" y1="686.8" x2="600.8" y2="686.8"/>
<line class="st13" x1="217" y1="696.5" x2="262.8" y2="696.5"/>
<line class="st13" x1="269.4" y1="696.5" x2="382.7" y2="696.5"/>
<line class="st15" x1="500.9" y1="310.6" x2="625.8" y2="310.6"/>
<line class="st15" x1="646.3" y1="310.6" x2="799.4" y2="310.6"/>
<line class="st13" x1="502.1" y1="328.7" x2="564.8" y2="328.7"/>
<line class="st13" x1="574.4" y1="328.7" x2="679.2" y2="328.7"/>
<line class="st13" x1="692.8" y1="328.7" x2="795.2" y2="328.7"/>
<line class="st13" x1="500.9" y1="340.1" x2="583.3" y2="340.1"/>
<line class="st13" x1="591.9" y1="340.1" x2="669.1" y2="340.1"/>
<line class="st13" x1="679.2" y1="340.1" x2="777.4" y2="340.1"/>
<line class="st13" x1="788.2" y1="340.1" x2="804.5" y2="340.1"/>
<line class="st13" x1="500.9" y1="352.1" x2="682.4" y2="352.1"/>
<line class="st13" x1="689.1" y1="352.1" x2="735.8" y2="352.1"/>
</svg>
