<?xml version="1.0" encoding="utf-8"?>
<!-- Generator: Adobe Illustrator 26.3.1, SVG Export Plug-In . SVG Version: 6.00 Build 0)  -->
<svg version="1.1" id="Layer_1" xmlns="http://www.w3.org/2000/svg" xmlns:xlink="http://www.w3.org/1999/xlink" x="0px" y="0px"
	 viewBox="0 0 1000 1000" style="enable-background:new 0 0 1000 1000;" xml:space="preserve">
<style type="text/css">
	.st0{fill:#B3B3B3;stroke:#B3B3B3;stroke-width:9;stroke-miterlimit:10;}
	.st1{fill:#FFFFFF;stroke:#000000;stroke-width:9;stroke-miterlimit:10;}
	.st2{fill:none;stroke:#000000;stroke-width:6;stroke-miterlimit:10;}
	.st3{fill:none;stroke:#999999;stroke-width:4;stroke-miterlimit:10;}
	.st4{fill:none;stroke:#000000;stroke-width:9;stroke-miterlimit:10;}
	.st5{fill:none;stroke:#000000;stroke-width:11;stroke-miterlimit:10;}
</style>
<g id="Layer_1_00000023997356568282792680000011371539085206383295_">
	<path class="st0" d="M760.5,701.8H432.3c-27.8,0-50.3-22.5-50.3-50.3v-90.2c0-27.8,22.5-50.3,50.3-50.3h328.1
		c27.8,0,50.3,22.5,50.3,50.3v90.2C810.8,679.2,788.2,701.8,760.5,701.8z"/>
	<path class="st1" d="M740.4,687.6H412.3c-27.8,0-50.3-22.5-50.3-50.3v-90.2c0-27.8,22.5-50.3,50.3-50.3h328.1
		c27.8,0,50.3,22.5,50.3,50.3v90.2C790.7,665.1,768.2,687.6,740.4,687.6z"/>
	<line class="st2" x1="389" y1="519.1" x2="478.7" y2="519.1"/>
	<line class="st2" x1="487.5" y1="519.1" x2="565" y2="519.1"/>
	<line class="st2" x1="576.4" y1="519.1" x2="598.8" y2="519.1"/>
	<line class="st3" x1="389" y1="533.9" x2="461.4" y2="533.9"/>
	<line class="st3" x1="468.1" y1="533.9" x2="511.6" y2="533.9"/>
	<line class="st3" x1="517.4" y1="533.9" x2="564" y2="533.9"/>
	<line class="st3" x1="568.8" y1="533.9" x2="621.5" y2="533.9"/>
	<line class="st3" x1="389" y1="541.1" x2="551" y2="541.1"/>
	<line class="st3" x1="556.1" y1="541.1" x2="587.6" y2="541.1"/>
	<line class="st3" x1="389" y1="547" x2="458.4" y2="547"/>
	<line class="st3" x1="465.1" y1="547" x2="532.2" y2="547"/>
	<line class="st2" x1="388.7" y1="563" x2="443.1" y2="563"/>
	<line class="st2" x1="450.5" y1="563" x2="507.6" y2="563"/>
	<line class="st2" x1="514.2" y1="563" x2="568.8" y2="563"/>
	<line class="st3" x1="390.3" y1="574.3" x2="463.4" y2="574.3"/>
	<line class="st3" x1="468.1" y1="574.3" x2="510.1" y2="574.3"/>
	<line class="st3" x1="514.2" y1="574.3" x2="568.8" y2="574.3"/>
	<line class="st3" x1="574.4" y1="574.3" x2="616.6" y2="574.3"/>
	<line class="st3" x1="390.3" y1="580.2" x2="453.5" y2="580.2"/>
	<line class="st3" x1="458.4" y1="581.4" x2="534" y2="581.4"/>
	<line class="st3" x1="538.8" y1="581.4" x2="587.6" y2="581.4"/>
	<line class="st2" x1="390.3" y1="598.1" x2="463.4" y2="598.1"/>
	<line class="st2" x1="470" y1="598.1" x2="519.9" y2="598.1"/>
	<line class="st2" x1="526.2" y1="598.1" x2="595.1" y2="598.1"/>
	<line class="st3" x1="390.3" y1="606.3" x2="425.2" y2="606.3"/>
	<line class="st3" x1="430.4" y1="606.3" x2="478.7" y2="606.3"/>
	<line class="st3" x1="484" y1="606.3" x2="527.4" y2="606.3"/>
	<line class="st3" x1="533.9" y1="606.5" x2="623" y2="606.5"/>
	<line class="st3" x1="390.3" y1="613.7" x2="425.2" y2="613.7"/>
	<line class="st3" x1="430.4" y1="613.7" x2="461.4" y2="613.7"/>
	<line class="st3" x1="466.3" y1="613.7" x2="530.6" y2="613.7"/>
	<line class="st3" x1="535.3" y1="613.7" x2="616.6" y2="613.7"/>
	<line class="st3" x1="390.3" y1="619.9" x2="433.8" y2="619.9"/>
	<line class="st3" x1="437.3" y1="619.9" x2="510.1" y2="619.9"/>
	<line class="st3" x1="516.1" y1="619.9" x2="605.9" y2="619.9"/>
	<line class="st3" x1="390.3" y1="624.9" x2="440.6" y2="624.9"/>
	<line class="st3" x1="445.9" y1="624.9" x2="470" y2="624.9"/>
	<line class="st2" x1="389" y1="643.2" x2="463.4" y2="643.2"/>
	<line class="st2" x1="470" y1="643.2" x2="578.5" y2="643.2"/>
	<line class="st3" x1="390.3" y1="651.9" x2="465.1" y2="651.9"/>
	<line class="st3" x1="470" y1="651.9" x2="519.9" y2="651.9"/>
	<line class="st3" x1="526.2" y1="651.9" x2="568.8" y2="651.9"/>
	<line class="st3" x1="576.4" y1="651.9" x2="616.6" y2="651.9"/>
	<line class="st3" x1="390.3" y1="657.3" x2="475.3" y2="657.3"/>
	<line class="st3" x1="479.1" y1="657.3" x2="532.2" y2="657.3"/>
	<line class="st3" x1="538.8" y1="657.3" x2="610.1" y2="657.3"/>
	<line class="st3" x1="390.3" y1="662.3" x2="470" y2="662.3"/>
	<line class="st3" x1="473.7" y1="662.3" x2="519.9" y2="662.3"/>
	<line class="st3" x1="524.2" y1="662.3" x2="589.1" y2="662.3"/>
</g>
<g id="Layer_2_00000011723249141603476500000003450590932897227669_">
	<path class="st0" d="M549.3,406.6H221.2c-27.8,0-50.3-22.5-50.3-50.3v-90.2c0-27.8,22.5-50.3,50.3-50.3h328.1
		c27.8,0,50.3,22.5,50.3,50.3v90.1C599.6,384.1,577.1,406.6,549.3,406.6z"/>
	<path class="st1" d="M535.9,386.5H207.7c-27.8,0-50.3-22.5-50.3-50.3V246c0-27.8,22.5-50.3,50.3-50.3h328.1
		c27.8,0,50.3,22.5,50.3,50.3v90.2C586.1,363.9,563.6,386.5,535.9,386.5z"/>
	<line class="st4" x1="194.6" y1="219.9" x2="279" y2="219.9"/>
	<line class="st4" x1="293.9" y1="219.9" x2="347.9" y2="273.8"/>
	<line class="st4" x1="330.1" y1="219.9" x2="425.2" y2="219.9"/>
	<line class="st3" x1="194.6" y1="243.5" x2="258.1" y2="243.5"/>
	<line class="st3" x1="276.5" y1="243.5" x2="377.7" y2="243.5"/>
	<line class="st3" x1="389" y1="241" x2="439.8" y2="253.7"/>
	<line class="st3" x1="194.6" y1="253.7" x2="289.6" y2="253.7"/>
	<line class="st3" x1="377.7" y1="256" x2="450.5" y2="256"/>
	<line class="st3" x1="194.6" y1="267.8" x2="200.6" y2="273.8"/>
	<line class="st4" x1="194.6" y1="297" x2="287" y2="297"/>
	<line class="st4" x1="293.9" y1="297" x2="397.9" y2="297"/>
	<line class="st4" x1="409.7" y1="297" x2="494.9" y2="263.4"/>
	<line class="st3" x1="194.6" y1="310.7" x2="269.3" y2="310.7"/>
	<line class="st3" x1="279.4" y1="310.9" x2="316.3" y2="314.4"/>
	<line class="st3" x1="327.1" y1="310.9" x2="371.8" y2="310.9"/>
	<line class="st3" x1="382" y1="312.7" x2="421.9" y2="312.7"/>
	<line class="st3" x1="429.3" y1="301.9" x2="511.6" y2="301.9"/>
	<line class="st3" x1="197.6" y1="323.1" x2="247.7" y2="373.3"/>
	<line class="st3" x1="222.7" y1="323.1" x2="266.5" y2="367"/>
	<line class="st3" x1="247.7" y1="323.1" x2="353.1" y2="323.1"/>
	<line class="st3" x1="362" y1="325.7" x2="385" y2="348.7"/>
	<line class="st3" x1="310.1" y1="362.6" x2="402" y2="362.6"/>
	<line class="st3" x1="414.1" y1="337.2" x2="501.2" y2="337.2"/>
	<path class="st5" d="M617.3,284.4c0,0,73.9,0.3,73.9,144"/>
	<path class="st5" d="M665,421.5c0,0,6.4,25,25,25c18.6,0,23.4-23.4,23.4-23.4"/>
</g>
</svg>
