<?xml version="1.0" encoding="utf-8"?>
<!-- Generator: Adobe Illustrator 26.3.1, SVG Export Plug-In . SVG Version: 6.00 Build 0)  -->
<svg version="1.1" id="Layer_1" xmlns="http://www.w3.org/2000/svg" xmlns:xlink="http://www.w3.org/1999/xlink" x="0px" y="0px"
	 viewBox="0 0 1000 1000" style="enable-background:new 0 0 1000 1000;" xml:space="preserve">
<style type="text/css">
	.st0{fill:#B3B3B3;}
	.st1{fill:#FFFFFF;}
	.st2{fill:none;stroke:#000000;stroke-width:3;stroke-miterlimit:10;}
	.st3{fill:none;stroke:#000000;stroke-width:5;stroke-miterlimit:10;}
	.st4{fill:none;stroke:#999999;stroke-width:5;stroke-miterlimit:10;}
	.st5{fill:none;stroke:#999999;stroke-width:2;stroke-miterlimit:10;}
	.st6{fill:none;stroke:#000000;stroke-width:6;stroke-miterlimit:10;}
	.st7{fill:none;stroke:#808080;stroke-width:3;stroke-miterlimit:10;}
	.st8{fill:#FFFFFF;stroke:#000000;stroke-width:8;stroke-miterlimit:10;}
	.st9{fill:none;stroke:#CCCCCC;stroke-width:3;stroke-miterlimit:10;}
	.st10{fill:#FFFFFF;stroke:#000000;stroke-width:4;stroke-miterlimit:10;}
	.st11{fill:none;stroke:#999999;stroke-width:3;stroke-miterlimit:10;}
	.st12{fill:none;stroke:#000000;stroke-width:9;stroke-miterlimit:10;}
</style>
<g id="Layer_1_00000128471383344970629510000006755238687073651863_">
	<g>
		<path class="st0" d="M786.2,476.8H425.5c-18,0-32.5-14.5-32.5-32.5v-136c0-18,14.5-32.5,32.5-32.5h360.7c18,0,32.5,14.5,32.5,32.5
			v136C818.7,462.3,804.1,476.8,786.2,476.8z"/>
	</g>
	<g>
		<path class="st1" d="M410.6,455.1c-16.8,0-30.4-13.6-30.4-30.4v-136c0-16.8,13.6-30.4,30.4-30.4h360.7c16.8,0,30.4,13.6,30.4,30.4
			v136c0,16.8-13.6,30.4-30.4,30.4H410.6z"/>
		<path d="M771.3,260.5c15.6,0,28.3,12.7,28.3,28.3v136c0,15.6-12.7,28.3-28.3,28.3H410.6c-15.6,0-28.3-12.7-28.3-28.3V288.7
			c0-15.6,12.7-28.3,28.3-28.3L771.3,260.5 M771.3,256.3H410.6c-18,0-32.5,14.5-32.5,32.5v136c0,18,14.5,32.5,32.5,32.5h360.7
			c18,0,32.5-14.5,32.5-32.5V288.7C803.8,270.8,789.2,256.3,771.3,256.3L771.3,256.3z"/>
	</g>
	<line class="st2" x1="378.1" y1="288.3" x2="803.8" y2="288.3"/>
	<line class="st3" x1="405.3" y1="273.3" x2="482.8" y2="273.3"/>
	<line class="st4" x1="546.8" y1="273.3" x2="574.9" y2="273.3"/>
	<line class="st4" x1="586.8" y1="273.3" x2="643.2" y2="273.3"/>
	<line class="st4" x1="653.2" y1="273.3" x2="681.9" y2="273.3"/>
	<line class="st4" x1="694.1" y1="273.3" x2="733.7" y2="273.3"/>
	<circle class="st5" cx="765.7" cy="273.3" r="8.8"/>
	<line class="st6" x1="536.9" y1="304.5" x2="653.2" y2="304.5"/>
	<line class="st7" x1="513.6" y1="316.9" x2="590.9" y2="316.9"/>
	<line class="st7" x1="595.8" y1="316.9" x2="620.8" y2="316.9"/>
	<line class="st7" x1="627.2" y1="316.9" x2="676.7" y2="316.9"/>
	<line class="st7" x1="522.3" y1="322.9" x2="590.9" y2="322.9"/>
	<line class="st7" x1="595.8" y1="322.9" x2="637.5" y2="322.9"/>
	<line class="st7" x1="641.3" y1="322.9" x2="657.8" y2="322.9"/>
	<line class="st7" x1="520.1" y1="328.3" x2="549.6" y2="328.3"/>
	<line class="st7" x1="556.6" y1="328.3" x2="611.1" y2="328.3"/>
	<line class="st7" x1="616.6" y1="328.3" x2="660.4" y2="328.3"/>
	<line class="st7" x1="513.6" y1="333.1" x2="545.6" y2="333.1"/>
	<line class="st7" x1="552.3" y1="333.1" x2="641.3" y2="333.1"/>
	<line class="st7" x1="645.8" y1="333.1" x2="676.7" y2="333.1"/>
	<line class="st7" x1="513.6" y1="338.3" x2="586.8" y2="338.3"/>
	<line class="st7" x1="590.9" y1="338.3" x2="627.2" y2="338.3"/>
	<line class="st7" x1="633.1" y1="338.3" x2="671.9" y2="338.3"/>
	<line class="st7" x1="504.3" y1="344.3" x2="545.6" y2="344.3"/>
	<line class="st7" x1="552.3" y1="344.3" x2="611.1" y2="344.3"/>
	<line class="st7" x1="620.8" y1="344.3" x2="681.9" y2="344.3"/>
	<g>
		<path class="st0" d="M486.4,443.1h-19.7c-10.9,0-19.7-8.9-19.7-19.7v-48c0-10.9,8.9-19.7,19.7-19.7h19.7
			c10.9,0,19.7,8.9,19.7,19.7v48C506.2,434.3,497.3,443.1,486.4,443.1z"/>
	</g>
	<g>
		<path class="st1" d="M461,438.3c-10.2,0-18.3-8.3-18.3-18.3v-48c0-10.2,8.3-18.3,18.3-18.3h19.7c10.2,0,18.3,8.3,18.3,18.3v48
			c0,10.2-8.3,18.3-18.3,18.3H461z"/>
		<path d="M480.6,355.1c9.4,0,16.9,7.6,16.9,16.9v48c0,9.4-7.6,16.9-16.9,16.9H461c-9.4,0-16.9-7.6-16.9-16.9v-48
			c0-9.4,7.6-16.9,16.9-16.9H480.6 M480.6,352.3H461c-10.9,0-19.7,8.9-19.7,19.7v48c0,10.9,8.9,19.7,19.7,19.7h19.7
			c10.9,0,19.7-8.9,19.7-19.7v-48C500.4,361.1,491.6,352.3,480.6,352.3L480.6,352.3z"/>
	</g>
	<g>
		<path class="st0" d="M569.3,443.1h-19.7c-10.9,0-19.7-8.9-19.7-19.7v-48c0-10.9,8.9-19.7,19.7-19.7h19.7
			c10.9,0,19.7,8.9,19.7,19.7v48C589.1,434.3,580.3,443.1,569.3,443.1z"/>
	</g>
	<g>
		<path class="st1" d="M543.9,438.3c-10.2,0-18.3-8.3-18.3-18.3v-48c0-10.2,8.3-18.3,18.3-18.3h19.7c10.2,0,18.3,8.3,18.3,18.3v48
			c0,10.2-8.3,18.3-18.3,18.3H543.9z"/>
		<path d="M563.6,355.1c9.4,0,16.9,7.6,16.9,16.9v48c0,9.4-7.6,16.9-16.9,16.9h-19.7c-9.4,0-16.9-7.6-16.9-16.9v-48
			c0-9.4,7.6-16.9,16.9-16.9H563.6 M563.6,352.3h-19.7c-10.9,0-19.7,8.9-19.7,19.7v48c0,10.9,8.9,19.7,19.7,19.7h19.7
			c10.9,0,19.7-8.9,19.7-19.7v-48C583.3,361.1,574.5,352.3,563.6,352.3L563.6,352.3z"/>
	</g>
	<g>
		<path class="st0" d="M650.2,443.1h-19.7c-10.9,0-19.7-8.9-19.7-19.7v-48c0-10.9,8.9-19.7,19.7-19.7h19.7
			c10.9,0,19.7,8.9,19.7,19.7v48C670,434.3,661.1,443.1,650.2,443.1z"/>
	</g>
	<g>
		<path class="st1" d="M624.8,438.3c-10.2,0-18.3-8.3-18.3-18.3v-48c0-10.2,8.3-18.3,18.3-18.3h19.7c10.2,0,18.3,8.3,18.3,18.3v48
			c0,10.2-8.3,18.3-18.3,18.3H624.8z"/>
		<path d="M644.4,355.1c9.4,0,16.9,7.6,16.9,16.9v48c0,9.4-7.6,16.9-16.9,16.9h-19.7c-9.4,0-16.9-7.6-16.9-16.9v-48
			c0-9.4,7.6-16.9,16.9-16.9H644.4 M644.4,352.3h-19.7c-10.9,0-19.7,8.9-19.7,19.7v48c0,10.9,8.9,19.7,19.7,19.7h19.7
			c10.9,0,19.7-8.9,19.7-19.7v-48C664.2,361.1,655.4,352.3,644.4,352.3L644.4,352.3z"/>
	</g>
	<g>
		<path class="st0" d="M726.7,443.1H707c-10.9,0-19.7-8.9-19.7-19.7v-48c0-10.9,8.9-19.7,19.7-19.7h19.7c10.9,0,19.7,8.9,19.7,19.7
			v48C746.4,434.3,737.6,443.1,726.7,443.1z"/>
	</g>
	<g>
		<path class="st1" d="M701.2,438.3c-10.2,0-18.3-8.3-18.3-18.3v-48c0-10.2,8.3-18.3,18.3-18.3h19.7c10.2,0,18.3,8.3,18.3,18.3v48
			c0,10.2-8.3,18.3-18.3,18.3H701.2z"/>
		<path d="M720.9,355.1c9.4,0,16.9,7.6,16.9,16.9v48c0,9.4-7.6,16.9-16.9,16.9h-19.7c-9.4,0-16.9-7.6-16.9-16.9v-48
			c0-9.4,7.6-16.9,16.9-16.9H720.9 M720.9,352.3h-19.7c-10.9,0-19.7,8.9-19.7,19.7v48c0,10.9,8.9,19.7,19.7,19.7h19.7
			c10.9,0,19.7-8.9,19.7-19.7v-48C740.6,361.1,731.7,352.3,720.9,352.3L720.9,352.3z"/>
	</g>
</g>
<g id="Layer_2_00000109739732680065717590000015239964196052514452_">
	<g>
		<path class="st0" d="M546.1,718.1H214.5c-17.6,0-31.9-14.3-31.9-31.9V563.6c0-17.6,14.3-31.9,31.9-31.9h331.6
			c17.6,0,31.9,14.3,31.9,31.9v122.6C578,703.9,563.7,718.1,546.1,718.1z"/>
	</g>
	<path class="st8" d="M533.9,703.9H202.4c-17.6,0-31.9-14.3-31.9-31.9V549.4c0-17.6,14.3-31.9,31.9-31.9h331.6
		c17.6,0,31.9,14.3,31.9,31.9V672C565.9,689.7,551.6,703.9,533.9,703.9z"/>
	<line class="st2" x1="170.4" y1="548.4" x2="564" y2="548.4"/>
	<line class="st3" x1="198.1" y1="531.8" x2="283.8" y2="531.8"/>
	<line class="st4" x1="385.9" y1="533.4" x2="421.9" y2="533.4"/>
	<line class="st4" x1="437.8" y1="533.4" x2="495" y2="533.4"/>
	<line class="st4" x1="509.7" y1="533.4" x2="524.6" y2="533.4"/>
	<line class="st3" x1="202.7" y1="568.1" x2="312.2" y2="568.1"/>
	<line class="st3" x1="403.9" y1="568.1" x2="539.2" y2="568.1"/>
	<line class="st9" x1="210.7" y1="579.5" x2="239.6" y2="579.5"/>
	<line class="st9" x1="248.4" y1="579.5" x2="274.8" y2="579.5"/>
	<line class="st9" x1="206.5" y1="584.7" x2="219.2" y2="584.7"/>
	<line class="st9" x1="225.2" y1="584.7" x2="280.4" y2="584.7"/>
	<line class="st9" x1="286.1" y1="584.7" x2="303.1" y2="584.7"/>
	<line class="st9" x1="196.9" y1="589.5" x2="274.8" y2="589.5"/>
	<line class="st9" x1="280.4" y1="579.5" x2="294.6" y2="579.5"/>
	<line class="st9" x1="280.4" y1="589.5" x2="321.2" y2="589.5"/>
	<line class="st9" x1="196.9" y1="596.1" x2="248.4" y2="596.1"/>
	<line class="st9" x1="254.8" y1="596.1" x2="294.6" y2="596.1"/>
	<line class="st9" x1="300.7" y1="596.1" x2="316" y2="596.1"/>
	<line class="st9" x1="193.6" y1="600.3" x2="254.8" y2="600.3"/>
	<line class="st9" x1="261.6" y1="600.3" x2="296.5" y2="600.3"/>
	<line class="st9" x1="300.7" y1="600.3" x2="327.3" y2="600.3"/>
	<line class="st6" x1="471.5" y1="579.5" x2="471.5" y2="672.6"/>
	<circle class="st10" cx="496.1" cy="592.1" r="10.2"/>
	<circle class="st10" cx="447.9" cy="614.8" r="10.2"/>
	<circle class="st10" cx="496.1" cy="638" r="10.2"/>
	<circle class="st10" cx="449.9" cy="669.6" r="10.2"/>
	<g id="XMLID_00000151542159790998282620000018332284769027783578_">
		<g>
			<path class="st1" d="M336,621.5v53.2c0,4.4-3.5,7.9-7.9,7.9H204.8c-4.4,0-7.9-3.5-7.9-7.9v-53.2c0-4.4,3.5-7.9,7.9-7.9h123.3
				C332.5,613.6,336,617.2,336,621.5z"/>
		</g>
		<g>
			<path class="st2" d="M328.1,682.6H204.8c-4.4,0-7.9-3.5-7.9-7.9v-53.2c0-4.4,3.5-7.9,7.9-7.9h123.3c4.4,0,7.9,3.5,7.9,7.9v53.2
				C336,679.1,332.5,682.6,328.1,682.6z"/>
		</g>
	</g>
	<line class="st2" x1="206.5" y1="620.1" x2="248.4" y2="620.1"/>
	<line class="st2" x1="252.8" y1="620.1" x2="290" y2="620.1"/>
	<line class="st2" x1="294.6" y1="620.1" x2="308.4" y2="620.1"/>
	<line class="st9" x1="206.5" y1="630.4" x2="240.9" y2="630.4"/>
	<line class="st9" x1="244.6" y1="630.4" x2="283.8" y2="630.4"/>
	<line class="st9" x1="287.5" y1="630.4" x2="309.4" y2="630.4"/>
	<line class="st9" x1="206.5" y1="635.9" x2="261.6" y2="635.9"/>
	<line class="st9" x1="264.2" y1="635.9" x2="322.5" y2="635.9"/>
	<line class="st9" x1="206.5" y1="640.5" x2="238.1" y2="640.5"/>
	<line class="st9" x1="242.1" y1="640.5" x2="276.5" y2="640.5"/>
	<line class="st9" x1="206.5" y1="655.3" x2="244.6" y2="655.3"/>
	<line class="st9" x1="251.8" y1="655.3" x2="286.1" y2="655.3"/>
	<line class="st9" x1="291.6" y1="655.3" x2="317.9" y2="655.3"/>
	<line class="st9" x1="206.5" y1="661" x2="238.1" y2="661"/>
	<line class="st9" x1="242.1" y1="661" x2="268.9" y2="661"/>
	<line class="st9" x1="272.9" y1="661" x2="300.7" y2="661"/>
</g>
<g id="Layer_3">
	<g>
		<path class="st0" d="M611.3,781.8H360.5c-27,0-48.9-21.9-48.9-48.9v-53.7c0-27,21.9-48.9,48.9-48.9h250.8
			c27,0,48.9,21.9,48.9,48.9v53.7C660.2,759.9,638.3,781.8,611.3,781.8z"/>
	</g>
	<path class="st8" d="M602,767.6H351.2c-27,0-48.9-21.9-48.9-48.9v-53.7c0-27,21.9-48.9,48.9-48.9H602c27,0,48.9,21.9,48.9,48.9
		v53.7C650.9,745.6,629,767.6,602,767.6z"/>
	<line class="st2" x1="305.2" y1="648.1" x2="645.8" y2="648.1"/>
	<line class="st3" x1="354.4" y1="632.3" x2="456.7" y2="632.3"/>
	<line class="st4" x1="496.1" y1="632.3" x2="524.6" y2="632.3"/>
	<line class="st4" x1="529.8" y1="632.3" x2="555.3" y2="632.3"/>
	<line class="st4" x1="560.9" y1="632.3" x2="594.7" y2="632.3"/>
	<line class="st4" x1="601.5" y1="632.3" x2="620.5" y2="632.3"/>
	<g>
		<path class="st0" d="M438.1,739.4h-73.7c-14,0-25.4-11.4-25.4-25.4v-17.5c0-14,11.4-25.4,25.4-25.4h73.7c14,0,25.4,11.4,25.4,25.4
			v17.5C463.5,728.1,452.1,739.4,438.1,739.4z"/>
	</g>
	<path class="st10" d="M430.6,734.1h-73.7c-14,0-25.4-11.4-25.4-25.4v-17.5c0-14,11.4-25.4,25.4-25.4h73.7c14,0,25.4,11.4,25.4,25.4
		v17.5C455.9,722.7,444.6,734.1,430.6,734.1z"/>
	<line class="st3" x1="354.4" y1="677.2" x2="433" y2="677.2"/>
	<line class="st5" x1="342.9" y1="689.2" x2="384.5" y2="689.2"/>
	<line class="st5" x1="389.9" y1="689.2" x2="412.6" y2="689.2"/>
	<line class="st5" x1="418.7" y1="689.2" x2="439.7" y2="689.2"/>
	<line class="st5" x1="348.3" y1="693.3" x2="372.2" y2="693.3"/>
	<line class="st5" x1="376.7" y1="693.3" x2="416.3" y2="693.3"/>
	<line class="st5" x1="421.7" y1="693.3" x2="435.6" y2="693.3"/>
	<line class="st5" x1="351.7" y1="697.3" x2="388.2" y2="697.3"/>
	<line class="st5" x1="391.8" y1="697.3" x2="431" y2="697.3"/>
	<line class="st5" x1="346.3" y1="701.4" x2="377.9" y2="701.4"/>
	<line class="st5" x1="380.3" y1="701.4" x2="420.7" y2="701.4"/>
	<line class="st5" x1="423.4" y1="701.4" x2="437.8" y2="701.4"/>
	<line class="st5" x1="342.9" y1="706" x2="374.4" y2="706"/>
	<line class="st5" x1="377.9" y1="706" x2="405.5" y2="706"/>
	<line class="st5" x1="410.2" y1="706" x2="437.8" y2="706"/>
	<line class="st5" x1="351.7" y1="710.5" x2="383.5" y2="710.5"/>
	<line class="st5" x1="388.2" y1="710.5" x2="423.4" y2="710.5"/>
	<line class="st6" x1="488.9" y1="669.6" x2="616.2" y2="669.6"/>
	<line class="st11" x1="488.9" y1="679.7" x2="537.3" y2="679.7"/>
	<line class="st11" x1="542.5" y1="679.7" x2="613.4" y2="679.7"/>
	<line class="st11" x1="488.9" y1="686.7" x2="527" y2="686.7"/>
	<line class="st11" x1="532.9" y1="686.7" x2="570.5" y2="686.7"/>
	<line class="st11" x1="578" y1="686.3" x2="616.2" y2="686.3"/>
	<line class="st11" x1="488.9" y1="693.3" x2="542.5" y2="693.3"/>
	<line class="st11" x1="547.7" y1="693.3" x2="570.5" y2="693.3"/>
	<line class="st11" x1="574.6" y1="693.3" x2="590.8" y2="693.3"/>
	<line class="st11" x1="594.7" y1="693.3" x2="622.4" y2="693.3"/>
	<line class="st11" x1="488.9" y1="700" x2="542.5" y2="700"/>
	<line class="st11" x1="547.7" y1="700" x2="569.3" y2="700"/>
	<line class="st11" x1="574.9" y1="700" x2="606.8" y2="700"/>
	<line class="st11" x1="488.9" y1="706" x2="539.5" y2="706"/>
	<line class="st11" x1="542.5" y1="706" x2="599.9" y2="706"/>
	<path class="st12" d="M226,493.5c0,0,0.5-118.8,81-123"/>
	<path class="st12" d="M295,332.3c0,0,38.1,16.6,38.1,42.1s-33.3,33.4-33.3,33.4"/>
	<path class="st12" d="M676.7,710.5c0,0,90.8,11,80.2-162"/>
	<path class="st12" d="M717.2,556.5c0,0,12.2-24.8,40.5-24.8c28.3,0,31,24.8,31,24.8"/>
</g>
<g id="Layer_4">
</g>
</svg>
