<?xml version="1.0" encoding="utf-8"?>
<!-- Generator: Adobe Illustrator 26.3.1, SVG Export Plug-In . SVG Version: 6.00 Build 0)  -->
<svg version="1.1" id="Layer_1" xmlns="http://www.w3.org/2000/svg" xmlns:xlink="http://www.w3.org/1999/xlink" x="0px" y="0px"
	 viewBox="0 0 1366 768" style="enable-background:new 0 0 1366 768;" xml:space="preserve">
<style type="text/css">
	.st0{fill:#FFFFFF;stroke:#000000;stroke-miterlimit:10;}
	.st1{fill:#720027;}
	.st2{fill:#F6EED5;}
	.st3{fill:#900027;}
	.st4{fill:#780027;}
	.st5{fill:#FFFFB1;}
	.st6{fill:#006E54;}
	.st7{font-family:'MontserratAlternates-ExtraBold';}
	.st8{font-size:85.3488px;}
	.st9{enable-background:new    ;}
	.st10{font-size:67.8911px;}
	.st11{fill:#FF5594;}
</style>
<path class="st0" d="M2072.8,1572"/>
<g id="Layer_1_00000013168988851609490850000015186478089446822564_">
	<g id="backrounnd_00000027564263706623832370000000688068842830772924_">
		<g id="backround_00000108310439647319588360000007514890513821384102_">
			<rect class="st1" width="1366" height="768"/>
		</g>
	</g>
</g>
<circle class="st2" cx="714.4" cy="297.8" r="367.6"/>
<polygon class="st3" points="633.4,534.1 720,469 856.6,586.8 620.2,593.8 "/>
<path class="st4" d="M720,469l-12.1,9.1c2.7,6.8,7.8,16.3,17.4,23c8.5,5.9,12.3,3.9,21.7,9.8c11.1,7,11.7,13.4,23.8,26.4
	c2.5,2.7,5.1,5.2,25.2,20.8c9.5,7.4,22.4,17.2,37.9,28.7c-71.2,2.1-142.4,4.2-213.6,6.3l-0.1,0.7l236.4-7L720,469z"/>
<path class="st5" d="M673.1,536.7c0.4-6.8,2-16.3,8.9-21.7c6.8-5.3,13.8-3,22.3-5.3c8-2.2,18.6-9,28.1-30.4
	c-4.1-3.5-8.2-7.1-12.3-10.6l-86.7,65.1l-13.2,59.7l26.6-0.8c1.4-3.9,3.5-9.8,5.4-17.1c3-11.1,2.9-14.8,5.3-20.5
	C659.8,550.1,664,543.3,673.1,536.7z"/>
<path class="st3" d="M707.3,615.4l75.7-76.8c0,0,200.5-35,281.6,0c81.2,35,126.8,126.8,126.8,126.8H707.3V615.4z"/>
<path class="st5" d="M812.7,534.1c-9.9,1.5-19.8,3-29.7,4.5l-75.7,76.8v50h28.3v-50c44.4,0.3,57.3-5.1,58.7-11.2
	c1.3-5.9-8.3-10.7-7.2-20.7c1-8.6,8.7-10.9,16-21.5C807.1,556.4,811.5,547.6,812.7,534.1z"/>
<path class="st4" d="M1064.6,538.6c-31.3-13.5-80.4-16.6-128.9-15.3c-0.9,0,19.6-4,41.6,3.2c15.8,5.1,16.8,10.3,41.3,23.8
	c27.5,15.1,32.5,11.9,43.4,22.3c14.7,14,13.4,27,21.9,43.4c8.3,15.9,26.1,35.7,69,49.4c12.8,0,25.6,0,38.4,0
	C1191.4,665.4,1145.7,573.6,1064.6,538.6z"/>
<polygon class="st3" points="203,665.4 402.4,491.8 677,491.8 878.6,665.4 "/>
<path class="st4" d="M677.4,491.8c-21.8,0-43.7,0-65.5,0c72,25.4,88.4,43.9,87.5,56.8c-0.9,14.7-24.2,21.1-23.5,37.9
	c0.5,13,14.9,21.9,38.5,35.9c24.3,14.4,51.6,30.2,81.7,47c27.6-1.3,55.2-2.7,82.8-4L677.4,491.8z"/>
<path class="st5" d="M400.1,491.8L200.7,665.4H304c16.4-19.7,30.7-34.5,40.5-44.2c19.6-19.4,28.9-25.9,46.7-45.5
	c17.1-18.7,19.6-24.8,29-35.4c14.4-16.1,39.1-35.8,83.1-48.5C469,491.8,434.5,491.8,400.1,491.8z"/>
<text transform="matrix(0.6116 0 0 1 364.3178 188.6697)" class="st6 st7 st8">WEBLISH</text>
<g>
	<g class="st9">
		<path d="M641.1,195.6l3.1-17.7l1.2,7.2c-1.4,0-2.5-0.6-3.5-1.9c-1-1.4-1.4-3.1-1.4-5.4c0-2.3,0.4-4.1,1.4-5.4
			c1-1.4,1.9-2.1,3.5-2.1c1.4,0,2.5,0.8,3.3,2.1c1,1.4,1.4,3.3,1.4,5.4c0,0.6,0,1.4-0.2,1.9c0,0.6-0.2,1.4-0.4,2.3
			c-0.2,1-0.4,2.1-1,3.5l-2.5,9.9L641.1,195.6L641.1,195.6z"/>
		<path d="M689.5,148.1v36.9H682v-3.7c-1.6,2.9-3.7,4.3-6.6,4.3c-2.1,0-3.9-0.8-5.6-2.3c-1.7-1.6-2.9-3.9-4.1-6.6
			c-1.2-2.7-1.6-6.2-1.6-10.1s0.6-7.2,1.6-10.1c1-2.9,2.3-5,4.1-6.6c1.7-1.6,3.5-2.3,5.6-2.3c2.7,0,4.7,1.4,6.2,3.9v-3.1h8
			L689.5,148.1L689.5,148.1z M680.4,172.9c1-1.6,1.4-3.7,1.4-6.4c0-2.7-0.4-4.8-1.4-6.4c-1-1.6-1.9-2.3-3.5-2.3s-2.5,0.8-3.5,2.3
			c-1,1.6-1.4,3.7-1.4,6.4s0.4,4.8,1.4,6.4c1,1.6,1.9,2.3,3.5,2.3S679.5,174.4,680.4,172.9z"/>
		<path d="M714.4,149.8c1.7,1.6,2.9,3.7,4.1,6.6c1,2.9,1.6,6.2,1.6,10.1s-0.6,7.2-1.6,10.1c-1,2.9-2.3,5-4.1,6.6
			c-1.7,1.6-3.5,2.3-5.6,2.3c-2.9,0-5.2-1.4-6.6-4.3v3.7h-7.6v-50.4h8v16.7c1.6-2.5,3.7-3.9,6.2-3.9
			C710.9,147.5,712.6,148.3,714.4,149.8z M710.5,172.9c1-1.6,1.4-3.7,1.4-6.4c0-2.7-0.4-4.8-1.4-6.4s-1.9-2.3-3.5-2.3
			c-1.4,0-2.5,0.8-3.5,2.3s-1.4,3.7-1.4,6.4s0.4,4.8,1.4,6.4c1,1.6,1.9,2.3,3.5,2.3C708.6,175.2,709.5,174.4,710.5,172.9z"/>
		<path d="M747.2,148.1v30.1c0,6.8-1.2,12-3.3,15.3c-2.1,3.5-5.4,5-9.7,5c-2.1,0-4.3-0.4-6.2-1.2c-1.9-0.8-3.5-1.9-4.8-3.7l2.9-9.1
			c1,1.2,1.9,2.1,3.3,2.9c1.4,0.8,2.7,1,4.1,1c1.9,0,3.5-0.8,4.5-2.3c1-1.6,1.4-3.7,1.4-6.6v-0.8c-1.7,2.7-3.9,3.9-6.4,3.9
			c-2.9,0-5.2-1.4-7-4.3s-2.5-7-2.5-12.6v-18h8v15.9c0,2.7,0.4,4.8,1,6c0.6,1.4,1.6,1.9,2.7,1.9c1.2,0,2.3-0.8,3.1-2.1
			c0.8-1.4,1.2-3.7,1.2-6.6v-15.3h8L747.2,148.1L747.2,148.1z"/>
		<path d="M754.7,184.3c-1.7-0.8-3.3-1.6-4.5-2.7l2.3-8.7c1,1,2.3,1.9,3.7,2.5c1.4,0.6,2.7,1,4.3,1c1.4,0,2.1-0.2,2.7-0.6
			c0.6-0.4,0.8-1,0.8-1.9c0-0.8-0.4-1.4-1-1.7c-0.6-0.4-1.7-0.6-3.1-1c-1.7-0.4-3.3-0.8-4.7-1.4c-1.2-0.6-2.3-1.7-3.3-3.3
			c-1-1.6-1.4-3.9-1.4-6.6c0-2.3,0.4-4.5,1.4-6.2c0.8-1.7,2.1-3.3,3.7-4.3c1.6-1,3.7-1.6,5.8-1.6c1.6,0,3.3,0.2,4.8,0.8
			c1.6,0.6,2.9,1.4,4.1,2.3l-2.3,8.7c-1.9-1.7-4.1-2.7-6.4-2.7c-1.2,0-2.1,0.2-2.7,0.8c-0.6,0.6-1,1.2-1,1.9c0,0.8,0.4,1.6,1,1.7
			c0.6,0.4,1.7,0.8,3.1,1c1.9,0.4,3.3,1,4.7,1.6c1.2,0.6,2.3,1.7,3.1,3.3c0.8,1.6,1.4,3.7,1.4,6.6c0,2.3-0.4,4.5-1.4,6.2
			c-0.8,1.7-2.1,3.3-3.9,4.3c-1.7,1-3.7,1.6-6,1.6C758.4,185.5,756.7,185.1,754.7,184.3z"/>
		<path d="M789.4,183.4c-0.6,0.8-1.6,1.2-2.5,1.6c-1,0.4-1.9,0.6-3.1,0.6c-2.9,0-5.2-1.2-6.8-3.5c-1.6-2.3-2.3-5.8-2.3-10.5v-31.6h8
			v9.5h5v9.7h-5v12.2c0,1.4,0.2,2.3,0.6,3.1c0.4,0.8,1,1.2,1.7,1.2c1,0,1.7-0.4,2.3-1.2L789.4,183.4z"/>
		<path d="M807.3,174.8c0.8-0.6,1.6-1.4,2.3-2.5l4.1,7c-2.1,4.1-5.2,6-9.5,6c-2.7,0-4.8-0.8-7-2.5c-1.9-1.6-3.5-3.9-4.7-6.8
			c-1.2-2.9-1.6-6.2-1.6-9.9s0.6-6.8,1.6-9.7c1.2-2.9,2.5-5,4.5-6.8c1.9-1.6,4.1-2.5,6.4-2.5c2.1,0,4.3,0.8,6,2.1
			c1.7,1.6,3.3,3.7,4.3,6.4c1.2,2.9,1.6,6.2,1.6,10.1l-16.1,5c0.8,2.9,2.5,4.5,5,4.5C805.5,175.6,806.5,175.4,807.3,174.8z
			 M800.1,158.7c-0.8,1.4-1.4,3.3-1.4,6l9.1-2.9c-0.2-1.6-0.8-2.7-1.6-3.7c-0.8-1-1.7-1.4-2.7-1.4
			C802.2,156.6,801.1,157.4,800.1,158.7z"/>
		<path d="M850.9,149.8c1.7,1.6,2.9,3.7,4.1,6.6c1,2.9,1.6,6.2,1.6,10.1s-0.6,7.2-1.6,10.1c-1,2.9-2.3,5-4.1,6.6
			c-1.7,1.6-3.5,2.3-5.6,2.3c-2.9,0-5.2-1.4-6.6-4.3v3.7h-7.6v-50.4h8v16.7c1.6-2.5,3.7-3.9,6.2-3.9
			C847.4,147.5,849.2,148.3,850.9,149.8z M847.1,172.9c1-1.6,1.4-3.7,1.4-6.4c0-2.7-0.4-4.8-1.4-6.4c-1-1.6-1.9-2.3-3.5-2.3
			c-1.4,0-2.5,0.8-3.5,2.3c-1,1.6-1.4,3.7-1.4,6.4s0.4,4.8,1.4,6.4c1,1.6,1.9,2.3,3.5,2.3C845.1,175.2,846.1,174.4,847.1,172.9z"/>
		<path d="M883.7,148.1v30.1c0,6.8-1.2,12-3.3,15.3c-2.1,3.5-5.4,5-9.7,5c-2.1,0-4.3-0.4-6.2-1.2c-1.9-0.8-3.5-1.9-4.8-3.7l2.9-9.1
			c1,1.2,1.9,2.1,3.3,2.9c1.4,0.8,2.7,1,4.1,1c1.9,0,3.5-0.8,4.5-2.3c1-1.6,1.4-3.7,1.4-6.6v-0.8c-1.7,2.7-3.9,3.9-6.4,3.9
			c-2.9,0-5.2-1.4-7-4.3c-1.7-2.9-2.5-7-2.5-12.6v-18h8v15.9c0,2.7,0.4,4.8,1,6c0.6,1.4,1.6,1.9,2.7,1.9c1.2,0,2.3-0.8,3.1-2.1
			c0.8-1.4,1.2-3.7,1.2-6.6v-15.3h8L883.7,148.1L883.7,148.1z"/>
		<path d="M891.1,182c-1.6-2.3-2.3-5.6-2.3-10.1v-37.4h8v36.9c0,1.4,0.2,2.3,0.6,3.1c0.4,0.8,1,1.2,1.7,1.2c0.6,0,1.2-0.2,1.7-0.8
			l0.4,9.7c-1.2,0.6-2.3,1-3.7,1C894.8,185.5,892.6,184.3,891.1,182z"/>
		<path d="M904.5,142c-1-1.4-1.4-2.9-1.4-4.8s0.4-3.5,1.4-4.8c1-1.4,2.1-1.9,3.5-1.9s2.5,0.6,3.5,1.9c1,1.2,1.4,2.9,1.4,4.8
			s-0.4,3.7-1.4,5c-1,1.4-2.1,1.9-3.5,1.9S905.4,143.4,904.5,142z M904.1,148.1h8v36.9h-8V148.1z"/>
	</g>
</g>
<text transform="matrix(0.6116 0 0 1 417.0561 248.4099)" class="st7 st10">vidět až na</text>
<text transform="matrix(0.6116 0 0 1 688.1528 243.2537)" class="st11 st7 st10">jiných planetách!</text>
<path class="st1" d="M368.2,173.2c0,0,14.7-36.6,16.6-38.5l-5.4-37.9l-29.8,5l-30.2,18v22.6l4.7,18.7l22.8,14L368.2,173.2z"/>
<path class="st1" d="M1066.5,192.5c0,0,8.6,27.7,8.9,33.5s15.2-4.2,15.2-4.2l3.6-14.3l-2.9-17.6l-9.4-7.4l-12.7,2.5L1066.5,192.5z"
	/>
<path class="st3" d="M-95.7,753.6c160.7-33.8,321.4-67.7,482.1-101.5"/>
<path class="st1" d="M-232.1,855c-7.3-0.1-24.1-0.8-25.4-6.3c-6.8-29.5,427.6-227.1,926.1-234.7c89.6-1.4,281.7,32.9,666,101.5
	c205.4,36.6,360.7,69.4,390.1,168.1c17,57.2-15.5,111.7-19,117.3c-29.7,48.1-96.5,94.6-472.5,95.1c-90.9,0.1-222.3-7.3-485.2-22.2
	c-142.2-8.1-215.6-13.2-314-28.5c-116.3-18.2-211-41.9-275.9-60.3"/>
</svg>
