<?xml version="1.0" encoding="utf-8"?>
<!-- Generator: Adobe Illustrator 26.3.1, SVG Export Plug-In . SVG Version: 6.00 Build 0)  -->
<svg version="1.1" id="Layer_1" xmlns="http://www.w3.org/2000/svg" xmlns:xlink="http://www.w3.org/1999/xlink" x="0px" y="0px"
	 viewBox="0 0 1000 600" style="enable-background:new 0 0 1000 600;" xml:space="preserve">
<style type="text/css">
	.st0{enable-background:new    ;}
	.st1{fill:#FF855B;}
	.st2{fill:#FF635B;}
</style>
<g class="st0">
	<path class="st1" d="M955.8,9.3v331.1c0,81.2-24.7,143.9-74,188c-49.3,44.1-118.4,66.2-207.2,66.2c-73,0-132.2-18-177.4-54
		c-44.7,36-103.8,54-177.4,54c-88.3,0-157.1-22.1-206.4-66.2c-49.3-44.1-74-106.8-74-188V9.3h192.9v325.4c0,34.9,6.8,60.9,20.4,78.1
		c13.6,17.2,34.9,25.8,63.8,25.8c28.9,0,50.1-8.6,63.8-25.8c13.6-17.2,20.4-43.2,20.4-78.1V9.3h192.9v325.4
		c0,34.9,6.9,60.9,20.8,78.1c13.9,17.2,35.3,25.8,64.2,25.8c28.9,0,50.1-8.6,63.8-25.8c13.6-17.2,20.4-43.2,20.4-78.1V9.3H955.8z"/>
</g>
<text transform="matrix(1 0 0 1 -719.0082 -94.7806)" class="st1" style="font-family:'MontserratAlternates-Black'; font-size:251.6162px;">WE</text>
<text transform="matrix(1 0 0 1 -229.8676 -94.7806)" class="st2" style="font-family:'MontserratAlternates-Black'; font-size:251.6162px;">BL</text>
<text transform="matrix(1 0 0 1 126.4219 -94.7806)" style="fill:#C7385B; font-family:'MontserratAlternates-Black'; font-size:251.6162px;">I</text>
<text transform="matrix(1 0 0 1 259.2794 -94.7806)" style="fill:#62245B; font-family:'MontserratAlternates-Black'; font-size:251.6162px;">S</text>
<text transform="matrix(1 0 0 1 428.3614 -94.7806)" style="fill:#83005B; font-family:'MontserratAlternates-Black'; font-size:251.6162px;">H</text>
<g>
	<g>
		<path class="st2" d="M161.6,412.8c13.6,17.2,34.9,25.8,63.8,25.8c18.2,0,33.4-3.4,45.6-10.3c-7.1-4-13.2-9.2-18.2-15.5
			c-13.6-17.2-20.4-43.2-20.4-78.1V9.3h-91.1v325.4C141.2,369.6,148,395.6,161.6,412.8z"/>
		<path class="st2" d="M523.4,412.8c13.9,17.2,35.3,25.8,64.2,25.8c18.2,0,33.3-3.4,45.5-10.2c-7.2-4-13.4-9.2-18.5-15.5
			c-13.9-17.2-20.8-43.2-20.8-78.1V9.3h-91.1v325.4C502.5,369.6,509.5,395.6,523.4,412.8z"/>
		<path class="st2" d="M864.7,9.3v331.1c0,81.2-24.7,143.9-74,188c-40.1,35.9-93.3,57.2-159.5,63.9c13.9,1.5,28.4,2.3,43.4,2.3
			c88.8,0,157.9-22.1,207.2-66.2c49.3-44.1,74-106.8,74-188V9.3H864.7z"/>
	</g>
</g>
</svg>
