<?xml version="1.0" encoding="utf-8"?>
<!-- Generator: Adobe Illustrator 26.3.1, SVG Export Plug-In . SVG Version: 6.00 Build 0)  -->
<svg version="1.1" id="Layer_1" xmlns="http://www.w3.org/2000/svg" xmlns:xlink="http://www.w3.org/1999/xlink" x="0px" y="0px"
	 viewBox="0 0 1366 768" style="enable-background:new 0 0 1366 768;" xml:space="preserve">
<style type="text/css">
	.st0{fill:none;stroke:#000000;stroke-width:4;stroke-miterlimit:10;}
	.st1{fill:#FFFFFF;stroke:#000000;stroke-width:4;stroke-miterlimit:10;}
	.st2{fill:#006E54;}
	.st3{font-family:'MontserratAlternates-Black';}
	.st4{font-size:52px;}
	.st5{fill:#006E54;stroke:#006154;stroke-width:17;stroke-miterlimit:10;}
	.st6{fill:#720027;stroke:#630027;stroke-width:17;stroke-miterlimit:10;}
</style>
<path class="st0" d="M938.2,366.4H427.8c-23.9,0-43.2-19.3-43.2-43.2V173c0-23.9,19.3-43.2,43.2-43.2h510.4
	c23.9,0,43.2,19.3,43.2,43.2v150.2C981.4,347.1,962.1,366.4,938.2,366.4z"/>
<path class="st1" d="M920.8,384.3H410.4c-23.9,0-43.2-19.3-43.2-43.2V190.9c0-23.9,19.3-43.2,43.2-43.2h510.4
	c23.9,0,43.2,19.3,43.2,43.2v150.2C964,365,944.6,384.3,920.8,384.3z"/>
<text transform="matrix(1 0 0 1 390.6773 265.9962)"><tspan x="0" y="0" class="st2 st3 st4">KE HVĚZDÁM DÍKY </tspan><tspan x="150.2" y="62.4" class="st2 st3 st4">WEBLISH</tspan></text>
<g>
	<path class="st5" d="M987.9,644.3h162.8c0,0,16.7-229.7-81.4-229.7S987.9,644.3,987.9,644.3z"/>
	<circle class="st5" cx="1069.3" cy="376.4" r="52.2"/>
</g>
<g>
	<path class="st6" d="M882,663.2h135c0,0,13.8-190.4-67.5-190.4S882,663.2,882,663.2z"/>
	<circle class="st6" cx="949.5" cy="441" r="43.3"/>
</g>
<g>
	<path class="st5" d="M859.8,770.3h135.8c0,0,13.9-191.5-67.9-191.5S859.8,770.3,859.8,770.3z"/>
	<circle class="st5" cx="927.7" cy="546.9" r="43.5"/>
</g>
<g>
	<path class="st5" d="M850.2,599.2H899c0,0,5-68.8-24.4-68.8S850.2,599.2,850.2,599.2z"/>
	<circle class="st5" cx="874.6" cy="519" r="15.6"/>
</g>
<g>
	<path class="st5" d="M604.7,685.2h156.6c0,0,16.1-220.8-78.3-220.8S604.7,685.2,604.7,685.2z"/>
	<circle class="st5" cx="683" cy="427.5" r="50.2"/>
</g>
<g>
	<path class="st5" d="M501.2,620.1h118.8c0,0,12.2-167.6-59.4-167.6S501.2,620.1,501.2,620.1z"/>
	<circle class="st5" cx="560.6" cy="424.6" r="38.1"/>
</g>
<g>
	<path class="st6" d="M338.2,651.5h161.3c0,0,16.5-227.5-80.7-227.5S338.2,651.5,338.2,651.5z"/>
	<circle class="st6" cx="418.9" cy="386" r="51.7"/>
</g>
<g>
	<path class="st5" d="M201.1,698.9h180c0,0,18.5-253.8-90-253.8S201.1,698.9,201.1,698.9z"/>
	<circle class="st5" cx="291" cy="402.7" r="57.7"/>
</g>
<g>
	<path class="st5" d="M441.2,698.9H560c0,0,12.2-167.6-59.4-167.6S441.2,698.9,441.2,698.9z"/>
	<circle class="st5" cx="500.6" cy="503.3" r="38.1"/>
</g>
<g>
	<path class="st6" d="M544.4,711.5h131.7c0,0,13.5-185.7-65.9-185.7S544.4,711.5,544.4,711.5z"/>
	<circle class="st6" cx="610.3" cy="494.8" r="42.2"/>
</g>
<g>
	<path class="st6" d="M677.7,897.3h270c0,0,27.7-380.8-135-380.8S677.7,897.3,677.7,897.3z"/>
	<circle class="st6" cx="812.7" cy="453" r="86.6"/>
</g>
</svg>
