<?xml version="1.0" encoding="utf-8"?>
<!-- Generator: Adobe Illustrator 26.3.1, SVG Export Plug-In . SVG Version: 6.00 Build 0)  -->
<svg version="1.1" id="Layer_1" xmlns="http://www.w3.org/2000/svg" xmlns:xlink="http://www.w3.org/1999/xlink" x="0px" y="0px"
	 viewBox="0 0 1000 1000" style="enable-background:new 0 0 1000 1000;" xml:space="preserve">
<style type="text/css">
	.st0{fill:#CCCCCC;stroke:#CCCCCC;stroke-width:10;stroke-miterlimit:10;}
	.st1{fill:#FFFFFF;}
	.st2{stroke:#000000;stroke-width:10;stroke-miterlimit:10;}
	.st3{fill:#FFFFFF;stroke:#000000;stroke-width:10;stroke-miterlimit:10;}
	.st4{fill:#CCCCCC;stroke:#CCCCCC;stroke-width:6;stroke-miterlimit:10;}
	.st5{fill:#CCCCCC;stroke:#CCCCCC;stroke-width:4;stroke-miterlimit:10;}
</style>
<path class="st0" d="M849.9,698H176.1c-47,0-85.1-38.1-85.1-85.1V373.1c0-47,38.1-85.1,85.1-85.1h673.7c47,0,85.1,38.1,85.1,85.1
	v239.7C935,659.9,896.9,698,849.9,698z"/>
<g>
	<path class="st1" d="M152.1,673c-44.2,0-80.1-35.9-80.1-80.1V353.1c0-44.2,35.9-80.1,80.1-80.1h673.7c44.2,0,80.1,35.9,80.1,80.1
		v239.7c0,44.2-35.9,80.1-80.1,80.1H152.1z"/>
	<path d="M825.9,278c41.4,0,75.1,33.7,75.1,75.1v239.7c0,41.4-33.7,75.1-75.1,75.1H152.1c-41.4,0-75.1-33.7-75.1-75.1V353.1
		c0-41.4,33.7-75.1,75.1-75.1H825.9 M825.9,268H152.1c-47,0-85.1,38.1-85.1,85.1v239.7c0,47,38.1,85.1,85.1,85.1h673.7
		c47,0,85.1-38.1,85.1-85.1V353.1C911,306.1,872.9,268,825.9,268L825.9,268z"/>
</g>
<rect x="396.7" y="542.6" class="st0" width="35.8" height="101"/>
<rect x="471.7" y="442.6" class="st0" width="35.8" height="201"/>
<rect x="547.3" y="426.6" class="st0" width="35.8" height="217.4"/>
<rect x="609.3" y="376.6" class="st0" width="35.8" height="267.5"/>
<rect x="674.1" y="326.6" class="st0" width="35.8" height="317.2"/>
<rect x="388" y="536" class="st2" width="35.8" height="101"/>
<rect x="463" y="436" class="st2" width="35.8" height="201"/>
<rect x="538.6" y="420" class="st2" width="35.8" height="217.4"/>
<rect x="600.6" y="370" class="st2" width="35.8" height="267.5"/>
<rect x="665.4" y="320" class="st2" width="35.8" height="317.2"/>
<line class="st3" x1="122" y1="325" x2="263.2" y2="325"/>
<line class="st3" x1="276.9" y1="325" x2="348.2" y2="325"/>
<line class="st3" x1="366" y1="325" x2="439.7" y2="325"/>
<line class="st4" x1="122" y1="347.5" x2="225.9" y2="347.5"/>
<line class="st4" x1="239.1" y1="347.5" x2="360" y2="347.5"/>
<line class="st4" x1="369.7" y1="347.5" x2="462.9" y2="347.5"/>
<line class="st4" x1="122" y1="359.9" x2="233.5" y2="359.9"/>
<line class="st4" x1="240.9" y1="359.9" x2="392.2" y2="359.9"/>
<line class="st4" x1="398.8" y1="359.9" x2="512.6" y2="359.9"/>
<line class="st4" x1="122" y1="371.1" x2="274" y2="371.1"/>
<line class="st4" x1="279.3" y1="371.1" x2="377.2" y2="371.1"/>
<line class="st4" x1="383.8" y1="371.1" x2="475.1" y2="371.1"/>
<line class="st4" x1="122" y1="381" x2="274" y2="381"/>
<rect x="737.9" y="308" class="st0" width="35.8" height="336"/>
<rect x="729.2" y="301" class="st2" width="35.8" height="336"/>
<line class="st5" x1="122" y1="450.5" x2="254" y2="450.5"/>
<line class="st5" x1="269.8" y1="450.5" x2="351.4" y2="450.5"/>
<line class="st5" x1="122" y1="460.7" x2="233.5" y2="460.7"/>
<line class="st5" x1="240.9" y1="460.7" x2="394" y2="460.7"/>
<line class="st5" x1="122" y1="473" x2="282" y2="473"/>
<line class="st5" x1="289.6" y1="473" x2="418.3" y2="473"/>
<line class="st5" x1="122" y1="484" x2="260.2" y2="484"/>
<line class="st5" x1="269.8" y1="484" x2="388" y2="484"/>
<line class="st5" x1="122" y1="512.9" x2="248" y2="512.9"/>
<line class="st5" x1="260.2" y1="512.9" x2="321" y2="512.9"/>
<line class="st5" x1="328.3" y1="512.9" x2="405.9" y2="512.9"/>
<line class="st5" x1="122" y1="525" x2="229.8" y2="525"/>
<line class="st5" x1="239.1" y1="525" x2="279.3" y2="525"/>
</svg>
