<?xml version="1.0" encoding="utf-8"?>
<!-- Generator: Adobe Illustrator 26.3.1, SVG Export Plug-In . SVG Version: 6.00 Build 0)  -->
<svg version="1.1" id="Layer_1" xmlns="http://www.w3.org/2000/svg" xmlns:xlink="http://www.w3.org/1999/xlink" x="0px" y="0px"
	 viewBox="0 0 1366 768" style="enable-background:new 0 0 1366 768;" xml:space="preserve">
<style type="text/css">
	.st0{fill:none;stroke:#006E54;stroke-width:31;stroke-miterlimit:10;}
	.st1{fill:#720027;}
	.st2{font-family:'MontserratAlternates-Black';}
	.st3{font-size:115.1507px;}
	.st4{fill:#095442;}
	.st5{fill:none;stroke:#006E54;stroke-width:16;stroke-miterlimit:10;}
</style>
<path class="st0" d="M303.1,737.2l130.6-33.5l108.9-113l195.9-44.3l130.7-124.1c0,0,83.6-29.4,108.9-44.7s76.2-67.8,76.2-67.8
	c83.5-94.1,166.9-188.1,250.4-282.2"/>
<text transform="matrix(1 0 0 1 141.3733 204.2539)" class="st1 st2 st3">RAKETOVĚ</text>
<g>
	<g>
		<path class="st4" d="M180.1,317.9l-34.4-81.4h29.6l28,68.7h-17.7l28.8-68.7h27.1l-34.4,81.4H180.1z"/>
		<path class="st4" d="M266.9,317.9v-35.7l6.3,16.3l-37-62.2h29l24.9,42.4h-16.9l25.1-42.4h26.5l-36.5,62.2l6.1-16.3v35.7H266.9z"/>
		<path class="st4" d="M358.8,319.9c-6.9,0-13.4-0.8-19.8-2.3c-6.3-1.5-11.5-3.6-15.7-6.1l8.8-20c3.8,2.3,8.3,4,13.1,5.4
			c4.8,1.3,9.4,2.1,13.8,2.1c2.7,0,4.8-0.2,6.1-0.6c1.5-0.4,2.7-0.8,3.3-1.5c0.8-0.6,1-1.5,1-2.3c0-1.5-0.8-2.7-2.5-3.5
			c-1.5-0.8-3.8-1.5-6.5-2.1c-2.7-0.6-5.6-1.2-8.8-1.9c-3.3-0.6-6.3-1.5-9.6-2.7s-6.1-2.5-8.8-4.2c-2.7-1.7-4.8-4.2-6.5-7.1
			c-1.7-2.9-2.5-6.5-2.5-10.9c0-5,1.3-9.6,4.2-13.8c2.9-4.2,7.1-7.5,12.7-10c5.6-2.5,12.7-3.6,20.9-3.6c5.6,0,10.9,0.6,16.3,1.7
			c5.4,1.2,10.2,2.9,14.4,5.4l-8.3,20c-4-2.1-7.9-3.5-11.7-4.6c-3.8-1-7.5-1.5-10.9-1.5c-2.7,0-4.8,0.2-6.3,0.8
			c-1.5,0.4-2.7,1.2-3.3,1.9c-0.6,0.8-1,1.5-1,2.5c0,1.3,0.8,2.5,2.5,3.3c1.5,0.8,3.8,1.5,6.5,2.1c2.7,0.6,5.6,1.2,8.8,1.7
			c3.3,0.6,6.3,1.5,9.6,2.5c3.3,1.2,6.1,2.5,8.8,4.2c2.7,1.7,4.8,4,6.5,6.9c1.5,2.9,2.5,6.5,2.5,10.7c0,5-1.3,9.6-4.2,13.6
			c-2.9,4.2-7.1,7.5-12.7,10C374.3,318.5,367.2,319.9,358.8,319.9z"/>
		<path class="st4" d="M422.5,317.9v-60.1h-23.8v-21.3h75v21.3h-23.8v60.1H422.5z"/>
		<path class="st4" d="M481,317.9v-81.4h39.2c7.7,0,14.2,1.2,19.8,3.6c5.6,2.5,9.8,5.9,12.9,10.6s4.6,10,4.6,16.3
			c0,6.3-1.5,11.7-4.6,16.3s-7.3,8.1-12.9,10.4c-5.6,2.5-12.1,3.6-19.8,3.6h-24l12.3-11.3v31.7H481V317.9z M507.3,229.9l-15-18.6
			h16.3l16.5,15.2h-13.4l16.5-15.2h16.3l-15,18.6H507.3z M508.5,289.2l-12.3-12.5h22.3c3.8,0,6.5-0.8,8.4-2.5c1.7-1.7,2.7-4,2.7-6.9
			c0-2.9-1-5.2-2.7-6.9c-1.7-1.7-4.6-2.5-8.4-2.5h-22.3l12.3-12.5V289.2z M529.6,317.9l-20-29.7h29.2l20.2,29.7H529.6z"/>
		<path class="st4" d="M594.7,297.2h40.7v20.7h-67.7v-81.4h66.2v20.7h-39.2V297.2z M592.7,266.7H629v19.8h-36.3V266.7z"/>
		<path class="st4" d="M645.9,317.9v-81.4h27.4v60.1H710v21.3H645.9z"/>
		<path class="st4" d="M717.7,317.9v-81.4h27.4v81.4H717.7z"/>
		<path class="st4" d="M776,317.9v-60.1h-23.8v-21.3h75v21.3h-23.8v60.1H776z"/>
	</g>
</g>
<path class="st5" d="M822.7,887.6"/>
</svg>
