<?xml version="1.0" encoding="utf-8"?>
<!-- Generator: Adobe Illustrator 26.3.1, SVG Export Plug-In . SVG Version: 6.00 Build 0)  -->
<svg version="1.1" id="Layer_1" xmlns="http://www.w3.org/2000/svg" xmlns:xlink="http://www.w3.org/1999/xlink" x="0px" y="0px"
	 viewBox="0 0 1000 1000" style="enable-background:new 0 0 1000 1000;" xml:space="preserve">
<style type="text/css">
	.st0{fill:#CCCCCC;}
	.st1{fill:#FFFFFF;}
	.st2{fill:none;stroke:#000000;stroke-width:7;stroke-miterlimit:10;}
	.st3{fill:none;stroke:#000000;stroke-width:3;stroke-miterlimit:10;}
	.st4{fill:none;stroke:#000000;stroke-width:9;stroke-miterlimit:10;}
	.st5{fill:none;stroke:#808080;stroke-width:6;stroke-miterlimit:10;}
	.st6{fill:#FFFFFF;stroke:#000000;stroke-width:7;stroke-miterlimit:10;}
</style>
<g>
	<path class="st0" d="M186,475.4c-39.7,0-72.1-32.3-72.1-72.1V215.7c0-39.7,32.3-72.1,72.1-72.1h688.8c39.7,0,72.1,32.3,72.1,72.1
		v187.6c0,39.7-32.3,72.1-72.1,72.1L186,475.4L186,475.4z"/>
	<path class="st0" d="M874.8,147.1c37.8,0,68.6,30.8,68.6,68.6v187.6c0,37.8-30.8,68.6-68.6,68.6H186c-37.8,0-68.6-30.8-68.6-68.6
		V215.7c0-37.8,30.8-68.6,68.6-68.6H874.8 M874.8,140.1H186c-41.7,0-75.6,33.8-75.6,75.6v187.6c0,41.7,33.8,75.6,75.6,75.6h688.8
		c41.7,0,75.6-33.8,75.6-75.6V215.7C950.4,173.9,916.6,140.1,874.8,140.1L874.8,140.1z"/>
</g>
<g>
	<path class="st1" d="M158,440.7c-39.7,0-72.1-32.3-72.1-72.1V181c0-39.7,32.3-72.1,72.1-72.1h688.8c39.7,0,72.1,32.3,72.1,72.1
		v187.6c0,39.7-32.3,72.1-72.1,72.1H158z"/>
	<path d="M846.8,112.4c37.8,0,68.6,30.8,68.6,68.6v187.6c0,37.8-30.8,68.6-68.6,68.6H158c-37.8,0-68.6-30.8-68.6-68.6V181
		c0-37.8,30.8-68.6,68.6-68.6H846.8 M846.8,105.4H158c-41.7,0-75.6,33.8-75.6,75.6v187.6c0,41.7,33.8,75.6,75.6,75.6h688.8
		c41.7,0,75.6-33.8,75.6-75.6V181C922.4,139.2,888.6,105.4,846.8,105.4L846.8,105.4z"/>
</g>
<line class="st2" x1="82.4" y1="181" x2="922.4" y2="181"/>
<line class="st2" x1="148.4" y1="151.2" x2="294.9" y2="151.2"/>
<line class="st3" x1="551.4" y1="147.9" x2="645.4" y2="147.9"/>
<line class="st3" x1="655.9" y1="147.9" x2="732.9" y2="147.9"/>
<line class="st3" x1="744.9" y1="147.9" x2="828.9" y2="147.9"/>
<line class="st3" x1="840.9" y1="146.9" x2="886.4" y2="146.9"/>
<line class="st4" x1="406.9" y1="215.9" x2="660.9" y2="215.9"/>
<line class="st5" x1="361.9" y1="238.9" x2="485.9" y2="238.9"/>
<line class="st5" x1="498.4" y1="239.4" x2="605.4" y2="239.4"/>
<line class="st5" x1="617.9" y1="239.2" x2="689.9" y2="239.2"/>
<line class="st5" x1="336.4" y1="254.3" x2="529.8" y2="254.3"/>
<line class="st5" x1="543.4" y1="254.3" x2="675.5" y2="254.3"/>
<line class="st5" x1="684" y1="255.5" x2="730.5" y2="255.5"/>
<line class="st5" x1="323.4" y1="270.2" x2="422.6" y2="270.2"/>
<line class="st5" x1="435.1" y1="270.8" x2="543.4" y2="270.8"/>
<line class="st5" x1="569.5" y1="270.8" x2="650.5" y2="270.8"/>
<line class="st5" x1="657.3" y1="271.9" x2="720.3" y2="271.9"/>
<line class="st5" x1="361.4" y1="283.8" x2="458.3" y2="283.8"/>
<line class="st5" x1="469.7" y1="283.8" x2="597.2" y2="283.8"/>
<line class="st5" x1="608" y1="285.5" x2="702.7" y2="285.5"/>
<line class="st5" x1="347.8" y1="296.9" x2="479.9" y2="296.9"/>
<line class="st5" x1="493.5" y1="297.4" x2="614.8" y2="297.4"/>
<line class="st5" x1="627.9" y1="298" x2="759.4" y2="298"/>
<g>
	<path class="st0" d="M356.9,409.5c-15.1,0-27.4-12.3-27.4-27.4v-11.5c0-15.1,12.3-27.4,27.4-27.4H740c15.1,0,27.4,12.3,27.4,27.4
		v11.5c0,15.1-12.3,27.4-27.4,27.4H356.9z"/>
	<g>
		<path class="st0" d="M740.1,346.7c13.2,0,23.9,10.7,23.9,23.9v11.5c0,13.2-10.7,23.9-23.9,23.9H356.9c-13.2,0-23.9-10.7-23.9-23.9
			v-11.5c0-13.2,10.7-23.9,23.9-23.9H740.1 M740.1,339.7H356.9c-17.1,0-30.9,13.8-30.9,30.9v11.5c0,17.1,13.8,30.9,30.9,30.9H740
			c17.1,0,30.9-13.8,30.9-30.9v-11.5C771,353.6,757.1,339.7,740.1,339.7L740.1,339.7z"/>
	</g>
</g>
<g>
	<path class="st1" d="M337.6,400.2c-15.7,0-28.4-12.8-28.4-28.4v-11.5c0-15.7,12.8-28.4,28.4-28.4h383.1c15.7,0,28.4,12.8,28.4,28.4
		v11.5c0,15.7-12.8,28.4-28.4,28.4H337.6z"/>
	<path d="M720.8,334.4c14.3,0,25.9,11.6,25.9,25.9v11.5c0,14.3-11.6,25.9-25.9,25.9H337.6c-14.3,0-25.9-11.6-25.9-25.9v-11.5
		c0-14.3,11.6-25.9,25.9-25.9H720.8 M720.8,329.4H337.6c-17.1,0-30.9,13.8-30.9,30.9v11.5c0,17.1,13.8,30.9,30.9,30.9h383.1
		c17.1,0,30.9-13.8,30.9-30.9v-11.5C751.7,343.3,737.8,329.4,720.8,329.4L720.8,329.4z"/>
</g>
<path class="st0" d="M111.5,966.1c0,0,20.9-251.1,90.2-251.1s90.7,252.7,90.7,252.7L111.5,966.1z"/>
<circle class="st0" cx="199.1" cy="690.2" r="74.2"/>
<path class="st6" d="M82.5,950.8c0,0,20.9-251.1,90.2-251.1s90.7,252.7,90.7,252.7L82.5,950.8z"/>
<circle class="st6" cx="170" cy="674.9" r="74.2"/>
<path class="st0" d="M192,1041.1c0,0,20.9-251.1,90.2-251.1s90.7,252.7,90.7,252.7L192,1041.1z"/>
<circle class="st0" cx="279.6" cy="765.2" r="74.2"/>
<path class="st6" d="M162.9,1025.8c0,0,20.9-251.1,90.2-251.1s90.7,252.7,90.7,252.7L162.9,1025.8z"/>
<circle class="st6" cx="250.5" cy="749.9" r="74.2"/>
<path class="st0" d="M368.2,868.7c0,0,13.6-163.1,58.6-163.1s58.9,164.1,58.9,164.1L368.2,868.7z"/>
<circle class="st0" cx="425.1" cy="689.5" r="48.2"/>
<path class="st6" d="M349.3,858.7c0,0,13.6-163.1,58.6-163.1s58.9,164.1,58.9,164.1L349.3,858.7z"/>
<circle class="st6" cx="406.2" cy="679.5" r="48.2"/>
<path class="st0" d="M499.3,977.3c0,0,14.3-172.3,61.9-172.3c47.5,0,62.2,173.3,62.2,173.3L499.3,977.3z"/>
<circle class="st0" cx="559.3" cy="788.1" r="50.9"/>
<path class="st6" d="M479.3,966.8c0,0,14.3-172.3,61.9-172.3c47.5,0,62.2,173.3,62.2,173.3L479.3,966.8z"/>
<circle class="st6" cx="539.4" cy="777.6" r="50.9"/>
<path class="st0" d="M659.7,779.8c0,0,14.3-172.3,61.9-172.3c47.5,0,62.2,173.3,62.2,173.3L659.7,779.8z"/>
<circle class="st0" cx="719.7" cy="590.6" r="50.9"/>
<path class="st6" d="M639.7,769.3c0,0,14.3-172.3,61.9-172.3c47.5,0,62.2,173.3,62.2,173.3L639.7,769.3z"/>
<circle class="st6" cx="699.8" cy="580.1" r="50.9"/>
<path class="st0" d="M827.8,1331.9c0,0,34.8-418.4,150.2-418.4s151.1,420.9,151.1,420.9L827.8,1331.9z"/>
<circle class="st0" cx="973.7" cy="872.4" r="123.5"/>
<path class="st6" d="M779.4,1306.3c0,0,34.8-418.4,150.2-418.4s151.1,420.9,151.1,420.9L779.4,1306.3z"/>
<circle class="st6" cx="925.3" cy="846.8" r="123.5"/>
</svg>
