<?xml version="1.0" encoding="utf-8"?>
<!-- Generator: Adobe Illustrator 26.3.1, SVG Export Plug-In . SVG Version: 6.00 Build 0)  -->
<svg version="1.1" id="Layer_1" xmlns="http://www.w3.org/2000/svg" xmlns:xlink="http://www.w3.org/1999/xlink" x="0px" y="0px"
	 viewBox="0 0 1000 1000" style="enable-background:new 0 0 1000 1000;" xml:space="preserve">
<style type="text/css">
	.st0{fill:#CCCCCC;}
	.st1{fill:#FFFFFF;}
	.st2{fill:none;stroke:#000000;stroke-width:7;stroke-miterlimit:10;}
	.st3{fill:none;stroke:#B3B3B3;stroke-width:3;stroke-miterlimit:10;}
	.st4{fill:#006E54;}
	.st5{fill:#F7F5DD;}
	.st6{font-family:'MontserratAlternates-Black';}
	.st7{font-size:20px;}
</style>
<g>
	<path class="st0" d="M307.7,673.3H110.4c-31.7,0-57.3-25.6-57.3-57.3V146.5c0-31.6,25.7-57.3,57.3-57.3h197.3
		c31.6,0,57.3,25.7,57.3,57.3V616C364.9,647.7,339.3,673.3,307.7,673.3z"/>
</g>
<g>
	<path class="st1" d="M94.7,658.8c-30.5,0-55.3-24.8-55.3-55.3V133.9c0-30.5,24.8-55.3,55.3-55.3H292c30.5,0,55.3,24.8,55.3,55.3
		v469.5c0,30.5-24.8,55.3-55.3,55.3L94.7,658.8L94.7,658.8z"/>
	<path d="M292,80.6c29.4,0,53.3,23.9,53.3,53.3v469.5c0,29.4-23.9,53.3-53.3,53.3H94.7c-29.4,0-53.3-23.9-53.3-53.3V133.9
		c0-29.4,23.9-53.3,53.3-53.3L292,80.6 M292,76.6H94.7c-31.6,0-57.3,25.7-57.3,57.3v469.5c0,31.6,25.7,57.3,57.3,57.3H292
		c31.6,0,57.3-25.7,57.3-57.3V133.9C349.3,102.3,323.6,76.6,292,76.6L292,76.6z"/>
</g>
<g>
	<path class="st0" d="M396.8,510.4V261.5c0-31.6,25.7-57.3,57.3-57.3h469.5c31.6,0,57.3,25.7,57.3,57.3v248.9
		c0,31.6-25.7,57.3-57.3,57.3H454.1C422.4,567.7,396.8,542.1,396.8,510.4z"/>
</g>
<g>
	<path class="st1" d="M434.4,548.5c-30.5,0-55.3-24.8-55.3-55.3V244.3c0-30.5,24.8-55.3,55.3-55.3h469.5c30.5,0,55.3,24.8,55.3,55.3
		v248.9c0,30.5-24.8,55.3-55.3,55.3H434.4z"/>
	<g>
		<path d="M903.9,191c29.4,0,53.3,23.9,53.3,53.3v248.9c0,29.4-23.9,53.3-53.3,53.3H434.4c-29.4,0-53.3-23.9-53.3-53.3V244.3
			c0-29.4,23.9-53.3,53.3-53.3H903.9 M903.9,187H434.4c-31.6,0-57.3,25.7-57.3,57.3v248.9c0,31.6,25.7,57.3,57.3,57.3h469.5
			c31.6,0,57.3-25.7,57.3-57.3V244.3C961.2,212.6,935.6,187,903.9,187L903.9,187z"/>
	</g>
</g>
<line class="st2" x1="67.6" y1="108.9" x2="178.7" y2="108.9"/>
<line class="st3" x1="67.6" y1="157.5" x2="178.7" y2="157.5"/>
<line class="st3" x1="67.6" y1="170.6" x2="156.6" y2="170.6"/>
<line class="st3" x1="214.1" y1="183.7" x2="303.1" y2="183.7"/>
<line class="st3" x1="67.6" y1="183.7" x2="96.2" y2="183.7"/>
<line class="st3" x1="164.7" y1="170.6" x2="308.4" y2="170.6"/>
<line class="st3" x1="69.3" y1="196.8" x2="212.9" y2="196.8"/>
<line class="st2" x1="186.7" y1="108.9" x2="283.1" y2="108.9"/>
<line class="st3" x1="186.7" y1="157.5" x2="283.1" y2="157.5"/>
<line class="st3" x1="108.4" y1="183.7" x2="204.8" y2="183.7"/>
<line class="st3" x1="67.6" y1="137.7" x2="141.1" y2="137.7"/>
<line class="st3" x1="156.6" y1="137.7" x2="230.1" y2="137.7"/>
<line class="st3" x1="67.6" y1="209.8" x2="141.1" y2="209.8"/>
<line class="st3" x1="225.5" y1="196.8" x2="299" y2="196.8"/>
<line class="st3" x1="66.3" y1="393.8" x2="177.4" y2="393.8"/>
<line class="st3" x1="66.3" y1="406.9" x2="155.3" y2="406.9"/>
<line class="st3" x1="212.8" y1="420" x2="301.8" y2="420"/>
<line class="st3" x1="66.3" y1="420" x2="94.9" y2="420"/>
<line class="st3" x1="163.5" y1="406.9" x2="307.1" y2="406.9"/>
<line class="st3" x1="68" y1="433.1" x2="211.6" y2="433.1"/>
<line class="st3" x1="185.4" y1="393.8" x2="281.8" y2="393.8"/>
<line class="st3" x1="107.2" y1="420" x2="203.5" y2="420"/>
<line class="st3" x1="66.3" y1="446.1" x2="139.8" y2="446.1"/>
<line class="st3" x1="224.2" y1="433.1" x2="297.7" y2="433.1"/>
<line class="st3" x1="234.9" y1="137.7" x2="308.4" y2="137.7"/>
<line class="st3" x1="66.3" y1="229.8" x2="177.4" y2="229.8"/>
<line class="st3" x1="66.3" y1="269.4" x2="177.4" y2="269.4"/>
<line class="st3" x1="66.3" y1="282.5" x2="155.3" y2="282.5"/>
<line class="st3" x1="212.8" y1="295.6" x2="301.8" y2="295.6"/>
<line class="st3" x1="66.3" y1="295.6" x2="94.9" y2="295.6"/>
<line class="st3" x1="163.5" y1="282.5" x2="307.1" y2="282.5"/>
<line class="st3" x1="68" y1="308.7" x2="211.6" y2="308.7"/>
<line class="st3" x1="185.4" y1="229.8" x2="281.8" y2="229.8"/>
<line class="st3" x1="185.4" y1="269.4" x2="281.8" y2="269.4"/>
<line class="st3" x1="107.2" y1="295.6" x2="203.5" y2="295.6"/>
<line class="st3" x1="66.3" y1="249.6" x2="139.8" y2="249.6"/>
<line class="st3" x1="155.3" y1="249.6" x2="228.8" y2="249.6"/>
<line class="st3" x1="66.3" y1="321.7" x2="139.8" y2="321.7"/>
<line class="st3" x1="224.2" y1="308.7" x2="297.7" y2="308.7"/>
<line class="st3" x1="233.6" y1="249.6" x2="307.1" y2="249.6"/>
<line class="st3" x1="66.3" y1="334.8" x2="155.3" y2="334.8"/>
<line class="st3" x1="212.8" y1="347.9" x2="301.8" y2="347.9"/>
<line class="st3" x1="66.3" y1="347.9" x2="94.9" y2="347.9"/>
<line class="st3" x1="163.5" y1="334.8" x2="307.1" y2="334.8"/>
<line class="st3" x1="68" y1="361" x2="211.6" y2="361"/>
<line class="st3" x1="107.2" y1="347.9" x2="203.5" y2="347.9"/>
<line class="st3" x1="66.3" y1="374" x2="139.8" y2="374"/>
<line class="st3" x1="224.2" y1="361" x2="297.7" y2="361"/>
<line class="st3" x1="66.3" y1="479" x2="177.4" y2="479"/>
<line class="st3" x1="66.3" y1="492.1" x2="155.3" y2="492.1"/>
<line class="st3" x1="212.8" y1="505.2" x2="301.8" y2="505.2"/>
<line class="st3" x1="66.3" y1="505.2" x2="94.9" y2="505.2"/>
<line class="st3" x1="163.5" y1="492.1" x2="307.1" y2="492.1"/>
<line class="st3" x1="68" y1="518.3" x2="211.6" y2="518.3"/>
<line class="st3" x1="185.4" y1="479" x2="281.8" y2="479"/>
<line class="st3" x1="107.2" y1="505.2" x2="203.5" y2="505.2"/>
<line class="st3" x1="66.3" y1="459.2" x2="139.8" y2="459.2"/>
<line class="st3" x1="155.3" y1="459.2" x2="228.8" y2="459.2"/>
<line class="st3" x1="66.3" y1="531.3" x2="139.8" y2="531.3"/>
<line class="st3" x1="224.2" y1="518.3" x2="297.7" y2="518.3"/>
<line class="st3" x1="233.6" y1="459.2" x2="307.1" y2="459.2"/>
<line class="st3" x1="66.3" y1="544.4" x2="155.3" y2="544.4"/>
<line class="st3" x1="212.8" y1="557.5" x2="301.8" y2="557.5"/>
<line class="st3" x1="66.3" y1="557.5" x2="94.9" y2="557.5"/>
<line class="st3" x1="163.5" y1="544.4" x2="307.1" y2="544.4"/>
<line class="st3" x1="68" y1="570.6" x2="211.6" y2="570.6"/>
<line class="st3" x1="107.2" y1="557.5" x2="203.5" y2="557.5"/>
<line class="st3" x1="66.3" y1="583.6" x2="139.8" y2="583.6"/>
<line class="st3" x1="224.2" y1="570.6" x2="297.7" y2="570.6"/>
<line class="st2" x1="423.8" y1="216.8" x2="525.5" y2="216.8"/>
<line class="st2" x1="538.1" y1="216.8" x2="593.6" y2="216.8"/>
<line class="st2" x1="608.4" y1="215.8" x2="720.4" y2="215.8"/>
<line class="st3" x1="409.9" y1="249.6" x2="458.4" y2="249.6"/>
<line class="st3" x1="474.6" y1="249.6" x2="515.1" y2="249.6"/>
<line class="st3" x1="530.1" y1="249.6" x2="572.8" y2="249.6"/>
<line class="st3" x1="592.5" y1="249.6" x2="645.6" y2="249.6"/>
<line class="st3" x1="663" y1="249.6" x2="764.6" y2="249.6"/>
<line class="st3" x1="409.9" y1="269.4" x2="494.8" y2="269.4"/>
<line class="st3" x1="515.1" y1="269.4" x2="556.7" y2="269.4"/>
<line class="st3" x1="572.8" y1="269.4" x2="613.3" y2="269.4"/>
<line class="st3" x1="626" y1="269.4" x2="733.4" y2="269.4"/>
<line class="st3" x1="748.5" y1="269.4" x2="790.1" y2="269.4"/>
<line class="st3" x1="409.9" y1="282.5" x2="438.8" y2="282.5"/>
<line class="st3" x1="452.4" y1="282.5" x2="515.1" y2="282.5"/>
<line class="st3" x1="530.1" y1="282.5" x2="600.6" y2="282.5"/>
<line class="st3" x1="613.3" y1="282.5" x2="689.5" y2="282.5"/>
<line class="st3" x1="702.2" y1="282.5" x2="769.3" y2="282.5"/>
<line class="st3" x1="409.9" y1="295.6" x2="445.7" y2="295.6"/>
<line class="st3" x1="458.4" y1="295.6" x2="565.3" y2="295.6"/>
<line class="st3" x1="577.5" y1="295.6" x2="613.3" y2="295.6"/>
<line class="st3" x1="626" y1="295.6" x2="658.3" y2="295.6"/>
<line class="st3" x1="669.2" y1="295.6" x2="773.9" y2="295.6"/>
<line class="st3" x1="409.9" y1="308.7" x2="424.4" y2="308.7"/>
<line class="st3" x1="434.2" y1="308.7" x2="498.9" y2="308.7"/>
<line class="st3" x1="515.1" y1="308.7" x2="600.6" y2="308.7"/>
<line class="st3" x1="613.3" y1="308.7" x2="645.6" y2="308.7"/>
<line class="st3" x1="658.3" y1="308.7" x2="702.2" y2="308.7"/>
<line class="st3" x1="721.5" y1="308.7" x2="785.4" y2="308.7"/>
<line class="st3" x1="409.9" y1="321.7" x2="483.7" y2="321.7"/>
<line class="st3" x1="494.8" y1="321.7" x2="535.9" y2="321.7"/>
<line class="st3" x1="551.5" y1="321.7" x2="651.4" y2="321.7"/>
<line class="st3" x1="669.2" y1="321.7" x2="754.2" y2="321.7"/>
<line class="st3" x1="773.9" y1="321.7" x2="803.9" y2="321.7"/>
<line class="st3" x1="409.9" y1="334.8" x2="452.4" y2="334.8"/>
<line class="st3" x1="466.5" y1="334.8" x2="508.7" y2="334.8"/>
<line class="st3" x1="525.5" y1="334.8" x2="619.1" y2="334.8"/>
<line class="st3" x1="636.4" y1="334.8" x2="713.8" y2="334.8"/>
<line class="st3" x1="726.5" y1="334.8" x2="795.8" y2="334.8"/>
<line class="st3" x1="810.9" y1="334.8" x2="881.3" y2="334.8"/>
<line class="st3" x1="894.1" y1="334.8" x2="924.1" y2="334.8"/>
<line class="st3" x1="409.9" y1="347.9" x2="466.5" y2="347.9"/>
<line class="st3" x1="483.7" y1="347.9" x2="587.9" y2="347.9"/>
<line class="st3" x1="600.6" y1="347.9" x2="702.2" y2="347.9"/>
<line class="st3" x1="721.5" y1="347.9" x2="830.5" y2="347.9"/>
<line class="st3" x1="846.1" y1="347.9" x2="870.9" y2="347.9"/>
<line class="st3" x1="409.9" y1="361" x2="530.1" y2="361"/>
<line class="st3" x1="545.1" y1="361" x2="577.5" y2="361"/>
<line class="st3" x1="600.6" y1="361" x2="636.4" y2="361"/>
<line class="st3" x1="651.4" y1="361" x2="711.7" y2="361"/>
<line class="st3" x1="726.5" y1="361" x2="830.5" y2="361"/>
<line class="st3" x1="846.1" y1="361" x2="931" y2="361"/>
<line class="st3" x1="409.9" y1="374" x2="452.4" y2="374"/>
<line class="st3" x1="470" y1="374" x2="494.8" y2="374"/>
<line class="st3" x1="515.1" y1="374" x2="582.1" y2="374"/>
<line class="st3" x1="601.4" y1="374" x2="675.1" y2="374"/>
<line class="st3" x1="695.3" y1="374" x2="748.5" y2="374"/>
<line class="st3" x1="773.9" y1="374" x2="851.3" y2="374"/>
<line class="st3" x1="869.6" y1="374" x2="907.5" y2="374"/>
<line class="st3" x1="408.6" y1="386.1" x2="482.4" y2="386.1"/>
<line class="st3" x1="493.5" y1="386.1" x2="534.6" y2="386.1"/>
<line class="st3" x1="550.2" y1="386.1" x2="650.1" y2="386.1"/>
<line class="st3" x1="667.9" y1="386.1" x2="752.9" y2="386.1"/>
<line class="st3" x1="772.6" y1="386.1" x2="802.6" y2="386.1"/>
<line class="st3" x1="408.6" y1="399.2" x2="451.1" y2="399.2"/>
<line class="st3" x1="465.2" y1="399.2" x2="507.4" y2="399.2"/>
<line class="st3" x1="524.2" y1="399.2" x2="617.8" y2="399.2"/>
<line class="st3" x1="635.1" y1="399.2" x2="712.5" y2="399.2"/>
<line class="st3" x1="725.2" y1="399.2" x2="794.5" y2="399.2"/>
<line class="st3" x1="809.6" y1="399.2" x2="880" y2="399.2"/>
<line class="st3" x1="408.6" y1="412.2" x2="465.2" y2="412.2"/>
<line class="st3" x1="482.4" y1="412.2" x2="586.6" y2="412.2"/>
<line class="st3" x1="599.3" y1="412.2" x2="700.9" y2="412.2"/>
<line class="st3" x1="720.2" y1="412.2" x2="829.2" y2="412.2"/>
<line class="st3" x1="844.8" y1="412.2" x2="869.6" y2="412.2"/>
<line class="st3" x1="408.6" y1="425.3" x2="528.8" y2="425.3"/>
<line class="st3" x1="543.8" y1="425.3" x2="576.2" y2="425.3"/>
<line class="st3" x1="599.3" y1="425.3" x2="635.1" y2="425.3"/>
<line class="st3" x1="650.1" y1="425.3" x2="710.4" y2="425.3"/>
<line class="st3" x1="725.2" y1="425.3" x2="829.2" y2="425.3"/>
<line class="st3" x1="844.8" y1="425.3" x2="929.7" y2="425.3"/>
<line class="st3" x1="408.6" y1="438.4" x2="451.1" y2="438.4"/>
<line class="st3" x1="468.7" y1="438.4" x2="493.5" y2="438.4"/>
<line class="st3" x1="513.8" y1="438.4" x2="580.8" y2="438.4"/>
<line class="st3" x1="600.1" y1="438.4" x2="673.8" y2="438.4"/>
<line class="st3" x1="694" y1="438.4" x2="747.2" y2="438.4"/>
<line class="st3" x1="772.6" y1="438.4" x2="850" y2="438.4"/>
<line class="st3" x1="868.3" y1="438.4" x2="906.2" y2="438.4"/>
<line class="st3" x1="409.3" y1="451.5" x2="529.4" y2="451.5"/>
<line class="st3" x1="544.5" y1="451.5" x2="576.8" y2="451.5"/>
<line class="st3" x1="599.9" y1="451.5" x2="635.7" y2="451.5"/>
<line class="st3" x1="650.8" y1="451.5" x2="711.1" y2="451.5"/>
<line class="st3" x1="725.9" y1="451.5" x2="829.9" y2="451.5"/>
<line class="st3" x1="845.5" y1="451.5" x2="930.4" y2="451.5"/>
<line class="st3" x1="409.3" y1="464.5" x2="451.7" y2="464.5"/>
<line class="st3" x1="469.3" y1="464.5" x2="494.2" y2="464.5"/>
<line class="st3" x1="514.4" y1="464.5" x2="581.4" y2="464.5"/>
<line class="st3" x1="600.8" y1="464.5" x2="674.4" y2="464.5"/>
<line class="st3" x1="694.7" y1="464.5" x2="747.8" y2="464.5"/>
<line class="st3" x1="773.2" y1="464.5" x2="850.7" y2="464.5"/>
<line class="st3" x1="869" y1="464.5" x2="906.8" y2="464.5"/>
<line class="st3" x1="408" y1="476.6" x2="481.8" y2="476.6"/>
<line class="st3" x1="492.9" y1="476.6" x2="533.9" y2="476.6"/>
<line class="st3" x1="549.5" y1="476.6" x2="649.5" y2="476.6"/>
<line class="st3" x1="667.2" y1="476.6" x2="752.3" y2="476.6"/>
<line class="st3" x1="771.9" y1="476.6" x2="802" y2="476.6"/>
<line class="st3" x1="408" y1="489.7" x2="450.4" y2="489.7"/>
<line class="st3" x1="464.6" y1="489.7" x2="506.7" y2="489.7"/>
<line class="st3" x1="523.5" y1="489.7" x2="617.1" y2="489.7"/>
<line class="st3" x1="634.4" y1="489.7" x2="711.8" y2="489.7"/>
<line class="st3" x1="408" y1="502.7" x2="464.6" y2="502.7"/>
<line class="st3" x1="481.8" y1="502.7" x2="585.9" y2="502.7"/>
<line class="st3" x1="598.6" y1="502.7" x2="700.3" y2="502.7"/>
<path class="st4" d="M906.5,529.5h-152c-7.2,0-12.9-5.8-12.9-12.9v-10.4c0-7.2,5.8-12.9,12.9-12.9h152c7.2,0,12.9,5.8,12.9,12.9
	v10.4C919.5,523.7,913.7,529.5,906.5,529.5z"/>
<text transform="matrix(1 0 0 1 782.1979 517.9382)" class="st5 st6 st7">ODESLAT</text>
<path class="st4" d="M312.6,641h-152c-7.2,0-12.9-5.8-12.9-12.9v-10.4c0-7.2,5.8-12.9,12.9-12.9h152c7.2,0,12.9,5.8,12.9,12.9v10.4
	C325.5,635.2,319.7,641,312.6,641z"/>
<text transform="matrix(1 0 0 1 188.2432 629.5109)" class="st5 st6 st7">ODESLAT</text>
</svg>
