<?xml version="1.0" encoding="utf-8"?>
<!-- Generator: Adobe Illustrator 26.3.1, SVG Export Plug-In . SVG Version: 6.00 Build 0)  -->
<svg version="1.1" id="Layer_1" xmlns="http://www.w3.org/2000/svg" xmlns:xlink="http://www.w3.org/1999/xlink" x="0px" y="0px"
	 viewBox="0 0 1000 1000" style="enable-background:new 0 0 1000 1000;" xml:space="preserve">
<style type="text/css">
	.st0{fill:#CCCCCC;}
	.st1{fill:#FFFFFF;}
	.st2{fill:none;stroke:#000000;stroke-width:7;stroke-miterlimit:10;}
	.st3{fill:none;stroke:#B3B3B3;stroke-width:3;stroke-miterlimit:10;}
	.st4{fill:#006E54;}
	.st5{fill:#F7F5DD;}
	.st6{font-family:'MontserratAlternates-Black';}
	.st7{font-size:17.8874px;}
</style>
<g>
	<path class="st0" d="M322.9,674.4H146.4c-28.4,0-51.2-22.9-51.2-51.2V203.3c0-28.3,23-51.2,51.2-51.2h176.5
		c28.3,0,51.2,23,51.2,51.2v419.9C374,651.5,351.1,674.4,322.9,674.4z"/>
</g>
<g>
	<path class="st1" d="M132.4,661.5c-27.3,0-49.5-22.2-49.5-49.5V192c0-27.3,22.2-49.5,49.5-49.5h176.5c27.3,0,49.5,22.2,49.5,49.5
		v419.9c0,27.3-22.2,49.5-49.5,49.5L132.4,661.5L132.4,661.5z"/>
	<path d="M308.8,144.3c26.3,0,47.7,21.4,47.7,47.7v419.9c0,26.3-21.4,47.7-47.7,47.7H132.4c-26.3,0-47.7-21.4-47.7-47.7V192
		c0-26.3,21.4-47.7,47.7-47.7H308.8 M308.8,140.8H132.4c-28.3,0-51.2,23-51.2,51.2v419.9c0,28.3,23,51.2,51.2,51.2h176.5
		c28.3,0,51.2-23,51.2-51.2V192C360.1,163.7,337.1,140.8,308.8,140.8L308.8,140.8z"/>
</g>
<g>
	<path class="st0" d="M407.8,747.4V524.8c0-28.3,23-51.2,51.2-51.2H879c28.3,0,51.2,23,51.2,51.2v222.6c0,28.3-23,51.2-51.2,51.2
		H459.1C430.7,798.6,407.8,775.7,407.8,747.4z"/>
</g>
<g>
	<path class="st1" d="M441.4,781.5c-27.3,0-49.5-22.2-49.5-49.5V509.4c0-27.3,22.2-49.5,49.5-49.5h419.9c27.3,0,49.5,22.2,49.5,49.5
		V732c0,27.3-22.2,49.5-49.5,49.5H441.4z"/>
	<g>
		<path d="M861.4,461.7c26.3,0,47.7,21.4,47.7,47.7V732c0,26.3-21.4,47.7-47.7,47.7H441.4c-26.3,0-47.7-21.4-47.7-47.7V509.4
			c0-26.3,21.4-47.7,47.7-47.7H861.4 M861.4,458.2H441.4c-28.3,0-51.2,23-51.2,51.2V732c0,28.3,23,51.2,51.2,51.2h419.9
			c28.3,0,51.2-23,51.2-51.2V509.4C912.6,481.1,889.7,458.2,861.4,458.2L861.4,458.2z"/>
	</g>
</g>
<line class="st2" x1="108.1" y1="169.6" x2="207.5" y2="169.6"/>
<line class="st3" x1="108.1" y1="213.1" x2="207.5" y2="213.1"/>
<line class="st3" x1="108.1" y1="224.8" x2="187.7" y2="224.8"/>
<line class="st3" x1="239.2" y1="236.5" x2="318.8" y2="236.5"/>
<line class="st3" x1="108.1" y1="236.5" x2="133.7" y2="236.5"/>
<line class="st3" x1="195" y1="224.8" x2="323.5" y2="224.8"/>
<line class="st3" x1="109.7" y1="248.3" x2="238.1" y2="248.3"/>
<line class="st2" x1="214.7" y1="169.6" x2="300.9" y2="169.6"/>
<line class="st3" x1="214.7" y1="213.1" x2="300.9" y2="213.1"/>
<line class="st3" x1="144.6" y1="236.5" x2="230.8" y2="236.5"/>
<line class="st3" x1="108.1" y1="195.4" x2="173.9" y2="195.4"/>
<line class="st3" x1="187.7" y1="195.4" x2="253.5" y2="195.4"/>
<line class="st3" x1="108.1" y1="259.9" x2="173.9" y2="259.9"/>
<line class="st3" x1="249.4" y1="248.3" x2="315.1" y2="248.3"/>
<line class="st3" x1="107" y1="424.5" x2="206.3" y2="424.5"/>
<line class="st3" x1="107" y1="436.2" x2="186.6" y2="436.2"/>
<line class="st3" x1="238" y1="447.9" x2="317.6" y2="447.9"/>
<line class="st3" x1="107" y1="447.9" x2="132.6" y2="447.9"/>
<line class="st3" x1="193.9" y1="436.2" x2="322.3" y2="436.2"/>
<line class="st3" x1="108.5" y1="459.6" x2="236.9" y2="459.6"/>
<line class="st3" x1="213.5" y1="424.5" x2="299.7" y2="424.5"/>
<line class="st3" x1="143.6" y1="447.9" x2="229.7" y2="447.9"/>
<line class="st3" x1="107" y1="471.2" x2="172.7" y2="471.2"/>
<line class="st3" x1="248.2" y1="459.6" x2="313.9" y2="459.6"/>
<line class="st3" x1="257.8" y1="195.4" x2="323.5" y2="195.4"/>
<line class="st3" x1="107" y1="277.8" x2="206.3" y2="277.8"/>
<line class="st3" x1="107" y1="313.2" x2="206.3" y2="313.2"/>
<line class="st3" x1="107" y1="324.9" x2="186.6" y2="324.9"/>
<line class="st3" x1="238" y1="336.6" x2="317.6" y2="336.6"/>
<line class="st3" x1="107" y1="336.6" x2="132.6" y2="336.6"/>
<line class="st3" x1="193.9" y1="324.9" x2="322.3" y2="324.9"/>
<line class="st3" x1="108.5" y1="348.3" x2="236.9" y2="348.3"/>
<line class="st3" x1="213.5" y1="277.8" x2="299.7" y2="277.8"/>
<line class="st3" x1="213.5" y1="313.2" x2="299.7" y2="313.2"/>
<line class="st3" x1="143.6" y1="336.6" x2="229.7" y2="336.6"/>
<line class="st3" x1="107" y1="295.5" x2="172.7" y2="295.5"/>
<line class="st3" x1="186.6" y1="295.5" x2="252.3" y2="295.5"/>
<line class="st3" x1="107" y1="360" x2="172.7" y2="360"/>
<line class="st3" x1="248.2" y1="348.3" x2="313.9" y2="348.3"/>
<line class="st3" x1="256.6" y1="295.5" x2="322.3" y2="295.5"/>
<line class="st3" x1="107" y1="371.7" x2="186.6" y2="371.7"/>
<line class="st3" x1="238" y1="383.4" x2="317.6" y2="383.4"/>
<line class="st3" x1="107" y1="383.4" x2="132.6" y2="383.4"/>
<line class="st3" x1="193.9" y1="371.7" x2="322.3" y2="371.7"/>
<line class="st3" x1="108.5" y1="395.1" x2="236.9" y2="395.1"/>
<line class="st3" x1="143.6" y1="383.4" x2="229.7" y2="383.4"/>
<line class="st3" x1="107" y1="406.7" x2="172.7" y2="406.7"/>
<line class="st3" x1="248.2" y1="395.1" x2="313.9" y2="395.1"/>
<line class="st3" x1="107" y1="500.7" x2="206.3" y2="500.7"/>
<line class="st3" x1="107" y1="512.4" x2="186.6" y2="512.4"/>
<line class="st3" x1="238" y1="524.1" x2="317.6" y2="524.1"/>
<line class="st3" x1="107" y1="524.1" x2="132.6" y2="524.1"/>
<line class="st3" x1="193.9" y1="512.4" x2="322.3" y2="512.4"/>
<line class="st3" x1="108.5" y1="535.8" x2="236.9" y2="535.8"/>
<line class="st3" x1="213.5" y1="500.7" x2="299.7" y2="500.7"/>
<line class="st3" x1="143.6" y1="524.1" x2="229.7" y2="524.1"/>
<line class="st3" x1="107" y1="482.9" x2="172.7" y2="482.9"/>
<line class="st3" x1="186.6" y1="482.9" x2="252.3" y2="482.9"/>
<line class="st3" x1="107" y1="547.4" x2="172.7" y2="547.4"/>
<line class="st3" x1="248.2" y1="535.8" x2="313.9" y2="535.8"/>
<line class="st3" x1="256.6" y1="482.9" x2="322.3" y2="482.9"/>
<line class="st3" x1="107" y1="559.1" x2="186.6" y2="559.1"/>
<line class="st3" x1="238" y1="570.9" x2="317.6" y2="570.9"/>
<line class="st3" x1="107" y1="570.9" x2="132.6" y2="570.9"/>
<line class="st3" x1="193.9" y1="559.1" x2="322.3" y2="559.1"/>
<line class="st3" x1="108.5" y1="582.6" x2="236.9" y2="582.6"/>
<line class="st3" x1="143.6" y1="570.9" x2="229.7" y2="570.9"/>
<line class="st3" x1="107" y1="594.2" x2="172.7" y2="594.2"/>
<line class="st3" x1="248.2" y1="582.6" x2="313.9" y2="582.6"/>
<line class="st2" x1="432" y1="484.8" x2="522.9" y2="484.8"/>
<line class="st2" x1="534.2" y1="484.8" x2="583.8" y2="484.8"/>
<line class="st2" x1="597.1" y1="483.9" x2="697.2" y2="483.9"/>
<line class="st3" x1="419.5" y1="514.1" x2="462.9" y2="514.1"/>
<line class="st3" x1="477.4" y1="514.1" x2="513.6" y2="514.1"/>
<line class="st3" x1="527" y1="514.1" x2="565.2" y2="514.1"/>
<line class="st3" x1="582.8" y1="514.1" x2="630.3" y2="514.1"/>
<line class="st3" x1="645.9" y1="514.1" x2="736.8" y2="514.1"/>
<line class="st3" x1="419.5" y1="531.9" x2="495.5" y2="531.9"/>
<line class="st3" x1="513.6" y1="531.9" x2="550.8" y2="531.9"/>
<line class="st3" x1="565.2" y1="531.9" x2="601.4" y2="531.9"/>
<line class="st3" x1="612.8" y1="531.9" x2="708.9" y2="531.9"/>
<line class="st3" x1="722.4" y1="531.9" x2="759.6" y2="531.9"/>
<line class="st3" x1="419.5" y1="543.6" x2="445.4" y2="543.6"/>
<line class="st3" x1="457.5" y1="543.6" x2="513.6" y2="543.6"/>
<line class="st3" x1="527" y1="543.6" x2="590.1" y2="543.6"/>
<line class="st3" x1="601.4" y1="543.6" x2="669.6" y2="543.6"/>
<line class="st3" x1="681" y1="543.6" x2="741" y2="543.6"/>
<line class="st3" x1="419.5" y1="555.3" x2="451.5" y2="555.3"/>
<line class="st3" x1="462.9" y1="555.3" x2="558.5" y2="555.3"/>
<line class="st3" x1="569.4" y1="555.3" x2="601.4" y2="555.3"/>
<line class="st3" x1="612.8" y1="555.3" x2="641.7" y2="555.3"/>
<line class="st3" x1="651.4" y1="555.3" x2="745.1" y2="555.3"/>
<line class="st3" x1="419.5" y1="567" x2="432.5" y2="567"/>
<line class="st3" x1="441.3" y1="567" x2="499.1" y2="567"/>
<line class="st3" x1="513.6" y1="567" x2="590.1" y2="567"/>
<line class="st3" x1="601.4" y1="567" x2="630.3" y2="567"/>
<line class="st3" x1="641.7" y1="567" x2="681" y2="567"/>
<line class="st3" x1="698.2" y1="567" x2="755.4" y2="567"/>
<line class="st3" x1="419.5" y1="578.6" x2="485.5" y2="578.6"/>
<line class="st3" x1="495.5" y1="578.6" x2="532.2" y2="578.6"/>
<line class="st3" x1="546.2" y1="578.6" x2="635.5" y2="578.6"/>
<line class="st3" x1="651.4" y1="578.6" x2="727.5" y2="578.6"/>
<line class="st3" x1="745.1" y1="578.6" x2="771.9" y2="578.6"/>
<line class="st3" x1="419.5" y1="590.3" x2="457.5" y2="590.3"/>
<line class="st3" x1="470.2" y1="590.3" x2="507.9" y2="590.3"/>
<line class="st3" x1="522.9" y1="590.3" x2="606.6" y2="590.3"/>
<line class="st3" x1="622.1" y1="590.3" x2="691.3" y2="590.3"/>
<line class="st3" x1="702.7" y1="590.3" x2="764.7" y2="590.3"/>
<line class="st3" x1="778.2" y1="590.3" x2="841.1" y2="590.3"/>
<line class="st3" x1="852.6" y1="590.3" x2="879.4" y2="590.3"/>
<line class="st3" x1="419.5" y1="602.1" x2="470.2" y2="602.1"/>
<line class="st3" x1="485.5" y1="602.1" x2="578.7" y2="602.1"/>
<line class="st3" x1="590.1" y1="602.1" x2="681" y2="602.1"/>
<line class="st3" x1="698.2" y1="602.1" x2="795.7" y2="602.1"/>
<line class="st3" x1="809.7" y1="602.1" x2="831.8" y2="602.1"/>
<line class="st3" x1="419.5" y1="613.8" x2="527" y2="613.8"/>
<line class="st3" x1="540.4" y1="613.8" x2="569.4" y2="613.8"/>
<line class="st3" x1="590.1" y1="613.8" x2="622.1" y2="613.8"/>
<line class="st3" x1="635.5" y1="613.8" x2="689.5" y2="613.8"/>
<line class="st3" x1="702.7" y1="613.8" x2="795.7" y2="613.8"/>
<line class="st3" x1="809.7" y1="613.8" x2="885.6" y2="613.8"/>
<line class="st3" x1="419.5" y1="625.4" x2="457.5" y2="625.4"/>
<line class="st3" x1="473.3" y1="625.4" x2="495.5" y2="625.4"/>
<line class="st3" x1="513.6" y1="625.4" x2="573.5" y2="625.4"/>
<line class="st3" x1="590.8" y1="625.4" x2="656.7" y2="625.4"/>
<line class="st3" x1="674.8" y1="625.4" x2="722.4" y2="625.4"/>
<line class="st3" x1="745.1" y1="625.4" x2="814.3" y2="625.4"/>
<line class="st3" x1="830.7" y1="625.4" x2="864.6" y2="625.4"/>
<line class="st3" x1="418.4" y1="636.2" x2="484.4" y2="636.2"/>
<line class="st3" x1="494.3" y1="636.2" x2="531.1" y2="636.2"/>
<line class="st3" x1="545" y1="636.2" x2="634.4" y2="636.2"/>
<line class="st3" x1="650.3" y1="636.2" x2="726.3" y2="636.2"/>
<line class="st3" x1="743.9" y1="636.2" x2="770.8" y2="636.2"/>
<line class="st3" x1="418.4" y1="647.9" x2="456.4" y2="647.9"/>
<line class="st3" x1="469" y1="647.9" x2="506.7" y2="647.9"/>
<line class="st3" x1="521.8" y1="647.9" x2="605.5" y2="647.9"/>
<line class="st3" x1="620.9" y1="647.9" x2="690.2" y2="647.9"/>
<line class="st3" x1="701.5" y1="647.9" x2="763.5" y2="647.9"/>
<line class="st3" x1="777" y1="647.9" x2="840" y2="647.9"/>
<line class="st3" x1="418.4" y1="659.6" x2="469" y2="659.6"/>
<line class="st3" x1="484.4" y1="659.6" x2="577.6" y2="659.6"/>
<line class="st3" x1="588.9" y1="659.6" x2="679.8" y2="659.6"/>
<line class="st3" x1="697.1" y1="659.6" x2="794.5" y2="659.6"/>
<line class="st3" x1="808.5" y1="659.6" x2="830.7" y2="659.6"/>
<line class="st3" x1="418.4" y1="671.3" x2="525.9" y2="671.3"/>
<line class="st3" x1="539.3" y1="671.3" x2="568.3" y2="671.3"/>
<line class="st3" x1="588.9" y1="671.3" x2="620.9" y2="671.3"/>
<line class="st3" x1="634.4" y1="671.3" x2="688.3" y2="671.3"/>
<line class="st3" x1="701.5" y1="671.3" x2="794.5" y2="671.3"/>
<line class="st3" x1="808.5" y1="671.3" x2="884.4" y2="671.3"/>
<line class="st3" x1="418.4" y1="683" x2="456.4" y2="683"/>
<line class="st3" x1="472.1" y1="683" x2="494.3" y2="683"/>
<line class="st3" x1="512.5" y1="683" x2="572.4" y2="683"/>
<line class="st3" x1="589.6" y1="683" x2="655.6" y2="683"/>
<line class="st3" x1="673.6" y1="683" x2="721.2" y2="683"/>
<line class="st3" x1="743.9" y1="683" x2="813.1" y2="683"/>
<line class="st3" x1="829.5" y1="683" x2="863.4" y2="683"/>
<line class="st3" x1="419" y1="694.7" x2="526.4" y2="694.7"/>
<line class="st3" x1="539.9" y1="694.7" x2="568.8" y2="694.7"/>
<line class="st3" x1="589.5" y1="694.7" x2="621.5" y2="694.7"/>
<line class="st3" x1="635" y1="694.7" x2="688.9" y2="694.7"/>
<line class="st3" x1="702.2" y1="694.7" x2="795.2" y2="694.7"/>
<line class="st3" x1="809.1" y1="694.7" x2="885.1" y2="694.7"/>
<line class="st3" x1="419" y1="706.3" x2="456.9" y2="706.3"/>
<line class="st3" x1="472.7" y1="706.3" x2="494.9" y2="706.3"/>
<line class="st3" x1="513" y1="706.3" x2="572.9" y2="706.3"/>
<line class="st3" x1="590.3" y1="706.3" x2="656.1" y2="706.3"/>
<line class="st3" x1="674.2" y1="706.3" x2="721.7" y2="706.3"/>
<line class="st3" x1="744.5" y1="706.3" x2="813.8" y2="706.3"/>
<line class="st3" x1="830.1" y1="706.3" x2="863.9" y2="706.3"/>
<line class="st3" x1="417.8" y1="717.2" x2="483.8" y2="717.2"/>
<line class="st3" x1="493.8" y1="717.2" x2="530.4" y2="717.2"/>
<line class="st3" x1="544.4" y1="717.2" x2="633.8" y2="717.2"/>
<line class="st3" x1="649.7" y1="717.2" x2="725.8" y2="717.2"/>
<line class="st3" x1="743.3" y1="717.2" x2="770.2" y2="717.2"/>
<line class="st3" x1="417.8" y1="728.9" x2="455.8" y2="728.9"/>
<line class="st3" x1="468.5" y1="728.9" x2="506.1" y2="728.9"/>
<line class="st3" x1="521.1" y1="728.9" x2="604.8" y2="728.9"/>
<line class="st3" x1="620.3" y1="728.9" x2="689.5" y2="728.9"/>
<line class="st3" x1="417.8" y1="740.5" x2="468.5" y2="740.5"/>
<line class="st3" x1="483.8" y1="740.5" x2="576.9" y2="740.5"/>
<line class="st3" x1="588.3" y1="740.5" x2="679.3" y2="740.5"/>
<path class="st4" d="M863.7,764.5H727.7c-6.4,0-11.5-5.2-11.5-11.5v-9.3c0-6.4,5.2-11.5,11.5-11.5h135.9c6.4,0,11.5,5.2,11.5,11.5
	v9.3C875.3,759.3,870.1,764.5,863.7,764.5z"/>
<text transform="matrix(1 0 0 1 752.5043 754.1376)" class="st5 st6 st7">ODESLAT</text>
<path class="st4" d="M327.3,645.5H191.3c-6.4,0-11.5-5.2-11.5-11.5v-9.3c0-6.4,5.2-11.5,11.5-11.5h135.9c6.4,0,11.5,5.2,11.5,11.5
	v9.3C338.8,640.4,333.6,645.5,327.3,645.5z"/>
<text transform="matrix(1 0 0 1 216.0341 635.2646)" class="st5 st6 st7">ODESLAT</text>
</svg>
