<?xml version="1.0" encoding="utf-8"?>
<!-- Generator: Adobe Illustrator 26.3.1, SVG Export Plug-In . SVG Version: 6.00 Build 0)  -->
<svg version="1.1" id="Layer_1" xmlns="http://www.w3.org/2000/svg" xmlns:xlink="http://www.w3.org/1999/xlink" x="0px" y="0px"
	 viewBox="0 0 1000 1000" style="enable-background:new 0 0 1000 1000;" xml:space="preserve">
<style type="text/css">
	.st0{fill:#736357;}
	.st1{fill:#CCCCCC;}
	.st2{fill:#FFFFFF;stroke:#000000;stroke-width:4;stroke-miterlimit:10;}
	.st3{fill:#E6E6E6;}
	.st4{fill:#808080;}
	.st5{fill:#666666;}
	.st6{fill:none;stroke:#006E54;stroke-width:6;stroke-miterlimit:10;}
	.st7{fill:none;stroke:#CCCCCC;stroke-width:2;stroke-miterlimit:10;}
	.st8{fill:none;stroke:#999999;stroke-width:4;stroke-miterlimit:10;}
	.st9{fill:none;stroke:#720027;stroke-width:6;stroke-miterlimit:10;}
	.st10{fill:none;stroke:#4D4D4D;stroke-width:2;stroke-miterlimit:10;}
	.st11{font-family:'MontserratAlternates-Black';}
	.st12{font-size:25px;}
</style>
<path class="st0" d="M843.7,175.1c37.1,0,67.3,30.2,67.3,67.3v332.7c0,37.1-30.2,67.3-67.3,67.3H154.5c-37.1,0-67.3-30.2-67.3-67.3
	V242.5c0-37.1,30.2-67.3,67.3-67.3h689.2 M843.7,174.1H154.5c-37.7,0-68.3,30.6-68.3,68.3v332.7c0,37.7,30.6,68.3,68.3,68.3h689.1
	c37.7,0,68.3-30.6,68.3-68.3V242.5C912,204.7,881.4,174.1,843.7,174.1L843.7,174.1z"/>
<path class="st1" d="M872.6,664h-681c-39.7,0-71.8-32.2-71.8-71.8V267.5c0-39.7,32.2-71.8,71.8-71.8h681c39.7,0,71.8,32.2,71.8,71.8
	v324.6C944.5,631.8,912.3,664,872.6,664z"/>
<path class="st2" d="M839.6,642.9h-681c-39.7,0-71.8-32.2-71.8-71.8V246.5c0-39.7,32.2-71.8,71.8-71.8h681
	c39.7,0,71.8,32.2,71.8,71.8v324.6C911.5,610.7,879.3,642.9,839.6,642.9z"/>
<g>
	<path class="st3" d="M151.9,230.5c-9.1,0-16.4-7.4-16.4-16.4v-7.7c0-9.1,7.4-16.4,16.4-16.4H677c9.1,0,16.4,7.4,16.4,16.4v7.7
		c0,9.1-7.4,16.4-16.4,16.4H151.9z"/>
	<path d="M677,190.5c8.8,0,15.9,7.1,15.9,15.9v7.7c0,8.8-7.1,15.9-15.9,15.9H151.9c-8.8,0-15.9-7.1-15.9-15.9v-7.7
		c0-8.8,7.1-15.9,15.9-15.9H677 M677,189.5H151.9c-9.4,0-16.9,7.6-16.9,16.9v7.7c0,9.4,7.6,16.9,16.9,16.9H677
		c9.4,0,16.9-7.6,16.9-16.9v-7.7C693.9,197.1,686.4,189.5,677,189.5L677,189.5z"/>
</g>
<g>
	<circle class="st4" cx="774.3" cy="203.1" r="2.6"/>
	<path class="st5" d="M774.3,201c1.1,0,2.1,0.9,2.1,2.1s-0.9,2.1-2.1,2.1c-1.1,0-2.1-0.9-2.1-2.1S773.2,201,774.3,201 M774.3,200
		c-1.7,0-3.1,1.4-3.1,3.1s1.4,3.1,3.1,3.1c1.7,0,3.1-1.4,3.1-3.1S776,200,774.3,200L774.3,200z"/>
</g>
<g>
	<path class="st4" d="M774.3,213.9c-1.4,0-2.6-1.2-2.6-2.6s1.2-2.6,2.6-2.6s2.6,1.2,2.6,2.6S775.7,213.9,774.3,213.9z"/>
	<path class="st5" d="M774.3,209.3c1.1,0,2.1,0.9,2.1,2.1s-0.9,2.1-2.1,2.1c-1.1,0-2.1-0.9-2.1-2.1S773.2,209.3,774.3,209.3
		 M774.3,208.3c-1.7,0-3.1,1.4-3.1,3.1s1.4,3.1,3.1,3.1c1.7,0,3.1-1.4,3.1-3.1C777.4,209.6,776,208.3,774.3,208.3L774.3,208.3z"/>
</g>
<g>
	<circle class="st4" cx="774.3" cy="219.6" r="2.6"/>
	<path class="st5" d="M774.3,217.5c1.1,0,2.1,0.9,2.1,2.1s-0.9,2.1-2.1,2.1c-1.1,0-2.1-0.9-2.1-2.1S773.2,217.5,774.3,217.5
		 M774.3,216.5c-1.7,0-3.1,1.4-3.1,3.1s1.4,3.1,3.1,3.1c1.7,0,3.1-1.4,3.1-3.1S776,216.5,774.3,216.5L774.3,216.5z"/>
</g>
<g>
	<path class="st4" d="M782.4,205.7c-1.4,0-2.6-1.2-2.6-2.6s1.2-2.6,2.6-2.6c1.4,0,2.6,1.2,2.6,2.6S783.8,205.7,782.4,205.7z"/>
	<path class="st5" d="M782.4,201c1.1,0,2.1,0.9,2.1,2.1s-0.9,2.1-2.1,2.1c-1.1,0-2.1-0.9-2.1-2.1S781.2,201,782.4,201 M782.4,200
		c-1.7,0-3.1,1.4-3.1,3.1s1.4,3.1,3.1,3.1c1.7,0,3.1-1.4,3.1-3.1C785.4,201.4,784.1,200,782.4,200L782.4,200z"/>
</g>
<g>
	<path class="st4" d="M782.4,213.9c-1.4,0-2.6-1.2-2.6-2.6s1.2-2.6,2.6-2.6c1.4,0,2.6,1.2,2.6,2.6S783.8,213.9,782.4,213.9z"/>
	<path class="st5" d="M782.4,209.3c1.1,0,2.1,0.9,2.1,2.1s-0.9,2.1-2.1,2.1c-1.1,0-2.1-0.9-2.1-2.1S781.2,209.3,782.4,209.3
		 M782.4,208.3c-1.7,0-3.1,1.4-3.1,3.1s1.4,3.1,3.1,3.1c1.7,0,3.1-1.4,3.1-3.1C785.4,209.6,784.1,208.3,782.4,208.3L782.4,208.3z"/>
</g>
<g>
	<path class="st4" d="M782.4,222.1c-1.4,0-2.6-1.2-2.6-2.6s1.2-2.6,2.6-2.6c1.4,0,2.6,1.2,2.6,2.6S783.8,222.1,782.4,222.1z"/>
	<path class="st5" d="M782.4,217.5c1.1,0,2.1,0.9,2.1,2.1s-0.9,2.1-2.1,2.1c-1.1,0-2.1-0.9-2.1-2.1S781.2,217.5,782.4,217.5
		 M782.4,216.5c-1.7,0-3.1,1.4-3.1,3.1s1.4,3.1,3.1,3.1c1.7,0,3.1-1.4,3.1-3.1C785.4,217.9,784.1,216.5,782.4,216.5L782.4,216.5z"/>
</g>
<g>
	<path class="st4" d="M789.8,205.7c-1.4,0-2.6-1.2-2.6-2.6s1.2-2.6,2.6-2.6c1.4,0,2.6,1.2,2.6,2.6S791.2,205.7,789.8,205.7z"/>
	<path class="st5" d="M789.8,201c1.1,0,2.1,0.9,2.1,2.1s-0.9,2.1-2.1,2.1c-1.1,0-2.1-0.9-2.1-2.1S788.7,201,789.8,201 M789.8,200
		c-1.7,0-3.1,1.4-3.1,3.1s1.4,3.1,3.1,3.1s3.1-1.4,3.1-3.1S791.5,200,789.8,200L789.8,200z"/>
</g>
<g>
	<path class="st4" d="M789.8,213.9c-1.4,0-2.6-1.2-2.6-2.6s1.2-2.6,2.6-2.6c1.4,0,2.6,1.2,2.6,2.6S791.2,213.9,789.8,213.9z"/>
	<path class="st5" d="M789.8,209.3c1.1,0,2.1,0.9,2.1,2.1s-0.9,2.1-2.1,2.1c-1.1,0-2.1-0.9-2.1-2.1S788.7,209.3,789.8,209.3
		 M789.8,208.3c-1.7,0-3.1,1.4-3.1,3.1s1.4,3.1,3.1,3.1s3.1-1.4,3.1-3.1C792.9,209.6,791.5,208.3,789.8,208.3L789.8,208.3z"/>
</g>
<g>
	<path class="st4" d="M789.8,222.1c-1.4,0-2.6-1.2-2.6-2.6s1.2-2.6,2.6-2.6c1.4,0,2.6,1.2,2.6,2.6S791.2,222.1,789.8,222.1z"/>
	<path class="st5" d="M789.8,217.5c1.1,0,2.1,0.9,2.1,2.1s-0.9,2.1-2.1,2.1c-1.1,0-2.1-0.9-2.1-2.1S788.7,217.5,789.8,217.5
		 M789.8,216.5c-1.7,0-3.1,1.4-3.1,3.1s1.4,3.1,3.1,3.1s3.1-1.4,3.1-3.1S791.5,216.5,789.8,216.5L789.8,216.5z"/>
</g>
<g>
	<path d="M833,194.4c8.7,0,15.8,7.1,15.8,15.8S841.7,226,833,226s-15.8-7.1-15.8-15.8S824.3,194.4,833,194.4 M833,192.4
		c-9.8,0-17.8,8-17.8,17.8s8,17.8,17.8,17.8s17.8-8,17.8-17.8S842.8,192.4,833,192.4L833,192.4z"/>
</g>
<line class="st6" x1="135" y1="254.1" x2="216.7" y2="254.1"/>
<line class="st6" x1="226" y1="254.1" x2="279.7" y2="254.1"/>
<line class="st6" x1="292.2" y1="254.1" x2="330.1" y2="254.1"/>
<line class="st6" x1="341.3" y1="254.1" x2="433.9" y2="254.1"/>
<line class="st6" x1="443.9" y1="254.1" x2="458.2" y2="254.1"/>
<line class="st7" x1="135" y1="269" x2="175.9" y2="269"/>
<line class="st7" x1="189.6" y1="269" x2="226" y2="269"/>
<line class="st7" x1="240.3" y1="269" x2="292.2" y2="269"/>
<line class="st7" x1="303" y1="269" x2="338.6" y2="269"/>
<line class="st7" x1="348.8" y1="269" x2="403" y2="269"/>
<line class="st7" x1="414.5" y1="269" x2="458.2" y2="269"/>
<line class="st7" x1="467.4" y1="269" x2="505.3" y2="269"/>
<line class="st8" x1="135" y1="290.7" x2="216.7" y2="290.7"/>
<line class="st8" x1="226" y1="290.7" x2="246.4" y2="290.7"/>
<line class="st8" x1="252.8" y1="290.7" x2="271.4" y2="290.7"/>
<line class="st8" x1="279.7" y1="290.7" x2="298.7" y2="290.7"/>
<line class="st8" x1="311.1" y1="290.7" x2="369.5" y2="290.7"/>
<line class="st8" x1="383.5" y1="290.7" x2="433.9" y2="290.7"/>
<line class="st9" x1="135" y1="359.7" x2="246.4" y2="359.7"/>
<line class="st8" x1="451" y1="290.7" x2="522.8" y2="290.7"/>
<line class="st8" x1="135" y1="302.3" x2="230.2" y2="302.3"/>
<line class="st8" x1="240.3" y1="302.3" x2="330.1" y2="302.3"/>
<line class="st8" x1="344.8" y1="302.3" x2="420.6" y2="302.3"/>
<line class="st8" x1="433.9" y1="302.3" x2="548.3" y2="302.3"/>
<line class="st8" x1="135" y1="313.9" x2="192.3" y2="313.9"/>
<line class="st8" x1="207.8" y1="313.9" x2="311.1" y2="313.9"/>
<line class="st8" x1="320.8" y1="313.9" x2="372.6" y2="313.9"/>
<line class="st10" x1="282.1" y1="223.3" x2="290.5" y2="223.3"/>
<line class="st8" x1="387.6" y1="313.9" x2="486.4" y2="313.9"/>
<line class="st8" x1="495.7" y1="313.9" x2="548.3" y2="313.9"/>
<text transform="matrix(1 0 0 1 150.5085 220.0839)" class="st11 st12">WEBLISH</text>
<line class="st10" x1="286.3" y1="199.2" x2="286.3" y2="222.5"/>
<line class="st10" x1="282.1" y1="198.6" x2="290.5" y2="198.6"/>
<text transform="matrix(1 0 0 1 470.0355 260.8781)" class="st11 st12">#1</text>
<line class="st9" x1="262.1" y1="359.7" x2="320.8" y2="359.7"/>
<line class="st9" x1="338.6" y1="359.7" x2="382.7" y2="359.7"/>
<line class="st9" x1="398.1" y1="359.7" x2="458.2" y2="359.7"/>
<line class="st7" x1="136" y1="374.8" x2="163.6" y2="374.8"/>
<line class="st7" x1="175.9" y1="374.8" x2="286.3" y2="374.8"/>
<line class="st7" x1="303" y1="374.8" x2="341.3" y2="374.8"/>
<line class="st7" x1="355.1" y1="374.8" x2="420.6" y2="374.8"/>
<line class="st7" x1="433.9" y1="374.8" x2="467.4" y2="374.8"/>
<line class="st8" x1="136" y1="397.8" x2="226" y2="397.8"/>
<line class="st8" x1="240.3" y1="397.8" x2="340.3" y2="397.8"/>
<line class="st8" x1="355.1" y1="397.8" x2="514.1" y2="397.8"/>
<line class="st8" x1="532.1" y1="397.8" x2="559.1" y2="397.8"/>
<line class="st8" x1="136" y1="408.9" x2="259.5" y2="408.9"/>
<line class="st8" x1="271.4" y1="408.9" x2="330.1" y2="408.9"/>
<line class="st8" x1="344.8" y1="408.8" x2="443.9" y2="408.9"/>
<line class="st8" x1="458.2" y1="408.9" x2="573.1" y2="408.9"/>
<line class="st8" x1="136" y1="419.8" x2="216.7" y2="419.8"/>
<line class="st8" x1="230.2" y1="419.8" x2="344.8" y2="419.8"/>
<line class="st8" x1="360.6" y1="419.8" x2="491.1" y2="419.8"/>
<line class="st8" x1="505.3" y1="419.8" x2="565.1" y2="419.8"/>
<line class="st8" x1="136" y1="429.8" x2="236.2" y2="429.8"/>
<line class="st9" x1="136" y1="474.8" x2="303" y2="474.8"/>
<line class="st9" x1="320.8" y1="474.8" x2="420.6" y2="474.8"/>
<line class="st9" x1="433.9" y1="474.8" x2="477.1" y2="474.8"/>
<line class="st7" x1="136" y1="488.8" x2="192.3" y2="488.8"/>
<line class="st7" x1="207.8" y1="488.8" x2="259.5" y2="488.8"/>
<line class="st7" x1="271.4" y1="488.8" x2="320.8" y2="488.8"/>
<line class="st7" x1="330.1" y1="488.8" x2="360.6" y2="488.8"/>
<line class="st7" x1="372.6" y1="488.8" x2="408.7" y2="488.8"/>
<line class="st7" x1="420.6" y1="488.8" x2="499.1" y2="488.8"/>
<line class="st8" x1="136" y1="509.8" x2="226" y2="509.8"/>
<line class="st8" x1="236.2" y1="509.8" x2="303" y2="509.8"/>
<line class="st8" x1="320.8" y1="509.8" x2="390.6" y2="509.8"/>
<line class="st8" x1="403" y1="509.8" x2="491.1" y2="509.8"/>
<line class="st8" x1="505.3" y1="509.8" x2="532.1" y2="509.8"/>
<line class="st8" x1="136" y1="524.8" x2="298.7" y2="524.8"/>
<line class="st8" x1="311.1" y1="524.8" x2="387.9" y2="524.8"/>
<line class="st8" x1="398.1" y1="524.8" x2="477.1" y2="524.8"/>
<line class="st8" x1="491.1" y1="524.8" x2="548.3" y2="524.8"/>
<line class="st8" x1="136" y1="534.8" x2="266.2" y2="534.8"/>
</svg>
