<?xml version="1.0" encoding="utf-8"?>
<!-- Generator: Adobe Illustrator 26.3.1, SVG Export Plug-In . SVG Version: 6.00 Build 0)  -->
<svg version="1.1" id="Layer_1" xmlns="http://www.w3.org/2000/svg" xmlns:xlink="http://www.w3.org/1999/xlink" x="0px" y="0px"
	 viewBox="0 0 1000 1000" style="enable-background:new 0 0 1000 1000;" xml:space="preserve">
<style type="text/css">
	.st0{fill:#FF855B;}
	.st1{fill:#FF635B;}
	.st2{fill:#C7385B;}
	.st3{fill:#62245B;}
	.st4{fill:#83005B;}
	.st5{font-family:'MontserratAlternates-Black';}
	.st6{font-size:46.7089px;}
	.st7{fill:none;stroke:#FF855B;stroke-width:2;stroke-miterlimit:10;}
	.st8{fill:#CCCCCC;}
	.st9{fill:#FFFFFF;}
	.st10{fill:#FFFFFF;stroke:#000000;stroke-width:9;stroke-miterlimit:10;}
	.st11{fill:none;stroke:#000000;stroke-width:9;stroke-miterlimit:10;}
	.st12{fill:none;stroke:#006E54;stroke-width:6;stroke-miterlimit:10;}
	.st13{opacity:0.46;fill:none;stroke:#006E54;stroke-width:6;stroke-miterlimit:10;enable-background:new    ;}
</style>
<g>
	<circle class="st0" cx="701.5" cy="238" r="45.9"/>
	<path class="st1" d="M706.5,192.2c3.6,6.5,5.6,14.1,5.6,22.1c0,25.3-20.6,45.9-45.9,45.9c-1.7,0-3.3-0.1-5-0.3
		c7.8,14.2,22.9,23.8,40.3,23.8c25.3,0,45.9-20.6,45.9-45.9C747.5,214.2,729.5,194.8,706.5,192.2z"/>
	<path class="st2" d="M712.7,193.3c4.4,7,6.8,15.2,6.8,24.2c0,25.3-20.5,45.9-45.9,45.9c-3.8,0-7.5-0.5-11.1-1.4
		c8.1,13.1,22.5,21.9,39.2,21.9c25.3,0,45.9-20.6,45.9-45.9C747.5,216.4,732.6,198.3,712.7,193.3z"/>
	<path class="st3" d="M723.8,197.6c4,6.8,6.3,14.7,6.3,23.2c0,25.3-20.6,45.9-45.9,45.9c-7.9,0-15.5-2-22-5.6
		c7.9,13.7,22.8,22.8,39.7,22.8c25.3,0,45.9-20.6,45.9-45.9C747.7,220.5,738,205.4,723.8,197.6z"/>
	<path class="st4" d="M723.9,197.7c6.3,7.9,10.1,17.9,10.1,28.8c0,25.3-20.6,45.9-45.9,45.9c-8.1,0-15.7-2.2-22.4-5.8
		c8.4,10.5,21.4,17.3,35.8,17.3c25.3,0,45.9-20.6,45.9-45.9C747.5,220.6,737.9,205.5,723.9,197.7z"/>
</g>
<text transform="matrix(0.9937 -0.1124 0.1124 0.9937 323.5082 271.0073)" class="st0 st5 st6">WE</text>
<text transform="matrix(0.9937 -0.1124 0.1124 0.9937 413.7315 260.8038)" class="st1 st5 st6">BL</text>
<text transform="matrix(0.9937 -0.1124 0.1124 0.9937 479.4497 253.3713)" class="st2 st5 st6">I</text>
<text transform="matrix(0.9937 -0.1124 0.1124 0.9937 503.9555 250.5993)" class="st3 st5 st6">S</text>
<text transform="matrix(0.9937 -0.1124 0.1124 0.9937 535.1435 247.0726)" class="st4 st5 st6">H</text>
<circle class="st7" cx="701.5" cy="238" r="58.1"/>
<g>
	<ellipse class="st0" cx="683.9" cy="273.4" rx="7.3" ry="7.3"/>
	<path class="st1" d="M684.7,266.1c0.6,1,0.9,2.2,0.9,3.5c0,4-3.3,7.3-7.3,7.3c-0.3,0-0.5,0-0.8,0c1.2,2.3,3.7,3.8,6.4,3.8
		c4,0,7.3-3.3,7.3-7.3C691.2,269.6,688.3,266.5,684.7,266.1z"/>
	<path class="st2" d="M685.7,266.3c0.7,1.1,1.1,2.4,1.1,3.8c0,4-3.3,7.3-7.3,7.3c-0.6,0-1.2-0.1-1.8-0.2c1.3,2.1,3.6,3.5,6.2,3.5
		c4,0,7.3-3.3,7.3-7.3C691.2,269.9,688.8,267.1,685.7,266.3z"/>
	<path class="st3" d="M687.4,266.9c0.6,1.1,1,2.3,1,3.7c0,4-3.3,7.3-7.3,7.3c-1.3,0-2.5-0.3-3.5-0.9c1.3,2.2,3.6,3.6,6.3,3.6
		c4,0,7.3-3.3,7.3-7.3C691.3,270.6,689.7,268.2,687.4,266.9z"/>
</g>
<g>
	<path class="st8" d="M330.8,509.9L273.9,260h541.6c-0.8,91.4-25.7,154.6-46.7,191.6c-20,35.4-40.1,54-45.1,58.3H330.8z"/>
	<g>
		<path class="st8" d="M811,264.4c-0.7,37.5-5.4,73.1-14.2,105.9c-7.6,28.3-18.1,54.5-31.4,78.1c-18.4,32.8-37.1,51.2-43.4,57H334.4
			l-54.8-240.9H811 M820,255.4H268.3l58.9,258.9h398.2C725.4,514.4,820,439.1,820,255.4L820,255.4z"/>
	</g>
</g>
<g>
	<circle class="st9" cx="628.9" cy="574.3" r="42.5"/>
	<path class="st8" d="M628.9,537.8c20.1,0,36.5,16.4,36.5,36.5s-16.4,36.5-36.5,36.5s-36.5-16.4-36.5-36.5S608.8,537.8,628.9,537.8
		 M628.9,525.8c-26.8,0-48.5,21.7-48.5,48.5s21.7,48.5,48.5,48.5s48.5-21.7,48.5-48.5S655.7,525.8,628.9,525.8L628.9,525.8z"/>
</g>
<g>
	<path class="st9" d="M621.5,610.1c-24.3,0-44-19.7-44-44s19.7-44,44-44s44,19.7,44,44S645.8,610.1,621.5,610.1z"/>
	<path d="M621.5,526.6c21.8,0,39.5,17.7,39.5,39.5s-17.7,39.5-39.5,39.5S582,587.9,582,566.1S599.7,526.6,621.5,526.6 M621.5,517.6
		c-26.8,0-48.5,21.7-48.5,48.5s21.7,48.5,48.5,48.5s48.5-21.7,48.5-48.5S648.3,517.6,621.5,517.6L621.5,517.6z"/>
</g>
<path class="st10" d="M257.5,246.5h551.8c0,183.6-94.6,258.9-94.6,258.9H316.4L257.5,246.5z"/>
<path class="st11" d="M257.5,246.5l-12.8-53.9c0,0,4.7-50.6-144.2-50.6"/>
<line class="st12" x1="119.3" y1="216" x2="283.5" y2="216"/>
<line class="st12" x1="225.4" y1="290.1" x2="338.4" y2="290.1"/>
<line class="st12" x1="166.9" y1="336.6" x2="324.4" y2="336.6"/>
<line class="st12" x1="166.9" y1="266.1" x2="283.5" y2="266.1"/>
<line class="st12" x1="348.8" y1="266.1" x2="559.4" y2="266.1"/>
<line class="st12" x1="338.4" y1="305.7" x2="418.8" y2="305.7"/>
<line class="st12" x1="166.9" y1="383.1" x2="490.8" y2="383.1"/>
<line class="st12" x1="257.5" y1="360.6" x2="360.3" y2="360.6"/>
<line class="st12" x1="166.9" y1="438.6" x2="621.5" y2="438.6"/>
<line class="st12" x1="367.8" y1="408.6" x2="490.8" y2="408.6"/>
<line class="st12" x1="219.4" y1="408.6" x2="317.1" y2="408.6"/>
<line class="st12" x1="234.4" y1="476.1" x2="348.8" y2="476.1"/>
<line class="st12" x1="378.6" y1="457.3" x2="465.3" y2="457.3"/>
<line class="st12" x1="394.2" y1="329.1" x2="580.2" y2="329.1"/>
<line class="st12" x1="490.8" y1="360.6" x2="609.3" y2="360.6"/>
<line class="st12" x1="394.2" y1="491.1" x2="533.4" y2="491.1"/>
<line class="st12" x1="234.4" y1="546.6" x2="324.4" y2="546.6"/>
<line class="st13" x1="121.7" y1="217.9" x2="286" y2="217.9"/>
<line class="st13" x1="227.8" y1="291.9" x2="340.8" y2="291.9"/>
<line class="st13" x1="169.3" y1="338.4" x2="326.8" y2="338.4"/>
<line class="st13" x1="169.3" y1="267.9" x2="286" y2="267.9"/>
<line class="st13" x1="351.3" y1="267.9" x2="561.9" y2="267.9"/>
<line class="st13" x1="340.8" y1="307.5" x2="421.3" y2="307.5"/>
<line class="st13" x1="169.3" y1="384.9" x2="493.2" y2="384.9"/>
<line class="st13" x1="259.9" y1="362.4" x2="362.8" y2="362.4"/>
<line class="st13" x1="169.3" y1="440.4" x2="623.9" y2="440.4"/>
<line class="st13" x1="370.3" y1="410.4" x2="493.2" y2="410.4"/>
<line class="st13" x1="221.8" y1="410.4" x2="319.6" y2="410.4"/>
<line class="st13" x1="236.8" y1="477.9" x2="351.3" y2="477.9"/>
<line class="st13" x1="381" y1="459.1" x2="467.7" y2="459.1"/>
<line class="st13" x1="396.6" y1="330.9" x2="582.6" y2="330.9"/>
<line class="st13" x1="493.2" y1="362.4" x2="611.7" y2="362.4"/>
<line class="st13" x1="396.6" y1="492.9" x2="535.8" y2="492.9"/>
<line class="st13" x1="236.8" y1="548.4" x2="326.8" y2="548.4"/>
<g>
	<path class="st9" d="M419.2,620.9c-23.4,0-42.5-19.1-42.5-42.5s19.1-42.5,42.5-42.5s42.5,19.1,42.5,42.5S442.7,620.9,419.2,620.9z"
		/>
	<path class="st8" d="M419.2,541.9c20.1,0,36.5,16.4,36.5,36.5s-16.4,36.5-36.5,36.5s-36.5-16.4-36.5-36.5S399.1,541.9,419.2,541.9
		 M419.2,529.9c-26.8,0-48.5,21.7-48.5,48.5s21.7,48.5,48.5,48.5s48.5-21.7,48.5-48.5C467.7,551.6,446,529.9,419.2,529.9
		L419.2,529.9z"/>
</g>
<g>
	<circle class="st9" cx="411.8" cy="570.2" r="44"/>
	<path d="M411.8,530.7c21.8,0,39.5,17.7,39.5,39.5s-17.7,39.5-39.5,39.5s-39.5-17.7-39.5-39.5S390,530.7,411.8,530.7 M411.8,521.7
		c-26.8,0-48.5,21.7-48.5,48.5s21.7,48.5,48.5,48.5s48.5-21.7,48.5-48.5S438.6,521.7,411.8,521.7L411.8,521.7z"/>
</g>
</svg>
