<?xml version="1.0" encoding="utf-8"?>
<!-- Generator: Adobe Illustrator 26.3.1, SVG Export Plug-In . SVG Version: 6.00 Build 0)  -->
<svg version="1.1" id="Layer_1" xmlns="http://www.w3.org/2000/svg" xmlns:xlink="http://www.w3.org/1999/xlink" x="0px" y="0px"
	 viewBox="0 0 1000 1000" style="enable-background:new 0 0 1000 1000;" xml:space="preserve">
<style type="text/css">
	.st0{fill:#CCCCCC;}
	.st1{fill:#FFFFFF;stroke:#000000;stroke-width:9;stroke-miterlimit:10;}
	.st2{fill:none;stroke:#00673D;stroke-width:9;stroke-miterlimit:10;}
	.st3{fill:none;stroke:#006E54;stroke-width:7;stroke-miterlimit:10;}
	.st4{fill:none;stroke:#000000;stroke-width:9;stroke-miterlimit:10;}
</style>
<path class="st0" d="M433.6,772.3h150.1c6.3,0,11.4-5.1,11.4-11.4l0,0c0-6.3-5.1-11.4-11.4-11.4H433.6c-6.3,0-11.4,5.1-11.4,11.4
	l0,0C422.2,767.2,427.3,772.3,433.6,772.3z"/>
<path class="st0" d="M417,736.9h187c9.8,0,17.8-8,17.8-17.8l0,0c0-9.8-8-17.8-17.8-17.8H417c-9.8,0-17.8,8-17.8,17.8l0,0
	C399.2,728.9,407.1,736.9,417,736.9z"/>
<path class="st0" d="M409.3,688.7h202.3c9.8,0,17.8-8,17.8-17.8l0,0c0-9.8-8-17.8-17.8-17.8H409.3c-9.8,0-17.8,8-17.8,17.8l0,0
	C391.5,680.7,399.5,688.7,409.3,688.7z"/>
<path class="st1" d="M424.1,765.9h150.1c6.3,0,11.4-5.1,11.4-11.4l0,0c0-6.3-5.1-11.4-11.4-11.4H424.1c-6.3,0-11.4,5.1-11.4,11.4
	l0,0C412.8,760.8,417.8,765.9,424.1,765.9z"/>
<path class="st1" d="M405.7,730.4h187c9.8,0,17.8-8,17.8-17.8l0,0c0-9.8-8-17.8-17.8-17.8h-187c-9.8,0-17.8,8-17.8,17.8l0,0
	C387.9,722.6,395.8,730.4,405.7,730.4z"/>
<path class="st1" d="M398,682.2h202.3c9.8,0,17.8-8,17.8-17.8l0,0c0-9.8-8-17.8-17.8-17.8H398c-9.8,0-17.8,8-17.8,17.8l0,0
	C380.2,674.3,388.2,682.2,398,682.2z"/>
<path class="st0" d="M670.8,359c0,87.8-71.2,159.2-159.2,159.2c-59.3,0-111-32.5-138.4-80.6c-13.2-23.2-20.7-50.1-20.7-78.5
	c0-87.8,71.2-159.2,159.2-159.2S670.8,271.2,670.8,359z"/>
<path class="st0" d="M373.3,437.7c0,0,62.1,86,66.5,200h162.3c0-140.8,47.9-200,47.9-200"/>
<path class="st1" d="M650.1,349.7c0,87.8-71.2,159.2-159.2,159.2c-59.3,0-111-32.5-138.4-80.6c-13.2-23.2-20.7-50.1-20.7-78.5
	c0-87.8,71.2-159.2,159.2-159.2S650.1,261.8,650.1,349.7z"/>
<path class="st1" d="M352.5,428.3c0,0,62.1,86,66.5,200h162.3c0-140.8,47.9-200,47.9-200"/>
<path class="st2" d="M477.9,625.3c0.2-57,0.5-114.1,0.8-171c0,0,0-40.5-18.7-40.5s-25.5,7.4-25.5,25.5s8.4,17.9,70.7,17.9
	s60.8,1.7,60.8-13.3c0-15.1,4-30-18.7-30c-22.8,0-24.3,39.8-24.3,39.8c0.2,56.6,0.5,113.2,0.6,169.8"/>
<path class="st3" d="M477.9,625.3c-0.5-58.1-0.9-116.1-1.4-174.3c0,0,0-40.5-18.7-40.5s-25.5,7.4-25.5,25.5s8.4,17.9,70.7,17.9
	s60.8,1.7,60.8-13.3c0-15.1,4-30-18.7-30c-22.9,0-24.1,39.9-24.1,39.9c0.9,57.7,1.8,115.4,2.8,173.1"/>
<line class="st4" x1="419" y1="628.3" x2="581.4" y2="628.3"/>
</svg>
