<?xml version="1.0" encoding="utf-8"?>
<!-- Generator: Adobe Illustrator 26.3.1, SVG Export Plug-In . SVG Version: 6.00 Build 0)  -->
<svg version="1.1" id="Layer_1" xmlns="http://www.w3.org/2000/svg" xmlns:xlink="http://www.w3.org/1999/xlink" x="0px" y="0px"
	 viewBox="0 0 1000 1000" style="enable-background:new 0 0 1000 1000;" xml:space="preserve">
<style type="text/css">
	.st0{fill:#CCCCCC;}
	.st1{fill:#FFFFFF;stroke:#000000;stroke-width:9;stroke-miterlimit:10;}
	.st2{fill:none;stroke:#00673D;stroke-width:9;stroke-miterlimit:10;}
	.st3{fill:none;stroke:#006E54;stroke-width:7;stroke-miterlimit:10;}
	.st4{fill:none;stroke:#000000;stroke-width:9;stroke-miterlimit:10;}
</style>
<path class="st0" d="M412.5,875.9h194c8.1,0,14.7-6.6,14.7-14.7l0,0c0-8.1-6.6-14.7-14.7-14.7h-194c-8.1,0-14.7,6.6-14.7,14.7l0,0
	C397.8,869.3,404.4,875.9,412.5,875.9z"/>
<path class="st0" d="M391,830.1h241.6c12.7,0,23-10.3,23-23l0,0c0-12.7-10.3-23-23-23H391c-12.7,0-23,10.3-23,23l0,0
	C368,819.8,378.3,830.1,391,830.1z"/>
<path class="st0" d="M381.1,767.8h261.4c12.7,0,23-10.3,23-23l0,0c0-12.7-10.3-23-23-23H381.1c-12.7,0-23,10.3-23,23l0,0
	C358.1,757.5,368.4,767.8,381.1,767.8z"/>
<path class="st1" d="M400.2,867.6h194c8.1,0,14.7-6.6,14.7-14.7l0,0c0-8.1-6.6-14.7-14.7-14.7h-194c-8.1,0-14.7,6.6-14.7,14.7l0,0
	C385.6,861,392.1,867.6,400.2,867.6z"/>
<path class="st1" d="M376.4,821.7H618c12.7,0,23-10.3,23-23l0,0c0-12.7-10.3-23-23-23H376.4c-12.7,0-23,10.3-23,23l0,0
	C353.4,811.6,363.7,821.7,376.4,821.7z"/>
<path class="st1" d="M366.5,759.4h261.4c12.7,0,23-10.3,23-23l0,0c0-12.7-10.3-23-23-23H366.5c-12.7,0-23,10.3-23,23l0,0
	C343.5,749.2,353.8,759.4,366.5,759.4z"/>
<path class="st0" d="M719.1,341.8c0,113.5-92,205.7-205.7,205.7c-76.6,0-143.5-42-178.9-104.2c-17.1-30-26.8-64.7-26.8-101.5
	c0-113.5,92-205.7,205.7-205.7S719.1,228.3,719.1,341.8z"/>
<path class="st0" d="M334.6,443.4c0,0,80.2,111.2,86,258.5h209.8c0-181.9,61.9-258.5,61.9-258.5"/>
<path class="st1" d="M692.3,329.7c0,113.5-92,205.7-205.7,205.7c-76.6,0-143.5-42-178.9-104.2c-17.1-30-26.8-64.7-26.8-101.5
	c0-113.5,92-205.7,205.7-205.7S692.3,216.2,692.3,329.7z"/>
<path class="st1" d="M307.7,431.3c0,0,80.2,111.2,86,258.5h209.8c0-181.9,61.9-258.5,61.9-258.5"/>
<path class="st2" d="M469.8,685.9c0.3-73.6,0.7-147.4,1-221c0,0,0-52.4-24.2-52.4s-33,9.5-33,33s10.9,23.1,91.4,23.1
	s78.6,2.2,78.6-17.2c0-19.5,5.2-38.8-24.2-38.8S528,464,528,464c0.3,73.2,0.6,146.3,0.8,219.4"/>
<path class="st3" d="M469.8,685.9c-0.6-75.1-1.2-150.1-1.8-225.2c0,0,0-52.4-24.2-52.4s-33,9.5-33,33s10.9,23.1,91.4,23.1
	s78.6,2.2,78.6-17.2c0-19.5,5.2-38.8-24.2-38.8c-29.6,0-31.1,51.5-31.1,51.5c1.2,74.6,2.3,149.1,3.6,223.7"/>
<line class="st4" x1="393.7" y1="689.8" x2="603.5" y2="689.8"/>
</svg>
