<?xml version="1.0" encoding="utf-8"?>
<!-- Generator: Adobe Illustrator 26.3.1, SVG Export Plug-In . SVG Version: 6.00 Build 0)  -->
<svg version="1.1" xmlns="http://www.w3.org/2000/svg" xmlns:xlink="http://www.w3.org/1999/xlink" x="0px" y="0px"
	 viewBox="0 0 1000 1000" style="enable-background:new 0 0 1000 1000;" xml:space="preserve">
<style type="text/css">
	.st0{fill:#4D4D4D;}
	.st1{fill:#CCCCCC;}
	.st2{fill:#FFFFFF;}
	.st3{fill:#FFFFFF;stroke:#4D4D4D;stroke-width:4;stroke-miterlimit:10;}
	.st4{fill:none;stroke:#720027;stroke-width:6;stroke-miterlimit:10;}
	.st5{fill:none;stroke:#999999;stroke-width:4;stroke-miterlimit:10;}
	.st6{fill:#006E54;}
	.st7{fill:#006E54;stroke:#F7F5DD;stroke-width:4;stroke-miterlimit:10;}
	.st8{fill:none;stroke:#4D4D4D;stroke-width:4;stroke-miterlimit:10;}
	.st9{fill:#CCCCCC;stroke:#006E54;stroke-width:6;stroke-miterlimit:10;}
	.st10{fill:#720027;}
</style>
<g id="Layer_3">
	<path class="st0" d="M476.5,196.1c1.9,101.6,3.9,203.3,5.8,304.9h59.9c0-104.7,0-209.4,0-314.2C520.3,189.9,498.4,193,476.5,196.1z
		"/>
	<path class="st0" d="M509.5,512.1c0,0,139.7-14.4,139.7,70H368.8C368.8,582.1,377.1,512.1,509.5,512.1"/>
	<path class="st0" d="M239,196.7c182.9-29.9,365.9-59.9,548.8-89.8c10.6-5.5,23.3-0.3,26.8,9.4c3.2,8.7-1.5,19.5-11.3,23.6
		c-186.2,28.9-372.3,57.7-558.5,86.6c-12.2,3.6-23.2-2.2-25-8.8C217.8,210.6,225,198.8,239,196.7z"/>
</g>
<g id="Layer_1">
	<g>
		<path class="st1" d="M419.7,572.4H149.5c-39.9,0-72.3-32.4-72.3-72.3v-86.8c0-39.9,32.4-72.3,72.3-72.3h270.2
			c39.9,0,72.3,32.4,72.3,72.3v86.8C492,540,459.6,572.4,419.7,572.4z"/>
	</g>
	<g>
		<path class="st2" d="M141,563.5c-38.8,0-70.3-31.5-70.3-70.3v-86.8c0-38.8,31.5-70.3,70.3-70.3h270.2c38.8,0,70.3,31.5,70.3,70.3
			v86.8c0,38.8-31.5,70.3-70.3,70.3H141z"/>
		<path d="M411.2,338.1c37.7,0,68.3,30.6,68.3,68.3v86.8c0,37.7-30.6,68.3-68.3,68.3H141c-37.7,0-68.3-30.6-68.3-68.3v-86.8
			c0-37.7,30.6-68.3,68.3-68.3H411.2 M411.2,334.1H141c-39.9,0-72.3,32.4-72.3,72.3v86.8c0,39.9,32.4,72.3,72.3,72.3h270.2
			c39.9,0,72.3-32.4,72.3-72.3v-86.8C483.5,366.5,451.1,334.1,411.2,334.1L411.2,334.1z"/>
	</g>
	<path class="st3" d="M136.3,571.9h281.3c0,0-4.5,30.2-140.6,30.2S136.3,571.9,136.3,571.9z"/>
	<line class="st4" x1="118" y1="364.9" x2="276.1" y2="364.9"/>
	<line class="st4" x1="291.8" y1="364.9" x2="385.8" y2="364.9"/>
	<line class="st4" x1="399.1" y1="364.9" x2="421.4" y2="364.9"/>
	<line class="st5" x1="118" y1="400.4" x2="314.9" y2="400.4"/>
	<line class="st5" x1="328.2" y1="400.4" x2="364.5" y2="400.4"/>
	<line class="st5" x1="375.2" y1="400.4" x2="421.4" y2="400.4"/>
	<line class="st5" x1="118" y1="411.9" x2="212" y2="411.9"/>
	<line class="st5" x1="227.1" y1="411.9" x2="342.3" y2="411.9"/>
	<line class="st5" x1="351.2" y1="411.9" x2="398.3" y2="411.9"/>
	<line class="st5" x1="410.3" y1="411.9" x2="440.8" y2="411.9"/>
	<line class="st5" x1="118" y1="423.1" x2="284.6" y2="423.1"/>
	<line class="st5" x1="298" y1="423.1" x2="440.8" y2="423.1"/>
	<line class="st5" x1="118" y1="435" x2="276.1" y2="435"/>
	<line class="st5" x1="291.8" y1="435" x2="314.9" y2="435"/>
	<line class="st5" x1="328.2" y1="435" x2="365.2" y2="435"/>
	<line class="st5" x1="378.7" y1="435" x2="436.4" y2="435"/>
	<line class="st5" x1="118" y1="447.4" x2="197.1" y2="447.4"/>
	<line class="st5" x1="212" y1="447.4" x2="268.7" y2="447.4"/>
	<path class="st6" d="M354.7,530.7H197.5c-10.5,0-19-8.5-19-19v-10c0-10.5,8.5-19,19-19h157.2c10.5,0,19,8.5,19,19v10
		C373.7,522.2,365.2,530.7,354.7,530.7z"/>
	<line class="st7" x1="198.3" y1="501.5" x2="250.4" y2="501.5"/>
	<line class="st7" x1="257.2" y1="501.5" x2="305.4" y2="501.5"/>
	<line class="st7" x1="312.5" y1="501.5" x2="346" y2="501.5"/>
	<line class="st7" x1="240.5" y1="512.8" x2="311.7" y2="512.8"/>
	<polyline class="st8" points="136.3,571.9 276.9,198.6 417.6,571.9 	"/>
</g>
<g id="Layer_2">
	<g>
		<path class="st1" d="M893.2,484.4H623.1c-39.9,0-72.3-32.4-72.3-72.3v-86.8c0-39.9,32.4-72.3,72.3-72.3h270.2
			c39.9,0,72.3,32.4,72.3,72.3v86.8C965.5,452.1,933.2,484.4,893.2,484.4z"/>
	</g>
	<g>
		<path class="st2" d="M614.6,475.6c-38.8,0-70.3-31.5-70.3-70.3v-86.8c0-38.8,31.5-70.3,70.3-70.3h270.2
			c38.8,0,70.3,31.5,70.3,70.3v86.8c0,38.8-31.5,70.3-70.3,70.3H614.6z"/>
		<path d="M884.8,250.2c37.7,0,68.3,30.6,68.3,68.3v86.8c0,37.7-30.6,68.3-68.3,68.3H614.6c-37.7,0-68.3-30.6-68.3-68.3v-86.8
			c0-37.7,30.6-68.3,68.3-68.3H884.8 M884.8,246.2H614.6c-39.9,0-72.3,32.4-72.3,72.3v86.8c0,39.9,32.4,72.3,72.3,72.3h270.2
			c39.9,0,72.3-32.4,72.3-72.3v-86.8C957.1,278.6,924.7,246.2,884.8,246.2L884.8,246.2z"/>
	</g>
	<line class="st9" x1="594.3" y1="275" x2="675" y2="275"/>
	<line class="st9" x1="689.9" y1="275" x2="773.6" y2="275"/>
	<line class="st9" x1="784.5" y1="275" x2="829" y2="275"/>
	<line class="st5" x1="594.3" y1="303.3" x2="689.9" y2="303.3"/>
	<line class="st5" x1="708.6" y1="303.3" x2="779" y2="303.3"/>
	<line class="st5" x1="790.5" y1="303.3" x2="823" y2="303.3"/>
	<line class="st5" x1="833.2" y1="303.3" x2="874.2" y2="303.3"/>
	<line class="st5" x1="594.3" y1="317.5" x2="670.1" y2="317.5"/>
	<line class="st5" x1="682.2" y1="317.5" x2="721.1" y2="317.5"/>
	<line class="st5" x1="728.5" y1="317.5" x2="773.6" y2="317.5"/>
	<line class="st5" x1="779" y1="317.5" x2="874.2" y2="317.5"/>
	<line class="st5" x1="594.3" y1="328.7" x2="625.5" y2="328.7"/>
	<line class="st5" x1="632.2" y1="328.7" x2="770.5" y2="328.7"/>
	<line class="st5" x1="779" y1="328.7" x2="840.5" y2="328.7"/>
	<line class="st5" x1="594.3" y1="340" x2="748.4" y2="340"/>
	<line class="st5" x1="760.1" y1="340" x2="881.6" y2="340"/>
	<line class="st5" x1="594.3" y1="350.4" x2="646.3" y2="350.4"/>
	<line class="st5" x1="656.2" y1="350.4" x2="770.5" y2="350.4"/>
	<line class="st5" x1="779" y1="350.4" x2="809.8" y2="350.4"/>
	<line class="st5" x1="823" y1="350.4" x2="863.9" y2="350.4"/>
	<line class="st5" x1="594.3" y1="361.9" x2="664" y2="361.9"/>
	<line class="st5" x1="675" y1="361.9" x2="749.7" y2="361.9"/>
	<line class="st5" x1="760.1" y1="361.9" x2="813.7" y2="361.9"/>
	<path class="st10" d="M836.8,443H679.6c-10.5,0-19-8.5-19-19v-10c0-10.5,8.5-19,19-19h157.2c10.5,0,19,8.5,19,19v10
		C855.7,434.5,847.2,443,836.8,443z"/>
	<line class="st7" x1="682.2" y1="419" x2="708.6" y2="419"/>
	<line class="st7" x1="721.1" y1="419" x2="773.6" y2="419"/>
	<line class="st7" x1="790.5" y1="419" x2="813.7" y2="419"/>
	<line class="st7" x1="826.6" y1="419" x2="843.5" y2="419"/>
	<path class="st3" d="M633,485.1h274.9c0,0-4.4,29.6-137.4,29.6S633,485.1,633,485.1z"/>
	<polyline class="st8" points="633,485.1 770.5,120.3 907.9,485.1 	"/>
</g>
</svg>
