<?xml version="1.0" encoding="utf-8"?>
<!-- Generator: Adobe Illustrator 26.3.1, SVG Export Plug-In . SVG Version: 6.00 Build 0)  -->
<svg version="1.1" id="Layer_1" xmlns="http://www.w3.org/2000/svg" xmlns:xlink="http://www.w3.org/1999/xlink" x="0px" y="0px"
	 viewBox="0 0 1000 1000" style="enable-background:new 0 0 1000 1000;" xml:space="preserve">
<style type="text/css">
	.st0{fill:#FF855B;}
	.st1{fill:#FF635B;}
	.st2{fill:#C7385B;}
	.st3{fill:#62245B;}
	.st4{fill:#83005B;}
	.st5{font-family:'MontserratAlternates-Black';}
	.st6{font-size:43.8052px;}
	.st7{fill:none;stroke:#FF855B;stroke-width:2;stroke-miterlimit:10;}
	.st8{fill:#CCCCCC;}
	.st9{fill:#FFFFFF;}
	.st10{fill:#FFFFFF;stroke:#000000;stroke-width:9;stroke-miterlimit:10;}
	.st11{fill:none;stroke:#000000;stroke-width:9;stroke-miterlimit:10;}
	.st12{fill:none;stroke:#006E54;stroke-width:6;stroke-miterlimit:10;}
	.st13{opacity:0.46;fill:none;stroke:#006E54;stroke-width:6;stroke-miterlimit:10;enable-background:new    ;}
</style>
<g>
	<circle class="st0" cx="674" cy="243.6" r="43"/>
	<path class="st1" d="M678.7,200.7c3.4,6.1,5.3,13.2,5.3,20.7c0,23.7-19.3,43-43,43c-1.6,0-3.1-0.1-4.7-0.3
		c7.3,13.3,21.5,22.3,37.8,22.3c23.7,0,43-19.3,43-43C717.2,221.3,700.3,203.1,678.7,200.7z"/>
	<path class="st2" d="M684.6,201.7c4.1,6.6,6.4,14.3,6.4,22.7c0,23.7-19.2,43-43,43c-3.6,0-7-0.5-10.4-1.3
		c7.6,12.3,21.1,20.5,36.8,20.5c23.7,0,43-19.3,43-43C717.2,223.4,703.2,206.4,684.6,201.7z"/>
	<path class="st3" d="M695,205.7c3.8,6.4,5.9,13.8,5.9,21.8c0,23.7-19.3,43-43,43c-7.4,0-14.5-1.9-20.6-5.3
		c7.4,12.8,21.4,21.4,37.2,21.4c23.7,0,43-19.3,43-43C717.4,227.2,708.3,213,695,205.7z"/>
	<path class="st4" d="M695.1,205.8c5.9,7.4,9.5,16.8,9.5,27c0,23.7-19.3,43-43,43c-7.6,0-14.7-2.1-21-5.4
		c7.9,9.8,20.1,16.2,33.6,16.2c23.7,0,43-19.3,43-43C717.2,227.3,708.2,213.1,695.1,205.8z"/>
</g>
<text transform="matrix(0.9937 -0.1124 0.1124 0.9937 319.5691 274.5689)" class="st0 st5 st6">WE</text>
<text transform="matrix(0.9937 -0.1124 0.1124 0.9937 404.1801 265.0003)" class="st1 st5 st6">BL</text>
<text transform="matrix(0.9937 -0.1124 0.1124 0.9937 465.8107 258.0301)" class="st2 st5 st6">I</text>
<text transform="matrix(0.9937 -0.1124 0.1124 0.9937 488.7925 255.4305)" class="st3 st5 st6">S</text>
<text transform="matrix(0.9937 -0.1124 0.1124 0.9937 518.0402 252.1232)" class="st4 st5 st6">H</text>
<circle class="st7" cx="674" cy="243.6" r="54.5"/>
<g>
	<ellipse class="st0" cx="657.5" cy="276.8" rx="6.8" ry="6.8"/>
	<path class="st1" d="M658.3,270c0.6,0.9,0.8,2.1,0.8,3.3c0,3.8-3.1,6.8-6.8,6.8c-0.3,0-0.5,0-0.8,0c1.1,2.2,3.5,3.6,6,3.6
		c3.8,0,6.8-3.1,6.8-6.8C664.4,273.3,661.7,270.3,658.3,270z"/>
	<path class="st2" d="M659.2,270.2c0.7,1,1,2.3,1,3.6c0,3.8-3.1,6.8-6.8,6.8c-0.6,0-1.1-0.1-1.7-0.2c1.2,2,3.4,3.3,5.8,3.3
		c3.8,0,6.8-3.1,6.8-6.8C664.4,273.5,662.1,270.9,659.2,270.2z"/>
	<path class="st3" d="M660.8,270.7c0.6,1,0.9,2.2,0.9,3.5c0,3.8-3.1,6.8-6.8,6.8c-1.2,0-2.3-0.3-3.3-0.8c1.2,2.1,3.4,3.4,5.9,3.4
		c3.8,0,6.8-3.1,6.8-6.8C664.5,274.2,663,271.9,660.8,270.7z"/>
</g>
<g>
	<path class="st8" d="M326.4,498.6L273,264.2H781c-0.8,85.7-24.1,145-43.8,179.7c-18.8,33.2-37.6,50.6-42.3,54.7H326.4z"/>
	<g>
		<path class="st8" d="M776.7,268.4c-0.7,35.2-5.1,68.6-13.3,99.3c-7.1,26.5-17,51.1-29.4,73.2c-17.3,30.8-34.8,48-40.7,53.5H329.8
			l-51.4-225.9L776.7,268.4 M785.2,259.9H267.8L323,502.7h373.4C696.5,502.8,785.2,432.2,785.2,259.9L785.2,259.9z"/>
	</g>
</g>
<g>
	<circle class="st9" cx="606" cy="559" r="39.9"/>
	<path class="st8" d="M606,524.8c18.8,0,34.2,15.4,34.2,34.2c0,18.8-15.4,34.2-34.2,34.2c-18.8,0-34.2-15.4-34.2-34.2
		C571.7,540.1,587.1,524.8,606,524.8 M606,513.5c-25.1,0-45.5,20.4-45.5,45.5c0,25.1,20.4,45.5,45.5,45.5
		c25.1,0,45.5-20.4,45.5-45.5C651.4,533.9,631.1,513.5,606,513.5L606,513.5z"/>
</g>
<g>
	<path class="st9" d="M599,592.6c-22.8,0-41.3-18.5-41.3-41.3S576.2,510,599,510c22.8,0,41.3,18.5,41.3,41.3S621.8,592.6,599,592.6z
		"/>
	<path d="M599,514.3c20.4,0,37,16.6,37,37s-16.6,37-37,37s-37-16.6-37-37S578.6,514.3,599,514.3 M599,505.8
		c-25.1,0-45.5,20.4-45.5,45.5c0,25.1,20.4,45.5,45.5,45.5c25.1,0,45.5-20.4,45.5-45.5C644.5,526.2,624.2,505.8,599,505.8L599,505.8
		z"/>
</g>
<path class="st10" d="M257.7,251.6h517.5c0,172.2-88.7,242.8-88.7,242.8H312.9L257.7,251.6z"/>
<path class="st11" d="M257.7,251.6l-12-50.5c0,0,4.4-47.5-135.2-47.5"/>
<line class="st12" x1="128.1" y1="223" x2="282" y2="223"/>
<line class="st12" x1="227.6" y1="292.5" x2="333.5" y2="292.5"/>
<line class="st12" x1="172.7" y1="336.1" x2="320.4" y2="336.1"/>
<line class="st12" x1="172.7" y1="270" x2="282" y2="270"/>
<line class="st12" x1="343.3" y1="270" x2="540.8" y2="270"/>
<line class="st12" x1="333.5" y1="307.1" x2="408.9" y2="307.1"/>
<line class="st12" x1="172.7" y1="379.7" x2="476.5" y2="379.7"/>
<line class="st12" x1="257.7" y1="358.6" x2="354.1" y2="358.6"/>
<line class="st12" x1="172.7" y1="431.7" x2="599" y2="431.7"/>
<line class="st12" x1="361.1" y1="403.6" x2="476.5" y2="403.6"/>
<line class="st12" x1="221.9" y1="403.6" x2="313.6" y2="403.6"/>
<line class="st12" x1="236" y1="466.9" x2="343.3" y2="466.9"/>
<line class="st12" x1="371.2" y1="449.3" x2="452.5" y2="449.3"/>
<line class="st12" x1="385.9" y1="329" x2="560.3" y2="329"/>
<line class="st12" x1="476.5" y1="358.6" x2="587.6" y2="358.6"/>
<line class="st12" x1="385.9" y1="481" x2="516.4" y2="481"/>
<line class="st12" x1="236" y1="533" x2="320.4" y2="533"/>
<line class="st13" x1="130.3" y1="224.8" x2="284.4" y2="224.8"/>
<line class="st13" x1="229.8" y1="294.2" x2="335.8" y2="294.2"/>
<line class="st13" x1="175" y1="337.8" x2="322.7" y2="337.8"/>
<line class="st13" x1="175" y1="271.7" x2="284.4" y2="271.7"/>
<line class="st13" x1="345.6" y1="271.7" x2="543.1" y2="271.7"/>
<line class="st13" x1="335.8" y1="308.8" x2="411.3" y2="308.8"/>
<line class="st13" x1="175" y1="381.4" x2="478.7" y2="381.4"/>
<line class="st13" x1="259.9" y1="360.3" x2="356.4" y2="360.3"/>
<line class="st13" x1="175" y1="433.4" x2="601.3" y2="433.4"/>
<line class="st13" x1="363.5" y1="405.3" x2="478.7" y2="405.3"/>
<line class="st13" x1="224.2" y1="405.3" x2="315.9" y2="405.3"/>
<line class="st13" x1="238.3" y1="468.6" x2="345.6" y2="468.6"/>
<line class="st13" x1="373.5" y1="451" x2="454.8" y2="451"/>
<line class="st13" x1="388.1" y1="330.7" x2="562.5" y2="330.7"/>
<line class="st13" x1="478.7" y1="360.3" x2="589.8" y2="360.3"/>
<line class="st13" x1="388.1" y1="482.7" x2="518.7" y2="482.7"/>
<line class="st13" x1="238.3" y1="534.7" x2="322.7" y2="534.7"/>
<g>
	<path class="st9" d="M409.3,602.7c-21.9,0-39.9-17.9-39.9-39.9c0-21.9,17.9-39.9,39.9-39.9s39.9,17.9,39.9,39.9
		C449.2,584.8,431.3,602.7,409.3,602.7z"/>
	<path class="st8" d="M409.3,528.6c18.8,0,34.2,15.4,34.2,34.2c0,18.8-15.4,34.2-34.2,34.2s-34.2-15.4-34.2-34.2
		C375.1,544,390.5,528.6,409.3,528.6 M409.3,517.4c-25.1,0-45.5,20.4-45.5,45.5c0,25.1,20.4,45.5,45.5,45.5s45.5-20.4,45.5-45.5
		S434.4,517.4,409.3,517.4L409.3,517.4z"/>
</g>
<g>
	<circle class="st9" cx="402.4" cy="555.2" r="41.3"/>
	<path d="M402.4,518.1c20.4,0,37,16.6,37,37s-16.6,37-37,37c-20.4,0-37-16.6-37-37S381.9,518.1,402.4,518.1 M402.4,509.7
		c-25.1,0-45.5,20.4-45.5,45.5c0,25.1,20.4,45.5,45.5,45.5c25.1,0,45.5-20.4,45.5-45.5C447.9,530,427.5,509.7,402.4,509.7
		L402.4,509.7z"/>
</g>
</svg>
