<?xml version="1.0" encoding="utf-8"?>
<!-- Generator: Adobe Illustrator 26.3.1, SVG Export Plug-In . SVG Version: 6.00 Build 0)  -->
<svg version="1.1" id="Layer_1" xmlns="http://www.w3.org/2000/svg" xmlns:xlink="http://www.w3.org/1999/xlink" x="0px" y="0px"
	 viewBox="0 0 1000 1000" style="enable-background:new 0 0 1000 1000;" xml:space="preserve">
<style type="text/css">
	.st0{fill:#CCCCCC;}
	.st1{fill:#FFFFFF;}
	.st2{fill:#C1272D;stroke:#006E54;stroke-width:6;stroke-miterlimit:10;}
	.st3{fill:#FFFFFF;stroke:#000000;stroke-width:9;stroke-miterlimit:10;}
	.st4{fill:#CCCCCC;stroke:#CCCCCC;stroke-width:4;stroke-miterlimit:10;}
	.st5{fill:#E6E6E6;stroke:#CCCCCC;stroke-width:2;stroke-miterlimit:10;}
	.st6{fill:#006E54;stroke:#006054;stroke-width:2;stroke-miterlimit:10;}
	.st7{fill:#005354;stroke:#006054;stroke-width:4;stroke-miterlimit:10;}
	.st8{fill:#006E54;stroke:#006054;stroke-width:4;stroke-miterlimit:10;}
	.st9{fill:#C1272D;stroke:#C1272D;stroke-width:6;stroke-miterlimit:10;}
	.st10{fill:none;stroke:#006E54;stroke-width:8;stroke-miterlimit:10;}
</style>
<g>
	<path class="st0" d="M454.8,336.6H128.5c-30.9,0-56-25.1-56-56V172.5c0-30.9,25.1-56,56-56h326.2c30.9,0,56,25.1,56,56v108.1
		C510.7,311.5,485.7,336.6,454.8,336.6z"/>
</g>
<g>
	<path class="st0" d="M828.7,641.3H502.5c-30.9,0-56-25.1-56-56V477.2c0-30.9,25.1-56,56-56h326.2c30.9,0,56,25.1,56,56v108.1
		C884.7,616.3,859.6,641.3,828.7,641.3z"/>
</g>
<g>
	<path class="st1" d="M491.7,630.9c-29.8,0-54-24.2-54-54V468.8c0-29.8,24.2-54,54-54h326.2c29.8,0,54,24.2,54,54v108.1
		c0,29.8-24.2,54-54,54H491.7z"/>
	<path d="M817.9,416.8c28.7,0,52,23.3,52,52v108.1c0,28.7-23.3,52-52,52H491.7c-28.7,0-52-23.3-52-52V468.8c0-28.7,23.3-52,52-52
		H817.9 M817.9,412.8H491.7c-30.9,0-56,25.1-56,56v108.1c0,30.9,25.1,56,56,56h326.2c30.9,0,56-25.1,56-56V468.8
		C873.9,437.9,848.8,412.8,817.9,412.8L817.9,412.8z"/>
</g>
<line class="st2" x1="768.7" y1="434.5" x2="768.7" y2="465.1"/>
<line class="st2" x1="780" y1="434.5" x2="780" y2="465.1"/>
<line class="st2" x1="792.8" y1="434.5" x2="792.8" y2="465.1"/>
<line class="st2" x1="804.8" y1="434.5" x2="804.8" y2="465.1"/>
<line class="st2" x1="817.3" y1="434.5" x2="817.3" y2="465.1"/>
<line class="st2" x1="829.3" y1="434.5" x2="829.3" y2="465.1"/>
<line class="st3" x1="479.6" y1="441.4" x2="543.3" y2="441.4"/>
<line class="st4" x1="479.6" y1="482.9" x2="552.4" y2="482.9"/>
<line class="st4" x1="573.7" y1="482.9" x2="636.4" y2="482.9"/>
<line class="st4" x1="660.7" y1="482.9" x2="719.4" y2="482.9"/>
<line class="st4" x1="744.7" y1="482.9" x2="798.3" y2="482.9"/>
<line class="st4" x1="479.6" y1="495" x2="537.2" y2="495"/>
<line class="st4" x1="548.4" y1="495" x2="624.3" y2="495"/>
<line class="st4" x1="636.4" y1="495" x2="701.2" y2="495"/>
<line class="st4" x1="713.3" y1="495" x2="771.5" y2="495"/>
<line class="st4" x1="479.6" y1="506.2" x2="552.4" y2="506.2"/>
<line class="st4" x1="567.6" y1="506.2" x2="624.3" y2="506.2"/>
<line class="st4" x1="636.4" y1="506.2" x2="724.4" y2="506.2"/>
<line class="st4" x1="740.1" y1="506.2" x2="817.3" y2="506.2"/>
<line class="st4" x1="479.6" y1="518.3" x2="537.2" y2="518.3"/>
<path class="st5" d="M727.5,610.4h-68.8c-7,0-12.6-5.7-12.6-12.6l0,0c0-7,5.7-12.6,12.6-12.6h68.8c7,0,12.6,5.7,12.6,12.6l0,0
	C740.1,604.7,734.5,610.4,727.5,610.4z"/>
<path class="st6" d="M832.7,610.4h-68.8c-7,0-12.6-5.7-12.6-12.6l0,0c0-7,5.7-12.6,12.6-12.6h68.8c7,0,12.6,5.7,12.6,12.6l0,0
	C845.4,604.7,839.7,610.4,832.7,610.4z"/>
<line class="st5" x1="654.8" y1="597.7" x2="668.8" y2="597.7"/>
<line class="st5" x1="673" y1="597.7" x2="713.3" y2="597.7"/>
<line class="st5" x1="722.4" y1="597.7" x2="730.3" y2="597.7"/>
<line class="st7" x1="757.9" y1="597.7" x2="780" y2="597.7"/>
<line class="st7" x1="785.3" y1="597.7" x2="801.5" y2="597.7"/>
<line class="st7" x1="806.9" y1="597.7" x2="836.3" y2="597.7"/>
<line class="st8" x1="728.8" y1="449.8" x2="751.5" y2="449.8"/>
<line class="st8" x1="740.1" y1="461.2" x2="740.1" y2="438.5"/>
<g>
	<path class="st1" d="M117.7,326.2c-29.8,0-54-24.2-54-54V164.1c0-29.8,24.2-54,54-54H444c29.8,0,54,24.2,54,54v108.1
		c0,29.8-24.2,54-54,54H117.7z"/>
	<path d="M444,112.1c28.7,0,52,23.3,52,52v108.1c0,28.7-23.3,52-52,52H117.7c-28.7,0-52-23.3-52-52V164.1c0-28.7,23.3-52,52-52H444
		 M444,108.1H117.7c-30.9,0-56,25.1-56,56v108.1c0,30.9,25.1,56,56,56H444c30.9,0,56-25.1,56-56V164.1
		C499.9,133.2,474.9,108.1,444,108.1L444,108.1z"/>
</g>
<line class="st9" x1="356.4" y1="145.1" x2="376" y2="145.1"/>
<line class="st9" x1="394.7" y1="129.8" x2="394.7" y2="160.4"/>
<line class="st9" x1="406" y1="129.8" x2="406" y2="160.4"/>
<line class="st9" x1="418.9" y1="129.8" x2="418.9" y2="160.4"/>
<line class="st9" x1="430.9" y1="129.8" x2="430.9" y2="160.4"/>
<line class="st9" x1="443.3" y1="129.8" x2="443.3" y2="160.4"/>
<line class="st9" x1="455.4" y1="129.8" x2="455.4" y2="160.4"/>
<line class="st3" x1="105.6" y1="136.7" x2="169.4" y2="136.7"/>
<line class="st3" x1="193.6" y1="136.7" x2="267.5" y2="136.7"/>
<line class="st4" x1="105.6" y1="178.2" x2="178.5" y2="178.2"/>
<line class="st4" x1="199.7" y1="178.2" x2="262.5" y2="178.2"/>
<line class="st4" x1="286.7" y1="178.2" x2="345.4" y2="178.2"/>
<line class="st4" x1="370.7" y1="178.2" x2="424.4" y2="178.2"/>
<line class="st4" x1="105.6" y1="190.3" x2="163.3" y2="190.3"/>
<line class="st4" x1="174.4" y1="190.3" x2="250.3" y2="190.3"/>
<line class="st4" x1="262.5" y1="190.3" x2="327.2" y2="190.3"/>
<line class="st4" x1="339.4" y1="190.3" x2="397.5" y2="190.3"/>
<line class="st4" x1="105.6" y1="201.5" x2="178.5" y2="201.5"/>
<line class="st4" x1="193.6" y1="201.5" x2="250.3" y2="201.5"/>
<line class="st4" x1="262.5" y1="201.5" x2="350.5" y2="201.5"/>
<line class="st4" x1="366.2" y1="201.5" x2="443.3" y2="201.5"/>
<line class="st4" x1="105.6" y1="213.6" x2="163.3" y2="213.6"/>
<path class="st5" d="M353.5,305.6h-68.8c-7,0-12.6-5.7-12.6-12.6v0c0-7,5.7-12.6,12.6-12.6h68.8c7,0,12.6,5.7,12.6,12.6v0
	C366.2,300,360.5,305.6,353.5,305.6z"/>
<path class="st6" d="M458.8,305.6H390c-7,0-12.6-5.7-12.6-12.6v0c0-7,5.7-12.6,12.6-12.6h68.8c7,0,12.6,5.7,12.6,12.6v0
	C471.4,300,465.8,305.6,458.8,305.6z"/>
<line class="st5" x1="280.8" y1="293" x2="294.8" y2="293"/>
<line class="st5" x1="299.1" y1="293" x2="339.4" y2="293"/>
<line class="st5" x1="348.5" y1="293" x2="356.4" y2="293"/>
<line class="st7" x1="384" y1="293" x2="406" y2="293"/>
<line class="st7" x1="411.4" y1="293" x2="427.6" y2="293"/>
<line class="st7" x1="433" y1="293" x2="462.3" y2="293"/>
<g>
	<path class="st0" d="M922.6,687.8H596.4c-30.9,0-56-25.1-56-56V523.7c0-30.9,25.1-56,56-56h326.2c30.9,0,56,25.1,56,56v108.1
		C978.6,662.8,953.5,687.8,922.6,687.8z"/>
</g>
<g>
	<path class="st1" d="M586.5,677.4c-29.8,0-54-24.2-54-54V515.3c0-29.8,24.2-54,54-54h326.2c29.8,0,54,24.2,54,54v108.1
		c0,29.8-24.2,54-54,54H586.5z"/>
	<path d="M912.7,463.3c28.7,0,52,23.3,52,52v108.1c0,28.7-23.3,52-52,52H586.5c-28.7,0-52-23.3-52-52V515.3c0-28.7,23.3-52,52-52
		H912.7 M912.7,459.3H586.5c-30.9,0-56,25.1-56,56v108.1c0,30.9,25.1,56,56,56h326.2c30.9,0,56-25.1,56-56V515.3
		C968.7,484.4,943.6,459.3,912.7,459.3L912.7,459.3z"/>
</g>
<line class="st2" x1="862.5" y1="481" x2="862.5" y2="511.6"/>
<line class="st2" x1="849" y1="481" x2="849" y2="511.6"/>
<line class="st2" x1="873.9" y1="481" x2="873.9" y2="511.6"/>
<line class="st2" x1="886.7" y1="481" x2="886.7" y2="511.6"/>
<line class="st2" x1="898.7" y1="481" x2="898.7" y2="511.6"/>
<line class="st2" x1="911.1" y1="481" x2="911.1" y2="511.6"/>
<line class="st2" x1="923.2" y1="481" x2="923.2" y2="511.6"/>
<line class="st2" x1="934.6" y1="481" x2="934.6" y2="511.6"/>
<line class="st3" x1="573.4" y1="487.9" x2="637.2" y2="487.9"/>
<line class="st3" x1="654" y1="487.9" x2="706.3" y2="487.9"/>
<line class="st3" x1="722.5" y1="487.9" x2="774.8" y2="487.9"/>
<line class="st4" x1="573.4" y1="529.4" x2="631.1" y2="529.4"/>
<line class="st4" x1="637.2" y1="529.4" x2="730.3" y2="529.4"/>
<line class="st4" x1="754.6" y1="529.4" x2="813.3" y2="529.4"/>
<line class="st4" x1="838.6" y1="529.4" x2="892.2" y2="529.4"/>
<line class="st4" x1="573.4" y1="541.6" x2="631.1" y2="541.6"/>
<line class="st4" x1="686.9" y1="541.6" x2="718.1" y2="541.6"/>
<line class="st4" x1="646.3" y1="541.6" x2="677.5" y2="541.6"/>
<line class="st4" x1="730.3" y1="541.6" x2="783.9" y2="541.6"/>
<line class="st4" x1="797.5" y1="541.6" x2="879.2" y2="541.6"/>
<line class="st4" x1="573.4" y1="552.7" x2="646.3" y2="552.7"/>
<line class="st4" x1="661.5" y1="552.7" x2="718.1" y2="552.7"/>
<line class="st4" x1="730.3" y1="552.7" x2="818.3" y2="552.7"/>
<line class="st4" x1="834" y1="552.7" x2="911.1" y2="552.7"/>
<line class="st4" x1="573.4" y1="564.8" x2="631.1" y2="564.8"/>
<line class="st4" x1="642.3" y1="564.8" x2="700" y2="564.8"/>
<path class="st5" d="M821.3,656.9h-68.8c-7,0-12.6-5.7-12.6-12.6l0,0c0-7,5.7-12.6,12.6-12.6h68.8c7,0,12.6,5.7,12.6,12.6l0,0
	C834,651.2,828.3,656.9,821.3,656.9z"/>
<path class="st6" d="M926.6,656.9h-68.8c-7,0-12.6-5.7-12.6-12.6l0,0c0-7,5.7-12.6,12.6-12.6h68.8c7,0,12.6,5.7,12.6,12.6l0,0
	C939.2,651.2,933.6,656.9,926.6,656.9z"/>
<line class="st5" x1="748.7" y1="644.2" x2="762.7" y2="644.2"/>
<line class="st5" x1="766.9" y1="644.2" x2="807.2" y2="644.2"/>
<line class="st5" x1="816.3" y1="644.2" x2="824.2" y2="644.2"/>
<line class="st7" x1="851.8" y1="644.2" x2="873.9" y2="644.2"/>
<line class="st7" x1="879.2" y1="644.2" x2="895.4" y2="644.2"/>
<line class="st7" x1="900.8" y1="644.2" x2="930.1" y2="644.2"/>
<line class="st8" x1="812.8" y1="496.3" x2="835.5" y2="496.3"/>
<line class="st8" x1="824.2" y1="507.7" x2="824.2" y2="485"/>
<path class="st10" d="M538.7,220.5c18.4,0.9,144.1,8.6,193.1,98c6.2,11.2,11.8,25.1,15.4,41.9"/>
<path class="st10" d="M714,358.6c0,0,11.9,29.8,39,22.6c27.1-7.3,21.9-37.8,21.9-37.8"/>
<g>
	<path class="st0" d="M731,745.8H404.7c-30.9,0-56-25.1-56-56V581.7c0-30.9,25.1-56,56-56H731c30.9,0,56,25.1,56,56v108.1
		C787,720.7,761.9,745.8,731,745.8z"/>
</g>
<g>
	<path class="st1" d="M394.9,735.4c-29.8,0-54-24.2-54-54V573.3c0-29.8,24.2-54,54-54h326.2c29.8,0,54,24.2,54,54v108.1
		c0,29.8-24.2,54-54,54H394.9z"/>
	<path d="M721.1,521.3c28.7,0,52,23.3,52,52v108.1c0,28.7-23.3,52-52,52H394.9c-28.7,0-52-23.3-52-52V573.3c0-28.7,23.3-52,52-52
		H721.1 M721.1,517.3H394.9c-30.9,0-56,25.1-56,56v108.1c0,30.9,25.1,56,56,56h326.2c30.9,0,56-25.1,56-56V573.3
		C777.1,542.4,752,517.3,721.1,517.3L721.1,517.3z"/>
</g>
<line class="st2" x1="670.9" y1="539" x2="670.9" y2="569.6"/>
<line class="st2" x1="657.4" y1="539" x2="657.4" y2="569.6"/>
<line class="st2" x1="682.3" y1="539" x2="682.3" y2="569.6"/>
<line class="st2" x1="695.1" y1="539" x2="695.1" y2="569.6"/>
<line class="st2" x1="707.1" y1="539" x2="707.1" y2="569.6"/>
<line class="st2" x1="719.5" y1="539" x2="719.5" y2="569.6"/>
<line class="st2" x1="731.6" y1="539" x2="731.6" y2="569.6"/>
<line class="st3" x1="381.8" y1="545.9" x2="445.6" y2="545.9"/>
<line class="st3" x1="462.4" y1="545.9" x2="514.7" y2="545.9"/>
<line class="st4" x1="381.8" y1="587.4" x2="439.5" y2="587.4"/>
<line class="st4" x1="453.5" y1="587.4" x2="553.5" y2="587.4"/>
<line class="st4" x1="563" y1="587.4" x2="595.4" y2="587.4"/>
<line class="st4" x1="602.3" y1="587.4" x2="634.7" y2="587.4"/>
<line class="st4" x1="646.9" y1="587.4" x2="686.3" y2="587.4"/>
<line class="st4" x1="381.8" y1="599.5" x2="439.5" y2="599.5"/>
<line class="st4" x1="495.3" y1="599.5" x2="544" y2="599.5"/>
<line class="st4" x1="454.7" y1="599.5" x2="485.9" y2="599.5"/>
<line class="st4" x1="557.1" y1="599.5" x2="592.3" y2="599.5"/>
<line class="st4" x1="605.9" y1="599.5" x2="687.6" y2="599.5"/>
<line class="st4" x1="381.8" y1="610.7" x2="418.2" y2="610.7"/>
<line class="st4" x1="426.2" y1="610.7" x2="526.5" y2="610.7"/>
<line class="st4" x1="538.7" y1="610.7" x2="626.7" y2="610.7"/>
<line class="st4" x1="642.4" y1="610.7" x2="730.3" y2="610.7"/>
<line class="st4" x1="381.8" y1="622.8" x2="439.5" y2="622.8"/>
<line class="st4" x1="450.7" y1="622.8" x2="508.4" y2="622.8"/>
<path class="st5" d="M629.7,714.8h-68.8c-7,0-12.6-5.7-12.6-12.6v0c0-7,5.7-12.6,12.6-12.6h68.8c7,0,12.6,5.7,12.6,12.6v0
	C642.4,709.2,636.7,714.8,629.7,714.8z"/>
<path class="st6" d="M735,714.8h-68.8c-7,0-12.6-5.7-12.6-12.6v0c0-7,5.7-12.6,12.6-12.6H735c7,0,12.6,5.7,12.6,12.6v0
	C747.6,709.2,742,714.8,735,714.8z"/>
<line class="st5" x1="557.1" y1="702.2" x2="571.1" y2="702.2"/>
<line class="st5" x1="575.3" y1="702.2" x2="615.6" y2="702.2"/>
<line class="st5" x1="624.7" y1="702.2" x2="632.6" y2="702.2"/>
<line class="st7" x1="660.2" y1="702.2" x2="682.3" y2="702.2"/>
<line class="st7" x1="687.6" y1="702.2" x2="703.8" y2="702.2"/>
<line class="st7" x1="709.2" y1="702.2" x2="738.5" y2="702.2"/>
<line class="st8" x1="621.2" y1="554.3" x2="643.9" y2="554.3"/>
<line class="st8" x1="632.6" y1="565.6" x2="632.6" y2="543"/>
</svg>
