<?xml version="1.0" encoding="utf-8"?>
<!-- Generator: Adobe Illustrator 26.3.1, SVG Export Plug-In . SVG Version: 6.00 Build 0)  -->
<svg version="1.1" id="Layer_1" xmlns="http://www.w3.org/2000/svg" xmlns:xlink="http://www.w3.org/1999/xlink" x="0px" y="0px"
	 viewBox="0 0 1366 768" style="enable-background:new 0 0 1366 768;" xml:space="preserve">
<style type="text/css">
	.st0{fill:#1E2952;}
	.st1{fill:#1E2952;stroke:#FFFFFF;stroke-width:6;stroke-miterlimit:10;}
	.st2{fill:#880808;}
</style>
<g>
	<path class="st0" d="M521.2,336.6l-40.3,7.8c-6.5,1.3-12.8-3-14.1-9.5l-43.3-223.9c-1.3-6.5,3-12.8,9.5-14.1l40.3-7.8
		c6.5-1.3,12.8,3,14.1,9.5l43.3,223.9C531.9,329.1,527.6,335.4,521.2,336.6z"/>
	<path class="st0" d="M440.5,310.6l-20.3,3.9c-6.5,1.3-12.8-3-14.1-9.5l-28.3-146.5c-1.3-6.5,3-12.8,9.5-14.1l20.3-3.9
		c6.5-1.3,12.8,3,14.1,9.5L450,296.5C451.3,303,447,309.3,440.5,310.6z"/>
	<path class="st0" d="M381.6,295.7l-4.4,0.9c-6.5,1.3-12.8-3-14.1-9.5l-16.4-84.9c-1.3-6.5,3-12.8,9.5-14.1l4.4-0.9
		c6.5-1.3,12.8,3,14.1,9.5l16.4,84.9C392.4,288.1,388.1,294.5,381.6,295.7z"/>
	<path class="st0" d="M509.6,173.5l11.9,60.4c44.2-10.5,100.8-19.9,167-21c62.7-1,117,5.7,160,14c3.3-19,6.7-38,10-57
		c-48.9-7.8-107.6-13.6-174-13C617.6,157.5,558.6,164.6,509.6,173.5z"/>
	<path class="st0" d="M845.1,347.2l40.3,7.8c6.5,1.3,12.8-3,14.1-9.5l43.3-223.9c1.3-6.5-3-12.8-9.5-14.1l-40.3-7.8
		c-6.5-1.3-12.8,3-14.1,9.5l-43.3,223.9C834.3,339.6,838.6,345.9,845.1,347.2z"/>
	<path class="st0" d="M925.7,321.1L946,325c6.5,1.3,12.8-3,14.1-9.5L988.4,169c1.3-6.5-3-12.8-9.5-14.1l-20.3-3.9
		c-6.5-1.3-12.8,3-14.1,9.5L916.2,307C914.9,313.5,919.2,319.9,925.7,321.1z"/>
	<path class="st0" d="M984.6,306.2l4.4,0.9c6.5,1.3,12.8-3,14.1-9.5l16.4-84.9c1.3-6.5-3-12.8-9.5-14.1l-4.4-0.9
		c-6.5-1.3-12.8,3-14.1,9.5l-16.4,84.9C973.8,298.6,978.1,305,984.6,306.2z"/>
</g>
<path class="st1" d="M712.6,220.4L712.6,220.4c-10.9,0-19.8-8.9-19.8-19.8v-87.4c0-10.9,8.9-19.8,19.8-19.8h0
	c10.9,0,19.8,8.9,19.8,19.8v87.4C732.3,211.5,723.4,220.4,712.6,220.4z"/>
<path class="st1" d="M758.6,206.4L758.6,206.4c-10.9,0-19.8-8.9-19.8-19.8v-63.1c0-10.9,8.9-19.8,19.8-19.8h0
	c10.9,0,19.8,8.9,19.8,19.8v63.1C778.3,197.5,769.4,206.4,758.6,206.4z"/>
<path class="st1" d="M667.2,228.4L667.2,228.4c-10.9,0-19.8-8.9-19.8-19.8v-104c0-10.9,8.9-19.8,19.8-19.8h0
	c10.9,0,19.8,8.9,19.8,19.8v104C687,219.5,678.1,228.4,667.2,228.4z"/>
<path class="st1" d="M618.6,219.4L618.6,219.4c-12.4,0-22.6-10.2-22.6-22.6V117c0-12.4,10.2-22.6,22.6-22.6l0,0
	c12.4,0,22.6,10.2,22.6,22.6v79.8C641.2,209.2,631,219.4,618.6,219.4z"/>
<path class="st1" d="M654,203.4c-2.1,0-6.9,0-9,0c-8.7,0-9,0-10,0c-10.8,0.1-17.8,0.2-18.2,1.8c-0.5,2.3,12.9,4.3,27.7,15.7
	c4.5,3.5,7.9,6.9,9.5,8.5c1.5,1.5,7.4,7.4,13.7,16.7c3.7,5.4,8.2,12.9,12.3,22.3c2.2-5,4.3-9,6-12c2.3-4.1,4-6.9,6.8-10.2
	c3.1-3.7,5.9-6,7.8-7.5c7.3-5.8,14.3-8.8,19.3-10.9c0.3-0.1,0.7-0.3,1.1-0.4c15.5-5.9,38.2-6.7,38.2-6.7c10-0.3,24,0.2,40.7,3.5
	c0.1,5.3-0.2,13.5-3,23c-3.5,12-9.1,20-19,34.4c-6,8.7-11.1,15.1-16,21c-8.3,10.2-15.6,18.2-20.7,23.7c0,12.9,0,25.9,0,38.8H635.6
	V325c-45.9-23.5-56.2-92.1-64.6-123.4c-8.4-31.3,21.5-31.2,21.5-31.2H660c0,0,5.7,0,8.9,4.5c3.1,4.4,2.1,10,1.6,12.2
	c0,0-0.1,0.4-0.2,0.7C668.6,193.7,658.7,200.4,654,203.4z"/>
<g>
	<g>
		<path class="st2" d="M439.7,594.2c0,17.5-0.1,35-0.1,52.5c0.7,0,1.3,0.1,2,0.1c0,4.2,0,8.3,0,12.5c-0.7-0.1-1.3-0.1-2-0.2
			c0,22.5-0.1,45-0.1,67.5c-5.1-0.8-10.2-1.6-15.3-2.5c0-47.5,0-94.9,0-142.4c5.9,0,11.8,0,17.6,0.1c0,4.1,0,8.3,0,12.4
			C441,594.2,440.4,594.2,439.7,594.2z"/>
		<path class="st2" d="M454.7,581.8c5.2,0,10.4,0,15.6,0.1c-0.2,49.7-0.5,99.3-0.7,149c-5.1-0.6-10.3-1.3-15.4-2.1
			C454.4,679.8,454.5,630.8,454.7,581.8z"/>
		<path class="st2" d="M502.7,595.1c-0.7,0-1.3,0-2,0c-0.3,46.4-0.6,92.8-0.9,139.3c-5.2-0.5-10.4-1.1-15.5-1.7
			c0.3-46,0.5-91.9,0.8-137.8c-0.7,0-1.3,0-2,0c0-4.3,0-8.6,0.1-12.9c6.5,0,13.1,0,19.6,0.1C502.8,586.3,502.8,590.7,502.7,595.1z"
			/>
		<path class="st2" d="M566.5,582.2c-0.3,52.4-0.7,104.7-1,157.1c-9.1-0.5-18.2-1.1-27.2-1.7c-0.8-0.1-1.6-0.3-2.4-0.7
			c-0.7-0.4-1.4-0.9-1.9-1.6c-0.5-0.6-1-1.4-1.3-2.2c-0.3-0.8-0.5-1.7-0.5-2.6c0.3-45.1,0.6-90.1,1-135.1c-0.7,0-1.3,0-2,0
			c-0.3,47.2-0.7,94.4-1,141.6c-5.2-0.4-10.4-0.8-15.6-1.3c0.3-46.9,0.6-93.7,1-140.5c0-2.2,0-4.4,0-6.6c0-2.2,0-4.4,0-6.6
			c9.1,0,18.1,0.1,27.2,0.1c0.8,0,1.6,0.2,2.4,0.5c0.7,0.4,1.4,0.8,1.9,1.4c0.5,0.6,1,1.3,1.3,2.1c0.3,0.8,0.5,1.7,0.5,2.6
			c-0.3,45.3-0.6,90.7-0.9,136.1c0.7,0,1.3,0.1,2,0.1c0.3-47.6,0.7-95.2,1-142.8C556.1,582.2,561.3,582.2,566.5,582.2z"/>
		<path class="st2" d="M595.2,595.9c-0.1,19.1-0.2,38.3-0.3,57.4c0.7,0,1.4,0,2,0c0,4.5,0,9.1-0.1,13.6c-0.7,0-1.4,0-2,0
			c-0.1,20.1-0.2,40.2-0.3,60.2c0.7,0,1.4,0,2,0.1c0,4.5,0,9.1-0.1,13.6c-0.7,0-1.4-0.1-2-0.1c-5.2-0.2-10.5-0.4-15.7-0.7
			c0.3-52.6,0.6-105.2,1-157.8c5.9,0,11.8,0,17.6,0.1c0,4.5,0,9.1-0.1,13.6C596.5,595.9,595.8,595.9,595.2,595.9z"/>
		<path class="st2" d="M627.6,651.5c0.1-18.5,0.1-37,0.2-55.5c-0.7,0-1.4,0-2,0c-0.1,19.2-0.2,38.5-0.2,57.7
			c5.9,0.1,11.8,0.1,17.7,0.2c-0.1,27.1-0.2,54.1-0.2,81.2c0,0.9-0.2,1.8-0.5,2.7c-0.3,0.8-0.8,1.5-1.3,2.2
			c-0.6,0.6-1.2,1.1-1.9,1.4c-0.7,0.3-1.5,0.5-2.4,0.5c-7.1-0.1-14.2-0.3-21.3-0.5c-0.8,0-1.6-0.2-2.4-0.6c-0.7-0.4-1.4-0.9-1.9-1.5
			c-0.5-0.6-1-1.4-1.3-2.2c-0.3-0.8-0.5-1.7-0.5-2.7c0.1-21.7,0.2-43.3,0.3-65c5.2,0.1,10.5,0.2,15.7,0.3
			c-0.1,19.4-0.2,38.9-0.2,58.3c0.7,0,1.4,0,2,0c0.1-20.2,0.2-40.4,0.2-60.6c-5.9-0.1-11.8-0.2-17.7-0.3c0.1-26,0.2-52,0.4-78
			c0-0.9,0.2-1.8,0.5-2.6c0.3-0.8,0.8-1.5,1.3-2.1c0.6-0.6,1.2-1.1,1.9-1.5c0.7-0.4,1.5-0.5,2.4-0.5c7,0,14.1,0,21.1,0.1
			c0.8,0,1.6,0.2,2.4,0.5c0.7,0.4,1.4,0.9,1.9,1.5c0.5,0.6,1,1.3,1.3,2.2c0.3,0.8,0.5,1.7,0.5,2.7c-0.1,20.8-0.1,41.6-0.2,62.4
			C638,651.6,632.8,651.6,627.6,651.5z"/>
		<path class="st2" d="M673.9,651.9c0-18.5,0-37.1,0-55.6c-0.7,0-1.4,0-2,0c0,19.3,0,38.6-0.1,57.9c5.9,0,11.8,0,17.7,0
			c0,27.1,0,54.2,0,81.2c0,0.9-0.2,1.8-0.5,2.7c-0.3,0.8-0.8,1.6-1.3,2.2c-0.6,0.6-1.2,1.1-1.9,1.5c-0.7,0.4-1.5,0.5-2.4,0.5
			c-7.1,0-14.2,0-21.4,0c-0.8,0-1.6-0.2-2.4-0.6c-0.7-0.4-1.4-0.9-1.9-1.5c-0.6-0.6-1-1.4-1.3-2.2c-0.3-0.8-0.5-1.7-0.5-2.7
			c0-21.8,0.1-43.5,0.1-65.3c5.2,0,10.5,0.1,15.7,0.1c0,19.5,0,39-0.1,58.5c0.7,0,1.4,0,2,0c0-20.2,0-40.5,0-60.7
			c-5.9,0-11.8,0-17.7-0.1c0.1-26.1,0.1-52.3,0.2-78.4c0-0.9,0.2-1.8,0.5-2.7c0.3-0.8,0.8-1.5,1.3-2.2c0.5-0.6,1.2-1.1,1.9-1.5
			c0.7-0.4,1.5-0.5,2.4-0.5c7,0,14.1,0,21.1,0.1c0.8,0,1.6,0.2,2.4,0.5c0.7,0.4,1.4,0.9,1.9,1.5c0.5,0.6,1,1.3,1.3,2.2
			c0.3,0.8,0.5,1.7,0.5,2.7c0,20.8,0,41.6,0,62.4C684.4,651.9,679.1,651.9,673.9,651.9z"/>
		<path class="st2" d="M746.8,659.7c-0.1-21.1-0.2-42.2-0.3-63.3c-0.7,0-1.4,0-2,0c0.2,43.8,0.3,87.5,0.5,131.3c0.7,0,1.4,0,2-0.1
			c-0.1-21.9-0.2-43.8-0.3-65.6c5.2-0.1,10.4-0.2,15.7-0.2c0.1,24,0.2,48.1,0.4,72.1c0,0.9-0.2,1.8-0.5,2.7
			c-0.3,0.8-0.7,1.6-1.3,2.2c-0.5,0.6-1.2,1.1-1.9,1.5c-0.7,0.4-1.5,0.6-2.4,0.6c-7.1,0.2-14.2,0.5-21.3,0.6c-0.8,0-1.6-0.1-2.4-0.5
			c-0.7-0.3-1.4-0.8-1.9-1.4c-0.6-0.6-1-1.3-1.3-2.1c-0.3-0.8-0.5-1.7-0.5-2.7c-0.1-48.4-0.3-96.9-0.4-145.3c0-0.9,0.2-1.8,0.5-2.6
			c0.3-0.8,0.7-1.5,1.3-2.2c0.5-0.6,1.2-1.1,1.9-1.5c0.7-0.4,1.5-0.5,2.4-0.5c7,0,14.1,0,21.1,0.1c0.8,0,1.6,0.2,2.4,0.5
			c0.7,0.4,1.4,0.8,1.9,1.5c0.5,0.6,1,1.3,1.3,2.1c0.3,0.8,0.5,1.7,0.5,2.6c0.1,23.3,0.2,46.6,0.3,69.9
			C757.3,659.6,752.1,659.7,746.8,659.7z"/>
		<path class="st2" d="M809.3,731.7c0,0.9-0.1,1.8-0.5,2.6c-0.3,0.8-0.7,1.6-1.3,2.2c-0.5,0.6-1.2,1.2-1.9,1.5
			c-0.7,0.4-1.5,0.6-2.4,0.7c-7.1,0.4-14.1,0.8-21.2,1.1c-0.8,0-1.6-0.1-2.4-0.4c-0.7-0.3-1.4-0.8-1.9-1.4c-0.6-0.6-1-1.3-1.3-2.1
			c-0.3-0.8-0.5-1.7-0.5-2.6c-0.3-47.9-0.5-95.9-0.8-143.8c0-0.9,0.1-1.8,0.5-2.6c0.3-0.8,0.7-1.5,1.3-2.1c0.5-0.6,1.2-1.1,1.9-1.4
			c0.7-0.4,1.5-0.5,2.4-0.5c7,0,14.1,0,21.1,0.1c0.8,0,1.6,0.2,2.4,0.5c0.7,0.4,1.4,0.8,1.9,1.4c0.6,0.6,1,1.3,1.3,2.1
			c0.3,0.8,0.5,1.7,0.5,2.6C808.6,637,808.9,684.3,809.3,731.7z M791.5,726c0.7,0,1.4-0.1,2-0.1c-0.3-43.2-0.5-86.4-0.8-129.5
			c-0.7,0-1.4,0-2,0C791,639.6,791.2,682.8,791.5,726z"/>
		<path class="st2" d="M855.4,734.8c-5.2,0.5-10.4,0.9-15.6,1.3c-0.2-22.9-0.3-45.8-0.5-68.6c-0.7,0-1.4,0.1-2,0.1
			c0.2,22.9,0.3,45.8,0.5,68.7c-5.2,0.4-10.4,0.8-15.6,1.2c-0.3-49.3-0.7-98.6-1-147.9c0-0.9,0.1-1.8,0.5-2.6
			c0.3-0.8,0.7-1.5,1.3-2.1c0.5-0.6,1.2-1.1,1.9-1.4c0.7-0.3,1.5-0.5,2.4-0.5c7,0,14.1,0,21.1,0.1c0.8,0,1.6,0.2,2.4,0.5
			c0.7,0.3,1.4,0.8,1.9,1.4c0.6,0.6,1,1.3,1.3,2.1c0.3,0.8,0.5,1.6,0.5,2.5C854.8,638,855.1,686.4,855.4,734.8z M839.3,654.4
			c-0.1-19.4-0.3-38.8-0.4-58.2c-0.7,0-1.4,0-2,0c0.1,19.4,0.3,38.8,0.4,58.3C837.9,654.5,838.6,654.4,839.3,654.4z"/>
		<path class="st2" d="M885.3,655.3c-0.1-19.8-0.2-39.6-0.4-59.4c-0.7,0-1.4,0-2,0c0.3,41.1,0.5,82.1,0.8,123.2
			c0.7-0.1,1.3-0.1,2-0.2c-0.1-20.5-0.2-41-0.4-61.5c5.2-0.3,10.4-0.6,15.5-0.9c0.1,22.3,0.2,44.7,0.3,67c0,0.9-0.1,1.7-0.5,2.5
			c-0.3,0.8-0.7,1.5-1.3,2.2c-0.5,0.6-1.2,1.2-1.9,1.6c-0.7,0.4-1.5,0.7-2.3,0.8c-7,0.9-14,1.6-21,2.4c-0.8,0.1-1.6,0-2.4-0.3
			c-0.7-0.3-1.4-0.7-1.9-1.2c-0.5-0.5-1-1.2-1.3-1.9c-0.3-0.8-0.5-1.6-0.5-2.5c-0.3-45.9-0.6-91.7-0.9-137.5c0-0.9,0.1-1.7,0.5-2.5
			c0.3-0.8,0.7-1.5,1.3-2c0.5-0.6,1.2-1,1.9-1.4c0.7-0.3,1.5-0.5,2.4-0.5c7,0,14.1,0,21.1,0.1c0.8,0,1.6,0.2,2.4,0.5
			c0.7,0.3,1.4,0.8,1.9,1.4c0.5,0.6,1,1.2,1.3,2c0.3,0.8,0.5,1.6,0.5,2.4c0.1,21.6,0.2,43.3,0.3,64.9
			C895.7,654.8,890.5,655.1,885.3,655.3z"/>
		<path class="st2" d="M946.6,583.5c0,46.5,0,93.1,0,139.6c-5.1,0.9-10.2,1.7-15.3,2.5c0-22.1-0.1-44.2-0.1-66.2
			c-0.7,0.1-1.3,0.1-2,0.2c0.1,22.1,0.1,44.3,0.2,66.4c-5.1,0.8-10.2,1.5-15.4,2.3c-0.2-48.3-0.4-96.5-0.6-144.8
			c5.2,0,10.4,0,15.6,0.1c0.1,21.3,0.1,42.6,0.2,63.8c0.7,0,1.3-0.1,2-0.1c0-21.2-0.1-42.5-0.1-63.7
			C936.2,583.4,941.4,583.5,946.6,583.5z"/>
	</g>
</g>
<g>
	<g>
		<path class="st0" d="M103.7,448.8c6.5,2.4,11.6,6.7,15.3,12.7c3.7,6,5.6,13.4,5.8,22.1c0.2,8.6-1.4,16.3-4.8,23
			c-3.4,6.6-8.4,11.8-14.9,15.5c-6.5,3.7-14.2,5.6-23.1,6c-4.6,0.2-9.2,0.4-13.9,0.6c0.1,8.6,0.2,17.1,0.3,25.7
			c-10.9,0.1-21.8,0.2-32.7,0.2c0-33,0-65.9,0-98.9c15-3.1,30.1-5.9,45.2-8.4C89.6,445.9,97.2,446.4,103.7,448.8z M89.3,496.3
			c2.1-2.4,3.2-5.6,3.1-9.7c-0.1-4-1.2-7.1-3.4-9c-2.2-2-5.5-2.7-9.8-2.1c-3.9,0.5-7.8,1-11.6,1.5c0.1,8.2,0.2,16.4,0.2,24.5
			c3.9-0.4,7.8-0.7,11.7-1C83.9,500.1,87.2,498.7,89.3,496.3z"/>
		<path class="st0" d="M224.2,545.5c-5,3.4-11.2,6.1-18.4,8c-7.2,1.9-14.6,2.9-22.2,2.9c-10.9,0-20.2-1.5-27.9-4.5
			c-7.7-3-13.5-7.1-17.6-12.4c-4-5.3-6.1-11.4-6.3-18.3c-0.1-5.7,1-11,3.5-15.7c2.5-4.7,6.1-8.5,10.9-11.4c-3.7-2.2-6.6-5.2-8.5-8.9
			c-2-3.7-3-7.9-3.1-12.6c-0.2-6.4,1.4-12.5,4.8-18.3c3.3-5.8,8.5-10.8,15.6-15c7.1-4.2,15.8-6.8,26.3-7.9c6.4-0.6,12.8-0.5,19,0.4
			c6.3,0.9,11.9,2.4,16.9,4.5c-2.5,10.3-5.1,20.5-7.6,30.7c-8.7-3.9-17.4-5.5-26-4.8c-5.6,0.4-9.8,1.6-12.5,3.4
			c-2.7,1.8-4,4.1-4,6.9c0.1,2.4,0.8,4.1,2.2,5.3c1.4,1.1,3.7,1.6,6.9,1.4c9.3-0.6,18.7-1.2,28-1.7c0.4,10.1,0.7,20.1,1.1,30.2
			c-10.1,0.4-20.3,0.7-30.4,1.2c-3.6,0.1-6.2,1-8,2.4c-1.7,1.5-2.6,3.5-2.5,6.1c0.2,6,6.6,8.9,19.3,8.5c4.9-0.1,10-1.1,15.4-2.9
			c5.4-1.8,10.2-4.2,14.3-7.1C217.1,525.7,220.6,535.6,224.2,545.5z"/>
		<path class="st0" d="M306.6,470.7c-7.7-5.3-15.4-8.8-23.1-10.5c1.3,31.1,2.6,62.2,3.9,93.1c-10.9,0-21.8,0.1-32.7,0.1
			c-1.2-30.5-2.5-61.2-3.7-91.9c-7.5,2.4-14.9,6.4-22.1,12.1c-3.9-9.7-7.9-19.3-11.8-28.9c6.6-5.7,14.1-10.3,22.5-13.8
			c8.4-3.4,17.1-5.4,26.1-5.9c9.1-0.5,17.9,0.5,26.6,3c8.7,2.5,16.6,6.4,23.7,11.7C312.9,450.1,309.8,460.4,306.6,470.7z"/>
		<path class="st0" d="M365,520.7c-3,0-5.9,0.1-8.9,0.1c0.5,10.7,0.9,21.5,1.4,32.2c-10.9,0-21.8,0.1-32.7,0.1
			c-1.8-42.4-3.7-84.9-5.5-127.6c15.5-0.5,31.1-1,46.7-1.3c9-0.2,16.9,1.6,23.8,5.5c6.9,3.8,12.2,9.5,16.2,16.8
			c3.9,7.4,6.1,16,6.5,25.8c0.4,9.2-0.9,17.3-3.8,24.2c-2.9,6.9-7.2,12.4-12.9,16.5c7.3,13.2,14.7,26.5,22,39.7
			c-11.6,0-23.3,0.1-34.9,0.1C376.9,542.2,371,531.4,365,520.7z M375.5,461.6c-2.3-2.6-5.7-3.9-10.2-3.8c-4,0.1-8,0.1-11.9,0.2
			c0.4,10.1,0.9,20.1,1.3,30.1c4-0.1,7.9-0.1,11.9-0.2c4.4-0.1,7.7-1.4,9.8-4.1c2.1-2.7,3.1-6.4,2.9-11.2
			C379.1,467.9,377.9,464.2,375.5,461.6z"/>
		<path class="st0" d="M559.1,423c1,43.2,2,86.3,2.9,129.4c-10.9,0-21.8,0.1-32.7,0.1c-0.4-15.9-0.9-31.8-1.3-47.7
			c-10.1,0-20.3,0-30.4,0.1c0.5,15.9,1,31.8,1.5,47.7c-10.9,0-21.8,0.1-32.7,0.1c-1.5-43.1-3.1-86.3-4.6-129.6
			c11-0.1,22.1-0.1,33.2-0.1c0.5,15.3,1,30.7,1.5,46c10.2,0,20.4,0,30.5-0.1c-0.4-15.3-0.9-30.6-1.3-45.9
			C536.9,423,548,423,559.1,423z"/>
		<path class="st0" d="M647.3,427.7c7.4,5,13.2,12.3,17.3,21.8c4.1,9.5,6.2,20.8,6.3,34c0.1,22.9,0.1,45.8,0.2,68.7
			c-10.9,0-21.8,0.1-32.7,0.1c-0.1-8.7-0.2-17.3-0.2-26c-10.3,0-20.6,0-30.9,0.1c0.1,8.7,0.3,17.3,0.4,26c-10.7,0-21.4,0.1-32.1,0.1
			c-0.5-23-0.9-45.9-1.4-68.9c-0.3-13.2,1.5-24.6,5.4-34.1c3.9-9.5,9.5-16.8,16.8-21.8c7.3-5,15.8-7.4,25.4-7.4
			C631.4,420.2,639.9,422.7,647.3,427.7z M637.9,493.4c0-4.5-0.1-9.1-0.1-13.6c-0.1-8-1.6-14-4.5-18.2c-2.9-4.1-6.7-6.2-11.4-6.2
			c-4.7,0-8.5,2.1-11.3,6.2c-2.8,4.1-4.1,10.2-4,18.2c0.1,4.6,0.1,9.1,0.2,13.7C617.1,493.4,627.5,493.4,637.9,493.4z"/>
		<path class="st0" d="M771.9,435.3c6.3,9.9,9.3,24,9,42.2c-0.4,24.8-0.8,49.6-1.3,74.3c-10.9,0-21.8,0.1-32.7,0.1
			c0.3-24.4,0.5-48.7,0.8-73.1c0.1-7.8-1.1-13.7-3.7-17.5c-2.5-3.9-6.1-5.8-10.7-5.8c-4.6,0-8.4,2.1-11.3,6.2
			c-2.9,4.2-4.4,10.4-4.4,18.6c-0.1,23.9-0.3,47.8-0.4,71.7c-10.9,0-21.8,0.1-32.7,0.1c0-43-0.1-85.9-0.1-128.9
			c10.8,0,21.7,0,32.5,0.1c0,4.6,0,9.2-0.1,13.8c6.8-11.1,16.1-16.7,27.9-16.7C756.6,420.4,765.6,425.4,771.9,435.3z"/>
		<path class="st0" d="M880.4,519.1c-0.4,10.8-0.7,21.7-1.1,32.5c-29.7,0.1-59.4,0.2-89.1,0.2c0.1-7.9,0.3-15.9,0.5-23.8
			c6.1-9,12.1-18,18.3-27c-3.6,0-7.2,0-10.8,0c0.2-9.8,0.4-19.6,0.6-29.4c10.1,0,20.1,0,30.2,0c3.6-5.3,7.2-10.5,10.8-15.8
			c-15.4,0-30.7,0-46.1,0c0.2-10.9,0.4-21.8,0.6-32.7c29.1,0,58.2,0.1,87.1,0.2c-0.3,7.9-0.5,15.9-0.8,23.8
			c-5.8,8.4-11.7,16.8-17.5,25.2c3.3,0,6.5,0,9.8,0c-0.3,9.8-0.6,19.5-0.9,29.3c-9.7,0-19.3,0-29,0c-4,5.8-7.9,11.6-11.9,17.4
			C847.5,519.1,864,519.1,880.4,519.1z"/>
		<path class="st0" d="M892.4,423.7c11.1,0.1,22.1,0.1,33.1,0.2c-1.2,31.5-2.4,62.9-3.5,94.3c14.6,0,29.3,0,43.9,0.1
			c-0.5,11-0.9,22.1-1.4,33.1c-25.5,0.1-51,0.1-76.5,0.2C889.5,509,890.9,466.4,892.4,423.7z"/>
		<path class="st0" d="M1020.2,457.5c-0.9,20.6-1.8,41.2-2.7,61.8c4.8,0,9.7,0.1,14.5,0.1c-0.5,10.6-0.9,21.2-1.4,31.8
			c-20.6,0.1-41.2,0.1-61.8,0.2c0.4-10.7,0.9-21.5,1.3-32.2c4.9,0,9.7,0,14.6,0c0.9-20.7,1.8-41.4,2.6-62.2
			c-4.9-0.1-9.7-0.1-14.6-0.2c0.4-10.8,0.9-21.6,1.3-32.3c20.7,0.3,41.4,0.8,62,1.4c-0.5,10.7-0.9,21.3-1.4,32
			C1030,457.7,1025.1,457.6,1020.2,457.5z M1010.7,385.9c10,0.3,19.9,0.6,29.8,1c-9.5,9.2-19,18.6-28.6,28
			c-6.9-0.2-13.9-0.3-20.9-0.5C997.6,404.9,1004.2,395.4,1010.7,385.9z"/>
		<path class="st0" d="M1064.6,545.8c-8-5.5-14.1-13.2-18.3-23.1c-4.2-9.9-6.1-21.2-5.5-33.9c0.6-12.6,3.4-23.9,8.5-33.7
			c5.1-9.8,11.9-17.4,20.3-22.6c8.4-5.2,17.7-7.5,27.9-7c9.3,0.5,17.6,3.1,24.7,7.7c7.1,4.6,12.9,11,17.3,19
			c-7.1,7.3-14.2,14.6-21.4,22.1c-5.6-9.7-12.4-14.8-20.4-15.1c-6.8-0.3-12.4,2.4-16.8,7.8c-4.4,5.5-6.8,13-7.2,22.4
			c-0.4,9.4,1.3,17,5.2,22.6c3.9,5.6,9.3,8.5,16.1,8.5c8.1,0.1,15.4-4.6,21.7-14c6.5,7.8,13.1,15.6,19.6,23.2
			c-5.1,7.7-11.4,13.7-19,17.8c-7.6,4.1-16,6.3-25.5,6.3C1081.7,553.9,1072.6,551.2,1064.6,545.8z M1129.5,392.1
			c-6.2,8.8-12.4,17.7-18.7,26.7c-8.8-0.5-17.6-1-26.4-1.4c-5.5-9.7-10.9-19.5-16.4-29.4c6.4,0.3,12.9,0.7,19.3,1.1
			c3.6,4.8,7.3,9.6,10.9,14.3c4-4.3,8.1-8.6,12.1-12.8C1116.7,391,1123.1,391.5,1129.5,392.1z"/>
		<path class="st0" d="M1231.1,543.5c-5.2,3-11.5,5.5-18.9,7.2c-7.3,1.8-14.8,2.7-22.4,2.8c-10.9,0-20.1-1.4-27.6-4.5
			c-7.5-3.1-13.1-7.4-16.7-13.1c-3.6-5.6-5.3-12.1-5-19.4c0.2-6,1.8-11.4,4.6-16.2c2.8-4.7,6.7-8.3,11.6-10.7
			c-3.6-2.6-6.2-6-7.9-10.1c-1.7-4.1-2.5-8.6-2.3-13.6c0.3-6.7,2.3-12.8,6-18.3c3.7-5.4,9.3-9.6,16.6-12.4
			c7.3-2.8,16.3-3.7,26.8-2.7c6.4,0.6,12.7,2,18.8,4c6.1,2,11.6,4.4,16.4,7.2c-3.1,8.9-6.3,17.8-9.5,26.8
			c-8.4-4.8-16.9-7.5-25.6-8.2c-5.6-0.4-9.9,0.1-12.7,1.5c-2.8,1.4-4.3,3.5-4.4,6.3c-0.1,2.3,0.5,4.2,1.9,5.5c1.3,1.3,3.6,2,6.8,2.2
			c9.3,0.5,18.7,1.1,28,1.7c-0.3,9.4-0.6,18.8-0.9,28.2c-10.1-0.4-20.2-0.8-30.4-1.1c-3.6-0.1-6.3,0.5-8.1,1.8
			c-1.8,1.3-2.8,3.3-2.9,5.9c-0.2,6,6,9.2,18.7,9.4c4.9,0.1,10.1-0.6,15.6-2c5.5-1.4,10.4-3.4,14.7-5.8
			C1225.2,525.3,1228.1,534.4,1231.1,543.5z"/>
		<path class="st0" d="M1278.1,515.9c-2.5,2.8-5,5.7-7.4,8.6c-0.2,8.8-0.3,17.5-0.5,26.3c-10.7,0-21.4,0-32.1,0
			c1-36.8,2-73.6,2.9-110.6c10.4,1.3,20.9,2.7,31.3,4.2c-0.2,12.9-0.5,25.8-0.8,38.6c10.7-11.9,21.2-23.3,31.7-33.8
			c11.5,1.9,23,4,34.4,6.2c-12.5,11.6-25.2,24.4-38.1,38.2c13.1,20.2,26.4,39.4,40,57.1c-12.6,0-25.2,0-37.8,0
			C1293.8,539.6,1285.9,527.9,1278.1,515.9z"/>
	</g>
</g>
</svg>
