<?xml version="1.0" encoding="utf-8"?>
<!-- Generator: Adobe Illustrator 26.3.1, SVG Export Plug-In . SVG Version: 6.00 Build 0)  -->
<svg version="1.1" id="Layer_1" xmlns="http://www.w3.org/2000/svg" xmlns:xlink="http://www.w3.org/1999/xlink" x="0px" y="0px"
	 viewBox="0 0 1000 1000" style="enable-background:new 0 0 1000 1000;" xml:space="preserve">
<style type="text/css">
	.st0{fill:#CCCCCC;}
	.st1{fill:#FFFFFF;stroke:#000000;stroke-miterlimit:10;}
	.st2{fill:#006E54;stroke:#000000;stroke-width:8;stroke-miterlimit:10;}
	.st3{fill:#FFFFFF;stroke:#000000;stroke-width:12;stroke-miterlimit:10;}
	.st4{fill:#720027;stroke:#000000;stroke-width:6;stroke-miterlimit:10;}
	.st5{fill:#720027;stroke:#000000;stroke-width:4;stroke-miterlimit:10;}
	.st6{fill:#005E42;}
	.st7{fill:#004E42;}
	.st8{fill:#570027;}
	.st9{fill:#400027;}
	.st10{fill:#FFFFFF;stroke:#000000;stroke-width:10;stroke-miterlimit:10;}
	.st11{fill:#006E54;stroke:#000000;stroke-width:6;stroke-miterlimit:10;}
	.st12{fill:#5D0027;}
	.st13{fill:#4C0027;}
	.st14{fill:#F7F5B9;}
</style>
<path class="st0" d="M389.4,883.5V517.7c0-13,20.3-13,20.3,0v365.8C402.9,895.9,401.2,910,389.4,883.5z"/>
<path class="st0" d="M361.1,612.3c-135.3,0-175.9-61.7-175.9-61.7V431.2c0,0,55.2,82.1,190.5,82.1v99.1H361.1z"/>
<path class="st0" d="M648.6,715.6l0-236.2c0-8.4,20.3-8.4,20.3,0v236.2C668.9,746.2,648.6,746.2,648.6,715.6z"/>
<path class="st0" d="M848.3,453.8c-156-0.8-164.5,29.6-164.5,29.6l0.3,82.5c0,0,8.5-30.3,164.5-29.6L848.3,453.8z"/>
<path class="st0" d="M277,192.3V39c0,0,5.7,68.1,238.4,71v153.3C282.7,260.5,277,192.3,277,192.3z"/>
<path class="st0" d="M532.1,909.7V105.1c0-28.5,20.3-28.5,20.3,0v804.6C545.6,915.9,538.9,915.9,532.1,909.7z"/>
<path class="st0" d="M567.8,121v153.3c0,0,5.7-68.1,238.4-71V50C573.5,52.8,567.8,121,567.8,121z"/>
<path class="st1" d="M683.9,568.6"/>
<path class="st2" d="M259.6,172.8V19.5c0,0,5.7,68.1,238.4,71v153.3C265.3,240.9,259.6,172.8,259.6,172.8z"/>
<path class="st3" d="M514.7,890.1V85.6c0-28.5,20.3-28.5,20.3,0v804.6C528.2,896.3,521.5,896.3,514.7,890.1z"/>
<path class="st4" d="M550.4,101.4v153.3c0,0,5.7-68.1,238.4-71V30.5C556.1,33.3,550.4,101.4,550.4,101.4z"/>
<path class="st3" d="M366.9,863.2l0-365.8c0-13,20.3-13,20.3,0l0,365.8C380.4,875.5,378.6,889.6,366.9,863.2z"/>
<path class="st5" d="M338.6,592c-135.3,0-175.9-61.7-175.9-61.7V410.8c0,0,55.2,82.1,190.5,82.1V592H338.6z"/>
<path class="st6" d="M264.4,38.9v49.7c0,0,5.4,58.5,228.4,61c-0.2-18.2-0.3-36.4-0.5-54.7c-13.2-0.7-32.4-1.7-55.4-3.6
	c-38.1-3.1-57.8-4.7-75.6-8.3C338.1,78.2,303.8,67.4,264.4,38.9z"/>
<path class="st7" d="M437.1,122c23,1.9,42.2,3,55.4,3.6c0.1,8,0.2,15.9,0.2,23.9c0.1,0,0.2,0,0.3,0c-0.2-18.2-0.3-36.4-0.5-54.7
	c-13.2-0.7-32.4-1.7-55.4-3.6c-38.1-3.1-57.8-4.7-75.6-8.3c-23.1-4.6-57.5-15.5-96.9-44v30.8c39.4,28.6,73.7,39.4,96.9,44
	C379.3,117.3,398.9,118.9,437.1,122z"/>
<path class="st8" d="M554.4,102.2v59.3c0,0,5.5-64.6,230.5-67.3V34.9C559.9,37.6,554.4,102.2,554.4,102.2z"/>
<path class="st9" d="M554.4,102v35c0,0,5.5-64.9,230.5-67.6v-35C559.9,37.1,554.4,102,554.4,102z"/>
<path class="st10" d="M640,702.4V466.2c0-8.4,20.3-8.4,20.3,0l0,236.2C660.2,733,640,733,640,702.4z"/>
<path class="st11" d="M839.7,440.6c-156-0.8-164.5,29.6-164.5,29.6l0.3,82.5c0,0,8.5-30.3,164.5-29.6L839.7,440.6z"/>
<path class="st0" d="M694,587.9"/>
<path class="st12" d="M165.4,417.6c-0.1,12.9-0.1,25.7-0.2,38.6c10.1,12.3,23.4,25.9,40.7,38.3c56.4,40.4,117.7,42.1,144.5,41.1
	c0-13.1,0-26.2,0.1-39.3c-27.5,2.8-49.2,0.4-62.9-2c-53.3-9.2-121.9-40.9-122.3-75.7C165.4,418.1,165.4,417.8,165.4,417.6z"/>
<path class="st13" d="M165.4,417.6c0,5.8-0.1,11.6-0.1,17.4c10.2,12.8,23.9,27,41.9,40c56.1,40.4,117.3,42,143.4,41.1
	c0-7.3,0-14.5,0-21.8c-9.7-0.1-22.9-0.7-38.5-2.8c-13.3-1.8-35.5-5.1-62.4-15.8c-24.7-9.8-41.6-21.3-46.3-24.6
	C186.6,439.4,174.2,427.3,165.4,417.6z"/>
<path class="st6" d="M836.7,522.1c0,0,0.1,0,0.1,0l-0.3-79.2c-149.8-0.8-158,28.4-158,28.4l0.1,38.1c1.5-3.2,17.4-28.8,157.8-28.1"
	/>
<path class="st14" d="M836.5,481.4l0,7.3"/>
<path class="st7" d="M836.7,519.7l0,2.4c0,0,0.1,0,0.1,0l-0.3-79.2c-149.8-0.8-158,28.4-158,28.4l0.1,22.1
	c1.1-2.6,15.4-28.9,157.9-28.2L836.7,519.7"/>
</svg>
