<?xml version="1.0" encoding="utf-8"?>
<!-- Generator: Adobe Illustrator 26.3.1, SVG Export Plug-In . SVG Version: 6.00 Build 0)  -->
<svg version="1.1" id="Layer_1" xmlns="http://www.w3.org/2000/svg" xmlns:xlink="http://www.w3.org/1999/xlink" x="0px" y="0px"
	 viewBox="0 0 1000 1000" style="enable-background:new 0 0 1000 1000;" xml:space="preserve">
<style type="text/css">
	.st0{fill:#CCCCCC;stroke:#CCCCCC;stroke-width:7;stroke-miterlimit:10;}
	.st1{fill:none;stroke:#CCCCCC;stroke-width:7;stroke-miterlimit:10;}
	.st2{fill:#E6E6E6;}
	.st3{fill:#FFFFFF;}
	.st4{fill:#FFFFFF;stroke:#000000;stroke-width:7;stroke-miterlimit:10;}
	.st5{fill:none;stroke:#000000;stroke-width:7;stroke-miterlimit:10;}
	.st6{fill:#FF855B;}
	.st7{font-family:'MontserratAlternates-Black';}
	.st8{font-size:43.5071px;}
	.st9{fill:#FF635B;}
	.st10{fill:#C7385B;}
	.st11{fill:#62245B;}
	.st12{fill:#83005B;}
	.st13{fill:none;stroke:#FF855B;stroke-width:2.0001;stroke-miterlimit:10.0005;}
</style>
<path class="st0" d="M833.8,376"/>
<path class="st0" d="M683.1,644.4"/>
<polygon class="st0" points="230.4,692.2 230.4,514.6 233.5,514.6 621,514.6 621,692.2 "/>
<path class="st0" d="M620.4,513.5c44.1-48.5,88.1-97.1,132.2-145.7c-127.4,1.8-254.9,3.5-382.3,5.4L229.8,513.5H620.4z"/>
<path class="st0" d="M621.7,693c44.6-47.3,89.8-94,134.8-141c0-59.8,0-119.6,0-179.5L623.2,514C623.2,514,615.1,699.9,621.7,693z"/>
<path class="st0" d="M388.6,389.1"/>
<line class="st1" x1="328.4" y1="449.1" x2="718.9" y2="449.1"/>
<path class="st2" d="M1084.7,719.1"/>
<path class="st3" d="M622.3,708.7"/>
<path class="st4" d="M805.2,337.6"/>
<path class="st4" d="M656.5,608.6"/>
<polygon class="st4" points="222.3,672.2 222.3,494.7 225.4,494.7 612.8,494.7 612.8,672.2 "/>
<path class="st4" d="M612.3,493.6c44.1-48.5,88.1-97.1,132.2-145.7c-127.4,1.8-254.9,3.5-382.3,5.4L221.6,493.6H612.3z"/>
<path class="st4" d="M613.5,673.1c44.6-47.3,89.9-94,134.8-141c0-59.8,0-119.6,0-179.5L615,494.1C615,494.1,607,680,613.5,673.1z"/>
<path class="st4" d="M362,353.2"/>
<line class="st5" x1="301.7" y1="413.3" x2="692.3" y2="413.3"/>
<text transform="matrix(0.9937 -0.1124 0.1124 0.9937 302.0611 614.6317)" class="st6 st7 st8">WE</text>
<text transform="matrix(0.9937 -0.1124 0.1124 0.9937 386.0963 605.1282)" class="st9 st7 st8">BL</text>
<text transform="matrix(0.9937 -0.1124 0.1124 0.9937 447.308 598.2043)" class="st10 st7 st8">I</text>
<text transform="matrix(0.9937 -0.1124 0.1124 0.9937 470.1331 595.6226)" class="st11 st7 st8">S</text>
<text transform="matrix(0.9937 -0.1124 0.1124 0.9937 499.1823 592.3377)" class="st12 st7 st8">H</text>
<g>
	<ellipse transform="matrix(0.35 -0.9368 0.9368 0.35 -28.4831 971.9609)" class="st6" cx="686.1" cy="506.5" rx="63.4" ry="28.8"/>
	<path class="st9" d="M711.8,448.8c-1.2,9.3-3.8,19.6-7.8,29.9c-12.7,32.6-34.7,53.8-49.3,47.4c-0.9-0.5-1.9-0.9-2.7-1.7
		c-2.6,20.3,1.3,36.5,11.3,40.9c14.5,6.4,36.7-14.8,49.3-47.4C724.4,487.6,723.7,458,711.8,448.8z"/>
	<path class="st10" d="M714.9,451.9c-0.9,10.2-3.7,21.3-8.2,32.9c-12.7,32.6-34.7,53.9-49.3,47.4c-2.1-0.9-4.1-2.5-5.7-4.7
		c-1.9,18.9,2,33.9,11.5,38.2c14.5,6.4,36.7-14.8,49.3-47.4C723.3,490.4,723.8,463.3,714.9,451.9z"/>
	<path class="st11" d="M719.1,460.1c-1.1,9.8-3.7,20.6-8,31.5c-12.7,32.6-34.7,53.8-49.3,47.4c-4.6-2-7.9-6.5-9.9-12.9
		c-2.3,19.7,1.7,35.2,11.5,39.5c14.5,6.4,36.7-14.8,49.3-47.4C721.4,495.8,723.4,473.8,719.1,460.1z"/>
	<path class="st12" d="M719.1,460.3c-0.4,11.8-3.2,25.6-8.6,39.7c-12.7,32.6-34.7,53.8-49.3,47.4c-4.7-2-7.9-6.8-10-13.2
		c-0.5,15.6,3.6,27.8,11.9,31.4c14.5,6.4,36.7-14.8,49.3-47.4C721.2,495.8,723.3,473.9,719.1,460.3z"/>
</g>
<ellipse transform="matrix(0.35 -0.9368 0.9368 0.35 -28.4831 971.9609)" class="st13" cx="686.1" cy="506.5" rx="80.3" ry="36.5"/>
</svg>
