<?xml version="1.0" encoding="utf-8"?>
<!-- Generator: Adobe Illustrator 26.3.1, SVG Export Plug-In . SVG Version: 6.00 Build 0)  -->
<svg version="1.1" id="Layer_1" xmlns="http://www.w3.org/2000/svg" xmlns:xlink="http://www.w3.org/1999/xlink" x="0px" y="0px"
	 viewBox="0 0 1000 1000" style="enable-background:new 0 0 1000 1000;" xml:space="preserve">
<style type="text/css">
	.st0{fill:#CCCCCC;stroke:#CCCCCC;stroke-width:7;stroke-miterlimit:10;}
	.st1{fill:#E6E6E6;}
	.st2{fill:#FFFFFF;}
	.st3{fill:#FFFFFF;stroke:#000000;stroke-width:7;stroke-miterlimit:10;}
	.st4{fill:#FF855B;}
	.st5{font-family:'MontserratAlternates-Black';}
	.st6{font-size:46.7089px;}
	.st7{fill:#FF635B;}
	.st8{fill:#C7385B;}
	.st9{fill:#62245B;}
	.st10{fill:#83005B;}
	.st11{fill:none;stroke:#FF855B;stroke-width:2;stroke-miterlimit:10;}
</style>
<path class="st0" d="M833.8,376"/>
<path class="st0" d="M712.1,679.6"/>
<polygon class="st0" points="226,730.9 226,540.3 229.4,540.3 645.4,540.3 645.4,730.9 "/>
<path class="st0" d="M644.7,539.1C692,487,739.3,434.8,786.6,382.7c-136.8,1.9-273.7,3.8-410.5,5.8L225.4,539.1H644.7z"/>
<path class="st0" d="M646.1,731.8C694,681,742.5,630.9,790.8,580.4c0-64.2,0-128.4,0-192.7L647.7,539.6
	C647.7,539.6,639.1,739.2,646.1,731.8z"/>
<path class="st0" d="M395.9,405.5"/>
<line class="st0" x1="331.2" y1="469.9" x2="750.5" y2="469.9"/>
<path class="st1" d="M1084.7,719.1"/>
<path class="st2" d="M646.8,748.6"/>
<path class="st3" d="M805.2,337.6"/>
<path class="st3" d="M683.5,641.2"/>
<polygon class="st3" points="217.3,709.5 217.3,518.9 220.7,518.9 636.6,518.9 636.6,709.5 "/>
<path class="st3" d="M636,517.7c47.3-52.1,94.6-104.3,141.9-156.4c-136.8,1.9-273.7,3.8-410.5,5.8L216.6,517.7H636z"/>
<path class="st3" d="M637.3,710.4c47.9-50.8,96.5-100.9,144.7-151.4c0-64.2,0-128.4,0-192.7L638.9,518.2
	C638.9,518.2,630.4,717.8,637.3,710.4z"/>
<path class="st3" d="M367.3,367"/>
<line class="st3" x1="302.6" y1="431.5" x2="721.9" y2="431.5"/>
<text transform="matrix(0.9937 -0.1124 0.1124 0.9937 302.9642 647.6563)" class="st4 st5 st6">WE</text>
<text transform="matrix(0.9937 -0.1124 0.1124 0.9937 393.1874 637.4529)" class="st7 st5 st6">BL</text>
<text transform="matrix(0.9937 -0.1124 0.1124 0.9937 458.9057 630.0203)" class="st8 st5 st6">I</text>
<text transform="matrix(0.9937 -0.1124 0.1124 0.9937 483.4115 627.2484)" class="st9 st5 st6">S</text>
<text transform="matrix(0.9937 -0.1124 0.1124 0.9937 514.5995 623.7216)" class="st10 st5 st6">H</text>
<g>
	
		<ellipse transform="matrix(0.35 -0.9368 0.9368 0.35 -33.0586 1015.6005)" class="st4" cx="715.3" cy="531.6" rx="68.1" ry="30.9"/>
	<path class="st7" d="M742.9,469.6c-1.3,10-4.1,21-8.4,32.1c-13.6,35-37.3,57.8-52.9,50.9c-1-0.5-2-1-2.9-1.8
		c-2.8,21.8,1.4,39.2,12.1,43.9c15.6,6.9,39.4-15.9,52.9-50.9C756.4,511.3,755.7,479.5,742.9,469.6z"/>
	<path class="st8" d="M746.2,472.9c-1,10.9-4,22.9-8.8,35.3c-13.6,35-37.3,57.9-52.9,50.9c-2.3-1-4.4-2.7-6.1-5
		c-2,20.3,2.1,36.4,12.4,41c15.6,6.9,39.4-15.9,52.9-50.9C755.2,514.3,755.8,485.2,746.2,472.9z"/>
	<path class="st9" d="M750.7,481.8c-1.2,10.5-4,22.1-8.6,33.8c-13.6,35-37.3,57.8-52.9,50.9c-4.9-2.2-8.5-7-10.6-13.8
		c-2.5,21.1,1.8,37.8,12.3,42.4c15.6,6.9,39.4-15.9,52.9-50.9C753.2,520.1,755.3,496.5,750.7,481.8z"/>
	<path class="st10" d="M750.7,482c-0.4,12.7-3.4,27.5-9.2,42.6c-13.6,35-37.3,57.8-52.9,50.9c-5-2.2-8.5-7.3-10.7-14.2
		c-0.5,16.8,3.9,29.8,12.8,33.7c15.6,6.9,39.4-15.9,52.9-50.9C753,520.1,755.2,496.6,750.7,482z"/>
</g>
<ellipse transform="matrix(0.35 -0.9368 0.9368 0.35 -33.0586 1015.6005)" class="st11" cx="715.3" cy="531.6" rx="86.2" ry="39.2"/>
</svg>
