<?xml version="1.0" encoding="utf-8"?>
<!-- Generator: Adobe Illustrator 26.3.1, SVG Export Plug-In . SVG Version: 6.00 Build 0)  -->
<svg version="1.1" id="Layer_1" xmlns="http://www.w3.org/2000/svg" xmlns:xlink="http://www.w3.org/1999/xlink" x="0px" y="0px"
	 viewBox="0 0 1000 1000" style="enable-background:new 0 0 1000 1000;" xml:space="preserve">
<style type="text/css">
	.st0{fill:#CCCCCC;}
	.st1{fill:#FFFFFF;}
	.st2{fill:#006E54;}
	.st3{fill:#FFFFFF;stroke:#000000;stroke-width:5;stroke-miterlimit:10;}
	.st4{fill:#E6E6E6;}
	.st5{fill:#FFFFFF;stroke:#000000;stroke-width:3;stroke-miterlimit:10;}
	.st6{fill:none;stroke:#000000;stroke-width:4;stroke-miterlimit:10;}
	.st7{fill:#999999;stroke:#808080;stroke-width:2;stroke-miterlimit:10;}
</style>
<g>
	<path class="st0" d="M880.3,720.3h-715c-24.5,0-44.3-19.9-44.3-44.3V382.9c0-24.5,19.9-44.3,44.3-44.3h715
		c24.5,0,44.3,19.9,44.3,44.3V676C924.6,700.4,904.8,720.3,880.3,720.3z"/>
</g>
<g>
	<path class="st1" d="M142.5,689.1c-21.1,0-38.3-17.2-38.3-38.3V357.7c0-21.1,17.2-38.3,38.3-38.3h715c21.1,0,38.3,17.2,38.3,38.3
		v293.1c0,21.1-17.2,38.3-38.3,38.3H142.5z"/>
	<path d="M857.5,325.4c17.8,0,32.3,14.5,32.3,32.3v293.1c0,17.8-14.5,32.3-32.3,32.3h-715c-17.8,0-32.3-14.5-32.3-32.3V357.7
		c0-17.8,14.5-32.3,32.3-32.3H857.5 M857.5,313.4h-715c-24.5,0-44.3,19.9-44.3,44.3v293.1c0,24.5,19.9,44.3,44.3,44.3h715
		c24.5,0,44.3-19.9,44.3-44.3V357.7C901.8,333.2,882,313.4,857.5,313.4L857.5,313.4z"/>
</g>
<g>
	<path class="st0" d="M862.7,668.1H370.6c-10.6,0-19.3-8.6-19.3-19.3V359.7c0-10.6,8.6-19.3,19.3-19.3h492.1
		c10.6,0,19.3,8.6,19.3,19.3v289.1C882,659.4,873.3,668.1,862.7,668.1z"/>
</g>
<g>
	<path class="st1" d="M362.6,662.6c-9.5,0-17.3-7.7-17.3-17.3V356.3c0-9.5,7.7-17.3,17.3-17.3h492.1c9.5,0,17.3,7.7,17.3,17.3v289.1
		c0,9.5-7.7,17.3-17.3,17.3H362.6z"/>
	<path d="M854.7,341c8.4,0,15.3,6.8,15.3,15.3v289.1c0,8.4-6.8,15.3-15.3,15.3H362.6c-8.4,0-15.3-6.8-15.3-15.3V356.3
		c0-8.4,6.8-15.3,15.3-15.3H854.7 M854.7,337H362.6c-10.6,0-19.3,8.6-19.3,19.3v289.1c0,10.6,8.6,19.3,19.3,19.3h492.1
		c10.6,0,19.3-8.6,19.3-19.3V356.3C873.9,345.6,865.3,337,854.7,337L854.7,337z"/>
</g>
<g>
	<path class="st0" d="M728.8,384.3h-20.7c-9.8,0-17.7,7.9-17.7,17.7v248.7h54.6V400.4C744.9,391.5,737.7,384.3,728.8,384.3z"/>
</g>
<g>
	<path class="st0" d="M460.1,502.7h-20.7c-9.8,0-17.7,7.9-17.7,17.7v131.8h54.6V518.8C476.2,509.9,469,502.7,460.1,502.7z"/>
</g>
<g>
	<path class="st2" d="M453.4,496.7h-20.7c-9.8,0-17.7,7.9-17.7,17.7v131.8h54.6V512.8C469.5,503.9,462.3,496.7,453.4,496.7z"/>
</g>
<g>
	<path class="st0" d="M525.3,422.2h-20.7c-9.8,0-17.7,7.9-17.7,17.7v212h54.6V438.3C541.4,429.4,534.2,422.2,525.3,422.2z"/>
</g>
<g>
	<path class="st0" d="M660.3,385.4h-20.7c-9.8,0-17.7,7.9-17.7,17.7v248.7h54.6V401.5C676.4,392.6,669.2,385.4,660.3,385.4z"/>
</g>
<g>
	<path class="st2" d="M519.8,416.6H499c-9.8,0-17.7,7.9-17.7,17.7v212h54.6V432.7C535.9,423.8,528.7,416.6,519.8,416.6z"/>
</g>
<g>
	<path class="st0" d="M792.6,361.8h-20.7c-9.8,0-17.7,7.9-17.7,17.7v271.3h54.6V377.9C808.7,369,801.5,361.8,792.6,361.8z"/>
</g>
<g>
	<path class="st2" d="M655.1,379.8h-20.7c-9.8,0-17.7,7.9-17.7,17.7v248.7h54.6V395.9C671.2,387,664,379.8,655.1,379.8z"/>
</g>
<g>
	<path class="st2" d="M721.3,380.7h-20.7c-9.8,0-17.7,7.9-17.7,17.7v248.7h54.6V396.8C737.4,387.9,730.2,380.7,721.3,380.7z"/>
</g>
<g>
	<path class="st2" d="M786.6,357.2h-20.7c-9.8,0-17.7,7.9-17.7,17.7v271.3h54.6V373.3C802.7,364.4,795.5,357.2,786.6,357.2z"/>
</g>
<g>
	<path class="st0" d="M593.1,433.7h-20.7c-9.8,0-17.7,7.9-17.7,17.7v200.4h54.6v-202C609.2,441,602,433.7,593.1,433.7z"/>
</g>
<g>
	<path class="st2" d="M587.9,428.1h-20.7c-9.8,0-17.7,7.9-17.7,17.7v200.4H604v-202C604,435.3,596.8,428.1,587.9,428.1z"/>
</g>
<g>
	<circle class="st0" cx="242.1" cy="419.8" r="66.1"/>
</g>
<circle class="st3" cx="231.9" cy="408.6" r="66.1"/>
<path class="st4" d="M194.6,543.9h-11.4c-3.1,0-5.5-2.5-5.5-5.5v-11.4c0-3.1,2.5-5.5,5.5-5.5h11.4c3.1,0,5.5,2.5,5.5,5.5v11.4
	C200.2,541.4,197.7,543.9,194.6,543.9z"/>
<path class="st4" d="M225.3,543.8h-11.4c-3.1,0-5.5-2.5-5.5-5.5v-11.4c0-3.1,2.5-5.5,5.5-5.5h11.4c3.1,0,5.5,2.5,5.5,5.5v11.4
	C230.8,541.3,228.3,543.8,225.3,543.8z"/>
<path class="st4" d="M256.9,543.5h-11.4c-3.1,0-5.5-2.5-5.5-5.5v-11.4c0-3.1,2.5-5.5,5.5-5.5h11.4c3.1,0,5.5,2.5,5.5,5.5V538
	C262.5,541,260,543.5,256.9,543.5z"/>
<path class="st4" d="M288,543h-11.4c-3.1,0-5.5-2.5-5.5-5.5V526c0-3.1,2.5-5.5,5.5-5.5H288c3.1,0,5.5,2.5,5.5,5.5v11.4
	C293.5,540.5,291,543,288,543z"/>
<path class="st4" d="M195.1,574h-11.4c-3.1,0-5.5-2.5-5.5-5.5v-11.4c0-3.1,2.5-5.5,5.5-5.5h11.4c3.1,0,5.5,2.5,5.5,5.5v11.4
	C200.6,571.5,198.2,574,195.1,574z"/>
<path class="st4" d="M225.7,573.9h-11.4c-3.1,0-5.5-2.5-5.5-5.5V557c0-3.1,2.5-5.5,5.5-5.5h11.4c3.1,0,5.5,2.5,5.5,5.5v11.4
	C231.3,571.4,228.8,573.9,225.7,573.9z"/>
<path class="st4" d="M257.4,573.6H246c-3.1,0-5.5-2.5-5.5-5.5v-11.4c0-3.1,2.5-5.5,5.5-5.5h11.4c3.1,0,5.5,2.5,5.5,5.5v11.4
	C262.9,571.2,260.4,573.6,257.4,573.6z"/>
<path class="st4" d="M288.4,573.1H277c-3.1,0-5.5-2.5-5.5-5.5v-11.4c0-3.1,2.5-5.5,5.5-5.5h11.4c3.1,0,5.5,2.5,5.5,5.5v11.4
	C294,570.6,291.5,573.1,288.4,573.1z"/>
<path class="st4" d="M194.6,603.7h-11.4c-3.1,0-5.5-2.5-5.5-5.5v-11.4c0-3.1,2.5-5.5,5.5-5.5h11.4c3.1,0,5.5,2.5,5.5,5.5v11.4
	C200.2,601.2,197.7,603.7,194.6,603.7z"/>
<path class="st4" d="M225.3,603.6h-11.4c-3.1,0-5.5-2.5-5.5-5.5v-11.4c0-3.1,2.5-5.5,5.5-5.5h11.4c3.1,0,5.5,2.5,5.5,5.5V598
	C230.8,601.1,228.3,603.6,225.3,603.6z"/>
<path class="st4" d="M256.9,603.3h-11.4c-3.1,0-5.5-2.5-5.5-5.5v-11.4c0-3.1,2.5-5.5,5.5-5.5h11.4c3.1,0,5.5,2.5,5.5,5.5v11.4
	C262.5,600.8,260,603.3,256.9,603.3z"/>
<path class="st4" d="M288,602.8h-11.4c-3.1,0-5.5-2.5-5.5-5.5v-11.4c0-3.1,2.5-5.5,5.5-5.5H288c3.1,0,5.5,2.5,5.5,5.5v11.4
	C293.5,600.3,291,602.8,288,602.8z"/>
<path class="st4" d="M194.6,632.9h-11.4c-3.1,0-5.5-2.5-5.5-5.5v-11.4c0-3.1,2.5-5.5,5.5-5.5h11.4c3.1,0,5.5,2.5,5.5,5.5v11.4
	C200.2,630.4,197.7,632.9,194.6,632.9z"/>
<path class="st4" d="M225.3,632.8h-11.4c-3.1,0-5.5-2.5-5.5-5.5v-11.4c0-3.1,2.5-5.5,5.5-5.5h11.4c3.1,0,5.5,2.5,5.5,5.5v11.4
	C230.8,630.3,228.3,632.8,225.3,632.8z"/>
<path class="st4" d="M256.9,632.5h-11.4c-3.1,0-5.5-2.5-5.5-5.5v-11.4c0-3.1,2.5-5.5,5.5-5.5h11.4c3.1,0,5.5,2.5,5.5,5.5V627
	C262.5,630,260,632.5,256.9,632.5z"/>
<path class="st4" d="M288,632h-11.4c-3.1,0-5.5-2.5-5.5-5.5V615c0-3.1,2.5-5.5,5.5-5.5H288c3.1,0,5.5,2.5,5.5,5.5v11.4
	C293.5,629.5,291,632,288,632z"/>
<line class="st5" x1="231.5" y1="350.7" x2="231.5" y2="360.6"/>
<line class="st5" x1="231.6" y1="459.5" x2="231.6" y2="469.4"/>
<line class="st5" x1="286.4" y1="408.4" x2="276.5" y2="408.4"/>
<line class="st5" x1="186.4" y1="408.2" x2="176.5" y2="408.2"/>
<path class="st6" d="M333.4,631"/>
<path class="st7" d="M191.5,540.7h-11.4c-3.1,0-5.5-2.5-5.5-5.5v-11.4c0-3.1,2.5-5.5,5.5-5.5h11.4c3.1,0,5.5,2.5,5.5,5.5v11.4
	C197,538.2,194.5,540.7,191.5,540.7z"/>
<path class="st7" d="M222.1,540.6h-11.4c-3.1,0-5.5-2.5-5.5-5.5v-11.4c0-3.1,2.5-5.5,5.5-5.5h11.4c3.1,0,5.5,2.5,5.5,5.5V535
	C227.6,538.1,225.2,540.6,222.1,540.6z"/>
<path class="st7" d="M253.8,540.3h-11.4c-3.1,0-5.5-2.5-5.5-5.5v-11.4c0-3.1,2.5-5.5,5.5-5.5h11.4c3.1,0,5.5,2.5,5.5,5.5v11.4
	C259.3,537.8,256.8,540.3,253.8,540.3z"/>
<path class="st7" d="M284.8,539.8h-11.4c-3.1,0-5.5-2.5-5.5-5.5v-11.4c0-3.1,2.5-5.5,5.5-5.5h11.4c3.1,0,5.5,2.5,5.5,5.5v11.4
	C290.4,537.3,287.9,539.8,284.8,539.8z"/>
<path class="st7" d="M191.9,570.8h-11.4c-3.1,0-5.5-2.5-5.5-5.5v-11.4c0-3.1,2.5-5.5,5.5-5.5h11.4c3.1,0,5.5,2.5,5.5,5.5v11.4
	C197.5,568.3,195,570.8,191.9,570.8z"/>
<path class="st7" d="M222.6,570.7h-11.4c-3.1,0-5.5-2.5-5.5-5.5v-11.4c0-3.1,2.5-5.5,5.5-5.5h11.4c3.1,0,5.5,2.5,5.5,5.5v11.4
	C228.1,568.2,225.6,570.7,222.6,570.7z"/>
<path class="st7" d="M254.2,570.4h-11.4c-3.1,0-5.5-2.5-5.5-5.5v-11.4c0-3.1,2.5-5.5,5.5-5.5h11.4c3.1,0,5.5,2.5,5.5,5.5v11.4
	C259.8,567.9,257.3,570.4,254.2,570.4z"/>
<path class="st7" d="M285.3,569.9h-11.4c-3.1,0-5.5-2.5-5.5-5.5V553c0-3.1,2.5-5.5,5.5-5.5h11.4c3.1,0,5.5,2.5,5.5,5.5v11.4
	C290.8,567.4,288.3,569.9,285.3,569.9z"/>
<path class="st7" d="M191.5,600.5h-11.4c-3.1,0-5.5-2.5-5.5-5.5v-11.4c0-3.1,2.5-5.5,5.5-5.5h11.4c3.1,0,5.5,2.5,5.5,5.5v11.4
	C197,598,194.5,600.5,191.5,600.5z"/>
<path class="st7" d="M222.1,600.4h-11.4c-3.1,0-5.5-2.5-5.5-5.5v-11.4c0-3.1,2.5-5.5,5.5-5.5h11.4c3.1,0,5.5,2.5,5.5,5.5v11.4
	C227.6,597.9,225.2,600.4,222.1,600.4z"/>
<path class="st7" d="M253.8,600.1h-11.4c-3.1,0-5.5-2.5-5.5-5.5v-11.4c0-3.1,2.5-5.5,5.5-5.5h11.4c3.1,0,5.5,2.5,5.5,5.5v11.4
	C259.3,597.6,256.8,600.1,253.8,600.1z"/>
<path class="st7" d="M284.8,599.6h-11.4c-3.1,0-5.5-2.5-5.5-5.5v-11.4c0-3.1,2.5-5.5,5.5-5.5h11.4c3.1,0,5.5,2.5,5.5,5.5V594
	C290.4,597.1,287.9,599.6,284.8,599.6z"/>
<path class="st7" d="M191.5,629.7h-11.4c-3.1,0-5.5-2.5-5.5-5.5v-11.4c0-3.1,2.5-5.5,5.5-5.5h11.4c3.1,0,5.5,2.5,5.5,5.5v11.4
	C197,627.2,194.5,629.7,191.5,629.7z"/>
<path class="st7" d="M222.1,629.6h-11.4c-3.1,0-5.5-2.5-5.5-5.5v-11.4c0-3.1,2.5-5.5,5.5-5.5h11.4c3.1,0,5.5,2.5,5.5,5.5V624
	C227.6,627.1,225.2,629.6,222.1,629.6z"/>
<path class="st7" d="M253.8,629.3h-11.4c-3.1,0-5.5-2.5-5.5-5.5v-11.4c0-3.1,2.5-5.5,5.5-5.5h11.4c3.1,0,5.5,2.5,5.5,5.5v11.4
	C259.3,626.8,256.8,629.3,253.8,629.3z"/>
<path class="st7" d="M284.8,628.8h-11.4c-3.1,0-5.5-2.5-5.5-5.5v-11.4c0-3.1,2.5-5.5,5.5-5.5h11.4c3.1,0,5.5,2.5,5.5,5.5v11.4
	C290.4,626.3,287.9,628.8,284.8,628.8z"/>
<polyline class="st3" points="231.9,374.2 231.9,401.5 231.9,408.6 239.5,408.6 254.7,408.6 "/>
</svg>
