<?xml version="1.0" encoding="utf-8"?>
<!-- Generator: Adobe Illustrator 26.3.1, SVG Export Plug-In . SVG Version: 6.00 Build 0)  -->
<svg version="1.1" id="Layer_1" xmlns="http://www.w3.org/2000/svg" xmlns:xlink="http://www.w3.org/1999/xlink" x="0px" y="0px"
	 viewBox="0 0 1000 1000" style="enable-background:new 0 0 1000 1000;" xml:space="preserve">
<style type="text/css">
	.st0{fill:#CCCCCC;}
	.st1{fill:#FFFFFF;stroke:#000000;stroke-miterlimit:10;}
	.st2{fill:#006E54;stroke:#000000;stroke-width:8;stroke-miterlimit:10;}
	.st3{fill:#FFFFFF;stroke:#000000;stroke-width:12;stroke-miterlimit:10;}
	.st4{fill:#720027;stroke:#000000;stroke-width:6;stroke-miterlimit:10;}
	.st5{fill:#720027;stroke:#000000;stroke-width:4;stroke-miterlimit:10;}
	.st6{fill:#005E42;}
	.st7{fill:#004E42;}
	.st8{fill:#570027;}
	.st9{fill:#400027;}
	.st10{fill:#FFFFFF;stroke:#000000;stroke-width:10;stroke-miterlimit:10;}
	.st11{fill:#006E54;stroke:#000000;stroke-width:6;stroke-miterlimit:10;}
	.st12{fill:#5D0027;}
	.st13{fill:#4C0027;}
	.st14{fill:#F7F5B9;}
</style>
<path class="st0" d="M413,765.4V518c0-8.8,13.7-8.8,13.7,0v247.4C422.1,773.8,420.9,783.3,413,765.4z"/>
<path class="st0" d="M393.8,582c-91.5,0-119-41.7-119-41.7v-80.7c0,0,37.3,55.5,128.8,55.5v67L393.8,582L393.8,582z"/>
<path class="st0" d="M588.3,651.9V492.1c0-5.7,13.7-5.7,13.7,0v159.7C602,672.5,588.3,672.5,588.3,651.9z"/>
<path class="st0" d="M723.3,474.8c-105.5-0.5-111.2,20-111.2,20l0.2,55.8c0,0,5.7-20.5,111.2-20L723.3,474.8z"/>
<path class="st0" d="M337,298V194.3c0,0,3.9,46.1,161.2,48V346C340.8,344.1,337,298,337,298z"/>
<path class="st0" d="M509.5,783.1V239c0-19.3,13.7-19.3,13.7,0v544.1C518.6,787.3,514.1,787.3,509.5,783.1z"/>
<path class="st0" d="M533.6,249.7v103.7c0,0,3.9-46.1,161.2-48V201.7C537.5,203.6,533.6,249.7,533.6,249.7z"/>
<path class="st1" d="M612.1,552.4"/>
<path class="st2" d="M325.2,284.8V181.1c0,0,3.9,46.1,161.2,48v103.7C329,330.8,325.2,284.8,325.2,284.8z"/>
<path class="st3" d="M497.7,769.9V225.8c0-19.3,13.7-19.3,13.7,0v544.1C506.8,774.1,502.3,774.1,497.7,769.9z"/>
<path class="st4" d="M521.9,236.5v103.7c0,0,3.9-46.1,161.2-48V188.5C525.7,190.4,521.9,236.5,521.9,236.5z"/>
<path class="st3" d="M397.8,751.7V504.3c0-8.8,13.7-8.8,13.7,0v247.4C406.9,760,405.7,769.5,397.8,751.7z"/>
<path class="st5" d="M378.6,568.3c-91.5,0-119-41.7-119-41.7v-80.8c0,0,37.3,55.5,128.8,55.5v67H378.6z"/>
<path class="st6" d="M328.4,194.2v33.6c0,0,3.7,39.6,154.5,41.3c-0.1-12.3-0.2-24.6-0.3-37c-8.9-0.5-21.9-1.1-37.5-2.4
	c-25.8-2.1-39.1-3.2-51.1-5.6C378.3,220.8,355.1,213.5,328.4,194.2z"/>
<path class="st7" d="M445.2,250.4c15.6,1.3,28.5,2,37.5,2.4c0.1,5.4,0.1,10.8,0.1,16.2c0.1,0,0.1,0,0.2,0c-0.1-12.3-0.2-24.6-0.3-37
	c-8.9-0.5-21.9-1.1-37.5-2.4c-25.8-2.1-39.1-3.2-51.1-5.6c-15.6-3.1-38.9-10.5-65.5-29.8V215c26.6,19.3,49.8,26.6,65.5,29.8
	C406.1,247.2,419.4,248.3,445.2,250.4z"/>
<path class="st8" d="M524.6,237v40.1c0,0,3.7-43.7,155.9-45.5v-40.1C528.3,193.3,524.6,237,524.6,237z"/>
<path class="st9" d="M524.6,236.9v23.7c0,0,3.7-43.9,155.9-45.7v-23.7C528.3,193,524.6,236.9,524.6,236.9z"/>
<path class="st10" d="M582.4,642.9V483.2c0-5.7,13.7-5.7,13.7,0v159.7C596.1,663.6,582.4,663.6,582.4,642.9z"/>
<path class="st11" d="M717.5,465.9c-105.5-0.5-111.2,20-111.2,20l0.2,55.8c0,0,5.7-20.5,111.2-20L717.5,465.9z"/>
<path class="st0" d="M619,565.5"/>
<path class="st12" d="M261.5,450.3c-0.1,8.7-0.1,17.4-0.1,26.1c6.8,8.3,15.8,17.5,27.5,25.9c38.1,27.3,79.6,28.5,97.7,27.8
	c0-8.9,0-17.7,0.1-26.6c-18.6,1.9-33.3,0.3-42.5-1.4c-36-6.2-82.4-27.7-82.7-51.2C261.5,450.7,261.5,450.5,261.5,450.3z"/>
<path class="st13" d="M261.5,450.3c0,3.9-0.1,7.8-0.1,11.8c6.9,8.7,16.2,18.3,28.3,27.1c37.9,27.3,79.3,28.4,97,27.8
	c0-4.9,0-9.8,0-14.7c-6.6-0.1-15.5-0.5-26-1.9c-9-1.2-24-3.4-42.2-10.7c-16.7-6.6-28.1-14.4-31.3-16.6
	C275.8,465.1,267.4,456.9,261.5,450.3z"/>
<path class="st6" d="M715.5,521L715.5,521l-0.1-53.6c-101.3-0.5-106.9,19.2-106.9,19.2l0.1,25.8c1-2.2,11.8-19.5,106.7-19"/>
<path class="st14" d="M715.3,493.5v4.9"/>
<path class="st7" d="M715.5,519.4v1.6h0.1l-0.2-53.6c-101.3-0.5-106.9,19.2-106.9,19.2l0.1,14.9c0.7-1.8,10.4-19.5,106.8-19.1
	L715.5,519.4"/>
</svg>
