<?xml version="1.0" encoding="utf-8"?>
<!-- Generator: Adobe Illustrator 26.3.1, SVG Export Plug-In . SVG Version: 6.00 Build 0)  -->
<svg version="1.1" id="Layer_1" xmlns="http://www.w3.org/2000/svg" xmlns:xlink="http://www.w3.org/1999/xlink" x="0px" y="0px"
	 viewBox="0 0 1000 1000" style="enable-background:new 0 0 1000 1000;" xml:space="preserve">
<style type="text/css">
	.st0{fill:#CCCCCC;}
	.st1{fill:#FFFFFF;stroke:#000000;stroke-width:2;stroke-miterlimit:10;}
	.st2{fill:#FF855B;}
	.st3{fill:#FF635B;}
	.st4{fill:#C7385B;}
	.st5{fill:#62245B;}
	.st6{fill:#83005B;}
	.st7{fill:none;stroke:#FF855B;stroke-width:2;stroke-miterlimit:10;}
	.st8{fill:none;stroke:#000000;stroke-width:8;stroke-miterlimit:10;}
	.st9{fill:none;stroke:#B3B3B3;stroke-width:4;stroke-miterlimit:10;}
	.st10{fill:#E6E6E6;}
	.st11{fill:#B3B3B3;}
	.st12{fill:#999999;}
	.st13{fill:#808080;}
	.st14{fill:none;stroke:#CCCCCC;stroke-width:2;stroke-miterlimit:10;}
</style>
<g>
	<path class="st0" d="M176.2,740.8c-51.9,0-94.1-42.2-94.1-94.1v-236c0-51.9,42.2-94.1,94.1-94.1h676.4c51.9,0,94.1,42.2,94.1,94.1
		v236c0,51.9-42.2,94.1-94.1,94.1H176.2z"/>
	<path class="st0" d="M852.6,324.5c47.5,0,86.1,38.6,86.1,86.1v236c0,47.5-38.6,86.1-86.1,86.1H176.2c-47.5,0-86.1-38.6-86.1-86.1
		v-236c0-47.5,38.6-86.1,86.1-86.1H852.6 M852.6,308.5H176.2c-56.4,0-102.1,45.7-102.1,102.1v236c0,56.4,45.7,102.1,102.1,102.1
		h676.4c56.4,0,102.1-45.7,102.1-102.1v-236C954.8,354.2,909,308.5,852.6,308.5L852.6,308.5z"/>
</g>
<g>
	<path class="st1" d="M61.9,625.1V389.3c0-52,42.1-94.1,94.1-94.1h676.8c52,0,94.1,42.1,94.1,94.1v235.8c0,52-42.1,94.1-94.1,94.1
		H156C104,719.2,61.9,677.1,61.9,625.1z"/>
	<path d="M832.9,302.6c47.5,0,86.1,38.6,86.1,86.1v236c0,47.5-38.6,86.1-86.1,86.1H156.5c-47.5,0-86.1-38.6-86.1-86.1v-236
		c0-47.5,38.6-86.1,86.1-86.1L832.9,302.6 M832.9,286.6H156.5c-56.4,0-102.1,45.7-102.1,102.1v236c0,56.4,45.7,102.1,102.1,102.1
		h676.4c56.4,0,102.1-45.7,102.1-102.1v-236C935,332.4,889.3,286.6,832.9,286.6L832.9,286.6z"/>
</g>
<g>
	<circle class="st2" cx="276.7" cy="537.3" r="114.1"/>
	<path class="st3" d="M289.1,423.5c8.9,16.2,13.9,35,13.9,54.9c0,62.9-51.2,114.1-114.1,114.1c-4.2,0-8.2-0.2-12.4-0.7
		c19.4,35.3,56.9,59.1,100.1,59.1c62.9,0,114.1-51.2,114.1-114.1C391,478.2,346.3,430,289.1,423.5z"/>
	<path class="st4" d="M304.5,426.2c10.9,17.4,16.9,37.8,16.9,60.1c0,62.9-50.9,114.1-114.1,114.1c-9.4,0-18.6-1.2-27.6-3.5
		c20.1,32.6,55.9,54.4,97.4,54.4c62.9,0,114.1-51.2,114.1-114.1C391,483.6,354,438.7,304.5,426.2z"/>
	<path class="st5" d="M332.1,436.9c9.9,16.9,15.7,36.5,15.7,57.7c0,62.9-51.2,114.1-114.1,114.1c-19.6,0-38.5-5-54.7-13.9
		c19.6,34,56.7,56.7,98.7,56.7c62.9,0,114.1-51.2,114.1-114.1C391.5,493.8,367.4,456.3,332.1,436.9z"/>
	<path class="st6" d="M332.3,437.2c15.7,19.6,25.1,44.5,25.1,71.6c0,62.9-51.2,114.1-114.1,114.1c-20.1,0-39-5.5-55.7-14.4
		c20.9,26.1,53.2,43,89,43c62.9,0,114.1-51.2,114.1-114.1C391,494.1,367.1,456.5,332.3,437.2z"/>
</g>
<circle class="st7" cx="276.7" cy="537.3" r="144.4"/>
<line class="st8" x1="167.9" y1="328" x2="251" y2="328"/>
<line class="st8" x1="276.7" y1="328" x2="391.2" y2="328"/>
<line class="st8" x1="414.6" y1="328" x2="549.7" y2="328"/>
<line class="st9" x1="171.3" y1="355.7" x2="231.1" y2="355.7"/>
<line class="st9" x1="251" y1="355.7" x2="344.5" y2="355.7"/>
<line class="st9" x1="355.7" y1="355.7" x2="440.6" y2="355.7"/>
<line class="st9" x1="458.7" y1="355.7" x2="534.1" y2="355.7"/>
<line class="st9" x1="171.3" y1="372.1" x2="276.7" y2="372.1"/>
<line class="st9" x1="285.4" y1="372.1" x2="414.6" y2="372.1"/>
<line class="st9" x1="435.4" y1="372.1" x2="502.9" y2="372.1"/>
<g>
	<circle class="st10" cx="704.5" cy="452.1" r="113.4"/>
	<path class="st0" d="M716.9,339c8.9,16.1,13.8,34.8,13.8,54.6c0,62.5-50.9,113.4-113.4,113.4c-4.2,0-8.2-0.2-12.4-0.7
		c19.3,35.1,56.6,58.8,99.5,58.8c62.5,0,113.4-50.9,113.4-113.4C818.1,393.3,773.7,345.4,716.9,339z"/>
	<path class="st11" d="M732.2,341.7c10.9,17.3,16.8,37.5,16.8,59.8c0,62.5-50.6,113.4-113.4,113.4c-9.4,0-18.5-1.2-27.4-3.5
		c20,32.4,55.6,54.1,96.8,54.1c62.5,0,113.4-50.9,113.4-113.4C818.1,398.8,781.3,354.1,732.2,341.7z"/>
	<path class="st12" d="M759.6,352.3c9.9,16.8,15.6,36.3,15.6,57.3c0,62.5-50.9,113.4-113.4,113.4c-19.5,0-38.3-4.9-54.3-13.8
		c19.5,33.8,56.3,56.3,98.1,56.3c62.5,0,113.4-50.9,113.4-113.4C818.6,408.9,794.7,371.6,759.6,352.3z"/>
	<path class="st13" d="M759.9,352.6c15.6,19.5,24.9,44.2,24.9,71.1c0,62.5-50.9,113.4-113.4,113.4c-20,0-38.8-5.4-55.3-14.3
		c20.7,25.9,52.9,42.7,88.4,42.7c62.5,0,113.4-50.9,113.4-113.4C818.1,409.1,794.4,371.8,759.9,352.6z"/>
</g>
<circle class="st14" cx="700.3" cy="452" r="143.5"/>
<line class="st8" x1="482.1" y1="624" x2="567.2" y2="624"/>
<line class="st8" x1="596.6" y1="624" x2="677.1" y2="624"/>
<line class="st9" x1="482.1" y1="646.7" x2="546.7" y2="646.7"/>
<line class="st9" x1="562.1" y1="646.7" x2="658.7" y2="646.7"/>
<line class="st9" x1="672.1" y1="646.7" x2="728.6" y2="646.7"/>
<line class="st9" x1="745.3" y1="646.7" x2="790.4" y2="646.7"/>
<line class="st9" x1="482.1" y1="660.9" x2="567.2" y2="660.9"/>
<line class="st9" x1="581.4" y1="660.9" x2="710.7" y2="660.9"/>
<line class="st9" x1="721.6" y1="660.9" x2="797.1" y2="660.9"/>
<line class="st9" x1="482.1" y1="681.7" x2="572.2" y2="681.7"/>
<line class="st9" x1="585.1" y1="681.7" x2="690.6" y2="681.7"/>
<line class="st9" x1="716.6" y1="681.7" x2="786.2" y2="681.7"/>
<line class="st8" x1="697.7" y1="624" x2="723.7" y2="624"/>
</svg>
