<?xml version="1.0" encoding="utf-8"?>
<!-- Generator: Adobe Illustrator 26.3.1, SVG Export Plug-In . SVG Version: 6.00 Build 0)  -->
<svg version="1.1" id="Layer_1" xmlns="http://www.w3.org/2000/svg" xmlns:xlink="http://www.w3.org/1999/xlink" x="0px" y="0px"
	 viewBox="0 0 1000 1000" style="enable-background:new 0 0 1000 1000;" xml:space="preserve">
<style type="text/css">
	.st0{fill:#CCCCCC;}
	.st1{fill:#FFFFFF;stroke:#000000;stroke-width:3;stroke-miterlimit:10;}
	.st2{fill:#FF855B;}
	.st3{fill:#FF635B;}
	.st4{fill:#C7385B;}
	.st5{fill:#62245B;}
	.st6{fill:#83005B;}
	.st7{fill:none;stroke:#FF855B;stroke-width:2;stroke-miterlimit:10;}
	.st8{font-family:'MontserratAlternates-Black';}
	.st9{font-size:64.7696px;}
	.st10{fill:none;stroke:#CCCCCC;stroke-width:5;stroke-miterlimit:10;}
	.st11{fill:none;stroke:#000000;stroke-width:3;stroke-miterlimit:10;}
	.st12{fill:none;stroke:#000000;stroke-width:4;stroke-miterlimit:10;}
	.st13{fill:none;stroke:#CCCCCC;stroke-width:2;stroke-miterlimit:10;}
	.st14{fill:none;stroke:#CCCCCC;stroke-width:3;stroke-miterlimit:10;}
	.st15{fill:none;stroke:#720027;stroke-width:5;stroke-miterlimit:10;}
	.st16{fill:none;stroke:#000000;stroke-width:5;stroke-miterlimit:10;}
</style>
<path class="st0" d="M841.2,739h-643c-43.7,0-79.1-35.4-79.1-79.1V370.1c0-43.7,35.4-79.1,79.1-79.1h643c43.7,0,79.1,35.4,79.1,79.1
	v289.7C920.3,703.6,884.9,739,841.2,739z"/>
<path class="st1" d="M821.5,724h-643c-43.7,0-79.1-35.4-79.1-79.1V355.1c0-43.7,35.4-79.1,79.1-79.1h643c43.7,0,79.1,35.4,79.1,79.1
	v289.7C900.7,688.6,865.2,724,821.5,724z"/>
<g>
	<circle class="st2" cx="330.3" cy="500" r="93"/>
	<path class="st3" d="M340.4,407.2c7.3,13.2,11.4,28.5,11.4,44.8c0,51.3-41.7,93-93,93c-3.4,0-6.7-0.3-10.1-0.5
		c15.8,28.8,46.4,48.2,81.6,48.2c51.3,0,93-41.7,93-93C423.3,451.8,387,412.4,340.4,407.2z"/>
	<path class="st4" d="M352.8,409.6c8.8,14.2,13.7,30.8,13.7,49c0,51.3-41.5,93-93,93c-7.8,0-15.3-1-22.5-2.8
		c16.3,26.4,45.6,44.3,79.3,44.3c51.3,0,93-41.7,93-93C423.3,456.2,393.2,419.7,352.8,409.6z"/>
	<path class="st5" d="M375.3,418.1c8,13.7,12.7,29.8,12.7,46.9c0,51.3-41.7,93-93,93c-16.1,0-31.3-4.1-44.6-11.4
		c16.1,27.7,46.1,46.1,80.3,46.1c51.3,0,93-41.7,93-93C423.8,464.5,404.1,433.9,375.3,418.1z"/>
	<path class="st6" d="M375.6,418.4c12.7,16.1,20.5,36.3,20.5,58.3c0,51.3-41.7,93-93,93c-16.3,0-31.9-4.4-45.3-11.7
		c17.1,21.2,43.3,35,72.5,35c51.3,0,93-41.7,93-93C423.3,464.8,403.8,434.2,375.6,418.4z"/>
</g>
<circle class="st7" cx="330.3" cy="500" r="117.6"/>
<g>
	<ellipse class="st2" cx="248.7" cy="587.3" rx="18.9" ry="18.9"/>
	<path class="st3" d="M250.7,568.4c1.6,2.6,2.3,5.7,2.3,9.1c0,10.4-8.5,18.9-18.9,18.9c-0.8,0-1.3,0-2.1,0c3.1,6,9.6,9.8,16.6,9.8
		c10.4,0,18.9-8.5,18.9-18.9C267.6,577.5,260.1,569.4,250.7,568.4z"/>
	<path class="st4" d="M253.3,568.9c1.8,2.8,2.8,6.2,2.8,9.8c0,10.4-8.5,18.9-18.9,18.9c-1.6,0-3.1-0.3-4.7-0.5
		c3.4,5.4,9.3,9.1,16.1,9.1c10.4,0,18.9-8.5,18.9-18.9C267.6,578.2,261.3,571,253.3,568.9z"/>
	<path class="st5" d="M257.7,570.5c1.6,2.8,2.6,6,2.6,9.6c0,10.4-8.5,18.9-18.9,18.9c-3.4,0-6.5-0.8-9.1-2.3
		c3.4,5.7,9.3,9.3,16.3,9.3c10.4,0,18.9-8.5,18.9-18.9C267.8,580.1,263.7,573.8,257.7,570.5z"/>
</g>
<text transform="matrix(1 0 0 1 473.7732 519.8405)" class="st2 st8 st9">WE</text>
<text transform="matrix(1 0 0 1 599.6848 519.8405)" class="st3 st8 st9">BL</text>
<text transform="matrix(1 0 0 1 691.3987 519.8405)" class="st4 st8 st9">I</text>
<text transform="matrix(1 0 0 1 725.5969 519.8405)" class="st5 st8 st9">S</text>
<text transform="matrix(1 0 0 1 769.1213 519.8405)" class="st6 st8 st9">H</text>
<path class="st10" d="M212.6,365.3c0-35.9,235.2-35.9,235.2,0"/>
<path class="st11" d="M212.6,362.4c0-35.9,235.2-35.9,235.2,0"/>
<line class="st12" x1="212.6" y1="301.1" x2="280.6" y2="301.1"/>
<line class="st12" x1="290.6" y1="301.1" x2="337.1" y2="301.1"/>
<line class="st12" x1="347.1" y1="301.1" x2="370.7" y2="301.1"/>
<line class="st13" x1="212.6" y1="313.5" x2="232.6" y2="313.5"/>
<line class="st13" x1="238.9" y1="313.5" x2="278.4" y2="313.5"/>
<line class="st13" x1="282.8" y1="313.5" x2="321.3" y2="313.5"/>
<line class="st13" x1="330.3" y1="313.5" x2="349.7" y2="313.5"/>
<line class="st13" x1="212.6" y1="319.5" x2="250.5" y2="319.5"/>
<line class="st13" x1="255.8" y1="319.5" x2="300.2" y2="319.5"/>
<line class="st13" x1="305.1" y1="319.5" x2="338.3" y2="319.5"/>
<line class="st13" x1="344.3" y1="319.5" x2="374.5" y2="319.5"/>
<line class="st13" x1="213.8" y1="325.3" x2="248.7" y2="325.3"/>
<path class="st14" d="M477.1,536.5c0,9.4,70.5,9.4,70.5,0"/>
<path class="st11" d="M477.1,537.3c0,9.4,70.5,9.4,70.5,0"/>
<line class="st11" x1="474.8" y1="560.2" x2="508.7" y2="560.2"/>
<line class="st11" x1="522.1" y1="560.2" x2="595.4" y2="560.2"/>
<line class="st13" x1="474.8" y1="570.5" x2="512.3" y2="570.5"/>
<line class="st13" x1="519.7" y1="570.5" x2="568.5" y2="570.5"/>
<line class="st13" x1="575.9" y1="570.5" x2="620.9" y2="570.5"/>
<line class="st13" x1="477.1" y1="579.7" x2="537.4" y2="579.7"/>
<line class="st13" x1="544.1" y1="579.7" x2="611.1" y2="579.7"/>
<line class="st13" x1="477.1" y1="587.6" x2="531.4" y2="587.6"/>
<path class="st1" d="M828.5,473.5c17.9,0,17.9,47.4,0,47.4"/>
<line class="st11" x1="771.2" y1="413.2" x2="824.4" y2="413.2"/>
<line class="st11" x1="837.7" y1="413.2" x2="870.8" y2="413.2"/>
<line class="st11" x1="715.5" y1="413.2" x2="750.4" y2="413.2"/>
<line class="st13" x1="715.5" y1="428.3" x2="753.2" y2="428.3"/>
<line class="st13" x1="762.6" y1="428.3" x2="824.4" y2="428.3"/>
<line class="st13" x1="830.7" y1="428.3" x2="857.2" y2="428.3"/>
<line class="st13" x1="864.2" y1="428.3" x2="884.9" y2="428.3"/>
<line class="st13" x1="715.5" y1="434.6" x2="779.5" y2="434.6"/>
<line class="st13" x1="786.4" y1="434.6" x2="842" y2="434.6"/>
<line class="st13" x1="847" y1="434.6" x2="882" y2="434.6"/>
<line class="st13" x1="715.5" y1="441" x2="753.2" y2="441"/>
<line class="st13" x1="762.6" y1="441" x2="815.6" y2="441"/>
<path class="st11" d="M830.7,473.5c17.9,0,17.9,47.4,0,47.4"/>
<path class="st10" d="M474.1,388.8c0-26.7,366.9-26.7,366.9,0"/>
<path class="st11" d="M474.1,385.3c0-26.7,366.9-26.7,366.9,0"/>
<path class="st15" d="M1419.9,164.6"/>
<line class="st13" x1="204.3" y1="657.6" x2="313.8" y2="657.6"/>
<line class="st13" x1="336" y1="657.6" x2="458.9" y2="657.6"/>
<line class="st13" x1="469.9" y1="657.6" x2="519.7" y2="657.6"/>
<line class="st13" x1="204.3" y1="673" x2="290.6" y2="673"/>
<line class="st13" x1="308.5" y1="673" x2="381.2" y2="673"/>
<line class="st13" x1="397.4" y1="673" x2="563.9" y2="673"/>
<line class="st13" x1="204.3" y1="684.4" x2="267.6" y2="684.4"/>
<line class="st13" x1="275.4" y1="684.4" x2="320.3" y2="684.4"/>
<line class="st13" x1="330.3" y1="684.4" x2="408.7" y2="684.4"/>
<line class="st13" x1="423.3" y1="684.4" x2="497.7" y2="684.4"/>
<line class="st13" x1="508.7" y1="684.4" x2="595.4" y2="684.4"/>
<line class="st13" x1="204.3" y1="694.3" x2="251" y2="694.3"/>
<line class="st13" x1="257.7" y1="694.3" x2="373.2" y2="694.3"/>
<line class="st16" x1="493.6" y1="301.1" x2="620.9" y2="301.1"/>
<line class="st16" x1="641.8" y1="301.1" x2="797.8" y2="301.1"/>
<line class="st13" x1="494.8" y1="319.5" x2="558.7" y2="319.5"/>
<line class="st13" x1="568.5" y1="319.5" x2="675.3" y2="319.5"/>
<line class="st13" x1="689.2" y1="319.5" x2="793.5" y2="319.5"/>
<line class="st13" x1="493.6" y1="331.1" x2="577.6" y2="331.1"/>
<line class="st13" x1="586.4" y1="331.1" x2="665" y2="331.1"/>
<line class="st13" x1="675.3" y1="331.1" x2="775.4" y2="331.1"/>
<line class="st13" x1="786.4" y1="331.1" x2="803" y2="331.1"/>
<line class="st13" x1="493.6" y1="343.4" x2="678.6" y2="343.4"/>
<line class="st13" x1="685.4" y1="343.4" x2="733" y2="343.4"/>
</svg>
