<?xml version="1.0" encoding="utf-8"?>
<!-- Generator: Adobe Illustrator 26.3.1, SVG Export Plug-In . SVG Version: 6.00 Build 0)  -->
<svg version="1.1" id="Layer_1" xmlns="http://www.w3.org/2000/svg" xmlns:xlink="http://www.w3.org/1999/xlink" x="0px" y="0px"
	 viewBox="0 0 1000 1000" style="enable-background:new 0 0 1000 1000;" xml:space="preserve">
<style type="text/css">
	.st0{fill:#CCCCCC;}
	.st1{fill:#FFFFFF;}
	.st2{fill:#FF855B;}
	.st3{fill:#FF635B;}
	.st4{fill:#C7385B;}
	.st5{fill:#62245B;}
	.st6{fill:#83005B;}
	.st7{fill:none;stroke:#FF855B;stroke-width:2;stroke-miterlimit:10;}
	.st8{fill:#FFFFFF;stroke:#000000;stroke-width:8;stroke-miterlimit:10;}
	.st9{fill:#FFFFFF;stroke:#B3B3B3;stroke-width:4;stroke-miterlimit:10;}
	.st10{fill:#E6E6E6;}
	.st11{fill:#B3B3B3;}
	.st12{fill:#999999;}
	.st13{fill:#808080;}
	.st14{fill:none;stroke:#CCCCCC;stroke-width:2;stroke-miterlimit:10;}
	.st15{fill:none;stroke:#000000;stroke-width:8;stroke-miterlimit:10;}
</style>
<g>
	<path class="st0" d="M168.3,748.7c-51.9,0-94.1-42.2-94.1-94.1v-236c0-51.9,42.2-94.1,94.1-94.1h676.4c51.9,0,94.1,42.2,94.1,94.1
		v236c0,51.9-42.2,94.1-94.1,94.1H168.3z"/>
	<path class="st0" d="M844.7,332.4c47.5,0,86.1,38.6,86.1,86.1v236c0,47.5-38.6,86.1-86.1,86.1H168.3c-47.5,0-86.1-38.6-86.1-86.1
		v-236c0-47.5,38.6-86.1,86.1-86.1H844.7 M844.7,316.4H168.3c-56.4,0-102.1,45.7-102.1,102.1v236c0,56.4,45.7,102.1,102.1,102.1
		h676.4c56.4,0,102.1-45.7,102.1-102.1v-236C946.9,362.1,901.1,316.4,844.7,316.4L844.7,316.4z"/>
</g>
<g>
	<path class="st1" d="M148.6,726.9c-51.9,0-94.1-42.2-94.1-94.1v-236c0-51.9,42.2-94.1,94.1-94.1H825c51.9,0,94.1,42.2,94.1,94.1
		v236c0,51.9-42.2,94.1-94.1,94.1H148.6z"/>
	<path d="M825,310.5c47.5,0,86.1,38.6,86.1,86.1v236c0,47.5-38.6,86.1-86.1,86.1H148.6c-47.5,0-86.1-38.6-86.1-86.1v-236
		c0-47.5,38.6-86.1,86.1-86.1H825 M825,294.5H148.6c-56.4,0-102.1,45.7-102.1,102.1v236c0,56.4,45.7,102.1,102.1,102.1H825
		c56.4,0,102.1-45.7,102.1-102.1v-236C927.1,340.3,881.4,294.5,825,294.5L825,294.5z"/>
</g>
<g>
	<circle class="st2" cx="268.8" cy="545.2" r="114.1"/>
	<path class="st3" d="M281.2,431.4c8.9,16.2,13.9,35,13.9,54.9c0,62.9-51.2,114.1-114.1,114.1c-4.2,0-8.2-0.2-12.4-0.7
		c19.4,35.3,56.9,59.1,100.1,59.1c62.9,0,114.1-51.2,114.1-114.1C383.1,486.1,338.4,437.9,281.2,431.4z"/>
	<path class="st4" d="M296.6,434.1c10.9,17.4,16.9,37.8,16.9,60.1c0,62.9-50.9,114.1-114.1,114.1c-9.4,0-18.6-1.2-27.6-3.5
		c20.1,32.6,55.9,54.4,97.4,54.4c62.9,0,114.1-51.2,114.1-114.1C383.1,491.5,346.1,446.6,296.6,434.1z"/>
	<path class="st5" d="M324.2,444.8c9.9,16.9,15.7,36.5,15.7,57.7c0,62.9-51.2,114.1-114.1,114.1c-19.6,0-38.5-5-54.7-13.9
		c19.6,34,56.7,56.7,98.7,56.7c62.9,0,114.1-51.2,114.1-114.1C383.6,501.7,359.5,464.2,324.2,444.8z"/>
	<path class="st6" d="M324.4,445.1c15.7,19.6,25.1,44.5,25.1,71.6c0,62.9-51.2,114.1-114.1,114.1c-20.1,0-39-5.5-55.7-14.4
		c20.9,26.1,53.2,43,89,43c62.9,0,114.1-51.2,114.1-114.1C383.1,502,359.2,464.4,324.4,445.1z"/>
</g>
<circle class="st7" cx="268.8" cy="545.2" r="144.4"/>
<line class="st8" x1="160" y1="335.9" x2="243.1" y2="335.9"/>
<line class="st8" x1="268.8" y1="335.9" x2="383.3" y2="335.9"/>
<line class="st8" x1="406.7" y1="335.9" x2="541.8" y2="335.9"/>
<line class="st9" x1="163.4" y1="363.6" x2="223.2" y2="363.6"/>
<line class="st9" x1="243.1" y1="363.6" x2="336.6" y2="363.6"/>
<line class="st9" x1="347.8" y1="363.6" x2="432.7" y2="363.6"/>
<line class="st9" x1="450.8" y1="363.6" x2="526.2" y2="363.6"/>
<line class="st9" x1="163.4" y1="380" x2="268.8" y2="380"/>
<line class="st9" x1="277.5" y1="380" x2="406.7" y2="380"/>
<line class="st9" x1="427.5" y1="380" x2="495" y2="380"/>
<g>
	<circle class="st10" cx="696.6" cy="460" r="113.4"/>
	<path class="st0" d="M709,346.9c8.9,16.1,13.8,34.8,13.8,54.6c0,62.5-50.9,113.4-113.4,113.4c-4.2,0-8.2-0.2-12.4-0.7
		c19.3,35.1,56.6,58.8,99.5,58.8c62.5,0,113.4-50.9,113.4-113.4C810.2,401.2,765.8,353.3,709,346.9z"/>
	<path class="st11" d="M724.3,349.6c10.9,17.3,16.8,37.5,16.8,59.8c0,62.5-50.6,113.4-113.4,113.4c-9.4,0-18.5-1.2-27.4-3.5
		c20,32.4,55.6,54.1,96.8,54.1c62.5,0,113.4-50.9,113.4-113.4C810.2,406.7,773.4,362,724.3,349.6z"/>
	<path class="st12" d="M751.7,360.2c9.9,16.8,15.6,36.3,15.6,57.3c0,62.5-50.9,113.4-113.4,113.4c-19.5,0-38.3-4.9-54.3-13.8
		c19.5,33.8,56.3,56.3,98.1,56.3c62.5,0,113.4-50.9,113.4-113.4C810.7,416.8,786.8,379.5,751.7,360.2z"/>
	<path class="st13" d="M752,360.5c15.6,19.5,24.9,44.2,24.9,71.1c0,62.5-50.9,113.4-113.4,113.4c-20,0-38.8-5.4-55.3-14.3
		c20.7,25.9,52.9,42.7,88.4,42.7c62.5,0,113.4-50.9,113.4-113.4C810.2,417,786.5,379.7,752,360.5z"/>
</g>
<circle class="st14" cx="692.4" cy="459.9" r="143.5"/>
<line class="st15" x1="474.2" y1="631.9" x2="559.3" y2="631.9"/>
<line class="st15" x1="588.7" y1="631.9" x2="669.2" y2="631.9"/>
<line class="st9" x1="474.2" y1="654.6" x2="538.8" y2="654.6"/>
<line class="st9" x1="554.2" y1="654.6" x2="650.8" y2="654.6"/>
<line class="st9" x1="664.2" y1="654.6" x2="720.7" y2="654.6"/>
<line class="st9" x1="737.4" y1="654.6" x2="782.5" y2="654.6"/>
<line class="st9" x1="474.2" y1="668.8" x2="559.3" y2="668.8"/>
<line class="st9" x1="573.5" y1="668.8" x2="702.8" y2="668.8"/>
<line class="st9" x1="713.7" y1="668.8" x2="789.2" y2="668.8"/>
<line class="st9" x1="474.2" y1="689.6" x2="564.3" y2="689.6"/>
<line class="st9" x1="577.2" y1="689.6" x2="682.7" y2="689.6"/>
<line class="st9" x1="708.7" y1="689.6" x2="778.3" y2="689.6"/>
<line class="st15" x1="689.8" y1="631.9" x2="715.8" y2="631.9"/>
</svg>
