<?xml version="1.0" encoding="utf-8"?>
<!-- Generator: Adobe Illustrator 26.3.1, SVG Export Plug-In . SVG Version: 6.00 Build 0)  -->
<svg version="1.1" id="Layer_1" xmlns="http://www.w3.org/2000/svg" xmlns:xlink="http://www.w3.org/1999/xlink" x="0px" y="0px"
	 viewBox="0 0 1000 1000" style="enable-background:new 0 0 1000 1000;" xml:space="preserve">
<style type="text/css">
	.st0{fill:#E6E6E6;stroke:#E6E6E6;stroke-width:13;stroke-miterlimit:10;}
	.st1{fill:#FFFFFF;}
	.st2{fill:#FFFFFF;stroke:#000000;stroke-width:15;stroke-miterlimit:10;}
	.st3{fill:#FFFFFF;stroke:#000000;stroke-width:9;stroke-miterlimit:10;}
	.st4{fill:#FFFFFF;stroke:#000000;stroke-width:16;stroke-miterlimit:10;}
	.st5{fill:#FF855B;}
	.st6{fill:#FF635B;}
	.st7{fill:#C7385B;}
	.st8{fill:#62245B;}
	.st9{fill:#83005B;}
	.st10{fill:none;stroke:#FF855B;stroke-width:2;stroke-miterlimit:10;}
	.st11{fill:#CCCCCC;stroke:#1A1A1A;stroke-width:9;stroke-miterlimit:10;}
	.st12{stroke:#CCCCCC;stroke-width:5;stroke-miterlimit:10;}
	.st13{stroke:#CCCCCC;stroke-width:7;stroke-miterlimit:10;}
	.st14{stroke:#CCCCCC;stroke-width:2;stroke-miterlimit:10;}
	.st15{stroke:#000000;stroke-width:13;stroke-miterlimit:10;}
	.st16{fill:none;stroke:#000000;stroke-width:24;stroke-miterlimit:10;}
	.st17{stroke:#000000;stroke-width:24;stroke-miterlimit:10;}
	.st18{fill:#CCCCCC;stroke:#000000;stroke-width:9;stroke-miterlimit:10;}
	.st19{fill:#FFFFFF;stroke:#000000;stroke-width:20;stroke-miterlimit:10;}
	.st20{fill:#FFFFFF;stroke:#000000;stroke-width:12;stroke-miterlimit:10;}
</style>
<path class="st0" d="M406.8,536.9c0,0-242,245.5-259.9,263.5c-17.9,17.9,8.9,41.5,27,23.3c18.2-18.2,260.8-260.8,260.8-260.8
	C424.8,554.9,415.4,546.2,406.8,536.9z"/>
<path class="st1" d="M846.1,534.2c-34.4-18.5-60.3-19.1-77.6-16.4c-48.2,7.7-56.2,46.7-116,62.9c-11.2,3.1-33.3,4.6-77.3,6.6
	c-47.7,2.1-71.5,3.1-83.8,0.5c-50.4-10.7-65.3-48.2-98.4-70.6c-34.6-23.4-97-35.6-219.5,17c0-135.8,0-271.6,0-407.5
	c187.9,46.9,252.7,30.6,275.8,5.1c4.1-4.5,14.6-17.9,33.8-29.8c36-22.3,74.1-21.8,93.3-21.3c18.8,0.5,49.3,3.9,82.4,19.4
	c40.3,18.9,43.8,37,71,47.5c22.8,8.8,58.9,11.1,116.3-20.8C846.1,262.6,846.1,398.4,846.1,534.2z"/>
<line class="st2" x1="685.5" y1="572.8" x2="468" y2="572.8"/>
<path class="st3" d="M693.8,116.7h140.1c28.7,0,52,23.3,52,52v326c0,28.7-23.3,52-52,52h-93.6"/>
<line class="st4" x1="453.9" y1="101.7" x2="666.9" y2="101.7"/>
<path class="st3" d="M410.4,546.7H171.7c-28.7,0-52-23.3-52-52v-326c0-28.7,23.3-52,52-52h276.8"/>
<path class="st0" d="M757.8,154.9c49.3,47.2,80,113.7,80,187.4c0,143.3-116.2,259.4-259.4,259.4c-61.7,0-118.4-21.6-163-57.6
	c46.6,44.6,109.8,72,179.4,72c143.3,0,259.4-116.2,259.4-259.4C854.2,275.2,816.6,202.5,757.8,154.9z"/>
<g>
	<circle class="st5" cx="320.7" cy="285.1" r="94.9"/>
	<path class="st6" d="M331,190.5c7.4,13.5,11.6,29.1,11.6,45.7c0,52.3-42.6,94.9-94.9,94.9c-3.4,0-6.9-0.3-10.3-0.5
		c16.1,29.3,47.3,49.2,83.3,49.2c52.3,0,94.9-42.6,94.9-94.9C415.6,235.9,378.6,195.7,331,190.5z"/>
	<path class="st7" d="M343.7,192.8c9,14.5,14,31.5,14,50c0,52.3-42.3,94.9-94.9,94.9c-7.9,0-15.6-1.1-23-2.9
		c16.7,27,46.5,45.2,80.9,45.2c52.3,0,94.9-42.6,94.9-94.9C415.6,240.4,384.9,203.1,343.7,192.8z"/>
	<path class="st8" d="M366.7,201.6c8.2,14,13,30.4,13,47.8c0,52.3-42.6,94.9-94.9,94.9c-16.4,0-32-4.2-45.5-11.6
		c16.4,28.3,47.1,47.1,81.9,47.1c52.3,0,94.9-42.6,94.9-94.9C416.1,248.9,396,217.7,366.7,201.6z"/>
	<path class="st9" d="M367,201.8c13,16.4,20.9,37,20.9,59.5c0,52.3-42.6,94.9-94.9,94.9c-16.7,0-32.5-4.5-46.3-11.9
		c17.4,21.7,44.1,35.7,74,35.7c52.3,0,94.9-42.6,94.9-94.9C415.6,249.1,395.8,218,367,201.8z"/>
</g>
<circle class="st10" cx="320.7" cy="285.1" r="120"/>
<line class="st11" x1="243.4" y1="444.9" x2="327.7" y2="444.9"/>
<line class="st12" x1="298" y1="465.4" x2="335" y2="465.4"/>
<line class="st12" x1="313.7" y1="483.5" x2="343.9" y2="483.5"/>
<line class="st13" x1="568.6" y1="203.7" x2="657.7" y2="203.7"/>
<line class="st13" x1="671.4" y1="203.7" x2="719.5" y2="203.7"/>
<polyline class="st12" points="858.2,213.2 860.9,213.2 869,213.2 "/>
<path class="st14" d="M813,197.4"/>
<line class="st13" x1="568.6" y1="221.6" x2="671.4" y2="221.6"/>
<line class="st13" x1="687.7" y1="221.6" x2="748.5" y2="221.6"/>
<line class="st13" x1="755.7" y1="221.6" x2="769.8" y2="221.6"/>
<line class="st12" x1="800.6" y1="228.9" x2="842.8" y2="228.9"/>
<line class="st13" x1="568.6" y1="240.7" x2="708.4" y2="240.7"/>
<line class="st13" x1="722.9" y1="240.7" x2="804" y2="240.7"/>
<line class="st12" x1="811.8" y1="251.3" x2="874.8" y2="251.3"/>
<line class="st12" x1="139.4" y1="500" x2="356.3" y2="500"/>
<line class="st13" x1="386.3" y1="515.8" x2="465.5" y2="515.8"/>
<line class="st13" x1="734" y1="203.7" x2="777.3" y2="203.7"/>
<polyline class="st12" points="798.2,213.2 821.7,213.2 845.2,213.2 "/>
<line class="st13" x1="404.8" y1="531.7" x2="476.6" y2="531.7"/>
<line class="st13" x1="433.7" y1="551.3" x2="471.8" y2="551.3"/>
<g>
	<ellipse class="st5" cx="237.4" cy="374.2" rx="19.3" ry="19.3"/>
	<path class="st6" d="M239.5,354.9c1.6,2.6,2.4,5.8,2.4,9.3c0,10.6-8.7,19.3-19.3,19.3c-0.8,0-1.3,0-2.1,0c3.2,6.1,9.8,10,16.9,10
		c10.6,0,19.3-8.7,19.3-19.3C256.7,364.1,249.1,355.9,239.5,354.9z"/>
	<path class="st7" d="M242.2,355.4c1.9,2.9,2.9,6.3,2.9,10c0,10.6-8.7,19.3-19.3,19.3c-1.6,0-3.2-0.3-4.8-0.5
		c3.4,5.6,9.5,9.3,16.4,9.3c10.6,0,19.3-8.7,19.3-19.3C256.7,364.9,250.4,357.5,242.2,355.4z"/>
	<path class="st8" d="M246.7,357c1.6,2.9,2.6,6.1,2.6,9.8c0,10.6-8.7,19.3-19.3,19.3c-3.4,0-6.6-0.8-9.3-2.4
		c3.4,5.8,9.5,9.5,16.7,9.5c10.6,0,19.3-8.7,19.3-19.3C257,366.8,252.8,360.4,246.7,357z"/>
</g>
<g>
	<path class="st5" d="M411.5,141.7c-0.7,0.6-1.7,1.4-2.8,2.4c-2.9,2.4-5.1,4.1-5.3,4.3c-21.7,17.3-43.7,49-43.7,49
		c-5.1,7.4-12.5,18.1-19.7,33.3c-3.8,8.1-6.5,15.2-8.3,20c-4.8,12.7-7.7,22.8-8.9,26.9c-2.7,9.6-5.2,18.7-6.8,30.5
		c-1.1,7.8-0.8,10.1-1.1,20.6c-0.2,5.7-0.3,8.2-0.5,12.9c-0.5,12.3-0.3,27,0,32.4c0.5,9.1,3,25.8,15.4,49.2c6,3,14.1,6.6,24.1,9.7
		c0,0,21,6.4,43.3,6.4c42.9,0,148.8-48.1,148.9-148.9C546.3,215.9,488.5,150.7,411.5,141.7z"/>
	<path class="st6" d="M413.5,142c7.2,11.9,20.8,38.2,18.2,71.7c-2.8,36.6-23.3,60.8-40.7,81.5c-25.5,30.3-54.8,48.2-77.2,58.7
		c-0.2,6.1-0.1,12.9,0.7,20.1c2.4,21,9.3,37.7,15.4,49.2c4.5,2.2,10.9,5,18.8,7.6c0,0,23.7,8.1,48.6,8.1
		c82.1,0,148.9-66.8,148.9-148.9C546.2,213.3,488.1,150.3,413.5,142z"/>
	<path class="st7" d="M433.4,145.7c4.8,7.8,8.9,16,12.2,24.6c3,8,11,29.3,9.8,53.8c-1.5,29.5-15.8,50.3-24.3,62.8
		c-36.3,53-96.4,71.2-117.3,76.5c0,1.5,0.1,3,0.2,4.7c0.1,1.8,0.3,3.8,0.6,6c0,0,0.4,2.7,1,5.7c1.2,5.8,6.5,22.1,14.4,43.6
		c6.3,3.2,14.9,7,25.4,10.1c0,0,20.4,6,41.9,6c82.1,0,148.9-66.8,148.9-148.9C546.2,220.3,498.1,161.9,433.4,145.7z"/>
	<path class="st8" d="M469.5,159.4c12.9,22,20.3,47.7,20.3,75.1c0,54-76,159.7-148.9,148.9c-11.1-1.6-20-5.7-26.4-9.3
		c0.1,2.7,0.4,6.3,1.2,10.5c0.3,1.8,1.1,6.2,3.1,12.5c3.5,10.9,8.3,20.9,11.1,26.3c4.3,1.9,10.4,4.5,18,7c0,0,25,8.6,50.1,8.6
		c82.1,0,148.9-66.8,148.9-148.9C547,233.6,515.5,184.7,469.5,159.4z"/>
	<path class="st9" d="M469.9,159.8c9.5,13.1,30.9,46.3,32.8,93.3c0.6,16,2.2,55.4-23.6,91.8c-41.1,58-115.8,57.4-125.3,57.1
		c-14.5-0.3-26.5-2.8-34.9-5c0.4,1.5,1,3.9,2,6.7c1.3,3.6,2.3,5.7,4.4,10.5c0.9,2.1,2.3,5.3,4,9.2c4.8,2.2,10.2,4.5,16,6.6
		c7.1,2.5,13.9,4.4,20,5.9c0,0,16,3.5,32,3.5c82.1,0,148.9-66.8,148.9-148.9C546.2,234,515.1,185.1,469.9,159.8z"/>
</g>
<line class="st15" x1="373.1" y1="500" x2="468.6" y2="500"/>
<path class="st10" d="M431.3,126.8c84.3,14.9,148.3,88.5,148.3,177c0,99.3-80.5,179.7-179.7,179.7c-15,0-29.6-1.8-43.5-5.3"/>
<circle class="st16" cx="569.5" cy="340.4" r="259.4"/>
<path class="st17" d="M383.5,534.2c0,0-242,245.5-259.9,263.5s8.9,41.5,27,23.3s260.8-260.8,260.8-260.8
	C401.4,552.3,392.1,543.6,383.5,534.2z"/>
<line class="st18" x1="139.4" y1="444.9" x2="218.1" y2="444.9"/>
<line class="st15" x1="475.9" y1="500" x2="581.9" y2="500"/>
<line class="st12" x1="142.5" y1="465.4" x2="225.8" y2="465.4"/>
<line class="st12" x1="239.8" y1="465.4" x2="280.8" y2="465.4"/>
<line class="st12" x1="142.5" y1="483.5" x2="292.9" y2="483.5"/>
<line class="st13" x1="488.6" y1="517.2" x2="623.8" y2="517.2"/>
<line class="st13" x1="493.1" y1="531.7" x2="630.5" y2="531.7"/>
<line class="st13" x1="486.1" y1="551.3" x2="561.8" y2="551.3"/>
<line class="st19" x1="547" y1="165.8" x2="698.4" y2="165.1"/>
<line class="st20" x1="769.8" y1="180" x2="826.5" y2="180"/>
<line class="st19" x1="713.9" y1="165.8" x2="759.6" y2="165.8"/>
</svg>
