<?xml version="1.0" encoding="utf-8"?>
<!-- Generator: Adobe Illustrator 26.3.1, SVG Export Plug-In . SVG Version: 6.00 Build 0)  -->
<svg version="1.1" id="Layer_1" xmlns="http://www.w3.org/2000/svg" xmlns:xlink="http://www.w3.org/1999/xlink" x="0px" y="0px"
	 viewBox="0 0 1000 1000" style="enable-background:new 0 0 1000 1000;" xml:space="preserve">
<style type="text/css">
	.st0{fill:#CCCCCC;stroke:#CCCCCC;stroke-width:7;stroke-miterlimit:10;}
	.st1{fill:none;stroke:#CCCCCC;stroke-width:8;stroke-miterlimit:10;}
	.st2{fill:#CCCCCC;stroke:#CCCCCC;stroke-width:5;stroke-miterlimit:10;}
	.st3{fill:#FFFFFF;stroke:#000000;stroke-width:6;stroke-miterlimit:10;}
	.st4{fill:#E6E6E6;}
	.st5{fill:#FFFFFF;}
	.st6{fill:#FFFFFF;stroke:#000000;stroke-width:7;stroke-miterlimit:10;}
	.st7{fill:none;stroke:#000000;stroke-width:15;stroke-miterlimit:10;}
	.st8{fill:none;stroke:#000000;stroke-width:10;stroke-miterlimit:10;}
	.st9{fill:#FF855B;}
	.st10{fill:#FF635B;}
	.st11{fill:#C7385B;}
	.st12{fill:#62245B;}
	.st13{fill:#83005B;}
	.st14{fill:none;stroke:#FF855B;stroke-width:2;stroke-miterlimit:10;}
	.st15{fill:none;stroke:#CCCCCC;stroke-width:3;stroke-miterlimit:10;}
	.st16{fill:#CCCCCC;stroke:#CCCCCC;stroke-width:3;stroke-miterlimit:10;}
	.st17{fill:#CCCCCC;stroke:#000000;stroke-width:9;stroke-miterlimit:10;}
</style>
<path class="st0" d="M614.1,171.9"/>
<path class="st1" d="M707.8,532.2c0,0-50,5.3-50,64.2s50.1,64.3,50.1,64.3"/>
<path class="st1" d="M662,231.2c0,0,211.8-33,211.8,211.8c0,0-3.5,159.8-159.8,159.8"/>
<path class="st2" d="M543.6,852.4H254.3c-43.9,0-79.5-35.6-79.5-79.5V495.5c0-43.9,35.6-79.5,79.5-79.5h289.3
	c43.9,0,79.5,35.6,79.5,79.5v277.3C623.1,816.8,587.5,852.4,543.6,852.4z"/>
<path class="st3" d="M531.8,844.8H242.5c-43.9,0-79.5-35.6-79.5-79.5V488c0-43.9,35.6-79.5,79.5-79.5h289.3
	c43.9,0,79.5,35.6,79.5,79.5v277.3C611.3,809.2,575.7,844.8,531.8,844.8z"/>
<path class="st0" d="M523.9,330.2"/>
<polygon class="st0" points="176.7,369.8 176.7,223.6 179.1,223.6 477.4,223.6 477.4,369.8 "/>
<path class="st0" d="M476.9,222.7c33.9-40,67.8-80,101.7-120c-98.1,1.5-196.3,2.9-294.4,4.4L176.2,222.7H476.9z"/>
<path class="st0" d="M477.9,370.5c34.4-39,69.2-77.4,103.8-116.2c0-49.3,0-98.6,0-147.8L479,223C479,223,472.9,376.2,477.9,370.5z"
	/>
<path class="st0" d="M301.5,127.4"/>
<line class="st0" x1="255.1" y1="176.8" x2="555.8" y2="176.8"/>
<path class="st4" d="M789.7,385.7"/>
<path class="st5" d="M475.7,405.2"/>
<path class="st6" d="M593.6,146.5"/>
<path class="st6" d="M503.4,304.7"/>
<polygon class="st6" points="173.4,360.7 173.4,214.4 175.8,214.4 474.1,214.4 474.1,360.7 "/>
<path class="st6" d="M473.7,213.5c33.5-40.3,67-80.5,100.6-120.8c-97.7,1.7-195.5,3.5-293.2,5.2c-34.4,36.8-68.7,73.5-103.1,110.3
	C276.5,209.9,375.1,211.7,473.7,213.5z"/>
<path class="st6" d="M578.4,245.2c0-49.3,0-98.6,0-147.8L475.8,213.8C475.8,213.8,543.8,283.9,578.4,245.2z"/>
<path class="st6" d="M281,97.9"/>
<line class="st6" x1="234.6" y1="147.3" x2="535.3" y2="147.3"/>
<path class="st7" d="M652.8,231.2c0,0,211.8-33,211.8,211.8c0,0-3.5,159.8-159.8,159.8"/>
<path class="st8" d="M702.8,532.2c0,0-50,5.3-50,64.2s50.1,64.3,50.1,64.3"/>
<path class="st6" d="M578.4,245.2c-32.9,37.1-65.8,74.1-98.7,111.2c-1.1-47.5-2.1-95-3.2-142.5"/>
<g>
	<circle class="st9" cx="386.9" cy="632.8" r="108.7"/>
	<path class="st10" d="M398.8,524.3c8.5,15.4,13.3,33.4,13.3,52.4c0,59.9-48.8,108.7-108.7,108.7c-4,0-7.8-0.2-11.8-0.7
		c18.5,33.6,54.2,56.4,95.5,56.4c59.9,0,108.7-48.8,108.7-108.7C495.9,576.4,453.3,530.4,398.8,524.3z"/>
	<path class="st11" d="M413.5,526.9c10.4,16.6,16.1,36,16.1,57.3c0,59.9-48.6,108.7-108.7,108.7c-9,0-17.8-1.2-26.3-3.3
		c19.2,31,53.3,51.9,92.9,51.9c59.9,0,108.7-48.8,108.7-108.7C495.9,581.6,460.6,538.7,413.5,526.9z"/>
	<path class="st12" d="M439.8,537.1c9.5,16.1,14.9,34.8,14.9,55c0,59.9-48.8,108.7-108.7,108.7c-18.7,0-36.7-4.7-52.1-13.3
		c18.7,32.5,54,54,94,54c59.9,0,108.7-48.8,108.7-108.7C496.4,591.3,473.4,555.5,439.8,537.1z"/>
	<path class="st13" d="M440,537.3c14.9,18.7,23.9,42.4,23.9,68.2c0,59.9-48.8,108.7-108.7,108.7c-19.2,0-37.2-5.2-53.1-13.7
		c19.9,24.9,50.7,41,84.8,41c59.9,0,108.7-48.8,108.7-108.7C495.9,591.5,473.2,555.8,440,537.3z"/>
</g>
<circle class="st14" cx="386.9" cy="632.8" r="137.6"/>
<polyline class="st15" points="256.5,450.5 386.9,493.2 502,445.7 "/>
<circle class="st16" cx="256.5" cy="450.6" r="3.7"/>
<circle class="st16" cx="502.3" cy="445.3" r="3.7"/>
<polyline class="st15" points="205.6,757.1 248.3,626.7 200.8,511.7 "/>
<circle class="st16" cx="205.7" cy="757.1" r="3.7"/>
<circle class="st16" cx="200.4" cy="511.3" r="3.7"/>
<polyline class="st15" points="568.8,498.8 526,629.3 573.6,744.3 "/>
<circle class="st16" cx="568.7" cy="498.8" r="3.7"/>
<circle class="st16" cx="574" cy="744.6" r="3.7"/>
<polyline class="st15" points="516.5,815.1 386.1,772.3 271,819.9 "/>
<circle class="st16" cx="516.5" cy="815" r="3.7"/>
<circle class="st16" cx="270.7" cy="820.3" r="3.7"/>
<line class="st16" x1="248.3" y1="626.7" x2="267.2" y2="626.7"/>
<line class="st16" x1="270.7" y1="626.7" x2="289.5" y2="626.7"/>
<line class="st16" x1="292.7" y1="626.7" x2="311.6" y2="626.7"/>
<line class="st16" x1="313.9" y1="626.7" x2="332.8" y2="626.7"/>
<line class="st16" x1="336.3" y1="626.7" x2="355.1" y2="626.7"/>
<line class="st16" x1="360.4" y1="626.7" x2="379.2" y2="626.7"/>
<line class="st16" x1="382" y1="626.7" x2="400.8" y2="626.7"/>
<line class="st16" x1="404.4" y1="626.7" x2="423.2" y2="626.7"/>
<line class="st16" x1="428" y1="626.7" x2="446.8" y2="626.7"/>
<line class="st16" x1="449.2" y1="626.7" x2="468" y2="626.7"/>
<line class="st16" x1="472" y1="626.7" x2="490.8" y2="626.7"/>
<line class="st16" x1="492.9" y1="626.7" x2="511.7" y2="626.7"/>
<line class="st16" x1="515.2" y1="626.7" x2="526" y2="626.7"/>
<line class="st16" x1="387.2" y1="495.3" x2="387.2" y2="514.2"/>
<line class="st16" x1="387.2" y1="517.7" x2="387.2" y2="536.5"/>
<line class="st16" x1="387.2" y1="539.7" x2="387.2" y2="558.6"/>
<line class="st16" x1="387.2" y1="560.9" x2="387.2" y2="579.8"/>
<line class="st16" x1="387.2" y1="583.3" x2="387.2" y2="602.1"/>
<line class="st16" x1="387.2" y1="607.4" x2="387.2" y2="626.3"/>
<line class="st16" x1="387.2" y1="629" x2="387.2" y2="647.8"/>
<line class="st16" x1="387.2" y1="651.4" x2="387.2" y2="670.2"/>
<line class="st16" x1="387.2" y1="675" x2="387.2" y2="693.8"/>
<line class="st16" x1="387.2" y1="696.2" x2="387.2" y2="715"/>
<line class="st16" x1="387.2" y1="719" x2="387.2" y2="737.8"/>
<line class="st16" x1="387.2" y1="739.9" x2="387.2" y2="758.7"/>
<line class="st16" x1="387.2" y1="762.2" x2="387.2" y2="773"/>
<line class="st17" x1="308.9" y1="441.6" x2="461" y2="441.6"/>
</svg>
