<?xml version="1.0" encoding="utf-8"?>
<!-- Generator: Adobe Illustrator 26.3.1, SVG Export Plug-In . SVG Version: 6.00 Build 0)  -->
<svg version="1.1" xmlns="http://www.w3.org/2000/svg" xmlns:xlink="http://www.w3.org/1999/xlink" x="0px" y="0px"
	 viewBox="0 0 1000 1000" style="enable-background:new 0 0 1000 1000;" xml:space="preserve">
<style type="text/css">
	.st0{fill:#B3B3B3;}
	.st1{fill:#FFFFFF;}
	.st2{fill:none;stroke:#000000;stroke-width:3;stroke-miterlimit:10;}
	.st3{fill:none;stroke:#000000;stroke-width:5;stroke-miterlimit:10;}
	.st4{fill:none;stroke:#999999;stroke-width:5;stroke-miterlimit:10;}
	.st5{fill:none;stroke:#999999;stroke-width:2;stroke-miterlimit:10;}
	.st6{fill:none;stroke:#000000;stroke-width:8;stroke-miterlimit:10;}
	.st7{fill:none;stroke:#808080;stroke-width:5;stroke-miterlimit:10;}
	.st8{fill:#FFFFFF;stroke:#B3B3B3;stroke-width:5;stroke-miterlimit:10;}
	.st9{fill:#FFFFFF;stroke:#000000;stroke-width:5;stroke-miterlimit:10;}
</style>
<g id="Layer_1">
	<g>
		<path class="st0" d="M906.9,690.8H236.4c-24.5,0-44.2-19.8-44.2-44.2V376.7c0-24.5,19.8-44.2,44.2-44.2h670.3
			c24.5,0,44.2,19.8,44.2,44.2v269.9C951.1,671.1,931.2,690.8,906.9,690.8z"/>
	</g>
	<g>
		<path class="st1" d="M210,653c-22.8,0-41.4-18.5-41.4-41.4V341.9c0-22.8,18.5-41.4,41.4-41.4h670.3c22.8,0,41.4,18.5,41.4,41.4
			v269.9c0,22.8-18.5,41.4-41.4,41.4L210,653L210,653z"/>
		<path d="M880.3,303.4c21.2,0,38.5,17.3,38.5,38.5v269.9c0,21.2-17.3,38.5-38.5,38.5H210c-21.2,0-38.5-17.3-38.5-38.5V341.9
			c0-21.2,17.3-38.5,38.5-38.5L880.3,303.4 M880.3,297.6H210c-24.5,0-44.2,19.8-44.2,44.2v269.9c0,24.5,19.8,44.2,44.2,44.2h670.3
			c24.5,0,44.2-19.8,44.2-44.2V341.9C924.5,317.4,904.8,297.6,880.3,297.6L880.3,297.6z"/>
	</g>
	<line class="st2" x1="165.7" y1="354.7" x2="924.5" y2="354.7"/>
	<line class="st3" x1="214.3" y1="328" x2="352.4" y2="328"/>
	<line class="st4" x1="466.3" y1="328" x2="516.6" y2="328"/>
	<line class="st4" x1="537.7" y1="328" x2="638.3" y2="328"/>
	<line class="st4" x1="656.1" y1="328" x2="707.3" y2="328"/>
	<line class="st4" x1="729.1" y1="328" x2="799.6" y2="328"/>
	<circle class="st5" cx="856.7" cy="328" r="15.7"/>
	<line class="st6" x1="448.8" y1="383.6" x2="656.1" y2="383.6"/>
	<line class="st7" x1="407.2" y1="405.8" x2="545.1" y2="405.8"/>
	<line class="st7" x1="553.8" y1="405.8" x2="598.4" y2="405.8"/>
	<line class="st7" x1="609.8" y1="405.8" x2="698" y2="405.8"/>
	<line class="st7" x1="422.8" y1="416.5" x2="545.1" y2="416.5"/>
	<line class="st7" x1="553.8" y1="416.5" x2="628.1" y2="416.5"/>
	<line class="st7" x1="634.9" y1="416.5" x2="664.3" y2="416.5"/>
	<line class="st7" x1="418.8" y1="426.1" x2="471.4" y2="426.1"/>
	<line class="st7" x1="484" y1="426.1" x2="581.2" y2="426.1"/>
	<line class="st7" x1="591" y1="426.1" x2="668.9" y2="426.1"/>
	<line class="st7" x1="407.2" y1="434.6" x2="464.3" y2="434.6"/>
	<line class="st7" x1="476.1" y1="434.6" x2="634.9" y2="434.6"/>
	<line class="st7" x1="642.8" y1="434.6" x2="698" y2="434.6"/>
	<line class="st7" x1="407.2" y1="443.9" x2="537.7" y2="443.9"/>
	<line class="st7" x1="545.1" y1="443.9" x2="609.8" y2="443.9"/>
	<line class="st7" x1="620.3" y1="443.9" x2="689.4" y2="443.9"/>
	<line class="st7" x1="390.7" y1="454.6" x2="464.3" y2="454.6"/>
	<line class="st7" x1="476.1" y1="454.6" x2="581.2" y2="454.6"/>
	<line class="st7" x1="598.4" y1="454.6" x2="707.3" y2="454.6"/>
	<g>
		<path class="st0" d="M367.1,630.8h-51.7c-14.9,0-26.9-12.1-26.9-26.9V501.7c0-14.9,12.1-26.9,26.9-26.9h51.7
			c14.9,0,26.9,12.1,26.9,26.9v102.1C394.1,618.7,382,630.8,367.1,630.8z"/>
	</g>
	<g>
		<path class="st1" d="M305,622.8c-13.8,0-24.9-11.2-24.9-24.9V495.7c0-13.8,11.2-24.9,24.9-24.9h51.8c13.8,0,24.9,11.2,24.9,24.9
			v102.1c0,13.8-11.2,24.9-24.9,24.9L305,622.8L305,622.8z"/>
		<path d="M356.9,472.6c12.8,0,23,10.4,23,23v102.1c0,12.8-10.4,23-23,23H305c-12.8,0-23-10.4-23-23V495.7c0-12.8,10.4-23,23-23
			H356.9 M356.9,468.8H305c-14.9,0-26.9,12.1-26.9,26.9v102.1c0,14.9,12.1,26.9,26.9,26.9h51.8c14.9,0,26.9-12.1,26.9-26.9V495.7
			C383.7,480.8,371.7,468.8,356.9,468.8L356.9,468.8z"/>
	</g>
	<g>
		<path class="st0" d="M515,630.8h-51.7c-14.9,0-26.9-12.1-26.9-26.9V501.7c0-14.9,12.1-26.9,26.9-26.9H515
			c14.9,0,26.9,12.1,26.9,26.9v102.1C541.9,618.7,529.9,630.8,515,630.8z"/>
	</g>
	<g>
		<path class="st1" d="M452.9,622.8c-13.8,0-24.9-11.2-24.9-24.9V495.7c0-13.8,11.2-24.9,24.9-24.9h51.7c13.8,0,24.9,11.2,24.9,24.9
			v102.1c0,13.8-11.2,24.9-24.9,24.9L452.9,622.8L452.9,622.8z"/>
		<path d="M504.6,472.6c12.8,0,23,10.4,23,23v102.1c0,12.8-10.4,23-23,23h-51.7c-12.8,0-23-10.4-23-23V495.7c0-12.8,10.4-23,23-23
			H504.6 M504.6,468.8h-51.7c-14.9,0-26.9,12.1-26.9,26.9v102.1c0,14.9,12.1,26.9,26.9,26.9h51.7c14.9,0,26.9-12.1,26.9-26.9V495.7
			C531.6,480.8,519.5,468.8,504.6,468.8L504.6,468.8z"/>
	</g>
	<g>
		<path class="st0" d="M659.2,630.8h-51.7c-14.9,0-26.9-12.1-26.9-26.9V501.7c0-14.9,12.1-26.9,26.9-26.9h51.7
			c14.9,0,26.9,12.1,26.9,26.9v102.1C686.1,618.7,674,630.8,659.2,630.8z"/>
	</g>
	<g>
		<path class="st1" d="M597.1,622.8c-13.8,0-24.9-11.2-24.9-24.9V495.7c0-13.8,11.2-24.9,24.9-24.9h51.7c13.8,0,24.9,11.2,24.9,24.9
			v102.1c0,13.8-11.2,24.9-24.9,24.9L597.1,622.8L597.1,622.8z"/>
		<path d="M648.8,472.6c12.8,0,23,10.4,23,23v102.1c0,12.8-10.4,23-23,23h-51.7c-12.8,0-23-10.4-23-23V495.7c0-12.8,10.4-23,23-23
			H648.8 M648.8,468.8h-51.7c-14.9,0-26.9,12.1-26.9,26.9v102.1c0,14.9,12.1,26.9,26.9,26.9h51.7c14.9,0,26.9-12.1,26.9-26.9V495.7
			C675.7,480.8,663.7,468.8,648.8,468.8L648.8,468.8z"/>
	</g>
	<g>
		<path class="st0" d="M795.4,630.8h-51.7c-14.9,0-26.9-12.1-26.9-26.9V501.7c0-14.9,12.1-26.9,26.9-26.9h51.7
			c14.9,0,26.9,12.1,26.9,26.9v102.1C822.2,618.7,810.2,630.8,795.4,630.8z"/>
	</g>
	<g>
		<path class="st1" d="M733.3,622.8c-13.8,0-24.9-11.2-24.9-24.9V495.7c0-13.8,11.2-24.9,24.9-24.9H785c13.8,0,24.9,11.2,24.9,24.9
			v102.1c0,13.8-11.2,24.9-24.9,24.9L733.3,622.8L733.3,622.8z"/>
		<path d="M785,472.6c12.8,0,23,10.4,23,23v102.1c0,12.8-10.4,23-23,23h-51.7c-12.8,0-23-10.4-23-23V495.7c0-12.8,10.4-23,23-23H785
			 M785,468.8h-51.7c-14.9,0-26.9,12.1-26.9,26.9v102.1c0,14.9,12.1,26.9,26.9,26.9H785c14.9,0,26.9-12.1,26.9-26.9V495.7
			C812,480.8,799.9,468.8,785,468.8L785,468.8z"/>
	</g>
</g>
<g id="Layer_2">
	<line class="st8" x1="64.4" y1="311.9" x2="244.7" y2="311.9"/>
	<line class="st9" x1="71.5" y1="308.5" x2="251.8" y2="308.5"/>
	<line class="st8" x1="75.6" y1="367.4" x2="187.6" y2="367.4"/>
	<line class="st9" x1="80.1" y1="365.3" x2="192" y2="365.3"/>
	<line class="st8" x1="107.2" y1="387.8" x2="209.9" y2="387.8"/>
	<line class="st9" x1="111.2" y1="385.6" x2="214" y2="385.6"/>
	<line class="st8" x1="84.4" y1="426.8" x2="196.3" y2="426.8"/>
	<line class="st9" x1="88.8" y1="424.6" x2="200.7" y2="424.6"/>
	<line class="st8" x1="96.4" y1="410.7" x2="196.1" y2="410.7"/>
	<line class="st9" x1="100.3" y1="408.8" x2="200" y2="408.8"/>
	<line class="st8" x1="86.4" y1="334.8" x2="198.3" y2="334.8"/>
	<line class="st9" x1="90.8" y1="332.6" x2="202.7" y2="332.6"/>
	<line class="st8" x1="13.4" y1="446.8" x2="125.3" y2="446.8"/>
	<line class="st9" x1="17.8" y1="444.6" x2="129.7" y2="444.6"/>
	<line class="st8" x1="92.4" y1="490.8" x2="204.3" y2="490.8"/>
	<line class="st9" x1="96.8" y1="488.6" x2="208.7" y2="488.6"/>
	<line class="st8" x1="57.4" y1="511.8" x2="169.3" y2="511.8"/>
	<line class="st9" x1="61.8" y1="509.6" x2="173.7" y2="509.6"/>
	<line class="st8" x1="73.4" y1="585.8" x2="185.3" y2="585.8"/>
	<line class="st9" x1="77.8" y1="583.6" x2="189.7" y2="583.6"/>
	<line class="st8" x1="59.4" y1="610.8" x2="171.3" y2="610.8"/>
	<line class="st9" x1="63.8" y1="608.6" x2="175.7" y2="608.6"/>
	<line class="st8" x1="87.4" y1="637.8" x2="199.3" y2="637.8"/>
	<line class="st9" x1="91.8" y1="635.6" x2="203.7" y2="635.6"/>
	<line class="st8" x1="90.4" y1="539.8" x2="202.3" y2="539.8"/>
	<line class="st9" x1="94.8" y1="537.6" x2="206.7" y2="537.6"/>
	<line class="st8" x1="180.4" y1="444.8" x2="254.1" y2="444.8"/>
	<line class="st9" x1="183.3" y1="443.6" x2="257" y2="443.6"/>
	<line class="st8" x1="307.4" y1="416.8" x2="355.1" y2="416.8"/>
	<line class="st9" x1="309.2" y1="415.2" x2="357" y2="415.2"/>
	<line class="st8" x1="248.4" y1="486.8" x2="296.1" y2="486.8"/>
	<line class="st9" x1="250.2" y1="485.2" x2="298" y2="485.2"/>
	<line class="st8" x1="288.4" y1="515.8" x2="336.1" y2="515.8"/>
	<line class="st9" x1="290.2" y1="514.2" x2="338" y2="514.2"/>
	<line class="st8" x1="242.4" y1="597.8" x2="290.1" y2="597.8"/>
	<line class="st9" x1="244.2" y1="596.2" x2="292" y2="596.2"/>
	<line class="st8" x1="265.4" y1="384.8" x2="323.7" y2="384.8"/>
	<line class="st9" x1="267.7" y1="382.6" x2="326" y2="382.6"/>
	<line class="st8" x1="122.4" y1="281.8" x2="234.3" y2="281.8"/>
	<line class="st9" x1="126.8" y1="279.6" x2="238.7" y2="279.6"/>
	<line class="st8" x1="57.4" y1="465.3" x2="221.5" y2="465.3"/>
	<line class="st9" x1="63.9" y1="462.1" x2="228" y2="462.1"/>
</g>
</svg>
