<?xml version="1.0" encoding="utf-8"?>
<!-- Generator: Adobe Illustrator 26.3.1, SVG Export Plug-In . SVG Version: 6.00 Build 0)  -->
<svg version="1.1" xmlns="http://www.w3.org/2000/svg" xmlns:xlink="http://www.w3.org/1999/xlink" x="0px" y="0px"
	 viewBox="0 0 1000 1000" style="enable-background:new 0 0 1000 1000;" xml:space="preserve">
<style type="text/css">
	.st0{fill:#B3B3B3;stroke:#B3B3B3;stroke-width:9;stroke-miterlimit:10;}
	.st1{fill:#FFFFFF;stroke:#000000;stroke-width:9;stroke-miterlimit:10;}
	.st2{fill:#FFFFFF;stroke:#000000;stroke-width:6;stroke-miterlimit:10;}
	.st3{fill:#FFFFFF;stroke:#999999;stroke-width:4;stroke-miterlimit:10;}
	.st4{fill:none;stroke:#000000;stroke-width:11;stroke-miterlimit:10;}
</style>
<g id="Layer_1">
	<path class="st0" d="M898.7,866.3H428.3c-39.8,0-72.1-32.3-72.1-72.1V664.9c0-39.8,32.3-72.1,72.1-72.1h470.4
		c39.8,0,72.1,32.3,72.1,72.1v129.3C970.8,834,938.5,866.3,898.7,866.3z"/>
	<path class="st1" d="M870,846H399.6c-39.8,0-72.1-32.3-72.1-72.1V644.6c0-39.8,32.3-72.1,72.1-72.1H870c39.8,0,72.1,32.3,72.1,72.1
		v129.3C942.1,813.7,909.8,846,870,846z"/>
	<line class="st2" x1="366.1" y1="604.5" x2="494.7" y2="604.5"/>
	<line class="st2" x1="507.4" y1="604.5" x2="618.5" y2="604.5"/>
	<line class="st2" x1="634.8" y1="604.5" x2="667" y2="604.5"/>
	<line class="st3" x1="366.1" y1="625.6" x2="469.9" y2="625.6"/>
	<line class="st3" x1="479.5" y1="625.6" x2="541.9" y2="625.6"/>
	<line class="st3" x1="550.2" y1="625.6" x2="617" y2="625.6"/>
	<line class="st3" x1="623.9" y1="625.6" x2="699.5" y2="625.6"/>
	<line class="st3" x1="366.1" y1="635.9" x2="598.4" y2="635.9"/>
	<line class="st3" x1="605.7" y1="635.9" x2="650.9" y2="635.9"/>
	<line class="st3" x1="366.1" y1="644.5" x2="465.7" y2="644.5"/>
	<line class="st3" x1="475.2" y1="644.5" x2="571.4" y2="644.5"/>
	<line class="st2" x1="365.8" y1="667.3" x2="443.8" y2="667.3"/>
	<line class="st2" x1="454.4" y1="667.3" x2="536.2" y2="667.3"/>
	<line class="st2" x1="545.7" y1="667.3" x2="623.9" y2="667.3"/>
	<line class="st3" x1="368" y1="683.6" x2="472.8" y2="683.6"/>
	<line class="st3" x1="479.5" y1="683.6" x2="539.8" y2="683.6"/>
	<line class="st3" x1="545.7" y1="683.6" x2="623.9" y2="683.6"/>
	<line class="st3" x1="632" y1="683.6" x2="692.5" y2="683.6"/>
	<line class="st3" x1="368" y1="692" x2="458.7" y2="692"/>
	<line class="st3" x1="465.7" y1="693.8" x2="574.1" y2="693.8"/>
	<line class="st3" x1="580.9" y1="693.8" x2="650.9" y2="693.8"/>
	<line class="st2" x1="368" y1="717.7" x2="472.8" y2="717.7"/>
	<line class="st2" x1="482.3" y1="717.7" x2="553.8" y2="717.7"/>
	<line class="st2" x1="562.9" y1="717.7" x2="661.7" y2="717.7"/>
	<line class="st3" x1="368" y1="729.5" x2="418" y2="729.5"/>
	<line class="st3" x1="425.5" y1="729.5" x2="494.7" y2="729.5"/>
	<line class="st3" x1="502.3" y1="729.5" x2="564.6" y2="729.5"/>
	<line class="st3" x1="573.9" y1="729.7" x2="701.7" y2="729.7"/>
	<line class="st3" x1="368" y1="740.1" x2="418" y2="740.1"/>
	<line class="st3" x1="425.5" y1="740.1" x2="469.9" y2="740.1"/>
	<line class="st3" x1="477" y1="740.1" x2="569.2" y2="740.1"/>
	<line class="st3" x1="575.9" y1="740.1" x2="692.5" y2="740.1"/>
	<line class="st3" x1="368" y1="748.9" x2="430.4" y2="748.9"/>
	<line class="st3" x1="435.4" y1="748.9" x2="539.8" y2="748.9"/>
	<line class="st3" x1="548.4" y1="748.9" x2="677.1" y2="748.9"/>
	<line class="st3" x1="368" y1="756.1" x2="440.1" y2="756.1"/>
	<line class="st3" x1="447.7" y1="756.1" x2="482.3" y2="756.1"/>
	<line class="st2" x1="366.1" y1="782.3" x2="472.8" y2="782.3"/>
	<line class="st2" x1="482.3" y1="782.3" x2="637.8" y2="782.3"/>
	<line class="st3" x1="368" y1="794.8" x2="475.2" y2="794.8"/>
	<line class="st3" x1="482.3" y1="794.8" x2="553.8" y2="794.8"/>
	<line class="st3" x1="562.9" y1="794.8" x2="623.9" y2="794.8"/>
	<line class="st3" x1="634.8" y1="794.8" x2="692.5" y2="794.8"/>
	<line class="st3" x1="368" y1="802.5" x2="489.9" y2="802.5"/>
	<line class="st3" x1="495.3" y1="802.5" x2="571.4" y2="802.5"/>
	<line class="st3" x1="580.9" y1="802.5" x2="683.1" y2="802.5"/>
	<line class="st3" x1="368" y1="809.7" x2="482.3" y2="809.7"/>
	<line class="st3" x1="487.6" y1="809.7" x2="553.8" y2="809.7"/>
	<line class="st3" x1="560" y1="809.7" x2="653" y2="809.7"/>
</g>
<g id="Layer_2">
	<path class="st0" d="M596,443.2H125.6c-39.8,0-72.1-32.3-72.1-72.1V241.8c0-39.8,32.3-72.1,72.1-72.1H596
		c39.8,0,72.1,32.3,72.1,72.1V371C668.1,410.9,635.8,443.2,596,443.2z"/>
	<path class="st1" d="M576.7,414.3H106.3c-39.8,0-72.1-32.3-72.1-72.1V212.9c0-39.8,32.3-72.1,72.1-72.1h470.4
		c39.8,0,72.1,32.3,72.1,72.1v129.3C648.8,382,616.5,414.3,576.7,414.3z"/>
	<line class="st1" x1="87.5" y1="175.5" x2="208.5" y2="175.5"/>
	<line class="st1" x1="229.9" y1="175.5" x2="307.2" y2="252.8"/>
	<line class="st1" x1="281.7" y1="175.5" x2="418" y2="175.5"/>
	<line class="st3" x1="87.5" y1="209.3" x2="178.5" y2="209.3"/>
	<line class="st3" x1="204.9" y1="209.3" x2="349.9" y2="209.3"/>
	<line class="st3" x1="366.1" y1="205.7" x2="439" y2="224"/>
	<line class="st3" x1="87.5" y1="224" x2="223.7" y2="224"/>
	<line class="st3" x1="349.9" y1="227.2" x2="454.4" y2="227.2"/>
	<line class="st3" x1="87.5" y1="244.1" x2="96.1" y2="252.8"/>
	<line class="st1" x1="87.5" y1="286" x2="220" y2="286"/>
	<line class="st1" x1="229.9" y1="286" x2="378.9" y2="286"/>
	<line class="st1" x1="395.9" y1="286" x2="518" y2="237.9"/>
	<line class="st3" x1="87.5" y1="305.7" x2="194.5" y2="305.7"/>
	<line class="st3" x1="209" y1="306" x2="262" y2="311"/>
	<line class="st3" x1="277.4" y1="306" x2="341.5" y2="306"/>
	<line class="st3" x1="356.2" y1="308.5" x2="413.3" y2="308.5"/>
	<line class="st3" x1="424" y1="293" x2="541.9" y2="293"/>
	<line class="st3" x1="91.8" y1="323.5" x2="163.6" y2="395.4"/>
	<line class="st3" x1="127.7" y1="323.5" x2="190.6" y2="386.4"/>
	<line class="st3" x1="163.6" y1="323.5" x2="314.7" y2="323.5"/>
	<line class="st3" x1="327.5" y1="327.1" x2="360.5" y2="360.1"/>
	<line class="st3" x1="253" y1="380" x2="384.8" y2="380"/>
	<line class="st3" x1="402.1" y1="343.6" x2="527" y2="343.6"/>
	<path class="st4" d="M693.5,268c0,0,106,0.5,106,206.5"/>
	<path class="st4" d="M761.9,464.5c0,0,9.2,35.9,35.9,35.9c26.7,0,33.5-33.5,33.5-33.5"/>
</g>
</svg>
