<?xml version="1.0" encoding="utf-8"?>
<!-- Generator: Adobe Illustrator 26.3.1, SVG Export Plug-In . SVG Version: 6.00 Build 0)  -->
<svg version="1.1" id="Layer_1" xmlns="http://www.w3.org/2000/svg" xmlns:xlink="http://www.w3.org/1999/xlink" x="0px" y="0px"
	 viewBox="0 0 100 100" style="enable-background:new 0 0 100 100;" xml:space="preserve">
<style type="text/css">
	.st0{fill:#FF855B;}
	.st1{fill:#FF635B;}
	.st2{fill:#C7385B;}
	.st3{fill:#62245B;}
	.st4{fill:#83005B;}
	.st5{fill:#720027;}
	.st6{fill:#FF745B;}
	.st7{fill:#720027;stroke:#71797E;stroke-miterlimit:10;}
	.st8{fill:none;stroke:#FF855B;stroke-width:2;stroke-miterlimit:10;}
</style>
<g>
	<circle class="st0" cx="51.6" cy="52.1" r="35.9"/>
	<path class="st1" d="M55.5,16.3c2.8,5.1,4.4,11,4.4,17.3c0,19.8-16.1,35.9-35.9,35.9c-1.3,0-2.6-0.1-3.9-0.2
		C26.2,80.4,38,87.9,51.6,87.9c19.8,0,35.9-16.1,35.9-35.9C87.5,33.5,73.5,18.3,55.5,16.3z"/>
	<path class="st2" d="M60.3,17.2c3.4,5.5,5.3,11.9,5.3,18.9C65.6,55.9,49.6,72,29.7,72c-3,0-5.9-0.4-8.7-1.1
		c6.3,10.2,17.6,17.1,30.6,17.1c19.8,0,35.9-16.1,35.9-35.9C87.5,35.2,75.9,21.1,60.3,17.2z"/>
	<path class="st3" d="M69,20.5c3.1,5.3,4.9,11.5,4.9,18.1c0,19.8-16.1,35.9-35.9,35.9c-6.2,0-12.1-1.6-17.2-4.4
		c6.2,10.7,17.8,17.8,31,17.8c19.8,0,35.9-16.1,35.9-35.9C87.7,38.4,80.1,26.6,69,20.5z"/>
	<path class="st4" d="M69.1,20.6c4.9,6.2,7.9,14,7.9,22.5c0,19.8-16.1,35.9-35.9,35.9c-6.3,0-12.3-1.7-17.5-4.5
		c6.6,8.2,16.7,13.5,28,13.5c19.8,0,35.9-16.1,35.9-35.9C87.5,38.5,80,26.7,69.1,20.6z"/>
</g>
<g>
	<g>
		<path class="st5" d="M32.2,44.2l-5.6,3.3l-1.6-1.4l2.2-6.1l1.6,1.3l-2,5.3l-0.9-0.7l4.8-3L32.2,44.2z"/>
		<path class="st5" d="M33.7,43.7l-6.5-5.3l2.6-3.1c0.5-0.6,1-1,1.6-1.3c0.6-0.3,1.1-0.4,1.7-0.3c0.6,0.1,1.1,0.3,1.6,0.7
			c0.5,0.4,0.8,0.9,1,1.4s0.2,1.1,0,1.7c-0.2,0.6-0.5,1.2-1,1.8l-1.6,1.9L33,39.5l2.5,2.1L33.7,43.7z M33.3,39.7l-1.8,0.2l1.5-1.8
			c0.2-0.3,0.4-0.6,0.4-0.8c0-0.3-0.1-0.5-0.4-0.7c-0.2-0.2-0.5-0.3-0.7-0.2c-0.3,0-0.5,0.2-0.8,0.5L30,38.6l-0.2-1.8L33.3,39.7z"/>
		<path class="st5" d="M38.7,36.3L37.1,35l2-5.3l0.9,0.7l-4.8,3l-1.6-1.3l5.6-3.3l1.6,1.4L38.7,36.3z"/>
	</g>
</g>
<polygon class="st6" points="35,46.4 34.6,44.7 35,44.2 35.1,43.6 35.8,42.5 36.8,42.3 37.4,42.9 38,43.8 39.4,44.2 38.9,45.1 
	37.3,45.4 36.5,45.9 35.7,46.6 "/>
<line class="st7" x1="34.6" y1="42.7" x2="36.4" y2="44.1"/>
<path class="st6" d="M35.9,44.8c0,0-0.3-0.5-0.2-0.5s0.3-0.3,0.3-0.3l0.5-0.4h0.4l0.1,0.4l-0.1,0.4l-0.2,0.4l-0.3,0.1H36"/>
<circle class="st8" cx="51.6" cy="52.1" r="45.4"/>
<g>
	<ellipse class="st0" cx="20.1" cy="85.8" rx="7.3" ry="7.3"/>
	<path class="st1" d="M20.9,78.5c0.6,1,0.9,2.2,0.9,3.5c0,4-3.3,7.3-7.3,7.3c-0.3,0-0.5,0-0.8,0c1.2,2.3,3.7,3.8,6.4,3.8
		c4,0,7.3-3.3,7.3-7.3C27.4,82,24.5,78.9,20.9,78.5z"/>
	<path class="st2" d="M21.9,78.7c0.7,1.1,1.1,2.4,1.1,3.8c0,4-3.3,7.3-7.3,7.3c-0.6,0-1.2-0.1-1.8-0.2c1.3,2.1,3.6,3.5,6.2,3.5
		c4,0,7.3-3.3,7.3-7.3C27.4,82.3,25,79.5,21.9,78.7z"/>
	<path class="st3" d="M23.6,79.3c0.6,1.1,1,2.3,1,3.7c0,4-3.3,7.3-7.3,7.3c-1.3,0-2.5-0.3-3.5-0.9c1.3,2.2,3.6,3.6,6.3,3.6
		c4,0,7.3-3.3,7.3-7.3C27.5,83,25.9,80.6,23.6,79.3z"/>
</g>
</svg>
