<?xml version="1.0" encoding="utf-8"?>
<!-- Generator: Adobe Illustrator 26.3.1, SVG Export Plug-In . SVG Version: 6.00 Build 0)  -->
<svg version="1.1" id="Layer_1" xmlns="http://www.w3.org/2000/svg" xmlns:xlink="http://www.w3.org/1999/xlink" x="0px" y="0px"
	 viewBox="0 0 1000 1000" style="enable-background:new 0 0 1000 1000;" xml:space="preserve">
<style type="text/css">
	.st0{fill:#FFFFFF;stroke:#999999;stroke-width:7;stroke-miterlimit:10;}
	.st1{fill:#CCCCCC;}
	.st2{fill:#FFFFFF;}
	.st3{fill:#FF855B;}
	.st4{fill:#FF635B;}
	.st5{fill:#C7385B;}
	.st6{fill:#62245B;}
	.st7{fill:#83005B;}
	.st8{fill:none;stroke:#FF855B;stroke-width:2;stroke-miterlimit:10;}
	.st9{fill:#FFFFFF;stroke:#000000;stroke-width:9;stroke-miterlimit:10;}
	.st10{fill:#FFFFFF;stroke:#999999;stroke-width:4;stroke-miterlimit:10;}
</style>
<line class="st0" x1="330.6" y1="433" x2="558.4" y2="433"/>
<g>
	<g>
		<path class="st1" d="M145.9,567.9c-49.7,0-90.2-40.4-90.2-90.2V308c0-49.7,40.4-90.2,90.2-90.2h708.3c49.7,0,90.2,40.4,90.2,90.2
			v169.7c0,49.7-40.4,90.2-90.2,90.2H145.9z"/>
		<path class="st1" d="M854.1,222.4c47.2,0,85.7,38.4,85.7,85.7v169.7c0,47.2-38.4,85.7-85.7,85.7H145.9
			c-47.2,0-85.7-38.4-85.7-85.7V308c0-47.2,38.4-85.7,85.7-85.7H854.1 M854.1,213.4H145.9c-52.3,0-94.7,42.4-94.7,94.7v169.7
			c0,52.3,42.4,94.7,94.7,94.7h708.3c52.3,0,94.7-42.4,94.7-94.7V308C948.8,255.7,906.4,213.4,854.1,213.4L854.1,213.4z"/>
	</g>
	<g>
		<g>
			<path class="st2" d="M121.2,539.6c-49.7,0-90.2-40.4-90.2-90.2V279.7c0-49.7,40.4-90.2,90.2-90.2h708.3
				c49.7,0,90.2,40.4,90.2,90.2v169.7c0,49.7-40.4,90.2-90.2,90.2H121.2z"/>
			<path d="M829.4,194c47.2,0,85.7,38.4,85.7,85.7v169.7c0,47.2-38.4,85.7-85.7,85.7H121.2c-47.2,0-85.7-38.4-85.7-85.7V279.7
				c0-47.2,38.4-85.7,85.7-85.7H829.4 M829.4,185H121.2c-52.3,0-94.7,42.4-94.7,94.7v169.7c0,52.3,42.4,94.7,94.7,94.7h708.3
				c52.3,0,94.7-42.4,94.7-94.7V279.7C924.1,227.4,881.7,185,829.4,185L829.4,185z"/>
		</g>
	</g>
	<g>
		<circle class="st3" cx="742.3" cy="340.8" r="95.1"/>
		<path class="st4" d="M752.6,245.9c7.5,13.5,11.6,29.2,11.6,45.8c0,52.4-42.7,95.1-95.1,95.1c-3.5,0-6.8-0.2-10.4-0.6
			c16.2,29.4,47.5,49.3,83.5,49.3c52.4,0,95.1-42.7,95.1-95.1C837.6,291.5,800.3,251.3,752.6,245.9z"/>
		<path class="st5" d="M765.5,248.2c9.1,14.5,14.1,31.5,14.1,50.2c0,52.4-42.5,95.1-95.1,95.1c-7.9,0-15.5-1-23-2.9
			c16.8,27.2,46.6,45.4,81.2,45.4c52.4,0,95.1-42.7,95.1-95.1C837.6,296,806.7,258.5,765.5,248.2z"/>
		<path class="st6" d="M788.5,257.1c8.3,14.1,13.1,30.5,13.1,48.1c0,52.4-42.7,95.1-95.1,95.1c-16.4,0-32.1-4.1-45.6-11.6
			c16.4,28.4,47.3,47.3,82.3,47.3c52.4,0,95.1-42.7,95.1-95.1C838,304.5,817.9,273.2,788.5,257.1z"/>
		<path class="st7" d="M788.7,257.3c13.1,16.4,20.9,37.1,20.9,59.7c0,52.4-42.7,95.1-95.1,95.1c-16.8,0-32.5-4.6-46.4-12
			c17.4,21.8,44.4,35.9,74.2,35.9c52.4,0,95.1-42.7,95.1-95.1C837.6,304.7,817.7,273.4,788.7,257.3z"/>
	</g>
	<circle class="st8" cx="742.3" cy="340.8" r="120.4"/>
	<line class="st9" x1="94.5" y1="236.9" x2="306.5" y2="236.9"/>
	<line class="st10" x1="94.5" y1="276.6" x2="253.5" y2="276.6"/>
	<line class="st10" x1="274" y1="276.6" x2="428.2" y2="276.6"/>
	<line class="st10" x1="451.1" y1="276.6" x2="549.9" y2="276.6"/>
	<line class="st10" x1="94.5" y1="292.5" x2="197.6" y2="292.5"/>
	<line class="st10" x1="212.9" y1="292.5" x2="361.6" y2="292.5"/>
	<line class="st10" x1="375.1" y1="292.5" x2="469.9" y2="292.5"/>
	<line class="st10" x1="483.4" y1="292.5" x2="549.9" y2="292.5"/>
	<line class="st10" x1="94.5" y1="306.6" x2="212.9" y2="306.6"/>
	<line class="st10" x1="223.9" y1="306.6" x2="291.2" y2="306.6"/>
	<line class="st10" x1="313.2" y1="306.6" x2="469.9" y2="306.6"/>
	<line class="st10" x1="483.4" y1="306.6" x2="572.1" y2="306.6"/>
	<line class="st10" x1="94.5" y1="322.5" x2="229.4" y2="322.5"/>
	<line class="st10" x1="245.3" y1="322.5" x2="361.6" y2="322.5"/>
	<line class="st10" x1="378.7" y1="322.5" x2="443" y2="322.5"/>
	<line class="st10" x1="456.5" y1="322.5" x2="549.9" y2="322.5"/>
	<line class="st9" x1="330.6" y1="236.9" x2="440.3" y2="236.9"/>
	<line class="st9" x1="459.5" y1="236.9" x2="527" y2="236.9"/>
</g>
<g>
	<path class="st1" d="M128.2,732.4c-49.7,0-90.2-40.4-90.2-90.2v-81.5c0-49.7,40.4-90.2,90.2-90.2h487.7c49.7,0,90.2,40.4,90.2,90.2
		v81.5c0,49.7-40.4,90.2-90.2,90.2H128.2z"/>
	<path class="st1" d="M615.9,475c47.2,0,85.7,38.4,85.7,85.7v81.5c0,47.2-38.4,85.7-85.7,85.7H128.2c-47.2,0-85.7-38.4-85.7-85.7
		v-81.5c0-47.2,38.4-85.7,85.7-85.7H615.9 M615.9,466H128.2c-52.3,0-94.7,42.4-94.7,94.7v81.5c0,52.3,42.4,94.7,94.7,94.7h487.7
		c52.3,0,94.7-42.4,94.7-94.7v-81.5C710.6,508.4,668.2,466,615.9,466L615.9,466z"/>
</g>
<g>
	<path class="st2" d="M102.3,711.9c-49.7,0-90.2-40.4-90.2-90.2v-81.5c0-49.7,40.4-90.2,90.2-90.2H590c49.7,0,90.2,40.4,90.2,90.2
		v81.5c0,49.7-40.4,90.2-90.2,90.2H102.3z"/>
	<path d="M590,454.6c47.2,0,85.7,38.4,85.7,85.7v81.5c0,47.2-38.4,85.7-85.7,85.7H102.3c-47.2,0-85.7-38.4-85.7-85.7v-81.5
		c0-47.2,38.4-85.7,85.7-85.7H590 M590,445.6H102.3C50,445.6,7.6,488,7.6,540.3v81.5c0,52.3,42.4,94.7,94.7,94.7H590
		c52.3,0,94.7-42.4,94.7-94.7v-81.5C684.7,488,642.3,445.6,590,445.6L590,445.6z"/>
</g>
<circle class="st8" cx="123.2" cy="580.1" r="89.6"/>
<line class="st9" x1="236.6" y1="490.5" x2="334.2" y2="490.5"/>
<line class="st9" x1="350.1" y1="490.5" x2="439.6" y2="490.5"/>
<line class="st9" x1="450" y1="490.5" x2="506.4" y2="490.5"/>
<line class="st10" x1="236.6" y1="514.4" x2="328.3" y2="514.4"/>
<line class="st0" x1="236.6" y1="601.4" x2="428.2" y2="601.4"/>
<line class="st0" x1="450" y1="601.4" x2="511" y2="601.4"/>
<line class="st0" x1="236.6" y1="618.3" x2="450" y2="618.3"/>
<line class="st0" x1="463.8" y1="618.3" x2="543" y2="618.3"/>
<line class="st0" x1="236.6" y1="634.3" x2="586.7" y2="634.3"/>
<line class="st10" x1="346.2" y1="514.4" x2="444.5" y2="514.4"/>
<line class="st10" x1="459.5" y1="514.4" x2="519.8" y2="514.4"/>
<line class="st10" x1="236.6" y1="527.8" x2="422.5" y2="527.8"/>
<line class="st10" x1="436.1" y1="527.8" x2="511" y2="527.8"/>
<line class="st10" x1="236.6" y1="543.8" x2="328.3" y2="543.8"/>
<line class="st10" x1="341.7" y1="543.8" x2="463.8" y2="543.8"/>
<line class="st10" x1="236.6" y1="556.8" x2="533.2" y2="556.8"/>
<line class="st0" x1="94.5" y1="392.9" x2="257.6" y2="392.9"/>
<line class="st0" x1="277.8" y1="392.9" x2="378.7" y2="392.9"/>
<line class="st0" x1="415.9" y1="392.9" x2="581.4" y2="392.9"/>
<line class="st0" x1="94.5" y1="413.5" x2="378.7" y2="413.5"/>
<line class="st0" x1="396.4" y1="413.5" x2="592.9" y2="413.5"/>
<line class="st0" x1="94.5" y1="433" x2="313.2" y2="433"/>
<g>
	<path class="st1" d="M578,640.8c-49.7,0-90.2-40.4-90.2-90.2V537c0-49.7,40.4-90.2,90.2-90.2h318.1c49.7,0,90.2,40.4,90.2,90.2
		v13.7c0,49.7-40.4,90.2-90.2,90.2H578z"/>
	<path class="st1" d="M896.2,451.3c47.2,0,85.7,38.4,85.7,85.7v13.7c0,47.2-38.4,85.7-85.7,85.7H578c-47.2,0-85.7-38.4-85.7-85.7
		V537c0-47.2,38.4-85.7,85.7-85.7H896.2 M896.2,442.3H578c-52.3,0-94.7,42.4-94.7,94.7v13.7c0,52.3,42.4,94.7,94.7,94.7h318.1
		c52.3,0,94.7-42.4,94.7-94.7V537C990.8,484.7,948.4,442.3,896.2,442.3L896.2,442.3z"/>
</g>
<g>
	<path class="st2" d="M570,624.8c-49.7,0-90.2-40.4-90.2-90.2V521c0-49.7,40.4-90.2,90.2-90.2h318.1c49.7,0,90.2,40.4,90.2,90.2
		v13.7c0,49.7-40.4,90.2-90.2,90.2H570z"/>
	<path d="M888.1,435.3c47.2,0,85.7,38.4,85.7,85.7v13.7c0,47.2-38.4,85.7-85.7,85.7H570c-47.2,0-85.7-38.4-85.7-85.7V521
		c0-47.2,38.4-85.7,85.7-85.7H888.1 M888.1,426.3H570c-52.3,0-94.7,42.4-94.7,94.7v13.7c0,52.3,42.4,94.7,94.7,94.7h318.1
		c52.3,0,94.7-42.4,94.7-94.7V521C982.7,468.7,940.3,426.3,888.1,426.3L888.1,426.3z"/>
</g>
<g>
	<circle class="st3" cx="123.2" cy="580.1" r="70.8"/>
	<path class="st4" d="M130.9,509.4c5.6,10,8.6,21.8,8.6,34.1c0,39-31.8,70.8-70.8,70.8c-2.6,0-5.1-0.2-7.7-0.5
		c12,21.9,35.3,36.7,62.2,36.7c39,0,70.8-31.8,70.8-70.8C194.1,543.4,166.4,513.5,130.9,509.4z"/>
	<path class="st5" d="M140.4,511.1c6.8,10.8,10.5,23.4,10.5,37.3c0,39-31.6,70.8-70.8,70.8c-5.9,0-11.6-0.8-17.1-2.2
		c12.5,20.2,34.7,33.8,60.5,33.8c39,0,70.8-31.8,70.8-70.8C194.1,546.8,171.1,518.9,140.4,511.1z"/>
	<path class="st6" d="M157.6,517.8c6.2,10.5,9.7,22.7,9.7,35.8c0,39-31.8,70.8-70.8,70.8c-12.2,0-23.9-3.1-33.9-8.6
		c12.2,21.1,35.2,35.2,61.2,35.2c39,0,70.8-31.8,70.8-70.8C194.4,553.1,179.5,529.8,157.6,517.8z"/>
	<path class="st7" d="M157.7,517.9c9.7,12.2,15.6,27.6,15.6,44.4c0,39-31.8,70.8-70.8,70.8c-12.5,0-24.2-3.4-34.6-8.9
		c13,16.2,33,26.7,55.2,26.7c39,0,70.8-31.8,70.8-70.8C194.1,553.3,179.3,530,157.7,517.9z"/>
</g>
<line class="st9" x1="543" y1="466" x2="702.5" y2="466"/>
<line class="st9" x1="718.4" y1="466" x2="809.4" y2="466"/>
<line class="st9" x1="827" y1="466" x2="928.6" y2="466"/>
<line class="st10" x1="543" y1="490.5" x2="644.2" y2="490.5"/>
<line class="st10" x1="658.7" y1="490.5" x2="742.3" y2="490.5"/>
<line class="st10" x1="757.3" y1="490.5" x2="838.2" y2="490.5"/>
<line class="st10" x1="852.6" y1="490.5" x2="940.1" y2="490.5"/>
<line class="st10" x1="543" y1="500" x2="693.7" y2="500"/>
<line class="st10" x1="706.9" y1="500" x2="785.5" y2="500"/>
<line class="st10" x1="797.7" y1="500" x2="924.1" y2="500"/>
<line class="st10" x1="543" y1="509.4" x2="721.9" y2="509.4"/>
<line class="st10" x1="737.1" y1="509.4" x2="838.2" y2="509.4"/>
<line class="st10" x1="848.2" y1="509.3" x2="933.9" y2="509.3"/>
<line class="st10" x1="543" y1="517.9" x2="737.1" y2="517.9"/>
<line class="st10" x1="749.5" y1="517.9" x2="867.1" y2="517.9"/>
<line class="st10" x1="877.8" y1="517.9" x2="940.1" y2="517.9"/>
<line class="st0" x1="543" y1="552.1" x2="693.7" y2="552.1"/>
<line class="st0" x1="706.9" y1="552.1" x2="787.7" y2="552.1"/>
<line class="st0" x1="802.2" y1="552.1" x2="891.1" y2="552.1"/>
<line class="st0" x1="543" y1="572.4" x2="757.3" y2="572.4"/>
<line class="st0" x1="771.8" y1="573" x2="903.1" y2="573"/>
<line class="st0" x1="543" y1="588.2" x2="729" y2="588.2"/>
<line class="st0" x1="742.3" y1="588.2" x2="882.3" y2="588.2"/>
</svg>
