<?xml version="1.0" encoding="utf-8"?>
<!-- Generator: Adobe Illustrator 26.3.1, SVG Export Plug-In . SVG Version: 6.00 Build 0)  -->
<svg version="1.1" id="Layer_1" xmlns="http://www.w3.org/2000/svg" xmlns:xlink="http://www.w3.org/1999/xlink" x="0px" y="0px"
	 viewBox="0 0 1000 1000" style="enable-background:new 0 0 1000 1000;" xml:space="preserve">
<style type="text/css">
	.st0{fill:#FFFFFF;}
	.st1{fill:#FF855B;}
	.st2{fill:#FF635B;}
	.st3{fill:#C7385B;}
	.st4{fill:#62245B;}
	.st5{fill:#83005B;}
	.st6{fill:none;stroke:#FF855B;stroke-width:2;stroke-miterlimit:10;}
	.st7{fill:#FFFFFF;stroke:#000000;stroke-width:9;stroke-miterlimit:10;}
	.st8{fill:#FFFFFF;stroke:#999999;stroke-width:4;stroke-miterlimit:10;}
	.st9{fill:#FF855B;stroke:#FF855B;stroke-width:6;stroke-miterlimit:10;}
	.st10{fill:#FF635B;stroke:#FF635B;stroke-width:6;stroke-miterlimit:10;}
	.st11{fill:#C7385B;stroke:#C7385B;stroke-width:6;stroke-miterlimit:10;}
	.st12{fill:#83005B;stroke:#83005B;stroke-width:6;stroke-miterlimit:10;}
	.st13{fill:#FF635B;stroke:#62245B;stroke-width:10;stroke-miterlimit:10;}
	.st14{fill:#FFFFFF;stroke:#000000;stroke-width:3;stroke-miterlimit:10;}
	.st15{font-family:'MontserratAlternates-Black';}
	.st16{font-size:28.1746px;}
	.st17{fill:none;stroke:#000000;stroke-width:9;stroke-miterlimit:10;}
</style>
<g>
	<g>
		<path class="st0" d="M251.8,582c-49.7,0-90.2-40.4-90.2-90.2v-2c0-49.7,40.4-90.2,90.2-90.2h289c49.7,0,90.2,40.4,90.2,90.2v2
			c0,49.7-40.4,90.2-90.2,90.2H251.8z"/>
		<path d="M540.8,404.2c47.2,0,85.7,38.4,85.7,85.7v2c0,47.2-38.4,85.7-85.7,85.7h-289c-47.2,0-85.7-38.4-85.7-85.7v-2
			c0-47.2,38.4-85.7,85.7-85.7H540.8 M540.8,395.2h-289c-52.3,0-94.7,42.4-94.7,94.7v2c0,52.3,42.4,94.7,94.7,94.7h289
			c52.3,0,94.7-42.4,94.7-94.7v-2C635.5,437.6,593.1,395.2,540.8,395.2L540.8,395.2z"/>
	</g>
</g>
<g>
	<circle class="st1" cx="538.3" cy="478.2" r="50.7"/>
	<g>
		<path class="st2" d="M543.9,427.6c4,7.2,6.2,15.6,6.2,24.4c0,27.9-22.8,50.7-50.7,50.7c-1.9,0-3.6-0.1-5.5-0.3
			c8.6,15.7,25.3,26.3,44.5,26.3c27.9,0,50.7-22.8,50.7-50.7C589.2,451.9,569.3,430.5,543.9,427.6z"/>
	</g>
	<path class="st3" d="M550.7,428.8c4.9,7.7,7.5,16.8,7.5,26.7c0,27.9-22.6,50.7-50.7,50.7c-4.2,0-8.3-0.6-12.3-1.5
		c8.9,14.5,24.9,24.2,43.3,24.2c27.9,0,50.7-22.8,50.7-50.7C589.2,454.3,572.7,434.3,550.7,428.8z"/>
	<path class="st4" d="M563,433.6c4.4,7.5,7,16.2,7,25.6c0,27.9-22.8,50.7-50.7,50.7c-8.7,0-17.1-2.2-24.3-6.2
		c8.7,15.1,25.2,25.2,43.8,25.2c27.9,0,50.7-22.8,50.7-50.7C589.4,458.9,578.7,442.2,563,433.6z"/>
	<path class="st5" d="M563.1,433.7c7,8.7,11.2,19.8,11.2,31.8c0,27.9-22.8,50.7-50.7,50.7c-8.9,0-17.3-2.4-24.7-6.4
		c9.3,11.6,23.6,19.1,39.5,19.1c27.9,0,50.7-22.8,50.7-50.7C589.2,459,578.6,442.3,563.1,433.7z"/>
</g>
<circle class="st6" cx="538.6" cy="478.2" r="64.2"/>
<line class="st7" x1="208.8" y1="422.8" x2="321.8" y2="422.8"/>
<line class="st8" x1="193.4" y1="444" x2="278.1" y2="444"/>
<line class="st8" x1="289" y1="444" x2="371.2" y2="444"/>
<line class="st8" x1="383.4" y1="444" x2="436.1" y2="444"/>
<line class="st8" x1="193.4" y1="452.5" x2="248.3" y2="452.5"/>
<line class="st8" x1="256.4" y1="452.5" x2="335.7" y2="452.5"/>
<line class="st8" x1="342.9" y1="452.5" x2="393.4" y2="452.5"/>
<line class="st8" x1="400.6" y1="452.5" x2="436.1" y2="452.5"/>
<line class="st8" x1="193.4" y1="460" x2="256.4" y2="460"/>
<line class="st8" x1="262.3" y1="460" x2="298.2" y2="460"/>
<line class="st8" x1="309.9" y1="460" x2="393.4" y2="460"/>
<line class="st8" x1="400.6" y1="460" x2="447.9" y2="460"/>
<line class="st8" x1="193.4" y1="468.4" x2="265.3" y2="468.4"/>
<line class="st8" x1="273.7" y1="468.4" x2="335.7" y2="468.4"/>
<line class="st8" x1="344.8" y1="468.4" x2="379.1" y2="468.4"/>
<line class="st8" x1="386.3" y1="468.4" x2="436.1" y2="468.4"/>
<line class="st7" x1="330.1" y1="422.8" x2="388.5" y2="422.8"/>
<line class="st7" x1="399.9" y1="422.8" x2="435.8" y2="422.8"/>
<line class="st9" x1="193.4" y1="506.2" x2="296.1" y2="506.2"/>
<line class="st10" x1="309.9" y1="506.2" x2="379.1" y2="506.2"/>
<line class="st11" x1="396.3" y1="506.2" x2="447.9" y2="506.2"/>
<line class="st12" x1="193.4" y1="519.5" x2="306.4" y2="519.5"/>
<line class="st12" x1="322.8" y1="519.5" x2="422.1" y2="519.5"/>
<path class="st13" d="M386.8,423.9"/>
<path class="st13" d="M302.3,423.9"/>
<path class="st14" d="M228.5,392.8"/>
<g>
	<g>
		<path class="st0" d="M519.2,189.2c-41.4,0-75.1-33.7-75.1-75.1c0-41.4,33.7-75.1,75.1-75.1h253.4c41.4,0,75.1,33.7,75.1,75.1
			c0,41.4-33.7,75.1-75.1,75.1H519.2z"/>
		<path d="M772.6,43.5c38.9,0,70.6,31.7,70.6,70.6c0,38.9-31.7,70.6-70.6,70.6H519.2c-38.9,0-70.6-31.7-70.6-70.6
			c0-38.9,31.7-70.6,70.6-70.6H772.6 M772.6,34.5H519.2c-44,0-79.6,35.6-79.6,79.6v0c0,44,35.6,79.6,79.6,79.6h253.4
			c44,0,79.6-35.6,79.6-79.6v0C852.2,70.1,816.5,34.5,772.6,34.5L772.6,34.5z"/>
	</g>
</g>
<g>
	<circle class="st1" cx="572.7" cy="145.5" r="24.7"/>
	<g>
		<path class="st2" d="M575.4,120.8c1.9,3.5,3,7.6,3,11.9c0,13.6-11.1,24.7-24.7,24.7c-0.9,0-1.8-0.1-2.7-0.2
			c4.2,7.7,12.3,12.8,21.7,12.8c13.6,0,24.7-11.1,24.7-24.7C597.5,132.7,587.8,122.2,575.4,120.8z"/>
	</g>
	<path class="st3" d="M578.7,121.4c2.4,3.8,3.7,8.2,3.7,13c0,13.6-11,24.7-24.7,24.7c-2,0-4-0.3-6-0.8c4.4,7.1,12.1,11.8,21.1,11.8
		c13.6,0,24.7-11.1,24.7-24.7C597.5,133.9,589.4,124.1,578.7,121.4z"/>
	<path class="st4" d="M584.7,123.7c2.2,3.7,3.4,7.9,3.4,12.5c0,13.6-11.1,24.7-24.7,24.7c-4.3,0-8.4-1.1-11.9-3
		c4.3,7.4,12.3,12.3,21.4,12.3c13.6,0,24.7-11.1,24.7-24.7C597.6,136.1,592.3,127.9,584.7,123.7z"/>
	<path class="st5" d="M584.7,123.8c3.4,4.3,5.4,9.6,5.4,15.5c0,13.6-11.1,24.7-24.7,24.7c-4.4,0-8.5-1.2-12.1-3.1
		c4.5,5.7,11.5,9.3,19.3,9.3c13.6,0,24.7-11.1,24.7-24.7C597.5,136.1,592.3,128,584.7,123.8z"/>
</g>
<circle class="st6" cx="572.8" cy="145.5" r="31.3"/>
<line class="st7" x1="506.5" y1="65.7" x2="594.9" y2="65.7"/>
<line class="st8" x1="506.5" y1="82.3" x2="572.8" y2="82.3"/>
<line class="st8" x1="581.3" y1="82.3" x2="645.6" y2="82.3"/>
<line class="st8" x1="655.1" y1="82.3" x2="696.3" y2="82.3"/>
<line class="st8" x1="506.5" y1="88.9" x2="549.5" y2="88.9"/>
<line class="st8" x1="555.9" y1="88.9" x2="617.8" y2="88.9"/>
<line class="st8" x1="623.4" y1="88.9" x2="663" y2="88.9"/>
<line class="st8" x1="668.6" y1="88.9" x2="696.3" y2="88.9"/>
<line class="st8" x1="506.5" y1="94.7" x2="555.9" y2="94.7"/>
<line class="st8" x1="560.4" y1="94.7" x2="588.5" y2="94.7"/>
<line class="st8" x1="597.7" y1="94.7" x2="663" y2="94.7"/>
<line class="st8" x1="668.6" y1="94.7" x2="705.5" y2="94.7"/>
<line class="st8" x1="506.5" y1="101.4" x2="562.7" y2="101.4"/>
<line class="st8" x1="569.4" y1="101.4" x2="617.8" y2="101.4"/>
<line class="st8" x1="625" y1="101.4" x2="651.7" y2="101.4"/>
<line class="st8" x1="657.3" y1="101.4" x2="696.3" y2="101.4"/>
<line class="st7" x1="604.9" y1="65.7" x2="650.6" y2="65.7"/>
<line class="st7" x1="658.6" y1="65.7" x2="686.7" y2="65.7"/>
<path class="st13" d="M657.8,66.6"/>
<path class="st13" d="M591.7,66.6"/>
<path class="st14" d="M534,42.3"/>
<line class="st9" x1="717.7" y1="65.7" x2="798" y2="65.7"/>
<line class="st10" x1="717.7" y1="78.5" x2="771.8" y2="78.5"/>
<line class="st11" x1="717.8" y1="111.4" x2="758.2" y2="111.4"/>
<line class="st12" x1="717.7" y1="101.4" x2="806.1" y2="101.4"/>
<line class="st12" x1="717.7" y1="91.3" x2="795.4" y2="91.3"/>
<text transform="matrix(1 -5.157371e-03 5.157371e-03 1 632.0385 157.7662)" class="st1 st15 st16">WE</text>
<text transform="matrix(1 -5.157371e-03 5.157371e-03 1 686.8068 157.4852)" class="st2 st15 st16">BL</text>
<text transform="matrix(1 -5.157371e-03 5.157371e-03 1 726.7009 157.28)" class="st3 st15 st16">I</text>
<text transform="matrix(1 -5.157371e-03 5.157371e-03 1 741.5757 157.2033)" class="st4 st15 st16">S</text>
<text transform="matrix(1 -5.157371e-03 5.157371e-03 1 760.508 157.1061)" class="st5 st15 st16">H</text>
<g>
	<g>
		<path class="st0" d="M629,281.9c-27.6,0-50-22.4-50-50s22.4-50,50-50h163.4c27.6,0,50,22.4,50,50s-22.4,50-50,50H629z"/>
		<path d="M792.4,186.4c25.1,0,45.5,20.4,45.5,45.5c0,25.1-20.4,45.5-45.5,45.5H629c-25.1,0-45.5-20.4-45.5-45.5
			c0-25.1,20.4-45.5,45.5-45.5H792.4 M792.4,177.4H629c-30.1,0-54.5,24.4-54.5,54.5v0c0,30.1,24.4,54.5,54.5,54.5h163.4
			c30.1,0,54.5-24.4,54.5-54.5v0C846.9,201.8,822.5,177.4,792.4,177.4L792.4,177.4z"/>
	</g>
</g>
<g>
	<circle class="st1" cx="795.5" cy="204" r="9.5"/>
	<g>
		<path class="st2" d="M796.5,194.5c0.7,1.4,1.2,2.9,1.2,4.6c0,5.3-4.3,9.5-9.5,9.5c-0.4,0-0.7,0-1-0.1c1.6,3,4.8,4.9,8.4,4.9
			c5.3,0,9.5-4.3,9.5-9.5C805,199.1,801.3,195,796.5,194.5z"/>
	</g>
	<path class="st3" d="M797.8,194.7c0.9,1.5,1.4,3.2,1.4,5c0,5.3-4.3,9.5-9.5,9.5c-0.8,0-1.6-0.1-2.3-0.3c1.7,2.7,4.7,4.6,8.1,4.6
		c5.3,0,9.5-4.3,9.5-9.5C805,199.5,801.9,195.8,797.8,194.7z"/>
	<path class="st4" d="M800.1,195.6c0.8,1.4,1.3,3.1,1.3,4.8c0,5.3-4.3,9.5-9.5,9.5c-1.6,0-3.2-0.4-4.6-1.2c1.6,2.8,4.7,4.7,8.3,4.7
		c5.3,0,9.5-4.3,9.5-9.5C805.1,200.4,803.1,197.2,800.1,195.6z"/>
	<path class="st5" d="M800.1,195.6c1.3,1.6,2.1,3.7,2.1,6c0,5.3-4.3,9.5-9.5,9.5c-1.7,0-3.3-0.5-4.7-1.2c1.7,2.2,4.4,3.6,7.4,3.6
		c5.3,0,9.5-4.3,9.5-9.5C805,200.4,803,197.3,800.1,195.6z"/>
</g>
<circle class="st6" cx="795.5" cy="204" r="12.1"/>
<line class="st8" x1="593.8" y1="213.6" x2="642.1" y2="213.6"/>
<line class="st8" x1="648.3" y1="213.6" x2="695.1" y2="213.6"/>
<line class="st8" x1="702" y1="213.6" x2="732" y2="213.6"/>
<line class="st8" x1="593.8" y1="218.4" x2="625.1" y2="218.4"/>
<line class="st8" x1="629.7" y1="218.4" x2="674.9" y2="218.4"/>
<line class="st8" x1="679" y1="218.4" x2="707.8" y2="218.4"/>
<line class="st8" x1="711.8" y1="218.4" x2="732" y2="218.4"/>
<line class="st8" x1="593.8" y1="222.7" x2="629.7" y2="222.7"/>
<line class="st8" x1="633.1" y1="222.7" x2="653.5" y2="222.7"/>
<line class="st8" x1="660.2" y1="222.7" x2="707.8" y2="222.7"/>
<line class="st8" x1="711.8" y1="222.7" x2="738.8" y2="222.7"/>
<line class="st8" x1="593.8" y1="227.5" x2="634.8" y2="227.5"/>
<line class="st8" x1="639.6" y1="227.5" x2="674.9" y2="227.5"/>
<line class="st8" x1="680.1" y1="227.5" x2="699.6" y2="227.5"/>
<line class="st8" x1="703.7" y1="227.5" x2="732" y2="227.5"/>
<line class="st9" x1="595.1" y1="240.6" x2="653.6" y2="240.6"/>
<line class="st10" x1="661.5" y1="240.6" x2="700.9" y2="240.6"/>
<line class="st11" x1="710.7" y1="240.6" x2="740.1" y2="240.6"/>
<line class="st12" x1="595.1" y1="248.2" x2="659.5" y2="248.2"/>
<line class="st12" x1="668.8" y1="248.2" x2="725.4" y2="248.2"/>
<path class="st13" d="M705.3,193.8"/>
<path class="st13" d="M657.2,193.8"/>
<path class="st14" d="M615.2,176.1"/>
<g>
	<g>
		<path class="st0" d="M454.7,246.3c-30,0-54.5-24.4-54.5-54.5s24.4-54.5,54.5-54.5h172.6c30,0,54.5,24.4,54.5,54.5
			s-24.4,54.5-54.5,54.5H454.7z"/>
		<path d="M627.3,141.8c27.6,0,50,22.4,50,50c0,27.6-22.4,50-50,50H454.7c-27.6,0-50-22.4-50-50c0-27.6,22.4-50,50-50H627.3
			 M627.3,132.8H454.7c-32.6,0-59,26.4-59,59v0c0,32.6,26.4,59,59,59h172.6c32.6,0,59-26.4,59-59v0
			C686.3,159.2,659.9,132.8,627.3,132.8L627.3,132.8z"/>
	</g>
</g>
<line class="st7" x1="427.5" y1="154.9" x2="493.7" y2="154.9"/>
<line class="st8" x1="427.5" y1="167.3" x2="477.1" y2="167.3"/>
<line class="st8" x1="483.5" y1="167.3" x2="531.6" y2="167.3"/>
<line class="st8" x1="538.8" y1="167.3" x2="569.6" y2="167.3"/>
<line class="st8" x1="427.5" y1="172.3" x2="459.7" y2="172.3"/>
<line class="st8" x1="464.5" y1="172.3" x2="510.9" y2="172.3"/>
<line class="st8" x1="515.1" y1="172.3" x2="544.7" y2="172.3"/>
<line class="st8" x1="548.9" y1="172.3" x2="569.6" y2="172.3"/>
<line class="st8" x1="427.5" y1="176.7" x2="464.5" y2="176.7"/>
<line class="st8" x1="467.9" y1="176.7" x2="488.9" y2="176.7"/>
<line class="st8" x1="495.8" y1="176.7" x2="544.7" y2="176.7"/>
<line class="st8" x1="548.9" y1="176.7" x2="576.5" y2="176.7"/>
<line class="st8" x1="427.5" y1="181.6" x2="469.6" y2="181.6"/>
<line class="st8" x1="474.6" y1="181.6" x2="510.9" y2="181.6"/>
<line class="st8" x1="516.2" y1="181.6" x2="536.2" y2="181.6"/>
<line class="st8" x1="540.4" y1="181.6" x2="569.6" y2="181.6"/>
<line class="st7" x1="501.2" y1="154.9" x2="535.4" y2="154.9"/>
<line class="st7" x1="541.4" y1="154.9" x2="562.5" y2="154.9"/>
<line class="st9" x1="427.5" y1="203.8" x2="487.7" y2="203.8"/>
<line class="st10" x1="495.8" y1="203.8" x2="536.2" y2="203.8"/>
<line class="st11" x1="546.3" y1="203.8" x2="576.5" y2="203.8"/>
<line class="st12" x1="427.5" y1="211.5" x2="493.7" y2="211.5"/>
<line class="st12" x1="503.3" y1="211.5" x2="561.4" y2="211.5"/>
<path class="st13" d="M540.8,155.6"/>
<path class="st13" d="M491.3,155.6"/>
<path class="st14" d="M448.1,137.4"/>
<line class="st12" x1="604.9" y1="154.9" x2="604.9" y2="231.2"/>
<line class="st10" x1="613.7" y1="154.9" x2="613.7" y2="231.2"/>
<line class="st9" x1="621.2" y1="154.9" x2="621.2" y2="231.2"/>
<line class="st12" x1="628.6" y1="154.9" x2="628.6" y2="231.2"/>
<line class="st11" x1="635.5" y1="154.9" x2="635.5" y2="231.2"/>
<g>
	<circle class="st1" cx="770.1" cy="228.9" r="9.5"/>
	<g>
		<path class="st2" d="M771.2,219.4c0.7,1.4,1.2,2.9,1.2,4.6c0,5.3-4.3,9.5-9.5,9.5c-0.4,0-0.7,0-1-0.1c1.6,3,4.8,4.9,8.4,4.9
			c5.3,0,9.5-4.3,9.5-9.5C779.7,224,775.9,219.9,771.2,219.4z"/>
	</g>
	<path class="st3" d="M772.5,219.6c0.9,1.5,1.4,3.2,1.4,5c0,5.3-4.3,9.5-9.5,9.5c-0.8,0-1.6-0.1-2.3-0.3c1.7,2.7,4.7,4.6,8.2,4.6
		c5.3,0,9.5-4.3,9.5-9.5C779.7,224.4,776.6,220.7,772.5,219.6z"/>
	<path class="st4" d="M774.8,220.5c0.8,1.4,1.3,3.1,1.3,4.8c0,5.3-4.3,9.5-9.5,9.5c-1.6,0-3.2-0.4-4.6-1.2c1.6,2.8,4.7,4.7,8.3,4.7
		c5.3,0,9.5-4.3,9.5-9.5C779.7,225.3,777.7,222.2,774.8,220.5z"/>
	<path class="st5" d="M774.8,220.6c1.3,1.6,2.1,3.7,2.1,6c0,5.3-4.3,9.5-9.5,9.5c-1.7,0-3.3-0.5-4.7-1.2c1.7,2.2,4.4,3.6,7.4,3.6
		c5.3,0,9.5-4.3,9.5-9.5C779.7,225.3,777.7,222.2,774.8,220.6z"/>
</g>
<circle class="st6" cx="770.2" cy="228.9" r="12.1"/>
<g>
	<circle class="st1" cx="806.7" cy="248.1" r="14.4"/>
	<g>
		<path class="st2" d="M808.3,233.8c1.1,2,1.8,4.4,1.8,6.9c0,7.9-6.5,14.4-14.4,14.4c-0.5,0-1,0-1.6-0.1c2.4,4.4,7.2,7.5,12.6,7.5
			c7.9,0,14.4-6.5,14.4-14.4C821.2,240.7,815.5,234.6,808.3,233.8z"/>
	</g>
	<path class="st3" d="M810.2,234.1c1.4,2.2,2.1,4.8,2.1,7.6c0,7.9-6.4,14.4-14.4,14.4c-1.2,0-2.4-0.2-3.5-0.4
		c2.5,4.1,7.1,6.9,12.3,6.9c7.9,0,14.4-6.5,14.4-14.4C821.2,241.4,816.5,235.7,810.2,234.1z"/>
	<path class="st4" d="M813.7,235.5c1.3,2.1,2,4.6,2,7.3c0,7.9-6.5,14.4-14.4,14.4c-2.5,0-4.9-0.6-6.9-1.8c2.5,4.3,7.1,7.1,12.4,7.1
		c7.9,0,14.4-6.5,14.4-14.4C821.2,242.7,818.2,237.9,813.7,235.5z"/>
	<path class="st5" d="M813.8,235.5c2,2.5,3.2,5.6,3.2,9c0,7.9-6.5,14.4-14.4,14.4c-2.5,0-4.9-0.7-7-1.8c2.6,3.3,6.7,5.4,11.2,5.4
		c7.9,0,14.4-6.5,14.4-14.4C821.2,242.7,818.1,238,813.8,235.5z"/>
</g>
<circle class="st6" cx="806.8" cy="248.1" r="18.2"/>
<path class="st17" d="M227.1,377.2c0,0-11-191.2,106.6-191.2"/>
<path class="st17" d="M321.6,147.1c0,0,28.9,9.4,28.9,34.6s-18,34.5-18,34.5"/>
</svg>
