<?xml version="1.0" encoding="utf-8"?>
<!-- Generator: Adobe Illustrator 26.3.1, SVG Export Plug-In . SVG Version: 6.00 Build 0)  -->
<svg version="1.1" id="Layer_1" xmlns="http://www.w3.org/2000/svg" xmlns:xlink="http://www.w3.org/1999/xlink" x="0px" y="0px"
	 viewBox="0 0 1000 1000" style="enable-background:new 0 0 1000 1000;" xml:space="preserve">
<style type="text/css">
	.st0{fill:#FFFFFF;}
	.st1{fill:#FF855B;}
	.st2{fill:#FF635B;}
	.st3{fill:#C7385B;}
	.st4{fill:#62245B;}
	.st5{fill:#83005B;}
	.st6{fill:none;stroke:#FF855B;stroke-width:2;stroke-miterlimit:10;}
	.st7{fill:none;stroke:#000000;stroke-width:9;stroke-miterlimit:10;}
	.st8{fill:none;stroke:#999999;stroke-width:4;stroke-miterlimit:10;}
	.st9{fill:none;stroke:#FF855B;stroke-width:6;stroke-miterlimit:10;}
	.st10{fill:none;stroke:#FF635B;stroke-width:6;stroke-miterlimit:10;}
	.st11{fill:none;stroke:#C7385B;stroke-width:6;stroke-miterlimit:10;}
	.st12{fill:none;stroke:#83005B;stroke-width:6;stroke-miterlimit:10;}
	.st13{fill:#FF635B;stroke:#62245B;stroke-width:10;stroke-miterlimit:10;}
	.st14{fill:#FFFFFF;stroke:#000000;stroke-width:3;stroke-miterlimit:10;}
</style>
<g id="Layer_2_00000178913559598322726600000017769673936653118142_">
</g>
<g id="Layer_1_00000038399091488147229460000003238643173333720483_">
	<g>
		<g>
			<path class="st0" d="M296.2,758.7c-41,0-74.4-33.3-74.4-74.4v-75.7c0-41,33.3-74.4,74.4-74.4h423.5c41,0,74.4,33.3,74.4,74.4
				v75.7c0,41-33.3,74.4-74.4,74.4H296.2z"/>
			<path d="M719.7,537.9c39,0,70.7,31.7,70.7,70.7v75.7c0,39-31.7,70.7-70.7,70.7H296.2c-39,0-70.7-31.7-70.7-70.7v-75.7
				c0-39,31.7-70.7,70.7-70.7H719.7 M719.7,530.5H296.2c-43.2,0-78.1,35-78.1,78.1v75.7c0,43.2,35,78.1,78.1,78.1h423.5
				c43.2,0,78.1-35,78.1-78.1v-75.7C797.8,565.5,762.9,530.5,719.7,530.5L719.7,530.5z"/>
		</g>
	</g>
	<g>
		<circle class="st1" cx="680.1" cy="631.1" r="61.5"/>
		<g>
			<path class="st2" d="M686.8,569.8c4.8,8.7,7.5,18.9,7.5,29.5c0,33.8-27.6,61.5-61.5,61.5c-2.3,0-4.5-0.2-6.7-0.4
				c10.5,19,30.6,31.9,54,31.9c33.8,0,61.5-27.6,61.5-61.5C741.7,599.2,717.6,573.2,686.8,569.8z"/>
		</g>
		<path class="st3" d="M695.1,571.3c5.9,9.4,9.1,20.4,9.1,32.4c0,33.8-27.5,61.5-61.5,61.5c-5.1,0-10.1-0.7-14.9-1.9
			c10.8,17.5,30.1,29.3,52.5,29.3c33.8,0,61.5-27.6,61.5-61.5C741.7,602.2,721.8,577.9,695.1,571.3z"/>
		<path class="st4" d="M710,577c5.4,9.1,8.4,19.6,8.4,31c0,33.8-27.6,61.5-61.5,61.5c-10.6,0-20.7-2.6-29.5-7.5
			c10.6,18.3,30.5,30.5,53.1,30.5c33.8,0,61.5-27.6,61.5-61.5C742,607.7,729,587.4,710,577z"/>
		<path class="st5" d="M710.1,577.1c8.4,10.6,13.5,23.9,13.5,38.5c0,33.8-27.6,61.5-61.5,61.5c-10.8,0-21-3-30-7.8
			c11.2,14,28.6,23.2,47.9,23.2c33.8,0,61.5-27.6,61.5-61.5C741.7,607.8,728.9,587.6,710.1,577.1z"/>
	</g>
	<circle class="st6" cx="680.4" cy="631.1" r="77.7"/>
	<line class="st7" x1="262" y1="564" x2="399" y2="564"/>
	<line class="st8" x1="262" y1="589.7" x2="364.7" y2="589.7"/>
	<line class="st8" x1="377.9" y1="589.7" x2="477.5" y2="589.7"/>
	<line class="st8" x1="492.3" y1="589.7" x2="556.2" y2="589.7"/>
	<line class="st8" x1="262" y1="599.9" x2="328.6" y2="599.9"/>
	<line class="st8" x1="338.5" y1="599.9" x2="434.5" y2="599.9"/>
	<line class="st8" x1="443.2" y1="599.9" x2="504.5" y2="599.9"/>
	<line class="st8" x1="513.2" y1="599.9" x2="556.2" y2="599.9"/>
	<line class="st8" x1="262" y1="609" x2="338.5" y2="609"/>
	<line class="st8" x1="345.6" y1="609" x2="389.1" y2="609"/>
	<line class="st8" x1="403.3" y1="609" x2="504.5" y2="609"/>
	<line class="st8" x1="513.2" y1="609" x2="570.5" y2="609"/>
	<line class="st8" x1="262" y1="619.3" x2="349.1" y2="619.3"/>
	<line class="st8" x1="359.4" y1="619.3" x2="434.5" y2="619.3"/>
	<line class="st8" x1="445.6" y1="619.3" x2="487.1" y2="619.3"/>
	<line class="st8" x1="495.8" y1="619.3" x2="556.2" y2="619.3"/>
	<line class="st7" x1="414.5" y1="564" x2="485.4" y2="564"/>
	<line class="st7" x1="497.8" y1="564" x2="541.4" y2="564"/>
	<line class="st9" x1="262" y1="665.1" x2="386.5" y2="665.1"/>
	<line class="st10" x1="403.3" y1="665.1" x2="487.1" y2="665.1"/>
	<line class="st11" x1="508" y1="665.1" x2="570.5" y2="665.1"/>
	<line class="st12" x1="262" y1="681.1" x2="399" y2="681.1"/>
	<line class="st12" x1="418.9" y1="681.1" x2="539.3" y2="681.1"/>
	<path class="st13" d="M473.9,734.8"/>
	<path class="st13" d="M371.5,734.8"/>
	<path class="st14" d="M304.6,527.6"/>
	<line class="st7" x1="240.8" y1="266.3" x2="311.7" y2="266.3"/>
	<line class="st7" x1="338" y1="266.3" x2="427.2" y2="266.3"/>
	<line class="st7" x1="447.2" y1="266.3" x2="564.8" y2="266.3"/>
	<line class="st7" x1="586" y1="266.3" x2="634.9" y2="266.3"/>
	<line class="st8" x1="240.8" y1="302.2" x2="311.7" y2="302.2"/>
	<line class="st8" x1="322.5" y1="302.2" x2="387.8" y2="302.2"/>
	<line class="st8" x1="394.8" y1="302.2" x2="471.1" y2="302.2"/>
	<line class="st8" x1="481.2" y1="302.2" x2="560" y2="302.2"/>
	<line class="st8" x1="570.5" y1="302.2" x2="621" y2="302.2"/>
	<line class="st8" x1="240.8" y1="313.5" x2="338" y2="313.5"/>
	<line class="st8" x1="351.3" y1="313.5" x2="447.2" y2="313.5"/>
	<line class="st8" x1="455" y1="313.5" x2="543.8" y2="313.5"/>
	<line class="st8" x1="551.8" y1="313.5" x2="616.2" y2="313.5"/>
	<line class="st8" x1="240.8" y1="327.4" x2="370.3" y2="327.4"/>
	<line class="st8" x1="382.6" y1="327.4" x2="486.5" y2="327.4"/>
	<line class="st8" x1="492.9" y1="327.4" x2="564.8" y2="327.4"/>
	<line class="st8" x1="240.8" y1="338.8" x2="370.3" y2="338.8"/>
	<line class="st8" x1="382.6" y1="338.8" x2="486.5" y2="338.8"/>
	<line class="st8" x1="497.6" y1="338.8" x2="653.5" y2="338.8"/>
	<line class="st8" x1="240.8" y1="354.3" x2="362.4" y2="354.3"/>
	<line class="st8" x1="372.2" y1="354.3" x2="492.9" y2="354.3"/>
	<line class="st8" x1="508" y1="354.3" x2="634.9" y2="354.3"/>
	<line class="st8" x1="240.8" y1="367.3" x2="344.8" y2="367.3"/>
	<line class="st8" x1="359.8" y1="367.3" x2="515.2" y2="367.3"/>
	<line class="st8" x1="528.9" y1="367.3" x2="645.5" y2="367.3"/>
	<line class="st8" x1="240.8" y1="379.6" x2="387.8" y2="379.6"/>
	<line class="st8" x1="399.2" y1="379.6" x2="564.8" y2="379.6"/>
	<path class="st7" d="M653.5,295.5c72.1-2.1,123.1,25.5,126.9,55c3.1,23.4-25,49.3-40.4,63.4c-23,21.1-47,31.5-61.9,36.7"/>
	<path class="st7" d="M678.4,414.7c-42.5,38-39.9,60,26.5,59.2"/>
</g>
</svg>
