<?xml version="1.0" encoding="utf-8"?>
<!-- Generator: Adobe Illustrator 26.3.1, SVG Export Plug-In . SVG Version: 6.00 Build 0)  -->
<svg version="1.1" id="Layer_1" xmlns="http://www.w3.org/2000/svg" xmlns:xlink="http://www.w3.org/1999/xlink" x="0px" y="0px"
	 viewBox="0 0 1000 1000" style="enable-background:new 0 0 1000 1000;" xml:space="preserve">
<style type="text/css">
	.st0{fill:#FFFFFF;}
	.st1{fill:#FF855B;}
	.st2{fill:#FF635B;}
	.st3{fill:#C7385B;}
	.st4{fill:#62245B;}
	.st5{fill:#83005B;}
	.st6{fill:none;stroke:#FF855B;stroke-width:2;stroke-miterlimit:10;}
	.st7{fill:none;stroke:#000000;stroke-width:9;stroke-miterlimit:10;}
	.st8{fill:none;stroke:#999999;stroke-width:4;stroke-miterlimit:10;}
	.st9{fill:none;stroke:#FF855B;stroke-width:6;stroke-miterlimit:10;}
	.st10{fill:none;stroke:#FF635B;stroke-width:6;stroke-miterlimit:10;}
	.st11{fill:none;stroke:#C7385B;stroke-width:6;stroke-miterlimit:10;}
	.st12{fill:none;stroke:#83005B;stroke-width:6;stroke-miterlimit:10;}
	.st13{fill:#FF635B;stroke:#62245B;stroke-width:10;stroke-miterlimit:10;}
	.st14{fill:#FFFFFF;stroke:#000000;stroke-width:3;stroke-miterlimit:10;}
	.st15{font-family:'MontserratAlternates-Black';}
	.st16{font-size:21.7611px;}
</style>
<g>
	<g>
		<path class="st0" d="M272.1,696.4c-38.4,0-69.7-31.2-69.7-69.7v-1.5c0-38.4,31.2-69.7,69.7-69.7h223.2c38.4,0,69.7,31.2,69.7,69.7
			v1.5c0,38.4-31.2,69.7-69.7,69.7H272.1z"/>
		<path d="M495.3,559.1c36.5,0,66.2,29.7,66.2,66.2v1.5c0,36.5-29.7,66.2-66.2,66.2H272.1c-36.5,0-66.2-29.7-66.2-66.2v-1.5
			c0-36.5,29.7-66.2,66.2-66.2H495.3 M495.3,552.1H272.1c-40.4,0-73.1,32.7-73.1,73.1v1.5c0,40.4,32.7,73.1,73.1,73.1h223.2
			c40.4,0,73.1-32.7,73.1-73.1v-1.5C568.5,584.9,535.7,552.1,495.3,552.1L495.3,552.1z"/>
	</g>
</g>
<g>
	<circle class="st1" cx="493.4" cy="616.2" r="39.2"/>
	<g>
		<path class="st2" d="M497.7,577.1c3.1,5.6,4.8,12,4.8,18.8c0,21.5-17.6,39.2-39.2,39.2c-1.5,0-2.8-0.1-4.2-0.2
			c6.6,12.1,19.5,20.3,34.4,20.3c21.5,0,39.2-17.6,39.2-39.2C532.7,595.9,517.3,579.4,497.7,577.1z"/>
	</g>
	<path class="st3" d="M503,578.1c3.8,5.9,5.8,13,5.8,20.6c0,21.5-17.5,39.2-39.2,39.2c-3.2,0-6.4-0.5-9.5-1.2
		c6.9,11.2,19.2,18.7,33.4,18.7c21.5,0,39.2-17.6,39.2-39.2C532.7,597.7,520,582.3,503,578.1z"/>
	<path class="st4" d="M512.5,581.8c3.4,5.8,5.4,12.5,5.4,19.8c0,21.5-17.6,39.2-39.2,39.2c-6.7,0-13.2-1.7-18.8-4.8
		c6.7,11.7,19.5,19.5,33.8,19.5c21.5,0,39.2-17.6,39.2-39.2C532.9,601.3,524.6,588.4,512.5,581.8z"/>
	<path class="st5" d="M512.5,581.8c5.4,6.7,8.7,15.3,8.7,24.6c0,21.5-17.6,39.2-39.2,39.2c-6.9,0-13.4-1.9-19.1-4.9
		c7.2,9,18.2,14.8,30.5,14.8c21.5,0,39.2-17.6,39.2-39.2C532.7,601.4,524.5,588.5,512.5,581.8z"/>
</g>
<circle class="st6" cx="493.6" cy="616.2" r="49.6"/>
<line class="st7" x1="238.9" y1="573.4" x2="326.2" y2="573.4"/>
<line class="st8" x1="227" y1="589.8" x2="292.4" y2="589.8"/>
<line class="st8" x1="300.8" y1="589.8" x2="364.3" y2="589.8"/>
<line class="st8" x1="373.7" y1="589.8" x2="414.4" y2="589.8"/>
<line class="st8" x1="227" y1="596.4" x2="269.4" y2="596.4"/>
<line class="st8" x1="275.7" y1="596.4" x2="336.9" y2="596.4"/>
<line class="st8" x1="342.5" y1="596.4" x2="381.5" y2="596.4"/>
<line class="st8" x1="387" y1="596.4" x2="414.4" y2="596.4"/>
<line class="st8" x1="227" y1="602.2" x2="275.7" y2="602.2"/>
<line class="st8" x1="280.2" y1="602.2" x2="307.9" y2="602.2"/>
<line class="st8" x1="317" y1="602.2" x2="381.5" y2="602.2"/>
<line class="st8" x1="387" y1="602.2" x2="423.6" y2="602.2"/>
<line class="st8" x1="227" y1="608.6" x2="282.5" y2="608.6"/>
<line class="st8" x1="289" y1="608.6" x2="336.9" y2="608.6"/>
<line class="st8" x1="343.9" y1="608.6" x2="370.4" y2="608.6"/>
<line class="st8" x1="376" y1="608.6" x2="414.4" y2="608.6"/>
<line class="st7" x1="332.6" y1="573.4" x2="377.7" y2="573.4"/>
<line class="st7" x1="386.5" y1="573.4" x2="414.2" y2="573.4"/>
<line class="st9" x1="227" y1="637.8" x2="306.3" y2="637.8"/>
<line class="st10" x1="317" y1="637.8" x2="370.4" y2="637.8"/>
<line class="st11" x1="383.7" y1="637.8" x2="423.6" y2="637.8"/>
<line class="st12" x1="227" y1="648.1" x2="314.3" y2="648.1"/>
<line class="st12" x1="326.9" y1="648.1" x2="403.6" y2="648.1"/>
<path class="st13" d="M376.4,574.3"/>
<path class="st13" d="M311.1,574.3"/>
<path class="st14" d="M254.1,550.2"/>
<g>
	<g>
		<path class="st0" d="M478.6,393c-32,0-58-26-58-58s26-58,58-58h195.7c32,0,58,26,58,58s-26,58-58,58H478.6z"/>
		<path d="M674.3,280.5c30,0,54.5,24.5,54.5,54.5c0,30-24.5,54.5-54.5,54.5H478.6c-30,0-54.5-24.5-54.5-54.5
			c0-30,24.5-54.5,54.5-54.5H674.3 M674.3,273.5H478.6c-34,0-61.5,27.5-61.5,61.5l0,0c0,34,27.5,61.5,61.5,61.5h195.7
			c34,0,61.5-27.5,61.5-61.5l0,0C735.8,301,708.3,273.5,674.3,273.5L674.3,273.5z"/>
	</g>
</g>
<g>
	<circle class="st1" cx="520" cy="359.2" r="19.1"/>
	<g>
		<path class="st2" d="M522,340.2c1.5,2.7,2.3,5.9,2.3,9.2c0,10.5-8.6,19.1-19.1,19.1c-0.7,0-1.4-0.1-2.1-0.2
			c3.2,5.9,9.5,9.9,16.8,9.9c10.5,0,19.1-8.6,19.1-19.1C539.1,349.4,531.6,341.2,522,340.2z"/>
	</g>
	<path class="st3" d="M524.6,340.6c1.9,2.9,2.9,6.3,2.9,10c0,10.5-8.5,19.1-19.1,19.1c-1.5,0-3.1-0.2-4.6-0.6
		c3.4,5.5,9.3,9.1,16.3,9.1c10.5,0,19.1-8.6,19.1-19.1C539.1,350.3,532.9,342.7,524.6,340.6z"/>
	<path class="st4" d="M529.2,342.4c1.7,2.9,2.6,6.1,2.6,9.7c0,10.5-8.6,19.1-19.1,19.1c-3.3,0-6.5-0.8-9.2-2.3
		c3.3,5.7,9.5,9.5,16.5,9.5c10.5,0,19.1-8.6,19.1-19.1C539.2,352,535.1,345.7,529.2,342.4z"/>
	<path class="st5" d="M529.2,342.5c2.6,3.3,4.2,7.4,4.2,12c0,10.5-8.6,19.1-19.1,19.1c-3.4,0-6.6-0.9-9.3-2.4
		c3.5,4.4,8.9,7.2,14.9,7.2c10.5,0,19.1-8.6,19.1-19.1C539.1,352,535.1,345.7,529.2,342.5z"/>
</g>
<circle class="st6" cx="520" cy="359.2" r="24.2"/>
<line class="st7" x1="468.8" y1="297.6" x2="537.1" y2="297.6"/>
<line class="st8" x1="468.8" y1="310.4" x2="520" y2="310.4"/>
<line class="st8" x1="526.6" y1="310.4" x2="576.3" y2="310.4"/>
<line class="st8" x1="583.6" y1="310.4" x2="615.4" y2="310.4"/>
<line class="st8" x1="468.8" y1="315.5" x2="502" y2="315.5"/>
<line class="st8" x1="507" y1="315.5" x2="554.8" y2="315.5"/>
<line class="st8" x1="559.1" y1="315.5" x2="589.7" y2="315.5"/>
<line class="st8" x1="594" y1="315.5" x2="615.4" y2="315.5"/>
<line class="st8" x1="468.8" y1="320" x2="507" y2="320"/>
<line class="st8" x1="510.5" y1="320" x2="532.2" y2="320"/>
<line class="st8" x1="539.3" y1="320" x2="589.7" y2="320"/>
<line class="st8" x1="594" y1="320" x2="622.5" y2="320"/>
<line class="st8" x1="468.8" y1="325.2" x2="512.2" y2="325.2"/>
<line class="st8" x1="517.4" y1="325.2" x2="554.8" y2="325.2"/>
<line class="st8" x1="560.3" y1="325.2" x2="581" y2="325.2"/>
<line class="st8" x1="585.3" y1="325.2" x2="615.4" y2="325.2"/>
<line class="st7" x1="544.8" y1="297.6" x2="580.1" y2="297.6"/>
<line class="st7" x1="586.3" y1="297.6" x2="608" y2="297.6"/>
<path class="st13" d="M585.7,298.3"/>
<path class="st13" d="M534.6,298.3"/>
<path class="st14" d="M490.1,279.5"/>
<line class="st9" x1="631.9" y1="297.6" x2="694" y2="297.6"/>
<line class="st10" x1="631.9" y1="307.5" x2="673.7" y2="307.5"/>
<line class="st11" x1="632" y1="332.9" x2="663.2" y2="332.9"/>
<line class="st12" x1="631.9" y1="325.2" x2="700.2" y2="325.2"/>
<line class="st12" x1="631.9" y1="317.4" x2="692" y2="317.4"/>
<text transform="matrix(1 -5.157303e-03 5.157303e-03 1 565.7828 368.7185)" class="st1 st15 st16">WE</text>
<text transform="matrix(1 -5.157303e-03 5.157303e-03 1 608.0831 368.5018)" class="st2 st15 st16">BL</text>
<text transform="matrix(1 -5.157303e-03 5.157303e-03 1 638.8961 368.3434)" class="st3 st15 st16">I</text>
<text transform="matrix(1 -5.157303e-03 5.157303e-03 1 650.3852 368.2836)" class="st4 st15 st16">S</text>
<text transform="matrix(1 -5.157303e-03 5.157303e-03 1 665.0071 368.2087)" class="st5 st15 st16">H</text>
<g>
	<g>
		<path class="st0" d="M563.4,464.6c-21.3,0-38.6-17.3-38.6-38.6c0-21.3,17.3-38.6,38.6-38.6h126.2c21.3,0,38.6,17.3,38.6,38.6
			c0,21.3-17.3,38.6-38.6,38.6H563.4z"/>
		<path d="M689.6,390.8c19.4,0,35.1,15.8,35.1,35.1s-15.8,35.1-35.1,35.1H563.4c-19.4,0-35.1-15.8-35.1-35.1s15.8-35.1,35.1-35.1
			H689.6 M689.6,383.9H563.4c-23.2,0-42.1,18.8-42.1,42.1l0,0c0,23.2,18.8,42.1,42.1,42.1h126.2c23.2,0,42.1-18.8,42.1-42.1l0,0
			C731.7,402.7,712.9,383.9,689.6,383.9L689.6,383.9z"/>
	</g>
</g>
<g>
	<circle class="st1" cx="692" cy="404.4" r="7.3"/>
	<g>
		<path class="st2" d="M692.8,397.1c0.5,1.1,0.9,2.2,0.9,3.6c0,4.1-3.3,7.3-7.3,7.3c-0.3,0-0.5,0-0.8-0.1c1.2,2.3,3.7,3.8,6.5,3.8
			c4.1,0,7.3-3.3,7.3-7.3C699.4,400.6,696.5,397.5,692.8,397.1z"/>
	</g>
	<path class="st3" d="M693.8,397.2c0.7,1.2,1.1,2.5,1.1,3.9c0,4.1-3.3,7.3-7.3,7.3c-0.6,0-1.2-0.1-1.8-0.2c1.3,2.1,3.6,3.6,6.3,3.6
		c4.1,0,7.3-3.3,7.3-7.3C699.4,401,697,398.1,693.8,397.2z"/>
	<path class="st4" d="M695.6,397.9c0.6,1.1,1,2.4,1,3.7c0,4.1-3.3,7.3-7.3,7.3c-1.2,0-2.5-0.3-3.6-0.9c1.2,2.2,3.6,3.6,6.4,3.6
		c4.1,0,7.3-3.3,7.3-7.3C699.4,401.6,697.9,399.2,695.6,397.9z"/>
	<path class="st5" d="M695.6,397.9c1,1.2,1.6,2.9,1.6,4.6c0,4.1-3.3,7.3-7.3,7.3c-1.3,0-2.5-0.4-3.6-0.9c1.3,1.7,3.4,2.8,5.7,2.8
		c4.1,0,7.3-3.3,7.3-7.3C699.4,401.6,697.8,399.3,695.6,397.9z"/>
</g>
<circle class="st6" cx="692" cy="404.4" r="9.3"/>
<line class="st8" x1="536.2" y1="411.8" x2="573.6" y2="411.8"/>
<line class="st8" x1="578.3" y1="411.8" x2="614.5" y2="411.8"/>
<line class="st8" x1="619.8" y1="411.8" x2="643" y2="411.8"/>
<line class="st8" x1="536.2" y1="415.5" x2="560.4" y2="415.5"/>
<line class="st8" x1="564" y1="415.5" x2="598.9" y2="415.5"/>
<line class="st8" x1="602.1" y1="415.5" x2="624.3" y2="415.5"/>
<line class="st8" x1="627.4" y1="415.5" x2="643" y2="415.5"/>
<line class="st8" x1="536.2" y1="418.9" x2="564" y2="418.9"/>
<line class="st8" x1="566.6" y1="418.9" x2="582.4" y2="418.9"/>
<line class="st8" x1="587.5" y1="418.9" x2="624.3" y2="418.9"/>
<line class="st8" x1="627.4" y1="418.9" x2="648.2" y2="418.9"/>
<line class="st8" x1="536.2" y1="422.6" x2="567.9" y2="422.6"/>
<line class="st8" x1="571.6" y1="422.6" x2="598.9" y2="422.6"/>
<line class="st8" x1="602.9" y1="422.6" x2="618" y2="422.6"/>
<line class="st8" x1="621.1" y1="422.6" x2="643" y2="422.6"/>
<line class="st9" x1="537.3" y1="432.7" x2="582.4" y2="432.7"/>
<line class="st10" x1="588.5" y1="432.7" x2="619" y2="432.7"/>
<line class="st11" x1="626.5" y1="432.7" x2="649.2" y2="432.7"/>
<line class="st12" x1="537.3" y1="438.6" x2="587" y2="438.6"/>
<line class="st12" x1="594.2" y1="438.6" x2="637.9" y2="438.6"/>
<path class="st13" d="M622.4,396.5"/>
<path class="st13" d="M585.2,396.5"/>
<path class="st14" d="M552.8,382.9"/>
<g>
	<g>
		<path class="st0" d="M428.8,437.1c-23.2,0-42.1-18.8-42.1-42.1c0-23.2,18.8-42.1,42.1-42.1h133.3c23.2,0,42.1,18.8,42.1,42.1
			c0,23.2-18.8,42.1-42.1,42.1H428.8z"/>
		<path d="M562.1,356.4c21.3,0,38.6,17.3,38.6,38.6c0,21.3-17.3,38.6-38.6,38.6H428.8c-21.3,0-38.6-17.3-38.6-38.6
			c0-21.3,17.3-38.6,38.6-38.6H562.1 M562.1,349.4H428.8c-25.2,0-45.6,20.4-45.6,45.6l0,0c0,25.2,20.4,45.6,45.6,45.6h133.3
			c25.2,0,45.6-20.4,45.6-45.6l0,0C607.7,369.8,587.3,349.4,562.1,349.4L562.1,349.4z"/>
	</g>
</g>
<line class="st7" x1="407.8" y1="366.5" x2="458.9" y2="366.5"/>
<line class="st8" x1="407.8" y1="376.1" x2="446.1" y2="376.1"/>
<line class="st8" x1="451.1" y1="376.1" x2="488.2" y2="376.1"/>
<line class="st8" x1="493.8" y1="376.1" x2="517.6" y2="376.1"/>
<line class="st8" x1="407.8" y1="379.9" x2="432.7" y2="379.9"/>
<line class="st8" x1="436.4" y1="379.9" x2="472.2" y2="379.9"/>
<line class="st8" x1="475.5" y1="379.9" x2="498.3" y2="379.9"/>
<line class="st8" x1="501.6" y1="379.9" x2="517.6" y2="379.9"/>
<line class="st8" x1="407.8" y1="383.3" x2="436.4" y2="383.3"/>
<line class="st8" x1="439" y1="383.3" x2="455.2" y2="383.3"/>
<line class="st8" x1="460.6" y1="383.3" x2="498.3" y2="383.3"/>
<line class="st8" x1="501.6" y1="383.3" x2="522.9" y2="383.3"/>
<line class="st8" x1="407.8" y1="387.1" x2="440.3" y2="387.1"/>
<line class="st8" x1="444.2" y1="387.1" x2="472.2" y2="387.1"/>
<line class="st8" x1="476.3" y1="387.1" x2="491.8" y2="387.1"/>
<line class="st8" x1="495" y1="387.1" x2="517.6" y2="387.1"/>
<line class="st7" x1="464.7" y1="366.5" x2="491.1" y2="366.5"/>
<line class="st7" x1="495.8" y1="366.5" x2="512.1" y2="366.5"/>
<line class="st9" x1="407.8" y1="404.3" x2="454.3" y2="404.3"/>
<line class="st10" x1="460.6" y1="404.3" x2="491.8" y2="404.3"/>
<line class="st11" x1="499.6" y1="404.3" x2="522.9" y2="404.3"/>
<line class="st12" x1="407.8" y1="410.2" x2="458.9" y2="410.2"/>
<line class="st12" x1="466.4" y1="410.2" x2="511.2" y2="410.2"/>
<path class="st13" d="M495.3,367"/>
<path class="st13" d="M457.1,367"/>
<path class="st14" d="M423.7,353"/>
<line class="st12" x1="544.8" y1="366.5" x2="544.8" y2="425.4"/>
<line class="st10" x1="551.6" y1="366.5" x2="551.6" y2="425.4"/>
<line class="st9" x1="557.4" y1="366.5" x2="557.4" y2="425.4"/>
<line class="st12" x1="563.1" y1="366.5" x2="563.1" y2="425.4"/>
<line class="st11" x1="568.5" y1="366.5" x2="568.5" y2="425.4"/>
<g>
	<circle class="st1" cx="672.4" cy="423.7" r="7.3"/>
	<g>
		<path class="st2" d="M673.3,416.3c0.5,1.1,0.9,2.2,0.9,3.6c0,4.1-3.3,7.3-7.3,7.3c-0.3,0-0.5,0-0.8-0.1c1.2,2.3,3.7,3.8,6.5,3.8
			c4.1,0,7.3-3.3,7.3-7.3C679.8,419.9,676.9,416.7,673.3,416.3z"/>
	</g>
	<path class="st3" d="M674.3,416.5c0.7,1.2,1.1,2.5,1.1,3.9c0,4.1-3.3,7.3-7.3,7.3c-0.6,0-1.2-0.1-1.8-0.2c1.3,2.1,3.6,3.6,6.3,3.6
		c4.1,0,7.3-3.3,7.3-7.3C679.8,420.2,677.4,417.3,674.3,416.5z"/>
	<path class="st4" d="M676,417.2c0.6,1.1,1,2.4,1,3.7c0,4.1-3.3,7.3-7.3,7.3c-1.2,0-2.5-0.3-3.6-0.9c1.2,2.2,3.6,3.6,6.4,3.6
		c4.1,0,7.3-3.3,7.3-7.3C679.8,420.9,678.3,418.5,676,417.2z"/>
	<path class="st5" d="M676,417.2c1,1.2,1.6,2.9,1.6,4.6c0,4.1-3.3,7.3-7.3,7.3c-1.3,0-2.5-0.4-3.6-0.9c1.3,1.7,3.4,2.8,5.7,2.8
		c4.1,0,7.3-3.3,7.3-7.3C679.8,420.9,678.3,418.5,676,417.2z"/>
</g>
<circle class="st6" cx="672.5" cy="423.7" r="9.3"/>
<g>
	<circle class="st1" cx="700.7" cy="438.5" r="11.1"/>
	<g>
		<path class="st2" d="M701.9,427.4c0.8,1.5,1.4,3.4,1.4,5.3c0,6.1-5,11.1-11.1,11.1c-0.4,0-0.8,0-1.2-0.1c1.9,3.4,5.6,5.8,9.7,5.8
			c6.1,0,11.1-5,11.1-11.1C711.9,432.8,707.5,428.1,701.9,427.4z"/>
	</g>
	<path class="st3" d="M703.4,427.7c1.1,1.7,1.6,3.7,1.6,5.9c0,6.1-4.9,11.1-11.1,11.1c-0.9,0-1.9-0.2-2.7-0.3
		c1.9,3.2,5.5,5.3,9.5,5.3c6.1,0,11.1-5,11.1-11.1C711.9,433.3,708.3,428.9,703.4,427.7z"/>
	<path class="st4" d="M706.1,428.8c1,1.6,1.5,3.6,1.5,5.6c0,6.1-5,11.1-11.1,11.1c-1.9,0-3.8-0.5-5.3-1.4c1.9,3.3,5.5,5.5,9.6,5.5
		c6.1,0,11.1-5,11.1-11.1C711.9,434.3,709.6,430.6,706.1,428.8z"/>
	<path class="st5" d="M706.2,428.8c1.5,1.9,2.5,4.3,2.5,7c0,6.1-5,11.1-11.1,11.1c-1.9,0-3.8-0.5-5.4-1.4c2,2.5,5.2,4.2,8.7,4.2
		c6.1,0,11.1-5,11.1-11.1C711.9,434.3,709.5,430.7,706.2,428.8z"/>
</g>
<circle class="st6" cx="700.8" cy="438.5" r="14.1"/>
<path class="st7" d="M253,538.2c0,0-8.5-147.7,82.3-147.7"/>
<path class="st7" d="M326,360.5c0,0,22.3,7.3,22.3,26.7s-13.9,26.6-13.9,26.6"/>
</svg>
