<?xml version="1.0" encoding="utf-8"?>
<!-- Generator: Adobe Illustrator 26.3.1, SVG Export Plug-In . SVG Version: 6.00 Build 0)  -->
<svg version="1.1" id="Layer_1" xmlns="http://www.w3.org/2000/svg" xmlns:xlink="http://www.w3.org/1999/xlink" x="0px" y="0px"
	 viewBox="0 0 1000 1000" style="enable-background:new 0 0 1000 1000;" xml:space="preserve">
<style type="text/css">
	.st0{fill:none;stroke:#999999;stroke-width:7;stroke-miterlimit:10;}
	.st1{fill:#CCCCCC;}
	.st2{fill:#FFFFFF;}
	.st3{fill:#FF855B;}
	.st4{fill:#FF635B;}
	.st5{fill:#C7385B;}
	.st6{fill:#62245B;}
	.st7{fill:#83005B;}
	.st8{fill:none;stroke:#FF855B;stroke-width:2;stroke-miterlimit:10;}
	.st9{fill:none;stroke:#000000;stroke-width:9;stroke-miterlimit:10;}
	.st10{fill:none;stroke:#999999;stroke-width:4;stroke-miterlimit:10;}
</style>
<line class="st0" x1="369.8" y1="440.8" x2="575.9" y2="440.8"/>
<g>
	<g>
		<path class="st1" d="M202.6,562.9c-45,0-81.6-36.6-81.6-81.6V327.7c0-45,36.6-81.6,81.6-81.6h641c45,0,81.6,36.6,81.6,81.6v153.6
			c0,45-36.6,81.6-81.6,81.6H202.6z"/>
		<path class="st1" d="M843.6,250.2c42.7,0,77.6,34.8,77.6,77.6v153.6c0,42.7-34.8,77.6-77.6,77.6H202.6
			c-42.7,0-77.6-34.8-77.6-77.6V327.7c0-42.7,34.8-77.6,77.6-77.6L843.6,250.2 M843.6,242.1H202.6c-47.3,0-85.7,38.4-85.7,85.7
			v153.6c0,47.3,38.4,85.7,85.7,85.7h641c47.3,0,85.7-38.4,85.7-85.7V327.7C929.3,280.3,890.9,242.1,843.6,242.1L843.6,242.1z"/>
	</g>
	<g>
		<g>
			<path class="st2" d="M180.3,537.3c-45,0-81.6-36.6-81.6-81.6V302.1c0-45,36.6-81.6,81.6-81.6h641c45,0,81.6,36.6,81.6,81.6v153.6
				c0,45-36.6,81.6-81.6,81.6L180.3,537.3L180.3,537.3z"/>
			<path d="M821.2,224.5c42.7,0,77.6,34.8,77.6,77.6v153.6c0,42.7-34.8,77.6-77.6,77.6H180.3c-42.7,0-77.6-34.8-77.6-77.6V302.1
				c0-42.7,34.8-77.6,77.6-77.6L821.2,224.5 M821.2,216.4H180.3c-47.3,0-85.7,38.4-85.7,85.7v153.6c0,47.3,38.4,85.7,85.7,85.7h641
				c47.3,0,85.7-38.4,85.7-85.7V302.1C906.9,254.7,868.5,216.4,821.2,216.4L821.2,216.4z"/>
		</g>
	</g>
	<g>
		<circle class="st3" cx="742.4" cy="357.4" r="86.1"/>
		<path class="st4" d="M751.7,271.5c6.8,12.2,10.5,26.4,10.5,41.5c0,47.4-38.6,86.1-86.1,86.1c-3.2,0-6.2-0.2-9.4-0.5
			c14.7,26.6,43,44.6,75.6,44.6c47.4,0,86.1-38.6,86.1-86.1C828.6,312.7,794.9,276.4,751.7,271.5z"/>
		<path class="st5" d="M763.4,273.6c8.2,13.1,12.8,28.5,12.8,45.4c0,47.4-38.5,86.1-86.1,86.1c-7.1,0-14-0.9-20.8-2.6
			c15.2,24.6,42.2,41.1,73.5,41.1c47.4,0,86.1-38.6,86.1-86.1C828.6,316.8,800.7,282.9,763.4,273.6z"/>
		<path class="st6" d="M784.2,281.6c7.5,12.8,11.9,27.6,11.9,43.5c0,47.4-38.6,86.1-86.1,86.1c-14.8,0-29.1-3.7-41.3-10.5
			c14.8,25.7,42.8,42.8,74.5,42.8c47.4,0,86.1-38.6,86.1-86.1C829,324.5,810.8,296.2,784.2,281.6z"/>
		<path class="st7" d="M784.4,281.8c11.9,14.8,18.9,33.6,18.9,54c0,47.4-38.6,86.1-86.1,86.1c-15.2,0-29.4-4.2-42-10.9
			c15.7,19.7,40.2,32.5,67.2,32.5c47.4,0,86.1-38.6,86.1-86.1C828.6,324.7,810.6,296.4,784.4,281.8z"/>
	</g>
	<circle class="st8" cx="742.4" cy="357.4" r="109"/>
	<line class="st9" x1="156.1" y1="263.3" x2="348" y2="263.3"/>
	<line class="st10" x1="156.1" y1="299.3" x2="300" y2="299.3"/>
	<line class="st10" x1="318.6" y1="299.3" x2="458.1" y2="299.3"/>
	<line class="st10" x1="478.8" y1="299.3" x2="568.3" y2="299.3"/>
	<line class="st10" x1="156.1" y1="313.6" x2="249.4" y2="313.6"/>
	<line class="st10" x1="263.3" y1="313.6" x2="397.8" y2="313.6"/>
	<line class="st10" x1="410.1" y1="313.6" x2="495.9" y2="313.6"/>
	<line class="st10" x1="508.1" y1="313.6" x2="568.3" y2="313.6"/>
	<line class="st10" x1="156.1" y1="326.4" x2="263.3" y2="326.4"/>
	<line class="st10" x1="273.2" y1="326.4" x2="334.1" y2="326.4"/>
	<line class="st10" x1="354" y1="326.4" x2="495.9" y2="326.4"/>
	<line class="st10" x1="508.1" y1="326.4" x2="588.3" y2="326.4"/>
	<line class="st10" x1="156.1" y1="340.8" x2="278.2" y2="340.8"/>
	<line class="st10" x1="292.6" y1="340.8" x2="397.8" y2="340.8"/>
	<line class="st10" x1="413.3" y1="340.8" x2="471.5" y2="340.8"/>
	<line class="st10" x1="483.7" y1="340.8" x2="568.3" y2="340.8"/>
	<line class="st9" x1="369.8" y1="263.3" x2="469.1" y2="263.3"/>
	<line class="st9" x1="486.4" y1="263.3" x2="547.5" y2="263.3"/>
</g>
<g>
	<path class="st1" d="M186.6,711.8c-45,0-81.6-36.6-81.6-81.6v-73.8c0-45,36.6-81.6,81.6-81.6H628c45,0,81.6,36.6,81.6,81.6v73.8
		c0,45-36.6,81.6-81.6,81.6H186.6z"/>
	<path class="st1" d="M628,478.8c42.7,0,77.6,34.8,77.6,77.6v73.8c0,42.7-34.8,77.6-77.6,77.6H186.6c-42.7,0-77.6-34.8-77.6-77.6
		v-73.8c0-42.7,34.8-77.6,77.6-77.6H628 M628,470.7H186.6c-47.3,0-85.7,38.4-85.7,85.7v73.8c0,47.3,38.4,85.7,85.7,85.7H628
		c47.3,0,85.7-38.4,85.7-85.7v-73.8C713.7,509,675.3,470.7,628,470.7L628,470.7z"/>
</g>
<g>
	<path class="st2" d="M163.2,693.2c-45,0-81.6-36.6-81.6-81.6v-73.8c0-45,36.6-81.6,81.6-81.6h441.4c45,0,81.6,36.6,81.6,81.6v73.8
		c0,45-36.6,81.6-81.6,81.6H163.2z"/>
	<path d="M604.5,460.4c42.7,0,77.6,34.8,77.6,77.6v73.8c0,42.7-34.8,77.6-77.6,77.6H163.2c-42.7,0-77.6-34.8-77.6-77.6v-73.8
		c0-42.7,34.8-77.6,77.6-77.6L604.5,460.4 M604.5,452.2H163.2c-47.3,0-85.7,38.4-85.7,85.7v73.8c0,47.3,38.4,85.7,85.7,85.7h441.4
		c47.3,0,85.7-38.4,85.7-85.7v-73.8C690.3,490.6,651.9,452.2,604.5,452.2L604.5,452.2z"/>
</g>
<circle class="st8" cx="182.1" cy="573.9" r="81.1"/>
<line class="st9" x1="284.7" y1="492.8" x2="373" y2="492.8"/>
<line class="st9" x1="387.4" y1="492.8" x2="468.4" y2="492.8"/>
<line class="st9" x1="477.8" y1="492.8" x2="528.9" y2="492.8"/>
<line class="st10" x1="284.7" y1="514.5" x2="367.7" y2="514.5"/>
<line class="st0" x1="284.7" y1="593.2" x2="458.1" y2="593.2"/>
<line class="st0" x1="477.8" y1="593.2" x2="533.1" y2="593.2"/>
<line class="st0" x1="284.7" y1="608.5" x2="477.8" y2="608.5"/>
<line class="st0" x1="490.3" y1="608.5" x2="562" y2="608.5"/>
<line class="st0" x1="284.7" y1="623" x2="601.6" y2="623"/>
<line class="st10" x1="383.9" y1="514.5" x2="472.9" y2="514.5"/>
<line class="st10" x1="486.4" y1="514.5" x2="541" y2="514.5"/>
<line class="st10" x1="284.7" y1="526.6" x2="453" y2="526.6"/>
<line class="st10" x1="465.3" y1="526.6" x2="533.1" y2="526.6"/>
<line class="st10" x1="284.7" y1="541.1" x2="367.7" y2="541.1"/>
<line class="st10" x1="379.8" y1="541.1" x2="490.3" y2="541.1"/>
<line class="st10" x1="284.7" y1="552.8" x2="553.1" y2="552.8"/>
<line class="st0" x1="156.1" y1="404.5" x2="303.7" y2="404.5"/>
<line class="st0" x1="322" y1="404.5" x2="413.3" y2="404.5"/>
<line class="st0" x1="447" y1="404.5" x2="596.8" y2="404.5"/>
<line class="st0" x1="156.1" y1="423.2" x2="413.3" y2="423.2"/>
<line class="st0" x1="429.3" y1="423.2" x2="607.2" y2="423.2"/>
<line class="st0" x1="156.1" y1="440.8" x2="354" y2="440.8"/>
<g>
	<path class="st1" d="M593.7,628.9c-45,0-81.6-36.6-81.6-81.6v-12.3c0-45,36.6-81.6,81.6-81.6h287.9c45,0,81.6,36.6,81.6,81.6v12.4
		c0,45-36.6,81.6-81.6,81.6L593.7,628.9L593.7,628.9z"/>
	<path class="st1" d="M881.7,457.4c42.7,0,77.6,34.8,77.6,77.6v12.4c0,42.7-34.8,77.6-77.6,77.6h-288c-42.7,0-77.6-34.8-77.6-77.6
		v-12.4c0-42.7,34.8-77.6,77.6-77.6H881.7 M881.7,449.2h-288c-47.3,0-85.7,38.4-85.7,85.7v12.4c0,47.3,38.4,85.7,85.7,85.7h287.9
		c47.3,0,85.7-38.4,85.7-85.7v-12.4C967.3,487.6,928.9,449.2,881.7,449.2L881.7,449.2z"/>
</g>
<g>
	<path class="st2" d="M586.4,614.4c-45,0-81.6-36.6-81.6-81.6v-12.3c0-45,36.6-81.6,81.6-81.6h287.9c45,0,81.6,36.6,81.6,81.6v12.4
		c0,45-36.6,81.6-81.6,81.6L586.4,614.4L586.4,614.4z"/>
	<path d="M874.3,442.9c42.7,0,77.6,34.8,77.6,77.6v12.4c0,42.7-34.8,77.6-77.6,77.6H586.4c-42.7,0-77.6-34.8-77.6-77.6v-12.4
		c0-42.7,34.8-77.6,77.6-77.6H874.3 M874.3,434.7H586.4c-47.3,0-85.7,38.4-85.7,85.7v12.4c0,47.3,38.4,85.7,85.7,85.7h287.9
		c47.3,0,85.7-38.4,85.7-85.7v-12.4C960,473.1,921.6,434.7,874.3,434.7L874.3,434.7z"/>
</g>
<g>
	<circle class="st3" cx="182.1" cy="573.9" r="64.1"/>
	<path class="st4" d="M189,509.9c5.1,9.1,7.8,19.7,7.8,30.9c0,35.3-28.8,64.1-64.1,64.1c-2.4,0-4.6-0.2-7-0.5
		c10.9,19.8,31.9,33.2,56.3,33.2c35.3,0,64.1-28.8,64.1-64.1C246.2,540.7,221.2,513.7,189,509.9z"/>
	<path class="st5" d="M197.6,511.5c6.2,9.8,9.5,21.2,9.5,33.8c0,35.3-28.6,64.1-64.1,64.1c-5.3,0-10.5-0.7-15.5-2
		c11.3,18.3,31.4,30.6,54.8,30.6c35.3,0,64.1-28.8,64.1-64.1C246.2,543.8,225.4,518.5,197.6,511.5z"/>
	<path class="st6" d="M213.2,517.6c5.6,9.5,8.8,20.5,8.8,32.4c0,35.3-28.8,64.1-64.1,64.1c-11,0-21.6-2.8-30.7-7.8
		c11,19.1,31.9,31.9,55.4,31.9c35.3,0,64.1-28.8,64.1-64.1C246.5,549.5,233,528.4,213.2,517.6z"/>
	<path class="st7" d="M213.3,517.6c8.8,11,14.1,25,14.1,40.2c0,35.3-28.8,64.1-64.1,64.1c-11.3,0-21.9-3.1-31.3-8.1
		c11.8,14.7,29.9,24.2,50,24.2c35.3,0,64.1-28.8,64.1-64.1C246.2,549.7,232.9,528.6,213.3,517.6z"/>
</g>
<line class="st9" x1="562" y1="470.7" x2="706.4" y2="470.7"/>
<line class="st9" x1="720.8" y1="470.7" x2="803.1" y2="470.7"/>
<line class="st9" x1="819" y1="470.7" x2="911" y2="470.7"/>
<line class="st10" x1="562" y1="492.8" x2="653.6" y2="492.8"/>
<line class="st10" x1="666.7" y1="492.8" x2="742.4" y2="492.8"/>
<line class="st10" x1="756" y1="492.8" x2="829.2" y2="492.8"/>
<line class="st10" x1="842.2" y1="492.8" x2="921.4" y2="492.8"/>
<line class="st10" x1="562" y1="501.4" x2="698.4" y2="501.4"/>
<line class="st10" x1="710.3" y1="501.4" x2="781.5" y2="501.4"/>
<line class="st10" x1="792.5" y1="501.4" x2="906.9" y2="501.4"/>
<line class="st10" x1="562" y1="509.9" x2="723.9" y2="509.9"/>
<line class="st10" x1="737.7" y1="509.9" x2="829.2" y2="509.9"/>
<line class="st10" x1="838.2" y1="509.9" x2="915.8" y2="509.9"/>
<line class="st10" x1="562" y1="517.6" x2="737.7" y2="517.6"/>
<line class="st10" x1="748.9" y1="517.6" x2="855.3" y2="517.6"/>
<line class="st10" x1="865" y1="517.6" x2="921.4" y2="517.6"/>
<line class="st0" x1="562" y1="548.6" x2="698.4" y2="548.6"/>
<line class="st0" x1="710.3" y1="548.6" x2="783.5" y2="548.6"/>
<line class="st0" x1="796.6" y1="548.6" x2="877.1" y2="548.6"/>
<line class="st0" x1="562" y1="567" x2="756" y2="567"/>
<line class="st0" x1="769.1" y1="567.5" x2="887.9" y2="567.5"/>
<line class="st0" x1="562" y1="581.3" x2="730.3" y2="581.3"/>
<line class="st0" x1="742.4" y1="581.3" x2="869.1" y2="581.3"/>
</svg>
