<?xml version="1.0" encoding="utf-8"?>
<!-- Generator: Adobe Illustrator 26.3.1, SVG Export Plug-In . SVG Version: 6.00 Build 0)  -->
<svg version="1.1" xmlns="http://www.w3.org/2000/svg" xmlns:xlink="http://www.w3.org/1999/xlink" x="0px" y="0px"
	 viewBox="0 0 1000 1000" style="enable-background:new 0 0 1000 1000;" xml:space="preserve">
<style type="text/css">
	.st0{fill:#FFFFFF;}
	.st1{fill:#FF855B;}
	.st2{fill:#FF635B;}
	.st3{fill:#C7385B;}
	.st4{fill:#62245B;}
	.st5{fill:#83005B;}
	.st6{fill:none;stroke:#FF855B;stroke-width:2;stroke-miterlimit:10;}
	.st7{fill:#FFFFFF;stroke:#000000;stroke-width:9;stroke-miterlimit:10;}
	.st8{fill:#FFFFFF;stroke:#999999;stroke-width:4;stroke-miterlimit:10;}
	.st9{fill:#FF855B;stroke:#FF855B;stroke-width:6;stroke-miterlimit:10;}
	.st10{fill:#FF635B;stroke:#FF635B;stroke-width:6;stroke-miterlimit:10;}
	.st11{fill:#C7385B;stroke:#C7385B;stroke-width:6;stroke-miterlimit:10;}
	.st12{fill:#83005B;stroke:#83005B;stroke-width:6;stroke-miterlimit:10;}
	.st13{fill:#FF635B;stroke:#62245B;stroke-width:10;stroke-miterlimit:10;}
	.st14{fill:#FFFFFF;stroke:#000000;stroke-width:3;stroke-miterlimit:10;}
	.st15{fill:none;stroke:#000000;stroke-width:9;stroke-miterlimit:10;}
</style>
<g id="Layer_2">
</g>
<g id="Layer_1">
	<g>
		<g>
			<path class="st0" d="M282.2,694.3c-49.7,0-90.2-40.4-90.2-90.2v-91.7c0-49.7,40.4-90.2,90.2-90.2h513.2
				c49.7,0,90.2,40.4,90.2,90.2v91.7c0,49.7-40.4,90.2-90.2,90.2H282.2z"/>
			<path d="M795.4,426.8c47.2,0,85.7,38.4,85.7,85.7v91.7c0,47.2-38.4,85.7-85.7,85.7H282.2c-47.2,0-85.7-38.4-85.7-85.7v-91.7
				c0-47.2,38.4-85.7,85.7-85.7H795.4 M795.4,417.8H282.2c-52.3,0-94.7,42.4-94.7,94.7v91.7c0,52.3,42.4,94.7,94.7,94.7h513.2
				c52.3,0,94.7-42.4,94.7-94.7v-91.7C890,460.2,847.7,417.8,795.4,417.8L795.4,417.8z"/>
		</g>
	</g>
	<g>
		<circle class="st1" cx="747.4" cy="539.7" r="74.5"/>
		<g>
			<path class="st2" d="M755.5,465.4c5.8,10.5,9.1,22.9,9.1,35.8c0,41-33.4,74.5-74.5,74.5c-2.8,0-5.4-0.2-8.1-0.5
				c12.7,23,37.1,38.6,65.4,38.6c41,0,74.5-33.4,74.5-74.5C822,501.1,792.8,469.6,755.5,465.4z"/>
		</g>
		<path class="st3" d="M765.6,467.2c7.1,11.4,11,24.7,11,39.3c0,41-33.3,74.5-74.5,74.5c-6.2,0-12.2-0.8-18-2.3
			c13.1,21.2,36.5,35.5,63.6,35.5c41,0,74.5-33.4,74.5-74.5C822,504.7,797.9,475.3,765.6,467.2z"/>
		<path class="st4" d="M783.6,474.2c6.5,11,10.2,23.8,10.2,37.6c0,41-33.4,74.5-74.5,74.5c-12.8,0-25.1-3.2-35.7-9.1
			c12.8,22.2,37,37,64.4,37c41,0,74.5-33.4,74.5-74.5C822.4,511.3,806.6,486.8,783.6,474.2z"/>
		<path class="st5" d="M783.7,474.3c10.2,12.8,16.4,29,16.4,46.7c0,41-33.4,74.5-74.5,74.5c-13.1,0-25.5-3.6-36.3-9.4
			c13.6,17,34.7,28.1,58.1,28.1c41,0,74.5-33.4,74.5-74.5C822,511.5,806.5,487,783.7,474.3z"/>
	</g>
	<circle class="st6" cx="747.7" cy="539.7" r="94.2"/>
	<line class="st7" x1="240.7" y1="458.4" x2="406.7" y2="458.4"/>
	<line class="st8" x1="240.7" y1="489.5" x2="365.2" y2="489.5"/>
	<line class="st8" x1="381.2" y1="489.5" x2="501.9" y2="489.5"/>
	<line class="st8" x1="519.8" y1="489.5" x2="597.2" y2="489.5"/>
	<line class="st8" x1="240.7" y1="501.9" x2="321.4" y2="501.9"/>
	<line class="st8" x1="333.4" y1="501.9" x2="449.8" y2="501.9"/>
	<line class="st8" x1="460.3" y1="501.9" x2="534.6" y2="501.9"/>
	<line class="st8" x1="545.1" y1="501.9" x2="597.2" y2="501.9"/>
	<line class="st8" x1="240.7" y1="512.9" x2="333.4" y2="512.9"/>
	<line class="st8" x1="342" y1="512.9" x2="394.7" y2="512.9"/>
	<line class="st8" x1="412" y1="512.9" x2="534.6" y2="512.9"/>
	<line class="st8" x1="545.1" y1="512.9" x2="614.6" y2="512.9"/>
	<line class="st8" x1="240.7" y1="525.4" x2="346.3" y2="525.4"/>
	<line class="st8" x1="358.8" y1="525.4" x2="449.8" y2="525.4"/>
	<line class="st8" x1="463.2" y1="525.4" x2="513.5" y2="525.4"/>
	<line class="st8" x1="524" y1="525.4" x2="597.2" y2="525.4"/>
	<line class="st7" x1="425.5" y1="458.4" x2="511.4" y2="458.4"/>
	<line class="st7" x1="526.4" y1="458.4" x2="579.3" y2="458.4"/>
	<line class="st9" x1="240.7" y1="580.9" x2="391.6" y2="580.9"/>
	<line class="st10" x1="412" y1="580.9" x2="513.5" y2="580.9"/>
	<line class="st11" x1="538.8" y1="580.9" x2="614.6" y2="580.9"/>
	<line class="st12" x1="240.7" y1="600.3" x2="406.7" y2="600.3"/>
	<line class="st12" x1="430.8" y1="600.3" x2="576.7" y2="600.3"/>
	<path class="st13" d="M497.5,665.4"/>
	<path class="st13" d="M373.4,665.4"/>
	<path class="st14" d="M292.4,414.3"/>
	<line class="st15" x1="215" y1="97.7" x2="301" y2="97.7"/>
	<line class="st15" x1="332.8" y1="97.7" x2="440.9" y2="97.7"/>
	<line class="st15" x1="465.1" y1="97.7" x2="607.7" y2="97.7"/>
	<line class="st15" x1="633.4" y1="97.7" x2="692.6" y2="97.7"/>
	<line class="st8" x1="215" y1="141.1" x2="301" y2="141.1"/>
	<line class="st8" x1="314" y1="141.1" x2="393.2" y2="141.1"/>
	<line class="st8" x1="401.6" y1="141.1" x2="494.1" y2="141.1"/>
	<line class="st8" x1="506.4" y1="141.1" x2="601.8" y2="141.1"/>
	<line class="st8" x1="614.6" y1="141.1" x2="675.8" y2="141.1"/>
	<line class="st8" x1="215" y1="154.9" x2="332.8" y2="154.9"/>
	<line class="st8" x1="348.9" y1="154.9" x2="465.1" y2="154.9"/>
	<line class="st8" x1="474.6" y1="154.9" x2="582.2" y2="154.9"/>
	<line class="st8" x1="591.9" y1="154.9" x2="669.9" y2="154.9"/>
	<line class="st8" x1="215" y1="171.7" x2="371.9" y2="171.7"/>
	<line class="st8" x1="386.9" y1="171.7" x2="512.8" y2="171.7"/>
	<line class="st8" x1="520.5" y1="171.7" x2="607.7" y2="171.7"/>
	<line class="st8" x1="215" y1="185.5" x2="371.9" y2="185.5"/>
	<line class="st8" x1="386.9" y1="185.5" x2="512.8" y2="185.5"/>
	<line class="st8" x1="526.2" y1="185.5" x2="715.1" y2="185.5"/>
	<line class="st8" x1="215" y1="204.3" x2="362.4" y2="204.3"/>
	<line class="st8" x1="374.3" y1="204.3" x2="520.5" y2="204.3"/>
	<line class="st8" x1="538.8" y1="204.3" x2="692.6" y2="204.3"/>
	<line class="st8" x1="215" y1="220" x2="341" y2="220"/>
	<line class="st8" x1="359.2" y1="220" x2="547.5" y2="220"/>
	<line class="st8" x1="564.1" y1="220" x2="705.4" y2="220"/>
	<line class="st8" x1="215" y1="234.9" x2="393.2" y2="234.9"/>
	<line class="st8" x1="407" y1="234.9" x2="607.7" y2="234.9"/>
	<path class="st15" d="M715.1,133c87.4-2.6,149.2,30.9,153.8,66.6c3.7,28.4-30.3,59.7-48.9,76.8c-27.9,25.6-56.9,38.2-75,44.5"/>
	<path class="st15" d="M745.3,277.5c-51.5,46.1-48.4,72.7,32.1,71.7"/>
</g>
</svg>
