<?xml version="1.0" encoding="utf-8"?>
<!-- Generator: Adobe Illustrator 26.3.1, SVG Export Plug-In . SVG Version: 6.00 Build 0)  -->
<svg version="1.1" id="Layer_1" xmlns="http://www.w3.org/2000/svg" xmlns:xlink="http://www.w3.org/1999/xlink" x="0px" y="0px"
	 viewBox="0 0 400 399" style="enable-background:new 0 0 400 399;" xml:space="preserve">
<style type="text/css">
	.st0{fill:#FF5594;}
	.st1{fill:#FF55D4;}
	.st2{fill:#FF55C3;}
	.st3{fill:#FF55B4;}
	.st4{fill:#F7F5DD;}
	.st5{fill:#F7F5C5;}
	.st6{fill:#F7F5B1;}
	.st7{fill:#F7F5CB;}
	.st8{fill:none;stroke:#FF5594;stroke-width:2;stroke-miterlimit:10;}
	.st9{fill:none;stroke:#006E54;stroke-width:5;stroke-miterlimit:10;}
	.st10{fill:none;stroke:#006E54;stroke-width:3;stroke-miterlimit:10;}
	.st11{fill:none;stroke:#006E54;stroke-width:4;stroke-miterlimit:10;}
	.st12{fill:none;stroke:#006E54;stroke-width:2;stroke-miterlimit:10;}
	.st13{fill:#FF55A9;}
	.st14{fill:#FF55C6;}
	.st15{fill:none;stroke:#006E54;stroke-miterlimit:10;}
	.st16{fill:none;stroke:#F7F5DD;stroke-width:7;stroke-miterlimit:10;}
	.st17{fill:none;stroke:#F7F5D3;stroke-width:7;stroke-miterlimit:10;}
	.st18{fill:none;stroke:#F7F5BA;stroke-width:7;stroke-miterlimit:10;}
	.st19{fill:none;stroke:#F7F5A4;stroke-width:7;stroke-miterlimit:10;}
	.st20{fill:#F7F5D3;}
	.st21{fill:#F7F5C4;}
	.st22{fill:#F7F5CC;}
	.st23{fill:#E15594;}
	.st24{fill:#E155B3;}
	.st25{fill:#F7F5CD;}
	.st26{fill:#F7F5B4;}
	.st27{fill:#FF55CA;}
	.st28{fill:#FF55E3;}
	.st29{fill:#FFFFFF;}
	.st30{fill:#F7F5DD;stroke:#006E54;stroke-width:2;stroke-miterlimit:10;}
	.st31{fill:#780027;}
	.st32{fill:#530027;}
	.st33{fill:#006E54;}
	.st34{fill:#006E54;stroke:#006E54;stroke-width:2;stroke-miterlimit:10;}
	.st35{fill:#006E36;}
	.st36{fill:#006E11;}
	.st37{fill:#F7F5D0;}
	.st38{fill:#F7F5BD;}
	.st39{fill:#F7F5D1;}
	.st40{fill:#F7F5AE;}
	.st41{fill:#FFFFFF;stroke:#FFFFFF;stroke-width:2;stroke-miterlimit:10;}
	.st42{opacity:0.51;fill:#DC3545;enable-background:new    ;}
	.st43{opacity:0.54;fill:#DC3545;enable-background:new    ;}
	.st44{opacity:0.28;fill:#DC3545;enable-background:new    ;}
	.st45{opacity:0.77;fill:#FF55B4;enable-background:new    ;}
	.st46{fill:none;stroke:#DC3545;stroke-miterlimit:10;}
</style>
<g id="rocket">
	<polygon class="st0" points="129.9,340.7 128.7,344.1 160.6,344.1 159.5,340.7 	"/>
	<polyline class="st1" points="150.8,344.1 160.6,344.1 159.5,340.7 150.6,340.7 	"/>
	<polyline class="st2" points="143.6,344.1 160.6,344.1 159.5,340.7 143.6,340.7 	"/>
	<polyline class="st3" points="137.2,344.1 160.4,344.1 159.3,340.7 137.3,340.7 	"/>
	<polygon class="st4" points="131,335.9 127.5,340.7 161.2,340.7 158.7,335.9 	"/>
	<rect x="130.6" y="192.3" class="st4" width="28" height="144.7"/>
	<rect x="144.6" y="192.3" class="st5" width="14.8" height="148.4"/>
	<rect x="151.2" y="192.3" class="st6" width="7.4" height="148.4"/>
	<rect x="137.2" y="192.3" class="st7" width="7.4" height="148.4"/>
	<line class="st8" x1="130.6" y1="216.9" x2="158.6" y2="216.9"/>
	<line class="st8" x1="130.6" y1="276.9" x2="158.6" y2="276.9"/>
	<line class="st8" x1="130.6" y1="246.9" x2="158.6" y2="246.9"/>
	<line class="st8" x1="130.6" y1="307" x2="159.5" y2="307"/>
	<g>
		<g>
			<g>
				<g>
					<polyline class="st9" points="62.8,370.8 62.8,158.1 66.4,158.1 					"/>
					<polyline class="st10" points="61.9,190.3 100.9,190.3 61.9,158.1 					"/>
					<polyline class="st10" points="64.1,191.6 100.9,220.3 61.9,220.3 					"/>
					<polyline class="st10" points="64.1,221.7 100.9,250.4 61.9,250.4 					"/>
					<polyline class="st10" points="64.1,251.7 100.9,280.4 61.9,280.4 					"/>
					<polyline class="st10" points="64.1,281.7 100.9,310.4 61.9,310.4 					"/>
					<polyline class="st10" points="64.1,311.8 100.9,340.5 61.9,340.5 					"/>
					<polyline class="st10" points="64.1,341.8 100.9,369.3 61.9,369.3 					"/>
					<line class="st9" x1="62.8" y1="158.1" x2="106.9" y2="158.1"/>
					<line class="st9" x1="105.2" y1="370.7" x2="104.6" y2="158.1"/>
				</g>
				<path class="st9" d="M271.4,371.3"/>
				<path class="st9" d="M271.4,370.9"/>
				<line class="st11" x1="333.5" y1="368.7" x2="104.6" y2="368.7"/>
				<g>
					<polyline class="st9" points="296.9,369.9 296.9,243.4 337,243.4 337,370.5 					"/>
					<polyline class="st10" points="297.6,272 335.2,304.7 295.4,304.7 					"/>
					<polyline class="st10" points="297.6,243.4 335.2,273.7 295.4,273.7 					"/>
					<polyline class="st10" points="297.6,306.2 335.2,337.5 295.4,337.5 					"/>
					<polyline class="st10" points="299.2,338.7 334.3,369.2 297,369.2 					"/>
				</g>
				<line class="st10" x1="64.6" y1="382.8" x2="334.4" y2="382.8"/>
				<line class="st12" x1="74.1" y1="382.8" x2="74.1" y2="370.8"/>
				<line class="st12" x1="94.4" y1="382.8" x2="94.4" y2="370.8"/>
				<line class="st12" x1="114.6" y1="381.2" x2="114.6" y2="369.3"/>
				<line class="st12" x1="135" y1="381.2" x2="135" y2="369.3"/>
				<line class="st12" x1="155.4" y1="381.2" x2="155.4" y2="369.3"/>
				<line class="st12" x1="175.5" y1="381.2" x2="175.5" y2="369.3"/>
				<line class="st12" x1="196.2" y1="381.2" x2="196.2" y2="369.3"/>
				<line class="st12" x1="216.6" y1="381.2" x2="216.6" y2="369.3"/>
				<line class="st12" x1="237.2" y1="381.2" x2="237.2" y2="369.3"/>
				<line class="st12" x1="257.3" y1="381.2" x2="257.3" y2="369.3"/>
				<line class="st12" x1="277.4" y1="381.2" x2="277.4" y2="369.3"/>
				<line class="st12" x1="298.2" y1="381.2" x2="298.2" y2="369.3"/>
				<line class="st12" x1="318.3" y1="381.2" x2="318.3" y2="369.3"/>
			</g>
			<line class="st10" x1="258.5" y1="324.7" x2="296.3" y2="324.7"/>
			<line class="st10" x1="258.5" y1="262.3" x2="296.3" y2="262.3"/>
			<line class="st10" x1="105.2" y1="266" x2="142.9" y2="266"/>
			<line class="st10" x1="105.2" y1="206" x2="142.9" y2="206"/>
		</g>
	</g>
	<polyline class="st6" points="158.7,335.9 161.2,340.7 158.6,340.7 	"/>
	<polygon class="st0" points="243.4,341 242.3,344.5 274.1,344.5 273,341 	"/>
	<polyline class="st1" points="264.3,344.5 274.1,344.5 273,341 264.1,341 	"/>
	<polyline class="st2" points="257.1,344.5 274.1,344.5 273,341 257.1,341 	"/>
	<polyline class="st3" points="250.8,344.5 273.9,344.5 272.9,341 250.9,341 	"/>
	<polygon class="st4" points="244.5,336.3 241.1,341 274.8,341 272.3,336.3 	"/>
	<rect x="244.2" y="192.6" class="st4" width="28" height="144.7"/>
	<rect x="257.4" y="192.6" class="st5" width="14.8" height="148.4"/>
	<rect x="264.8" y="192.6" class="st6" width="7.4" height="148.4"/>
	<line class="st8" x1="244.2" y1="217.2" x2="272.2" y2="217.2"/>
	<line class="st8" x1="244.2" y1="277.3" x2="272.2" y2="277.3"/>
	<line class="st8" x1="244.2" y1="247.3" x2="272.2" y2="247.3"/>
	<line class="st8" x1="244.2" y1="307.3" x2="272.2" y2="307.3"/>
	<polyline class="st6" points="272,336.3 274.6,341 272,341 	"/>
	<path class="st0" d="M130.6,191.5V178c0,0,16.5-25.4,28.9-25v38.5H130.6L130.6,191.5z"/>
	<path class="st13" d="M143.5,191.5V178c0,0,8.8-25.3,15.5-25v38.5H143.5z"/>
	<path class="st14" d="M147.6,191.5V178c0,0,6.8-25.4,11.9-25v38.5H147.6L147.6,191.5z"/>
	<line class="st15" x1="137.2" y1="194.4" x2="137.2" y2="188.9"/>
	<line class="st15" x1="153.5" y1="194.4" x2="153.5" y2="188.9"/>
	<line class="st16" x1="156.9" y1="174.4" x2="172.5" y2="174.4"/>
	<line class="st17" x1="156.9" y1="174.4" x2="169.3" y2="174.4"/>
	<line class="st18" x1="156.9" y1="174.4" x2="165.3" y2="174.4"/>
	<line class="st19" x1="157.2" y1="174.4" x2="163.5" y2="174.4"/>
	<path class="st0" d="M272.2,191.7v-13.5c0,0-16-25.4-28-25v38.5H272.2L272.2,191.7z"/>
	<path class="st13" d="M259.8,191.7v-13.5c0,0-8.6-25.3-15-25v38.5H259.8z"/>
	<path class="st14" d="M255.8,191.7v-13.5c0,0-6.6-25.4-11.6-25v38.5H255.8L255.8,191.7z"/>
	<line class="st15" x1="265.8" y1="194.5" x2="265.8" y2="189.1"/>
	<line class="st15" x1="250" y1="194.5" x2="250" y2="189.1"/>
	<line class="st16" x1="246.7" y1="174.5" x2="231.7" y2="174.5"/>
	<line class="st17" x1="246.7" y1="174.5" x2="234.7" y2="174.5"/>
	<line class="st18" x1="246.7" y1="174.5" x2="238.6" y2="174.5"/>
	<line class="st19" x1="246.5" y1="174.5" x2="240.4" y2="174.5"/>
	<path class="st4" d="M170.9,233.7c0-1,0-2,0-2.9c0-23,0-46,0-69c20.8,0,41.5,0,62.3,0v116.7c0,25.5-5.3,30.5-13.7,38.2
		c-11.4,0-22.8,0-34.2,0c-2.6-1.9-4.8-4-6.6-6.5c-8.6-11.6-8.3-25-7.8-29.9"/>
	<path class="st20" d="M194.2,161.7c13,0,26,0,39,0v116.7c0,25.5-5.3,30.5-13.7,38.2c-7.2,0-14.4,0-21.5,0"/>
	<path class="st21" d="M215.8,159.3c5.8,0,11.6,0,17.5,0v118.5c0,25.9-5.3,31-13.7,38.8c-3.2,0-6.4,0-9.6,0"/>
	<path class="st22" d="M204.3,159.3c9.4,0,18.8,0,28.2,0v118.5c0,25.9-5.3,31-13.7,38.8c-4.8,0-9.6,0-14.5,0"/>
	<path class="st21" d="M224.5,159.3c2.9,0,5.9,0,8.8,0v118.5c0,25.9-5.3,31-13.7,38.8c-1.4,0-2.8,0-4.2,0"/>
	<path class="st20" d="M177.1,208.8c3.6,0,7.2,0,10.9,0"/>
	<polygon class="st0" points="212.6,338.4 210.1,330.4 197.2,330.4 195.4,338.4 	"/>
	<polyline class="st23" points="201.5,338.4 212.6,338.4 210.1,330.4 201.4,330.4 	"/>
	<polyline class="st24" points="206.8,338.4 212.6,338.4 210.1,330.4 206.2,330.4 	"/>
	<polygon class="st4" points="215.8,331.4 212,323.4 192.9,323.4 190.1,331.4 	"/>
	<polyline class="st25" points="199.1,331.4 215.8,331.4 212,323.4 198.6,323.4 	"/>
	<polygon class="st0" points="185.2,316.6 190.2,324.6 215.7,324.6 219.5,316.6 	"/>
	<polyline class="st3" points="197,324.6 215.7,324.6 219.5,316.6 196.8,316.6 	"/>
	<polyline class="st26" points="205.7,331.4 215.8,331.4 212,323.4 204.6,323.4 	"/>
	<polyline class="st27" points="204.5,324.6 215.4,324.6 219.1,316.6 204,316.6 	"/>
	<polyline class="st28" points="212.7,324.6 215.7,324.6 219.5,316.6 212.7,316.6 	"/>
	<path class="st3" d="M171.9,291.4l60.7-0.6c0.1-1.3,0.2-2.5,0.3-3.8c-20.5,0.2-41,0.3-61.5,0.5"/>
	<circle class="st3" cx="203" cy="210.2" r="9.6"/>
	<circle class="st29" cx="200.8" cy="207.2" r="3"/>
	<rect x="170.9" y="161.7" class="st3" width="62.3" height="21.2"/>
	<rect x="170.9" y="164.4" class="st1" width="62.3" height="13.7"/>
	<rect x="170.9" y="173.9" class="st28" width="62.3" height="9.2"/>
	<path class="st30" d="M170,231.9c5.7,2.7,17.1,7.2,32.2,7.2c14.8,0,26.1-4.3,31.8-6.9"/>
	<rect x="169.2" y="230.1" class="st31" width="1.6" height="3.6"/>
	<rect x="233.2" y="230.4" class="st32" width="1.6" height="3.6"/>
	<polyline class="st33" points="170.9,159.2 184.6,120.7 220.2,120.7 233.2,159.2 	"/>
	<path class="st34" d="M195.8,66.5c2-3.4,4-6.8,6-10.1c0.2-3.4,0.3-6.7,0.5-10.1c1.1-21.2,2.2-20,3.4,0v9.9c1.7,3.5,3.3,7,5,10.4"/>
	<rect x="184.2" y="160.5" class="st33" width="3.7" height="38.8"/>
	<rect x="218.4" y="161.7" class="st33" width="3.7" height="38.8"/>
	<polyline class="st35" points="192.6,120.7 219.5,120.7 232.6,160.5 	"/>
	<polyline class="st36" points="204.5,120.7 220.9,120.7 228.9,147.5 	"/>
	<rect x="170.9" y="159.3" class="st4" width="62.3" height="2.5"/>
	<polyline class="st4" points="184.6,120.7 192.6,80.9 213.4,80.9 221,120.7 	"/>
	<polyline class="st37" points="198.9,80.9 213.4,80.9 221,120.7 	"/>
	<polyline class="st5" points="206.8,80.9 213.4,80.9 221,120.7 	"/>
	<polyline class="st38" points="209.7,80.9 213.4,80.9 221,120.7 	"/>
	<path class="st0" d="M188.4,101.9c0.1-0.5,0.2-1,0.3-1.5c9.5,0,19,0,28.5,0c0.1,0.5,0.2,1,0.3,1.5
		C207.7,101.9,198,101.9,188.4,101.9z"/>
	<circle class="st3" cx="202.8" cy="90.7" r="6.7"/>
	<circle class="st29" cx="200.8" cy="87.7" r="1.5"/>
	<path class="st33" d="M192.6,80.9c0.3-1.5,0.7-2.9,1-4.3c6.3,0,12.7,0,19,0l0.8,4.3H192.6z"/>
	<path class="st4" d="M195,65.9c5.5,0,11,0,16.5,0c0.3,3.6,0.7,7.1,1,10.7h-19C194.1,73.1,194.5,69.5,195,65.9z"/>
	<path class="st39" d="M200.4,65.9c3.7,0,7.4,0,11.1,0c0.3,3.6,0.7,7.1,1,10.7h-12.8"/>
	<path class="st5" d="M205,65.9c2.2,0,4.3,0,6.5,0c0.3,3.6,0.7,7.1,1,10.7h-7.2"/>
	<path class="st39" d="M202.1,68c1.5,0,3.1,0,4.6,0"/>
	<path class="st5" d="M205.4,76.6"/>
	<path class="st40" d="M208.3,65.9c1.1,0,2.1,0,3.2,0c0.3,3.6,0.7,7.1,1,10.7h-3.6"/>
	<path class="st5" d="M205,65.9c1.1,0,2.2,0,3.3,0"/>
	<line class="st12" x1="84.9" y1="150.2" x2="84.9" y2="142.8"/>
	<circle class="st41" cx="84.9" cy="142.7" r="1.4"/>
	<circle class="st42" cx="84.9" cy="141.9" r="7.1"/>
	<circle class="st43" cx="84.9" cy="141.9" r="5"/>
	<circle class="st44" cx="85.2" cy="141.9" r="9"/>
</g>
<rect x="183" y="247.2" class="st34" width="9.8" height="31.1"/>
<rect x="215.3" y="246.9" class="st34" width="9.8" height="31.1"/>
<rect x="199.2" y="249.1" class="st45" width="9.8" height="20.7"/>
<line class="st46" x1="170.9" y1="223.2" x2="174" y2="223.2"/>
<line class="st46" x1="177.1" y1="223.2" x2="180.2" y2="223.2"/>
<line class="st46" x1="183.3" y1="223.2" x2="186.4" y2="223.2"/>
<line class="st46" x1="189.5" y1="223.2" x2="192.6" y2="223.2"/>
<line class="st46" x1="195.8" y1="223.2" x2="198.9" y2="223.2"/>
<line class="st46" x1="202" y1="223.2" x2="205.1" y2="223.2"/>
<line class="st46" x1="208.2" y1="223.2" x2="211.3" y2="223.2"/>
<line class="st46" x1="214.5" y1="223.2" x2="217.6" y2="223.2"/>
<line class="st46" x1="220.7" y1="223.2" x2="223.8" y2="223.2"/>
<line class="st46" x1="227" y1="223.2" x2="230.1" y2="223.2"/>
<line class="st46" x1="232.4" y1="223.2" x2="233.2" y2="223.2"/>
<rect x="71.8" y="152" class="st11" width="25.5" height="3.5"/>
<line class="st12" x1="204.1" y1="32.4" x2="204.1" y2="25"/>
<circle class="st41" cx="204.1" cy="24.9" r="1.4"/>
<circle class="st42" cx="204.1" cy="24.1" r="7.1"/>
<circle class="st43" cx="204.1" cy="24.1" r="5"/>
<circle class="st44" cx="204.4" cy="24.1" r="9"/>
</svg>
