<?xml version="1.0" encoding="utf-8"?>
<!-- Generator: Adobe Illustrator 26.3.1, SVG Export Plug-In . SVG Version: 6.00 Build 0)  -->
<svg version="1.1" id="Layer_1" xmlns="http://www.w3.org/2000/svg" xmlns:xlink="http://www.w3.org/1999/xlink" x="0px" y="0px"
	 viewBox="0 0 1000 1000" style="enable-background:new 0 0 1000 1000;" xml:space="preserve">
<style type="text/css">
	.st0{fill:#B3B3B3;}
	.st1{fill:#FFFFFF;}
	.st2{fill:none;stroke:#000000;stroke-width:3;stroke-miterlimit:10;}
	.st3{fill:none;stroke:#000000;stroke-width:5;stroke-miterlimit:10;}
	.st4{fill:none;stroke:#999999;stroke-width:5;stroke-miterlimit:10;}
	.st5{fill:none;stroke:#999999;stroke-width:2;stroke-miterlimit:10;}
	.st6{fill:none;stroke:#000000;stroke-width:6;stroke-miterlimit:10;}
	.st7{fill:none;stroke:#999999;stroke-width:3;stroke-miterlimit:10;}
	.st8{fill:none;stroke:#000000;stroke-width:8;stroke-miterlimit:10;}
	.st9{fill:none;stroke:#808080;stroke-width:5;stroke-miterlimit:10;}
</style>
<g>
	<path class="st0" d="M778.2,682.2H233.9c-19.9,0-35.9-16-35.9-35.9V427.2c0-19.9,16-35.9,35.9-35.9h544.2c19.9,0,35.9,16,35.9,35.9
		v219.1C814.1,666.1,798,682.2,778.2,682.2z"/>
</g>
<g>
	<path class="st1" d="M212.4,651.5c-18.5,0-33.6-15-33.6-33.6v-219c0-18.5,15-33.6,33.6-33.6h544.2c18.5,0,33.6,15,33.6,33.6V618
		c0,18.5-15,33.6-33.6,33.6L212.4,651.5L212.4,651.5z"/>
	<path d="M756.6,367.7c17.2,0,31.2,14,31.2,31.2V618c0,17.2-14,31.2-31.2,31.2H212.4c-17.2,0-31.2-14-31.2-31.2V398.9
		c0-17.2,14-31.2,31.2-31.2H756.6 M756.6,363H212.4c-19.9,0-35.9,16-35.9,35.9V618c0,19.9,16,35.9,35.9,35.9h544.2
		c19.9,0,35.9-16,35.9-35.9V398.9C792.5,379,776.5,363,756.6,363L756.6,363z"/>
</g>
<line class="st2" x1="176.5" y1="409.3" x2="792.5" y2="409.3"/>
<line class="st3" x1="216" y1="387.7" x2="328.1" y2="387.7"/>
<line class="st4" x1="420.6" y1="387.7" x2="461.4" y2="387.7"/>
<line class="st4" x1="478.5" y1="387.7" x2="560.1" y2="387.7"/>
<line class="st4" x1="574.6" y1="387.7" x2="616.2" y2="387.7"/>
<line class="st4" x1="633.8" y1="387.7" x2="691.1" y2="387.7"/>
<circle class="st5" cx="737.4" cy="387.7" r="12.8"/>
<line class="st6" x1="250.4" y1="258.5" x2="372.6" y2="392.3"/>
<line class="st3" x1="166.6" y1="206.9" x2="216" y2="206.9"/>
<line class="st3" x1="226.3" y1="206.9" x2="296.2" y2="206.9"/>
<line class="st7" x1="166.6" y1="220.7" x2="226.3" y2="220.7"/>
<line class="st7" x1="236.7" y1="220.7" x2="328.1" y2="220.7"/>
<line class="st7" x1="336.6" y1="220.7" x2="372.6" y2="220.7"/>
<line class="st7" x1="166.6" y1="229.1" x2="266.4" y2="229.1"/>
<line class="st7" x1="272" y1="229.1" x2="372.6" y2="229.1"/>
<line class="st7" x1="166.6" y1="235.6" x2="240.2" y2="235.6"/>
<line class="st7" x1="247.3" y1="235.6" x2="341.9" y2="235.6"/>
<line class="st8" x1="406.4" y1="432.8" x2="574.6" y2="432.8"/>
<line class="st9" x1="372.6" y1="450.8" x2="484.5" y2="450.8"/>
<line class="st9" x1="491.5" y1="450.8" x2="527.8" y2="450.8"/>
<line class="st9" x1="537" y1="450.8" x2="608.6" y2="450.8"/>
<line class="st9" x1="385.2" y1="459.5" x2="484.5" y2="459.5"/>
<line class="st9" x1="491.5" y1="459.5" x2="551.9" y2="459.5"/>
<line class="st9" x1="557.4" y1="459.5" x2="581.3" y2="459.5"/>
<line class="st9" x1="382" y1="467.3" x2="424.7" y2="467.3"/>
<line class="st9" x1="434.9" y1="467.3" x2="513.8" y2="467.3"/>
<line class="st9" x1="521.7" y1="467.3" x2="585" y2="467.3"/>
<line class="st9" x1="372.6" y1="474.1" x2="419" y2="474.1"/>
<line class="st9" x1="428.6" y1="474.1" x2="557.4" y2="474.1"/>
<line class="st9" x1="563.9" y1="474.1" x2="608.6" y2="474.1"/>
<line class="st9" x1="372.6" y1="481.7" x2="478.5" y2="481.7"/>
<line class="st9" x1="484.5" y1="481.7" x2="537" y2="481.7"/>
<line class="st9" x1="545.6" y1="481.7" x2="601.7" y2="481.7"/>
<line class="st9" x1="359.3" y1="490.4" x2="419" y2="490.4"/>
<line class="st9" x1="428.6" y1="490.4" x2="513.8" y2="490.4"/>
<line class="st9" x1="527.8" y1="490.4" x2="616.2" y2="490.4"/>
<line class="st6" x1="585" y1="432.8" x2="628.3" y2="283.9"/>
<line class="st3" x1="581.3" y1="220.7" x2="658.2" y2="220.7"/>
<line class="st3" x1="672.6" y1="220.7" x2="759" y2="220.7"/>
<line class="st7" x1="582.3" y1="231.9" x2="674.3" y2="231.9"/>
<line class="st7" x1="683.8" y1="231.9" x2="750.2" y2="231.9"/>
<line class="st7" x1="756.1" y1="231.9" x2="809.3" y2="231.9"/>
<line class="st7" x1="582.3" y1="240.7" x2="662.5" y2="240.7"/>
<line class="st7" x1="668" y1="240.7" x2="715.8" y2="240.7"/>
<line class="st7" x1="724.7" y1="240.7" x2="786.5" y2="240.7"/>
<line class="st7" x1="582.3" y1="248.9" x2="664.4" y2="248.9"/>
<line class="st7" x1="672.6" y1="248.9" x2="742.7" y2="248.9"/>
<g>
	<path class="st0" d="M340.1,633.4h-42c-12.1,0-21.8-9.8-21.8-21.8v-83c0-12.1,9.8-21.8,21.8-21.8h42c12.1,0,21.8,9.8,21.8,21.8
		v82.9C361.9,623.6,352.1,633.4,340.1,633.4z"/>
</g>
<g>
	<path class="st1" d="M289.7,627c-11.2,0-20.3-9.1-20.3-20.3v-83c0-11.2,9.1-20.3,20.3-20.3h42c11.2,0,20.3,9.1,20.3,20.3v82.9
		c0,11.2-9.1,20.3-20.3,20.3L289.7,627L289.7,627z"/>
	<path d="M331.7,505.1c10.4,0,18.7,8.4,18.7,18.7v82.9c0,10.4-8.4,18.7-18.7,18.7h-42c-10.4,0-18.7-8.4-18.7-18.7v-82.9
		c0-10.4,8.4-18.7,18.7-18.7H331.7 M331.7,501.9h-42c-12.1,0-21.8,9.8-21.8,21.8v82.9c0,12.1,9.8,21.8,21.8,21.8h42
		c12.1,0,21.8-9.8,21.8-21.8v-82.9C353.5,511.7,343.8,501.9,331.7,501.9L331.7,501.9z"/>
</g>
<g>
	<path class="st0" d="M460.1,633.4h-42c-12.1,0-21.8-9.8-21.8-21.8v-83c0-12.1,9.8-21.8,21.8-21.8h42c12.1,0,21.8,9.8,21.8,21.8
		v82.9C481.9,623.6,472.1,633.4,460.1,633.4z"/>
</g>
<g>
	<path class="st1" d="M409.7,627c-11.2,0-20.3-9.1-20.3-20.3v-83c0-11.2,9.1-20.3,20.3-20.3h42c11.2,0,20.3,9.1,20.3,20.3v82.9
		c0,11.2-9.1,20.3-20.3,20.3L409.7,627L409.7,627z"/>
	<path d="M451.7,505.1c10.4,0,18.7,8.4,18.7,18.7v82.9c0,10.4-8.4,18.7-18.7,18.7h-42c-10.4,0-18.7-8.4-18.7-18.7v-82.9
		c0-10.4,8.4-18.7,18.7-18.7H451.7 M451.7,501.9h-42c-12.1,0-21.8,9.8-21.8,21.8v82.9c0,12.1,9.8,21.8,21.8,21.8h42
		c12.1,0,21.8-9.8,21.8-21.8v-82.9C473.5,511.7,463.7,501.9,451.7,501.9L451.7,501.9z"/>
</g>
<g>
	<path class="st0" d="M577.1,633.4h-42c-12.1,0-21.8-9.8-21.8-21.8v-83c0-12.1,9.8-21.8,21.8-21.8h42c12.1,0,21.8,9.8,21.8,21.8
		v82.9C598.9,623.6,589.2,633.4,577.1,633.4z"/>
</g>
<g>
	<path class="st1" d="M526.7,627c-11.2,0-20.3-9.1-20.3-20.3v-83c0-11.2,9.1-20.3,20.3-20.3h42c11.2,0,20.3,9.1,20.3,20.3v82.9
		c0,11.2-9.1,20.3-20.3,20.3L526.7,627L526.7,627z"/>
	<path d="M568.7,505.1c10.4,0,18.7,8.4,18.7,18.7v82.9c0,10.4-8.4,18.7-18.7,18.7h-42c-10.4,0-18.7-8.4-18.7-18.7v-82.9
		c0-10.4,8.4-18.7,18.7-18.7H568.7 M568.7,501.9h-42c-12.1,0-21.8,9.8-21.8,21.8v82.9c0,12.1,9.8,21.8,21.8,21.8h42
		c12.1,0,21.8-9.8,21.8-21.8v-82.9C590.5,511.7,580.8,501.9,568.7,501.9L568.7,501.9z"/>
</g>
<g>
	<path class="st0" d="M687.7,633.4h-42c-12.1,0-21.8-9.8-21.8-21.8v-83c0-12.1,9.8-21.8,21.8-21.8h42c12.1,0,21.8,9.8,21.8,21.8
		v82.9C709.5,623.6,699.7,633.4,687.7,633.4z"/>
</g>
<g>
	<path class="st1" d="M637.3,627c-11.2,0-20.3-9.1-20.3-20.3v-83c0-11.2,9.1-20.3,20.3-20.3h42c11.2,0,20.3,9.1,20.3,20.3v82.9
		c0,11.2-9.1,20.3-20.3,20.3L637.3,627L637.3,627z"/>
	<path d="M679.3,505.1c10.4,0,18.7,8.4,18.7,18.7v82.9c0,10.4-8.4,18.7-18.7,18.7h-42c-10.4,0-18.7-8.4-18.7-18.7v-82.9
		c0-10.4,8.4-18.7,18.7-18.7H679.3 M679.3,501.9h-42c-12.1,0-21.8,9.8-21.8,21.8v82.9c0,12.1,9.8,21.8,21.8,21.8h42
		c12.1,0,21.8-9.8,21.8-21.8v-82.9C701.1,511.7,691.3,501.9,679.3,501.9L679.3,501.9z"/>
</g>
<line class="st6" x1="216" y1="752.1" x2="484.5" y2="633.4"/>
<line class="st3" x1="191.3" y1="765.6" x2="296.2" y2="765.6"/>
<line class="st3" x1="311.5" y1="765.6" x2="396.3" y2="765.6"/>
<line class="st7" x1="191.3" y1="784.4" x2="319.1" y2="784.4"/>
<line class="st7" x1="332.9" y1="784.4" x2="493" y2="784.4"/>
<line class="st7" x1="191.3" y1="795.6" x2="339.6" y2="795.6"/>
<line class="st7" x1="350.2" y1="795.6" x2="500.7" y2="795.6"/>
<line class="st7" x1="191.3" y1="806.7" x2="339.6" y2="806.7"/>
<line class="st7" x1="350.2" y1="806.7" x2="403.3" y2="806.7"/>
<line class="st7" x1="412.9" y1="806.7" x2="467.1" y2="806.7"/>
<line class="st7" x1="191.3" y1="814.2" x2="267.8" y2="814.2"/>
<line class="st7" x1="276.2" y1="814.2" x2="335.8" y2="814.2"/>
<line class="st7" x1="345.5" y1="814.2" x2="389.1" y2="814.2"/>
<line class="st7" x1="400" y1="814.2" x2="452.3" y2="814.2"/>
</svg>
