<?xml version="1.0" encoding="utf-8"?>
<!-- Generator: Adobe Illustrator 26.3.1, SVG Export Plug-In . SVG Version: 6.00 Build 0)  -->
<svg version="1.1" id="Layer_1" xmlns="http://www.w3.org/2000/svg" xmlns:xlink="http://www.w3.org/1999/xlink" x="0px" y="0px"
	 viewBox="0 0 1000 1000" style="enable-background:new 0 0 1000 1000;" xml:space="preserve">
<style type="text/css">
	.st0{fill:#B3B3B3;}
	.st1{fill:#FFFFFF;stroke:#000000;stroke-width:8;stroke-miterlimit:10;}
	.st2{fill:#FFFFFF;}
	.st3{fill:none;stroke:#000000;stroke-width:3;stroke-miterlimit:10;}
	.st4{fill:none;stroke:#000000;stroke-width:5;stroke-miterlimit:10;}
	.st5{fill:none;stroke:#999999;stroke-width:5;stroke-miterlimit:10;}
	.st6{fill:none;stroke:#999999;stroke-width:2;stroke-miterlimit:10;}
	.st7{fill:none;stroke:#000000;stroke-width:8;stroke-miterlimit:10;}
	.st8{fill:none;stroke:#808080;stroke-width:5;stroke-miterlimit:10;}
</style>
<path class="st0" d="M225.6,828.3c0,0,1-132.1,48.8-132.1s47.8,132.1,47.8,132.1"/>
<circle class="st0" cx="278.5" cy="670.1" r="47.2"/>
<path class="st1" d="M312.8,816.5c0,0,0-132.1-47.8-132.1s-48.8,132.1-48.8,132.1H312.8z"/>
<circle class="st1" cx="269.2" cy="658.2" r="47.2"/>
<path class="st0" d="M273,849.5c0,0,0.9-120.5,44.5-120.5S361,849.5,361,849.5"/>
<circle class="st0" cx="326.4" cy="705.2" r="43.1"/>
<path class="st1" d="M352.6,838.7c0,0,0-120.5-43.6-120.5s-44.5,120.5-44.5,120.5H352.6z"/>
<circle class="st1" cx="317.9" cy="694.4" r="43.1"/>
<path class="st0" d="M390.5,854c0,0,1-135,49.8-135s48.8,135,48.8,135"/>
<circle class="st0" cx="444" cy="696.5" r="48.3"/>
<path class="st1" d="M479.6,841.9c0,0,0-135-48.8-135s-49.8,135-49.8,135H479.6z"/>
<circle class="st1" cx="434.4" cy="684.4" r="48.3"/>
<g>
	<path class="st0" d="M762.6,571h-519c-18.9,0-34.2-15.3-34.2-34.2V327.8c0-18.9,15.3-34.2,34.2-34.2h518.9
		c18.9,0,34.2,15.3,34.2,34.2v208.9C796.8,555.7,781.5,571,762.6,571z"/>
</g>
<g>
	<path class="st2" d="M223.1,541.7c-17.7,0-32-14.3-32-32V300.8c0-17.7,14.3-32,32-32H742c17.7,0,32,14.3,32,32v208.9
		c0,17.7-14.3,32-32,32L223.1,541.7L223.1,541.7z"/>
	<path d="M742,271c16.4,0,29.8,13.4,29.8,29.8v208.9c0,16.4-13.4,29.8-29.8,29.8H223.1c-16.4,0-29.8-13.4-29.8-29.8V300.8
		c0-16.4,13.4-29.8,29.8-29.8H742 M742,266.6H223.1c-18.9,0-34.2,15.3-34.2,34.2v208.9c0,18.9,15.3,34.2,34.2,34.2H742
		c18.9,0,34.2-15.3,34.2-34.2V300.8C776.3,281.9,761,266.6,742,266.6L742,266.6z"/>
</g>
<line class="st3" x1="188.9" y1="310.8" x2="776.3" y2="310.8"/>
<line class="st4" x1="226.5" y1="290.1" x2="333.4" y2="290.1"/>
<line class="st5" x1="421.6" y1="290.1" x2="460.5" y2="290.1"/>
<line class="st5" x1="476.8" y1="290.1" x2="554.7" y2="290.1"/>
<line class="st5" x1="568.5" y1="290.1" x2="608.1" y2="290.1"/>
<line class="st5" x1="625" y1="290.1" x2="679.6" y2="290.1"/>
<circle class="st6" cx="723.8" cy="290.1" r="12.2"/>
<line class="st7" x1="408" y1="333.1" x2="568.5" y2="333.1"/>
<line class="st8" x1="375.8" y1="350.3" x2="482.6" y2="350.3"/>
<line class="st8" x1="489.3" y1="350.3" x2="523.8" y2="350.3"/>
<line class="st8" x1="532.6" y1="350.3" x2="600.9" y2="350.3"/>
<line class="st8" x1="387.9" y1="358.6" x2="482.6" y2="358.6"/>
<line class="st8" x1="489.3" y1="358.6" x2="546.8" y2="358.6"/>
<line class="st8" x1="552.1" y1="358.6" x2="574.8" y2="358.6"/>
<line class="st8" x1="384.8" y1="366.1" x2="425.5" y2="366.1"/>
<line class="st8" x1="435.2" y1="366.1" x2="510.5" y2="366.1"/>
<line class="st8" x1="518.1" y1="366.1" x2="578.4" y2="366.1"/>
<line class="st8" x1="375.8" y1="372.6" x2="420" y2="372.6"/>
<line class="st8" x1="429.2" y1="372.6" x2="552.1" y2="372.6"/>
<line class="st8" x1="558.2" y1="372.6" x2="600.9" y2="372.6"/>
<line class="st8" x1="375.8" y1="379.8" x2="476.8" y2="379.8"/>
<line class="st8" x1="482.6" y1="379.8" x2="532.6" y2="379.8"/>
<line class="st8" x1="540.8" y1="379.8" x2="594.3" y2="379.8"/>
<line class="st8" x1="363.1" y1="388.1" x2="420" y2="388.1"/>
<line class="st8" x1="429.2" y1="388.1" x2="510.5" y2="388.1"/>
<line class="st8" x1="523.8" y1="388.1" x2="608.1" y2="388.1"/>
<g>
	<path class="st0" d="M344.8,524.5h-40c-11.5,0-20.8-9.4-20.8-20.8v-79.1c0-11.5,9.4-20.8,20.8-20.8h40c11.5,0,20.8,9.4,20.8,20.8
		v79C365.7,515.1,356.3,524.5,344.8,524.5z"/>
</g>
<g>
	<path class="st2" d="M296.7,518.3c-10.7,0-19.3-8.7-19.3-19.3v-79.1c0-10.7,8.7-19.3,19.3-19.3h40.1c10.7,0,19.3,8.7,19.3,19.3v79
		c0,10.7-8.7,19.3-19.3,19.3L296.7,518.3L296.7,518.3z"/>
	<path d="M336.8,402.1c9.9,0,17.8,8,17.8,17.8v79c0,9.9-8,17.8-17.8,17.8h-40.1c-9.9,0-17.8-8-17.8-17.8v-79c0-9.9,8-17.8,17.8-17.8
		H336.8 M336.8,399.1h-40.1c-11.5,0-20.8,9.4-20.8,20.8v79c0,11.5,9.4,20.8,20.8,20.8h40.1c11.5,0,20.8-9.4,20.8-20.8v-79
		C357.6,408.4,348.3,399.1,336.8,399.1L336.8,399.1z"/>
</g>
<g>
	<path class="st0" d="M459.2,524.5h-40c-11.5,0-20.8-9.4-20.8-20.8v-79.1c0-11.5,9.4-20.8,20.8-20.8h40c11.5,0,20.8,9.4,20.8,20.8
		v79C480,515.1,470.8,524.5,459.2,524.5z"/>
</g>
<g>
	<path class="st2" d="M411.2,518.3c-10.7,0-19.3-8.7-19.3-19.3v-79.1c0-10.7,8.7-19.3,19.3-19.3h40c10.7,0,19.3,8.7,19.3,19.3v79
		c0,10.7-8.7,19.3-19.3,19.3L411.2,518.3L411.2,518.3z"/>
	<path d="M451.2,402.1c9.9,0,17.8,8,17.8,17.8v79c0,9.9-8,17.8-17.8,17.8h-40c-9.9,0-17.8-8-17.8-17.8v-79c0-9.9,8-17.8,17.8-17.8
		H451.2 M451.2,399.1h-40c-11.5,0-20.8,9.4-20.8,20.8v79c0,11.5,9.4,20.8,20.8,20.8h40c11.5,0,20.8-9.4,20.8-20.8v-79
		C472.1,408.4,462.7,399.1,451.2,399.1L451.2,399.1z"/>
</g>
<g>
	<path class="st0" d="M570.9,524.5h-40c-11.5,0-20.8-9.4-20.8-20.8v-79.1c0-11.5,9.4-20.8,20.8-20.8h40c11.5,0,20.8,9.4,20.8,20.8
		v79C591.7,515.1,582.3,524.5,570.9,524.5z"/>
</g>
<g>
	<path class="st2" d="M522.8,518.3c-10.7,0-19.3-8.7-19.3-19.3v-79.1c0-10.7,8.7-19.3,19.3-19.3h40c10.7,0,19.3,8.7,19.3,19.3v79
		c0,10.7-8.7,19.3-19.3,19.3L522.8,518.3L522.8,518.3z"/>
	<path d="M562.9,402.1c9.9,0,17.8,8,17.8,17.8v79c0,9.9-8,17.8-17.8,17.8h-40c-9.9,0-17.8-8-17.8-17.8v-79c0-9.9,8-17.8,17.8-17.8
		H562.9 M562.9,399.1h-40c-11.5,0-20.8,9.4-20.8,20.8v79c0,11.5,9.4,20.8,20.8,20.8h40c11.5,0,20.8-9.4,20.8-20.8v-79
		C583.7,408.4,574.4,399.1,562.9,399.1L562.9,399.1z"/>
</g>
<g>
	<path class="st0" d="M676.3,524.5h-40c-11.5,0-20.8-9.4-20.8-20.8v-79.1c0-11.5,9.4-20.8,20.8-20.8h40c11.5,0,20.8,9.4,20.8,20.8
		v79C697.1,515.1,687.8,524.5,676.3,524.5z"/>
</g>
<g>
	<path class="st2" d="M628.2,518.3c-10.7,0-19.3-8.7-19.3-19.3v-79.1c0-10.7,8.7-19.3,19.3-19.3h40c10.7,0,19.3,8.7,19.3,19.3v79
		c0,10.7-8.7,19.3-19.3,19.3L628.2,518.3L628.2,518.3z"/>
	<path d="M668.3,402.1c9.9,0,17.8,8,17.8,17.8v79c0,9.9-8,17.8-17.8,17.8h-40c-9.9,0-17.8-8-17.8-17.8v-79c0-9.9,8-17.8,17.8-17.8
		H668.3 M668.3,399.1h-40c-11.5,0-20.8,9.4-20.8,20.8v79c0,11.5,9.4,20.8,20.8,20.8h40c11.5,0,20.8-9.4,20.8-20.8v-79
		C689.1,408.4,679.8,399.1,668.3,399.1L668.3,399.1z"/>
</g>
<path class="st0" d="M607.2,809.3c0,0,1-123.1,45.5-123.1s44.5,123.1,44.5,123.1"/>
<circle class="st0" cx="639.5" cy="663.2" r="44"/>
<path class="st1" d="M688.5,798.2c0,0,0-123.1-44.5-123.1c-44.5,0-45.5,123.1-45.5,123.1H688.5z"/>
<circle class="st1" cx="630.8" cy="652.2" r="44"/>
<path class="st0" d="M764.2,775.4c0,0,1-123.1,45.5-123.1s44.5,123.1,44.5,123.1"/>
<circle class="st0" cx="792.2" cy="629.9" r="44"/>
<path class="st1" d="M845.5,764.3c0,0,0-123.1-44.5-123.1s-45.5,123.1-45.5,123.1H845.5z"/>
<circle class="st1" cx="783.5" cy="618.8" r="44"/>
</svg>
