<?xml version="1.0" encoding="utf-8"?>
<!-- Generator: Adobe Illustrator 26.3.1, SVG Export Plug-In . SVG Version: 6.00 Build 0)  -->
<svg version="1.1" id="Layer_1" xmlns="http://www.w3.org/2000/svg" xmlns:xlink="http://www.w3.org/1999/xlink" x="0px" y="0px"
	 viewBox="0 0 1000 1000" style="enable-background:new 0 0 1000 1000;" xml:space="preserve">
<style type="text/css">
	.st0{fill:#B3B3B3;}
	.st1{fill:#FFFFFF;stroke:#000000;stroke-width:8;stroke-miterlimit:10;}
	.st2{fill:#FFFFFF;}
	.st3{fill:#B3B3B3;stroke:#000000;stroke-width:3;stroke-miterlimit:10;}
	.st4{stroke:#000000;stroke-width:5;stroke-miterlimit:10;}
	.st5{fill:#808080;stroke:#999999;stroke-width:5;stroke-miterlimit:10;}
	.st6{fill:none;stroke:#999999;stroke-width:2;stroke-miterlimit:10;}
	.st7{stroke:#000000;stroke-width:8;stroke-miterlimit:10;}
	.st8{fill:#808080;stroke:#808080;stroke-width:5;stroke-miterlimit:10;}
</style>
<path class="st0" d="M145.2,934.4c0,0,1.4-177.9,65.7-177.9s64.3,177.9,64.3,177.9"/>
<circle class="st0" cx="216.5" cy="721.4" r="63.6"/>
<path class="st1" d="M262.7,918.5c0,0,0-177.9-64.3-177.9s-65.7,177.9-65.7,177.9H262.7z"/>
<circle class="st1" cx="203.9" cy="705.4" r="63.6"/>
<path class="st0" d="M209.1,963c0,0,1.2-162.2,59.9-162.2S327.6,963,327.6,963"/>
<circle class="st0" cx="280.9" cy="768.7" r="58"/>
<path class="st1" d="M316.2,948.4c0,0,0-162.2-58.7-162.2s-59.9,162.2-59.9,162.2H316.2z"/>
<circle class="st1" cx="269.5" cy="754.1" r="58"/>
<path class="st0" d="M367.2,969c0,0,1.4-181.7,67.1-181.7S500,969,500,969"/>
<circle class="st0" cx="439.3" cy="757" r="65"/>
<path class="st1" d="M487.2,952.7c0,0,0-181.7-65.7-181.7s-67.1,181.7-67.1,181.7H487.2z"/>
<circle class="st1" cx="426.4" cy="740.7" r="65"/>
<g>
	<path class="st0" d="M868.2,588H169.5c-25.5,0-46.1-20.6-46.1-46.1V260.6c0-25.5,20.6-46.1,46.1-46.1h698.6
		c25.5,0,46.1,20.6,46.1,46.1v281.3C914.3,567.4,893.6,588,868.2,588z"/>
</g>
<g>
	<path class="st2" d="M141.9,548.6c-23.8,0-43.1-19.3-43.1-43.1V224.3c0-23.8,19.3-43.1,43.1-43.1h698.6c23.8,0,43.1,19.3,43.1,43.1
		v281.3c0,23.8-19.3,43.1-43.1,43.1H141.9z"/>
	<path d="M840.5,184.2c22.1,0,40.1,18,40.1,40.1v281.3c0,22.1-18,40.1-40.1,40.1H141.9c-22.1,0-40.1-18-40.1-40.1V224.3
		c0-22.1,18-40.1,40.1-40.1H840.5 M840.5,178.2H141.9c-25.5,0-46.1,20.6-46.1,46.1v281.3c0,25.5,20.6,46.1,46.1,46.1h698.6
		c25.5,0,46.1-20.6,46.1-46.1V224.3C886.6,198.8,866,178.2,840.5,178.2L840.5,178.2z"/>
</g>
<line class="st3" x1="95.8" y1="237.7" x2="886.6" y2="237.7"/>
<line class="st4" x1="146.4" y1="209.9" x2="290.4" y2="209.9"/>
<line class="st5" x1="409.1" y1="209.9" x2="461.5" y2="209.9"/>
<line class="st5" x1="483.5" y1="209.9" x2="588.3" y2="209.9"/>
<line class="st5" x1="606.9" y1="209.9" x2="660.2" y2="209.9"/>
<line class="st5" x1="682.9" y1="209.9" x2="756.4" y2="209.9"/>
<circle class="st6" cx="815.9" cy="209.9" r="16.4"/>
<line class="st7" x1="390.8" y1="267.8" x2="606.9" y2="267.8"/>
<line class="st8" x1="347.5" y1="290.9" x2="491.2" y2="290.9"/>
<line class="st8" x1="500.2" y1="290.9" x2="546.7" y2="290.9"/>
<line class="st8" x1="558.6" y1="290.9" x2="650.5" y2="290.9"/>
<line class="st8" x1="363.7" y1="302.1" x2="491.2" y2="302.1"/>
<line class="st8" x1="500.2" y1="302.1" x2="577.7" y2="302.1"/>
<line class="st8" x1="584.8" y1="302.1" x2="615.4" y2="302.1"/>
<line class="st8" x1="359.6" y1="312.1" x2="414.4" y2="312.1"/>
<line class="st8" x1="427.5" y1="312.1" x2="528.8" y2="312.1"/>
<line class="st8" x1="539" y1="312.1" x2="620.2" y2="312.1"/>
<line class="st8" x1="347.5" y1="320.9" x2="407" y2="320.9"/>
<line class="st8" x1="419.3" y1="320.9" x2="584.8" y2="320.9"/>
<line class="st8" x1="593" y1="320.9" x2="650.5" y2="320.9"/>
<line class="st8" x1="347.5" y1="330.6" x2="483.5" y2="330.6"/>
<line class="st8" x1="491.2" y1="330.6" x2="558.6" y2="330.6"/>
<line class="st8" x1="569.6" y1="330.6" x2="641.6" y2="330.6"/>
<line class="st8" x1="330.3" y1="341.8" x2="407" y2="341.8"/>
<line class="st8" x1="419.3" y1="341.8" x2="528.8" y2="341.8"/>
<line class="st8" x1="546.7" y1="341.8" x2="660.2" y2="341.8"/>
<g>
	<path class="st0" d="M305.7,525.4h-53.9c-15.5,0-28-12.6-28-28V390.9c0-15.5,12.6-28,28-28h53.9c15.5,0,28,12.6,28,28v106.4
		C333.8,512.8,321.2,525.4,305.7,525.4z"/>
</g>
<g>
	<path class="st2" d="M241,517.1c-14.4,0-26-11.7-26-26V384.6c0-14.4,11.7-26,26-26H295c14.4,0,26,11.7,26,26V491
		c0,14.4-11.7,26-26,26H241z"/>
	<path d="M295,360.6c13.3,0,24,10.8,24,24V491c0,13.3-10.8,24-24,24H241c-13.3,0-24-10.8-24-24V384.6c0-13.3,10.8-24,24-24H295
		 M295,356.6H241c-15.5,0-28,12.6-28,28V491c0,15.5,12.6,28,28,28H295c15.5,0,28-12.6,28-28V384.6C323,369.1,310.5,356.6,295,356.6
		L295,356.6z"/>
</g>
<g>
	<path class="st0" d="M459.8,525.4h-53.9c-15.5,0-28-12.6-28-28V390.9c0-15.5,12.6-28,28-28h53.9c15.5,0,28,12.6,28,28v106.4
		C487.8,512.8,475.3,525.4,459.8,525.4z"/>
</g>
<g>
	<path class="st2" d="M395.1,517.1c-14.4,0-26-11.7-26-26V384.6c0-14.4,11.7-26,26-26H449c14.4,0,26,11.7,26,26V491
		c0,14.4-11.7,26-26,26H395.1z"/>
	<path d="M449,360.6c13.3,0,24,10.8,24,24V491c0,13.3-10.8,24-24,24h-53.9c-13.3,0-24-10.8-24-24V384.6c0-13.3,10.8-24,24-24H449
		 M449,356.6h-53.9c-15.5,0-28,12.6-28,28V491c0,15.5,12.6,28,28,28H449c15.5,0,28-12.6,28-28V384.6
		C477.1,369.1,464.5,356.6,449,356.6L449,356.6z"/>
</g>
<g>
	<path class="st0" d="M610.1,525.4h-53.9c-15.5,0-28-12.6-28-28V390.9c0-15.5,12.6-28,28-28h53.9c15.5,0,28,12.6,28,28v106.4
		C638.1,512.8,625.5,525.4,610.1,525.4z"/>
</g>
<g>
	<path class="st2" d="M545.4,517.1c-14.4,0-26-11.7-26-26V384.6c0-14.4,11.7-26,26-26h53.9c14.4,0,26,11.7,26,26V491
		c0,14.4-11.7,26-26,26H545.4z"/>
	<path d="M599.3,360.6c13.3,0,24,10.8,24,24V491c0,13.3-10.8,24-24,24h-53.9c-13.3,0-24-10.8-24-24V384.6c0-13.3,10.8-24,24-24
		H599.3 M599.3,356.6h-53.9c-15.5,0-28,12.6-28,28V491c0,15.5,12.6,28,28,28h53.9c15.5,0,28-12.6,28-28V384.6
		C627.3,369.1,614.8,356.6,599.3,356.6L599.3,356.6z"/>
</g>
<g>
	<path class="st0" d="M752,525.4h-53.9c-15.5,0-28-12.6-28-28V390.9c0-15.5,12.6-28,28-28H752c15.5,0,28,12.6,28,28v106.4
		C780,512.8,767.5,525.4,752,525.4z"/>
</g>
<g>
	<path class="st2" d="M687.3,517.1c-14.4,0-26-11.7-26-26V384.6c0-14.4,11.7-26,26-26h53.9c14.4,0,26,11.7,26,26V491
		c0,14.4-11.7,26-26,26H687.3z"/>
	<path d="M741.2,360.6c13.3,0,24,10.8,24,24V491c0,13.3-10.8,24-24,24h-53.9c-13.3,0-24-10.8-24-24V384.6c0-13.3,10.8-24,24-24
		H741.2 M741.2,356.6h-53.9c-15.5,0-28,12.6-28,28V491c0,15.5,12.6,28,28,28h53.9c15.5,0,28-12.6,28-28V384.6
		C769.3,369.1,756.7,356.6,741.2,356.6L741.2,356.6z"/>
</g>
<path class="st0" d="M659,908.8c0,0,1.3-165.7,61.2-165.7c59.9,0,59.9,165.7,59.9,165.7"/>
<circle class="st0" cx="702.5" cy="712.1" r="59.3"/>
<path class="st1" d="M768.4,893.9c0,0,0-165.7-59.9-165.7s-61.2,165.7-61.2,165.7H768.4z"/>
<circle class="st1" cx="690.8" cy="697.3" r="59.3"/>
<path class="st0" d="M870.3,863.2c0,0,1.3-165.7,61.2-165.7c59.9,0,59.9,165.7,59.9,165.7"/>
<circle class="st0" cx="908" cy="667.3" r="59.3"/>
<path class="st1" d="M979.8,848.3c0,0,0-165.7-59.9-165.7s-61.2,165.7-61.2,165.7H979.8z"/>
<circle class="st1" cx="896.3" cy="652.4" r="59.3"/>
</svg>
