<?xml version="1.0" encoding="utf-8"?>
<!-- Generator: Adobe Illustrator 26.3.1, SVG Export Plug-In . SVG Version: 6.00 Build 0)  -->
<svg version="1.1" id="Layer_1" xmlns="http://www.w3.org/2000/svg" xmlns:xlink="http://www.w3.org/1999/xlink" x="0px" y="0px"
	 viewBox="0 0 1000 1000" style="enable-background:new 0 0 1000 1000;" xml:space="preserve">
<style type="text/css">
	.st0{fill:#B3B3B3;}
	.st1{fill:#FFFFFF;}
	.st2{fill:#B3B3B3;stroke:#000000;stroke-width:3;stroke-miterlimit:10;}
	.st3{stroke:#000000;stroke-width:5;stroke-miterlimit:10;}
	.st4{fill:#808080;stroke:#999999;stroke-width:5;stroke-miterlimit:10;}
	.st5{fill:none;stroke:#999999;stroke-width:2;stroke-miterlimit:10;}
	.st6{fill:#FFFFFF;stroke:#000000;stroke-width:6;stroke-miterlimit:10;}
	.st7{fill:#808080;stroke:#999999;stroke-width:3;stroke-miterlimit:10;}
	.st8{stroke:#000000;stroke-width:8;stroke-miterlimit:10;}
	.st9{fill:#808080;stroke:#808080;stroke-width:5;stroke-miterlimit:10;}
</style>
<g>
	<path class="st0" d="M889.7,723.1H191c-25.5,0-46.1-20.6-46.1-46.1V395.7c0-25.5,20.6-46.1,46.1-46.1h698.6
		c25.5,0,46.1,20.6,46.1,46.1V677C935.8,702.5,915.1,723.1,889.7,723.1z"/>
</g>
<g>
	<path class="st1" d="M163.4,683.7c-23.8,0-43.1-19.3-43.1-43.1V359.4c0-23.8,19.3-43.1,43.1-43.1H862c23.8,0,43.1,19.3,43.1,43.1
		v281.3c0,23.8-19.3,43.1-43.1,43.1H163.4z"/>
	<path d="M862,319.3c22.1,0,40.1,18,40.1,40.1v281.3c0,22.1-18,40.1-40.1,40.1H163.4c-22.1,0-40.1-18-40.1-40.1V359.4
		c0-22.1,18-40.1,40.1-40.1H862 M862,313.3H163.4c-25.5,0-46.1,20.6-46.1,46.1v281.3c0,25.5,20.6,46.1,46.1,46.1H862
		c25.5,0,46.1-20.6,46.1-46.1V359.4C908.1,333.9,887.5,313.3,862,313.3L862,313.3z"/>
</g>
<line class="st2" x1="117.3" y1="372.8" x2="908.1" y2="372.8"/>
<line class="st3" x1="168" y1="345" x2="311.9" y2="345"/>
<line class="st4" x1="430.6" y1="345" x2="483" y2="345"/>
<line class="st4" x1="505" y1="345" x2="609.8" y2="345"/>
<line class="st4" x1="628.4" y1="345" x2="681.8" y2="345"/>
<line class="st4" x1="704.4" y1="345" x2="777.9" y2="345"/>
<circle class="st5" cx="837.4" cy="345" r="16.4"/>
<line class="st6" x1="212.1" y1="179.2" x2="369" y2="350.9"/>
<line class="st3" x1="104.6" y1="112.9" x2="168" y2="112.9"/>
<line class="st3" x1="181.2" y1="112.9" x2="271" y2="112.9"/>
<line class="st7" x1="104.6" y1="130.6" x2="181.2" y2="130.6"/>
<line class="st7" x1="194.5" y1="130.6" x2="311.9" y2="130.6"/>
<line class="st7" x1="322.8" y1="130.6" x2="369" y2="130.6"/>
<line class="st7" x1="104.6" y1="141.4" x2="232.7" y2="141.4"/>
<line class="st7" x1="239.9" y1="141.4" x2="369" y2="141.4"/>
<line class="st7" x1="104.6" y1="149.8" x2="199.1" y2="149.8"/>
<line class="st7" x1="208.2" y1="149.8" x2="329.6" y2="149.8"/>
<line class="st8" x1="412.4" y1="402.9" x2="628.4" y2="402.9"/>
<line class="st9" x1="369" y1="426" x2="512.7" y2="426"/>
<line class="st9" x1="521.7" y1="426" x2="568.3" y2="426"/>
<line class="st9" x1="580.1" y1="426" x2="672" y2="426"/>
<line class="st9" x1="385.2" y1="437.2" x2="512.7" y2="437.2"/>
<line class="st9" x1="521.7" y1="437.2" x2="599.2" y2="437.2"/>
<line class="st9" x1="606.3" y1="437.2" x2="637" y2="437.2"/>
<line class="st9" x1="381.1" y1="447.2" x2="435.9" y2="447.2"/>
<line class="st9" x1="449" y1="447.2" x2="550.3" y2="447.2"/>
<line class="st9" x1="560.5" y1="447.2" x2="641.7" y2="447.2"/>
<line class="st9" x1="369" y1="456" x2="428.6" y2="456"/>
<line class="st9" x1="440.9" y1="456" x2="606.3" y2="456"/>
<line class="st9" x1="614.6" y1="456" x2="672" y2="456"/>
<line class="st9" x1="369" y1="465.7" x2="505" y2="465.7"/>
<line class="st9" x1="512.7" y1="465.7" x2="580.1" y2="465.7"/>
<line class="st9" x1="591.1" y1="465.7" x2="663.2" y2="465.7"/>
<line class="st9" x1="351.9" y1="476.9" x2="428.6" y2="476.9"/>
<line class="st9" x1="440.9" y1="476.9" x2="550.3" y2="476.9"/>
<line class="st9" x1="568.3" y1="476.9" x2="681.8" y2="476.9"/>
<line class="st6" x1="641.7" y1="402.9" x2="697.3" y2="211.8"/>
<line class="st3" x1="637" y1="130.6" x2="735.7" y2="130.6"/>
<line class="st3" x1="754.2" y1="130.6" x2="865.1" y2="130.6"/>
<line class="st7" x1="638.2" y1="145" x2="756.4" y2="145"/>
<line class="st7" x1="768.5" y1="145" x2="853.8" y2="145"/>
<line class="st7" x1="861.4" y1="145" x2="929.7" y2="145"/>
<line class="st7" x1="638.2" y1="156.3" x2="741.2" y2="156.3"/>
<line class="st7" x1="748.2" y1="156.3" x2="809.6" y2="156.3"/>
<line class="st7" x1="821.1" y1="156.3" x2="900.4" y2="156.3"/>
<line class="st7" x1="638.2" y1="166.8" x2="743.7" y2="166.8"/>
<line class="st7" x1="754.2" y1="166.8" x2="844.2" y2="166.8"/>
<g>
	<path class="st0" d="M327.3,660.5h-53.9c-15.5,0-28-12.6-28-28V526c0-15.5,12.6-28,28-28h53.9c15.5,0,28,12.6,28,28v106.4
		C355.3,647.9,342.7,660.5,327.3,660.5z"/>
</g>
<g>
	<path class="st1" d="M262.6,652.2c-14.4,0-26-11.7-26-26V519.7c0-14.4,11.7-26,26-26h53.9c14.4,0,26,11.7,26,26v106.4
		c0,14.4-11.7,26-26,26H262.6z"/>
	<path d="M316.5,495.7c13.3,0,24,10.8,24,24v106.4c0,13.3-10.8,24-24,24h-53.9c-13.3,0-24-10.8-24-24V519.7c0-13.3,10.8-24,24-24
		H316.5 M316.5,491.7h-53.9c-15.5,0-28,12.6-28,28v106.4c0,15.5,12.6,28,28,28h53.9c15.5,0,28-12.6,28-28V519.7
		C344.5,504.2,332,491.7,316.5,491.7L316.5,491.7z"/>
</g>
<g>
	<path class="st0" d="M481.3,660.5h-53.9c-15.5,0-28-12.6-28-28V526c0-15.5,12.6-28,28-28h53.9c15.5,0,28,12.6,28,28v106.4
		C509.4,647.9,496.8,660.5,481.3,660.5z"/>
</g>
<g>
	<path class="st1" d="M416.6,652.2c-14.4,0-26-11.7-26-26V519.7c0-14.4,11.7-26,26-26h53.9c14.4,0,26,11.7,26,26v106.4
		c0,14.4-11.7,26-26,26H416.6z"/>
	<path d="M470.6,495.7c13.3,0,24,10.8,24,24v106.4c0,13.3-10.8,24-24,24h-53.9c-13.3,0-24-10.8-24-24V519.7c0-13.3,10.8-24,24-24
		H470.6 M470.6,491.7h-53.9c-15.5,0-28,12.6-28,28v106.4c0,15.5,12.6,28,28,28h53.9c15.5,0,28-12.6,28-28V519.7
		C498.6,504.2,486,491.7,470.6,491.7L470.6,491.7z"/>
</g>
<g>
	<path class="st0" d="M631.6,660.5h-53.9c-15.5,0-28-12.6-28-28V526c0-15.5,12.6-28,28-28h53.9c15.5,0,28,12.6,28,28v106.4
		C659.6,647.9,647.1,660.5,631.6,660.5z"/>
</g>
<g>
	<path class="st1" d="M566.9,652.2c-14.4,0-26-11.7-26-26V519.7c0-14.4,11.7-26,26-26h53.9c14.4,0,26,11.7,26,26v106.4
		c0,14.4-11.7,26-26,26H566.9z"/>
	<path d="M620.8,495.7c13.3,0,24,10.8,24,24v106.4c0,13.3-10.8,24-24,24h-53.9c-13.3,0-24-10.8-24-24V519.7c0-13.3,10.8-24,24-24
		H620.8 M620.8,491.7h-53.9c-15.5,0-28,12.6-28,28v106.4c0,15.5,12.6,28,28,28h53.9c15.5,0,28-12.6,28-28V519.7
		C648.8,504.2,636.3,491.7,620.8,491.7L620.8,491.7z"/>
</g>
<g>
	<path class="st0" d="M773.5,660.5h-53.9c-15.5,0-28-12.6-28-28V526c0-15.5,12.6-28,28-28h53.9c15.5,0,28,12.6,28,28v106.4
		C801.6,647.9,789,660.5,773.5,660.5z"/>
</g>
<g>
	<path class="st1" d="M708.8,652.2c-14.4,0-26-11.7-26-26V519.7c0-14.4,11.7-26,26-26h53.9c14.4,0,26,11.7,26,26v106.4
		c0,14.4-11.7,26-26,26H708.8z"/>
	<path d="M762.8,495.7c13.3,0,24,10.8,24,24v106.4c0,13.3-10.8,24-24,24h-53.9c-13.3,0-24-10.8-24-24V519.7c0-13.3,10.8-24,24-24
		H762.8 M762.8,491.7h-53.9c-15.5,0-28,12.6-28,28v106.4c0,15.5,12.6,28,28,28h53.9c15.5,0,28-12.6,28-28V519.7
		C790.8,504.2,778.2,491.7,762.8,491.7L762.8,491.7z"/>
</g>
<line class="st6" x1="168" y1="812.9" x2="512.7" y2="660.5"/>
<line class="st3" x1="136.3" y1="830.2" x2="271" y2="830.2"/>
<line class="st3" x1="290.6" y1="830.2" x2="399.4" y2="830.2"/>
<line class="st7" x1="136.3" y1="854.3" x2="300.3" y2="854.3"/>
<line class="st7" x1="318" y1="854.3" x2="523.6" y2="854.3"/>
<line class="st7" x1="136.3" y1="868.7" x2="326.6" y2="868.7"/>
<line class="st7" x1="340.3" y1="868.7" x2="533.5" y2="868.7"/>
<line class="st7" x1="136.3" y1="883" x2="326.6" y2="883"/>
<line class="st7" x1="340.3" y1="883" x2="408.5" y2="883"/>
<line class="st7" x1="420.8" y1="883" x2="490.4" y2="883"/>
<line class="st7" x1="136.3" y1="892.6" x2="234.5" y2="892.6"/>
<line class="st7" x1="245.3" y1="892.6" x2="321.8" y2="892.6"/>
<line class="st7" x1="334.3" y1="892.6" x2="390.2" y2="892.6"/>
<line class="st7" x1="404.2" y1="892.6" x2="471.3" y2="892.6"/>
</svg>
