<?xml version="1.0" encoding="utf-8"?>
<!-- Generator: Adobe Illustrator 26.3.1, SVG Export Plug-In . SVG Version: 6.00 Build 0)  -->
<svg version="1.1" xmlns="http://www.w3.org/2000/svg" xmlns:xlink="http://www.w3.org/1999/xlink" x="0px" y="0px"
	 viewBox="0 0 1000 1000" style="enable-background:new 0 0 1000 1000;" xml:space="preserve">
<style type="text/css">
	.st0{fill:#B3B3B3;}
	.st1{fill:#FFFFFF;}
	.st2{fill:#B3B3B3;stroke:#000000;stroke-width:3;stroke-miterlimit:10;}
	.st3{stroke:#000000;stroke-width:5;stroke-miterlimit:10;}
	.st4{fill:#808080;stroke:#999999;stroke-width:5;stroke-miterlimit:10;}
	.st5{fill:none;stroke:#999999;stroke-width:2;stroke-miterlimit:10;}
	.st6{stroke:#000000;stroke-width:8;stroke-miterlimit:10;}
	.st7{fill:#808080;stroke:#808080;stroke-width:5;stroke-miterlimit:10;}
	.st8{fill:#FFFFFF;stroke:#000000;stroke-width:8;stroke-miterlimit:10;}
	.st9{fill:#B3B3B3;stroke:#000000;stroke-width:5;stroke-miterlimit:10;}
	.st10{fill:#B3B3B3;stroke:#CCCCCC;stroke-width:3;stroke-miterlimit:10;}
	.st11{fill:#B3B3B3;stroke:#000000;stroke-width:6;stroke-miterlimit:10;}
	.st12{fill:#FFFFFF;stroke:#000000;stroke-width:4;stroke-miterlimit:10;}
	.st13{fill:none;stroke:#000000;stroke-width:3;stroke-miterlimit:10;}
	.st14{fill:#FFFFFF;stroke:#000000;stroke-width:3;stroke-miterlimit:10;}
	.st15{fill:#808080;stroke:#999999;stroke-width:3;stroke-miterlimit:10;}
	.st16{stroke:#000000;stroke-width:6;stroke-miterlimit:10;}
	.st17{fill:#808080;stroke:#999999;stroke-width:4;stroke-miterlimit:10;}
	.st18{fill:none;stroke:#000000;stroke-width:9;stroke-miterlimit:10;}
</style>
<g id="Layer_1">
	<g>
		<path class="st0" d="M900.7,487.7H389.2c-25.5,0-46.1-20.6-46.1-46.1V248.7c0-25.5,20.6-46.1,46.1-46.1h511.5
			c25.5,0,46.1,20.6,46.1,46.1v192.9C946.8,467.1,926.1,487.7,900.7,487.7z"/>
	</g>
	<g>
		<path class="st1" d="M368.1,456.9c-23.8,0-43.1-19.3-43.1-43.1V220.9c0-23.8,19.3-43.1,43.1-43.1h511.5
			c23.8,0,43.1,19.3,43.1,43.1v192.9c0,23.8-19.3,43.1-43.1,43.1H368.1z"/>
		<path d="M879.6,180.9c22.1,0,40.1,18,40.1,40.1v192.9c0,22.1-18,40.1-40.1,40.1H368.1c-22.1,0-40.1-18-40.1-40.1V220.9
			c0-22.1,18-40.1,40.1-40.1H879.6 M879.6,174.9H368.1c-25.5,0-46.1,20.6-46.1,46.1v192.9c0,25.5,20.6,46.1,46.1,46.1h511.5
			c25.5,0,46.1-20.6,46.1-46.1V220.9C925.7,195.5,905,174.9,879.6,174.9L879.6,174.9z"/>
	</g>
	<line class="st2" x1="322" y1="220.3" x2="925.7" y2="220.3"/>
	<line class="st3" x1="360.6" y1="199.1" x2="470.5" y2="199.1"/>
	<line class="st4" x1="561.2" y1="199.1" x2="601.1" y2="199.1"/>
	<line class="st4" x1="618" y1="199.1" x2="697.9" y2="199.1"/>
	<line class="st4" x1="712.1" y1="199.1" x2="752.9" y2="199.1"/>
	<line class="st4" x1="770.2" y1="199.1" x2="826.3" y2="199.1"/>
	<circle class="st5" cx="871.7" cy="199.1" r="12.5"/>
	<line class="st6" x1="547.2" y1="243.3" x2="712.1" y2="243.3"/>
	<line class="st7" x1="514.1" y1="260.9" x2="623.8" y2="260.9"/>
	<line class="st7" x1="630.7" y1="260.9" x2="666.2" y2="260.9"/>
	<line class="st7" x1="675.2" y1="260.9" x2="745.4" y2="260.9"/>
	<line class="st7" x1="526.5" y1="269.4" x2="623.8" y2="269.4"/>
	<line class="st7" x1="630.7" y1="269.4" x2="689.9" y2="269.4"/>
	<line class="st7" x1="695.3" y1="269.4" x2="718.7" y2="269.4"/>
	<line class="st7" x1="523.4" y1="277.1" x2="565.2" y2="277.1"/>
	<line class="st7" x1="575.2" y1="277.1" x2="652.5" y2="277.1"/>
	<line class="st7" x1="660.3" y1="277.1" x2="722.3" y2="277.1"/>
	<line class="st7" x1="514.1" y1="283.8" x2="559.6" y2="283.8"/>
	<line class="st7" x1="569" y1="283.8" x2="695.3" y2="283.8"/>
	<line class="st7" x1="701.6" y1="283.8" x2="745.4" y2="283.8"/>
	<line class="st7" x1="514.1" y1="291.2" x2="618" y2="291.2"/>
	<line class="st7" x1="623.8" y1="291.2" x2="675.2" y2="291.2"/>
	<line class="st7" x1="683.7" y1="291.2" x2="738.7" y2="291.2"/>
	<line class="st7" x1="501" y1="299.8" x2="559.6" y2="299.8"/>
	<line class="st7" x1="569" y1="299.8" x2="652.5" y2="299.8"/>
	<line class="st7" x1="666.2" y1="299.8" x2="752.9" y2="299.8"/>
	<g>
		<path class="st0" d="M475.6,439.9h-27.9c-15.5,0-28-12.6-28-28v-68c0-15.5,12.6-28,28-28h27.9c15.5,0,28,12.6,28,28v68
			C503.6,427.3,491.1,439.9,475.6,439.9z"/>
	</g>
	<g>
		<path class="st1" d="M439.5,433.1c-14.4,0-26-11.7-26-26v-68c0-14.4,11.7-26,26-26h27.9c14.4,0,26,11.7,26,26v68
			c0,14.4-11.7,26-26,26H439.5z"/>
		<path d="M467.4,315.1c13.3,0,24,10.8,24,24v68c0,13.3-10.8,24-24,24h-27.9c-13.3,0-24-10.8-24-24v-68c0-13.3,10.8-24,24-24H467.4
			 M467.4,311.1h-27.9c-15.5,0-28,12.6-28,28v68c0,15.5,12.6,28,28,28h27.9c15.5,0,28-12.6,28-28v-68
			C495.4,323.6,482.9,311.1,467.4,311.1L467.4,311.1z"/>
	</g>
	<g>
		<path class="st0" d="M593.2,439.9h-27.9c-15.5,0-28-12.6-28-28v-68c0-15.5,12.6-28,28-28h27.9c15.5,0,28,12.6,28,28v68
			C621.3,427.3,608.7,439.9,593.2,439.9z"/>
	</g>
	<g>
		<path class="st1" d="M557.1,433.1c-14.4,0-26-11.7-26-26v-68c0-14.4,11.7-26,26-26H585c14.4,0,26,11.7,26,26v68
			c0,14.4-11.7,26-26,26H557.1z"/>
		<path d="M585,315.1c13.3,0,24,10.8,24,24v68c0,13.3-10.8,24-24,24h-27.9c-13.3,0-24-10.8-24-24v-68c0-13.3,10.8-24,24-24H585
			 M585,311.1h-27.9c-15.5,0-28,12.6-28,28v68c0,15.5,12.6,28,28,28H585c15.5,0,28-12.6,28-28v-68C613,323.6,600.5,311.1,585,311.1
			L585,311.1z"/>
	</g>
	<g>
		<path class="st0" d="M707.9,439.9H680c-15.5,0-28-12.6-28-28v-68c0-15.5,12.6-28,28-28h27.9c15.5,0,28,12.6,28,28v68
			C736,427.3,723.4,439.9,707.9,439.9z"/>
	</g>
	<g>
		<path class="st1" d="M671.8,433.1c-14.4,0-26-11.7-26-26v-68c0-14.4,11.7-26,26-26h27.9c14.4,0,26,11.7,26,26v68
			c0,14.4-11.7,26-26,26H671.8z"/>
		<path d="M699.7,315.1c13.3,0,24,10.8,24,24v68c0,13.3-10.8,24-24,24h-27.9c-13.3,0-24-10.8-24-24v-68c0-13.3,10.8-24,24-24H699.7
			 M699.7,311.1h-27.9c-15.5,0-28,12.6-28,28v68c0,15.5,12.6,28,28,28h27.9c15.5,0,28-12.6,28-28v-68
			C727.7,323.6,715.2,311.1,699.7,311.1L699.7,311.1z"/>
	</g>
	<g>
		<path class="st0" d="M816.3,439.9h-27.9c-15.5,0-28-12.6-28-28v-68c0-15.5,12.6-28,28-28h27.9c15.5,0,28,12.6,28,28v68
			C844.3,427.3,831.8,439.9,816.3,439.9z"/>
	</g>
	<g>
		<path class="st1" d="M780.2,433.1c-14.4,0-26-11.7-26-26v-68c0-14.4,11.7-26,26-26h27.9c14.4,0,26,11.7,26,26v68
			c0,14.4-11.7,26-26,26H780.2z"/>
		<path d="M808.1,315.1c13.3,0,24,10.8,24,24v68c0,13.3-10.8,24-24,24h-27.9c-13.3,0-24-10.8-24-24v-68c0-13.3,10.8-24,24-24H808.1
			 M808.1,311.1h-27.9c-15.5,0-28,12.6-28,28v68c0,15.5,12.6,28,28,28h27.9c15.5,0,28-12.6,28-28v-68
			C836.1,323.6,823.5,311.1,808.1,311.1L808.1,311.1z"/>
	</g>
</g>
<g id="Layer_2">
	<g>
		<path class="st0" d="M560.2,829.9H90c-25,0-45.2-20.3-45.2-45.2V610.8c0-25,20.3-45.2,45.2-45.2h470.3c25,0,45.2,20.3,45.2,45.2
			v173.9C605.5,809.7,585.2,829.9,560.2,829.9z"/>
	</g>
	<path class="st8" d="M543,809.7H72.8c-25,0-45.2-20.3-45.2-45.2V590.6c0-25,20.3-45.2,45.2-45.2H543c25,0,45.2,20.3,45.2,45.2
		v173.9C588.3,789.5,568,809.7,543,809.7z"/>
	<line class="st2" x1="27.5" y1="589.2" x2="585.7" y2="589.2"/>
	<line class="st3" x1="66.8" y1="565.6" x2="188.3" y2="565.6"/>
	<line class="st4" x1="333" y1="567.9" x2="384.1" y2="567.9"/>
	<line class="st4" x1="406.6" y1="567.9" x2="487.8" y2="567.9"/>
	<line class="st4" x1="508.7" y1="567.9" x2="529.7" y2="567.9"/>
	<line class="st9" x1="73.2" y1="617.1" x2="228.5" y2="617.1"/>
	<line class="st9" x1="358.6" y1="617.1" x2="550.5" y2="617.1"/>
	<line class="st10" x1="84.6" y1="633.3" x2="125.6" y2="633.3"/>
	<line class="st10" x1="138.1" y1="633.3" x2="175.5" y2="633.3"/>
	<line class="st10" x1="78.6" y1="640.7" x2="96.7" y2="640.7"/>
	<line class="st10" x1="105.1" y1="640.7" x2="183.4" y2="640.7"/>
	<line class="st10" x1="191.5" y1="640.7" x2="215.7" y2="640.7"/>
	<line class="st10" x1="65.1" y1="647.4" x2="175.5" y2="647.4"/>
	<line class="st10" x1="183.4" y1="633.3" x2="203.6" y2="633.3"/>
	<line class="st10" x1="183.4" y1="647.4" x2="241.3" y2="647.4"/>
	<line class="st10" x1="65.1" y1="656.8" x2="138.1" y2="656.8"/>
	<line class="st10" x1="147.1" y1="656.8" x2="203.6" y2="656.8"/>
	<line class="st10" x1="212.3" y1="656.8" x2="233.9" y2="656.8"/>
	<line class="st10" x1="60.4" y1="662.8" x2="147.1" y2="662.8"/>
	<line class="st10" x1="156.8" y1="662.8" x2="206.3" y2="662.8"/>
	<line class="st10" x1="212.3" y1="662.8" x2="250" y2="662.8"/>
	<line class="st11" x1="454.5" y1="633.3" x2="454.5" y2="765.3"/>
	<circle class="st12" cx="489.3" cy="651.1" r="14.4"/>
	<circle class="st12" cx="421" cy="683.3" r="14.4"/>
	<circle class="st12" cx="489.3" cy="716.2" r="14.4"/>
	<circle class="st12" cx="423.8" cy="761" r="14.4"/>
	<g id="XMLID_00000151542159790998282620000018332284769027783578_">
		<g>
			<path class="st1" d="M262.3,692.8v75.5c0,6.2-5,11.2-11.2,11.2H76.3c-6.2,0-11.2-5-11.2-11.2v-75.5c0-6.2,5-11.2,11.2-11.2h174.8
				C257.3,681.7,262.3,686.7,262.3,692.8z"/>
		</g>
		<g>
			<path class="st13" d="M251.1,779.5H76.3c-6.2,0-11.2-5-11.2-11.2v-75.5c0-6.2,5-11.2,11.2-11.2h174.8c6.2,0,11.2,5,11.2,11.2
				v75.5C262.3,774.5,257.3,779.5,251.1,779.5z"/>
		</g>
	</g>
	<line class="st14" x1="78.6" y1="690.8" x2="138.1" y2="690.8"/>
	<line class="st14" x1="144.3" y1="690.8" x2="197.1" y2="690.8"/>
	<line class="st14" x1="203.6" y1="690.8" x2="223.1" y2="690.8"/>
	<line class="st10" x1="78.6" y1="705.4" x2="127.5" y2="705.4"/>
	<line class="st10" x1="132.7" y1="705.4" x2="188.3" y2="705.4"/>
	<line class="st10" x1="193.5" y1="705.4" x2="224.6" y2="705.4"/>
	<line class="st10" x1="78.6" y1="713.2" x2="156.8" y2="713.2"/>
	<line class="st10" x1="160.5" y1="713.2" x2="243.2" y2="713.2"/>
	<line class="st10" x1="78.6" y1="719.8" x2="123.4" y2="719.8"/>
	<line class="st10" x1="129.2" y1="719.8" x2="177.9" y2="719.8"/>
	<line class="st10" x1="78.6" y1="740.8" x2="132.7" y2="740.8"/>
	<line class="st10" x1="142.9" y1="740.8" x2="191.5" y2="740.8"/>
	<line class="st10" x1="199.3" y1="740.8" x2="236.6" y2="740.8"/>
	<line class="st10" x1="78.6" y1="748.9" x2="123.4" y2="748.9"/>
	<line class="st10" x1="129.2" y1="748.9" x2="167.2" y2="748.9"/>
	<line class="st10" x1="172.8" y1="748.9" x2="212.3" y2="748.9"/>
</g>
<g id="Layer_3">
	<g>
		<path class="st0" d="M652.7,920.2H297c-38.3,0-69.4-31.1-69.4-69.4v-76.2c0-38.3,31.1-69.4,69.4-69.4h355.7
			c38.3,0,69.4,31.1,69.4,69.4v76.2C722.1,889.1,691,920.2,652.7,920.2z"/>
	</g>
	<path class="st8" d="M639.5,900H283.8c-38.3,0-69.4-31.1-69.4-69.4v-76.2c0-38.3,31.1-69.4,69.4-69.4h355.7
		c38.3,0,69.4,31.1,69.4,69.4v76.2C708.9,868.9,677.8,900,639.5,900z"/>
	<line class="st2" x1="218.6" y1="730.6" x2="701.6" y2="730.6"/>
	<line class="st3" x1="288.4" y1="708.2" x2="433.5" y2="708.2"/>
	<line class="st4" x1="489.3" y1="708.2" x2="529.7" y2="708.2"/>
	<line class="st4" x1="537.2" y1="708.2" x2="573.3" y2="708.2"/>
	<line class="st4" x1="581.2" y1="708.2" x2="629.2" y2="708.2"/>
	<line class="st4" x1="638.8" y1="708.2" x2="665.7" y2="708.2"/>
	<g>
		<path class="st0" d="M407.1,860.1H302.6c-19.9,0-36-16.1-36-36v-24.8c0-19.9,16.1-36,36-36h104.5c19.9,0,36,16.1,36,36v24.8
			C443.1,844,426.9,860.1,407.1,860.1z"/>
	</g>
	<path class="st12" d="M396.4,852.5H291.9c-19.9,0-36-16.1-36-36v-24.8c0-19.9,16.1-36,36-36h104.5c19.9,0,36,16.1,36,36v24.8
		C432.4,836.4,416.3,852.5,396.4,852.5z"/>
	<line class="st3" x1="288.4" y1="771.8" x2="399.8" y2="771.8"/>
	<line class="st15" x1="272.1" y1="788.8" x2="331.1" y2="788.8"/>
	<line class="st15" x1="338.7" y1="788.8" x2="371" y2="788.8"/>
	<line class="st15" x1="379.6" y1="788.8" x2="409.4" y2="788.8"/>
	<line class="st15" x1="279.7" y1="794.7" x2="313.7" y2="794.7"/>
	<line class="st15" x1="320" y1="794.7" x2="376.2" y2="794.7"/>
	<line class="st15" x1="383.8" y1="794.7" x2="403.6" y2="794.7"/>
	<line class="st15" x1="284.6" y1="800.3" x2="336.3" y2="800.3"/>
	<line class="st15" x1="341.5" y1="800.3" x2="397" y2="800.3"/>
	<line class="st15" x1="276.9" y1="806.2" x2="321.7" y2="806.2"/>
	<line class="st15" x1="325.1" y1="806.2" x2="382.4" y2="806.2"/>
	<line class="st15" x1="386.2" y1="806.2" x2="406.6" y2="806.2"/>
	<line class="st15" x1="272.1" y1="812.7" x2="316.8" y2="812.7"/>
	<line class="st15" x1="321.7" y1="812.7" x2="360.9" y2="812.7"/>
	<line class="st15" x1="367.5" y1="812.7" x2="406.6" y2="812.7"/>
	<line class="st15" x1="284.6" y1="819" x2="329.7" y2="819"/>
	<line class="st15" x1="336.3" y1="819" x2="386.2" y2="819"/>
	<line class="st16" x1="479.1" y1="761" x2="659.7" y2="761"/>
	<line class="st17" x1="479.1" y1="775.4" x2="547.8" y2="775.4"/>
	<line class="st17" x1="555.2" y1="775.4" x2="655.7" y2="775.4"/>
	<line class="st17" x1="479.1" y1="785.3" x2="533.2" y2="785.3"/>
	<line class="st17" x1="541.6" y1="785.3" x2="594.9" y2="785.3"/>
	<line class="st17" x1="605.5" y1="784.7" x2="659.7" y2="784.7"/>
	<line class="st17" x1="479.1" y1="794.7" x2="555.2" y2="794.7"/>
	<line class="st17" x1="562.5" y1="794.7" x2="594.9" y2="794.7"/>
	<line class="st17" x1="600.6" y1="794.7" x2="623.7" y2="794.7"/>
	<line class="st17" x1="629.2" y1="794.7" x2="668.5" y2="794.7"/>
	<line class="st17" x1="479.1" y1="804.2" x2="555.2" y2="804.2"/>
	<line class="st17" x1="562.5" y1="804.2" x2="593.1" y2="804.2"/>
	<line class="st17" x1="601.1" y1="804.2" x2="646.4" y2="804.2"/>
	<line class="st17" x1="479.1" y1="812.7" x2="550.9" y2="812.7"/>
	<line class="st17" x1="555.2" y1="812.7" x2="636.6" y2="812.7"/>
	<path class="st18" d="M106.3,511.3c0,0,0.7-168.5,114.8-174.5"/>
	<path class="st18" d="M204.1,282.7c0,0,54.1,23.5,54.1,59.7S211,389.7,211,389.7"/>
	<path class="st18" d="M745.4,819c0,0,128.7,15.6,113.8-229.8"/>
	<path class="st18" d="M802.9,600.7c0,0,17.3-35.1,57.5-35.1s43.9,35.1,43.9,35.1"/>
</g>
<g id="Layer_4">
</g>
</svg>
