<?xml version="1.0" encoding="utf-8"?>
<!-- Generator: Adobe Illustrator 26.3.1, SVG Export Plug-In . SVG Version: 6.00 Build 0)  -->
<svg version="1.1" id="Layer_1" xmlns="http://www.w3.org/2000/svg" xmlns:xlink="http://www.w3.org/1999/xlink" x="0px" y="0px"
	 viewBox="0 0 1000 1000" style="enable-background:new 0 0 1000 1000;" xml:space="preserve">
<style type="text/css">
	.st0{fill:#B3B3B3;}
	.st1{fill:#FFFFFF;}
	.st2{fill:none;stroke:#000000;stroke-width:3;stroke-miterlimit:10;}
	.st3{fill:none;stroke:#000000;stroke-width:5;stroke-miterlimit:10;}
	.st4{fill:none;stroke:#999999;stroke-width:5;stroke-miterlimit:10;}
	.st5{fill:none;stroke:#999999;stroke-width:2;stroke-miterlimit:10;}
	.st6{fill:none;stroke:#000000;stroke-width:8;stroke-miterlimit:10;}
	.st7{fill:none;stroke:#808080;stroke-width:5;stroke-miterlimit:10;}
	.st8{fill:none;stroke:#000000;stroke-width:6;stroke-miterlimit:10;}
	.st9{fill:none;stroke:#000000;stroke-width:9;stroke-miterlimit:10;}
	.st10{fill:none;stroke:#E6E6E6;stroke-width:5;stroke-miterlimit:10;}
	.st11{fill:#FFFFFF;stroke:#000000;stroke-width:6;stroke-miterlimit:10;}
	.st12{fill:none;stroke:#000000;stroke-width:7;stroke-miterlimit:10;}
	.st13{fill:none;stroke:#E6E6E6;stroke-width:6;stroke-miterlimit:10;}
</style>
<g>
	<path class="st0" d="M678.5,426.6H253.6c-18.3,0-33.1-14.8-33.1-33.1V227.8c0-18.3,14.8-33.1,33.1-33.1h424.9
		c18.3,0,33.1,14.8,33.1,33.1v165.6C711.6,411.7,696.8,426.6,678.5,426.6z"/>
</g>
<g>
	<path class="st1" d="M236.5,401.8c-17.1,0-31-13.9-31-31V205.1c0-17.1,13.9-31,31-31h424.9c17.1,0,31,13.9,31,31v165.6
		c0,17.1-13.9,31-31,31L236.5,401.8L236.5,401.8z"/>
	<path d="M661.3,176.3c15.9,0,28.8,12.9,28.8,28.8v165.6c0,15.9-12.9,28.8-28.8,28.8H236.5c-15.9,0-28.8-12.9-28.8-28.8V205.1
		c0-15.9,12.9-28.8,28.8-28.8H661.3 M661.3,172H236.5c-18.3,0-33.1,14.8-33.1,33.1v165.6c0,18.3,14.8,33.1,33.1,33.1h424.9
		c18.3,0,33.1-14.8,33.1-33.1V205.1C694.4,186.9,679.6,172,661.3,172L661.3,172z"/>
</g>
<line class="st2" x1="203.3" y1="208.9" x2="694.4" y2="208.9"/>
<line class="st3" x1="234.7" y1="191.7" x2="324.2" y2="191.7"/>
<line class="st4" x1="397.9" y1="191.7" x2="430.4" y2="191.7"/>
<line class="st4" x1="444.1" y1="191.7" x2="509.2" y2="191.7"/>
<line class="st4" x1="520.7" y1="191.7" x2="553.9" y2="191.7"/>
<line class="st4" x1="568" y1="191.7" x2="613.6" y2="191.7"/>
<circle class="st5" cx="650.5" cy="191.7" r="10.1"/>
<line class="st6" x1="386.6" y1="227.7" x2="520.7" y2="227.7"/>
<line class="st7" x1="359.6" y1="242" x2="448.8" y2="242"/>
<line class="st7" x1="454.4" y1="242" x2="483.3" y2="242"/>
<line class="st7" x1="490.7" y1="242" x2="547.8" y2="242"/>
<line class="st7" x1="369.7" y1="249" x2="448.8" y2="249"/>
<line class="st7" x1="454.4" y1="249" x2="502.6" y2="249"/>
<line class="st7" x1="507" y1="249" x2="526.1" y2="249"/>
<line class="st7" x1="367.2" y1="255.2" x2="401.2" y2="255.2"/>
<line class="st7" x1="409.3" y1="255.2" x2="472.2" y2="255.2"/>
<line class="st7" x1="478.5" y1="255.2" x2="528.9" y2="255.2"/>
<line class="st7" x1="359.6" y1="260.7" x2="396.6" y2="260.7"/>
<line class="st7" x1="404.3" y1="260.7" x2="507" y2="260.7"/>
<line class="st7" x1="512.1" y1="260.7" x2="547.8" y2="260.7"/>
<line class="st7" x1="359.6" y1="266.7" x2="444.1" y2="266.7"/>
<line class="st7" x1="448.8" y1="266.7" x2="490.7" y2="266.7"/>
<line class="st7" x1="497.6" y1="266.7" x2="542.3" y2="266.7"/>
<line class="st7" x1="349" y1="273.6" x2="396.6" y2="273.6"/>
<line class="st7" x1="404.3" y1="273.6" x2="472.2" y2="273.6"/>
<line class="st7" x1="483.3" y1="273.6" x2="553.9" y2="273.6"/>
<g>
	<path class="st0" d="M330.9,387.6h-28c-11.1,0-20.1-9.1-20.1-20.1v-60.6c0-11.1,9.1-20.1,20.1-20.1h28c11.1,0,20.1,9.1,20.1,20.1
		v60.6C351.1,378.6,342.1,387.6,330.9,387.6z"/>
</g>
<g>
	<path class="st1" d="M296.3,382.3c-10.4,0-18.7-8.4-18.7-18.7V303c0-10.4,8.4-18.7,18.7-18.7h28c10.4,0,18.7,8.4,18.7,18.7v60.6
		c0,10.4-8.4,18.7-18.7,18.7L296.3,382.3L296.3,382.3z"/>
	<path d="M324.2,285.7c9.6,0,17.3,7.8,17.3,17.3v60.6c0,9.6-7.8,17.3-17.3,17.3h-28c-9.6,0-17.3-7.8-17.3-17.3V303
		c0-9.6,7.8-17.3,17.3-17.3H324.2 M324.2,282.9h-28c-11.1,0-20.1,9.1-20.1,20.1v60.6c0,11.1,9.1,20.1,20.1,20.1h28
		c11.1,0,20.1-9.1,20.1-20.1V303C344.4,291.8,335.4,282.9,324.2,282.9L324.2,282.9z"/>
</g>
<g>
	<path class="st0" d="M426.6,387.6h-28c-11.1,0-20.1-9.1-20.1-20.1v-60.6c0-11.1,9.1-20.1,20.1-20.1h28c11.1,0,20.1,9.1,20.1,20.1
		v60.6C446.8,378.6,437.8,387.6,426.6,387.6z"/>
</g>
<g>
	<path class="st1" d="M392,382.3c-10.4,0-18.7-8.4-18.7-18.7V303c0-10.4,8.4-18.7,18.7-18.7h28c10.4,0,18.7,8.4,18.7,18.7v60.6
		c0,10.4-8.4,18.7-18.7,18.7L392,382.3L392,382.3z"/>
	<path d="M419.9,285.7c9.6,0,17.3,7.8,17.3,17.3v60.6c0,9.6-7.8,17.3-17.3,17.3h-28c-9.6,0-17.3-7.8-17.3-17.3V303
		c0-9.6,7.8-17.3,17.3-17.3H419.9 M419.9,282.9h-28c-11.1,0-20.1,9.1-20.1,20.1v60.6c0,11.1,9.1,20.1,20.1,20.1h28
		c11.1,0,20.1-9.1,20.1-20.1V303C440.1,291.8,431.1,282.9,419.9,282.9L419.9,282.9z"/>
</g>
<g>
	<path class="st0" d="M519.9,387.6h-28c-11.1,0-20.1-9.1-20.1-20.1v-60.6c0-11.1,9.1-20.1,20.1-20.1h28c11.1,0,20.1,9.1,20.1,20.1
		v60.6C540.1,378.6,531.1,387.6,519.9,387.6z"/>
</g>
<g>
	<path class="st1" d="M485.3,382.3c-10.4,0-18.7-8.4-18.7-18.7V303c0-10.4,8.4-18.7,18.7-18.7h28c10.4,0,18.7,8.4,18.7,18.7v60.6
		c0,10.4-8.4,18.7-18.7,18.7L485.3,382.3L485.3,382.3z"/>
	<path d="M513.3,285.7c9.6,0,17.3,7.8,17.3,17.3v60.6c0,9.6-7.8,17.3-17.3,17.3h-28c-9.6,0-17.3-7.8-17.3-17.3V303
		c0-9.6,7.8-17.3,17.3-17.3H513.3 M513.3,282.9h-28c-11.1,0-20.1,9.1-20.1,20.1v60.6c0,11.1,9.1,20.1,20.1,20.1h28
		c11.1,0,20.1-9.1,20.1-20.1V303C533.4,291.8,524.4,282.9,513.3,282.9L513.3,282.9z"/>
</g>
<g>
	<path class="st0" d="M608.1,387.6h-28c-11.1,0-20.1-9.1-20.1-20.1v-60.6c0-11.1,9.1-20.1,20.1-20.1h28c11.1,0,20.1,9.1,20.1,20.1
		v60.6C628.3,378.6,619.2,387.6,608.1,387.6z"/>
</g>
<g>
	<path class="st1" d="M573.4,382.3c-10.4,0-18.7-8.4-18.7-18.7V303c0-10.4,8.4-18.7,18.7-18.7h28c10.4,0,18.7,8.4,18.7,18.7v60.6
		c0,10.4-8.4,18.7-18.7,18.7L573.4,382.3L573.4,382.3z"/>
	<path d="M601.4,285.7c9.6,0,17.3,7.8,17.3,17.3v60.6c0,9.6-7.8,17.3-17.3,17.3h-28c-9.6,0-17.3-7.8-17.3-17.3V303
		c0-9.6,7.8-17.3,17.3-17.3H601.4 M601.4,282.9h-28c-11.1,0-20.1,9.1-20.1,20.1v60.6c0,11.1,9.1,20.1,20.1,20.1h28
		c11.1,0,20.1-9.1,20.1-20.1V303C621.5,291.8,612.5,282.9,601.4,282.9L601.4,282.9z"/>
</g>
<g>
	<path class="st0" d="M682.6,749.6H257.7c-18.3,0-33.1-14.8-33.1-33.1V550.8c0-18.3,14.8-33.1,33.1-33.1h424.9
		c18.3,0,33.1,14.8,33.1,33.1v165.6C715.8,734.8,700.9,749.6,682.6,749.6z"/>
</g>
<g>
	<path class="st1" d="M240.6,724.9c-17.1,0-31-13.9-31-31V528.2c0-17.1,13.9-31,31-31h424.9c17.1,0,31,13.9,31,31v165.6
		c0,17.1-13.9,31-31,31H240.6z"/>
	<path d="M665.5,499.4c15.9,0,28.8,12.9,28.8,28.8v165.6c0,15.9-12.9,28.8-28.8,28.8H240.6c-15.9,0-28.8-12.9-28.8-28.8V528.2
		c0-15.9,12.9-28.8,28.8-28.8H665.5 M665.5,495.1H240.6c-18.3,0-33.1,14.8-33.1,33.1v165.6c0,18.3,14.8,33.1,33.1,33.1h424.9
		c18.3,0,33.1-14.8,33.1-33.1V528.2C698.6,509.9,683.8,495.1,665.5,495.1L665.5,495.1z"/>
</g>
<line class="st2" x1="207.5" y1="532" x2="698.6" y2="532"/>
<line class="st4" x1="402.2" y1="517.3" x2="434.4" y2="512.3"/>
<line class="st4" x1="524.9" y1="514.8" x2="558" y2="514.8"/>
<line class="st4" x1="598.6" y1="514.8" x2="617.7" y2="514.8"/>
<line class="st4" x1="582.7" y1="512.3" x2="591.3" y2="517.3"/>
<line class="st7" x1="363.8" y1="565.1" x2="453" y2="565.1"/>
<line class="st7" x1="458.6" y1="565.1" x2="487.5" y2="565.1"/>
<line class="st7" x1="494.9" y1="565.1" x2="551.9" y2="565.1"/>
<line class="st7" x1="458.6" y1="572" x2="506.8" y2="572"/>
<line class="st7" x1="511.6" y1="569.2" x2="529.8" y2="574.8"/>
<line class="st7" x1="371.3" y1="578.3" x2="405.3" y2="578.3"/>
<line class="st7" x1="413.5" y1="578.3" x2="476.4" y2="578.3"/>
<line class="st7" x1="364" y1="581.1" x2="400.6" y2="586.4"/>
<line class="st7" x1="408.5" y1="586.8" x2="511.1" y2="580.6"/>
<line class="st7" x1="516.6" y1="587" x2="551.6" y2="580.5"/>
<line class="st7" x1="453" y1="589.8" x2="494.9" y2="589.8"/>
<line class="st7" x1="353.1" y1="596.8" x2="400.7" y2="596.8"/>
<line class="st7" x1="408.4" y1="596.8" x2="476.4" y2="596.8"/>
<line class="st7" x1="487.5" y1="596.8" x2="558" y2="596.8"/>
<polyline class="st8" points="207.5,671.8 260,620.7 311.9,646.2 348.5,609.8 "/>
<g>
	<path class="st0" d="M335.1,710.7h-28c-11.1,0-20.1-9.1-20.1-20.1V630c0-11.1,9.1-20.1,20.1-20.1h28c11.1,0,20.1,9.1,20.1,20.1
		v60.6C355.3,701.6,346.2,710.7,335.1,710.7z"/>
</g>
<g>
	<path class="st1" d="M300.4,705.4c-10.4,0-18.7-8.4-18.7-18.7v-60.6c0-10.4,8.4-18.7,18.7-18.7h28c10.4,0,18.7,8.4,18.7,18.7v60.6
		c0,10.4-8.4,18.7-18.7,18.7H300.4z"/>
	<path d="M328.4,608.8c9.6,0,17.3,7.8,17.3,17.3v60.6c0,9.6-7.8,17.3-17.3,17.3h-28c-9.6,0-17.3-7.8-17.3-17.3V626
		c0-9.6,7.8-17.3,17.3-17.3H328.4 M328.4,605.9h-28c-11.1,0-20.1,9.1-20.1,20.1v60.6c0,11.1,9.1,20.1,20.1,20.1h28
		c11.1,0,20.1-9.1,20.1-20.1V626C348.5,614.9,339.6,605.9,328.4,605.9L328.4,605.9z"/>
</g>
<g>
	<path class="st0" d="M430.8,710.7h-28c-11.1,0-20.1-9.1-20.1-20.1V630c0-11.1,9.1-20.1,20.1-20.1h28c11.1,0,20.1,9.1,20.1,20.1
		v60.6C450.9,701.6,441.9,710.7,430.8,710.7z"/>
</g>
<g>
	<path class="st1" d="M396.1,705.4c-10.4,0-18.7-8.4-18.7-18.7v-60.6c0-10.4,8.4-18.7,18.7-18.7h28c10.4,0,18.7,8.4,18.7,18.7v60.6
		c0,10.4-8.4,18.7-18.7,18.7H396.1z"/>
	<path d="M424.1,608.8c9.6,0,17.3,7.8,17.3,17.3v60.6c0,9.6-7.8,17.3-17.3,17.3h-28c-9.6,0-17.3-7.8-17.3-17.3V626
		c0-9.6,7.8-17.3,17.3-17.3H424.1 M424.1,605.9h-28c-11.1,0-20.1,9.1-20.1,20.1v60.6c0,11.1,9.1,20.1,20.1,20.1h28
		c11.1,0,20.1-9.1,20.1-20.1V626C444.2,614.9,435.2,605.9,424.1,605.9L424.1,605.9z"/>
</g>
<g>
	<path class="st0" d="M612.3,710.7h-28c-11.1,0-20.1-9.1-20.1-20.1V630c0-11.1,9.1-20.1,20.1-20.1h28c11.1,0,20.1,9.1,20.1,20.1
		v60.6C632.5,701.6,623.4,710.7,612.3,710.7z"/>
</g>
<g>
	<path class="st1" d="M577.6,705.4c-10.4,0-18.7-8.4-18.7-18.7v-60.6c0-10.4,8.4-18.7,18.7-18.7h28c10.4,0,18.7,8.4,18.7,18.7v60.6
		c0,10.4-8.4,18.7-18.7,18.7H577.6z"/>
	<path d="M605.6,608.8c9.6,0,17.3,7.8,17.3,17.3v60.6c0,9.6-7.8,17.3-17.3,17.3h-28c-9.6,0-17.3-7.8-17.3-17.3V626
		c0-9.6,7.8-17.3,17.3-17.3H605.6 M605.6,605.9h-28c-11.1,0-20.1,9.1-20.1,20.1v60.6c0,11.1,9.1,20.1,20.1,20.1h28
		c11.1,0,20.1-9.1,20.1-20.1V626C625.7,614.9,616.7,605.9,605.6,605.9L605.6,605.9z"/>
</g>
<path class="st9" d="M745.6,286.7c0,0,109.6,40.8,113,182C862,610,776,641.6,776,641.6"/>
<path class="st9" d="M774.7,602.6c0,0-26.2,12.9-19.3,41.8c7,28.9,31.7,23.4,31.7,23.4"/>
<line class="st10" x1="242.2" y1="511.3" x2="277.9" y2="563.2"/>
<line class="st3" x1="240.5" y1="511.3" x2="276.1" y2="563.2"/>
<line class="st10" x1="505.6" y1="516.5" x2="476.4" y2="545.1"/>
<line class="st4" x1="505.1" y1="514.8" x2="475.9" y2="543.3"/>
<polyline class="st8" points="697,552.5 643.7,567.4 628.3,599 582.9,579 "/>
<polyline class="st8" points="280.2,498.3 311.9,545.1 301.5,558.1 308.4,575.7 "/>
<polyline class="st11" points="516.6,725.5 529.8,668.2 502,649.3 516.6,644.6 526.2,628.4 "/>
<g>
	<circle class="st0" cx="775" cy="480.4" r="55.6"/>
</g>
<circle class="st11" cx="766.4" cy="469.6" r="55.6"/>
<path class="st12" d="M762.9,475.2"/>
<polyline class="st13" points="769.3,448.7 769.3,478.3 778.2,487.2 "/>
<polyline class="st12" points="767.3,448.7 767.3,478.3 776.3,487.2 "/>
</svg>
