<?xml version="1.0" encoding="utf-8"?>
<!-- Generator: Adobe Illustrator 26.3.1, SVG Export Plug-In . SVG Version: 6.00 Build 0)  -->
<svg version="1.1" id="Layer_1" xmlns="http://www.w3.org/2000/svg" xmlns:xlink="http://www.w3.org/1999/xlink" x="0px" y="0px"
	 viewBox="0 0 1000 1000" style="enable-background:new 0 0 1000 1000;" xml:space="preserve">
<style type="text/css">
	
		.st0{clip-path:url(#SVGID_00000079450397278880863260000015005465569132336040_);fill:#CCCCCC;stroke:#CCCCCC;stroke-width:6;stroke-miterlimit:10;}
	.st1{fill:none;stroke:#000000;stroke-width:9;stroke-miterlimit:10;}
	.st2{fill:#CCCCCC;stroke:#CCCCCC;stroke-width:6;stroke-miterlimit:10;}
	
		.st3{clip-path:url(#SVGID_00000151533232597045569420000016822848787027674018_);fill:#4D4D4D;stroke:#4D4D4D;stroke-width:6;stroke-miterlimit:10;}
	.st4{fill:#FFFFFF;stroke:#000000;stroke-width:7;stroke-miterlimit:10;}
	.st5{fill:#FFFFFF;stroke:#000000;stroke-width:5;stroke-miterlimit:10;}
	.st6{fill:none;stroke:#000000;stroke-width:5;stroke-miterlimit:10;}
	.st7{fill:#B3B3B3;}
	.st8{fill:#FFFFFF;}
	.st9{fill:#B3B3B3;stroke:#000000;stroke-width:3;stroke-miterlimit:10;}
	.st10{stroke:#000000;stroke-width:5;stroke-miterlimit:10;}
	.st11{fill:#808080;stroke:#999999;stroke-width:4;stroke-miterlimit:10;}
	.st12{fill:none;stroke:#999999;stroke-width:2;stroke-miterlimit:10;}
	.st13{fill:#808080;stroke:#808080;stroke-width:2;stroke-miterlimit:10;}
	.st14{fill:none;stroke:#000000;stroke-width:8;stroke-miterlimit:10;}
</style>
<g>
	<defs>
		<rect id="SVGID_1_" x="158.1" y="68.4" width="856" height="223.3"/>
	</defs>
	<clipPath id="SVGID_00000074401204345334779880000017244021430271798171_">
		<use xlink:href="#SVGID_1_"  style="overflow:visible;"/>
	</clipPath>
	
		<ellipse style="clip-path:url(#SVGID_00000074401204345334779880000017244021430271798171_);fill:#CCCCCC;stroke:#CCCCCC;stroke-width:6;stroke-miterlimit:10;" cx="325.7" cy="286.3" rx="123.2" ry="88.6"/>
	
		<ellipse style="clip-path:url(#SVGID_00000074401204345334779880000017244021430271798171_);fill:#CCCCCC;stroke:#CCCCCC;stroke-width:6;stroke-miterlimit:10;" cx="447.3" cy="234" rx="121.1" ry="76.6"/>
	
		<ellipse style="clip-path:url(#SVGID_00000074401204345334779880000017244021430271798171_);fill:#CCCCCC;stroke:#CCCCCC;stroke-width:6;stroke-miterlimit:10;" cx="496.7" cy="340.3" rx="95.6" ry="65.9"/>
	
		<ellipse style="clip-path:url(#SVGID_00000074401204345334779880000017244021430271798171_);fill:#CCCCCC;stroke:#CCCCCC;stroke-width:6;stroke-miterlimit:10;" cx="613.7" cy="301.9" rx="90.6" ry="104.2"/>
	
		<ellipse style="clip-path:url(#SVGID_00000074401204345334779880000017244021430271798171_);fill:#CCCCCC;stroke:#CCCCCC;stroke-width:6;stroke-miterlimit:10;" cx="653.2" cy="230.7" rx="147.5" ry="33"/>
	
		<ellipse style="clip-path:url(#SVGID_00000074401204345334779880000017244021430271798171_);fill:#CCCCCC;stroke:#CCCCCC;stroke-width:6;stroke-miterlimit:10;" cx="680.8" cy="197.3" rx="72.1" ry="77"/>
	
		<ellipse style="clip-path:url(#SVGID_00000074401204345334779880000017244021430271798171_);fill:#CCCCCC;stroke:#CCCCCC;stroke-width:6;stroke-miterlimit:10;" cx="764.4" cy="271.5" rx="83.2" ry="74.6"/>
</g>
<path class="st1" d="M312.5,445.5c0-175,192.1-195.4,192.1-195.4s244.9-6.6,244.9,244.9"/>
<path class="st2" d="M258,880.7l119.6-121.5c1.1-68.9,2.2-137.8,3.4-206.6l0,0c-41.2,40.7-82.5,81.3-123.7,122c0,68.3,0,136.7,0,205
	H138v-205L264.5,548h112.1L257.2,674.5c-39.8,0-79.5,0-119.3,0"/>
<polyline class="st2" points="138,674.5 257.2,674.5 257.2,879.5 "/>
<g>
	<defs>
		<rect id="SVGID_00000014635415711727910020000003965687146999475612_" x="117" y="48.9" width="856" height="223.3"/>
	</defs>
	<clipPath id="SVGID_00000120540950292649324110000013110170867767995043_">
		<use xlink:href="#SVGID_00000014635415711727910020000003965687146999475612_"  style="overflow:visible;"/>
	</clipPath>
	
		<ellipse style="clip-path:url(#SVGID_00000120540950292649324110000013110170867767995043_);fill:#4D4D4D;stroke:#4D4D4D;stroke-width:6;stroke-miterlimit:10;" cx="284.7" cy="266.8" rx="123.2" ry="88.6"/>
	
		<ellipse style="clip-path:url(#SVGID_00000120540950292649324110000013110170867767995043_);fill:#4D4D4D;stroke:#4D4D4D;stroke-width:6;stroke-miterlimit:10;" cx="406.2" cy="214.5" rx="121.1" ry="76.6"/>
	
		<ellipse style="clip-path:url(#SVGID_00000120540950292649324110000013110170867767995043_);fill:#4D4D4D;stroke:#4D4D4D;stroke-width:6;stroke-miterlimit:10;" cx="455.6" cy="320.7" rx="95.6" ry="65.9"/>
	
		<ellipse style="clip-path:url(#SVGID_00000120540950292649324110000013110170867767995043_);fill:#4D4D4D;stroke:#4D4D4D;stroke-width:6;stroke-miterlimit:10;" cx="572.6" cy="282.4" rx="90.6" ry="104.2"/>
	
		<ellipse style="clip-path:url(#SVGID_00000120540950292649324110000013110170867767995043_);fill:#4D4D4D;stroke:#4D4D4D;stroke-width:6;stroke-miterlimit:10;" cx="612.1" cy="211.2" rx="147.5" ry="33"/>
	
		<ellipse style="clip-path:url(#SVGID_00000120540950292649324110000013110170867767995043_);fill:#4D4D4D;stroke:#4D4D4D;stroke-width:6;stroke-miterlimit:10;" cx="639.7" cy="177.8" rx="72.1" ry="77"/>
	
		<ellipse style="clip-path:url(#SVGID_00000120540950292649324110000013110170867767995043_);fill:#4D4D4D;stroke:#4D4D4D;stroke-width:6;stroke-miterlimit:10;" cx="723.4" cy="251.9" rx="83.2" ry="74.6"/>
</g>
<path class="st4" d="M240.5,876.6l119.6-121.5c1.1-68.9,2.2-137.8,3.4-206.6l0,0c-41.2,40.7-82.5,81.3-123.7,122
	c0,68.3,0,136.7,0,205H120.5v-205L247,544h112.1L239.8,670.5c-39.8,0-79.5,0-119.3,0"/>
<rect x="120.5" y="670.5" class="st5" width="119.3" height="205"/>
<line class="st4" x1="239.8" y1="875.5" x2="240.9" y2="874.4"/>
<polygon class="st4" points="239.8,875.5 239.8,670.5 120.5,670.5 239.8,670.5 "/>
<path class="st4" d="M180.7,850"/>
<line class="st4" x1="142.5" y1="694.5" x2="214.1" y2="694.5"/>
<line class="st5" x1="154.3" y1="708" x2="199.3" y2="708"/>
<circle class="st5" cx="143" cy="848" r="9.5"/>
<circle class="st5" cx="167" cy="850" r="2.5"/>
<polyline class="st6" points="362.3,690.1 239.8,812.6 120.5,812.6 "/>
<polyline class="st6" points="361.9,629.2 239.8,751.3 120.5,751.3 "/>
<polygon class="st6" points="239.8,875.5 239.8,670.5 239.8,670.5 "/>
<g>
	<path class="st7" d="M893.1,851.3H565.4c-25.5,0-46.1-20.6-46.1-46.1V699.1c0-25.5,20.6-46.1,46.1-46.1h327.7
		c25.5,0,46.1,20.6,46.1,46.1v106.1C939.2,830.7,918.5,851.3,893.1,851.3z"/>
</g>
<g>
	<path class="st8" d="M550.7,829c-23.8,0-43.1-19.3-43.1-43.1V679.8c0-23.8,19.3-43.1,43.1-43.1h327.7c23.8,0,43.1,19.3,43.1,43.1
		v106.1c0,23.8-19.3,43.1-43.1,43.1H550.7z"/>
	<path d="M878.4,639.7c22.1,0,40.1,18,40.1,40.1v106.1c0,22.1-18,40.1-40.1,40.1H550.7c-22.1,0-40.1-18-40.1-40.1V679.8
		c0-22.1,18-40.1,40.1-40.1H878.4 M878.4,633.7H550.7c-25.5,0-46.1,20.6-46.1,46.1v106.1c0,25.5,20.6,46.1,46.1,46.1h327.7
		c25.5,0,46.1-20.6,46.1-46.1V679.8C924.5,654.3,903.9,633.7,878.4,633.7L878.4,633.7z"/>
</g>
<line class="st9" x1="509" y1="665.3" x2="919" y2="665.3"/>
<line class="st10" x1="544.5" y1="651.5" x2="620.9" y2="651.5"/>
<line class="st11" x1="671" y1="650.5" x2="698.8" y2="650.5"/>
<line class="st11" x1="710.5" y1="650.5" x2="766.1" y2="650.5"/>
<line class="st11" x1="776" y1="650.5" x2="804.3" y2="650.5"/>
<line class="st11" x1="816.4" y1="650.5" x2="855.4" y2="650.5"/>
<circle class="st12" cx="878" cy="651.5" r="8.7"/>
<line class="st10" x1="661.3" y1="681.3" x2="776" y2="681.3"/>
<line class="st13" x1="638.3" y1="693.5" x2="714.6" y2="693.5"/>
<line class="st13" x1="719.3" y1="693.5" x2="744" y2="693.5"/>
<line class="st13" x1="750.3" y1="693.5" x2="799.1" y2="693.5"/>
<line class="st13" x1="646.9" y1="699.5" x2="714.6" y2="699.5"/>
<line class="st13" x1="719.3" y1="699.5" x2="760.5" y2="699.5"/>
<line class="st13" x1="764.3" y1="699.5" x2="780.5" y2="699.5"/>
<line class="st13" x1="644.7" y1="704.8" x2="673.8" y2="704.8"/>
<line class="st13" x1="680.7" y1="704.8" x2="734.5" y2="704.8"/>
<line class="st13" x1="739.9" y1="704.8" x2="783" y2="704.8"/>
<line class="st13" x1="638.3" y1="709.5" x2="669.9" y2="709.5"/>
<line class="st13" x1="676.4" y1="709.5" x2="764.3" y2="709.5"/>
<line class="st13" x1="768.6" y1="709.5" x2="799.1" y2="709.5"/>
<line class="st13" x1="638.3" y1="714.7" x2="710.5" y2="714.7"/>
<line class="st13" x1="714.6" y1="714.7" x2="750.3" y2="714.7"/>
<line class="st13" x1="756.2" y1="714.7" x2="794.4" y2="714.7"/>
<line class="st13" x1="629.1" y1="720.6" x2="669.9" y2="720.6"/>
<line class="st13" x1="676.4" y1="720.6" x2="734.5" y2="720.6"/>
<line class="st13" x1="744" y1="720.6" x2="804.3" y2="720.6"/>
<g>
	<path class="st7" d="M602.9,818h-2.3c-15.5,0-28-12.6-28-28v-30.2c0-15.5,12.6-28,28-28h2.3c15.5,0,28,12.6,28,28V790
		C631,805.5,618.4,818,602.9,818z"/>
</g>
<g>
	<path class="st8" d="M594.9,812.7c-14.4,0-26-11.7-26-26v-30.2c0-14.4,11.7-26,26-26h2.3c14.4,0,26,11.7,26,26v30.2
		c0,14.4-11.7,26-26,26H594.9z"/>
	<path d="M597.2,732.4c13.3,0,24,10.8,24,24v30.2c0,13.3-10.8,24-24,24h-2.3c-13.3,0-24-10.8-24-24v-30.2c0-13.3,10.8-24,24-24
		H597.2 M597.2,728.4h-2.3c-15.5,0-28,12.6-28,28v30.2c0,15.5,12.6,28,28,28h2.3c15.5,0,28-12.6,28-28v-30.2
		C625.3,741,612.7,728.4,597.2,728.4L597.2,728.4z"/>
</g>
<g>
	<path class="st7" d="M684.7,818h-2.3c-15.5,0-28-12.6-28-28v-30.2c0-15.5,12.6-28,28-28h2.3c15.5,0,28,12.6,28,28V790
		C712.8,805.5,700.2,818,684.7,818z"/>
</g>
<g>
	<path class="st8" d="M676.7,812.7c-14.4,0-26-11.7-26-26v-30.2c0-14.4,11.7-26,26-26h2.3c14.4,0,26,11.7,26,26v30.2
		c0,14.4-11.7,26-26,26H676.7z"/>
	<path d="M679,732.4c13.3,0,24,10.8,24,24v30.2c0,13.3-10.8,24-24,24h-2.3c-13.3,0-24-10.8-24-24v-30.2c0-13.3,10.8-24,24-24H679
		 M679,728.4h-2.3c-15.5,0-28,12.6-28,28v30.2c0,15.5,12.6,28,28,28h2.3c15.5,0,28-12.6,28-28v-30.2
		C707.1,741,694.5,728.4,679,728.4L679,728.4z"/>
</g>
<g>
	<path class="st7" d="M764.5,818h-2.3c-15.5,0-28-12.6-28-28v-30.2c0-15.5,12.6-28,28-28h2.3c15.5,0,28,12.6,28,28V790
		C792.6,805.5,780,818,764.5,818z"/>
</g>
<g>
	<path class="st8" d="M756.5,812.7c-14.4,0-26-11.7-26-26v-30.2c0-14.4,11.7-26,26-26h2.3c14.4,0,26,11.7,26,26v30.2
		c0,14.4-11.7,26-26,26H756.5z"/>
	<path d="M758.8,732.4c13.3,0,24,10.8,24,24v30.2c0,13.3-10.8,24-24,24h-2.3c-13.3,0-24-10.8-24-24v-30.2c0-13.3,10.8-24,24-24
		H758.8 M758.8,728.4h-2.3c-15.5,0-28,12.6-28,28v30.2c0,15.5,12.6,28,28,28h2.3c15.5,0,28-12.6,28-28v-30.2
		C786.8,741,774.3,728.4,758.8,728.4L758.8,728.4z"/>
</g>
<g>
	<path class="st7" d="M839.9,818h-2.3c-15.5,0-28-12.6-28-28v-30.2c0-15.5,12.6-28,28-28h2.3c15.5,0,28,12.6,28,28V790
		C867.9,805.5,855.4,818,839.9,818z"/>
</g>
<g>
	<path class="st8" d="M831.8,812.7c-14.4,0-26-11.7-26-26v-30.2c0-14.4,11.7-26,26-26h2.3c14.4,0,26,11.7,26,26v30.2
		c0,14.4-11.7,26-26,26H831.8z"/>
	<path d="M834.2,732.4c13.3,0,24,10.8,24,24v30.2c0,13.3-10.8,24-24,24h-2.3c-13.3,0-24-10.8-24-24v-30.2c0-13.3,10.8-24,24-24
		H834.2 M834.2,728.4h-2.3c-15.5,0-28,12.6-28,28v30.2c0,15.5,12.6,28,28,28h2.3c15.5,0,28-12.6,28-28v-30.2
		C862.2,741,849.7,728.4,834.2,728.4L834.2,728.4z"/>
</g>
<path class="st14" d="M268.5,428.5c0,0,16,53,44,53s52-52,52-52"/>
<path class="st14" d="M705.5,478c0,0,13.5,44.3,44.3,44.3c30.8,0,44.5-44.5,44.5-44.5"/>
</svg>
