<?xml version="1.0" encoding="utf-8"?>
<!-- Generator: Adobe Illustrator 26.3.1, SVG Export Plug-In . SVG Version: 6.00 Build 0)  -->
<svg version="1.1" id="Layer_1" xmlns="http://www.w3.org/2000/svg" xmlns:xlink="http://www.w3.org/1999/xlink" x="0px" y="0px"
	 viewBox="0 0 1000 1000" style="enable-background:new 0 0 1000 1000;" xml:space="preserve">
<style type="text/css">
	.st0{fill:#B3B3B3;}
	.st1{fill:#FFFFFF;}
	.st2{fill:#B3B3B3;stroke:#000000;stroke-width:3;stroke-miterlimit:10;}
	.st3{stroke:#000000;stroke-width:5;stroke-miterlimit:10;}
	.st4{fill:#808080;stroke:#999999;stroke-width:5;stroke-miterlimit:10;}
	.st5{fill:none;stroke:#999999;stroke-width:2;stroke-miterlimit:10;}
	.st6{stroke:#000000;stroke-width:8;stroke-miterlimit:10;}
	.st7{fill:#808080;stroke:#808080;stroke-width:5;stroke-miterlimit:10;}
	.st8{fill:none;stroke:#000000;stroke-width:6;stroke-miterlimit:10;}
	.st9{fill:none;stroke:#000000;stroke-width:9;stroke-miterlimit:10;}
	.st10{fill:#E6E6E6;stroke:#E6E6E6;stroke-width:5;stroke-miterlimit:10;}
	.st11{fill:#808080;stroke:#E6E6E6;stroke-width:5;stroke-miterlimit:10;}
	.st12{fill:#FFFFFF;stroke:#000000;stroke-width:6;stroke-miterlimit:10;}
	.st13{fill:none;stroke:#000000;stroke-width:7;stroke-miterlimit:10;}
	.st14{fill:none;stroke:#E6E6E6;stroke-width:6;stroke-miterlimit:10;}
</style>
<g>
	<path class="st0" d="M711.8,459.7h-591c-25.5,0-46.1-20.6-46.1-46.1V183.2c0-25.5,20.6-46.1,46.1-46.1h591
		c25.5,0,46.1,20.6,46.1,46.1v230.4C757.9,439,737.3,459.7,711.8,459.7z"/>
</g>
<g>
	<path class="st1" d="M97,425.2c-23.8,0-43.1-19.3-43.1-43.1V151.7c0-23.8,19.3-43.1,43.1-43.1h591c23.8,0,43.1,19.3,43.1,43.1
		v230.4c0,23.8-19.3,43.1-43.1,43.1H97z"/>
	<path d="M687.9,111.6c22.1,0,40.1,18,40.1,40.1v230.4c0,22.1-18,40.1-40.1,40.1H97c-22.1,0-40.1-18-40.1-40.1V151.7
		c0-22.1,18-40.1,40.1-40.1H687.9 M687.9,105.6H97c-25.5,0-46.1,20.6-46.1,46.1v230.4c0,25.5,20.6,46.1,46.1,46.1h591
		c25.5,0,46.1-20.6,46.1-46.1V151.7C734,126.3,713.4,105.6,687.9,105.6L687.9,105.6z"/>
</g>
<line class="st2" x1="50.9" y1="157" x2="734" y2="157"/>
<line class="st3" x1="94.6" y1="133" x2="219" y2="133"/>
<line class="st4" x1="321.5" y1="133" x2="366.7" y2="133"/>
<line class="st4" x1="385.8" y1="133" x2="476.3" y2="133"/>
<line class="st4" x1="492.4" y1="133" x2="538.5" y2="133"/>
<line class="st4" x1="558.1" y1="133" x2="621.5" y2="133"/>
<circle class="st5" cx="672.9" cy="133" r="14.1"/>
<line class="st6" x1="305.8" y1="183.1" x2="492.4" y2="183.1"/>
<line class="st7" x1="268.3" y1="203" x2="392.4" y2="203"/>
<line class="st7" x1="400.2" y1="203" x2="440.4" y2="203"/>
<line class="st7" x1="450.6" y1="203" x2="530" y2="203"/>
<line class="st7" x1="282.3" y1="212.7" x2="392.4" y2="212.7"/>
<line class="st7" x1="400.2" y1="212.7" x2="467.2" y2="212.7"/>
<line class="st7" x1="473.3" y1="212.7" x2="499.8" y2="212.7"/>
<line class="st7" x1="278.8" y1="221.3" x2="326.1" y2="221.3"/>
<line class="st7" x1="337.4" y1="221.3" x2="424.9" y2="221.3"/>
<line class="st7" x1="433.7" y1="221.3" x2="503.8" y2="221.3"/>
<line class="st7" x1="268.3" y1="229" x2="319.7" y2="229"/>
<line class="st7" x1="330.4" y1="229" x2="473.3" y2="229"/>
<line class="st7" x1="480.4" y1="229" x2="530" y2="229"/>
<line class="st7" x1="268.3" y1="237.3" x2="385.8" y2="237.3"/>
<line class="st7" x1="392.4" y1="237.3" x2="450.6" y2="237.3"/>
<line class="st7" x1="460.2" y1="237.3" x2="522.4" y2="237.3"/>
<line class="st7" x1="253.5" y1="247" x2="319.7" y2="247"/>
<line class="st7" x1="330.4" y1="247" x2="424.9" y2="247"/>
<line class="st7" x1="440.4" y1="247" x2="538.5" y2="247"/>
<g>
	<path class="st0" d="M228.4,405.5h-38.9c-15.5,0-28-12.6-28-28v-84.3c0-15.5,12.6-28,28-28h38.9c15.5,0,28,12.6,28,28v84.3
		C256.5,393,243.9,405.5,228.4,405.5z"/>
</g>
<g>
	<path class="st1" d="M180.2,398.1c-14.4,0-26-11.7-26-26v-84.3c0-14.4,11.7-26,26-26h38.9c14.4,0,26,11.7,26,26v84.3
		c0,14.4-11.7,26-26,26H180.2z"/>
	<path d="M219.1,263.8c13.3,0,24,10.8,24,24v84.3c0,13.3-10.8,24-24,24h-38.9c-13.3,0-24-10.8-24-24v-84.3c0-13.3,10.8-24,24-24
		H219.1 M219.1,259.8h-38.9c-15.5,0-28,12.6-28,28v84.3c0,15.5,12.6,28,28,28h38.9c15.5,0,28-12.6,28-28v-84.3
		C247.2,272.3,234.6,259.8,219.1,259.8L219.1,259.8z"/>
</g>
<g>
	<path class="st0" d="M361.5,405.5h-38.9c-15.5,0-28-12.6-28-28v-84.3c0-15.5,12.6-28,28-28h38.9c15.5,0,28,12.6,28,28v84.3
		C389.5,393,377,405.5,361.5,405.5z"/>
</g>
<g>
	<path class="st1" d="M313.3,398.1c-14.4,0-26-11.7-26-26v-84.3c0-14.4,11.7-26,26-26h38.9c14.4,0,26,11.7,26,26v84.3
		c0,14.4-11.7,26-26,26H313.3z"/>
	<path d="M352.2,263.8c13.3,0,24,10.8,24,24v84.3c0,13.3-10.8,24-24,24h-38.9c-13.3,0-24-10.8-24-24v-84.3c0-13.3,10.8-24,24-24
		H352.2 M352.2,259.8h-38.9c-15.5,0-28,12.6-28,28v84.3c0,15.5,12.6,28,28,28h38.9c15.5,0,28-12.6,28-28v-84.3
		C380.2,272.3,367.7,259.8,352.2,259.8L352.2,259.8z"/>
</g>
<g>
	<path class="st0" d="M491.3,405.5h-38.9c-15.5,0-28-12.6-28-28v-84.3c0-15.5,12.6-28,28-28h38.9c15.5,0,28,12.6,28,28v84.3
		C519.3,393,506.8,405.5,491.3,405.5z"/>
</g>
<g>
	<path class="st1" d="M443.1,398.1c-14.4,0-26-11.7-26-26v-84.3c0-14.4,11.7-26,26-26H482c14.4,0,26,11.7,26,26v84.3
		c0,14.4-11.7,26-26,26H443.1z"/>
	<path d="M482,263.8c13.3,0,24,10.8,24,24v84.3c0,13.3-10.8,24-24,24h-38.9c-13.3,0-24-10.8-24-24v-84.3c0-13.3,10.8-24,24-24H482
		 M482,259.8h-38.9c-15.5,0-28,12.6-28,28v84.3c0,15.5,12.6,28,28,28H482c15.5,0,28-12.6,28-28v-84.3
		C510,272.3,497.5,259.8,482,259.8L482,259.8z"/>
</g>
<g>
	<path class="st0" d="M613.9,405.5H575c-15.5,0-28-12.6-28-28v-84.3c0-15.5,12.6-28,28-28h38.9c15.5,0,28,12.6,28,28v84.3
		C642,393,629.4,405.5,613.9,405.5z"/>
</g>
<g>
	<path class="st1" d="M565.7,398.1c-14.4,0-26-11.7-26-26v-84.3c0-14.4,11.7-26,26-26h38.9c14.4,0,26,11.7,26,26v84.3
		c0,14.4-11.7,26-26,26H565.7z"/>
	<path d="M604.6,263.8c13.3,0,24,10.8,24,24v84.3c0,13.3-10.8,24-24,24h-38.9c-13.3,0-24-10.8-24-24v-84.3c0-13.3,10.8-24,24-24
		H604.6 M604.6,259.8h-38.9c-15.5,0-28,12.6-28,28v84.3c0,15.5,12.6,28,28,28h38.9c15.5,0,28-12.6,28-28v-84.3
		C632.6,272.3,620.1,259.8,604.6,259.8L604.6,259.8z"/>
</g>
<g>
	<path class="st0" d="M717.6,909h-591c-25.5,0-46.1-20.6-46.1-46.1V632.5c0-25.5,20.6-46.1,46.1-46.1h591
		c25.5,0,46.1,20.6,46.1,46.1v230.4C763.7,888.4,743,909,717.6,909z"/>
</g>
<g>
	<path class="st1" d="M102.8,874.6c-23.8,0-43.1-19.3-43.1-43.1V601.1c0-23.8,19.3-43.1,43.1-43.1h591c23.8,0,43.1,19.3,43.1,43.1
		v230.4c0,23.8-19.3,43.1-43.1,43.1H102.8z"/>
	<path d="M693.7,561c22.1,0,40.1,18,40.1,40.1v230.4c0,22.1-18,40.1-40.1,40.1h-591c-22.1,0-40.1-18-40.1-40.1V601.1
		c0-22.1,18-40.1,40.1-40.1H693.7 M693.7,555h-591c-25.5,0-46.1,20.6-46.1,46.1v230.4c0,25.5,20.6,46.1,46.1,46.1h591
		c25.5,0,46.1-20.6,46.1-46.1V601.1C739.8,575.6,719.2,555,693.7,555L693.7,555z"/>
</g>
<line class="st2" x1="56.7" y1="606.4" x2="739.8" y2="606.4"/>
<line class="st4" x1="327.6" y1="585.9" x2="372.3" y2="578.9"/>
<line class="st4" x1="498.2" y1="582.4" x2="544.3" y2="582.4"/>
<line class="st4" x1="600.7" y1="582.4" x2="627.3" y2="582.4"/>
<line class="st4" x1="578.6" y1="578.9" x2="590.5" y2="585.9"/>
<line class="st7" x1="274.1" y1="652.4" x2="398.2" y2="652.4"/>
<line class="st7" x1="406" y1="652.4" x2="446.2" y2="652.4"/>
<line class="st7" x1="456.4" y1="652.4" x2="535.8" y2="652.4"/>
<line class="st7" x1="406" y1="662" x2="473" y2="662"/>
<line class="st7" x1="479.7" y1="658.1" x2="505" y2="665.9"/>
<line class="st7" x1="284.6" y1="670.7" x2="331.9" y2="670.7"/>
<line class="st7" x1="343.2" y1="670.7" x2="430.7" y2="670.7"/>
<line class="st7" x1="274.4" y1="674.6" x2="325.3" y2="682"/>
<line class="st7" x1="336.3" y1="682.6" x2="479" y2="674"/>
<line class="st7" x1="486.6" y1="682.8" x2="535.4" y2="673.8"/>
<line class="st7" x1="398.2" y1="686.7" x2="456.4" y2="686.7"/>
<line class="st7" x1="259.3" y1="696.4" x2="325.5" y2="696.4"/>
<line class="st7" x1="336.2" y1="696.4" x2="430.7" y2="696.4"/>
<line class="st7" x1="446.2" y1="696.4" x2="544.3" y2="696.4"/>
<polyline class="st8" points="56.7,800.8 129.8,729.7 202,765.2 252.9,714.5 "/>
<g>
	<path class="st0" d="M234.2,854.9h-38.9c-15.5,0-28-12.6-28-28v-84.3c0-15.5,12.6-28,28-28h38.9c15.5,0,28,12.6,28,28v84.3
		C262.3,842.3,249.7,854.9,234.2,854.9z"/>
</g>
<g>
	<path class="st1" d="M186,847.5c-14.4,0-26-11.7-26-26v-84.3c0-14.4,11.7-26,26-26h38.9c14.4,0,26,11.7,26,26v84.3
		c0,14.4-11.7,26-26,26H186z"/>
	<path d="M224.9,713.1c13.3,0,24,10.8,24,24v84.3c0,13.3-10.8,24-24,24H186c-13.3,0-24-10.8-24-24v-84.3c0-13.3,10.8-24,24-24H224.9
		 M224.9,709.1H186c-15.5,0-28,12.6-28,28v84.3c0,15.5,12.6,28,28,28h38.9c15.5,0,28-12.6,28-28v-84.3
		C252.9,721.7,240.4,709.1,224.9,709.1L224.9,709.1z"/>
</g>
<g>
	<path class="st0" d="M367.3,854.9h-38.9c-15.5,0-28-12.6-28-28v-84.3c0-15.5,12.6-28,28-28h38.9c15.5,0,28,12.6,28,28v84.3
		C395.3,842.3,382.8,854.9,367.3,854.9z"/>
</g>
<g>
	<path class="st1" d="M319.1,847.5c-14.4,0-26-11.7-26-26v-84.3c0-14.4,11.7-26,26-26H358c14.4,0,26,11.7,26,26v84.3
		c0,14.4-11.7,26-26,26H319.1z"/>
	<path d="M358,713.1c13.3,0,24,10.8,24,24v84.3c0,13.3-10.8,24-24,24h-38.9c-13.3,0-24-10.8-24-24v-84.3c0-13.3,10.8-24,24-24H358
		 M358,709.1h-38.9c-15.5,0-28,12.6-28,28v84.3c0,15.5,12.6,28,28,28H358c15.5,0,28-12.6,28-28v-84.3
		C386,721.7,373.5,709.1,358,709.1L358,709.1z"/>
</g>
<g>
	<path class="st0" d="M619.7,854.9h-38.9c-15.5,0-28-12.6-28-28v-84.3c0-15.5,12.6-28,28-28h38.9c15.5,0,28,12.6,28,28v84.3
		C647.8,842.3,635.2,854.9,619.7,854.9z"/>
</g>
<g>
	<path class="st1" d="M571.5,847.5c-14.4,0-26-11.7-26-26v-84.3c0-14.4,11.7-26,26-26h38.9c14.4,0,26,11.7,26,26v84.3
		c0,14.4-11.7,26-26,26H571.5z"/>
	<path d="M610.4,713.1c13.3,0,24,10.8,24,24v84.3c0,13.3-10.8,24-24,24h-38.9c-13.3,0-24-10.8-24-24v-84.3c0-13.3,10.8-24,24-24
		H610.4 M610.4,709.1h-38.9c-15.5,0-28,12.6-28,28v84.3c0,15.5,12.6,28,28,28h38.9c15.5,0,28-12.6,28-28v-84.3
		C638.4,721.7,625.9,709.1,610.4,709.1L610.4,709.1z"/>
</g>
<path class="st9" d="M805.2,265.2c0,0,152.5,56.8,157.2,253.2S847.5,758.8,847.5,758.8"/>
<path class="st9" d="M845.7,704.6c0,0-36.5,18-26.8,58.2c9.7,40.2,44.1,32.6,44.1,32.6"/>
<line class="st10" x1="105" y1="577.6" x2="154.6" y2="649.8"/>
<line class="st3" x1="102.6" y1="577.6" x2="152.1" y2="649.8"/>
<line class="st11" x1="471.3" y1="584.8" x2="430.7" y2="624.5"/>
<line class="st4" x1="470.7" y1="582.4" x2="430.1" y2="622.1"/>
<polyline class="st8" points="737.6,634.8 663.5,655.6 642,699.5 578.8,671.7 "/>
<polyline class="st8" points="157.9,559.5 202,624.5 187.5,642.7 197,667.1 "/>
<polyline class="st12" points="486.6,875.5 505,795.8 466.3,769.5 486.6,762.9 500,740.4 "/>
<g>
	<circle class="st0" cx="846.1" cy="534.6" r="77.3"/>
</g>
<circle class="st12" cx="834.1" cy="519.6" r="77.3"/>
<path class="st13" d="M829.2,527.4"/>
<polyline class="st14" points="838.1,490.5 838.1,531.6 850.5,544 "/>
<polyline class="st13" points="835.4,490.5 835.4,531.6 847.9,544 "/>
</svg>
