<?xml version="1.0" encoding="utf-8"?>
<!-- Generator: Adobe Illustrator 26.3.1, SVG Export Plug-In . SVG Version: 6.00 Build 0)  -->
<svg version="1.1" id="Layer_1" xmlns="http://www.w3.org/2000/svg" xmlns:xlink="http://www.w3.org/1999/xlink" x="0px" y="0px"
	 viewBox="0 0 1000 1000" style="enable-background:new 0 0 1000 1000;" xml:space="preserve">
<style type="text/css">
	.st0{fill:none;stroke:#000000;stroke-width:6;stroke-miterlimit:10;}
	.st1{fill:#B3B3B3;}
	.st2{fill:#FFFFFF;stroke:#000000;stroke-width:6;stroke-miterlimit:10;}
	.st3{fill:none;stroke:#B3B3B3;stroke-width:3;stroke-miterlimit:10;}
	.st4{stroke:#000000;stroke-width:6;stroke-miterlimit:10;}
</style>
<path class="st0" d="M562.4,390.7c0,0,82-122.2,197.6-122.2s105-73,105-73"/>
<path class="st1" d="M833.5,376.7c0.3,34.1,0.7,68.2,1.1,102.4L619.4,694.4H144.5V590.9c79.5-71.3,159-142.4,238.5-213.7
	C533.2,377.1,683.4,376.9,833.5,376.7z"/>
<path class="st2" d="M155.7,683.2"/>
<path class="st2" d="M819.7,358.5c0.3,34.1,0.7,68.2,1.1,102.4L605.5,676.2H130.7V572.6c79.5-71.3,159-142.4,238.5-213.7
	C519.3,358.9,669.5,358.7,819.7,358.5z"/>
<line class="st3" x1="605.3" y1="624.9" x2="819.3" y2="410.8"/>
<path class="st2" d="M826.5,332.4"/>
<polyline class="st2" points="819.7,358.5 605.5,572.6 130.7,572.6 "/>
<line class="st0" x1="605.3" y1="572.6" x2="605.3" y2="676.2"/>
<circle class="st2" cx="184" cy="624.4" r="10.6"/>
<line class="st0" x1="208.4" y1="624.4" x2="259.3" y2="624.4"/>
<line class="st0" x1="270.5" y1="624.4" x2="314.1" y2="624.4"/>
<circle class="st4" cx="481.1" cy="624.9" r="8.5"/>
<circle class="st4" cx="515.6" cy="624.9" r="8.5"/>
<circle class="st4" cx="550.1" cy="624.4" r="8.5"/>
<path class="st3" d="M221.8,554.7"/>
<path class="st3" d="M596.4,554.7"/>
<rect x="817.6" y="406.3" width="3.1" height="11.4"/>
</svg>
