<?xml version="1.0" encoding="utf-8"?>
<!-- Generator: Adobe Illustrator 26.3.1, SVG Export Plug-In . SVG Version: 6.00 Build 0)  -->
<svg version="1.1" id="Layer_1" xmlns="http://www.w3.org/2000/svg" xmlns:xlink="http://www.w3.org/1999/xlink" x="0px" y="0px"
	 viewBox="0 0 1000 1000" style="enable-background:new 0 0 1000 1000;" xml:space="preserve">
<style type="text/css">
	.st0{fill:none;stroke:#000000;stroke-width:6;stroke-miterlimit:10;}
	.st1{fill:#B3B3B3;}
	.st2{fill:#FFFFFF;stroke:#000000;stroke-width:6;stroke-miterlimit:10;}
	.st3{fill:none;stroke:#B3B3B3;stroke-width:3;stroke-miterlimit:10;}
	.st4{stroke:#000000;stroke-width:6;stroke-miterlimit:10;}
</style>
<path class="st0" d="M599.4,351.8c0,0,94-140.1,226.6-140.1S946.4,128,946.4,128"/>
<path class="st1" d="M910.3,335.8c0.4,39.1,0.8,78.2,1.3,117.4L664.8,700H120.3V581.3c91.2-81.7,182.3-163.3,273.5-245
	C566,336.2,738.2,336,910.3,335.8z"/>
<path class="st2" d="M133.1,687.2"/>
<path class="st2" d="M894.4,314.9c0.4,39.1,0.8,78.2,1.3,117.4L648.8,679.1H104.4V560.4c91.2-81.7,182.3-163.3,273.5-245
	C550,315.3,722.2,315.1,894.4,314.9z"/>
<line class="st3" x1="648.6" y1="620.3" x2="894" y2="374.9"/>
<path class="st2" d="M902.3,285"/>
<polyline class="st2" points="894.4,314.9 648.8,560.4 104.4,560.4 "/>
<line class="st2" x1="648.6" y1="560.4" x2="648.6" y2="679.1"/>
<circle class="st2" cx="165.6" cy="619.8" r="12.2"/>
<line class="st2" x1="193.5" y1="619.8" x2="251.9" y2="619.8"/>
<line class="st2" x1="264.8" y1="619.8" x2="314.7" y2="619.8"/>
<circle class="st4" cx="506.2" cy="620.3" r="9.8"/>
<circle class="st4" cx="545.8" cy="620.3" r="9.8"/>
<circle class="st4" cx="585.3" cy="619.8" r="9.8"/>
<path class="st3" d="M208.9,539.9"/>
<path class="st3" d="M638.4,539.9"/>
<rect x="892.1" y="369.7" width="3.6" height="13.1"/>
</svg>
