<?xml version="1.0" encoding="utf-8"?>
<!-- Generator: Adobe Illustrator 26.3.1, SVG Export Plug-In . SVG Version: 6.00 Build 0)  -->
<svg version="1.1" id="Layer_1" xmlns="http://www.w3.org/2000/svg" xmlns:xlink="http://www.w3.org/1999/xlink" x="0px" y="0px"
	 viewBox="0 0 1000 1000" style="enable-background:new 0 0 1000 1000;" xml:space="preserve">
<style type="text/css">
	.st0{fill:#B3B3B3;}
	.st1{fill:#FFFFFF;}
	.st2{fill:#FFFFFF;stroke:#000000;stroke-width:5;stroke-miterlimit:10;}
	.st3{fill:#FFFFFF;stroke:#999999;stroke-width:4;stroke-miterlimit:10;}
</style>
<g>
	<path class="st0" d="M95.8,707C70.5,707,50,686.5,50,661.2V312.8c0-25.3,20.5-45.8,45.8-45.8h832.4c25.3,0,45.8,20.5,45.8,45.8
		v348.4c0,25.3-20.5,45.8-45.8,45.8H95.8z"/>
	<path class="st0" d="M928.2,272c22.5,0,40.8,18.3,40.8,40.8v348.4c0,22.5-18.3,40.8-40.8,40.8H95.8C73.3,702,55,683.7,55,661.2
		V312.8c0-22.5,18.3-40.8,40.8-40.8H928.2 M928.2,262H95.8C67.7,262,45,284.7,45,312.8v348.4c0,28.1,22.7,50.8,50.8,50.8h832.4
		c28.1,0,50.8-22.7,50.8-50.8V312.8C979,284.7,956.3,262,928.2,262L928.2,262z"/>
</g>
<g>
	<path class="st1" d="M71.8,679C46.5,679,26,658.5,26,633.2V284.8c0-25.3,20.5-45.8,45.8-45.8h832.4c25.3,0,45.8,20.5,45.8,45.8
		v348.4c0,25.3-20.5,45.8-45.8,45.8H71.8z"/>
	<path d="M904.2,244c22.5,0,40.8,18.3,40.8,40.8v348.4c0,22.5-18.3,40.8-40.8,40.8H71.8C49.3,674,31,655.7,31,633.2V284.8
		c0-22.5,18.3-40.8,40.8-40.8H904.2 M904.2,234H71.8C43.7,234,21,256.7,21,284.8v348.4c0,28.1,22.7,50.8,50.8,50.8h832.4
		c28.1,0,50.8-22.7,50.8-50.8V284.8C955,256.7,932.3,234,904.2,234L904.2,234z"/>
</g>
<g>
	<path class="st0" d="M137.6,466c-11.3,0-20.6-9.2-20.6-20.6V336.6c0-11.3,9.2-20.6,20.6-20.6h108.8c11.3,0,20.6,9.2,20.6,20.6
		v108.8c0,11.3-9.2,20.6-20.6,20.6H137.6z"/>
	<g>
		<path class="st0" d="M246.4,321c8.6,0,15.6,7,15.6,15.6v108.8c0,8.6-7,15.6-15.6,15.6H137.6c-8.6,0-15.6-7-15.6-15.6V336.6
			c0-8.6,7-15.6,15.6-15.6H246.4 M246.4,311H137.6c-14.1,0-25.6,11.5-25.6,25.6v108.8c0,14.1,11.5,25.6,25.6,25.6h108.8
			c14.1,0,25.6-11.5,25.6-25.6V336.6C272,322.5,260.5,311,246.4,311L246.4,311z"/>
	</g>
</g>
<g>
	<path class="st1" d="M125.6,456.5c-12.7,0-23.1-10.4-23.1-23.1V324.6c0-12.7,10.4-23.1,23.1-23.1h108.8c12.7,0,23.1,10.4,23.1,23.1
		v108.8c0,12.7-10.4,23.1-23.1,23.1H125.6z"/>
	<g>
		<path d="M234.4,304c11.3,0,20.6,9.2,20.6,20.6v108.8c0,11.3-9.2,20.6-20.6,20.6H125.6c-11.3,0-20.6-9.2-20.6-20.6V324.6
			c0-11.3,9.2-20.6,20.6-20.6H234.4 M234.4,299H125.6c-14.1,0-25.6,11.5-25.6,25.6v108.8c0,14.1,11.5,25.6,25.6,25.6h108.8
			c14.1,0,25.6-11.5,25.6-25.6V324.6C260,310.5,248.5,299,234.4,299L234.4,299z"/>
	</g>
</g>
<g>
	<path class="st0" d="M343,636.4c-11.3,0-20.6-9.2-20.6-20.6V508.4c0-11.3,9.2-20.6,20.6-20.6h107.4c11.3,0,20.6,9.2,20.6,20.6
		v107.4c0,11.3-9.2,20.6-20.6,20.6H343z"/>
	<g>
		<path class="st0" d="M450.4,492.8c8.6,0,15.6,7,15.6,15.6v107.4c0,8.6-7,15.6-15.6,15.6H343c-8.6,0-15.6-7-15.6-15.6V508.4
			c0-8.6,7-15.6,15.6-15.6H450.4 M450.4,482.8H343c-14.1,0-25.6,11.5-25.6,25.6v107.4c0,14.1,11.5,25.6,25.6,25.6h107.4
			c14.1,0,25.6-11.5,25.6-25.6V508.4C476,494.3,464.5,482.8,450.4,482.8L450.4,482.8z"/>
	</g>
</g>
<g>
	<path class="st1" d="M331.1,627c-12.7,0-23.1-10.4-23.1-23.1V496.5c0-12.7,10.4-23.1,23.1-23.1h107.4c12.7,0,23.1,10.4,23.1,23.1
		V604c0,12.7-10.4,23.1-23.1,23.1H331.1z"/>
	<g>
		<path d="M438.5,475.9c11.3,0,20.6,9.2,20.6,20.6V604c0,11.3-9.2,20.6-20.6,20.6H331.1c-11.3,0-20.6-9.2-20.6-20.6V496.5
			c0-11.3,9.2-20.6,20.6-20.6H438.5 M438.5,470.9H331.1c-14.1,0-25.6,11.5-25.6,25.6V604c0,14.1,11.5,25.6,25.6,25.6h107.4
			c14.1,0,25.6-11.5,25.6-25.6V496.5C464.1,482.4,452.7,470.9,438.5,470.9L438.5,470.9z"/>
	</g>
</g>
<g>
	<path class="st0" d="M796.9,653c-11.3,0-20.6-9.2-20.6-20.6V490.9c0-11.3,9.2-20.6,20.6-20.6H850c11.3,0,20.6,9.2,20.6,20.6v141.5
		c0,11.3-9.2,20.6-20.6,20.6H796.9z"/>
	<g>
		<path class="st0" d="M850,475.4c8.6,0,15.6,7,15.6,15.6v141.5c0,8.6-7,15.6-15.6,15.6h-53.1c-8.6,0-15.6-7-15.6-15.6V490.9
			c0-8.6,7-15.6,15.6-15.6H850 M850,465.4h-53.1c-14.1,0-25.6,11.5-25.6,25.6v141.5c0,14.1,11.5,25.6,25.6,25.6H850
			c14.1,0,25.6-11.5,25.6-25.6V490.9C875.6,476.8,864.1,465.4,850,465.4L850,465.4z"/>
	</g>
</g>
<g>
	<path class="st1" d="M789.1,641.1c-12.7,0-23.1-10.4-23.1-23.1V476.5c0-12.7,10.4-23.1,23.1-23.1h53.1c12.7,0,23.1,10.4,23.1,23.1
		V618c0,12.7-10.4,23.1-23.1,23.1H789.1z"/>
	<g>
		<path d="M842.2,455.9c11.3,0,20.6,9.2,20.6,20.6V618c0,11.3-9.2,20.6-20.6,20.6h-53.1c-11.3,0-20.6-9.2-20.6-20.6V476.5
			c0-11.3,9.2-20.6,20.6-20.6H842.2 M842.2,450.9h-53.1c-14.1,0-25.6,11.5-25.6,25.6V618c0,14.1,11.5,25.6,25.6,25.6h53.1
			c14.1,0,25.6-11.5,25.6-25.6V476.5C867.7,462.4,856.3,450.9,842.2,450.9L842.2,450.9z"/>
	</g>
</g>
<g>
	<path class="st0" d="M651.9,406c-11.3,0-20.6-9.2-20.6-20.6v-53.1c0-11.3,9.2-20.6,20.6-20.6H705c11.3,0,20.6,9.2,20.6,20.6v53.1
		c0,11.3-9.2,20.6-20.6,20.6H651.9z"/>
	<g>
		<path class="st0" d="M705,316.8c8.6,0,15.6,7,15.6,15.6v53.1c0,8.6-7,15.6-15.6,15.6h-53.1c-8.6,0-15.6-7-15.6-15.6v-53.1
			c0-8.6,7-15.6,15.6-15.6H705 M705,306.8h-53.1c-14.1,0-25.6,11.5-25.6,25.6v53.1c0,14.1,11.5,25.6,25.6,25.6H705
			c14.1,0,25.6-11.5,25.6-25.6v-53.1C730.6,318.2,719.1,306.8,705,306.8L705,306.8z"/>
	</g>
</g>
<g>
	<path class="st1" d="M644.1,400.7c-12.7,0-23.1-10.4-23.1-23.1v-53.1c0-12.7,10.4-23.1,23.1-23.1h53.1c12.7,0,23.1,10.4,23.1,23.1
		v53.1c0,12.7-10.4,23.1-23.1,23.1H644.1z"/>
	<g>
		<path d="M697.2,303.9c11.3,0,20.6,9.2,20.6,20.6v53.1c0,11.3-9.2,20.6-20.6,20.6h-53.1c-11.3,0-20.6-9.2-20.6-20.6v-53.1
			c0-11.3,9.2-20.6,20.6-20.6H697.2 M697.2,298.9h-53.1c-14.1,0-25.6,11.5-25.6,25.6v53.1c0,14.1,11.5,25.6,25.6,25.6h53.1
			c14.1,0,25.6-11.5,25.6-25.6v-53.1C722.8,310.4,711.3,298.9,697.2,298.9L697.2,298.9z"/>
	</g>
</g>
<line class="st2" x1="289.5" y1="306.8" x2="384.8" y2="306.8"/>
<line class="st2" x1="401.5" y1="306.8" x2="512" y2="306.8"/>
<line class="st3" x1="289.5" y1="325" x2="343.5" y2="325"/>
<line class="st3" x1="355.5" y1="325" x2="431" y2="325"/>
<line class="st3" x1="441" y1="325" x2="512" y2="325"/>
<line class="st3" x1="524.1" y1="325" x2="564.2" y2="325"/>
<line class="st3" x1="289.5" y1="338.8" x2="372" y2="338.8"/>
<line class="st3" x1="380.5" y1="338.8" x2="467.1" y2="338.8"/>
<line class="st3" x1="479.5" y1="338.8" x2="556.3" y2="338.8"/>
<line class="st3" x1="289.5" y1="351.1" x2="358.2" y2="351.1"/>
<line class="st3" x1="369.3" y1="351.1" x2="431" y2="351.1"/>
<line class="st2" x1="490.7" y1="482.8" x2="544.2" y2="482.8"/>
<line class="st2" x1="552.4" y1="482.8" x2="642.9" y2="482.8"/>
<line class="st3" x1="493.3" y1="500" x2="552.4" y2="500"/>
<line class="st3" x1="564.2" y1="500" x2="642.9" y2="500"/>
<line class="st3" x1="651.4" y1="500" x2="694.7" y2="500"/>
<line class="st3" x1="493.3" y1="510.7" x2="577" y2="510.7"/>
<line class="st3" x1="586" y1="511" x2="684.9" y2="511"/>
<line class="st3" x1="493.3" y1="520.5" x2="570" y2="520.5"/>
<line class="st3" x1="577" y1="520.5" x2="684.9" y2="520.5"/>
<line class="st3" x1="493.3" y1="531.7" x2="535.2" y2="531.7"/>
<line class="st3" x1="541.2" y1="531.7" x2="603.5" y2="531.7"/>
<g>
	<circle class="st0" cx="820" cy="406" r="29"/>
	<g>
		<path class="st0" d="M820,382c13.2,0,24,10.8,24,24s-10.8,24-24,24s-24-10.8-24-24S806.8,382,820,382 M820,372
			c-18.8,0-34,15.2-34,34s15.2,34,34,34c18.8,0,34-15.2,34-34S838.8,372,820,372L820,372z"/>
	</g>
</g>
<g>
	<circle class="st1" cx="811" cy="401" r="31.5"/>
	<path d="M811,372c16,0,29,13,29,29s-13,29-29,29s-29-13-29-29S795,372,811,372 M811,367c-18.8,0-34,15.2-34,34s15.2,34,34,34
		s34-15.2,34-34S829.8,367,811,367L811,367z"/>
</g>
<line class="st2" x1="735.6" y1="264.3" x2="797.5" y2="264.3"/>
<line class="st2" x1="806.4" y1="264.3" x2="883.8" y2="264.3"/>
<line class="st3" x1="735.5" y1="276.5" x2="806.4" y2="276.5"/>
<line class="st3" x1="815.6" y1="276.5" x2="867.7" y2="276.5"/>
<line class="st3" x1="875.6" y1="276.5" x2="924.9" y2="276.5"/>
<line class="st3" x1="735.6" y1="288.1" x2="827" y2="288.1"/>
<line class="st3" x1="832.6" y1="288.1" x2="879" y2="288.1"/>
<line class="st3" x1="888" y1="288" x2="928" y2="288"/>
<line class="st3" x1="735.6" y1="298.9" x2="791.5" y2="298.9"/>
</svg>
