<?xml version="1.0" encoding="utf-8"?>
<!-- Generator: Adobe Illustrator 26.3.1, SVG Export Plug-In . SVG Version: 6.00 Build 0)  -->
<svg version="1.1" id="Layer_1" xmlns="http://www.w3.org/2000/svg" xmlns:xlink="http://www.w3.org/1999/xlink" x="0px" y="0px"
	 viewBox="0 0 1000 1000" style="enable-background:new 0 0 1000 1000;" xml:space="preserve">
<style type="text/css">
	.st0{fill:#CCCCCC;}
	.st1{fill:#FFFFFF;}
	.st2{fill:none;stroke:#000000;stroke-width:6;stroke-miterlimit:10;}
	.st3{fill:none;stroke:#999999;stroke-width:4;stroke-miterlimit:10;}
	.st4{fill:#CCCCCC;stroke:#CCCCCC;stroke-width:6;stroke-miterlimit:10;}
	.st5{fill:#FFFFFF;stroke:#000000;stroke-width:4;stroke-miterlimit:10;}
	.st6{fill:none;stroke:#000000;stroke-width:3;stroke-miterlimit:10;}
	.st7{fill:#B3B3B3;stroke:#B3B3B3;stroke-width:6;stroke-miterlimit:10;}
	.st8{fill:#FFFFFF;stroke:#000000;stroke-width:6;stroke-miterlimit:10;}
</style>
<g>
	<path class="st0" d="M551.4,552.4c-16.2,0-29.3-13.1-29.3-29.3V248.6c0-16.2,13.1-29.3,29.3-29.3h126.9c16.2,0,29.3,13.1,29.3,29.3
		v274.5c0,16.2-13.1,29.3-29.3,29.3H551.4z"/>
	<path class="st0" d="M678.3,221.6c14.9,0,27,12.1,27,27v274.5c0,14.9-12.1,27-27,27H551.4c-14.9,0-27-12.1-27-27V248.6
		c0-14.9,12.1-27,27-27H678.3 M678.3,217H551.4c-17.5,0-31.6,14.1-31.6,31.6v274.5c0,17.5,14.1,31.6,31.6,31.6h126.9
		c17.5,0,31.6-14.1,31.6-31.6V248.6C709.9,231.2,695.8,217,678.3,217L678.3,217z"/>
</g>
<g>
	<path class="st1" d="M536.4,541c-16.2,0-29.3-13.1-29.3-29.3V237.2c0-16.2,13.1-29.3,29.3-29.3h126.9c16.2,0,29.3,13.1,29.3,29.3
		v274.5c0,16.2-13.1,29.3-29.3,29.3H536.4z"/>
	<path d="M663.3,210.1c14.9,0,27,12.1,27,27v274.5c0,14.9-12.1,27-27,27H536.4c-14.9,0-27-12.1-27-27V237.2c0-14.9,12.1-27,27-27
		H663.3 M663.3,205.5H536.4c-17.5,0-31.6,14.1-31.6,31.6v274.5c0,17.5,14.1,31.6,31.6,31.6h126.9c17.5,0,31.6-14.1,31.6-31.6V237.2
		C695,219.7,680.8,205.5,663.3,205.5L663.3,205.5z"/>
</g>
<g>
	<ellipse transform="matrix(0.2298 -0.9732 0.9732 0.2298 181.5206 691.6006)" class="st1" cx="527.7" cy="231.1" rx="11" ry="11"/>
	<path d="M527.7,223.1c4.4,0,7.9,3.6,7.9,7.9c0,4.4-3.6,7.9-7.9,7.9c-4.4,0-8-3.5-8-7.9C519.7,226.8,523.3,223.1,527.7,223.1
		 M527.7,217c-7.8,0-14.1,6.3-14.1,14.1s6.3,14.1,14.1,14.1c7.7,0,14.1-6.3,14.1-14.1C541.8,223.3,535.4,217,527.7,217L527.7,217z"
		/>
</g>
<g>
	<circle class="st1" cx="562.9" cy="231.1" r="11"/>
	<path d="M562.9,223.1c4.4,0,7.9,3.6,7.9,7.9c0,4.4-3.6,7.9-7.9,7.9s-7.9-3.6-7.9-7.9C555,226.7,558.5,223.1,562.9,223.1 M562.9,217
		c-7.8,0-14.1,6.3-14.1,14.1s6.3,14.1,14.1,14.1s14.1-6.3,14.1-14C577,223.4,570.6,217,562.9,217L562.9,217z"/>
</g>
<g>
	<circle class="st1" cx="598.1" cy="231.1" r="11"/>
	<path d="M598.1,223.1c4.4,0,7.9,3.6,7.9,7.9c0,4.4-3.6,7.9-7.9,7.9s-7.9-3.6-7.9-7.9C590.1,226.7,593.7,223.1,598.1,223.1
		 M598.1,217c-7.8,0-14.1,6.3-14.1,14.1s6.3,14.1,14.1,14.1s14.1-6.3,14.1-14.1C612.1,223.3,605.9,217,598.1,217L598.1,217z"/>
</g>
<g>
	<circle class="st1" cx="635.1" cy="231.1" r="11"/>
	<path d="M635.1,223.1c4.4,0,7.9,3.6,7.9,7.9c0,4.4-3.6,7.9-7.9,7.9c-4.4,0-7.9-3.6-7.9-7.9C627.1,226.7,630.7,223.1,635.1,223.1
		 M635.1,217c-7.8,0-14.1,6.3-14.1,14.1s6.3,14.1,14.1,14.1c7.8,0,14.1-6.3,14.1-14.1C649.1,223.3,642.8,217,635.1,217L635.1,217z"
		/>
</g>
<g>
	<circle class="st1" cx="672" cy="231.1" r="11"/>
	<path d="M672,223.1c4.4,0,7.9,3.6,7.9,7.9c0,4.4-3.6,7.9-7.9,7.9c-4.4,0-7.9-3.5-7.9-7.9C664.1,226.8,667.7,223.1,672,223.1
		 M672,217c-7.8,0-14.1,6.3-14.1,14.1s6.3,14.1,14.1,14.1s14.1-6.3,14.1-14.1C686.1,223.3,679.8,217,672,217L672,217z"/>
</g>
<line class="st2" x1="524.1" y1="271.2" x2="581.2" y2="271.2"/>
<line class="st2" x1="585.8" y1="271.2" x2="613.8" y2="271.2"/>
<line class="st3" x1="524.1" y1="278.1" x2="571.7" y2="278.1"/>
<line class="st3" x1="576.1" y1="278.1" x2="595" y2="278.1"/>
<line class="st3" x1="599.9" y1="278.1" x2="618.2" y2="278.1"/>
<g>
	<path class="st0" d="M574.6,443.2c-20.5,0-37.1-16.7-37.1-37.1V337c0-20.5,16.7-37.1,37.1-37.1h69.1c20.5,0,37.1,16.7,37.1,37.1
		v69.1c0,20.5-16.7,37.1-37.1,37.1H574.6z"/>
	<path class="st0" d="M643.6,302.2c19.3,0,34.8,15.7,34.8,34.8v69.1c0,19.3-15.7,34.8-34.8,34.8h-69.1c-19.3,0-34.8-15.7-34.8-34.8
		V337c0-19.3,15.7-34.8,34.8-34.8H643.6 M643.6,297.6h-69.1c-21.8,0-39.4,17.7-39.4,39.4v69.1c0,21.8,17.7,39.4,39.4,39.4h69.1
		c21.8,0,39.4-17.7,39.4-39.4V337C683.1,315.2,665.4,297.6,643.6,297.6L643.6,297.6z"/>
</g>
<path class="st4" d="M530.4,541.6v-40.5c0-12.5,10.2-22.7,22.7-22.7h102.5c12.5,0,22.7,10.2,22.7,22.7v40.5"/>
<path class="st5" d="M632.6,437.1h-69.1c-21.8,0-39.4-17.7-39.4-39.4v-69.1c0-21.8,17.7-39.4,39.4-39.4h69.1
	c21.8,0,39.4,17.7,39.4,39.4v69.1C672,419.5,654.4,437.1,632.6,437.1z"/>
<path class="st5" d="M524.1,541.3v-44.5c0-12.5,10.2-22.7,22.7-22.7h102.5c12.5,0,22.7,10.2,22.7,22.7v44.8"/>
<line class="st2" x1="524.1" y1="456.6" x2="566.7" y2="456.6"/>
<line class="st2" x1="571.7" y1="456.6" x2="618.2" y2="456.6"/>
<line class="st3" x1="524.1" y1="465.3" x2="576.1" y2="465.3"/>
<line class="st3" x1="581.2" y1="465.3" x2="635.7" y2="465.3"/>
<g>
	<path d="M663.3,210.9c14.5,0,26.3,11.8,26.3,26.3v274.5c0,14.5-11.8,26.3-26.3,26.3H536.4c-14.5,0-26.3-11.8-26.3-26.3V237.2
		c0-14.5,11.8-26.3,26.3-26.3H663.3 M663.3,205.5H536.4c-17.5,0-31.6,14.1-31.6,31.6v274.5c0,17.5,14.1,31.6,31.6,31.6h126.9
		c17.5,0,31.6-14.1,31.6-31.6V237.2C695,219.7,680.8,205.5,663.3,205.5L663.3,205.5z"/>
</g>
<line class="st6" x1="506.5" y1="253.4" x2="695" y2="253.4"/>
<path class="st7" d="M216.6,762.9c0,0,4.3-127.8,50.4-127.8s43.9,127.8,43.9,127.8H216.6z"/>
<ellipse transform="matrix(3.327795e-02 -0.9994 0.9994 3.327795e-02 -360.7404 864.0874)" class="st7" cx="266.3" cy="618.5" rx="37.7" ry="37.7"/>
<path class="st8" d="M207.5,754c0,0,4.3-127.8,50.4-127.8S301.8,754,301.8,754H207.5z"/>
<ellipse transform="matrix(4.531445e-02 -0.999 0.999 4.531445e-02 -363.4063 839.0474)" class="st8" cx="257.3" cy="609.7" rx="37.7" ry="37.7"/>
<path class="st7" d="M324.8,746.3c0,0,3.7-111.3,43.9-111.3s38.2,111.3,38.2,111.3H324.8z"/>
<circle class="st7" cx="368.1" cy="620.5" r="32.9"/>
<path class="st8" d="M316.9,738.6c0,0,3.7-111.3,43.9-111.3s38.2,111.3,38.2,111.3H316.9z"/>
<circle class="st8" cx="360.2" cy="612.8" r="32.9"/>
<path class="st7" d="M364,778.2c0,0,4.3-127.8,50.4-127.8s43.9,127.8,43.9,127.8H364z"/>
<circle class="st7" cx="413.7" cy="633.9" r="37.7"/>
<path class="st8" d="M354.9,769.3c0,0,4.3-127.8,50.4-127.8s43.9,127.8,43.9,127.8H354.9z"/>
<circle class="st8" cx="404.7" cy="625" r="37.7"/>
<path class="st7" d="M520,754.9c0,0,4.3-127.8,50.4-127.8c46.1,0,43.9,127.8,43.9,127.8H520z"/>
<circle class="st7" cx="569.6" cy="610.6" r="37.7"/>
<path class="st8" d="M510.9,746c0,0,4.3-127.8,50.4-127.8c46.1,0,43.9,127.8,43.9,127.8H510.9z"/>
<circle class="st8" cx="560.6" cy="601.7" r="37.7"/>
</svg>
