<?xml version="1.0" encoding="utf-8"?>
<!-- Generator: Adobe Illustrator 26.3.1, SVG Export Plug-In . SVG Version: 6.00 Build 0)  -->
<svg version="1.1" id="Layer_1" xmlns="http://www.w3.org/2000/svg" xmlns:xlink="http://www.w3.org/1999/xlink" x="0px" y="0px"
	 viewBox="0 0 1000 1000" style="enable-background:new 0 0 1000 1000;" xml:space="preserve">
<style type="text/css">
	.st0{fill:#CCCCCC;}
	.st1{fill:#FFFFFF;}
	.st2{fill:#FFFFFF;stroke:#000000;stroke-width:6;stroke-miterlimit:10;}
	.st3{fill:#FFFFFF;stroke:#999999;stroke-width:4;stroke-miterlimit:10;}
	.st4{fill:#CCCCCC;stroke:#CCCCCC;stroke-width:6;stroke-miterlimit:10;}
	.st5{fill:#FFFFFF;stroke:#000000;stroke-width:4;stroke-miterlimit:10;}
	.st6{fill:none;stroke:#000000;stroke-width:3;stroke-miterlimit:10;}
	.st7{fill:#B3B3B3;stroke:#B3B3B3;stroke-width:6;stroke-miterlimit:10;}
</style>
<g>
	<path class="st0" d="M537.5,481.4c-21.2,0-38.4-17.2-38.4-38.4V83.8c0-21.2,17.2-38.4,38.4-38.4h166.1c21.2,0,38.4,17.2,38.4,38.4
		V443c0,21.2-17.2,38.4-38.4,38.4H537.5z"/>
	<path class="st0" d="M703.6,48.4c19.5,0,35.4,15.9,35.4,35.4V443c0,19.5-15.9,35.4-35.4,35.4H537.5c-19.5,0-35.4-15.9-35.4-35.4
		V83.8c0-19.5,15.9-35.4,35.4-35.4H703.6 M703.6,42.4H537.5c-22.9,0-41.4,18.5-41.4,41.4V443c0,22.9,18.5,41.4,41.4,41.4h166.1
		c22.9,0,41.4-18.5,41.4-41.4V83.8C745,61,726.5,42.4,703.6,42.4L703.6,42.4z"/>
</g>
<g>
	<path class="st1" d="M517.9,466.4c-21.2,0-38.4-17.2-38.4-38.4V68.8c0-21.2,17.2-38.4,38.4-38.4H684c21.2,0,38.4,17.2,38.4,38.4
		V428c0,21.2-17.2,38.4-38.4,38.4H517.9z"/>
	<path d="M684,33.4c19.5,0,35.4,15.9,35.4,35.4V428c0,19.5-15.9,35.4-35.4,35.4H517.9c-19.5,0-35.4-15.9-35.4-35.4V68.8
		c0-19.5,15.9-35.4,35.4-35.4H684 M684,27.4H517.9c-22.9,0-41.4,18.5-41.4,41.4V428c0,22.9,18.5,41.4,41.4,41.4H684
		c22.9,0,41.4-18.5,41.4-41.4V68.8C725.4,46,706.9,27.4,684,27.4L684,27.4z"/>
</g>
<g>
	<circle class="st1" cx="506.5" cy="60.9" r="14.4"/>
	<path d="M506.5,50.4c5.8,0,10.4,4.7,10.4,10.4s-4.7,10.4-10.4,10.4S496,66.6,496,60.9S500.7,50.4,506.5,50.4 M506.5,42.4
		c-10.2,0-18.4,8.3-18.4,18.4s8.3,18.4,18.4,18.4s18.4-8.3,18.4-18.4S516.6,42.4,506.5,42.4L506.5,42.4z"/>
</g>
<g>
	<circle class="st1" cx="552.6" cy="60.9" r="14.4"/>
	<path d="M552.6,50.4c5.8,0,10.4,4.7,10.4,10.4s-4.7,10.4-10.4,10.4s-10.4-4.7-10.4-10.4S546.8,50.4,552.6,50.4 M552.6,42.4
		c-10.2,0-18.4,8.3-18.4,18.4s8.3,18.4,18.4,18.4S571,71,571,60.9S562.7,42.4,552.6,42.4L552.6,42.4z"/>
</g>
<g>
	<circle class="st1" cx="598.6" cy="60.9" r="14.4"/>
	<path d="M598.6,50.4c5.8,0,10.4,4.7,10.4,10.4s-4.7,10.4-10.4,10.4s-10.4-4.7-10.4-10.4S592.9,50.4,598.6,50.4 M598.6,42.4
		c-10.2,0-18.4,8.3-18.4,18.4s8.3,18.4,18.4,18.4s18.4-8.3,18.4-18.4S608.8,42.4,598.6,42.4L598.6,42.4z"/>
</g>
<g>
	<circle class="st1" cx="647" cy="60.9" r="14.4"/>
	<path d="M647,50.4c5.8,0,10.4,4.7,10.4,10.4s-4.7,10.4-10.4,10.4s-10.4-4.7-10.4-10.4S641.3,50.4,647,50.4 M647,42.4
		c-10.2,0-18.4,8.3-18.4,18.4s8.3,18.4,18.4,18.4c10.2,0,18.4-8.3,18.4-18.4S657.2,42.4,647,42.4L647,42.4z"/>
</g>
<g>
	<circle class="st1" cx="695.4" cy="60.9" r="14.4"/>
	<path d="M695.4,50.4c5.8,0,10.4,4.7,10.4,10.4s-4.7,10.4-10.4,10.4S685,66.6,685,60.9S689.7,50.4,695.4,50.4 M695.4,42.4
		c-10.2,0-18.4,8.3-18.4,18.4s8.3,18.4,18.4,18.4s18.4-8.3,18.4-18.4S705.6,42.4,695.4,42.4L695.4,42.4z"/>
</g>
<line class="st2" x1="501.8" y1="113.3" x2="576.5" y2="113.3"/>
<line class="st2" x1="582.5" y1="113.3" x2="619.2" y2="113.3"/>
<line class="st3" x1="501.8" y1="122.4" x2="564.1" y2="122.4"/>
<line class="st3" x1="569.8" y1="122.4" x2="594.6" y2="122.4"/>
<line class="st3" x1="601" y1="122.4" x2="625" y2="122.4"/>
<g>
	<path class="st0" d="M567.9,338.5c-26.8,0-48.6-21.8-48.6-48.6v-90.4c0-26.8,21.8-48.6,48.6-48.6h90.4c26.8,0,48.6,21.8,48.6,48.6
		v90.4c0,26.8-21.8,48.6-48.6,48.6H567.9z"/>
	<path class="st0" d="M658.2,153.9c25.2,0,45.6,20.5,45.6,45.6v90.4c0,25.2-20.5,45.6-45.6,45.6h-90.4c-25.2,0-45.6-20.5-45.6-45.6
		v-90.4c0-25.2,20.5-45.6,45.6-45.6H658.2 M658.2,147.9h-90.4c-28.5,0-51.6,23.1-51.6,51.6v90.4c0,28.5,23.1,51.6,51.6,51.6h90.4
		c28.5,0,51.6-23.1,51.6-51.6v-90.4C709.9,171,686.7,147.9,658.2,147.9L658.2,147.9z"/>
</g>
<path class="st4" d="M510,467.2v-53c0-16.4,13.3-29.7,29.7-29.7h134.1c16.4,0,29.7,13.3,29.7,29.7v53"/>
<path class="st5" d="M643.8,330.5h-90.4c-28.5,0-51.6-23.1-51.6-51.6v-90.4c0-28.5,23.1-51.6,51.6-51.6h90.4
	c28.5,0,51.6,23.1,51.6,51.6v90.4C695.4,307.4,672.3,330.5,643.8,330.5z"/>
<path class="st5" d="M501.8,466.9v-58.2c0-16.4,13.3-29.7,29.7-29.7h134.1c16.4,0,29.7,13.3,29.7,29.7v58.6"/>
<line class="st2" x1="501.8" y1="356" x2="557.5" y2="356"/>
<line class="st2" x1="564.1" y1="356" x2="625" y2="356"/>
<line class="st3" x1="501.8" y1="367.4" x2="569.8" y2="367.4"/>
<line class="st3" x1="576.5" y1="367.4" x2="647.9" y2="367.4"/>
<g>
	<path d="M684,34.4c19,0,34.4,15.4,34.4,34.4V428c0,19-15.4,34.4-34.4,34.4H517.9c-19,0-34.4-15.4-34.4-34.4V68.8
		c0-19,15.4-34.4,34.4-34.4H684 M684,27.4H517.9c-22.9,0-41.4,18.5-41.4,41.4V428c0,22.9,18.5,41.4,41.4,41.4H684
		c22.9,0,41.4-18.5,41.4-41.4V68.8C725.4,46,706.9,27.4,684,27.4L684,27.4z"/>
</g>
<line class="st6" x1="478.8" y1="90" x2="725.4" y2="90"/>
<path class="st7" d="M99.3,756.8c0,0,5.6-167.2,65.9-167.2s57.4,167.2,57.4,167.2H99.3z"/>
<circle class="st7" cx="164.4" cy="567.9" r="49.4"/>
<path class="st2" d="M87.5,745.2c0,0,5.6-167.2,65.9-167.2s57.4,167.2,57.4,167.2H87.5z"/>
<circle class="st2" cx="152.6" cy="556.3" r="49.4"/>
<path class="st7" d="M240.9,735.1c0,0,4.9-145.7,57.4-145.7s50,145.7,50,145.7H240.9z"/>
<circle class="st7" cx="297.6" cy="570.5" r="43.1"/>
<path class="st2" d="M230.6,725c0,0,4.9-145.7,57.4-145.7S338,725,338,725H230.6z"/>
<circle class="st2" cx="287.3" cy="560.4" r="43.1"/>
<path class="st7" d="M292.2,776.9c0,0,5.6-167.2,65.9-167.2s57.4,167.2,57.4,167.2H292.2z"/>
<circle class="st7" cx="357.3" cy="588" r="49.4"/>
<path class="st2" d="M280.4,765.2c0,0,5.6-167.2,65.9-167.2s57.4,167.2,57.4,167.2H280.4z"/>
<circle class="st2" cx="345.5" cy="576.4" r="49.4"/>
<path class="st7" d="M496.4,746.4c0,0,5.6-167.2,65.9-167.2s57.4,167.2,57.4,167.2H496.4z"/>
<circle class="st7" cx="561.4" cy="557.5" r="49.4"/>
<path class="st2" d="M484.5,734.7c0,0,5.6-167.2,65.9-167.2s57.4,167.2,57.4,167.2H484.5z"/>
<circle class="st2" cx="549.6" cy="545.9" r="49.4"/>
</svg>
