<?xml version="1.0" encoding="utf-8"?>
<!-- Generator: Adobe Illustrator 26.3.1, SVG Export Plug-In . SVG Version: 6.00 Build 0)  -->
<svg version="1.1" id="Layer_1" xmlns="http://www.w3.org/2000/svg" xmlns:xlink="http://www.w3.org/1999/xlink" x="0px" y="0px"
	 viewBox="0 0 1000 1000" style="enable-background:new 0 0 1000 1000;" xml:space="preserve">
<style type="text/css">
	.st0{fill:#CCCCCC;}
	.st1{fill:#FFFFFF;}
	.st2{fill:#FFFFFF;stroke:#000000;stroke-width:6;stroke-miterlimit:10;}
	.st3{fill:#FFFFFF;stroke:#999999;stroke-width:4;stroke-miterlimit:10;}
	.st4{fill:#CCCCCC;stroke:#CCCCCC;stroke-width:6;stroke-miterlimit:10;}
	.st5{fill:#FFFFFF;stroke:#000000;stroke-width:4;stroke-miterlimit:10;}
	.st6{fill:none;stroke:#000000;stroke-width:3;stroke-miterlimit:10;}
</style>
<g>
	<path class="st0" d="M359.4,870c-21.2,0-38.4-17.2-38.4-38.4V147.4c0-21.2,17.2-38.4,38.4-38.4h349.2c21.2,0,38.4,17.2,38.4,38.4
		v684.2c0,21.2-17.2,38.4-38.4,38.4H359.4z"/>
	<path class="st0" d="M708.6,112c19.5,0,35.4,15.9,35.4,35.4v684.2c0,19.5-15.9,35.4-35.4,35.4H359.4c-19.5,0-35.4-15.9-35.4-35.4
		V147.4c0-19.5,15.9-35.4,35.4-35.4H708.6 M708.6,106H359.4c-22.9,0-41.4,18.5-41.4,41.4v684.2c0,22.9,18.5,41.4,41.4,41.4h349.2
		c22.9,0,41.4-18.5,41.4-41.4V147.4C750,124.5,731.5,106,708.6,106L708.6,106z"/>
</g>
<g>
	<path class="st1" d="M325.4,844c-21.2,0-38.4-17.2-38.4-38.4V121.4c0-21.2,17.2-38.4,38.4-38.4h349.2c21.2,0,38.4,17.2,38.4,38.4
		v684.2c0,21.2-17.2,38.4-38.4,38.4H325.4z"/>
	<path d="M674.6,86c19.5,0,35.4,15.9,35.4,35.4v684.2c0,19.5-15.9,35.4-35.4,35.4H325.4c-19.5,0-35.4-15.9-35.4-35.4V121.4
		c0-19.5,15.9-35.4,35.4-35.4H674.6 M674.6,80H325.4c-22.9,0-41.4,18.5-41.4,41.4v684.2c0,22.9,18.5,41.4,41.4,41.4h349.2
		c22.9,0,41.4-18.5,41.4-41.4V121.4C716,98.5,697.5,80,674.6,80L674.6,80z"/>
</g>
<g>
	<circle class="st1" cx="336" cy="138" r="28"/>
	<path d="M336,114c13.2,0,24,10.8,24,24s-10.8,24-24,24s-24-10.8-24-24S322.8,114,336,114 M336,106c-17.7,0-32,14.3-32,32
		s14.3,32,32,32s32-14.3,32-32S353.7,106,336,106L336,106z"/>
</g>
<g>
	<circle class="st1" cx="416" cy="138" r="28"/>
	<path d="M416,114c13.2,0,24,10.8,24,24s-10.8,24-24,24s-24-10.8-24-24S402.8,114,416,114 M416,106c-17.7,0-32,14.3-32,32
		s14.3,32,32,32s32-14.3,32-32S433.7,106,416,106L416,106z"/>
</g>
<g>
	<circle class="st1" cx="496" cy="138" r="28"/>
	<path d="M496,114c13.2,0,24,10.8,24,24s-10.8,24-24,24s-24-10.8-24-24S482.8,114,496,114 M496,106c-17.7,0-32,14.3-32,32
		s14.3,32,32,32c17.7,0,32-14.3,32-32S513.7,106,496,106L496,106z"/>
</g>
<g>
	<circle class="st1" cx="580" cy="138" r="28"/>
	<path d="M580,114c13.2,0,24,10.8,24,24s-10.8,24-24,24s-24-10.8-24-24S566.8,114,580,114 M580,106c-17.7,0-32,14.3-32,32
		s14.3,32,32,32s32-14.3,32-32S597.7,106,580,106L580,106z"/>
</g>
<g>
	<circle class="st1" cx="664" cy="138" r="28"/>
	<path d="M664,114c13.2,0,24,10.8,24,24s-10.8,24-24,24s-24-10.8-24-24S650.8,114,664,114 M664,106c-17.7,0-32,14.3-32,32
		s14.3,32,32,32s32-14.3,32-32S681.7,106,664,106L664,106z"/>
</g>
<line class="st2" x1="328" y1="229" x2="457.5" y2="229"/>
<line class="st2" x1="468" y1="229" x2="531.7" y2="229"/>
<line class="st3" x1="328" y1="244.9" x2="436" y2="244.9"/>
<line class="st3" x1="446" y1="244.9" x2="489" y2="244.9"/>
<line class="st3" x1="500" y1="244.9" x2="541.7" y2="244.9"/>
<g>
	<path class="st0" d="M404.6,622c-26.8,0-48.6-21.8-48.6-48.6V340.6c0-26.8,21.8-48.6,48.6-48.6h232.8c26.8,0,48.6,21.8,48.6,48.6
		v232.8c0,26.8-21.8,48.6-48.6,48.6H404.6z"/>
	<path class="st0" d="M637.4,295c25.2,0,45.6,20.5,45.6,45.6v232.8c0,25.2-20.5,45.6-45.6,45.6H404.6c-25.2,0-45.6-20.5-45.6-45.6
		V340.6c0-25.2,20.5-45.6,45.6-45.6H637.4 M637.4,289H404.6c-28.5,0-51.6,23.1-51.6,51.6v232.8c0,28.5,23.1,51.6,51.6,51.6h232.8
		c28.5,0,51.6-23.1,51.6-51.6V340.6C689,312.1,665.9,289,637.4,289L637.4,289z"/>
</g>
<path class="st4" d="M678.2,847.9"/>
<path class="st4" d="M342.2,843.3v-92c0-28.5,23.1-51.6,51.6-51.6h232.8c28.5,0,51.6,23.1,51.6,51.6v92"/>
<path class="st5" d="M612.4,606H379.6c-28.5,0-51.6-23.1-51.6-51.6V321.6c0-28.5,23.1-51.6,51.6-51.6h232.8
	c28.5,0,51.6,23.1,51.6,51.6v232.8C664,582.9,640.9,606,612.4,606z"/>
<path class="st5" d="M328,842.6v-101c0-28.5,23.1-51.6,51.6-51.6h232.8c28.5,0,51.6,23.1,51.6,51.6v101.6"/>
<line class="st2" x1="328" y1="650.1" x2="424.6" y2="650.1"/>
<line class="st2" x1="436" y1="650.1" x2="541.7" y2="650.1"/>
<line class="st3" x1="328" y1="670.1" x2="446" y2="670.1"/>
<line class="st3" x1="457.5" y1="670.1" x2="581.5" y2="670.1"/>
<g>
	<path d="M674.6,87c19,0,34.4,15.4,34.4,34.4v684.2c0,19-15.4,34.4-34.4,34.4H325.4c-19,0-34.4-15.4-34.4-34.4V121.4
		c0-19,15.4-34.4,34.4-34.4H674.6 M674.6,80H325.4c-22.9,0-41.4,18.5-41.4,41.4v684.2c0,22.9,18.5,41.4,41.4,41.4h349.2
		c22.9,0,41.4-18.5,41.4-41.4V121.4C716,98.5,697.5,80,674.6,80L674.6,80z"/>
</g>
<line class="st6" x1="288" y1="188.5" x2="716" y2="188.5"/>
</svg>
