<?xml version="1.0" encoding="utf-8"?>
<!-- Generator: Adobe Illustrator 26.3.1, SVG Export Plug-In . SVG Version: 6.00 Build 0)  -->
<svg version="1.1" id="Layer_1" xmlns="http://www.w3.org/2000/svg" xmlns:xlink="http://www.w3.org/1999/xlink" x="0px" y="0px"
	 viewBox="0 0 1000 1000" style="enable-background:new 0 0 1000 1000;" xml:space="preserve">
<style type="text/css">
	.st0{fill:#B3B3B3;}
	.st1{fill:#FFFFFF;}
	.st2{fill:none;stroke:#000000;stroke-width:5;stroke-miterlimit:10;}
	.st3{fill:none;stroke:#999999;stroke-width:4;stroke-miterlimit:10;}
</style>
<g>
	<path class="st0" d="M131.5,695.2c-23.8,0-43.2-19.3-43.2-43.2V323.8c0-23.8,19.3-43.2,43.2-43.2h784.3c23.8,0,43.2,19.3,43.2,43.2
		v328.3c0,23.8-19.3,43.2-43.2,43.2L131.5,695.2L131.5,695.2z"/>
	<path class="st0" d="M915.8,285.4c21.2,0,38.4,17.2,38.4,38.4v328.3c0,21.2-17.2,38.4-38.4,38.4H131.5c-21.2,0-38.4-17.2-38.4-38.4
		V323.8c0-21.2,17.2-38.4,38.4-38.4H915.8 M915.8,276H131.5c-26.5,0-47.9,21.4-47.9,47.9v328.3c0,26.5,21.4,47.9,47.9,47.9h784.3
		c26.5,0,47.9-21.4,47.9-47.9V323.8C963.6,297.3,942.2,276,915.8,276L915.8,276z"/>
</g>
<g>
	<path class="st1" d="M108.9,668.8c-23.8,0-43.2-19.3-43.2-43.2V297.4c0-23.8,19.3-43.2,43.2-43.2h784.3c23.8,0,43.2,19.3,43.2,43.2
		v328.3c0,23.8-19.3,43.2-43.2,43.2L108.9,668.8L108.9,668.8z"/>
	<path d="M893.1,259c21.2,0,38.4,17.2,38.4,38.4v328.3c0,21.2-17.2,38.4-38.4,38.4H108.9c-21.2,0-38.4-17.2-38.4-38.4V297.4
		c0-21.2,17.2-38.4,38.4-38.4L893.1,259 M893.1,249.6H108.9C82.4,249.6,61,271,61,297.4v328.3c0,26.5,21.4,47.9,47.9,47.9h784.3
		c26.5,0,47.9-21.4,47.9-47.9V297.4C941,271,919.6,249.6,893.1,249.6L893.1,249.6z"/>
</g>
<g>
	<path class="st0" d="M170.9,468.2c-10.6,0-19.4-8.7-19.4-19.4V346.2c0-10.6,8.7-19.4,19.4-19.4h102.5c10.6,0,19.4,8.7,19.4,19.4
		v102.5c0,10.6-8.7,19.4-19.4,19.4L170.9,468.2L170.9,468.2z"/>
	<g>
		<path class="st0" d="M273.4,331.5c8.1,0,14.7,6.6,14.7,14.7v102.5c0,8.1-6.6,14.7-14.7,14.7H170.9c-8.1,0-14.7-6.6-14.7-14.7
			V346.2c0-8.1,6.6-14.7,14.7-14.7H273.4 M273.4,322.1H170.9c-13.3,0-24.1,10.8-24.1,24.1v102.5c0,13.3,10.8,24.1,24.1,24.1h102.5
			c13.3,0,24.1-10.8,24.1-24.1V346.2C297.5,333,286.7,322.1,273.4,322.1L273.4,322.1z"/>
	</g>
</g>
<g>
	<path class="st1" d="M159.6,459.2c-12,0-21.8-9.8-21.8-21.8V334.9c0-12,9.8-21.8,21.8-21.8h102.5c12,0,21.8,9.8,21.8,21.8v102.5
		c0,12-9.8,21.8-21.8,21.8L159.6,459.2L159.6,459.2z"/>
	<g>
		<path d="M262.1,315.5c10.6,0,19.4,8.7,19.4,19.4v102.5c0,10.6-8.7,19.4-19.4,19.4H159.6c-10.6,0-19.4-8.7-19.4-19.4V334.9
			c0-10.6,8.7-19.4,19.4-19.4H262.1 M262.1,310.8H159.6c-13.3,0-24.1,10.8-24.1,24.1v102.5c0,13.3,10.8,24.1,24.1,24.1h102.5
			c13.3,0,24.1-10.8,24.1-24.1V334.9C286.2,321.7,275.4,310.8,262.1,310.8L262.1,310.8z"/>
	</g>
</g>
<g>
	<path class="st0" d="M364.4,628.7c-10.6,0-19.4-8.7-19.4-19.4V508.1c0-10.6,8.7-19.4,19.4-19.4h101.2c10.6,0,19.4,8.7,19.4,19.4
		v101.2c0,10.6-8.7,19.4-19.4,19.4L364.4,628.7L364.4,628.7z"/>
	<g>
		<path class="st0" d="M465.6,493.4c8.1,0,14.7,6.6,14.7,14.7v101.2c0,8.1-6.6,14.7-14.7,14.7H364.4c-8.1,0-14.7-6.6-14.7-14.7
			V508.1c0-8.1,6.6-14.7,14.7-14.7H465.6 M465.6,484H364.4c-13.3,0-24.1,10.8-24.1,24.1v101.2c0,13.3,10.8,24.1,24.1,24.1h101.2
			c13.3,0,24.1-10.8,24.1-24.1V508.1C489.7,494.8,478.9,484,465.6,484L465.6,484z"/>
	</g>
</g>
<g>
	<path class="st1" d="M353.2,619.9c-12,0-21.8-9.8-21.8-21.8V496.9c0-12,9.8-21.8,21.8-21.8h101.2c12,0,21.8,9.8,21.8,21.8v101.3
		c0,12-9.8,21.8-21.8,21.8L353.2,619.9L353.2,619.9z"/>
	<g>
		<path d="M454.4,477.5c10.6,0,19.4,8.7,19.4,19.4v101.3c0,10.6-8.7,19.4-19.4,19.4H353.2c-10.6,0-19.4-8.7-19.4-19.4V496.9
			c0-10.6,8.7-19.4,19.4-19.4H454.4 M454.4,472.8H353.2c-13.3,0-24.1,10.8-24.1,24.1v101.3c0,13.3,10.8,24.1,24.1,24.1h101.2
			c13.3,0,24.1-10.8,24.1-24.1V496.9C478.5,483.6,467.8,472.8,454.4,472.8L454.4,472.8z"/>
	</g>
</g>
<g>
	<path class="st0" d="M792.1,644.3c-10.6,0-19.4-8.7-19.4-19.4V491.6c0-10.6,8.7-19.4,19.4-19.4h50c10.6,0,19.4,8.7,19.4,19.4v133.3
		c0,10.6-8.7,19.4-19.4,19.4H792.1z"/>
	<g>
		<path class="st0" d="M842.1,477c8.1,0,14.7,6.6,14.7,14.7V625c0,8.1-6.6,14.7-14.7,14.7h-50c-8.1,0-14.7-6.6-14.7-14.7V491.6
			c0-8.1,6.6-14.7,14.7-14.7L842.1,477 M842.1,467.6h-50c-13.3,0-24.1,10.8-24.1,24.1V625c0,13.3,10.8,24.1,24.1,24.1h50
			c13.3,0,24.1-10.8,24.1-24.1V491.6C866.2,478.3,855.4,467.6,842.1,467.6L842.1,467.6z"/>
	</g>
</g>
<g>
	<path class="st1" d="M784.7,633.1c-12,0-21.8-9.8-21.8-21.8V478.1c0-12,9.8-21.8,21.8-21.8h50c12,0,21.8,9.8,21.8,21.8v133.3
		c0,12-9.8,21.8-21.8,21.8H784.7z"/>
	<g>
		<path d="M834.7,458.6c10.6,0,19.4,8.7,19.4,19.4v133.3c0,10.6-8.7,19.4-19.4,19.4h-50c-10.6,0-19.4-8.7-19.4-19.4V478.1
			c0-10.6,8.7-19.4,19.4-19.4H834.7 M834.7,453.9h-50c-13.3,0-24.1,10.8-24.1,24.1v133.3c0,13.3,10.8,24.1,24.1,24.1h50
			c13.3,0,24.1-10.8,24.1-24.1V478.1C858.8,464.8,848,453.9,834.7,453.9L834.7,453.9z"/>
	</g>
</g>
<g>
	<path class="st0" d="M655.4,411.6c-10.6,0-19.4-8.7-19.4-19.4v-50c0-10.6,8.7-19.4,19.4-19.4h50c10.6,0,19.4,8.7,19.4,19.4v50
		c0,10.6-8.7,19.4-19.4,19.4H655.4z"/>
	<g>
		<path class="st0" d="M705.5,327.6c8.1,0,14.7,6.6,14.7,14.7v50c0,8.1-6.6,14.7-14.7,14.7h-50c-8.1,0-14.7-6.6-14.7-14.7v-50
			c0-8.1,6.6-14.7,14.7-14.7H705.5 M705.5,318.2h-50c-13.3,0-24.1,10.8-24.1,24.1v50c0,13.3,10.8,24.1,24.1,24.1h50
			c13.3,0,24.1-10.8,24.1-24.1v-50C729.6,328.9,718.8,318.2,705.5,318.2L705.5,318.2z"/>
	</g>
</g>
<g>
	<path class="st1" d="M648.1,406.6c-12,0-21.8-9.8-21.8-21.8v-50c0-12,9.8-21.8,21.8-21.8h50c12,0,21.8,9.8,21.8,21.8v50
		c0,12-9.8,21.8-21.8,21.8H648.1z"/>
	<g>
		<path d="M698.1,315.4c10.6,0,19.4,8.7,19.4,19.4v50c0,10.6-8.7,19.4-19.4,19.4h-50c-10.6,0-19.4-8.7-19.4-19.4v-50
			c0-10.6,8.7-19.4,19.4-19.4H698.1 M698.1,310.7h-50c-13.3,0-24.1,10.8-24.1,24.1v50c0,13.3,10.8,24.1,24.1,24.1h50
			c13.3,0,24.1-10.8,24.1-24.1v-50C722.2,321.6,711.4,310.7,698.1,310.7L698.1,310.7z"/>
	</g>
</g>
<line class="st2" x1="314" y1="318.2" x2="403.8" y2="318.2"/>
<line class="st2" x1="419.5" y1="318.2" x2="523.6" y2="318.2"/>
<line class="st3" x1="314" y1="335.3" x2="364.9" y2="335.3"/>
<line class="st3" x1="376.2" y1="335.3" x2="447.3" y2="335.3"/>
<line class="st3" x1="456.7" y1="335.3" x2="523.6" y2="335.3"/>
<line class="st3" x1="535" y1="335.3" x2="572.8" y2="335.3"/>
<line class="st3" x1="314" y1="348.3" x2="391.7" y2="348.3"/>
<line class="st3" x1="399.7" y1="348.3" x2="481.3" y2="348.3"/>
<line class="st3" x1="493" y1="348.3" x2="565.4" y2="348.3"/>
<line class="st3" x1="314" y1="359.9" x2="378.7" y2="359.9"/>
<line class="st3" x1="389.2" y1="359.9" x2="447.3" y2="359.9"/>
<line class="st2" x1="503.6" y1="484" x2="554" y2="484"/>
<line class="st2" x1="561.7" y1="484" x2="647" y2="484"/>
<line class="st3" x1="506" y1="500.2" x2="561.7" y2="500.2"/>
<line class="st3" x1="572.8" y1="500.2" x2="647" y2="500.2"/>
<line class="st3" x1="655" y1="500.2" x2="695.8" y2="500.2"/>
<line class="st3" x1="506" y1="510.3" x2="584.9" y2="510.3"/>
<line class="st3" x1="593.3" y1="510.6" x2="686.5" y2="510.6"/>
<line class="st3" x1="506" y1="519.5" x2="578.3" y2="519.5"/>
<line class="st3" x1="584.9" y1="519.5" x2="686.5" y2="519.5"/>
<line class="st3" x1="506" y1="530.1" x2="545.5" y2="530.1"/>
<line class="st3" x1="551.1" y1="530.1" x2="609.8" y2="530.1"/>
<g>
	<circle class="st0" cx="813.8" cy="411.6" r="27.3"/>
	<g>
		<path class="st0" d="M813.8,389c12.4,0,22.6,10.2,22.6,22.6s-10.2,22.6-22.6,22.6c-12.4,0-22.6-10.2-22.6-22.6
			S801.4,389,813.8,389 M813.8,379.6c-17.7,0-32,14.3-32,32s14.3,32,32,32s32-14.3,32-32S831.5,379.6,813.8,379.6L813.8,379.6z"/>
	</g>
</g>
<g>
	<circle class="st1" cx="805.3" cy="406.9" r="29.7"/>
	<path d="M805.3,379.6c15.1,0,27.3,12.2,27.3,27.3c0,15.1-12.2,27.3-27.3,27.3S778,422,778,406.9C778,391.8,790.3,379.6,805.3,379.6
		 M805.3,374.9c-17.7,0-32,14.3-32,32s14.3,32,32,32s32-14.3,32-32S823,374.9,805.3,374.9L805.3,374.9z"/>
</g>
<line class="st2" x1="734.3" y1="278.1" x2="792.6" y2="278.1"/>
<line class="st2" x1="801" y1="278.1" x2="873.9" y2="278.1"/>
<line class="st3" x1="734.2" y1="289.6" x2="801" y2="289.6"/>
<line class="st3" x1="809.7" y1="289.6" x2="858.8" y2="289.6"/>
<line class="st3" x1="866.2" y1="289.6" x2="912.7" y2="289.6"/>
<line class="st3" x1="734.3" y1="300.5" x2="820.4" y2="300.5"/>
<line class="st3" x1="825.7" y1="300.5" x2="869.4" y2="300.5"/>
<line class="st3" x1="877.9" y1="300.5" x2="915.6" y2="300.5"/>
<line class="st3" x1="734.3" y1="310.7" x2="787" y2="310.7"/>
</svg>
