<?xml version="1.0" encoding="utf-8"?>
<!-- Generator: Adobe Illustrator 26.3.1, SVG Export Plug-In . SVG Version: 6.00 Build 0)  -->
<svg version="1.1" id="Layer_1" xmlns="http://www.w3.org/2000/svg" xmlns:xlink="http://www.w3.org/1999/xlink" x="0px" y="0px"
	 viewBox="0 0 1000 1000" style="enable-background:new 0 0 1000 1000;" xml:space="preserve">
<style type="text/css">
	.st0{fill:#B3B3B3;}
	.st1{fill:none;stroke:#CCCCCC;stroke-width:10;stroke-miterlimit:10;}
	.st2{fill:#FFFFFF;}
	.st3{fill:none;stroke:#000000;stroke-width:7;stroke-miterlimit:10;}
	.st4{fill:none;stroke:#808080;stroke-width:4;stroke-miterlimit:10;}
	.st5{fill:#FFFFFF;stroke:#000000;stroke-width:6;stroke-miterlimit:10;}
	.st6{fill:#FF855B;}
	.st7{fill:#FF635B;}
	.st8{fill:#C7385B;}
	.st9{fill:#62245B;}
	.st10{fill:#83005B;}
	.st11{fill:none;stroke:#FF855B;stroke-width:2;stroke-miterlimit:10;}
	.st12{font-family:'MontserratAlternates-Black';}
	.st13{font-size:15.6184px;}
	.st14{fill:none;stroke:#000000;stroke-width:5;stroke-miterlimit:10;}
	.st15{fill:#999999;stroke:#999999;stroke-width:10;stroke-miterlimit:10;}
	.st16{fill:#FFFFFF;stroke:#000000;stroke-width:10;stroke-miterlimit:10;}
	.st17{opacity:0.43;}
	.st18{opacity:0.43;fill:none;stroke:#FF855B;stroke-width:2;stroke-miterlimit:10;enable-background:new    ;}
	.st19{opacity:0.43;fill:#FF855B;enable-background:new    ;}
	.st20{font-size:7.8761px;}
	.st21{opacity:0.43;fill:#FF635B;enable-background:new    ;}
	.st22{opacity:0.43;fill:#C7385B;enable-background:new    ;}
	.st23{opacity:0.43;fill:#62245B;enable-background:new    ;}
	.st24{opacity:0.43;fill:#83005B;enable-background:new    ;}
</style>
<g>
	<path class="st0" d="M284.6,388c-23.8,0-43.1-19.3-43.1-43.1v-73.5c0-23.8,19.3-43.1,43.1-43.1h219.6c23.8,0,43.1,19.3,43.1,43.1
		v73.5c0,23.8-19.3,43.1-43.1,43.1H284.6L284.6,388z"/>
	<path class="st0" d="M504.1,231.7c21.9,0,39.8,17.9,39.8,39.8v73.5c0,21.9-17.9,39.8-39.8,39.8H284.6c-21.9,0-39.8-17.9-39.8-39.8
		v-73.5c0-21.9,17.9-39.8,39.8-39.8H504.1 M504.1,225H284.6c-25.6,0-46.4,20.8-46.4,46.4v73.5c0,25.6,20.8,46.4,46.4,46.4h219.6
		c25.6,0,46.4-20.8,46.4-46.4v-73.5C550.6,245.8,529.8,225,504.1,225L504.1,225z"/>
</g>
<line class="st1" x1="509.9" y1="467.6" x2="230" y2="296.2"/>
<line class="st1" x1="534.9" y1="423.2" x2="509.9" y2="302.8"/>
<g>
	<path class="st2" d="M271.8,375.9c-23.8,0-43.1-19.3-43.1-43.1v-73.5c0-23.8,19.3-43.1,43.1-43.1h219.6c23.8,0,43.1,19.3,43.1,43.1
		v73.5c0,23.8-19.3,43.1-43.1,43.1H271.8z"/>
	<path d="M491.3,219.6c21.9,0,39.8,17.9,39.8,39.8v73.5c0,21.9-17.9,39.8-39.8,39.8H271.8c-21.9,0-39.8-17.9-39.8-39.8v-73.5
		c0-21.9,17.9-39.8,39.8-39.8H491.3 M491.3,213H271.8c-25.6,0-46.4,20.8-46.4,46.4v73.5c0,25.6,20.8,46.4,46.4,46.4h219.6
		c25.6,0,46.4-20.8,46.4-46.4v-73.5C537.7,233.7,517,213,491.3,213L491.3,213z"/>
</g>
<line class="st3" x1="247.5" y1="233.5" x2="304.7" y2="233.5"/>
<line class="st3" x1="311.2" y1="233.5" x2="352.7" y2="233.5"/>
<line class="st4" x1="247.3" y1="245.8" x2="319" y2="245.8"/>
<line class="st4" x1="325.6" y1="245.8" x2="365" y2="245.8"/>
<line class="st4" x1="247.5" y1="252.3" x2="325.6" y2="252.3"/>
<line class="st4" x1="329.7" y1="252.3" x2="375.7" y2="252.3"/>
<line class="st4" x1="247.3" y1="259.6" x2="276" y2="259.6"/>
<line class="st4" x1="280.6" y1="259.7" x2="314.9" y2="259.7"/>
<line class="st4" x1="319" y1="259.7" x2="365" y2="259.7"/>
<g>
	<path class="st0" d="M431,352.4c2.1-22.5,10.8-70.7,30.4-70.7c19.5,0,26.4,48.2,27.6,70.7H431z"/>
	<path class="st0" d="M461.4,284.9c6.2,0,10.1,6.7,11.4,8.9c3.4,5.8,6.2,14,8.6,24.5c2.6,11.8,3.8,23.7,4.4,30.9h-51.3
		c0.9-7.1,2.5-19,5.5-30.6c2.7-10.5,5.9-18.7,9.5-24.6C450.9,291.8,455.1,284.9,461.4,284.9 M461.4,278.6c-28,0-33.7,77-33.7,77
		h64.6C492.3,355.6,489.5,278.6,461.4,278.6L461.4,278.6z"/>
</g>
<g>
	<path class="st0" d="M459.9,287.2c-12.1,0-21.9-10.3-21.9-22.9s9.8-22.9,21.9-22.9c12.1,0,21.9,10.3,21.9,22.9
		S472,287.2,459.9,287.2z"/>
	<path class="st0" d="M459.9,244.6c10.4,0,18.9,8.9,18.9,19.7c0,10.8-8.5,19.7-18.9,19.7c-10.4,0-18.9-8.9-18.9-19.7
		C441,253.4,449.5,244.6,459.9,244.6 M459.9,238.2c-13.8,0-25,11.7-25,26.1s11.2,26.1,25,26.1c13.8,0,25-11.7,25-26.1
		S473.7,238.2,459.9,238.2L459.9,238.2z"/>
</g>
<path class="st5" d="M421.4,349c0,0,5.7-77,33.7-77s30.8,77,30.8,77H421.4z"/>
<ellipse class="st5" cx="453.6" cy="257.8" rx="25" ry="26.1"/>
<g>
	<ellipse class="st6" cx="266.6" cy="335.2" rx="13.1" ry="13.7"/>
	<g>
		<path class="st7" d="M268,321.5c1,1.9,1.6,4.2,1.6,6.6c0.1,7.5-5.8,13.7-13.1,13.8c-0.5,0-1-0.1-1.4-0.1c2.3,4.3,6.5,7.1,11.5,7
			c7.2-0.1,13.1-6.2,13.1-13.8C279.7,328,274.5,322.2,268,321.5z"/>
	</g>
	<path class="st8" d="M269.7,321.8c1.3,2.1,2,4.5,2,7.2c0.1,7.5-5.8,13.7-13.1,13.8c-1,0-2.1-0.1-3.2-0.4c2.4,4,6.5,6.5,11.2,6.5
		c7.2-0.1,13.1-6.2,13.1-13.8C279.7,328.7,275.4,323.3,269.7,321.8z"/>
	<path class="st9" d="M272.9,323.1c1.2,2,1.8,4.4,1.8,7c0.1,7.5-5.8,13.7-13.1,13.8c-2.3,0-4.5-0.6-6.4-1.7
		c2.3,4.1,6.5,6.8,11.4,6.8c7.2-0.1,13.1-6.2,13.1-13.8C279.8,329.9,277,325.4,272.9,323.1z"/>
	<path class="st10" d="M272.9,323.1c1.8,2.4,2.9,5.3,2.9,8.5c0.1,7.5-5.8,13.7-13.1,13.8c-2.3,0-4.5-0.6-6.4-1.7
		c2.4,3.1,6.1,5.1,10.3,5.1c7.2-0.1,13.1-6.2,13.1-13.8C279.7,329.9,277,325.4,272.9,323.1z"/>
</g>
<ellipse class="st11" cx="266.6" cy="335.2" rx="16.6" ry="17.3"/>
<text transform="matrix(0.9579 -5.157239e-03 4.940338e-03 1 293.0364 341.9921)" class="st6 st12 st13">WE</text>
<text transform="matrix(0.9579 -5.157239e-03 4.940338e-03 1 322.119 341.8365)" class="st7 st12 st13">BL</text>
<text transform="matrix(0.9579 -5.157239e-03 4.940338e-03 1 343.6407 341.7231)" class="st8 st12 st13">I</text>
<text transform="matrix(0.9579 -5.157239e-03 4.940338e-03 1 351.2025 341.6809)" class="st9 st12 st13">S</text>
<text transform="matrix(0.9579 -5.157239e-03 4.940338e-03 1 361.2551 341.6268)" class="st10 st12 st13">H</text>
<line class="st14" x1="247.6" y1="309.4" x2="369.7" y2="309.4"/>
<line class="st14" x1="247.6" y1="297.4" x2="369.7" y2="297.4"/>
<path class="st15" d="M478.6,697.8c0,0,27.8-180.1,101.5-180.1s84.2,180.1,84.2,180.1H478.6z"/>
<ellipse class="st15" cx="576.4" cy="477.1" rx="51.6" ry="53.8"/>
<path class="st16" d="M463.7,688.5c0,0,27.8-180.1,101.5-180.1s84.2,180.1,84.2,180.1H463.7z"/>
<ellipse class="st16" cx="561.4" cy="467.6" rx="51.6" ry="53.8"/>
<g class="st17">
	<ellipse class="st6" cx="535.9" cy="465.8" rx="6.6" ry="6.9"/>
	<g>
		<path class="st7" d="M542.5,466c0-3.8-2.9-6.9-6.6-7c-2.5,0-4.7,1.4-5.8,3.6c0.2,0,0.5-0.1,0.7-0.1c3.7,0,6.6,3.1,6.6,7
			c0,1.2-0.3,2.4-0.8,3.3C539.9,472.4,542.5,469.5,542.5,466z"/>
	</g>
	<path class="st8" d="M542.6,465.9c0-3.8-2.9-6.9-6.6-7c-2.4,0-4.5,1.3-5.7,3.3c0.5-0.1,1.1-0.2,1.6-0.2c3.7,0,6.6,3.1,6.6,7
		c0,1.3-0.4,2.6-1,3.6C540.4,471.8,542.5,469.2,542.6,465.9z"/>
	<path class="st9" d="M542.6,465.9c0-3.8-2.9-6.9-6.6-7c-2.4,0-4.6,1.3-5.7,3.4c0.9-0.5,2-0.8,3.2-0.8c3.7,0,6.6,3.1,6.6,7
		c0,1.3-0.3,2.5-0.9,3.5C541.2,470.8,542.6,468.5,542.6,465.9z"/>
	<path class="st10" d="M542.5,465.9c0-3.8-2.9-6.9-6.6-7c-2.1,0-4,1-5.2,2.6c1-0.5,2.1-0.8,3.2-0.8c3.7,0,6.6,3.1,6.6,7
		c0,1.7-0.5,3.1-1.5,4.3C541.2,470.8,542.6,468.5,542.5,465.9z"/>
</g>
<ellipse class="st18" cx="535.9" cy="465.8" rx="8.4" ry="8.7"/>
<text transform="matrix(0.9579 4.042489e-03 3.872473e-03 -1 549.2327 462.4193)" class="st19 st12 st20">WE</text>
<text transform="matrix(0.9579 4.042489e-03 3.872473e-03 -1 563.8986 462.4807)" class="st21 st12 st20">BL</text>
<text transform="matrix(0.9579 4.042489e-03 3.872473e-03 -1 574.751 462.5255)" class="st22 st12 st20">I</text>
<text transform="matrix(0.9579 4.042489e-03 3.872473e-03 -1 578.5645 462.543)" class="st23 st12 st20">S</text>
<text transform="matrix(0.9579 4.042489e-03 3.872473e-03 -1 583.6348 462.5639)" class="st24 st12 st20">H</text>
</svg>
