<?xml version="1.0" encoding="utf-8"?>
<!-- Generator: Adobe Illustrator 26.3.1, SVG Export Plug-In . SVG Version: 6.00 Build 0)  -->
<svg version="1.1" id="Layer_1" xmlns="http://www.w3.org/2000/svg" xmlns:xlink="http://www.w3.org/1999/xlink" x="0px" y="0px"
	 viewBox="0 0 1000 1000" style="enable-background:new 0 0 1000 1000;" xml:space="preserve">
<style type="text/css">
	.st0{fill:#B3B3B3;}
	.st1{fill:#FFFFFF;}
	.st2{fill:none;stroke:#000000;stroke-width:10;stroke-miterlimit:10;}
	.st3{fill:none;stroke:#808080;stroke-width:7;stroke-miterlimit:10;}
	.st4{fill:#FFFFFF;stroke:#000000;stroke-width:6;stroke-miterlimit:10;}
	.st5{fill:#FF855B;}
	.st6{fill:#FF635B;}
	.st7{fill:#C7385B;}
	.st8{fill:#62245B;}
	.st9{fill:#83005B;}
	.st10{fill:none;stroke:#FF855B;stroke-width:2;stroke-miterlimit:10;}
	.st11{font-family:'MontserratAlternates-Black';}
	.st12{font-size:40.459px;}
	.st13{fill:none;stroke:#000000;stroke-width:5;stroke-miterlimit:10;}
</style>
<g>
	<path class="st0" d="M215.4,692.3c-32.7,0-59.3-26.6-59.3-59.3V347.1c0-32.7,26.6-59.3,59.3-59.3h649.3c32.7,0,59.3,26.6,59.3,59.3
		v285.9c0,32.7-26.6,59.3-59.3,59.3H215.4z"/>
	<path class="st0" d="M864.7,292.4c30.1,0,54.7,24.6,54.7,54.7v285.9c0,30.1-24.6,54.7-54.7,54.7H215.4c-30.1,0-54.7-24.6-54.7-54.7
		V347.1c0-30.1,24.6-54.7,54.7-54.7H864.7 M864.7,283.3H215.4c-35.2,0-63.8,28.6-63.8,63.8v285.9c0,35.2,28.6,63.8,63.8,63.8h649.3
		c35.2,0,63.8-28.6,63.8-63.8V347.1C928.5,311.9,900,283.3,864.7,283.3L864.7,283.3z"/>
</g>
<g>
	<path class="st1" d="M183.5,662.2c-32.7,0-59.3-26.6-59.3-59.3V317c0-32.7,26.6-59.3,59.3-59.3h649.3c32.7,0,59.3,26.6,59.3,59.3
		v285.9c0,32.7-26.6,59.3-59.3,59.3H183.5z"/>
	<path d="M832.8,262.3c30.1,0,54.7,24.6,54.7,54.7v285.9c0,30.1-24.6,54.7-54.7,54.7H183.5c-30.1,0-54.7-24.6-54.7-54.7V317
		c0-30.1,24.6-54.7,54.7-54.7H832.8 M832.8,253.2H183.5c-35.2,0-63.8,28.6-63.8,63.8v285.9c0,35.2,28.6,63.8,63.8,63.8h649.3
		c35.2,0,63.8-28.6,63.8-63.8V317C896.6,281.8,868,253.2,832.8,253.2L832.8,253.2z"/>
</g>
<line class="st2" x1="178.4" y1="304.3" x2="333.3" y2="304.3"/>
<line class="st2" x1="350.7" y1="304.3" x2="463.1" y2="304.3"/>
<line class="st3" x1="178.1" y1="336.3" x2="371.9" y2="336.3"/>
<line class="st3" x1="389.7" y1="336.3" x2="496.4" y2="336.3"/>
<line class="st3" x1="178.5" y1="353.2" x2="389.7" y2="353.2"/>
<line class="st3" x1="400.9" y1="353.2" x2="525.4" y2="353.2"/>
<line class="st3" x1="178.1" y1="372.1" x2="255.9" y2="372.1"/>
<line class="st3" x1="268" y1="372.3" x2="360.8" y2="372.3"/>
<line class="st3" x1="371.9" y1="372.3" x2="496.4" y2="372.3"/>
<g>
	<path class="st0" d="M670.8,616.1c1.4-13.8,5.9-54.1,16.6-94.1c11.8-43.9,33.4-96.2,69.7-96.2c36.2,0,55.7,52.3,65.6,96.2
		c9.1,40.1,12.1,80.6,12.9,94.1H670.8z"/>
	<path class="st0" d="M757.1,430.3c14.1,0,26.2,8.8,37.2,26.7c9.6,15.7,17.6,37.8,24,65.7c8.2,35.8,11.4,72.1,12.5,88.8H675.9
		c1.8-16.9,6.5-52.9,16-88.5c7.5-27.9,16.4-50.1,26.7-65.8C730.2,439.3,743.1,430.3,757.1,430.3 M757.1,421.2
		c-75.8,0-91.3,199.5-91.3,199.5h174.7C840.5,620.7,833,421.2,757.1,421.2L757.1,421.2z"/>
</g>
<g>
	<circle class="st0" cx="753.1" cy="384.2" r="63"/>
	<path class="st0" d="M753.1,325.8c32.2,0,58.4,26.2,58.4,58.4s-26.2,58.4-58.4,58.4c-32.2,0-58.4-26.2-58.4-58.4
		S720.8,325.8,753.1,325.8 M753.1,316.6c-37.3,0-67.6,30.2-67.6,67.6s30.2,67.6,67.6,67.6c37.3,0,67.6-30.2,67.6-67.6
		S790.3,316.6,753.1,316.6L753.1,316.6z"/>
</g>
<path class="st4" d="M648.7,603.8c0,0,15.4-199.5,91.3-199.5s83.4,199.5,83.4,199.5H648.7z"/>
<circle class="st4" cx="735.9" cy="367.3" r="67.6"/>
<g>
	
		<ellipse transform="matrix(1 -5.157202e-03 5.157202e-03 1 -2.9257 1.1948)" class="st5" cx="230.2" cy="567.9" rx="35.4" ry="35.4"/>
	<g>
		<path class="st6" d="M233.9,532.4c2.7,5,4.4,10.9,4.4,17.1C238.3,569,222.5,585,203,585c-1.3,0-2.6-0.1-3.8-0.3
			c6.1,11,17.7,18.3,31.2,18.3c19.5-0.1,35.4-16.2,35.2-35.6C265.7,549.4,251.7,534.3,233.9,532.4z"/>
	</g>
	<path class="st7" d="M238.6,533.2c3.5,5.5,5.4,11.8,5.4,18.6c0.1,19.5-15.6,35.5-35.2,35.6c-2.8,0-5.8-0.4-8.6-1.1
		c6.4,10.1,17.4,16.9,30.4,16.8c19.5-0.1,35.4-16.2,35.2-35.6C265.7,551.1,254,537,238.6,533.2z"/>
	<path class="st8" d="M247.3,536.5c3.2,5.3,4.9,11.3,4.9,17.9c0.1,19.5-15.8,35.5-35.2,35.6c-6.2,0-12.1-1.6-17.1-4.2
		c6.2,10.6,17.7,17.5,30.9,17.5c19.5-0.1,35.4-16.2,35.2-35.6C265.9,554.2,258.2,542.5,247.3,536.5z"/>
	<path class="st9" d="M247.3,536.7c4.9,6.1,7.9,13.8,7.9,22.2c0.1,19.5-15.8,35.5-35.2,35.6c-6.3,0-12.2-1.6-17.4-4.4
		c6.5,8.1,16.6,13.2,27.8,13.2c19.5-0.1,35.4-16.2,35.2-35.6C265.7,554.2,258.2,542.6,247.3,536.7z"/>
</g>
<circle class="st10" cx="230.3" cy="567.9" r="44.9"/>
<text transform="matrix(1 -5.157233e-03 5.157233e-03 1 301.7057 585.4966)" class="st5 st11 st12">WE</text>
<text transform="matrix(1 -5.157233e-03 5.157233e-03 1 380.3517 585.0939)" class="st6 st11 st12">BL</text>
<text transform="matrix(1 -5.157233e-03 5.157233e-03 1 438.5516 584.7996)" class="st7 st11 st12">I</text>
<text transform="matrix(1 -5.157233e-03 5.157233e-03 1 458.9985 584.6893)" class="st8 st11 st12">S</text>
<text transform="matrix(1 -5.157233e-03 5.157233e-03 1 486.1842 584.5491)" class="st9 st11 st12">H</text>
<line class="st13" x1="179" y1="501" x2="509" y2="501"/>
<line class="st13" x1="179" y1="469.9" x2="509" y2="469.9"/>
</svg>
