<?xml version="1.0" encoding="utf-8"?>
<!-- Generator: Adobe Illustrator 26.3.1, SVG Export Plug-In . SVG Version: 6.00 Build 0)  -->
<svg version="1.1" id="Layer_1" xmlns="http://www.w3.org/2000/svg" xmlns:xlink="http://www.w3.org/1999/xlink" x="0px" y="0px"
	 viewBox="0 0 1000 1000" style="enable-background:new 0 0 1000 1000;" xml:space="preserve">
<style type="text/css">
	.st0{fill:#999999;}
	.st1{fill:#FFFFFF;}
	.st2{fill:#62245B;}
	.st3{fill:#FF855B;}
	.st4{fill:#FF635B;}
	.st5{fill:#FFFFFF;stroke:#000000;stroke-width:6;stroke-miterlimit:10;}
	.st6{fill:none;stroke:#000000;stroke-width:6;stroke-miterlimit:10;}
	.st7{fill:#FFFFFF;stroke:#000000;stroke-width:10;stroke-miterlimit:10;}
	.st8{fill:#B3B3B3;}
	.st9{stroke:#000000;stroke-width:9;stroke-miterlimit:10;}
	.st10{stroke:#999999;stroke-width:6;stroke-miterlimit:10;}
	.st11{fill:#C7385B;}
	.st12{fill:#83005B;}
	.st13{fill:none;stroke:#FF855B;stroke-width:2;stroke-miterlimit:10;}
</style>
<g>
	<path class="st0" d="M171.9,731c-35.8,0-64.9-29.1-64.9-64.9V352.9c0-35.8,29.1-64.9,64.9-64.9h711.2c35.8,0,64.9,29.1,64.9,64.9
		v313.2c0,35.8-29.1,64.9-64.9,64.9H171.9z"/>
	<path class="st0" d="M883.1,293c33,0,59.9,26.9,59.9,59.9v313.2c0,33-26.9,59.9-59.9,59.9H171.9c-33,0-59.9-26.9-59.9-59.9V352.9
		c0-33,26.9-59.9,59.9-59.9H883.1 M883.1,283H171.9c-38.6,0-69.9,31.3-69.9,69.9v313.2c0,38.6,31.3,69.9,69.9,69.9h711.2
		c38.6,0,69.9-31.3,69.9-69.9V352.9C953,314.3,921.7,283,883.1,283L883.1,283z"/>
</g>
<g>
	<path class="st1" d="M146.9,701c-35.8,0-64.9-29.1-64.9-64.9V322.9c0-35.8,29.1-64.9,64.9-64.9h711.2c35.8,0,64.9,29.1,64.9,64.9
		v313.2c0,35.8-29.1,64.9-64.9,64.9H146.9z"/>
	<path d="M858.1,263c33,0,59.9,26.9,59.9,59.9v313.2c0,33-26.9,59.9-59.9,59.9H146.9c-33,0-59.9-26.9-59.9-59.9V322.9
		c0-33,26.9-59.9,59.9-59.9H858.1 M858.1,253H146.9c-38.6,0-69.9,31.3-69.9,69.9v313.2c0,38.6,31.3,69.9,69.9,69.9h711.2
		c38.6,0,69.9-31.3,69.9-69.9V322.9C928,284.3,896.7,253,858.1,253L858.1,253z"/>
</g>
<g>
	<rect x="164" y="307" class="st2" width="30" height="30"/>
	<path class="st2" d="M189,312v20h-20v-20H189 M199,302h-40v40h40V302L199,302z"/>
</g>
<g>
	<rect x="167" y="457" class="st3" width="30" height="30"/>
	<path class="st3" d="M192,462v20h-20v-20H192 M202,452h-40v40h40V452L202,452z"/>
</g>
<g>
	<rect x="328" y="463" class="st2" width="24" height="24"/>
	<path class="st2" d="M347,468v14h-14v-14H347 M357,458h-34v34h34V458L357,458z"/>
</g>
<g>
	<rect x="319" y="307" class="st4" width="30" height="30"/>
	<path class="st4" d="M344,312v20h-20v-20H344 M354,302h-40v40h40V302L354,302z"/>
</g>
<polyline class="st5" points="212.7,302 212.7,342 237,342 "/>
<polyline class="st5" points="163,347.8 163,362 176,362 176,382.7 160.9,382.7 "/>
<polyline class="st6" points="160.9,393.1 186,393.1 186,353.5 173.4,353.5 "/>
<polyline class="st6" points="199.8,353.5 238.9,353.5 238.9,393.1 223,393.1 223,443.1 199.8,443.1 "/>
<polyline class="st6" points="195,361 195,398.3 211,398.3 "/>
<polyline class="st6" points="203,361 226.3,361 226.3,382.7 "/>
<polyline class="st6" points="203,368.1 203,389 211,389 211,378.6 "/>
<line class="st7" x1="211" y1="371.9" x2="219" y2="371.9"/>
<polyline class="st6" points="163.9,399.9 163.9,423.3 174,423.3 "/>
<polyline class="st6" points="164,428.8 164,446 177,446 "/>
<polyline class="st6" points="181.8,446 190.3,446 190.3,433 212.7,433 212.7,405.9 "/>
<polyline class="st6" points="207,405.9 186,405.9 186,400.9 170.5,400.9 "/>
<polyline class="st6" points="170.5,407.2 170.5,413.2 204.4,413.2 "/>
<line class="st6" x1="179" y1="419.5" x2="179" y2="435.1"/>
<polyline class="st6" points="186,420.5 204.4,420.5 204.4,427 "/>
<polyline class="st5" points="276.4,344.4 276.4,358.5 289.4,358.5 289.4,379.2 274.3,379.2 "/>
<polyline class="st6" points="274.3,389.6 299.4,389.6 299.4,350 286.8,350 "/>
<polyline class="st6" points="313.2,350 352.3,350 352.3,389.6 336.4,389.6 336.4,439.6 313.2,439.6 "/>
<polyline class="st6" points="308.4,357.5 308.4,394.8 324.4,394.8 "/>
<polyline class="st6" points="316.4,357.5 339.7,357.5 339.7,379.2 "/>
<polyline class="st6" points="316.4,364.7 316.4,385.6 324.4,385.6 324.4,375.1 "/>
<line class="st7" x1="324.4" y1="368.4" x2="332.4" y2="368.4"/>
<polyline class="st6" points="277.3,396.4 277.3,419.8 287.4,419.8 "/>
<polyline class="st6" points="277.4,425.3 277.4,442.5 290.4,442.5 "/>
<polyline class="st6" points="295.2,442.5 303.7,442.5 303.7,429.5 326.1,429.5 326.1,402.4 "/>
<polyline class="st6" points="320.4,402.4 299.4,402.4 299.4,397.4 283.9,397.4 "/>
<polyline class="st6" points="283.9,403.7 283.9,409.7 317.8,409.7 "/>
<line class="st6" x1="292.4" y1="416" x2="292.4" y2="431.6"/>
<polyline class="st6" points="299.4,417 317.8,417 317.8,423.5 "/>
<polyline class="st6" points="232.3,443.1 232.3,399.9 249.7,399.9 249.7,350 "/>
<polyline class="st6" points="238.9,408.9 264.2,408.9 264.2,445.5 242.4,445.5 242.4,425.5 "/>
<polyline class="st6" points="241,417.8 253.1,417.8 253.1,436.9 "/>
<polyline class="st6" points="269.2,400.9 269.2,369.8 282.3,369.8 "/>
<polyline class="st6" points="255,400.9 261.1,400.9 261.1,358 269.2,358 "/>
<line class="st6" x1="219" y1="333" x2="285" y2="333"/>
<line class="st6" x1="242.6" y1="342" x2="253.1" y2="342"/>
<line class="st6" x1="256.4" y1="340" x2="280.1" y2="340"/>
<polyline class="st6" points="285,340 299.4,340 299.4,322 222.3,322 "/>
<polyline class="st6" points="222.3,302.1 222.3,312.8 232.3,312.8 232.3,302.1 242.6,302.1 242.6,315 306.4,315 "/>
<line class="st6" x1="247.8" y1="305.6" x2="304" y2="305.6"/>
<polyline class="st6" points="207,451.5 207,488.8 235,488.8 235,474.5 215,474.5 215,451.5 "/>
<polyline class="st6" points="226.3,451.5 226.3,465.7 247.1,465.7 247.1,490 "/>
<line class="st6" x1="232.3" y1="455.8" x2="256.4" y2="455.8"/>
<polyline class="st6" points="255,463.7 255,488.8 310.6,488.8 310.6,478 262.1,478 "/>
<polygon class="st6" points="262.1,455.8 314.9,455.8 314.9,468 262.1,468 262.1,459 "/>
<path class="st6" d="M271.9,461.9"/>
<polyline class="st6" points="320.4,447 347,447 347,397.4 "/>
<line class="st5" x1="204" y1="303.1" x2="204" y2="342"/>
<g>
	<path class="st8" d="M672.5,645.8c1.5-15.1,6.5-59.3,18.2-103.1c12.9-48.1,36.6-105.4,76.3-105.4c39.6,0,61,57.2,71.9,105.2
		c10,43.9,13.3,88.4,14.2,103.3H672.5z"/>
	<path class="st8" d="M766.9,442.3c15.4,0,28.7,9.6,40.7,29.3c10.5,17.2,19.3,41.4,26.3,72c9,39.2,12.5,79,13.7,97.3H678
		c2-18.5,7.1-57.9,17.5-96.9c8.2-30.6,18-54.9,29.2-72.1C737.4,452.2,751.6,442.3,766.9,442.3 M766.9,432.3
		c-83,0-100,218.5-100,218.5h191.3C858.3,650.8,850,432.3,766.9,432.3L766.9,432.3z"/>
</g>
<g>
	<circle class="st8" cx="762.5" cy="391.8" r="69"/>
	<path class="st8" d="M762.5,327.8c35.3,0,64,28.7,64,64s-28.7,64-64,64s-64-28.7-64-64S727.2,327.8,762.5,327.8 M762.5,317.8
		c-40.9,0-74,33.1-74,74s33.1,74,74,74s74-33.1,74-74S803.4,317.8,762.5,317.8L762.5,317.8z"/>
</g>
<path class="st5" d="M648.2,632.3c0,0,16.9-218.5,100-218.5s91.4,218.5,91.4,218.5H648.2z"/>
<circle class="st5" cx="743.7" cy="373.3" r="74"/>
<line class="st9" x1="160.9" y1="565" x2="328.4" y2="565"/>
<line class="st9" x1="347" y1="565" x2="411.3" y2="565"/>
<line class="st9" x1="427.2" y1="565" x2="502.5" y2="565"/>
<line class="st10" x1="160.9" y1="591.9" x2="427.2" y2="591.9"/>
<line class="st10" x1="438.9" y1="591.9" x2="495.4" y2="591.9"/>
<line class="st10" x1="162" y1="607.7" x2="268.3" y2="607.7"/>
<line class="st10" x1="277.4" y1="607.7" x2="366" y2="607.7"/>
<line class="st10" x1="379.2" y1="607.7" x2="473.4" y2="607.7"/>
<line class="st10" x1="163.9" y1="625.6" x2="310.6" y2="625.6"/>
<line class="st10" x1="317.8" y1="625.6" x2="383" y2="625.6"/>
<line class="st10" x1="395" y1="626" x2="453" y2="626"/>
<line class="st10" x1="164" y1="638" x2="280.1" y2="638"/>
<line class="st10" x1="287.4" y1="638" x2="405.8" y2="638"/>
<g>
	
		<ellipse transform="matrix(1 -5.157317e-03 5.157317e-03 1 -1.9189 2.6759)" class="st3" cx="517.9" cy="373.4" rx="53.6" ry="53.6"/>
	<g>
		<path class="st4" d="M523.5,319.8c4.2,7.6,6.6,16.4,6.6,25.8c0.2,29.5-23.8,53.7-53.3,53.8c-2,0-3.9-0.2-5.9-0.4
			c9.2,16.7,26.8,27.6,47.2,27.5c29.5-0.2,53.4-24.4,53.3-53.8C571.5,345.4,550.4,322.7,523.5,319.8z"/>
	</g>
	<path class="st11" d="M530.6,321.1c5.2,8.2,8.1,17.7,8.2,28.2c0.2,29.5-23.6,53.7-53.3,53.8c-4.3,0-8.7-0.6-13-1.7
		c9.6,15.3,26.4,25.5,45.9,25.4c29.5-0.2,53.4-24.4,53.3-53.8C571.6,348,553.9,326.8,530.6,321.1z"/>
	<path class="st2" d="M543.7,326c4.8,8,7.5,17.1,7.5,27.1c0.2,29.5-23.8,53.7-53.3,53.8c-9.3,0-18.2-2.3-25.8-6.4
		c9.4,16,26.8,26.5,46.6,26.4c29.5-0.2,53.4-24.4,53.3-53.8C571.8,352.7,560.2,335,543.7,326z"/>
	<path class="st12" d="M543.7,326.2c7.4,9.3,11.8,20.8,11.9,33.6c0.2,29.5-23.8,53.7-53.3,53.8c-9.5,0-18.4-2.5-26.3-6.6
		c9.8,12.3,25,20,42,20c29.5-0.2,53.4-24.4,53.3-53.8C571.6,352.7,560.2,335.2,543.7,326.2z"/>
</g>
<circle class="st13" cx="518.1" cy="373.4" r="67.9"/>
</svg>
