<?xml version="1.0" encoding="utf-8"?>
<!-- Generator: Adobe Illustrator 26.3.1, SVG Export Plug-In . SVG Version: 6.00 Build 0)  -->
<svg version="1.1" id="Layer_1" xmlns="http://www.w3.org/2000/svg" xmlns:xlink="http://www.w3.org/1999/xlink" x="0px" y="0px"
	 viewBox="0 0 1000 1000" style="enable-background:new 0 0 1000 1000;" xml:space="preserve">
<style type="text/css">
	.st0{fill:#B3B3B3;}
	.st1{fill:#FFFFFF;}
	.st2{fill:#B3B3B3;stroke:#000000;stroke-width:10;stroke-miterlimit:10;}
	.st3{fill:#B3B3B3;stroke:#808080;stroke-width:7;stroke-miterlimit:10;}
	.st4{fill:#FFFFFF;stroke:#000000;stroke-width:6;stroke-miterlimit:10;}
	.st5{fill:#FF855B;}
	.st6{fill:#FF635B;}
	.st7{fill:#C7385B;}
	.st8{fill:#62245B;}
	.st9{fill:#83005B;}
	.st10{fill:none;stroke:#FF855B;stroke-width:2;stroke-miterlimit:10;}
	.st11{font-family:'MontserratAlternates-Black';}
	.st12{font-size:44.3153px;}
	.st13{fill:#B3B3B3;stroke:#000000;stroke-width:5;stroke-miterlimit:10;}
</style>
<g>
	<path class="st0" d="M168.9,728c-35.8,0-64.9-29.1-64.9-64.9V349.9c0-35.8,29.1-64.9,64.9-64.9h711.2c35.8,0,64.9,29.1,64.9,64.9
		v313.2c0,35.8-29.1,64.9-64.9,64.9H168.9z"/>
	<path class="st0" d="M880.1,290c33,0,59.9,26.9,59.9,59.9v313.2c0,33-26.9,59.9-59.9,59.9H168.9c-33,0-59.9-26.9-59.9-59.9V349.9
		c0-33,26.9-59.9,59.9-59.9H880.1 M880.1,280H168.9c-38.6,0-69.9,31.3-69.9,69.9v313.2c0,38.6,31.3,69.9,69.9,69.9h711.2
		c38.6,0,69.9-31.3,69.9-69.9V349.9C950,311.3,918.7,280,880.1,280L880.1,280z"/>
</g>
<g>
	<path class="st1" d="M133.9,695C98.1,695,69,665.9,69,630.1V316.9c0-35.8,29.1-64.9,64.9-64.9h711.2c35.8,0,64.9,29.1,64.9,64.9
		v313.2c0,35.8-29.1,64.9-64.9,64.9H133.9z"/>
	<path d="M845.1,257c33,0,59.9,26.9,59.9,59.9v313.2c0,33-26.9,59.9-59.9,59.9H133.9c-33,0-59.9-26.9-59.9-59.9V316.9
		c0-33,26.9-59.9,59.9-59.9H845.1 M845.1,247H133.9C95.3,247,64,278.3,64,316.9v313.2c0,38.6,31.3,69.9,69.9,69.9h711.2
		c38.6,0,69.9-31.3,69.9-69.9V316.9C915,278.3,883.7,247,845.1,247L845.1,247z"/>
</g>
<line class="st2" x1="128.3" y1="303" x2="298" y2="303"/>
<line class="st2" x1="317.1" y1="303" x2="440.2" y2="303"/>
<line class="st3" x1="128" y1="338" x2="340.3" y2="338"/>
<line class="st3" x1="359.8" y1="338" x2="476.7" y2="338"/>
<line class="st3" x1="128.5" y1="356.5" x2="359.8" y2="356.5"/>
<line class="st3" x1="372" y1="356.5" x2="508.4" y2="356.5"/>
<line class="st3" x1="128" y1="377.3" x2="213.2" y2="377.3"/>
<line class="st3" x1="226.5" y1="377.5" x2="328.1" y2="377.5"/>
<line class="st3" x1="340.3" y1="377.5" x2="476.7" y2="377.5"/>
<g>
	<path class="st0" d="M667.7,644.5c1.5-15.1,6.5-59.3,18.2-103.1c12.9-48.1,36.6-105.4,76.3-105.4c39.6,0,61,57.3,71.9,105.4
		c10,43.9,13.3,88.3,14.1,103.1H667.7z"/>
	<path class="st0" d="M762.2,441c15.4,0,28.7,9.6,40.7,29.3c10.5,17.2,19.3,41.4,26.3,72c9,39.2,12.5,79,13.7,97.3H673.3
		c2-18.5,7.1-57.9,17.5-96.9c8.2-30.6,18-54.9,29.2-72.1C732.7,450.9,746.9,441,762.2,441 M762.2,431c-83,0-100,218.5-100,218.5
		h191.3C853.6,649.5,845.3,431,762.2,431L762.2,431z"/>
</g>
<g>
	<circle class="st0" cx="757.8" cy="390.5" r="69"/>
	<path class="st0" d="M757.8,326.5c35.3,0,64,28.7,64,64s-28.7,64-64,64c-35.3,0-64-28.7-64-64S722.5,326.5,757.8,326.5
		 M757.8,316.5c-40.9,0-74,33.1-74,74s33.1,74,74,74c40.9,0,74-33.1,74-74S798.6,316.5,757.8,316.5L757.8,316.5z"/>
</g>
<path class="st4" d="M643.5,631c0,0,16.9-218.5,100-218.5S834.8,631,834.8,631H643.5z"/>
<circle class="st4" cx="739" cy="372" r="74"/>
<g>
	
		<ellipse transform="matrix(1 -5.157312e-03 5.157312e-03 1 -3.0491 0.9623)" class="st5" cx="185.1" cy="591.7" rx="38.8" ry="38.8"/>
	<g>
		<path class="st6" d="M189.1,552.8c3,5.5,4.8,11.9,4.8,18.7c0.1,21.4-17.3,38.9-38.6,39c-1.4,0-2.8-0.1-4.2-0.3
			c6.7,12.1,19.4,20,34.2,20c21.4-0.1,38.8-17.7,38.6-39C224,571.4,208.6,554.9,189.1,552.8z"/>
	</g>
	<path class="st7" d="M194.3,553.7c3.8,6,5.9,12.9,5.9,20.4c0.1,21.4-17.1,38.9-38.6,39c-3.1,0-6.3-0.4-9.4-1.2
		c7,11.1,19.1,18.5,33.3,18.4c21.4-0.1,38.8-17.7,38.6-39C224,573.3,211.2,557.9,194.3,553.7z"/>
	<path class="st8" d="M203.8,557.3c3.5,5.8,5.4,12.4,5.4,19.6c0.1,21.4-17.3,38.9-38.6,39c-6.8,0-13.2-1.7-18.7-4.6
		c6.8,11.6,19.4,19.2,33.8,19.2c21.4-0.1,38.8-17.7,38.6-39C224.2,576.7,215.8,563.9,203.8,557.3z"/>
	<path class="st9" d="M203.8,557.5c5.4,6.7,8.6,15.1,8.6,24.3c0.1,21.4-17.3,38.9-38.6,39c-6.9,0-13.4-1.8-19.1-4.8
		c7.1,8.9,18.2,14.5,30.4,14.5c21.4-0.1,38.8-17.7,38.6-39C224,576.7,215.8,564,203.8,557.5z"/>
</g>
<circle class="st10" cx="185.2" cy="591.7" r="49.2"/>
<text transform="matrix(1 -5.157302e-03 5.157302e-03 1 263.4041 610.9915)" class="st5 st11 st12">WE</text>
<text transform="matrix(1 -5.157302e-03 5.157302e-03 1 349.5475 610.5502)" class="st6 st11 st12">BL</text>
<text transform="matrix(1 -5.157302e-03 5.157302e-03 1 413.2952 610.2275)" class="st7 st11 st12">I</text>
<text transform="matrix(1 -5.157302e-03 5.157302e-03 1 435.6914 610.1069)" class="st8 st11 st12">S</text>
<text transform="matrix(1 -5.157302e-03 5.157302e-03 1 465.4688 609.9532)" class="st9 st11 st12">H</text>
<line class="st13" x1="129" y1="518.4" x2="490.5" y2="518.4"/>
<line class="st13" x1="129" y1="484.4" x2="490.5" y2="484.4"/>
</svg>
