<?xml version="1.0" encoding="utf-8"?>
<!-- Generator: Adobe Illustrator 26.3.1, SVG Export Plug-In . SVG Version: 6.00 Build 0)  -->
<svg version="1.1" id="Layer_1" xmlns="http://www.w3.org/2000/svg" xmlns:xlink="http://www.w3.org/1999/xlink" x="0px" y="0px"
	 viewBox="0 0 1000 1000" style="enable-background:new 0 0 1000 1000;" xml:space="preserve">
<style type="text/css">
	.st0{fill:#B3B3B3;}
	.st1{fill:#999999;stroke:#CCCCCC;stroke-width:10;stroke-miterlimit:10;}
	.st2{fill:#FFFFFF;}
	.st3{fill:#B3B3B3;stroke:#000000;stroke-width:10;stroke-miterlimit:10;}
	.st4{fill:#B3B3B3;stroke:#808080;stroke-width:7;stroke-miterlimit:10;}
	.st5{fill:#FFFFFF;stroke:#000000;stroke-width:6;stroke-miterlimit:10;}
	.st6{fill:#FF855B;}
	.st7{fill:#FF635B;}
	.st8{fill:#C7385B;}
	.st9{fill:#62245B;}
	.st10{fill:#83005B;}
	.st11{fill:none;stroke:#FF855B;stroke-width:2;stroke-miterlimit:10;}
	.st12{font-family:'MontserratAlternates-Black';}
	.st13{font-size:24.4926px;}
	.st14{fill:#B3B3B3;stroke:#000000;stroke-width:5;stroke-miterlimit:10;}
	.st15{fill:#999999;stroke:#999999;stroke-width:10;stroke-miterlimit:10;}
	.st16{fill:#FFFFFF;stroke:#000000;stroke-width:10;stroke-miterlimit:10;}
	.st17{opacity:0.43;}
	.st18{opacity:0.43;fill:none;stroke:#FF855B;stroke-width:2;stroke-miterlimit:10;}
	.st19{opacity:0.43;fill:#FF855B;enable-background:new    ;}
	.st20{font-size:12.3512px;}
	.st21{opacity:0.43;fill:#FF635B;enable-background:new    ;}
	.st22{opacity:0.43;fill:#C7385B;enable-background:new    ;}
	.st23{opacity:0.43;fill:#62245B;enable-background:new    ;}
	.st24{opacity:0.43;fill:#83005B;enable-background:new    ;}
</style>
<g>
	<path class="st0" d="M236.2,270.7c-35.8,0-64.9-29.1-64.9-64.9V95.2c0-35.8,29.1-64.9,64.9-64.9h330.6c35.8,0,64.9,29.1,64.9,64.9
		v110.6c0,35.8-29.1,64.9-64.9,64.9H236.2z"/>
	<path class="st0" d="M566.8,35.3c33,0,59.9,26.9,59.9,59.9v110.6c0,33-26.9,59.9-59.9,59.9H236.2c-33,0-59.9-26.9-59.9-59.9V95.2
		c0-33,26.9-59.9,59.9-59.9H566.8 M566.8,25.3H236.2c-38.6,0-69.9,31.3-69.9,69.9v110.6c0,38.6,31.3,69.9,69.9,69.9h330.6
		c38.6,0,69.9-31.3,69.9-69.9V95.2C636.7,56.6,605.4,25.3,566.8,25.3L566.8,25.3z"/>
</g>
<line class="st1" x1="612.2" y1="405.3" x2="154" y2="136.4"/>
<line class="st1" x1="653.1" y1="335.7" x2="612.2" y2="146.8"/>
<g>
	<path class="st2" d="M216.9,252.5c-35.8,0-64.9-29.1-64.9-64.9V77c0-35.8,29.1-64.9,64.9-64.9h330.6c35.8,0,64.9,29.1,64.9,64.9
		v110.6c0,35.8-29.1,64.9-64.9,64.9H216.9z"/>
	<path d="M547.5,17.1c33,0,59.9,26.9,59.9,59.9v110.6c0,33-26.9,59.9-59.9,59.9H216.9c-33,0-59.9-26.9-59.9-59.9V77
		c0-33,26.9-59.9,59.9-59.9H547.5 M547.5,7.1H216.9C178.3,7.1,147,38.4,147,77v110.6c0,38.6,31.3,69.9,69.9,69.9h330.6
		c38.6,0,69.9-31.3,69.9-69.9V77C617.3,38.4,586.1,7.1,547.5,7.1L547.5,7.1z"/>
</g>
<line class="st3" x1="182.6" y1="38.1" x2="276.3" y2="38.1"/>
<line class="st3" x1="286.9" y1="38.1" x2="354.9" y2="38.1"/>
<line class="st4" x1="182.4" y1="57.4" x2="299.7" y2="57.4"/>
<line class="st4" x1="310.5" y1="57.4" x2="375.1" y2="57.4"/>
<line class="st4" x1="182.7" y1="67.6" x2="310.5" y2="67.6"/>
<line class="st4" x1="317.2" y1="67.6" x2="392.6" y2="67.6"/>
<line class="st4" x1="182.4" y1="79.1" x2="229.4" y2="79.1"/>
<line class="st4" x1="236.8" y1="79.2" x2="293" y2="79.2"/>
<line class="st4" x1="299.7" y1="79.2" x2="375.1" y2="79.2"/>
<g>
	<path class="st0" d="M483.1,224.6c3.5-35.3,17.7-110.8,49.8-110.8c32,0,43.2,75.6,45.2,110.8H483.1z"/>
	<path class="st0" d="M532.9,118.8c10.1,0,16.6,10.5,18.7,14c5.5,9.1,10.2,22,14,38.4c4.2,18.5,6.3,37.2,7.2,48.4h-84
		c1.4-11.2,4.1-29.8,9-48c4.4-16.5,9.7-29.4,15.6-38.5C515.6,129.5,522.6,118.8,532.9,118.8 M532.9,108.8
		c-45.9,0-55.2,120.8-55.2,120.8h105.7C583.4,229.6,578.8,108.8,532.9,108.8L532.9,108.8z"/>
</g>
<g>
	<path class="st0" d="M530.4,122.3c-19.8,0-35.9-16.1-35.9-35.9s16.1-35.9,35.9-35.9s35.9,16.1,35.9,35.9S550.2,122.3,530.4,122.3z"
		/>
	<path class="st0" d="M530.4,55.5c17,0,30.9,13.9,30.9,30.9s-13.9,30.9-30.9,30.9s-30.9-13.9-30.9-30.9S513.4,55.5,530.4,55.5
		 M530.4,45.5c-22.6,0-40.9,18.3-40.9,40.9s18.3,40.9,40.9,40.9s40.9-18.3,40.9-40.9S553,45.5,530.4,45.5L530.4,45.5z"/>
</g>
<path class="st5" d="M467.3,219.3c0,0,9.3-120.8,55.2-120.8S573,219.3,573,219.3H467.3z"/>
<circle class="st5" cx="520.1" cy="76.2" r="40.9"/>
<g>
	
		<ellipse transform="matrix(1 -5.157334e-03 5.157334e-03 1 -1.0163 1.1059)" class="st6" cx="213.9" cy="197.6" rx="21.5" ry="21.5"/>
	<g>
		<path class="st7" d="M216.2,176.1c1.7,3,2.6,6.6,2.7,10.3c0.1,11.8-9.5,21.5-21.4,21.6c-0.8,0-1.6-0.1-2.3-0.2
			c3.7,6.7,10.7,11.1,18.9,11c11.8-0.1,21.4-9.8,21.4-21.6C235.4,186.4,226.9,177.3,216.2,176.1z"/>
	</g>
	<path class="st8" d="M219,176.6c2.1,3.3,3.3,7.1,3.3,11.3c0.1,11.8-9.5,21.5-21.4,21.6c-1.7,0-3.5-0.2-5.2-0.7
		c3.9,6.2,10.6,10.2,18.4,10.2c11.8-0.1,21.4-9.8,21.4-21.6C235.4,187.4,228.3,178.9,219,176.6z"/>
	<path class="st9" d="M224.3,178.6c1.9,3.2,3,6.9,3,10.9c0.1,11.8-9.5,21.5-21.4,21.6c-3.7,0-7.3-0.9-10.4-2.6
		c3.8,6.4,10.7,10.6,18.7,10.6c11.8-0.1,21.4-9.8,21.4-21.6C235.5,189.3,230.9,182.2,224.3,178.6z"/>
	<path class="st10" d="M224.3,178.7c3,3.7,4.7,8.3,4.8,13.4c0.1,11.8-9.5,21.5-21.4,21.6c-3.8,0-7.4-1-10.5-2.6c3.9,4.9,10,8,16.8,8
		c11.8-0.1,21.4-9.8,21.4-21.6C235.4,189.3,230.9,182.3,224.3,178.7z"/>
</g>
<circle class="st11" cx="214" cy="197.6" r="27.2"/>
<text transform="matrix(1 -5.157302e-03 5.157302e-03 1 257.2174 208.277)" class="st6 st12 st13">WE</text>
<text transform="matrix(1 -5.157302e-03 5.157302e-03 1 304.8266 208.033)" class="st7 st12 st13">BL</text>
<text transform="matrix(1 -5.157302e-03 5.157302e-03 1 340.0596 207.8547)" class="st8 st12 st13">I</text>
<text transform="matrix(1 -5.157302e-03 5.157302e-03 1 352.4383 207.7884)" class="st9 st12 st13">S</text>
<text transform="matrix(1 -5.157302e-03 5.157302e-03 1 368.8951 207.7035)" class="st10 st12 st13">H</text>
<line class="st14" x1="182.9" y1="157.1" x2="382.7" y2="157.1"/>
<line class="st14" x1="182.9" y1="138.3" x2="382.7" y2="138.3"/>
<path class="st15" d="M561,766.3c0,0,45.5-282.4,166.1-282.4S865,766.3,865,766.3H561z"/>
<circle class="st15" cx="721.1" cy="420.1" r="84.4"/>
<path class="st16" d="M536.6,751.6c0,0,45.5-282.4,166.1-282.4s137.8,282.4,137.8,282.4H536.6z"/>
<circle class="st16" cx="696.6" cy="405.3" r="84.4"/>
<g class="st17">
	<circle class="st6" cx="654.8" cy="402.5" r="10.8"/>
	<g>
		<path class="st7" d="M665.6,402.7c0-6-4.8-10.8-10.8-10.9c-4.1,0-7.7,2.2-9.5,5.6c0.4,0,0.8-0.1,1.2-0.1c6,0,10.8,4.9,10.8,10.9
			c0,1.9-0.5,3.7-1.3,5.2C661.4,412.8,665.6,408.2,665.6,402.7z"/>
	</g>
	<path class="st8" d="M665.7,402.6c0-6-4.8-10.8-10.8-10.9c-3.9,0-7.3,2-9.3,5.1c0.9-0.2,1.8-0.3,2.6-0.3c6,0,10.8,4.9,10.8,10.9
		c0,2.1-0.6,4-1.6,5.7C662.1,411.9,665.6,407.7,665.7,402.6z"/>
	<path class="st9" d="M665.7,402.6c0-6-4.8-10.8-10.8-10.9c-4,0-7.5,2.1-9.4,5.4c1.5-0.8,3.3-1.3,5.2-1.3c6,0,10.8,4.9,10.8,10.9
		c0,2-0.5,3.9-1.5,5.5C663.4,410.3,665.7,406.7,665.7,402.6z"/>
	<path class="st10" d="M665.6,402.6c0-6-4.8-10.8-10.8-10.9c-3.4,0-6.5,1.6-8.5,4c1.6-0.8,3.4-1.3,5.3-1.3c6,0,10.8,4.9,10.8,10.9
		c0,2.6-0.9,4.9-2.4,6.8C663.4,410.2,665.7,406.7,665.6,402.6z"/>
</g>
<circle class="st18" cx="654.8" cy="402.5" r="13.7"/>
<text transform="matrix(1 4.042520e-03 4.042520e-03 -1 676.6238 397.1305)" class="st19 st12 st20">WE</text>
<text transform="matrix(1 4.042520e-03 4.042520e-03 -1 700.6334 397.2265)" class="st21 st12 st20">BL</text>
<text transform="matrix(1 4.042520e-03 4.042520e-03 -1 718.3999 397.2964)" class="st22 st12 st20">I</text>
<text transform="matrix(1 4.042520e-03 4.042520e-03 -1 724.642 397.3236)" class="st23 st12 st20">S</text>
<text transform="matrix(1 4.042520e-03 4.042520e-03 -1 732.9418 397.3571)" class="st24 st12 st20">H</text>
</svg>
