<?xml version="1.0" encoding="utf-8"?>
<!-- Generator: Adobe Illustrator 26.3.1, SVG Export Plug-In . SVG Version: 6.00 Build 0)  -->
<svg version="1.1" id="Layer_1" xmlns="http://www.w3.org/2000/svg" xmlns:xlink="http://www.w3.org/1999/xlink" x="0px" y="0px"
	 viewBox="0 0 1000 1000" style="enable-background:new 0 0 1000 1000;" xml:space="preserve">
<style type="text/css">
	.st0{fill:#B3B3B3;stroke:#B3B3B3;stroke-width:7;stroke-miterlimit:10;}
	.st1{fill:#FFFFFF;stroke:#000000;stroke-width:7;stroke-miterlimit:10;}
	.st2{fill:#FFFFFF;stroke:#999999;stroke-width:5;stroke-miterlimit:10;}
	.st3{fill:#B3B3B3;}
	.st4{fill:#FFFFFF;}
	.st5{fill:none;stroke:#000000;stroke-width:3;stroke-miterlimit:10;}
	.st6{fill:none;stroke:#000000;stroke-width:5;stroke-miterlimit:10;}
	.st7{fill:none;stroke:#999999;stroke-width:5;stroke-miterlimit:10;}
	.st8{fill:none;stroke:#999999;stroke-width:2;stroke-miterlimit:10;}
	.st9{fill:none;stroke:#000000;stroke-width:8;stroke-miterlimit:10;}
	.st10{fill:none;stroke:#808080;stroke-width:5;stroke-miterlimit:10;}
</style>
<path class="st0" d="M620.5,466.1c0,0,0.1-29.7-142.1-29.7s-135,29.7-135,29.7s-3.3,0.4-0.4,0.4s0.1-29.7-142.1-29.7
	s-135,27.8-135,29.7c0,1.9,0.5-278.1,0.5-278.1s-7.2-29.7,135-29.7s142.1,29.7,142.1,29.7l0.4-0.4c0,0-7.2-29.7,135-29.7
	S621,188,621,188L620.5,466.1z"/>
<path class="st1" d="M605.9,452.7c0,0,0.1-29.7-142.1-29.7s-135,29.7-135,29.7s-3.3,0.4-0.4,0.4s0.1-29.7-142.1-29.7
	s-135,27.8-135,29.7S52,175,52,175s-7.2-29.7,135-29.7S329,175,329,175l0.4-0.4c0,0-7.2-29.7,135-29.7s142.1,29.7,142.1,29.7
	L605.9,452.7z"/>
<line class="st1" x1="329" y1="173.1" x2="329" y2="451.2"/>
<line class="st1" x1="78" y1="179.1" x2="173.3" y2="179.1"/>
<line class="st1" x1="183.9" y1="179.1" x2="264.5" y2="179.1"/>
<line class="st2" x1="171" y1="196.2" x2="219.1" y2="196.2"/>
<line class="st2" x1="226.8" y1="196.2" x2="278.8" y2="196.2"/>
<line class="st2" x1="78" y1="205.7" x2="163.9" y2="205.7"/>
<line class="st2" x1="170.1" y1="205.7" x2="308.2" y2="205.7"/>
<line class="st2" x1="78" y1="214.1" x2="185.9" y2="214.1"/>
<line class="st2" x1="93.2" y1="222.4" x2="233.1" y2="222.4"/>
<line class="st2" x1="237.9" y1="222.4" x2="282.4" y2="222.4"/>
<line class="st2" x1="286.8" y1="222.4" x2="304.7" y2="222.4"/>
<line class="st2" x1="78" y1="230.9" x2="138.6" y2="230.9"/>
<line class="st2" x1="142" y1="230.9" x2="217.6" y2="230.9"/>
<line class="st2" x1="221.1" y1="230.9" x2="276.1" y2="230.9"/>
<line class="st2" x1="282.4" y1="230.9" x2="308.2" y2="230.9"/>
<line class="st2" x1="78" y1="238.6" x2="185.9" y2="238.6"/>
<line class="st2" x1="191.6" y1="238.6" x2="264.5" y2="238.6"/>
<line class="st2" x1="270.1" y1="238.6" x2="310.4" y2="238.6"/>
<line class="st2" x1="79.3" y1="246.5" x2="163.2" y2="246.5"/>
<line class="st2" x1="78" y1="196.2" x2="161.3" y2="196.2"/>
<line class="st2" x1="172.2" y1="257.6" x2="220.3" y2="257.6"/>
<line class="st2" x1="228" y1="257.6" x2="280" y2="257.6"/>
<line class="st2" x1="79.2" y1="267.2" x2="165.1" y2="267.2"/>
<line class="st2" x1="171.3" y1="267.2" x2="309.4" y2="267.2"/>
<line class="st2" x1="79.2" y1="275.5" x2="187.1" y2="275.5"/>
<line class="st2" x1="94.4" y1="283.8" x2="234.3" y2="283.8"/>
<line class="st2" x1="239.1" y1="283.8" x2="283.6" y2="283.8"/>
<line class="st2" x1="288" y1="283.8" x2="305.9" y2="283.8"/>
<line class="st2" x1="79.2" y1="292.3" x2="139.8" y2="292.3"/>
<line class="st2" x1="143.2" y1="292.3" x2="218.8" y2="292.3"/>
<line class="st2" x1="222.3" y1="292.3" x2="277.3" y2="292.3"/>
<line class="st2" x1="283.6" y1="292.3" x2="309.4" y2="292.3"/>
<line class="st2" x1="79.2" y1="300" x2="187.1" y2="300"/>
<line class="st2" x1="192.8" y1="300" x2="265.7" y2="300"/>
<line class="st2" x1="271.3" y1="300" x2="311.6" y2="300"/>
<line class="st2" x1="80.5" y1="307.9" x2="164.4" y2="307.9"/>
<line class="st2" x1="79.2" y1="257.6" x2="162.5" y2="257.6"/>
<line class="st2" x1="173.5" y1="320.5" x2="221.5" y2="320.5"/>
<line class="st2" x1="229.3" y1="320.5" x2="281.3" y2="320.5"/>
<line class="st2" x1="80.5" y1="330.1" x2="166.4" y2="330.1"/>
<line class="st2" x1="172.6" y1="330.1" x2="310.7" y2="330.1"/>
<line class="st2" x1="80.5" y1="338.5" x2="188.3" y2="338.5"/>
<line class="st2" x1="95.7" y1="346.8" x2="235.6" y2="346.8"/>
<line class="st2" x1="240.4" y1="346.8" x2="284.8" y2="346.8"/>
<line class="st2" x1="289.3" y1="346.8" x2="307.2" y2="346.8"/>
<line class="st2" x1="80.5" y1="355.2" x2="141.1" y2="355.2"/>
<line class="st2" x1="144.5" y1="355.2" x2="220.1" y2="355.2"/>
<line class="st2" x1="223.6" y1="355.2" x2="278.6" y2="355.2"/>
<line class="st2" x1="284.8" y1="355.2" x2="310.7" y2="355.2"/>
<line class="st2" x1="80.5" y1="362.9" x2="188.3" y2="362.9"/>
<line class="st2" x1="194.1" y1="362.9" x2="267" y2="362.9"/>
<line class="st2" x1="272.6" y1="362.9" x2="312.9" y2="362.9"/>
<line class="st2" x1="81.8" y1="370.8" x2="165.6" y2="370.8"/>
<line class="st2" x1="80.5" y1="320.5" x2="163.8" y2="320.5"/>
<line class="st2" x1="444.1" y1="179.3" x2="492.2" y2="179.3"/>
<line class="st2" x1="499.9" y1="179.3" x2="551.9" y2="179.3"/>
<line class="st2" x1="351.1" y1="188.8" x2="437" y2="188.8"/>
<line class="st2" x1="443.2" y1="188.8" x2="581.3" y2="188.8"/>
<line class="st2" x1="351.1" y1="197.2" x2="459" y2="197.2"/>
<line class="st2" x1="366.3" y1="205.5" x2="506.2" y2="205.5"/>
<line class="st2" x1="511" y1="205.5" x2="555.5" y2="205.5"/>
<line class="st2" x1="559.9" y1="205.5" x2="577.9" y2="205.5"/>
<line class="st2" x1="351.1" y1="214" x2="411.7" y2="214"/>
<line class="st2" x1="415.1" y1="214" x2="490.7" y2="214"/>
<line class="st2" x1="494.3" y1="214" x2="549.2" y2="214"/>
<line class="st2" x1="555.5" y1="214" x2="581.3" y2="214"/>
<line class="st2" x1="351.1" y1="221.7" x2="459" y2="221.7"/>
<line class="st2" x1="464.7" y1="221.7" x2="537.6" y2="221.7"/>
<line class="st2" x1="543.2" y1="221.7" x2="583.5" y2="221.7"/>
<line class="st2" x1="352.4" y1="229.6" x2="436.3" y2="229.6"/>
<line class="st2" x1="351.1" y1="179.3" x2="434.4" y2="179.3"/>
<line class="st2" x1="445" y1="242.3" x2="493.1" y2="242.3"/>
<line class="st2" x1="500.9" y1="242.3" x2="552.8" y2="242.3"/>
<line class="st2" x1="352" y1="251.9" x2="437.9" y2="251.9"/>
<line class="st2" x1="444.1" y1="251.8" x2="582.2" y2="251.8"/>
<line class="st2" x1="352" y1="260.2" x2="459.9" y2="260.2"/>
<line class="st2" x1="367.2" y1="268.5" x2="507.1" y2="268.5"/>
<line class="st2" x1="511.9" y1="268.5" x2="556.4" y2="268.5"/>
<line class="st2" x1="560.9" y1="268.5" x2="578.8" y2="268.5"/>
<line class="st2" x1="352" y1="277" x2="412.6" y2="277"/>
<line class="st2" x1="416.1" y1="277" x2="491.6" y2="277"/>
<line class="st2" x1="495.2" y1="277" x2="550.1" y2="277"/>
<line class="st2" x1="556.4" y1="277" x2="582.2" y2="277"/>
<line class="st2" x1="352" y1="284.7" x2="459.9" y2="284.7"/>
<line class="st2" x1="465.6" y1="284.7" x2="538.6" y2="284.7"/>
<line class="st2" x1="544.1" y1="284.7" x2="584.5" y2="284.7"/>
<line class="st2" x1="353.3" y1="292.6" x2="437.2" y2="292.6"/>
<line class="st2" x1="352" y1="242.3" x2="435.3" y2="242.3"/>
<line class="st2" x1="445.9" y1="305.3" x2="494" y2="305.3"/>
<line class="st2" x1="501.8" y1="305.3" x2="553.7" y2="305.3"/>
<line class="st2" x1="352.9" y1="314.9" x2="438.9" y2="314.9"/>
<line class="st2" x1="445.1" y1="314.8" x2="583.1" y2="314.8"/>
<line class="st2" x1="352.9" y1="323.2" x2="460.8" y2="323.2"/>
<line class="st2" x1="368.2" y1="331.5" x2="508.1" y2="331.5"/>
<line class="st2" x1="512.8" y1="331.5" x2="557.3" y2="331.5"/>
<line class="st2" x1="561.8" y1="331.5" x2="579.7" y2="331.5"/>
<line class="st2" x1="352.9" y1="340" x2="413.6" y2="340"/>
<line class="st2" x1="417" y1="340" x2="492.5" y2="340"/>
<line class="st2" x1="496.1" y1="340" x2="551" y2="340"/>
<line class="st2" x1="557.3" y1="340" x2="583.1" y2="340"/>
<line class="st2" x1="352.9" y1="347.7" x2="460.8" y2="347.7"/>
<line class="st2" x1="466.5" y1="347.7" x2="539.5" y2="347.7"/>
<line class="st2" x1="545.1" y1="347.7" x2="585.4" y2="347.7"/>
<line class="st2" x1="354.3" y1="355.6" x2="438.1" y2="355.6"/>
<line class="st2" x1="352.9" y1="305.3" x2="436.3" y2="305.3"/>
<line class="st2" x1="372" y1="362.9" x2="431" y2="362.9"/>
<line class="st2" x1="435.3" y1="362.9" x2="495.2" y2="362.9"/>
<line class="st2" x1="503" y1="362.9" x2="552.8" y2="362.9"/>
<line class="st2" x1="353.3" y1="372.8" x2="427.7" y2="372.8"/>
<line class="st2" x1="435.3" y1="372.8" x2="485.8" y2="372.8"/>
<line class="st2" x1="491.6" y1="372.8" x2="556.4" y2="372.8"/>
<line class="st2" x1="353.3" y1="381.6" x2="429.7" y2="381.6"/>
<line class="st2" x1="433.5" y1="381.6" x2="535.1" y2="381.6"/>
<line class="st2" x1="541.3" y1="381.6" x2="569.8" y2="381.6"/>
<line class="st2" x1="81.8" y1="381.6" x2="156.2" y2="381.6"/>
<line class="st2" x1="162.5" y1="381.6" x2="217.6" y2="381.6"/>
<line class="st2" x1="223.6" y1="381.6" x2="281.3" y2="381.6"/>
<line class="st2" x1="81.8" y1="391.6" x2="159" y2="391.6"/>
<line class="st2" x1="166.4" y1="391.6" x2="249.8" y2="391.6"/>
<g>
	<path class="st3" d="M881,882H427.4c-16.6,0-29.9-13.4-29.9-29.9V669.5c0-16.6,13.4-29.9,29.9-29.9h453.5
		c16.6,0,29.9,13.4,29.9,29.9v182.6C910.9,868.6,897.5,882,881,882z"/>
</g>
<g>
	<path class="st4" d="M409.5,856.4c-15.5,0-28-12.5-28-28V645.9c0-15.5,12.5-28,28-28H863c15.5,0,28,12.5,28,28v182.6
		c0,15.5-12.5,28-28,28L409.5,856.4L409.5,856.4z"/>
	<path d="M863,619.9c14.3,0,26,11.7,26,26v182.6c0,14.3-11.7,26-26,26H409.5c-14.3,0-26-11.7-26-26V645.9c0-14.3,11.7-26,26-26H863
		 M863,616H409.5c-16.6,0-29.9,13.4-29.9,29.9v182.6c0,16.6,13.4,29.9,29.9,29.9H863c16.6,0,29.9-13.4,29.9-29.9V645.9
		C893,629.3,879.6,616,863,616L863,616z"/>
</g>
<line class="st5" x1="379.6" y1="654.6" x2="893" y2="654.6"/>
<line class="st6" x1="412.4" y1="636.5" x2="505.9" y2="636.5"/>
<line class="st7" x1="583" y1="636.5" x2="617" y2="636.5"/>
<line class="st7" x1="631.3" y1="636.5" x2="699.3" y2="636.5"/>
<line class="st7" x1="711.4" y1="636.5" x2="746" y2="636.5"/>
<line class="st7" x1="760.7" y1="636.5" x2="808.4" y2="636.5"/>
<circle class="st8" cx="847.1" cy="636.5" r="10.6"/>
<line class="st9" x1="571.1" y1="674.1" x2="711.4" y2="674.1"/>
<line class="st10" x1="543" y1="689.1" x2="636.3" y2="689.1"/>
<line class="st10" x1="642.1" y1="689.1" x2="672.3" y2="689.1"/>
<line class="st10" x1="680" y1="689.1" x2="739.7" y2="689.1"/>
<line class="st10" x1="553.5" y1="696.4" x2="636.3" y2="696.4"/>
<line class="st10" x1="642.1" y1="696.4" x2="692.4" y2="696.4"/>
<line class="st10" x1="697" y1="696.4" x2="716.9" y2="696.4"/>
<line class="st10" x1="550.8" y1="702.9" x2="586.4" y2="702.9"/>
<line class="st10" x1="594.9" y1="702.9" x2="660.7" y2="702.9"/>
<line class="st10" x1="667.3" y1="702.9" x2="720" y2="702.9"/>
<line class="st10" x1="543" y1="708.6" x2="581.6" y2="708.6"/>
<line class="st10" x1="589.6" y1="708.6" x2="697" y2="708.6"/>
<line class="st10" x1="702.4" y1="708.6" x2="739.7" y2="708.6"/>
<line class="st10" x1="543" y1="714.9" x2="631.3" y2="714.9"/>
<line class="st10" x1="636.3" y1="714.9" x2="680" y2="714.9"/>
<line class="st10" x1="687.2" y1="714.9" x2="733.9" y2="714.9"/>
<line class="st10" x1="531.8" y1="722.2" x2="581.6" y2="722.2"/>
<line class="st10" x1="589.6" y1="722.2" x2="660.7" y2="722.2"/>
<line class="st10" x1="672.3" y1="722.2" x2="746" y2="722.2"/>
<g>
	<path class="st3" d="M515.8,841.4h-35c-10.1,0-18.2-8.2-18.2-18.2V754c0-10.1,8.2-18.2,18.2-18.2h35c10.1,0,18.2,8.2,18.2,18.2
		v69.1C534.1,833.2,525.9,841.4,515.8,841.4z"/>
</g>
<g>
	<path class="st4" d="M473.8,836c-9.3,0-16.9-7.6-16.9-16.9V750c0-9.3,7.6-16.9,16.9-16.9h35.1c9.3,0,16.9,7.6,16.9,16.9V819
		c0,9.3-7.6,16.9-16.9,16.9L473.8,836L473.8,836z"/>
	<path d="M508.9,734.4c8.6,0,15.6,7,15.6,15.6V819c0,8.6-7,15.6-15.6,15.6h-35.1c-8.6,0-15.6-7-15.6-15.6V750
		c0-8.6,7-15.6,15.6-15.6H508.9 M508.9,731.8h-35.1c-10.1,0-18.2,8.2-18.2,18.2V819c0,10.1,8.2,18.2,18.2,18.2h35.1
		c10.1,0,18.2-8.2,18.2-18.2V750C527.1,739.9,519,731.8,508.9,731.8L508.9,731.8z"/>
</g>
<g>
	<path class="st3" d="M615.9,841.4h-35c-10.1,0-18.2-8.2-18.2-18.2V754c0-10.1,8.2-18.2,18.2-18.2h35c10.1,0,18.2,8.2,18.2,18.2
		v69.1C634.1,833.2,625.9,841.4,615.9,841.4z"/>
</g>
<g>
	<path class="st4" d="M573.9,836c-9.3,0-16.9-7.6-16.9-16.9V750c0-9.3,7.6-16.9,16.9-16.9h35c9.3,0,16.9,7.6,16.9,16.9V819
		c0,9.3-7.6,16.9-16.9,16.9L573.9,836L573.9,836z"/>
	<path d="M608.9,734.4c8.6,0,15.6,7,15.6,15.6V819c0,8.6-7,15.6-15.6,15.6h-35c-8.6,0-15.6-7-15.6-15.6V750c0-8.6,7-15.6,15.6-15.6
		H608.9 M608.9,731.8h-35c-10.1,0-18.2,8.2-18.2,18.2V819c0,10.1,8.2,18.2,18.2,18.2h35c10.1,0,18.2-8.2,18.2-18.2V750
		C627.1,739.9,618.9,731.8,608.9,731.8L608.9,731.8z"/>
</g>
<g>
	<path class="st3" d="M713.5,841.4h-35c-10.1,0-18.2-8.2-18.2-18.2V754c0-10.1,8.2-18.2,18.2-18.2h35c10.1,0,18.2,8.2,18.2,18.2
		v69.1C731.6,833.2,723.4,841.4,713.5,841.4z"/>
</g>
<g>
	<path class="st4" d="M671.4,836c-9.3,0-16.9-7.6-16.9-16.9V750c0-9.3,7.6-16.9,16.9-16.9h35c9.3,0,16.9,7.6,16.9,16.9V819
		c0,9.3-7.6,16.9-16.9,16.9L671.4,836L671.4,836z"/>
	<path d="M706.4,734.4c8.6,0,15.6,7,15.6,15.6V819c0,8.6-7,15.6-15.6,15.6h-35c-8.6,0-15.6-7-15.6-15.6V750c0-8.6,7-15.6,15.6-15.6
		H706.4 M706.4,731.8h-35c-10.1,0-18.2,8.2-18.2,18.2V819c0,10.1,8.2,18.2,18.2,18.2h35c10.1,0,18.2-8.2,18.2-18.2V750
		C724.6,739.9,716.5,731.8,706.4,731.8L706.4,731.8z"/>
</g>
<g>
	<path class="st3" d="M805.6,841.4h-35c-10.1,0-18.2-8.2-18.2-18.2V754c0-10.1,8.2-18.2,18.2-18.2h35c10.1,0,18.2,8.2,18.2,18.2
		v69.1C823.7,833.2,815.6,841.4,805.6,841.4z"/>
</g>
<g>
	<path class="st4" d="M763.6,836c-9.3,0-16.9-7.6-16.9-16.9V750c0-9.3,7.6-16.9,16.9-16.9h35c9.3,0,16.9,7.6,16.9,16.9V819
		c0,9.3-7.6,16.9-16.9,16.9L763.6,836L763.6,836z"/>
	<path d="M798.6,734.4c8.6,0,15.6,7,15.6,15.6V819c0,8.6-7,15.6-15.6,15.6h-35c-8.6,0-15.6-7-15.6-15.6V750c0-8.6,7-15.6,15.6-15.6
		H798.6 M798.6,731.8h-35c-10.1,0-18.2,8.2-18.2,18.2V819c0,10.1,8.2,18.2,18.2,18.2h35c10.1,0,18.2-8.2,18.2-18.2V750
		C816.8,739.9,808.6,731.8,798.6,731.8L798.6,731.8z"/>
</g>
<path class="st9" d="M663,299.3c0,0,143.7,11.1,143.7,230.1"/>
<path class="st9" d="M771.1,522.5c0,0,7.1,35.5,35.5,35.5s34.8-34.8,34.8-34.8"/>
</svg>
