<?xml version="1.0" encoding="utf-8"?>
<!-- Generator: Adobe Illustrator 26.3.1, SVG Export Plug-In . SVG Version: 6.00 Build 0)  -->
<svg version="1.1" id="Layer_1" xmlns="http://www.w3.org/2000/svg" xmlns:xlink="http://www.w3.org/1999/xlink" x="0px" y="0px"
	 viewBox="0 0 1000 1000" style="enable-background:new 0 0 1000 1000;" xml:space="preserve">
<style type="text/css">
	.st0{fill:#999999;}
	.st1{fill:#FFFFFF;}
	.st2{fill:#B3B3B3;}
	.st3{fill:none;stroke:#000000;stroke-width:3;stroke-miterlimit:10;}
	.st4{fill:#FFFFFF;stroke:#000000;stroke-width:6;stroke-miterlimit:10;}
	.st5{fill:#FFFFFF;stroke:#999999;stroke-width:4;stroke-miterlimit:10;}
	.st6{fill:none;stroke:#000000;stroke-width:5;stroke-miterlimit:10;}
	.st7{fill:none;stroke:#B3B3B3;stroke-width:3;stroke-miterlimit:10;}
	.st8{fill:none;stroke:#000000;stroke-width:4;stroke-miterlimit:10;}
	.st9{fill:#FFFFFF;stroke:#000000;stroke-width:7;stroke-miterlimit:10;}
	.st10{fill:#FFFFFF;stroke:#000000;stroke-width:3;stroke-miterlimit:10;}
</style>
<g>
	<path class="st0" d="M141.1,683c-19.7,0-35.7-16-35.7-35.7V341.1c0-19.7,16-35.7,35.7-35.7h747.2c19.7,0,35.7,16,35.7,35.7v306.2
		c0,19.7-16,35.7-35.7,35.7H141.1z"/>
	<path class="st0" d="M888.3,310.4c16.9,0,30.7,13.8,30.7,30.7v306.2c0,16.9-13.8,30.7-30.7,30.7H141.1c-16.9,0-30.7-13.8-30.7-30.7
		V341.1c0-16.9,13.8-30.7,30.7-30.7H888.3 M888.3,300.4H141.1c-22.5,0-40.7,18.2-40.7,40.7v306.2c0,22.5,18.2,40.7,40.7,40.7h747.2
		c22.5,0,40.7-18.2,40.7-40.7V341.1C929,318.7,910.8,300.4,888.3,300.4L888.3,300.4z"/>
</g>
<g>
	<path class="st1" d="M107.7,654.6c-19.7,0-35.7-16-35.7-35.7V312.7C72,293,88,277,107.7,277h747.2c19.7,0,35.7,16,35.7,35.7v306.2
		c0,19.7-16,35.7-35.7,35.7H107.7z"/>
	<path d="M854.9,282c16.9,0,30.7,13.8,30.7,30.7v306.2c0,16.9-13.8,30.7-30.7,30.7H107.7c-16.9,0-30.7-13.8-30.7-30.7V312.7
		c0-16.9,13.8-30.7,30.7-30.7H854.9 M854.9,272H107.7C85.2,272,67,290.2,67,312.7v306.2c0,22.5,18.2,40.7,40.7,40.7h747.2
		c22.5,0,40.7-18.2,40.7-40.7V312.7C895.5,290.2,877.3,272,854.9,272L854.9,272z"/>
</g>
<g>
	<path class="st2" d="M311.6,608.5H259c-15.1,0-27.3-12.3-27.3-27.3V477.4c0-15.1,12.3-27.3,27.3-27.3h52.5
		c15.1,0,27.3,12.3,27.3,27.3v103.7C338.9,596.2,326.7,608.5,311.6,608.5z"/>
</g>
<g>
	<path class="st1" d="M248.5,600.4c-14,0-25.3-11.4-25.3-25.3V471.3c0-14,11.4-25.3,25.3-25.3h52.6c14,0,25.3,11.4,25.3,25.3V575
		c0,14-11.4,25.3-25.3,25.3L248.5,600.4L248.5,600.4z"/>
	<path d="M301.1,447.9c13,0,23.4,10.5,23.4,23.4V575c0,13-10.5,23.4-23.4,23.4h-52.6c-13,0-23.4-10.5-23.4-23.4V471.3
		c0-13,10.5-23.4,23.4-23.4H301.1 M301.1,444h-52.6c-15.1,0-27.3,12.3-27.3,27.3V575c0,15.1,12.3,27.3,27.3,27.3h52.6
		c15.1,0,27.3-12.3,27.3-27.3V471.3C328.4,456.2,316.2,444,301.1,444L301.1,444z"/>
</g>
<path class="st3" d="M216.1,435.9l10.4-15.4c33.3,3.5,66.6,3.7,99.9,0l6.3,13.5"/>
<line class="st4" x1="223.2" y1="358.8" x2="252" y2="359"/>
<line class="st4" x1="259" y1="359" x2="378.8" y2="359"/>
<line class="st5" x1="225.1" y1="374.4" x2="290.7" y2="374.4"/>
<line class="st5" x1="296.6" y1="374.4" x2="353.3" y2="374.4"/>
<line class="st5" x1="360.1" y1="374.4" x2="382.7" y2="374.4"/>
<line class="st5" x1="225.1" y1="380.9" x2="299" y2="380.9"/>
<line class="st5" x1="303.6" y1="380.9" x2="365.9" y2="380.9"/>
<line class="st5" x1="225.1" y1="386.3" x2="277" y2="386.3"/>
<line class="st6" x1="514.7" y1="450.1" x2="710.2" y2="450.1"/>
<line class="st6" x1="725.1" y1="450.1" x2="791.3" y2="450.1"/>
<line class="st7" x1="568.9" y1="465.8" x2="687.6" y2="465.8"/>
<path class="st8" d="M500.4,435.9l17.4-17.4c92.3,7.9,181.6,8.3,267.5,0l17.6,17.6"/>
<line class="st7" x1="695" y1="465.8" x2="746" y2="465.8"/>
<line class="st7" x1="538.5" y1="477.5" x2="646.7" y2="477.5"/>
<line class="st7" x1="659.2" y1="477.5" x2="777.5" y2="477.5"/>
<line class="st7" x1="563.5" y1="489.5" x2="669.8" y2="489.5"/>
<line class="st4" x1="495.5" y1="321.5" x2="572.5" y2="321.5"/>
<line class="st4" x1="580" y1="321.5" x2="639.6" y2="321.5"/>
<line class="st4" x1="651.7" y1="321.5" x2="710.2" y2="321.5"/>
<line class="st5" x1="495.5" y1="343.8" x2="534" y2="343.8"/>
<line class="st5" x1="544.8" y1="343.8" x2="588.4" y2="343.8"/>
<line class="st5" x1="601.9" y1="343.8" x2="758.2" y2="343.8"/>
<line class="st5" x1="495.5" y1="353.8" x2="544.8" y2="353.8"/>
<line class="st5" x1="557.4" y1="353.8" x2="635.4" y2="353.8"/>
<line class="st5" x1="646.7" y1="353.8" x2="777.5" y2="353.8"/>
<circle class="st2" cx="680" cy="576" r="33"/>
<circle class="st9" cx="670.5" cy="566.5" r="33"/>
<path class="st3" d="M628.2,523.9l-14.7,14.7c6.2,19.8,5.8,40.1,0,60.9l14.1,14.1"/>
<line class="st4" x1="451.7" y1="533.5" x2="538.5" y2="533.5"/>
<line class="st4" x1="544.8" y1="533.5" x2="580" y2="533.5"/>
<line class="st5" x1="451.7" y1="546.1" x2="528" y2="546.1"/>
<line class="st5" x1="534" y1="546.1" x2="577" y2="546.1"/>
<line class="st5" x1="582.9" y1="546.1" x2="601.9" y2="546.1"/>
<line class="st5" x1="451.7" y1="554.9" x2="489.9" y2="554.9"/>
<line class="st5" x1="495.1" y1="554.9" x2="522.4" y2="554.9"/>
<line class="st5" x1="528" y1="554.9" x2="605.7" y2="554.9"/>
<line class="st5" x1="451.7" y1="563.8" x2="566.8" y2="563.8"/>
<path class="st2" d="M173.6,502h-51.2c-4.6,0-8.4-3.8-8.4-8.4v-0.2c0-4.6,3.8-8.4,8.4-8.4h51.2c4.6,0,8.4,3.8,8.4,8.4v0.2
	C182,498.2,178.2,502,173.6,502z"/>
<path class="st10" d="M170.1,498.5h-51.2c-4.6,0-8.4-3.8-8.4-8.4v-0.2c0-4.6,3.8-8.4,8.4-8.4h51.2c4.6,0,8.4,3.8,8.4,8.4v0.2
	C178.5,494.7,174.7,498.5,170.1,498.5z"/>
<path class="st3" d="M99.1,480.4l14.9-14.9c23.4,6,44.9,6.1,64.5,0l13,13"/>
<line class="st4" x1="90.8" y1="420.5" x2="140.5" y2="420.5"/>
<line class="st4" x1="150.3" y1="420.5" x2="205.9" y2="420.5"/>
<line class="st5" x1="90.8" y1="431.3" x2="120" y2="431.3"/>
<line class="st5" x1="124.9" y1="431.3" x2="161.4" y2="431.3"/>
<line class="st5" x1="168" y1="431" x2="192.5" y2="431.3"/>
<line class="st5" x1="90.8" y1="438.1" x2="129.2" y2="438.1"/>
<line class="st5" x1="134" y1="438.1" x2="190.6" y2="438.1"/>
<line class="st5" x1="90.8" y1="445.9" x2="153.9" y2="445.9"/>
<line class="st5" x1="160.1" y1="445.9" x2="194.5" y2="445.9"/>
</svg>
