<?xml version="1.0" encoding="utf-8"?>
<!-- Generator: Adobe Illustrator 26.3.1, SVG Export Plug-In . SVG Version: 6.00 Build 0)  -->
<svg version="1.1" id="Layer_1" xmlns="http://www.w3.org/2000/svg" xmlns:xlink="http://www.w3.org/1999/xlink" x="0px" y="0px"
	 viewBox="0 0 1366 768" style="enable-background:new 0 0 1366 768;" xml:space="preserve">
<style type="text/css">
	.st0{fill:#CF5C36;}
	.st1{fill:#F7F5DD;}
	.st2{fill:#CF3E36;}
	.st3{fill:#B22A36;}
	.st4{fill:#902A36;}
	.st5{fill:none;stroke:#902A36;stroke-width:3;stroke-miterlimit:10;}
	.st6{fill:none;stroke:#004254;stroke-miterlimit:10;}
	.st7{fill:#FF855B;}
	.st8{fill:#FF705B;}
	.st9{fill:#FF5D5B;}
	.st10{fill:#FF4B5B;}
	.st11{fill:#CF4A36;}
	.st12{fill:#B2304F;}
	.st13{fill:#B2302C;}
	.st14{fill:#A61F36;}
	.st15{font-family:'MontserratAlternates-Black';}
	.st16{font-size:177.6282px;}
	.st17{font-size:124.9793px;}
	.st18{font-size:81px;}
	.st19{font-size:128px;}
</style>
<g id="background">
	<g>
		<rect class="st0" width="1366" height="768"/>
	</g>
</g>
<g id="planets">
	<circle class="st1" cx="168" cy="106.2" r="12.9"/>
	<circle class="st1" cx="653.7" cy="177.2" r="15.2"/>
	<circle class="st1" cx="832.6" cy="100.9" r="7.6"/>
	<circle class="st1" cx="1126" cy="71.4" r="21.9"/>
	<circle class="st1" cx="533.1" cy="212.7" r="7.6"/>
	<circle class="st1" cx="372.1" cy="144.7" r="12.9"/>
	<ellipse class="st1" cx="571.4" cy="93.3" rx="30.7" ry="28.5"/>
	<ellipse class="st1" cx="1243.7" cy="251" rx="23.4" ry="21.7"/>
	<circle class="st1" cx="927.4" cy="257.1" r="12.9"/>
	<circle class="st1" cx="893.7" cy="405" r="12.9"/>
	<circle class="st1" cx="944.5" cy="131.8" r="12.9"/>
	<circle class="st1" cx="73.1" cy="307.5" r="12.9"/>
	<circle class="st2" cx="272.7" cy="329.2" r="63.5"/>
	<path class="st3" d="M261,283.3c32,14.4,46.2,51.9,31.9,83.9c-4.5,9.9-11.2,18.1-19.2,24.3c24.9,0.7,48.9-13.3,59.7-37.4
		c14.4-32,0.1-69.5-31.9-83.9c-22-9.9-46.7-6.2-64.6,7.5C245,278,253.2,279.8,261,283.3z"/>
	<path class="st4" d="M275.6,264.6c2.7,4,6.4,10.4,8.7,18.9c0,0,2.3,8.5,2.3,16.9c0,35.5-29,64.4-64.7,64.4c-0.3,0-0.6,0-0.9,0
		c11.7,16.8,31.2,27.9,53.3,27.9c29.4,0,63.9-29.4,64.7-64.4c0.5-22-12.6-38.3-14.6-40.7c-7.9-9.5-16.8-14.5-21.4-16.7
		C291.6,265.4,281.2,264.6,275.6,264.6z"/>
	<path class="st4" d="M325.1,288.6c1.2,2.8,2.7,6.6,3.5,11.4c5.7,31.4-18.9,69.7-49.1,76.6c-2.9,0.7-5.6,1.1-8,1.3
		c0,0-5.6,0.6-11.3,0.2c-7.2-0.5-25.2-7-45.1-22.2c1.3,3.8,3.7,9.1,8,14.6c7.6,9.7,16.7,13.7,22.3,16.3c5.5,2.6,23.2,10,44,5.2
		c35-8,57-42.2,49.1-76.6c-1.4-6.2-4.2-12.3-4.2-12.3C331.3,296.8,327.9,291.9,325.1,288.6z"/>
	<circle class="st5" cx="272.7" cy="329.2" r="106.1"/>
	<circle class="st6" cx="944.5" cy="131.8" r="22.8"/>
	<circle class="st7" cx="906" cy="356.4" r="157.6"/>
	<path class="st8" d="M906,381.5c-63.1,0-117.5-37-142.7-90.5c-9.6,20.4-15,43.1-15,67.1c0,87.1,70.6,157.6,157.6,157.6
		s157.6-70.6,157.6-157.6c0-24-5.4-46.8-15-67.1C1023.5,344.5,969.1,381.5,906,381.5z"/>
	<path class="st9" d="M945.8,203.8c10.4,21,16.2,44.6,16.2,69.6c0,87.1-70.6,157.6-157.6,157.6c-13.7,0-26.9-1.7-39.6-5
		c25.7,52.1,79.4,88,141.5,88c87.1,0,157.6-70.6,157.6-157.6C1063.9,283.1,1013.7,221.4,945.8,203.8z"/>
	<path class="st10" d="M949.9,205.1c15.2,24.2,23.9,52.8,23.9,83.5c0,87.1-70.6,157.6-157.6,157.6c-14.8,0-29.1-2-42.7-5.8
		c27.9,44.5,77.3,74.1,133.7,74.1c87.1,0,157.6-70.6,157.6-157.6C1064.9,284.6,1016.2,223.7,949.9,205.1z"/>
</g>
<g id="backroundHills">
	<g>
		<path class="st11" d="M633.7,352.9c0,0,87.6-72.1,152.3-45.2s106.1,85.8,106.1,85.8l-69,92.1L604.5,480l17.8-125.6L633.7,352.9z"
			/>
		<path class="st12" d="M782.2,306.2c35,16.1,71.9,40.3,102.2,77.5c2.7,3.3,5.2,6.6,7.7,9.9c-23,30.7-46,61.4-69,92.1
			c-16.8-0.4-33.7-0.9-50.5-1.3c23.9-21.5,51.1-49,44.8-59.6c-0.7-1.2-1.6-1.9-2.8-2.5c-14.6-7.3-46.7-18.6-48.3-37.4
			c-0.4-5.1,1.5-8.8,4.1-14C777,357.8,783.5,337.5,782.2,306.2z"/>
		<path class="st1" d="M604.4,480.1c5.9-41.9,11.9-83.8,17.8-125.6c3.8-0.5,7.6-1,11.5-1.6c7.5-5.8,17.7-13.2,30.2-20.9
			c8.5-5.2,14.8-8.3,27.3-14.5c15.6-7.7,26.5-12.3,37-8.8c1.9,0.6,2.3,1,2.5,1.3c8.8,10.3-49.9,74.6-49.9,74.6l0,0
			c12.4,12.5,25.3,28.5,20.6,38.5c-1.6,3.5-4.7,4.6-8.6,7.2c-7.6,5.1-16.9,14.7-23.3,34.4c0,5.7,0,11.4,0,17.1
			C647.9,481.2,626.2,480.6,604.4,480.1z"/>
	</g>
	<g>
		<path class="st11" d="M793.4,515.7c0,0,87.3-168.2,118.2-167.1s241.4-13.6,252.3,0s56.4,167.1,56.4,167.1H793.4z"/>
		<path class="st1" d="M874.8,515.7c-11.6-18.2-23.1-36.4-34.7-54.6l-13.3-3.7c10.8-18.5,23.3-39.3,37.6-62
			c19.4-30.7,29.5-44.7,44.7-46.6c3.2-0.4,4.1,0,24.6-0.6c10.1-0.3,18.3-0.7,23.8-0.9c-32.2,37.3-38.8,49.5-36.4,52.1
			c0.7,0.7,1.6,0.2,3.6,1.2c1.2,0.6,5.4,3.2,7.5,18.3c0.6,4.7,1.2,11.2,0.7,19c-3.1,13.4-6.2,26.9-9.3,40.3l-27.1-16.1l-5.4,22.4
			c1.2,10.4,2.5,20.7,3.7,31.1C888,515.7,881.4,515.7,874.8,515.7z"/>
		<path class="st12" d="M1075.6,343.1c14.5-0.8,27.1-1,37.1-1c14.8,0,1.5,0.5,38.1,2.6c4.3,0.3,7.4,0.4,10.8,2.4
			c7.3,4.3,9,12.7,12.6,25.4c2.7,9.4,6.5,18.4,9.3,27.8c5.7,18.4,9.3,26.5,14.7,41.4c5.7,15.9,13.5,39.9,21.9,74
			c-23.8,0-47.5,0-71.3,0c-19.4-15.7-39.2-34.5-34.7-44.3c0.8-1.8,1.6-2.7,3-3.7c16.5-11.7-41.2-65.6-41.2-65.6
			C1075.9,382.5,1075.8,362.8,1075.6,343.1z"/>
		<path class="st13" d="M1090.1,347.3l7.3,53c0,0,41.2,37.7,33.9,45.4c-7.3,7.7,0.9,30.5,0.9,30.5l31.8,19.1l18.1,15.2l18.1-6.1
			l5.4-9.2c0,0,1.8-19.7-8.5-29.4c-10.3-9.7-49.2-49.3-49.2-49.3s-12.9-14.9,0-24s0-32.5,0-32.5L1090.1,347.3z"/>
	</g>
	<path class="st11" d="M477.8,416.2c0,0,30.3-118.9,72.5-118.8s110.8-9.4,117.7,0c7,9.4,33.4,139,33.4,139l-223.7,3.5L477.8,416.2
		L477.8,416.2z"/>
	<path class="st1" d="M477.8,439.9c0-2.6,0-6.6-0.1-11.6c-0.2-6.7-0.4-8.7,0-11.9c0.6-5.5,2.4-9.3,3.7-12.2
		c5.2-11.8,3.1-11.9,10.2-30.9c3-8.2,5.5-13.9,8.7-20.9c9.7-21.6,16-30.6,18.4-33.9c5.8-8,10-12,14.9-15.2c4.6-3,9-4.7,12.1-5.7
		c9-0.2,18-0.5,27-0.7c2.1,17.4,0,31.3-1.9,40.1c-3.3,14.8-3.5,32.9-16.9,35.1c-18.9,3.2-28.2,6.9-28.2,6.9s4.6,29.3,4.9,30.3
		c0.3,0.9-16.7,30.6-16.7,30.6L477.8,439.9L477.8,439.9z"/>
	<path class="st12" d="M672.5,296.9c10.4,46.3,20.8,92.6,31.2,139c-9.7,0.2-19.3,0.5-29,0.7c-10-26.9-14.5-35.5-16.6-36.5
		c-0.2-0.1-1.8-0.8-3-2.3c0,0-1.1-1.4-1.5-3.5c-1.6-8.9-2.5-13.4,10.6-42.2l0,0c0,0-35.5-20.7-36-22.2c-4.5-13.5-10.8-30.4-4.4-35
		c1.1-0.8,3.9-1,9.5-1.5c2.6-0.2,5.9-0.4,16.1-0.3c9.3,0.1,10.9,0.3,12.5,0.6C666.5,294.5,670.1,295.8,672.5,296.9z"/>
	<g>
		<path class="st11" d="M767.9,503.6c-0.1-3.4-3.3-71.5-54.5-97.7c-44.4-22.7-91.7,3.1-115.4,16c-50,27.3-72.7,71.1-80.6,88.6
			L767.9,503.6z"/>
		<path class="st1" d="M602.2,420.1c7.5-0.4,8.6,10.2,20.7,20.5c11.6,9.9,24.6,12,33,22.1c3.1,3.7,4,6.5,3.3,8.9
			c-0.5,1.8-1.9,3.5-3.4,4.1c-6.6,3.1-16.8-11.5-36.6-24.4c-2.1-1.4-4.2-2.7-6.6-4.1c0,0-4.7-2.7-9.5-4.9
			c-13.2-6.1-23.8-6.4-23.9-9.3c0-1.3,2-1.9,8.9-5.5C599.6,421.6,599.6,420.3,602.2,420.1z"/>
		<path class="st12" d="M655.5,398.8c5-1.9,13.3-4.2,23.5-3.7c7.7,0.4,13.1,2.3,22.2,5.4c9,3.1,16.1,5.6,23.9,11.4
			c5.4,4,8.7,7.8,13.1,12.9c10.2,11.8,15.9,22.4,17,24.4c11.5,21.7,13.5,44,13.9,54.4c-8.7,0.2-17.5,0.5-26.2,0.7
			c-30.3-16.4-61.8-34.8-59.4-40.4c0.3-0.8,1.3-1.2,2.3-1.4c16.1-3.8,17.9-28.4,17.9-28.4c-17.1-10.7-27-16.6-29-17.5
			c-0.3-0.1-1.5-0.6-2.7-1.7c-0.9-0.9-1.4-1.8-1.8-2.5c-0.6-1.1-1.3-2.1-2.1-3.2C664.2,403.9,659.3,400.7,655.5,398.8z"/>
	</g>
	<g>
		<path class="st11" d="M665.8,533.1c0,0,63-74.3,83.3-75.1c20.4-0.8,70.3,0,70.3,0s7.7-1.3,16-0.4c8.2,0.9,51.4,75.5,51.4,75.5
			H665.8z"/>
		<path class="st1" d="M694,500.8c10.3-10.5,16.7-16.3,20.3-19.5c1-0.9,3.3-2.9,7.8-6.8c5.4-4.7,8.1-7,8.9-7.6
			c4.6-3.5,9.1-6.9,15.5-8.6c2.6-0.7,7-1.5,12.7-0.7c-8.6,19.7-17.3,39.3-25.9,59c0.6,12.7-0.7,16-2.1,16.4
			c-0.5,0.1-1.1-0.1-3.3-0.1c-1.5,0-2.7,0.1-3.5,0.1c-3.6,0-7.2,0-10.9,0C707,522.3,700.5,511.6,694,500.8z"/>
		<path class="st12" d="M803.5,463c1.6-0.7,9.4-4,15.9-5c2-0.3,4.1-0.5,4.1-0.5c3.6-0.3,6.3-0.2,7.1-0.2c2.9,0.1,4.3,0.1,5.3,0.5
			c2.1,0.7,3.2,2.3,6.1,5.5c2.4,2.7,3.8,4.8,5.7,7.7c1.7,2.6,4.3,6.4,7.6,11.1c5.4,8.2,10.7,16.7,16.1,25.4
			c5.4,8.7,10.5,17.3,15.4,25.7c-14.8,0-29.6,0-44.5,0c1.3-9.5,1.8-20.7-3.5-23.5c-1.5-0.8-3-0.7-4.1-0.6
			c-12.5,1.9-23.1-12.2-23.1-12.2l6.8-12.9l-2.9-16.1c0,0-25.8,1.9-21.6-0.6C798,464.8,803.5,463,803.5,463z"/>
	</g>
	<g>
		<g>
			<path class="st11" d="M168,546.7c7.3-10.6,110.6-154.8,292.2-149.6c164.3,4.7,256.9,127.8,267.5,142.5L168,546.7z"/>
			<path class="st1" d="M168,546.7c22.3-2.1,44.6-4.2,67-6.3c4.1-3,10.5-6.9,19-9.5c11.1-3.4,20.7-3.1,26.4-2.5
				c2.3-1.4,4.7-2.8,7-4.2c5.6-16.9,11.3-33.8,16.9-50.7c30.4-21,57.1-44.3,80.4-69.6c0.1-0.1,0.2-0.2,0.3-0.3
				C250.2,431.6,174.2,537.7,168,546.7z"/>
			<path class="st12" d="M531.7,407c25.6,6.9,59.8,19,96.1,41.4c49.3,30.4,81.4,66.5,100,91.2c-39.7,0.8-74.3,1-74.4-0.8
				c0-0.1,0.2-0.3,0.3-0.3c6.1-3.3-42-61.1-42-61.1l-88,7L481.1,429c0,0,0.2-2.7,2.8-5.5c4.9-5.3,13-5.3,16.9-5.5
				C508,417.7,518.3,415.6,531.7,407z"/>
			<path class="st13" d="M497.4,427.9c-4.4,4.1,8.9,38.9,32,44.7c3.2,0.8,2.6,0.1,19.7-0.6c15.6-0.6,27.5-0.5,41.2-0.3
				c15.3,0.2,22.9,0.2,25.5,0.6c5.8,1.1,21.7,4,35.4,16.2c16.6,14.8,16.4,31.4,28.6,33c5.2,0.7,11.3-1.5,12.9-5.5
				c3-7.3-9.6-19.7-16.6-25.3c-9.4-7.5-11.9-5.3-25.2-14.6c-4.2-2.9-11.3-7.8-19.1-15.9c-9.3-9.6-9.8-13.5-16.3-16.2
				c-2.7-1.1-3.3-0.7-19.4-1c-16-0.2-18.9-0.6-22.5-2.3c-3.1-1.4-6.1-4-12-9.1c-2.9-2.5-5-4.5-6.6-6.1c-6.2-6.3-6.5-6.2-7.2-6.8
				c-9.5-7.4-33.9,3-33.8,11c0,3.4,4.5,5.7,4,6.5C517,437.8,500.8,424.7,497.4,427.9z"/>
		</g>
	</g>
</g>
<path class="st1" d="M-26.1,676.3c49.7-21.3,139-58.6,260.3-64.3c128.7-6.1,161.5,29.6,306.2,49c131.1,17.6,235.4,3.6,444-24.5
	c192.1-25.8,232.9-48.8,364.4-42.9c115.7,5.2,200.2,10.2,266.4,73.5c85.7,81.9,113.9,235.8,52.1,318.4
	c-43.8,58.5-122.1,67.2-186.8,73.5c-443.8,43-681.5,28.2-946.1,45.9c-36.6,2.4-149.2,10.6-297,3.1c-111.1-5.6-180.5-17-220.5-24.5
	c-72-13.6-120.9-28.4-199-52.1c-111.9-33.9-168-51.3-174.5-70.4C-381.6,887.8-188.7,745.9-26.1,676.3z"/>
<g id="mainText">
	<text transform="matrix(0.6962 3.464782e-04 -0.8818 0.4716 563.8822 603.389)" class="st14 st15 st16">LOGA</text>
	<text transform="matrix(0.6338 3.449225e-04 -0.8632 0.5048 555.4005 500.1464)" class="st14 st15 st17">VÝROBA</text>
	<text transform="matrix(1 0 0 1 548.0258 500.1452)" class="st1 st15 st18">VÝROBA</text>
	<text transform="matrix(1 0 0 1 552.6331 603.3889)" class="st1 st15 st19">LOGA</text>
</g>
</svg>
