<?xml version="1.0" encoding="utf-8"?>
<!-- Generator: Adobe Illustrator 26.3.1, SVG Export Plug-In . SVG Version: 6.00 Build 0)  -->
<svg version="1.1" id="Layer_1" xmlns="http://www.w3.org/2000/svg" xmlns:xlink="http://www.w3.org/1999/xlink" x="0px" y="0px"
	 viewBox="0 0 300 100" style="enable-background:new 0 0 300 100;" xml:space="preserve">
<style type="text/css">
	.st0{fill:none;stroke:#FF855B;stroke-width:2;stroke-miterlimit:10;}
	.st1{fill:#FF855B;}
	.st2{fill:#C7385B;}
	.st3{fill:#FF635B;}
	.st4{fill:#62245B;}
	.st5{font-family:'MontserratAlternates-Black';}
	.st6{font-size:25px;}
	.st7{fill:#83005B;}
	.st8{fill:#FF565B;}
	.st9{fill:#DE4B67;}
	.st10{fill:#B93990;}
</style>
<circle class="st0" cx="59.7" cy="48.6" r="45.4"/>
<g>
	<ellipse class="st1" cx="28.2" cy="82.3" rx="7.3" ry="7.3"/>
	<path class="st2" d="M30,75.2c0.7,1.1,1.1,2.4,1.1,3.8c0,4-3.3,7.3-7.3,7.3c-0.6,0-1.2-0.1-1.8-0.2c1.3,2.1,3.6,3.5,6.2,3.5
		c4,0,7.3-3.3,7.3-7.3C35.5,78.8,33.1,76,30,75.2z"/>
	<path class="st3" d="M29,75c0.6,1,0.9,2.2,0.9,3.5c0,4-3.3,7.3-7.3,7.3c-0.3,0-0.5,0-0.8,0c1.2,2.3,3.7,3.8,6.4,3.8
		c4,0,7.3-3.3,7.3-7.3C35.5,78.5,32.6,75.4,29,75z"/>
	<path class="st4" d="M31.7,75.8c0.6,1.1,1,2.3,1,3.7c0,4-3.3,7.3-7.3,7.3c-1.3,0-2.5-0.3-3.5-0.9c1.3,2.2,3.6,3.6,6.3,3.6
		c4,0,7.3-3.3,7.3-7.3C35.6,79.5,34,77.1,31.7,75.8z"/>
</g>
<text transform="matrix(1 0 0 1 115.0929 56.2577)" class="st1 st5 st6">WE</text>
<text transform="matrix(1 0 0 1 163.6929 56.2577)" class="st3 st5 st6">BL</text>
<text transform="matrix(1 0 0 1 199.0929 56.2577)" class="st2 st5 st6">I</text>
<text transform="matrix(1 0 0 1 212.2929 56.2577)" class="st4 st5 st6">S</text>
<text transform="matrix(1 0 0 1 229.0929 56.2577)" class="st7 st5 st6">H</text>
<circle class="st1" cx="59.7" cy="48.6" r="31.5"/>
<path class="st3" d="M63.4,17.4c2.7,4.7,4.3,10.1,4.3,15.9c0,17.4-14.1,31.5-31.5,31.5c-1.3,0-2.5-0.1-3.7-0.2
	C38,73.8,48.1,80,59.7,80C77.1,80,91.2,66,91.2,48.6C91.2,32.5,79,19.2,63.4,17.4z"/>
<path class="st8" d="M72.8,20c2.4,4.4,3.6,9.5,3.6,14.9c0,17.4-14.1,31.5-31.5,31.5c-4.6,0-9-1-12.9-2.8
	c5.3,9.9,15.7,16.6,27.8,16.6c17.4,0,31.5-14.1,31.5-31.5C91.2,36,83.7,24.9,72.8,20z"/>
<path class="st9" d="M77.2,22.5c3.7,5.1,5.8,11.2,5.8,18c0,17.4-14.1,31.5-31.5,31.5c-6.3,0-12.4-1.7-17.4-4.9
	c5.7,8,15.3,13,25.8,13c17.4,0,31.5-14.1,31.5-31.5C91.5,37.6,85.8,28.1,77.2,22.5z"/>
<path class="st10" d="M82.2,26.5c4.4,5.4,7.1,12.2,7.1,19.7c0,17.4-14.1,31.5-31.5,31.5c-8.7,0-16.9-3.5-22.6-9.2
	c5.8,7.1,14.9,11.6,24.7,11.6c17.4,0,31.5-14.1,31.5-31.5C91.5,39.9,87.9,32.2,82.2,26.5z"/>
</svg>
