<?xml version="1.0" encoding="utf-8"?>
<!-- Generator: Adobe Illustrator 26.3.1, SVG Export Plug-In . SVG Version: 6.00 Build 0)  -->
<svg version="1.1" id="Layer_1" xmlns="http://www.w3.org/2000/svg" xmlns:xlink="http://www.w3.org/1999/xlink" x="0px" y="0px"
	 viewBox="0 0 1366 768" style="enable-background:new 0 0 1366 768;" xml:space="preserve">
<style type="text/css">
	.st0{fill:#720027;}
	.st1{fill:#006E54;}
	.st2{fill:#005E42;}
	.st3{fill:#FF5594;}
	.st4{fill:#FF3D94;}
	.st5{fill:#F7F5DD;}
	.st6{fill:none;stroke:#F7F5DD;stroke-miterlimit:10;}
	.st7{fill:#006E54;stroke:#000000;stroke-width:0.25;stroke-miterlimit:10;}
	.st8{fill:#F7F5A3;}
	.st9{fill:#F7F5BC;}
</style>
<g>
	<rect class="st0" width="1366" height="768"/>
</g>
<rect x="438" y="104" class="st1" width="486" height="486"/>
<polyline class="st2" points="936.05,619 936.05,113.56 936.05,619 449,619 438,587.19 924,590 924,104 936.05,113.56 "/>
<rect x="518" y="360" class="st3" width="67" height="187"/>
<rect x="519" y="360" class="st3" width="67" height="187"/>
<polyline class="st4" points="584.41,548 605,534.6 605,349 538.01,349 518,360 585,360 "/>
<rect x="543" y="518" class="st5" width="16" height="29"/>
<rect x="526" y="485" class="st5" width="6" height="11"/>
<rect x="526" y="454" class="st5" width="6" height="11"/>
<rect x="537" y="469" class="st5" width="6" height="11"/>
<rect x="537" y="500" class="st5" width="6" height="11"/>
<rect x="548" y="485" class="st5" width="6" height="11"/>
<rect x="548" y="452" class="st5" width="6" height="11"/>
<rect x="560" y="500" class="st5" width="6" height="11"/>
<rect x="560" y="469" class="st5" width="6" height="11"/>
<rect x="569" y="485" class="st5" width="6" height="11"/>
<rect x="569" y="451" class="st5" width="6" height="11"/>
<polyline class="st6" points="569,520.39 583.49,520.39 604,509.19 "/>
<polyline class="st6" points="518,497.34 583.36,497.34 604,490.98 "/>
<line class="st7" x1="530.93" y1="497.34" x2="530.93" y2="493.46"/>
<line class="st7" x1="531.93" y1="497.34" x2="531.93" y2="493.46"/>
<line class="st7" x1="532.93" y1="496.34" x2="532.93" y2="492.46"/>
<line class="st7" x1="529.93" y1="497.34" x2="529.93" y2="493.46"/>
<line class="st7" x1="528.93" y1="497.34" x2="528.93" y2="493.46"/>
<line class="st7" x1="550.93" y1="497.34" x2="550.93" y2="493.46"/>
<line class="st7" x1="549.93" y1="497.34" x2="549.93" y2="493.46"/>
<line class="st7" x1="548.93" y1="497.34" x2="548.93" y2="493.46"/>
<line class="st7" x1="547.93" y1="497.34" x2="547.93" y2="493.46"/>
<line class="st7" x1="546.93" y1="496.34" x2="546.93" y2="492.46"/>
<line class="st7" x1="551.93" y1="497.34" x2="551.93" y2="493.46"/>
<line class="st7" x1="552.93" y1="497.34" x2="552.93" y2="493.46"/>
<line class="st7" x1="553.93" y1="497.34" x2="553.93" y2="493.46"/>
<line class="st7" x1="554.93" y1="496.34" x2="554.93" y2="492.46"/>
<line class="st7" x1="527.93" y1="497.34" x2="527.93" y2="493.46"/>
<line class="st7" x1="526.93" y1="497.34" x2="526.93" y2="493.46"/>
<line class="st7" x1="525.93" y1="497.34" x2="525.93" y2="493.46"/>
<line class="st7" x1="524.93" y1="496.34" x2="524.93" y2="492.46"/>
<polyline class="st8" points="543,550 543,580 733,580 732.76,566.5 559.41,568.07 559.41,550 "/>
<rect x="741" y="541" class="st5" width="52" height="45"/>
<polyline class="st9" points="792.67,586 798,583 798,538.24 792.67,541 "/>
</svg>
