<?xml version="1.0" encoding="utf-8"?>
<!-- Generator: Adobe Illustrator 26.3.1, SVG Export Plug-In . SVG Version: 6.00 Build 0)  -->
<svg version="1.1" id="Layer_1" xmlns="http://www.w3.org/2000/svg" xmlns:xlink="http://www.w3.org/1999/xlink" x="0px" y="0px"
	 viewBox="0 0 1366 768" style="enable-background:new 0 0 1366 768;" xml:space="preserve">
<style type="text/css">
	.st0{fill:#B4436C;}
	.st1{fill:#F7F5DD;}
	.st2{fill:#A4376C;}
	.st3{fill:#A6266C;}
	.st4{fill:#84266C;}
	.st5{fill:#62266C;}
	.st6{fill:none;stroke:#84266C;stroke-width:3;stroke-miterlimit:10;}
	.st7{fill:none;stroke:#004254;stroke-miterlimit:10;}
	.st8{fill:#FF855B;}
	.st9{fill:#FF705B;}
	.st10{fill:#FF5D5B;}
	.st11{fill:#FF4B5B;}
	.st12{fill:#A34385;}
	.st13{fill:#953985;}
	.st14{fill:#A34885;}
	.st15{fill:#902C85;}
	.st16{font-family:'MontserratAlternates-Black';}
	.st17{font-size:111px;}
	.st18{font-size:81px;}
	.st19{font-size:78px;}
</style>
<g id="background">
	<g>
		<path class="st0" d="M0,0v768h1366V0H0z M858.9,487.1c5,6,10,11,12,19C868.9,498.1,863.9,493.1,858.9,487.1z"/>
	</g>
</g>
<g id="planets">
	<circle class="st1" cx="50.4" cy="65" r="12.9"/>
	<circle class="st1" cx="618.6" cy="54.2" r="6.4"/>
	<circle class="st1" cx="322.9" cy="52.1" r="6.4"/>
	<ellipse class="st1" cx="99.8" cy="179.7" rx="9.4" ry="10.4"/>
	<ellipse class="st1" cx="269.2" cy="139.4" rx="4.7" ry="5.2"/>
	<circle class="st1" cx="676.3" cy="298.6" r="15.2"/>
	<circle class="st1" cx="576.6" cy="336.3" r="7.6"/>
	<circle class="st1" cx="911.5" cy="40.2" r="7.6"/>
	<ellipse class="st1" cx="683.4" cy="93.9" rx="7.2" ry="7.3"/>
	<ellipse class="st1" cx="729" cy="198.6" rx="5.9" ry="6.1"/>
	<ellipse class="st1" cx="431.9" cy="85.2" rx="6.5" ry="8.1"/>
	<ellipse class="st1" cx="129.9" cy="103.4" rx="6.8" ry="8.7"/>
	<ellipse class="st1" cx="360.8" cy="169.2" rx="6.7" ry="6.2"/>
	<circle class="st1" cx="830" cy="100.9" r="7.6"/>
	<ellipse class="st1" cx="801.7" cy="313.5" rx="6.2" ry="5.9"/>
	<circle class="st1" cx="1098.5" cy="124.2" r="11"/>
	<ellipse class="st1" cx="1083.2" cy="56.2" rx="4.3" ry="4.5"/>
	<circle class="st1" cx="1076.6" cy="347.3" r="11"/>
	<circle class="st1" cx="530.6" cy="212.7" r="7.6"/>
	<circle class="st1" cx="1237.4" cy="293.1" r="7.6"/>
	<circle class="st1" cx="1210.7" cy="131.8" r="7.6"/>
	<ellipse class="st1" cx="1296.3" cy="97.9" rx="11.7" ry="10.6"/>
	<ellipse class="st1" cx="1293.6" cy="239.1" rx="2.7" ry="2.4"/>
	<ellipse class="st1" cx="1046.6" cy="215.3" rx="6.5" ry="5.9"/>
	<ellipse class="st1" cx="1185.2" cy="190.1" rx="2.7" ry="2.4"/>
	<ellipse class="st1" cx="1221" cy="65.4" rx="2.7" ry="2.4"/>
	<ellipse class="st1" cx="1287.2" cy="358.3" rx="2.7" ry="2.4"/>
	<circle class="st1" cx="364.5" cy="171.3" r="12.9"/>
	<circle class="st1" cx="941.9" cy="131.8" r="12.9"/>
	<circle class="st1" cx="115.7" cy="285.7" r="12.9"/>
	<circle class="st1" cx="538.1" cy="131.8" r="12.9"/>
	<circle class="st2" cx="919.1" cy="250.7" r="63.5"/>
	<path class="st3" d="M907.4,204.8c32,14.4,46.2,51.9,31.9,83.9c-4.5,9.9-11.2,18.1-19.2,24.3c24.9,0.7,48.9-13.3,59.7-37.4
		c14.4-32,0.1-69.5-31.9-83.9c-22-9.9-46.7-6.2-64.6,7.5C891.4,199.5,899.6,201.3,907.4,204.8z"/>
	<path class="st4" d="M922,186.1c2.7,4,6.4,10.4,8.7,18.9c0,0,2.3,8.5,2.3,16.9c0,35.5-29,64.4-64.7,64.4c-0.3,0-0.6,0-0.9,0
		c11.7,16.8,31.2,27.9,53.3,27.9c29.4,0,63.9-29.4,64.7-64.4c0.5-22-12.6-38.3-14.6-40.7c-7.9-9.5-16.8-14.5-21.4-16.7
		C938,186.9,927.6,186.1,922,186.1z"/>
	<path class="st5" d="M971.5,210.1c1.2,2.8,2.7,6.6,3.5,11.4c5.7,31.4-18.9,69.7-49.1,76.6c-2.9,0.7-5.6,1.1-8,1.3
		c0,0-5.6,0.6-11.3,0.2c-7.2-0.5-25.2-7-45.1-22.2c1.3,3.8,3.7,9.1,8,14.6c7.6,9.7,16.7,13.7,22.3,16.3c5.5,2.6,23.2,10,44,5.2
		c35-8,57-42.2,49.1-76.6c-1.4-6.2-4.2-12.3-4.2-12.3C977.7,218.3,974.3,213.4,971.5,210.1z"/>
	<circle class="st6" cx="919.1" cy="250.7" r="106.1"/>
	<circle class="st7" cx="941.9" cy="131.8" r="22.8"/>
	<circle class="st8" cx="364" cy="208.6" r="157.6"/>
	<path class="st9" d="M364,233.7c-63.1,0-117.5-37-142.7-90.5c-9.6,20.4-15,43.1-15,67.1c0,87.1,70.6,157.6,157.6,157.6
		s157.6-70.6,157.6-157.6c0-24-5.4-46.8-15-67.1C481.5,196.7,427.1,233.7,364,233.7z"/>
	<path class="st10" d="M403.8,56c10.4,21,16.2,44.6,16.2,69.6c0,87.1-70.6,157.6-157.6,157.6c-13.7,0-26.9-1.7-39.6-5
		c25.7,52.1,79.4,88,141.5,88c87.1,0,157.6-70.6,157.6-157.6C521.9,135.3,471.7,73.6,403.8,56z"/>
	<path class="st11" d="M407.9,57.3c15.2,24.2,23.9,52.8,23.9,83.5c0,87.1-70.6,157.6-157.6,157.6c-14.8,0-29.1-2-42.7-5.8
		c27.9,44.5,77.3,74.1,133.7,74.1c87.1,0,157.6-70.6,157.6-157.6C522.9,136.8,474.2,75.9,407.9,57.3z"/>
</g>
<g id="backroundHills">
	<g>
		<path class="st12" d="M631.1,352.9c0,0,87.6-72.1,152.3-45.2s106.1,85.8,106.1,85.8l-69,92.1L601.9,480l17.8-125.6L631.1,352.9z"
			/>
		<path class="st13" d="M779.6,306.2c35,16.1,71.9,40.3,102.2,77.5c2.7,3.3,5.2,6.6,7.7,9.9c-23,30.7-46,61.4-69,92.1
			c-16.8-0.4-33.7-0.9-50.5-1.3c23.9-21.5,51.1-49,44.8-59.6c-0.7-1.2-1.6-1.9-2.8-2.5c-14.6-7.3-46.7-18.6-48.3-37.4
			c-0.4-5.1,1.5-8.8,4.1-14C774.4,357.8,780.9,337.5,779.6,306.2z"/>
		<path class="st1" d="M601.8,480.1c5.9-41.9,11.9-83.8,17.8-125.6c3.8-0.5,7.6-1,11.5-1.6c7.5-5.8,17.7-13.2,30.2-20.9
			c8.5-5.2,14.8-8.3,27.3-14.5c15.6-7.7,26.5-12.3,37-8.8c1.9,0.6,2.3,1,2.5,1.3c8.8,10.3-49.9,74.6-49.9,74.6l0,0
			c12.4,12.5,25.3,28.5,20.6,38.5c-1.6,3.5-4.7,4.6-8.6,7.2c-7.6,5.1-16.9,14.7-23.3,34.4c0,5.7,0,11.4,0,17.1
			C645.3,481.2,623.6,480.6,601.8,480.1z"/>
	</g>
	<g>
		<path class="st14" d="M790.8,515.7c0,0,87.3-168.2,118.2-167.1s241.4-13.6,252.3,0s56.4,167.1,56.4,167.1H790.8z"/>
		<path class="st1" d="M872.2,515.7c-11.6-18.2-23.1-36.4-34.7-54.6l-13.3-3.7c10.8-18.5,23.3-39.3,37.6-62
			c19.4-30.7,29.5-44.7,44.7-46.6c3.2-0.4,4.1,0,24.6-0.6c10.1-0.3,18.3-0.7,23.8-0.9c-32.2,37.3-38.8,49.5-36.4,52.1
			c0.7,0.7,1.6,0.2,3.6,1.2c1.2,0.6,5.4,3.2,7.5,18.3c0.6,4.7,1.2,11.2,0.7,19c-3.1,13.4-6.2,26.9-9.3,40.3l-27.1-16.1l-5.4,22.4
			c1.2,10.4,2.5,20.7,3.7,31.1C885.4,515.7,878.8,515.7,872.2,515.7z"/>
		<path class="st13" d="M1073,343.1c14.5-0.8,27.1-1,37.1-1c14.8,0,1.5,0.5,38.1,2.6c4.3,0.3,7.4,0.4,10.8,2.4
			c7.3,4.3,9,12.7,12.6,25.4c2.7,9.4,6.5,18.4,9.3,27.8c5.7,18.4,9.3,26.5,14.7,41.4c5.7,15.9,13.5,39.9,21.9,74
			c-23.8,0-47.5,0-71.3,0c-19.4-15.7-39.2-34.5-34.7-44.3c0.8-1.8,1.6-2.7,3-3.7c16.5-11.7-41.2-65.6-41.2-65.6
			C1073.3,382.5,1073.2,362.8,1073,343.1z"/>
		<path class="st15" d="M1087.6,347.3l7.3,53c0,0,41.2,37.7,33.9,45.4c-7.3,7.7,0.9,30.5,0.9,30.5l31.8,19.1l18.1,15.2l18.1-6.1
			l5.4-9.2c0,0,1.8-19.7-8.5-29.4c-10.3-9.7-49.2-49.3-49.2-49.3s-12.9-14.9,0-24c12.9-9.1,0-32.5,0-32.5L1087.6,347.3z"/>
	</g>
	<path class="st12" d="M475.2,416.2c0,0,30.3-118.9,72.5-118.8s110.8-9.4,117.7,0c7,9.4,33.4,139,33.4,139l-223.7,3.5L475.2,416.2
		L475.2,416.2z"/>
	<path class="st1" d="M475.2,439.9c0-2.6,0-6.6-0.1-11.6c-0.2-6.7-0.4-8.7,0-11.9c0.6-5.5,2.4-9.3,3.7-12.2
		c5.2-11.8,3.1-11.9,10.2-30.9c3-8.2,5.5-13.9,8.7-20.9c9.7-21.6,16-30.6,18.4-33.9c5.8-8,10-12,14.9-15.2c4.6-3,9-4.7,12.1-5.7
		c9-0.2,18-0.5,27-0.7c2.1,17.4,0,31.3-1.9,40.1c-3.3,14.8-3.5,32.9-16.9,35.1c-18.9,3.2-28.2,6.9-28.2,6.9s4.6,29.3,4.9,30.3
		c0.3,0.9-16.7,30.6-16.7,30.6L475.2,439.9L475.2,439.9z"/>
	<path class="st13" d="M669.9,296.9c10.4,46.3,20.8,92.6,31.2,139c-9.7,0.2-19.3,0.5-29,0.7c-10-26.9-14.5-35.5-16.6-36.5
		c-0.2-0.1-1.8-0.8-3-2.3c0,0-1.1-1.4-1.5-3.5c-1.6-8.9-2.5-13.4,10.6-42.2l0,0c0,0-35.5-20.7-36-22.2c-4.5-13.5-10.8-30.4-4.4-35
		c1.1-0.8,3.9-1,9.5-1.5c2.6-0.2,5.9-0.4,16.1-0.3c9.3,0.1,10.9,0.3,12.5,0.6C663.9,294.5,667.5,295.8,669.9,296.9z"/>
	<g>
		<path class="st12" d="M765.3,503.6c-0.1-3.4-3.3-71.5-54.5-97.7c-44.4-22.7-91.7,3.1-115.4,16c-50,27.3-72.7,71.1-80.6,88.6
			L765.3,503.6z"/>
		<path class="st1" d="M599.6,420.1c7.5-0.4,8.6,10.2,20.7,20.5c11.6,9.9,24.6,12,33,22.1c3.1,3.7,4,6.5,3.3,8.9
			c-0.5,1.8-1.9,3.5-3.4,4.1c-6.6,3.1-16.8-11.5-36.6-24.4c-2.1-1.4-4.2-2.7-6.6-4.1c0,0-4.7-2.7-9.5-4.9
			c-13.2-6.1-23.8-6.4-23.9-9.3c0-1.3,2-1.9,8.9-5.5C597,421.6,597,420.3,599.6,420.1z"/>
		<path class="st13" d="M652.9,398.8c5-1.9,13.3-4.2,23.5-3.7c7.7,0.4,13.1,2.3,22.2,5.4c9,3.1,16.1,5.6,23.9,11.4
			c5.4,4,8.7,7.8,13.1,12.9c10.2,11.8,15.9,22.4,17,24.4c11.5,21.7,13.5,44,13.9,54.4c-8.7,0.2-17.5,0.5-26.2,0.7
			C710,488,678.5,469.6,680.9,464c0.3-0.8,1.3-1.2,2.3-1.4c16.1-3.8,17.9-28.4,17.9-28.4c-17.1-10.7-27-16.6-29-17.5
			c-0.3-0.1-1.5-0.6-2.7-1.7c-0.9-0.9-1.4-1.8-1.8-2.5c-0.6-1.1-1.3-2.1-2.1-3.2C661.6,403.9,656.7,400.7,652.9,398.8z"/>
	</g>
	<g>
		<path class="st12" d="M663.2,533.1c0,0,63-74.3,83.3-75.1c20.4-0.8,70.3,0,70.3,0s7.7-1.3,16-0.4c8.2,0.9,51.4,75.5,51.4,75.5
			H663.2z"/>
		<path class="st1" d="M691.4,500.8c10.3-10.5,16.7-16.3,20.3-19.5c1-0.9,3.3-2.9,7.8-6.8c5.4-4.7,8.1-7,8.9-7.6
			c4.6-3.5,9.1-6.9,15.5-8.6c2.6-0.7,7-1.5,12.7-0.7c-8.6,19.7-17.3,39.3-25.9,59c0.6,12.7-0.7,16-2.1,16.4
			c-0.5,0.1-1.1-0.1-3.3-0.1c-1.5,0-2.7,0.1-3.5,0.1c-3.6,0-7.2,0-10.9,0C704.4,522.3,697.9,511.6,691.4,500.8z"/>
		<path class="st13" d="M800.9,463c1.6-0.7,9.4-4,15.9-5c2-0.3,4.1-0.5,4.1-0.5c3.6-0.3,6.3-0.2,7.1-0.2c2.9,0.1,4.3,0.1,5.3,0.5
			c2.1,0.7,3.2,2.3,6.1,5.5c2.4,2.7,3.8,4.8,5.7,7.7c1.7,2.6,4.3,6.4,7.6,11.1c5.4,8.2,10.7,16.7,16.1,25.4
			c5.4,8.7,10.5,17.3,15.4,25.7c-14.8,0-29.6,0-44.5,0c1.3-9.5,1.8-20.7-3.5-23.5c-1.5-0.8-3-0.7-4.1-0.6
			c-12.5,1.9-23.1-12.2-23.1-12.2l6.8-12.9l-2.9-16.1c0,0-25.8,1.9-21.6-0.6C795.4,464.8,800.9,463,800.9,463z"/>
	</g>
	<g>
		<g>
			<path class="st12" d="M165.4,546.7c7.3-10.6,110.6-154.8,292.2-149.6c164.3,4.7,256.9,127.8,267.5,142.5L165.4,546.7z"/>
			<path class="st1" d="M165.4,546.7c22.3-2.1,44.6-4.2,67-6.3c4.1-3,10.5-6.9,19-9.5c11.1-3.4,20.7-3.1,26.4-2.5
				c2.3-1.4,4.7-2.8,7-4.2c5.6-16.9,11.3-33.8,16.9-50.7c30.4-21,57.1-44.3,80.4-69.6c0.1-0.1,0.2-0.2,0.3-0.3
				C247.6,431.6,171.6,537.7,165.4,546.7z"/>
			<path class="st13" d="M529.1,407c25.6,6.9,59.8,19,96.1,41.4c49.3,30.4,81.4,66.5,100,91.2c-39.7,0.8-74.3,1-74.4-0.8
				c0-0.1,0.2-0.3,0.3-0.3c6.1-3.3-42-61.1-42-61.1l-88,7L478.5,429c0,0,0.2-2.7,2.8-5.5c4.9-5.3,13-5.3,16.9-5.5
				C505.4,417.7,515.7,415.6,529.1,407z"/>
			<path class="st15" d="M494.8,427.9c-4.4,4.1,8.9,38.9,32,44.7c3.2,0.8,2.6,0.1,19.7-0.6c15.6-0.6,27.5-0.5,41.2-0.3
				c15.3,0.2,22.9,0.2,25.5,0.6c5.8,1.1,21.7,4,35.4,16.2c16.6,14.8,16.4,31.4,28.6,33c5.2,0.7,11.3-1.5,12.9-5.5
				c3-7.3-9.6-19.7-16.6-25.3c-9.4-7.5-11.9-5.3-25.2-14.6c-4.2-2.9-11.3-7.8-19.1-15.9c-9.3-9.6-9.8-13.5-16.3-16.2
				c-2.7-1.1-3.3-0.7-19.4-1c-16-0.2-18.9-0.6-22.5-2.3c-3.1-1.4-6.1-4-12-9.1c-2.9-2.5-5-4.5-6.6-6.1c-6.2-6.3-6.5-6.2-7.2-6.8
				c-9.5-7.4-33.9,3-33.8,11c0,3.4,4.5,5.7,4,6.5C514.4,437.8,498.2,424.7,494.8,427.9z"/>
		</g>
	</g>
</g>
<path class="st1" d="M-28.7,676.3c49.7-21.3,139-58.6,260.3-64.3c128.7-6.1,161.5,29.6,306.2,49c131.1,17.6,235.4,3.6,444-24.5
	c192.1-25.8,232.9-48.8,364.4-42.9c115.7,5.2,200.2,10.2,266.4,73.5c85.7,81.9,113.9,235.8,52.1,318.4
	c-43.8,58.5-122.1,67.2-186.8,73.5c-443.8,43-681.5,28.2-946.1,45.9c-36.6,2.4-149.2,10.6-297,3.1c-111.1-5.6-180.5-17-220.5-24.5
	c-72-13.6-120.9-28.4-199-52.1c-111.9-33.9-168-51.3-174.5-70.4C-384.2,887.8-191.3,745.9-28.7,676.3z"/>
<g id="mainText">
	<g>
		<path class="st13" d="M530.4,540.7c-3.2-0.7-5.1-1.6-5.7-2.7l24.3-8.8c0.7,1,2.2,1.8,4.4,2.4c2.2,0.6,4.9,0.9,8,0.9
			c2.7,0,5-0.2,6.8-0.5c1.8-0.3,3.4-0.8,4.7-1.5c1.5-0.7,1.9-1.3,1.2-1.7c-0.8-0.4-2.4-0.8-5-1.2c-3.3-0.6-5.7-1.2-7.3-1.9
			c-1.6-0.7-2-1.8-1.1-3.3c0.9-1.5,4-3.6,9.3-6.1c4.6-2.2,9.8-4.3,15.6-6.1c5.8-1.8,11.8-3.3,18.1-4.3c6.2-1.1,12.2-1.6,18-1.6
			c4,0,7.3,0.3,10.1,0.8c2.7,0.5,4.5,1.3,5.4,2.3l-23.8,8.7c-2.1-1.8-5.6-2.7-10.7-2.7c-5,0-9.1,0.7-12.1,2.2
			c-1.5,0.7-1.8,1.2-1.1,1.6c0.8,0.4,2.4,0.7,5,1.2c3.4,0.5,5.9,1.1,7.6,1.8c1.7,0.7,2.1,1.7,1.2,3.2c-0.8,1.5-3.9,3.5-9.2,6.1
			c-4.6,2.2-9.8,4.3-15.6,6.1c-5.8,1.8-11.8,3.3-18.1,4.3c-6.3,1.1-12.3,1.6-18.1,1.6C537.6,541.7,533.6,541.3,530.4,540.7z"/>
		<path class="st13" d="M593.7,539.3c-1.7-1.6-1-3.8,2-6.7c3-2.8,8.2-6,15.5-9.6c7.3-3.6,15.3-6.8,24-9.6c8.7-2.8,17.1-5.1,25.4-6.6
			c8.3-1.6,15.5-2.4,21.7-2.4c6.2,0,10.2,0.8,11.9,2.4c1.7,1.6,1,3.8-2,6.7c-3,2.8-8.2,6-15.5,9.6c-7.3,3.6-15.3,6.8-24,9.6
			c-8.7,2.8-17.1,5.1-25.4,6.6c-8.3,1.6-15.5,2.4-21.7,2.4S595.4,540.9,593.7,539.3z M634.4,530.9c3.5-0.7,7.2-1.8,11.1-3.1
			c3.9-1.3,7.7-2.9,11.4-4.7c3.7-1.8,6.4-3.4,8-4.7c1.6-1.3,2.2-2.4,1.7-3.1s-1.9-1.1-4.3-1.1c-2.4,0-5.4,0.4-8.8,1.1
			c-3.5,0.7-7.2,1.8-11.1,3.1s-7.7,2.9-11.4,4.7c-3.7,1.8-6.4,3.4-8,4.7c-1.6,1.3-2.2,2.4-1.7,3.1c0.5,0.7,1.9,1.1,4.3,1.1
			C628,532,631,531.6,634.4,530.9z"/>
		<path class="st13" d="M663.7,539.3c-1.7-1.6-1-3.8,2.1-6.6c3-2.8,8.3-6.1,15.7-9.7c7.4-3.6,15.4-6.8,24-9.7c8.6-2.8,17-5,25.2-6.6
			s15.3-2.4,21.4-2.4c5.6,0,9.4,0.6,11.3,1.8c1.9,1.2,1.9,3,0,5.3l-26.3,6.8c2.1-2.8,0.8-4.2-4.1-4.2c-4.1,0-9,0.8-14.8,2.4
			c-5.8,1.6-11.5,3.8-17.1,6.5c-5.6,2.7-8.8,4.9-9.6,6.5c-0.8,1.6,0.8,2.4,4.9,2.4c4.9,0,11.9-1.4,21.3-4.2l-1.6,6.8
			c-7.6,2.3-14.9,4.1-21.8,5.3c-6.9,1.2-13.2,1.8-18.8,1.8C669.2,541.7,665.3,540.9,663.7,539.3z"/>
		<path class="st13" d="M789.8,514.3l-36.1,17.5l8.7,0l-18.7,9.1l-36.9,0l18.7-9.1l8.7,0l36.1-17.5l-8.7,0l18.7-9.1l36.9,0
			l-18.7,9.1L789.8,514.3z"/>
		<path class="st13" d="M865.1,506.5c1.5,1.4,0.7,3.4-2.3,6s-8.3,5.8-15.7,9.4L808,541l-19.5,0l14.8-7.2l-18.4,0l-14.8,7.2l-19.2,0
			l39.1-19c7.5-3.6,15.1-6.8,22.9-9.4s15.3-4.6,22.4-6c7.1-1.4,13.5-2.1,19.1-2.1C860.1,504.4,863.7,505.1,865.1,506.5z
			 M821.9,524.7l7.8-3.8c4.5-2.2,7.1-3.9,7.8-5c0.7-1.1-0.4-1.7-3.2-1.7c-2.8,0-6.2,0.6-10.2,1.7c-4,1.1-8.3,2.8-12.9,5l-7.8,3.8
			L821.9,524.7z M877.8,494.2l17.8,0l-33.1,8.1l-12.4,0L877.8,494.2z"/>
		<path class="st13" d="M890.3,505.3l19.5,0l-54.2,26.4l26.2,0l-19.2,9.3l-45.7,0L890.3,505.3z"/>
		<path class="st13" d="M985.7,508.6c-1.9,2.8-8,6.7-18.4,11.7L924.8,541l-19.5,0l41.7-20.3c4.5-2.2,7.1-3.8,7.7-4.9
			c0.7-1.1-0.3-1.6-3-1.6c-2.7,0-6.1,0.6-10.1,1.7c-4.1,1.2-8.4,2.9-13.1,5.1L887.5,541l-19.5,0l73.4-35.7l19,0l-7.9,3.8
			c10.3-3.1,18.9-4.6,25.8-4.6C985.1,504.5,987.6,505.9,985.7,508.6z"/>
		<path class="st13" d="M992,516c6.8,0,12.9,0,19.6,0l0.6-0.3l-18.6-0.5L992,516z"/>
		<path class="st13" d="M959.2,531.9l-8.7,0l-18.7,9.1l36.9,0l18.7-9.1l-8.7,0l32.8-16c-6.6,0-12.7,0-19.6,0L959.2,531.9z"/>
		<polygon class="st13" points="986.3,515.6 995.7,515.3 993.5,516.1 1013.4,515.8 1016.7,514.5 1026.1,514.2 1049.8,504.9 
			1010,506.3 		"/>
		<polygon class="st13" points="1066.5,494.3 1048.7,494.3 1021,502.4 1033.5,502.4 		"/>
	</g>
	<text transform="matrix(0.7012 3.374619e-04 -0.8883 0.4593 640.088 616.1535)" class="st13 st16 st17">SÍTĚ</text>
	<text transform="matrix(1 0 0 1 528.1614 542.1246)" class="st1 st16 st18">SOCIÁLNÍ</text>
	<text transform="matrix(1 0 0 1 643.7728 620.1505)" class="st1 st16 st19">SÍTĚ</text>
</g>
</svg>
