<?xml version="1.0" encoding="utf-8"?>
<!-- Generator: Adobe Illustrator 26.3.1, SVG Export Plug-In . SVG Version: 6.00 Build 0)  -->
<svg version="1.1" xmlns="http://www.w3.org/2000/svg" xmlns:xlink="http://www.w3.org/1999/xlink" x="0px" y="0px"
	 viewBox="0 0 1366 768" style="enable-background:new 0 0 1366 768;" xml:space="preserve">
<style type="text/css">
	.st0{fill:#720027;}
	.st1{fill:#5C0027;}
	.st2{font-family:'MontserratAlternates-Black';}
	.st3{font-size:116.4415px;}
	.st4{font-size:308.6402px;}
	.st5{fill:none;stroke:#FF855B;stroke-width:2;stroke-miterlimit:10;}
	.st6{fill:#FF855B;}
	.st7{fill:#FF635B;}
	.st8{fill:#C7385B;}
	.st9{fill:#62245B;}
	.st10{fill:#83005B;}
	.st11{fill:#3A1925;}
	.st12{fill:#F7F5DA;}
	.st13{fill:#F7F5CF;}
	.st14{fill:#F7F5BC;}
	.st15{fill:#391025;}
	.st16{fill:#2A1025;}
	.st17{fill:#2E1025;}
	.st18{fill:#301925;}
	.st19{fill:#1F1025;}
	.st20{fill:#F7F5DD;}
	.st21{fill:none;stroke:#CCCCCC;stroke-width:2;stroke-miterlimit:10;}
	.st22{fill:none;stroke:#CCCCCC;stroke-miterlimit:10;}
	.st23{fill:#F7DEDD;}
	.st24{font-size:84px;}
	.st25{font-size:220px;}
</style>
<g id="background">
	<g>
		<rect x="0.5" y="0.5" class="st0" width="1365" height="767"/>
		<path class="st0" d="M1365,1v766H1V1H1365 M1366,0H0v768h1366V0L1366,0z"/>
	</g>
</g>
<g id="hills">
	<g>
		<text transform="matrix(0.717 2.264740e-02 -0.8267 0.5627 592.1486 281.4229)" class="st1 st2 st3">OPTIMALIZACE</text>
		<text transform="matrix(0.7098 2.242068e-02 -0.8267 0.5627 370.7303 424.1836)" class="st1 st2 st4">WEBU</text>
	</g>
	<ellipse class="st5" cx="189.4" cy="194.8" rx="169.8" ry="171.3"/>
	<g>
		<ellipse class="st6" cx="189.4" cy="194.8" rx="134.3" ry="135.4"/>
		<path class="st7" d="M204,59.7c10.5,19.2,16.5,41.5,16.5,65.3c0,74.7-60.2,135.4-134.3,135.4c-4.9,0-9.7-0.4-14.6-0.8
			c22.8,41.9,66.9,70.2,117.8,70.2c74.1,0,134.3-60.7,134.3-135.4C323.7,124.6,271.3,67.3,204,59.7z"/>
		<path class="st8" d="M222,63.1c12.7,20.7,19.8,44.9,19.8,71.3c0,74.7-59.8,135.4-134.3,135.4c-11.2,0-22.1-1.5-32.5-4.1
			c23.6,38.5,65.8,64.5,114.4,64.5c74.1,0,134.3-60.7,134.3-135.4C323.7,131,280.3,77.8,222,63.1z"/>
		<path class="st9" d="M254.5,75.6c11.6,20,18.3,43.4,18.3,68.3c0,74.7-60.2,135.4-134.3,135.4c-23.2,0-45.3-6-64.3-16.6
			c23.2,40.4,66.6,67.2,115.9,67.2c74.1,0,134.3-60.7,134.3-135.4C324.4,143.1,296,98.6,254.5,75.6z"/>
		<path class="st10" d="M254.9,76c18.3,23.4,29.5,52.8,29.5,84.9c0,74.7-60.2,135.4-134.3,135.4c-23.6,0-46-6.4-65.5-17
			c24.7,30.9,62.5,50.9,104.7,50.9c74.1,0,134.3-60.7,134.3-135.4C323.7,143.5,295.6,99,254.9,76z"/>
	</g>
	<g>
		<ellipse class="st6" cx="75" cy="330.2" rx="22.9" ry="22.9"/>
		<path class="st7" d="M77.5,307.4c1.9,3.1,2.8,6.9,2.8,11c0,12.5-10.3,22.9-22.9,22.9c-0.9,0-1.6,0-2.5,0
			c3.8,7.2,11.6,11.9,20.1,11.9c12.5,0,22.9-10.3,22.9-22.9C97.8,318.3,88.8,308.6,77.5,307.4z"/>
		<path class="st8" d="M80.6,308c2.2,3.4,3.4,7.5,3.4,11.9c0,12.5-10.3,22.9-22.9,22.9c-1.9,0-3.8-0.3-5.6-0.6
			c4.1,6.6,11.3,11,19.4,11c12.5,0,22.9-10.3,22.9-22.9C97.8,319.3,90.3,310.5,80.6,308z"/>
		<path class="st9" d="M85.9,309.9c1.9,3.4,3.1,7.2,3.1,11.6c0,12.5-10.3,22.9-22.9,22.9c-4.1,0-7.8-0.9-11-2.8
			c4.1,6.9,11.3,11.3,19.7,11.3c12.5,0,22.9-10.3,22.9-22.9C98.2,321.5,93.1,313.9,85.9,309.9z"/>
	</g>
	<polygon class="st11" points="126.7,768 301.7,475.9 1141.5,475.9 1231.7,768 	"/>
	<path class="st12" d="M364.4,475.9L189.4,768h90.1c29.9,1.3,66.9-1.2,77.9-22.2c10.4-19.8-10.1-40.6,1.4-58.2
		c16.7-25.7,75.9-5.7,84.3-25.6c6.1-14.6-23.3-31.2-17.3-50.1c5.7-17.9,33.9-10.1,53.9-31.5c30.2-32.4,15.6-103.2,15.6-103.2l0,0
		c0,0-34.5-1-40.8-1.1C435.4,475.4,406.5,475.1,364.4,475.9z"/>
	<path class="st13" d="M338.6,475.9L163.6,768h90.1c26.8,1.5,64.1,0,77.9-22.2c18.5-29.8-18.1-76.1-0.9-92.3
		c18.6-17.5,77.7,21.3,86.6,8.4c6.4-9.2-23.6-30.3-17.3-50.1c6.5-20.6,43-11.7,67.5-38.9c19.7-21.8,25.4-59.8,9.9-79.6
		c-2.7-3.4-10-17.4-48.7-17.4C398.7,475.9,368.6,475.9,338.6,475.9z"/>
	<path class="st14" d="M300,475.9L125,768h90.1c32.1-10.2,58.8-17.4,77.9-22.2c22.9-5.8,38-3.7,44.6-14.6
		c9.9-16.3-10.7-36.7-0.3-51.8c9.9-14.4,35.1-5.1,41.3-17.5c6.9-13.8-22.4-30.5-17.3-50.1c4.9-18.8,34.7-15.5,46.2-41.1
		c3.3-7.3,0.9-7.6,3-33.3c3.3-40.1,10.5-54.8,2.5-61.5c-5.9-5-15.7-1.9-23,0C371,480.9,341.9,484.3,300,475.9z"/>
	<path class="st15" d="M1084.9,475.9h-70.1c-12.2,24.5-15.8,45.9-16.9,59.3c-1.1,13-2.2,24.9,2.3,39.3c6.3,20.5,16.3,22.1,22,39.3
		c8,24.3-3,48.2-5.8,54.4c-16.3,35.7-48.8,39.6-48.6,53.2c0.2,12.2,26.6,28.4,137.2,46.6c23.4,0,46.7,0,70.1,0L1084.9,475.9z"/>
	<path class="st16" d="M1109.1,475.9h-70.1c-12.2,24.5-15.8,45.9-16.9,59.3c-1.1,13-2.2,24.9,2.3,39.3c6.3,20.5,16.3,22.1,22,39.3
		c8,24.3-3,48.2-5.8,54.4c-16.3,35.7-48.8,39.6-48.6,53.2c0.2,12.2,26.6,28.4,137.2,46.6c23.4,0,46.7,0,70.1,0L1109.1,475.9z"/>
	<path class="st17" d="M1139.8,475.9h-70.1c-12.2,24.5-15.8,45.9-16.9,59.3c-1.1,13-2.2,24.9,2.3,39.3c6.3,20.5,16.3,22.1,22,39.3
		c8,24.3-3,48.2-5.8,54.4c-16.3,35.7-48.8,39.6-48.6,53.2c0.2,12.2,26.6,28.4,137.2,46.6c23.4,0,46.7,0,70.1,0L1139.8,475.9z"/>
	<polygon class="st18" points="300,475.9 433.1,396.4 1199.4,396.4 1139.8,475.9 	"/>
	<polygon class="st19" points="1199.4,396.4 1337.3,768 1230.1,768 1139.8,475.9 	"/>
	<path class="st12" d="M495.4,475.9c2.9-3.5,7.9-9.1,14.4-15.8c14.5-14.7,20.2-17.1,23.9-26.4c4.2-10.5-0.3-14.5,3.5-21.9
		c3.5-6.7,12.5-13.9,37-15.5c-19.6,0-39.2,0-58.8,0l-133.1,79.6c37.7,0.4,75.3,0.8,113,1.1"/>
	<path class="st13" d="M455.2,475.9c2.9-3.5,7.9-9.1,14.4-15.8c14.5-14.7,20.2-17.1,23.9-26.4c4.2-10.5-0.3-14.5,3.5-21.9
		c3.5-6.7,12.5-13.9,37-15.5c-19.6,0-39.2,0-58.8,0L342,475.9C379.7,475.9,417.4,475.9,455.2,475.9"/>
	<path class="st14" d="M413.1,475.9c2-2.1,6-7.2,14.4-15.8c15.2-15.5,20.4-17.5,23.9-26.4c4.2-10.5-0.3-14.5,3.5-21.9
		c3.5-6.7,12.5-13.9,37-15.5c-19.6,0-39.2,0-58.8,0c-44.4,26.5-88.7,53-133.1,79.6C380.1,493.6,404.5,484.9,413.1,475.9z"/>
	<path class="st17" d="M1069.8,475.9c19.7-10.4,28.5-21.8,32.7-30.7c4-8.2,4.6-15.2,12.4-22.8c5.4-5.2,11.1-7.6,12.8-14.1
		c1.2-4.5,0-8.9-1.3-12c24.3,0,48.6,0,73,0l-59.6,79.6H1069.8z"/>
	<path class="st16" d="M1039.1,475.9c-3.1-5.8-8.1-17.5-5.1-30.7c1-4.5,4-14.7,12.4-22.8c5.4-5.2,11.1-7.6,12.8-14.1
		c1.2-4.5,0-8.9-1.3-12c24.3,0,48.6,0,73,0c0,7.9-2.5,13.1-4,15.6c-0.3,0.5-1.7,2.8-4.1,5.4c-4.9,5.3-7.8,5.2-10.3,8.7
		c-2.5,3.6-0.9,6.3-2.3,11.3c-0.9,3.2-3,8.2-11.5,17.1c-5.3,5.6-14.1,13.6-27.3,21.5C1060.6,475.9,1049.8,475.9,1039.1,475.9z"/>
	<path class="st15" d="M1014.8,475.9c-0.5-14.9,3.6-23.6,7.7-29c6.8-9,15-10.2,18.4-20.5c2.4-7.2-5-13.4-1.8-17.2
		c2.5-3,8.5-10.2,6.5-13.1c17.6,0.1,35.1,0.2,52.7,0.3l-59.6,79.6C1030.8,475.9,1022.8,475.9,1014.8,475.9z"/>
	<path class="st20" d="M0,684.6L0,684.6c238.8-62.8,429.5-62.9,561.3-50.8c250,23,302.1,91.6,507.7,71.4
		c237.8-23.5,390.5-137.1,443.2-74.1c19.5,23.3,4.5,45.8,22,256.6c4.2,50.2,5,48.8,4.1,53.5c-30.7,160.2-723.2,217.1-1350.3,115.3
		c-215.5-35-386.6-82.8-490.5-114.9"/>
</g>
<g id="MainText">
	<line class="st21" x1="439" y1="362.9" x2="439" y2="322.8"/>
	<line class="st21" x1="615.1" y1="322.8" x2="615.1" y2="362.9"/>
	<line class="st21" x1="723.7" y1="322.8" x2="723.7" y2="362.9"/>
	<line class="st21" x1="770.4" y1="316.3" x2="770.4" y2="356.4"/>
	<line class="st21" x1="877.8" y1="322.8" x2="877.8" y2="362.9"/>
	<line class="st21" x1="1039.1" y1="322.8" x2="1039.1" y2="362.9"/>
	<line class="st22" x1="522.9" y1="289.5" x2="545.8" y2="280.5"/>
	<line class="st21" x1="1117.8" y1="326.6" x2="1117.8" y2="366.7"/>
	<line class="st22" x1="462.9" y1="309.6" x2="487.5" y2="309.6"/>
	<line class="st22" x1="577.7" y1="281.4" x2="602.3" y2="281.4"/>
	<line class="st22" x1="622.6" y1="322.8" x2="647.2" y2="322.8"/>
	<line class="st22" x1="626" y1="281.4" x2="650.6" y2="281.4"/>
	<line class="st22" x1="729.6" y1="310.8" x2="754.2" y2="310.8"/>
	<line class="st22" x1="792.8" y1="322.8" x2="817.4" y2="322.8"/>
	<line class="st22" x1="824.9" y1="279.1" x2="860.8" y2="279.1"/>
	<line class="st22" x1="838.9" y1="322.8" x2="874.8" y2="322.8"/>
	<line class="st22" x1="883.4" y1="322.8" x2="919.2" y2="322.8"/>
	<line class="st22" x1="887.7" y1="279.1" x2="923.6" y2="279.1"/>
	<line class="st22" x1="942.5" y1="300.9" x2="978.4" y2="300.9"/>
	<line class="st22" x1="1009.6" y1="322.8" x2="1045.4" y2="322.8"/>
	<line class="st22" x1="1042.8" y1="299.8" x2="1103.4" y2="299.8"/>
	<line class="st21" x1="1009.6" y1="322.8" x2="1009.6" y2="362.9"/>
	<g>
		<g>
			<text transform="matrix(0.9981 0 0 1 401.6748 329.8574)" class="st23 st2 st24">OPTIMALIZACE</text>
			<text transform="matrix(1 0 0 1 390.4561 511.1477)" class="st23 st2 st25">WEBU</text>
		</g>
	</g>
	<path class="st16" d="M1032.7,490.2c0,0,13.1,0.1,13.9,3.2s9.9,6.5,9.9,6.5c2.5-0.1,5-0.2,7.5-0.2c-2,10.7-2.9,14-3.3,14.4
		c0,0-0.9,0.8-0.9,0.8l0,0c0,0-5.1,6-5.1,6l0,0l-4.5-0.4L1022,520l6.3-26.1L1032.7,490.2z"/>
	<path class="st15" d="M1008.5,496.8l22.7-6.6h1.5c-4.1,11.2-6.3,19-7.4,24.4c0,0,0,0.1,0,0.1c-0.9,4.1-0.9,5.4-1.1,6
		c-0.8,2.4-6.4,3.2-28,3.2h0l-2.8-15.2L1008.5,496.8z"/>
	<path class="st11" d="M491.2,490.6c30,2.9,60.1,5.8,90.1,8.8l24.1-4.6H657l39.6,6.9l53.1,2.9l37-4.6l63.1-5.2l30.4,3.4l35.6,1.1
		l64.2-9.2h21.8l6.8,6.6c0,0-10.3,21.6-10.2,27.8c0.1,6.2-157.7,25.2-157.7,25.2h-60.2h-40.2c-80.5-3.4-160.9-6.9-241.4-10.3
		c1.1-5.4,2-13.4,0.9-22.8C498.3,505,494.2,496,491.2,490.6z"/>
	<path class="st11" d="M499.2,509.9"/>
	<polygon class="st14" points="414.9,473.2 412.7,517.6 396,511.1 385.7,495.8 385.7,481.9 403.7,474.2 	"/>
	<path class="st13" d="M414.9,473.2l15.2,9.5l23.1,7.5c0,0,19.8-7.5,22.1-4.8c2.3,2.7,10.2,35.8,10.2,35.8l-4.6,1.7h-40.4l-27.8-5.2
		L414.9,473.2z"/>
	<path class="st12" d="M473.6,484.8c4,12.1,8,24.2,12,36.4l6.4-2.3c1.7,0,3.5,0,5.2,0c0.9-1.7,2-4.4,1.9-7.8
		c-0.1-2.6-0.9-4.4-2.7-8.7c-4.6-11.6-4.9-11.4-5.2-11.7C486.7,485.2,478.5,484.6,473.6,484.8z"/>
	<path class="st17" d="M1047.8,539c2.9,0.4,5.8,0.8,8.8,1.3c0,0,2.6,0,4.6,0s5.6,1,5.6,1l16.7,3.3l29.5,3.3h28.8l8.6-5l3.8-9.8
		l-2.8-12.9l-5-20.2c-7.2-2.2-16.4-4.4-27.3-5.6c-4.7-0.5-13.9-1.3-25.6-0.5c-8.8,0.6-20.4,2.1-33.6,6.1"/>
	<path class="st16" d="M1024.2,520.8"/>
	<path class="st16" d="M1033.9,520.8l19.6,0c-0.4,6.7-0.8,13.3-1.2,20c-6-3-11.9-5.9-17.9-8.9L1033.9,520.8z"/>
	<path class="st16" d="M1065.5,513.1"/>
</g>
</svg>
