<?xml version="1.0" encoding="utf-8"?>
<!-- Generator: Adobe Illustrator 26.3.1, SVG Export Plug-In . SVG Version: 6.00 Build 0)  -->
<svg version="1.1" id="Layer_1" xmlns="http://www.w3.org/2000/svg" xmlns:xlink="http://www.w3.org/1999/xlink" x="0px" y="0px"
	 viewBox="0 0 1366 768" style="enable-background:new 0 0 1366 768;" xml:space="preserve">
<style type="text/css">
	.st0{fill:#273043;}
	.st1{fill:#F7F5DD;}
	.st2{fill:#FF855B;}
	.st3{fill:#FF705B;}
	.st4{fill:#FF5D5B;}
	.st5{fill:#FF4B5B;}
	.st6{fill:#1D3043;}
	.st7{fill:#002243;}
	.st8{fill:#002222;}
	.st9{fill:none;stroke:#000000;stroke-width:3;stroke-miterlimit:10;}
	.st10{fill:none;stroke:#004254;stroke-miterlimit:10;}
	.st11{fill:#21002C;}
	.st12{fill:#00002C;}
	.st13{font-family:'MontserratAlternates-Black';}
	.st14{font-size:180px;}
	.st15{fill:none;stroke:#CCCCCC;stroke-width:4;stroke-miterlimit:10;}
	.st16{font-size:107px;}
	.st17{font-size:94px;}
</style>
<g id="background">
	<g>
		<rect x="-2.4" y="0" class="st0" width="1366" height="768"/>
	</g>
</g>
<g id="planets">
	<circle class="st1" cx="182.4" cy="131.2" r="12.9"/>
	<circle class="st1" cx="647.3" cy="79.8" r="12.9"/>
	<circle class="st1" cx="329.7" cy="218.3" r="12.9"/>
	<circle class="st1" cx="1171.1" cy="131.2" r="12.9"/>
	<circle class="st1" cx="1137.4" cy="279.1" r="12.9"/>
	<circle class="st1" cx="934" cy="131.2" r="12.9"/>
	<circle class="st1" cx="144.6" cy="341.5" r="12.9"/>
	<circle class="st2" cx="765.3" cy="340.6" r="157.6"/>
	<path class="st3" d="M765.3,365.8c-63.1,0-117.5-37-142.7-90.5c-9.6,20.4-15,43.1-15,67.1c0,87.1,70.6,157.6,157.6,157.6
		s157.6-70.6,157.6-157.6c0-24-5.4-46.8-15-67.1C882.8,328.8,828.4,365.8,765.3,365.8z"/>
	<path class="st4" d="M805.1,188.1c10.4,21,16.2,44.6,16.2,69.6c0,87.1-70.6,157.6-157.6,157.6c-13.7,0-26.9-1.7-39.6-5
		c25.7,52.1,79.4,88,141.5,88c87.1,0,157.6-70.6,157.6-157.6C923.2,267.4,873,205.7,805.1,188.1z"/>
	<path class="st5" d="M809.2,189.4c15.2,24.2,23.9,52.8,23.9,83.5c0,87.1-70.6,157.6-157.6,157.6c-14.8,0-29.1-2-42.7-5.8
		c27.9,44.5,77.3,74.1,133.7,74.1c87.1,0,157.6-70.6,157.6-157.6C924.2,268.9,875.5,208,809.2,189.4z"/>
	<circle class="st6" cx="610.7" cy="232.8" r="63.5"/>
	<path class="st7" d="M599,186.9c32,14.4,46.2,51.9,31.9,83.9c-4.5,9.9-11.2,18.1-19.2,24.3c24.9,0.7,48.9-13.3,59.7-37.4
		c14.4-32,0.1-69.5-31.9-83.9c-22-9.9-46.7-6.2-64.6,7.5C583,181.6,591.2,183.4,599,186.9z"/>
	<path class="st8" d="M613.6,168.2c2.7,4,6.4,10.4,8.7,18.9c0,0,2.3,8.5,2.3,16.9c0,35.5-29,64.4-64.7,64.4c-0.3,0-0.6,0-0.9,0
		c11.7,16.8,31.2,27.9,53.3,27.9c29.4,0,63.9-29.4,64.7-64.4c0.5-22-12.6-38.3-14.6-40.7c-7.9-9.5-16.8-14.5-21.4-16.7
		C629.6,169,619.2,168.2,613.6,168.2z"/>
	<path d="M663.1,192.2c1.2,2.8,2.7,6.6,3.5,11.4c5.7,31.4-18.9,69.7-49.1,76.6c-2.9,0.7-5.6,1.1-8,1.3c0,0-5.6,0.6-11.3,0.2
		c-7.2-0.5-25.2-7-45.1-22.2c1.3,3.8,3.7,9.1,8,14.6c7.6,9.7,16.7,13.7,22.3,16.3c5.5,2.6,23.2,10,44,5.2c35-8,57-42.2,49.1-76.6
		c-1.4-6.2-4.2-12.3-4.2-12.3C669.3,200.4,665.9,195.5,663.1,192.2z"/>
	<circle class="st9" cx="610.7" cy="232.8" r="106.1"/>
	<circle class="st10" cx="934" cy="131.2" r="22.8"/>
</g>
<g id="backroundHills">
	<g>
		<path class="st11" d="M623.2,352.3c0,0,87.6-72.1,152.3-45.2s106.1,85.8,106.1,85.8l-69,92.1L594,479.4l17.8-125.6L623.2,352.3z"
			/>
		<path class="st12" d="M771.7,305.6c35,16.1,71.9,40.3,102.2,77.5c2.7,3.3,5.2,6.6,7.7,9.9c-23,30.7-46,61.4-69,92.1
			c-16.8-0.4-33.7-0.9-50.5-1.3c23.9-21.5,51.1-49,44.8-59.6c-0.7-1.2-1.6-1.9-2.8-2.5c-14.6-7.3-46.7-18.6-48.3-37.4
			c-0.4-5.1,1.5-8.8,4.1-14C766.5,357.2,773,336.9,771.7,305.6z"/>
		<path class="st1" d="M593.9,479.5c5.9-41.9,11.9-83.8,17.8-125.6c3.8-0.5,7.6-1,11.5-1.6c7.5-5.8,17.7-13.2,30.2-20.9
			c8.5-5.2,14.8-8.3,27.3-14.5c15.6-7.7,26.5-12.3,37-8.8c1.9,0.6,2.3,1,2.5,1.3c8.8,10.3-49.9,74.6-49.9,74.6l0,0
			c12.4,12.5,25.3,28.5,20.6,38.5c-1.6,3.5-4.7,4.6-8.6,7.2c-7.6,5.1-16.9,14.7-23.3,34.4c0,5.7,0,11.4,0,17.1
			C637.4,480.6,615.7,480,593.9,479.5z"/>
	</g>
	<g>
		<path class="st11" d="M782.9,515.1c0,0,87.3-168.2,118.2-167.1s241.4-13.6,252.3,0s56.4,167.1,56.4,167.1H782.9z"/>
		<path class="st1" d="M864.3,515.1c-11.6-18.2-23.1-36.4-34.7-54.6l-13.3-3.7c10.8-18.5,23.3-39.3,37.6-62
			c19.4-30.7,29.5-44.7,44.7-46.6c3.2-0.4,4.1,0,24.6-0.6c10.1-0.3,18.3-0.7,23.8-0.9c-32.2,37.3-38.8,49.5-36.4,52.1
			c0.7,0.7,1.6,0.2,3.6,1.2c1.2,0.6,5.4,3.2,7.5,18.3c0.6,4.7,1.2,11.2,0.7,19c-3.1,13.4-6.2,26.9-9.3,40.3L886,461.5l-5.4,22.4
			c1.2,10.4,2.5,20.7,3.7,31.1C877.5,515.1,870.9,515.1,864.3,515.1z"/>
		<path class="st12" d="M1065.1,342.5c14.5-0.8,27.1-1,37.1-1c14.8,0,1.5,0.5,38.1,2.6c4.3,0.3,7.4,0.4,10.8,2.4
			c7.3,4.3,9,12.7,12.6,25.4c2.7,9.4,6.5,18.4,9.3,27.8c5.7,18.4,9.3,26.5,14.7,41.4c5.7,15.9,13.5,39.9,21.9,74
			c-23.8,0-47.5,0-71.3,0c-19.4-15.7-39.2-34.5-34.7-44.3c0.8-1.8,1.6-2.7,3-3.7c16.5-11.7-41.2-65.6-41.2-65.6
			C1065.4,381.9,1065.3,362.2,1065.1,342.5z"/>
		<path d="M1079.6,346.7l7.3,53c0,0,41.2,37.7,33.9,45.4c-7.3,7.7,0.9,30.5,0.9,30.5l31.8,19.1l18.1,15.2l18.1-6.1l5.4-9.2
			c0,0,1.8-19.7-8.5-29.4c-10.3-9.7-49.2-49.3-49.2-49.3s-12.9-14.9,0-24s0-32.5,0-32.5L1079.6,346.7z"/>
	</g>
	<path class="st11" d="M467.3,415.6c0,0,30.3-118.9,72.5-118.8s110.8-9.4,117.7,0c7,9.4,33.4,139,33.4,139l-223.7,3.5L467.3,415.6
		L467.3,415.6z"/>
	<path class="st1" d="M467.3,439.3c0-2.6,0-6.6-0.1-11.6c-0.2-6.7-0.4-8.7,0-11.9c0.6-5.5,2.4-9.3,3.7-12.2
		c5.2-11.8,3.1-11.9,10.2-30.9c3-8.2,5.5-13.9,8.7-20.9c9.7-21.6,16-30.6,18.4-33.9c5.8-8,10-12,14.9-15.2c4.6-3,9-4.7,12.1-5.7
		c9-0.2,18-0.5,27-0.7c2.1,17.4,0,31.3-1.9,40.1c-3.3,14.8-3.5,32.9-16.9,35.1c-18.9,3.2-28.2,6.9-28.2,6.9s4.6,29.3,4.9,30.3
		c0.3,0.9-16.7,30.6-16.7,30.6L467.3,439.3L467.3,439.3z"/>
	<path class="st12" d="M662,296.3c10.4,46.3,20.8,92.6,31.2,139c-9.7,0.2-19.3,0.5-29,0.7c-14-16-27.2-33.3-23.2-38.5
		c0.8-1,1.5-1.4,3.4-1.6c16.3-2,9.4-44.4,9.4-44.4s-35.5-20.7-36-22.2c-4.5-13.5-10.8-30.4-4.4-35c1.1-0.8,3.9-1,9.5-1.5
		c2.6-0.2,5.9-0.4,16.1-0.3c9.3,0.1,10.9,0.3,12.5,0.6C656,293.9,659.6,295.2,662,296.3z"/>
	<g>
		<path class="st11" d="M757.4,503c-0.1-3.4-3.3-71.5-54.5-97.7c-44.4-22.7-91.7,3.1-115.4,16c-50,27.3-72.7,71.1-80.6,88.6
			L757.4,503z"/>
		<path class="st1" d="M591.7,419.5c7.5-0.4,8.6,10.2,20.7,20.5c11.6,9.9,24.6,12,33,22.1c3.1,3.7,4,6.5,3.3,8.9
			c-0.5,1.8-1.9,3.5-3.4,4.1c-6.6,3.1-16.8-11.5-36.6-24.4c-2.1-1.4-4.2-2.7-6.6-4.1c0,0-4.7-2.7-9.5-4.9
			c-13.2-6.1-23.8-6.4-23.9-9.3c0-1.3,2-1.9,8.9-5.5C589.1,421,589.1,419.7,591.7,419.5z"/>
		<path class="st12" d="M647.3,398.1c5.3-1.1,12.6-2,21.1-1.7c10.9,0.4,19.1,2.6,22.3,3.6c5.5,1.7,14.5,4.4,23.9,11.4
			c5.4,4,8.7,7.8,13.1,12.9c10.2,11.8,15.9,22.4,17,24.4c11.5,21.7,13.5,44,13.9,54.4c-8.7,0.2-17.5,0.5-26.2,0.7
			c-30.3-16.4-61.8-34.8-59.4-40.4c0.3-0.8,1.3-1.2,2.3-1.4c16.1-3.8,17.9-28.4,17.9-28.4s-40.1-17.5-34.5-20.6c0.9-0.5,1-1,1-1.1
			C660.1,411.4,657.8,408.4,647.3,398.1z"/>
	</g>
	<g>
		<path class="st11" d="M655.3,532.5c0,0,63-74.3,83.3-75.1c20.4-0.8,70.3,0,70.3,0s7.7-1.3,16-0.4c8.2,0.9,51.4,75.5,51.4,75.5
			H655.3z"/>
		<path class="st1" d="M683.5,500.2c10.3-10.5,16.7-16.3,20.3-19.5c1-0.9,3.3-2.9,7.8-6.8c5.4-4.7,8.1-7,8.9-7.6
			c4.6-3.5,9.1-6.9,15.5-8.6c2.6-0.7,7-1.5,12.7-0.7c-8.6,19.7-17.3,39.3-25.9,59c0.6,12.7-0.7,16-2.1,16.4
			c-0.5,0.1-1.1-0.1-3.3-0.1c-1.5,0-2.7,0.1-3.5,0.1c-3.6,0-7.2,0-10.9,0C696.5,521.7,690,511,683.5,500.2z"/>
		<path class="st12" d="M793,462.4c1.6-0.7,9.4-4,15.9-5c2-0.3,4.1-0.5,4.1-0.5c3.6-0.3,6.3-0.2,7.1-0.2c2.9,0.1,4.3,0.1,5.3,0.5
			c2.1,0.7,3.2,2.3,6.1,5.5c2.4,2.7,3.8,4.8,5.7,7.7c1.7,2.6,4.3,6.4,7.6,11.1c5.4,8.2,10.7,16.7,16.1,25.4
			c5.4,8.7,10.5,17.3,15.4,25.7c-14.8,0-29.6,0-44.5,0c1.3-9.5,1.8-20.7-3.5-23.5c-1.5-0.8-3-0.7-4.1-0.6
			c-12.5,1.9-23.1-12.2-23.1-12.2l6.8-12.9l-2.9-16.1c0,0-25.8,1.9-21.6-0.6C787.5,464.2,793,462.4,793,462.4z"/>
	</g>
	<g>
		<g>
			<path class="st11" d="M157.5,546.1c7.3-10.6,110.6-154.8,292.2-149.6C614,401.2,706.6,524.3,717.2,539L157.5,546.1z"/>
			<path class="st1" d="M157.5,546.1c22.3-2.1,44.6-4.2,67-6.3c4.1-3,10.5-6.9,19-9.5c11.1-3.4,20.7-3.1,26.4-2.5
				c2.3-1.4,4.7-2.8,7-4.2c5.6-16.9,11.3-33.8,16.9-50.7c30.4-21,57.1-44.3,80.4-69.6c0.1-0.1,0.2-0.2,0.3-0.3
				C239.7,431,163.7,537.1,157.5,546.1z"/>
			<path class="st12" d="M521.2,406.4c25.6,6.9,59.8,19,96.1,41.4c49.3,30.4,81.4,66.5,100,91.2c-39.7,0.8-74.3,1-74.4-0.8
				c0-0.1,0.2-0.3,0.3-0.3c6.1-3.3-42-61.1-42-61.1l-88,7l-42.6-55.4c0,0,0.2-2.7,2.8-5.5c4.9-5.3,13-5.3,16.9-5.5
				C497.5,417.1,507.8,415,521.2,406.4z"/>
			<path d="M486.9,427.3c-4.4,4.1,8.9,38.9,32,44.7c3.2,0.8,2.6,0.1,19.7-0.6c15.6-0.6,27.5-0.5,41.2-0.3
				c15.3,0.2,22.9,0.2,25.5,0.6c5.8,1.1,21.7,4,35.4,16.2c16.6,14.8,16.4,31.4,28.6,33c5.2,0.7,11.3-1.5,12.9-5.5
				c3-7.3-9.6-19.7-16.6-25.3c-9.4-7.5-11.9-5.3-25.2-14.6c-4.2-2.9-11.3-7.8-19.1-15.9c-9.3-9.6-9.8-13.5-16.3-16.2
				c-2.7-1.1-3.3-0.7-19.4-1c-16-0.2-18.9-0.6-22.5-2.3c-3.1-1.4-6.1-4-12-9.1c-2.9-2.5-5-4.5-6.6-6.1c-6.2-6.3-6.5-6.2-7.2-6.8
				c-9.5-7.4-33.9,3-33.8,11c0,3.4,4.5,5.7,4,6.5C506.5,437.2,490.3,424.1,486.9,427.3z"/>
		</g>
	</g>
</g>
<g id="mainText">
	<g>
		<text transform="matrix(0.6041 4.730298e-04 -0.7652 0.6438 495.6523 610.1187)" class="st13 st14">SERVERU</text>
	</g>
	<text transform="matrix(0.6041 3.883619e-04 -0.8228 0.5684 470.6134 514.9427)" class="st13 st14">SPRÁVA</text>
	<line class="st15" x1="506.9" y1="556.5" x2="506.9" y2="503.7"/>
	<line class="st15" x1="939.5" y1="556.5" x2="939.5" y2="503.7"/>
	<line class="st15" x1="731.9" y1="547.4" x2="731.9" y2="494.6"/>
	<text transform="matrix(1 0 0 1 479.1597 514.9431)" class="st1 st13 st16">SPRÁVA</text>
	<text transform="matrix(1 0 0 1 477.5751 610.1194)" class="st1 st13 st17">SERVERU</text>
</g>
<path class="st1" d="M-81.2,693.7c49.7-21.3,139-58.6,260.3-64.3c128.7-6.1,161.5,29.6,306.2,49c131.1,17.6,235.4,3.6,444-24.5
	c192.1-25.8,232.9-48.8,364.4-42.9c115.7,5.2,200.2,10.2,266.4,73.5c85.7,81.9,113.9,235.8,52.1,318.4
	c-43.8,58.5-122.1,67.2-186.8,73.5c-443.8,43-681.5,28.2-946.1,45.9c-36.6,2.4-149.2,10.6-297,3.1c-111.1-5.6-180.5-17-220.5-24.5
	c-72-13.6-120.9-28.4-199-52.1c-111.9-33.9-168-51.3-174.5-70.4C-436.8,905.2-243.8,763.3-81.2,693.7z"/>
</svg>
