<?xml version="1.0" encoding="utf-8"?>
<!-- Generator: Adobe Illustrator 26.3.1, SVG Export Plug-In . SVG Version: 6.00 Build 0)  -->
<svg version="1.1" id="Layer_1" xmlns="http://www.w3.org/2000/svg" xmlns:xlink="http://www.w3.org/1999/xlink" x="0px" y="0px"
	 viewBox="0 0 300 100" style="enable-background:new 0 0 300 100;" xml:space="preserve">
<style type="text/css">
	.st0{fill:#FFFFFF;stroke:#FFFFFF;stroke-miterlimit:10;}
	.st1{fill:#FFFFFF;stroke:#FFFFFF;stroke-width:2;stroke-miterlimit:10;}
	.st2{font-family:'MontserratAlternates-Black';}
	.st3{font-size:25px;}
</style>
<g>
	<circle class="st0" cx="59.7" cy="48.6" r="35.9"/>
	<path class="st0" d="M63.6,12.8c2.8,5.1,4.4,11,4.4,17.3C68,49.9,51.9,66,32.1,66c-1.3,0-2.6-0.1-3.9-0.2
		c6.1,11.1,17.9,18.6,31.5,18.6c19.8,0,35.9-16.1,35.9-35.9C95.6,30,81.6,14.8,63.6,12.8z"/>
	<path class="st0" d="M68.4,13.7c3.4,5.5,5.3,11.9,5.3,18.9c0,19.8-16,35.9-35.9,35.9c-3,0-5.9-0.4-8.7-1.1
		c6.3,10.2,17.6,17.1,30.6,17.1c19.8,0,35.9-16.1,35.9-35.9C95.6,31.7,84,17.6,68.4,13.7z"/>
	<path class="st0" d="M77.1,17c3.1,5.3,4.9,11.5,4.9,18.1C82,54.9,65.9,71,46.1,71c-6.2,0-12.1-1.6-17.2-4.4
		c6.2,10.7,17.8,17.8,31,17.8c19.8,0,35.9-16.1,35.9-35.9C95.8,34.9,88.2,23.1,77.1,17z"/>
	<path class="st0" d="M77.2,17.1c4.9,6.2,7.9,14,7.9,22.5c0,19.8-16.1,35.9-35.9,35.9c-6.3,0-12.3-1.7-17.5-4.5
		c6.6,8.2,16.7,13.5,28,13.5c19.8,0,35.9-16.1,35.9-35.9C95.6,35,88.1,23.2,77.2,17.1z"/>
</g>
<circle class="st1" cx="59.7" cy="48.6" r="45.4"/>
<g>
	<ellipse class="st0" cx="28.2" cy="82.3" rx="7.3" ry="7.3"/>
	<path class="st0" d="M29,75c0.6,1,0.9,2.2,0.9,3.5c0,4-3.3,7.3-7.3,7.3c-0.3,0-0.5,0-0.8,0c1.2,2.3,3.7,3.8,6.4,3.8
		c4,0,7.3-3.3,7.3-7.3C35.5,78.5,32.6,75.4,29,75z"/>
	<path class="st0" d="M30,75.2c0.7,1.1,1.1,2.4,1.1,3.8c0,4-3.3,7.3-7.3,7.3c-0.6,0-1.2-0.1-1.8-0.2c1.3,2.1,3.6,3.5,6.2,3.5
		c4,0,7.3-3.3,7.3-7.3C35.5,78.8,33.1,76,30,75.2z"/>
	<path class="st0" d="M31.7,75.8c0.6,1.1,1,2.3,1,3.7c0,4-3.3,7.3-7.3,7.3c-1.3,0-2.5-0.3-3.5-0.9c1.3,2.2,3.6,3.6,6.3,3.6
		c4,0,7.3-3.3,7.3-7.3C35.6,79.5,34,77.1,31.7,75.8z"/>
</g>
<text transform="matrix(1 0 0 1 115.0929 56.2577)" class="st0 st2 st3">WEBLISH</text>
</svg>
