<?xml version="1.0" encoding="utf-8"?>
<!-- Generator: Adobe Illustrator 26.3.1, SVG Export Plug-In . SVG Version: 6.00 Build 0)  -->
<svg version="1.1" id="Layer_1" xmlns="http://www.w3.org/2000/svg" xmlns:xlink="http://www.w3.org/1999/xlink" x="0px" y="0px"
	 viewBox="0 0 1366 768" style="enable-background:new 0 0 1366 768;" xml:space="preserve">
<style type="text/css">
	.st0{fill:#FF5594;}
	.st1{fill:none;stroke:#420027;stroke-width:2;stroke-miterlimit:10;}
	.st2{fill:#FF855B;}
	.st3{fill:#FF725B;}
	.st4{fill:#FF6A5B;}
	.st5{fill:#FF545B;}
	.st6{fill:none;stroke:#FF855B;stroke-width:5;stroke-miterlimit:10;}
	.st7{fill:#FF855B;stroke:#FF855B;stroke-width:0.5;stroke-miterlimit:10;}
	.st8{fill:#FF595B;stroke:#FF595B;stroke-width:0.5;stroke-miterlimit:10;}
	.st9{fill:#FF495B;stroke:#FF495B;stroke-width:0.5;stroke-miterlimit:10;}
	.st10{fill:#FF4294;}
	.st11{fill:#DF41B0;}
	.st12{fill:#CA3C94;}
	.st13{fill:#F7F5DD;}
	.st14{fill:#C33CA7;}
	.st15{fill:#C83C94;stroke:#C83C94;stroke-miterlimit:10;}
	.st16{fill:none;stroke:#B3B3B3;stroke-width:2;stroke-miterlimit:10;}
	.st17{font-family:'MontserratAlternates-Black';}
	.st18{font-size:73px;}
	.st19{font-size:72.9975px;}
	.st20{fill:none;stroke:#B3B3B3;stroke-miterlimit:10;}
	.st21{font-size:73.0035px;}
	.st22{fill:#A83CA7;}
	.st23{font-size:72.9977px;}
	.st24{font-size:66.0042px;}
	.st25{fill:#953CA7;}
</style>
<g id="Layer_1_00000152260733749881747180000006422539659872523907_">
	<rect class="st0" width="1366" height="768"/>
</g>
<g id="backgroundHills">
	<g>
		<path class="st1" d="M1020.7,248.2"/>
		<circle class="st2" cx="1124.1" cy="310" r="90.5"/>
		<path class="st3" d="M1193.4,252.1c-24.8-29.6-64.5-39.2-98.9-27.3c35.4,12.3,60.9,45.9,60.9,85.5s-25.4,73.3-60.9,85.5
			c29.1,10,62.5,5,87.8-16.2C1220.6,347.5,1225.6,290.4,1193.4,252.1z"/>
		<path class="st4" d="M1130.2,219.9c17,16.5,27.5,39.5,27.5,65c0,50-40.5,90.5-90.5,90.5c-2.2,0-4.4-0.1-6.5-0.2
			c16.3,15.8,38.5,25.5,63,25.5c50,0,90.5-40.5,90.5-90.5C1214.3,262.4,1177.2,223.2,1130.2,219.9z"/>
		<path class="st5" d="M1179,238.3c2.3,7.9,3.5,16.3,3.5,25c0,50-40.5,90.5-90.5,90.5c-20.8,0-40-7-55.3-18.8
			c10.8,37.8,45.7,65.5,87,65.5c50,0,90.5-40.5,90.5-90.5C1214.2,280.8,1200.4,254.8,1179,238.3z"/>
		<circle class="st6" cx="1125.5" cy="310.3" r="126.5"/>
		<circle class="st7" cx="1025.8" cy="232.9" r="14.4"/>
		<path class="st8" d="M1022.2,219c1.1,1.3,1.8,2.6,2.1,3.6c2.5,6.9-1.6,16.2-7.9,18.7c-0.6,0.3-1.3,0.4-1.9,0.6
			c3.9,4.6,10.5,6.4,16.4,4c7-2.8,11-11.4,7.9-18.7C1036.2,221,1029.2,217.4,1022.2,219z"/>
		<path class="st9" d="M1035.3,222c-4.5-3.9-10.7-4.5-15.7-2.1c1.3,0.6,2.6,1.4,3.7,2.4c6,5.2,6.6,14.3,1.4,20.3
			c-1.3,1.5-2.9,2.7-4.6,3.5c5.6,2.4,12.3,1.1,16.5-3.7C1041.9,236.3,1041.3,227.3,1035.3,222z"/>
	</g>
	<circle class="st0" cx="221.9" cy="162.4" r="121"/>
	<path class="st10" d="M221.9,37.5c-3.6,0-7.1,0.2-10.6,0.5c6.8,15.1,10.6,31.9,10.6,49.6c0,63.2-48.5,115.1-110.4,120.5
		c18.9,42.1,61.2,71.4,110.4,71.4c66.8,0,121-54.2,121-121S288.7,37.5,221.9,37.5z"/>
	<path class="st11" d="M261.6,44.9c2.3,9.3,3.5,19.1,3.5,29.1c0,66.8-54.2,121-121,121c-14.1,0-27.6-2.4-40.2-6.9
		c13,52.8,60.7,91.9,117.5,91.9c66.8,0,121-54.2,121-121C342.4,106.3,308.6,61.5,261.6,44.9z"/>
	<path class="st12" d="M279,52.1c11,18.2,17.3,39.6,17.3,62.4c0,66.8-54.2,121-121,121c-20.9,0-40.5-5.3-57.7-14.6
		c21.2,35.1,59.7,58.6,103.7,58.6c66.8,0,121-54.2,121-121C342.4,112.5,316.8,72.6,279,52.1z"/>
	<circle class="st13" cx="496" cy="51.4" r="13.9"/>
	<circle class="st13" cx="632.3" cy="121.4" r="13.9"/>
	<circle class="st13" cx="1061.4" cy="52.1" r="13.9"/>
	<circle class="st13" cx="323" cy="305.2" r="13.9"/>
	<circle class="st13" cx="851.4" cy="44.9" r="17.4"/>
	<circle class="st13" cx="909.9" cy="192.7" r="9.8"/>
	<circle class="st13" cx="1050.7" cy="126.3" r="4.9"/>
	<path class="st14" d="M920.6,310.3c-1.5,7.3-2.4,16.9,2.8,21.3c4.9,4.1,12.7,1.5,14,4.6c1.7,4.1-11.4,10-10.3,15.9
		c1.3,7.7,25.1,7.1,25.9,13.6c0.4,3.6-6.7,5-15.5,14.2c-5.3,5.6-12.4,13-11.3,20.3c1.6,10.8,19.7,11.1,21.6,21.8
		c1.6,9-10.3,13.5-10.9,23c-0.5,7.6,6.1,18.8,39.6,34.2c27.4,0.7,54.8,1.3,82.2,2l-56.5-171C975,310.3,947.8,310.3,920.6,310.3
		L920.6,310.3z"/>
</g>
<g id="backgroudnRocks">
	<g>
		<g>
			<polyline class="st15" points="282.6,454.9 302.8,390.1 474.4,390.1 405,544.8 282.6,454.9 			"/>
			<path class="st13" d="M334.9,473.7c-9-2.6-15.6-8.8-16.5-16c-0.1-1.1-0.6-4.7,1.3-8.3c2.5-4.7,6.7-5.2,13.6-9.2
				c6.5-3.8,13.4-7.8,14.4-13.6c1.2-6.9-7.3-10.2-7.4-17.5c-0.1-4.9,3.5-11.5,18.8-19.5c-18.9,0-37.9,0-56.8,0l-20.1,64.8
				l122.4,89.8l6.6-14.7L334.9,473.7z"/>
			<path class="st14" d="M403.1,390.1c-11.9,3-19.3,8.1-23.5,11.7c-6.3,5.4-10.7,12.6-19.2,26.7c-4.2,6.9-7.4,12.7-9.5,16.7
				c28.9-0.5,57.9-1,86.8-1.4l30.2-53.7L403.1,390.1L403.1,390.1z"/>
		</g>
		<g>
			<path class="st15" d="M543.4,427.5c0,0,94.6-184.9,177.2-170.7s291.2,12.5,291.2,12.5l56.5,171"/>
			<g>
				<g>
					<path class="st13" d="M1011.5,269.4L1011.5,269.4c0,0-2,0-5.7,0C1007.7,269.4,1009.6,269.4,1011.5,269.4z"/>
					<path class="st13" d="M573.3,427.5c48.3-20.5,59.4-37.1,59.2-49.1c-0.1-9.6-11-28.8-11-28.8l0,0c16.5-17.8,20.2-22.6,20.2-22.6
						c10.4-13.4,7.4-14.3,13-19.6c12.3-11.6,25.9-5.4,41.2-12.7c16.1-7.7,25.2-23.1,30.8-36.8c-0.9-0.1-2-0.3-3.3-0.5
						c-1.1-0.2-2.1-0.4-3.2-0.5C637.6,242.6,543,427.5,543,427.5l524.9,12.8l-0.2-0.7L573.3,427.5z"/>
				</g>
			</g>
		</g>
		<line class="st16" x1="797.6" y1="404.9" x2="797.6" y2="352"/>
		<line class="st16" x1="860.6" y1="388.3" x2="859.6" y2="343.1"/>
		<line class="st16" x1="906.9" y1="409.6" x2="905.7" y2="353.8"/>
		<line class="st16" x1="957.3" y1="413.8" x2="956" y2="357.9"/>
		<line class="st16" x1="1006" y1="405.9" x2="1004.7" y2="350.1"/>
		<g>
			<text transform="matrix(1 0 0 1 648.1249 370.8643)" class="st13 st17 st18">FUN</text>
		</g>
		<g>
			<text transform="matrix(0.9997 -2.302636e-02 2.302636e-02 0.9997 813.8159 369.5365)" class="st13 st17 st19">GU</text>
		</g>
		<path class="st15" d="M998.6,575.9c0,0,17.9-193.9-32.5-191.2c0,0-107.4-5.9-259.6,0s-99,196.2-99,196.2"/>
		<path class="st13" d="M790.9,383.2c-0.2-1.6-7.1-2-27-1.9c-34.7,0.2-52,0.3-63.2,1.9c-2.1,0.3-48.6,4.7-71.9,25.1
			c-60,52.6-27.1,169.2-27.1,169.2c24.8,0.9,43.1,0.4,54.5-0.3c4.6-0.3,11.3-0.7,14.9-5.4c4.7-6.2-0.3-14.1-1.4-23.4
			c-2.9-27.2,31.3-41,26.4-58.3c-4.3-14.9-33-15.6-32.4-24.1c0.4-6,19.8-3.2,29.7-16.7c5-6.8,2.8-11.2,8.1-21.4
			c5-9.7,12.3-16,17.4-19.6C779.5,391.8,791.3,385.7,790.9,383.2z"/>
		<path class="st14" d="M907.6,576.2c31.1-0.4,62.2-0.8,93.3-1.2c0,0,17.9-193.9-32.5-191.2c-10.4-0.5-26.3-1.2-45.9-1.7
			c-7.5-0.2-48.2-1.1-48.3,0.3c0,0.2,1.1,0.6,7.1,1.3c15.9,8.5,32.6,20.1,31.5,32.1c-1.2,13-22.3,17.2-21.9,28.2
			c0.6,14.5,37.9,17.1,39.7,32.2c2.1,16.9-42.6,31.1-39.4,46.1c2.1,9.7,21.8,7.6,26.7,21.9c3.4,9.8-6.3,40.9-4.2,30.8l0,0
			C911.8,575.4,909.7,575.8,907.6,576.2z"/>
	</g>
	<g>
		<path class="st15" d="M331.9,463.3c0,0,46.7-64.6,67.6-57.2s57.9,2.8,57.9,2.8l-61,108.5L331.9,463.3z"/>
		<path class="st13" d="M405,407.1c-1.9-0.5-3.8-1-5.5-1.6c-20.9-7.4-67.6,57.2-67.6,57.2c5.1,2.9,10.2,5.8,15.3,8.6
			c-3.6-9.7-3.2-13-1.8-14c1.9-1.4,4.9,2.3,10.5,2.3c6,0.1,12.2-4,15.1-9c4.5-7.7-1.2-13.1,3.2-18c4.3-4.9,11.8-1.7,17.1-8.4
			c1.2-1.5,1.1-2.1,2.6-4.6C397.3,413.7,401.6,409.7,405,407.1z"/>
	</g>
	<g>
		<line class="st16" x1="571" y1="374.8" x2="570" y2="342.3"/>
		<path class="st20" d="M522.1,311.1c4.1,0.7,9.9,2.1,16.1,5.5c4.7,2.5,8.2,5.3,10.8,7.6"/>
		<line class="st16" x1="515.8" y1="376.6" x2="514.6" y2="338.6"/>
		<text transform="matrix(0.9984 -5.737650e-02 5.737650e-02 0.9984 489.7554 357.9281)" class="st13 st17 st21">TO</text>
		<polygon class="st15" points="396.4,517.3 483.9,362 615.7,362 671.5,607.1 445.7,608.1 		"/>
		<path class="st13" d="M494.9,503.5c-2.3-3-29.5-39.3-15.2-82.1c11.6-34.7,45.8-59,85.1-59.6c-27,0-54,0-80.9,0l-87.5,155.4
			l49.2,90.8c6.8,0.1,13.6,0.2,20.4,0.3c-2.6-6.9-14.1-40.7,3-74.5C476.9,518.6,487.6,508.9,494.9,503.5z"/>
		<path class="st14" d="M615.8,362h-44.1c-19.4,39.7-16.3,60.9-9,73c9.3,15.4,26.1,17.4,29.1,33.2c3.4,17.8-16.4,23.3-15.8,41.5
			c1,26.6,43.7,32.5,56.5,73.1c3,9.4,3.4,17.7,3.3,23.2c-63.4,0.6-126.7,1.3-190.1,1.9l0.1,0.2l225.8-1L615.8,362z"/>
		<path class="st22" d="M615.8,362c-8.7-0.1-17.4-0.2-26.1-0.3c-17,34.9-14.2,54.7-8,66.6c8.5,16.4,24.2,18.7,27.7,35.8
			c3.8,18.8-13.5,24.1-12.5,43.4c1.5,28.2,39.8,34.8,46.9,70.2c2.4,11.7,0.4,21.9-1.3,28.2c-65.6,0.7-131.2,1.4-196.8,2.2l0.1,0.2
			l225.8-1L615.8,362z"/>
	</g>
	<g>
		<polygon class="st15" points="890.1,622.8 938.4,380.7 1106.9,376.6 1171.1,622.8 		"/>
		<g>
			<line class="st16" x1="1104.8" y1="399.5" x2="1146.2" y2="362"/>
			<g>
				<text transform="matrix(1 -6.815406e-03 6.815406e-03 1 928.9904 362.585)" class="st13 st17 st18">JE</text>
			</g>
			<g>
				<text transform="matrix(0.7555 0.6551 -0.6551 0.7555 1111.3304 363.9095)" class="st13 st17 st23">?</text>
			</g>
			<path class="st14" d="M1083.5,622.8h87.5l-64.2-246.1c-22.8,0.5-45.5,1.1-68.3,1.6c10.9,9.9,19.5,22,19.7,35.8
				c0.3,17.7-13.3,24.2-11.8,42c1.2,13.8,10.5,23.7,21,34.8c20.3,21.5,36.9,23,37.4,34.1c0.4,10-12.7,13.4-21.7,26.3
				C1074.8,563.3,1070,584.2,1083.5,622.8z"/>
			<path class="st14" d="M1091.1,590.2"/>
			<path class="st13" d="M929.1,622.8c46.9-19.7,56.8-28.6,55.7-32.9c-1.6-6.2-24.9-1.4-29.4-11.3c-5.9-13.1,30.7-30.6,28.3-56.8
				c-1.5-16.3-16.4-18.2-16.5-35.2c0-18,16.6-22.8,14.8-38.6c-1.7-14.5-16.5-17-19.3-31.8c-2.6-13.4,6.6-26.4,14.8-35.4l0,0
				c-1.5-0.3-3-0.5-4.5-0.8c-11.5,0.3-23,0.5-34.5,0.8l-48.3,242.1h281L929.1,622.8z"/>
			<path class="st22" d="M1106.9,376.1c-12.5,0.4-25,0.8-37.5,1.2c8.4,9.9,15,22,15.1,35.8c0.2,17.7-10.2,24.2-9.1,42
				c0.9,13.8,8.1,23.7,16.1,34.8c15.6,21.5,28.3,23,28.7,34.1c0.3,10-9.8,13.4-16.6,26.3c-6.5,12.1-10.2,33,0.2,71.6h67.2
				c-9.6-37-19.1-74.1-28.7-111.1"/>
		</g>
	</g>
	<g>
		<line class="st16" x1="169.2" y1="477.1" x2="227.3" y2="441.6"/>
		<line class="st16" x1="279.5" y1="461.2" x2="258.8" y2="429.4"/>
		<line class="st16" x1="185.9" y1="522.3" x2="165.1" y2="490.5"/>
		<text transform="matrix(0.8375 -0.5464 0.5464 0.8375 153.4063 506.3811)" class="st13 st17 st24">JAK</text>
		<text transform="matrix(0.8375 -0.5464 0.5464 0.8375 153.4063 506.3811)" class="st13 st17 st24">JAK</text>
		<path class="st15" d="M181.4,538.2"/>
		<path class="st15" d="M85.5,607.9c0,0,120.1-165.6,216-153s143.5,153,143.5,153H85.5z"/>
		<path class="st14" d="M374.7,607.9h70.9c0,0-47.6-140.4-143.5-153c-20.9-2.7-43,3-64.7,13.6c14.4,16.1,27.4,29.5,37.9,39.9
			c24.2,24.1,31.1,28.4,40.1,29.6c15.8,2.1,24.6-7.2,32.7-1.2c7,5.2,4.2,15,7.4,30.8C357.5,577.9,362.3,592,374.7,607.9z"/>
		<path class="st22" d="M392.1,608.7c17.9-0.3,35.7-0.5,53.6-0.8c-32.1-94.8-89.9-156.3-143.5-153c-10,0.6-22.3,3.6-36.2,12.4
			c11.4,12.6,22.2,21.4,30.2,27.3c13.6,10,20.4,15,31,17.7c20.4,5.3,29.5-4.5,37.6,2.2c9.5,7.9,0.6,24.7,4.4,48.6
			C372.5,584,383.7,599.4,392.1,608.7z"/>
		<path class="st13" d="M324.7,456.7c-1.4-0.4-3-0.7-4.6-1c-2-0.4-3.9-0.6-5.7-0.8l0,0l0,0c0,0-7.2-0.8-14.8-1.4
			c-3.9-0.3-5.9-0.5-7.7-0.5c-1.5,0-5.8-0.1-11.5,0.5c-7.6,0.8-14,2.5-18.5,3.8c-23.7,7.1-45.4,21.1-52.6,25.9
			c-1.4,0.9-6.3,4.1-12.5,8.6c-2,1.4-10.1,7.4-22.3,17.9c-8.2,7.1-14.9,13.3-20.3,18.4c-32.7,31.2-72.1,80.2-72.1,80.3l0,0
			c0,0,24.1,0.2,69.9,0.5c39.2-18.3,56.7-39.9,65.5-56.4c9.7-18.3,12-29.9,27-44.6c13.8-13.5,30.3-24.2,30.3-24.2
			c0.8-0.5,1.6-1,1.6-1.1C276.9,481.9,287.5,476.1,324.7,456.7z"/>
		<path class="st25" d="M488,673.7"/>
	</g>
</g>
<path class="st13" d="M-61,688.9c68.9-69.9,170.9-80,604.7-46.2c349.5,27.3,316.6,36.5,389.7,31.8c330.9-21.3,455.8-174.7,586-101
	c96,54.3,157.6,211.1,118.4,320.4c-141.6,394.4-1664.1,360.7-1769.5,14.4C-154.8,832.3-110.4,739-61,688.9z"/>
</svg>
