<?xml version="1.0" encoding="utf-8"?>
<!-- Generator: Adobe Illustrator 26.3.1, SVG Export Plug-In . SVG Version: 6.00 Build 0)  -->
<svg version="1.1" id="Layer_1" xmlns="http://www.w3.org/2000/svg" xmlns:xlink="http://www.w3.org/1999/xlink" x="0px" y="0px"
	 viewBox="0 0 100 100" style="enable-background:new 0 0 100 100;" xml:space="preserve">
<style type="text/css">
	.st0{fill:none;stroke:#F7F5DD;stroke-width:3;stroke-miterlimit:10;}
	.st1{fill:#F7F5DD;}
	.st2{fill:none;stroke:#F7F5DD;stroke-miterlimit:10;}
	.st3{font-family:'MontserratAlternates-Black';}
	.st4{font-size:13px;}
	.st5{fill:none;stroke:#F7F5DD;stroke-width:0.75;stroke-miterlimit:10;}
</style>
<path class="st0" d="M75,90.3c-5.1-1.5-11.4-13.8-11.4-13.8H40.4c0,0-12.1,12.6-15,13.8"/>
<path class="st1" d="M75.9,91.8H24.3c-0.2,0-0.3-0.1-0.3-0.3v-2.3c0-0.2,0.1-0.3,0.3-0.3h51.5c0.2,0,0.3,0.1,0.3,0.3v2.3
	C76.2,91.7,76,91.8,75.9,91.8z"/>
<path class="st0" d="M81.8,76.5H18.6c-6.6,0-12-5.4-12-12v-24c0-6.6,5.4-12,12-12h63.2c6.6,0,12,5.4,12,12v24
	C93.8,71.1,88.4,76.5,81.8,76.5z"/>
<line class="st2" x1="6.4" y1="67.5" x2="93.6" y2="67.5"/>
<text transform="matrix(1 0 0 1 35.6743 52.5391)" class="st1 st3 st4">&lt;/p&gt;</text>
<path class="st5" d="M65.6,55.1"/>
</svg>
