<?xml version="1.0" encoding="utf-8"?>
<!-- Generator: Adobe Illustrator 26.3.1, SVG Export Plug-In . SVG Version: 6.00 Build 0)  -->
<svg version="1.1" id="Layer_1" xmlns="http://www.w3.org/2000/svg" xmlns:xlink="http://www.w3.org/1999/xlink" x="0px" y="0px"
	 viewBox="0 0 1366 768" style="enable-background:new 0 0 1366 768;" xml:space="preserve">
<style type="text/css">
	.st0{fill:#702963;}
	.st1{fill:#FFDFFF;}
	.st2{fill:#852963;}
	.st3{fill:#F7F5DD;}
	.st4{fill:#782963;}
	.st5{fill:#006E54;}
	.st6{font-family:'MontserratAlternates-Black';}
	.st7{font-size:113px;}
</style>
<g id="background">
	<g>
		<rect x="0.5" y="0.5" class="st0" width="1365" height="767"/>
		<path class="st0" d="M1365,1v766H1V1H1365 M1366,0H0v768h1366V0L1366,0z"/>
	</g>
</g>
<g id="backgroundHills">
	<g id="group">
		<circle class="st1" cx="669.6" cy="320.7" r="286"/>
		<polygon class="st0" points="481.8,550.6 761.3,550.6 745.6,638.9 565.5,602.2 489.5,594.2 		"/>
		<path class="st2" d="M318.6,417.7c2.2-4.2,36.7-67.1,104.7-71.4c38.6-2.4,67.3,15.3,77.6,22.4l13.3,13.2l2.4,35.8v12.4l-14.2,15.7
			l-22,6.2h-62.2l-47.3,2.4l-40.9-3.3l-6.2,0.5L318.6,417.7z"/>
		<path class="st3" d="M346.7,451l-6.2,0.5c0.4-0.4,8.7-9.1,5.7-20.4c-2.3-8.8-9.7-12.7-11-13.3c14.1,2.3,18.7,0.9,19.8-1.4
			c1.7-3.6-6-8.1-4.8-14.8c1-5.9,8.6-10.3,14.8-11.7c11.5-2.4,18.3,5.9,23,2.6c6-4.3-3.1-19.6,3.1-25.6c6.6-6.3,21.2,6.3,34.1,0.3
			c8-3.7,11.7-13,13.7-20.7c-2.3-0.2-4.8-0.3-7.6-0.3c-2.6,0-5.2,0.1-7.9,0.2c-68,4.3-102.5,67.2-104.7,71.4l5.2,33.8l6.2-0.5
			l40.9,3.3l10.3-0.5L346.7,451z"/>
		<polygon class="st2" points="846.3,335.2 1116,335.2 1229.1,590.8 826.1,588.6 		"/>
		<path class="st3" d="M880.9,335.2c21.8,12.6,29.7,22,28.3,28.9c-1.5,7.6-13.5,8-15.2,16c-2.1,10.1,15.3,17.6,26.4,33.3
			c7.2,10.1,13.5,26.2,10.9,52.5c-19.9,0-39.8-0.1-59.6-0.1c-40.2-81.6-55.6-125.5-46.1-131.8c2-1.3,5-1,9.1,1
			C850.1,335.1,865.5,335.2,880.9,335.2z"/>
		<path class="st4" d="M1229.1,590.8L1116,335.2c-41.1,0-82.1,0-123.2,0c41.4,6.4,57,20.7,63.1,33.6c8.7,18.3-4.1,28.7,4.2,53
			c9.1,26.7,27.9,24.3,44.6,57.2c5.7,11.2,8.3,22.9,13.5,46.3c6,26.9,8.9,49.5,10.4,65C1162.1,590.4,1195.6,590.6,1229.1,590.8z"/>
		<path class="st2" d="M219.8,551.3c0,0-30.3-153.4,36-150.9s229.2,0,229.2,0v120L219.8,551.3"/>
		<g>
			<path class="st3" d="M266.4,400.7c-3.8-0.1-7.3-0.2-10.6-0.3c-66.2-2.5-36,150.9-36,150.9l17.1-2c-1-22.1,4.6-36.1,10.1-44.8
				c10.1-16.3,22.4-19.1,25-34.2c1.9-10.6-3.2-14.6-6.1-31.9C263.4,422.8,264.8,409.6,266.4,400.7z"/>
		</g>
		<text transform="matrix(1 0 0 1 401.163 233.1934)" class="st5 st6 st7">VÝROBA</text>
		<g>
			<g>
				<path class="st2" d="M460.3,311.2h39.5v20.1H434v-79.1h64.3v20.1h-38.1L460.3,311.2L460.3,311.2z M458.4,281.6h35.3v19.2h-35.3
					V281.6z"/>
				<path class="st2" d="M539.6,333.2c-6.6,0-13-0.8-19.2-2.3s-11.3-3.5-15.3-5.9l8.6-19.4c3.8,2.2,8,3.9,12.6,5.3
					c4.6,1.3,9.1,2,13.5,2c2.6,0,4.6-0.2,6-0.5c1.5-0.3,2.5-0.8,3.2-1.5c0.7-0.6,1-1.4,1-2.3c0-1.4-0.8-2.6-2.4-3.4
					c-1.6-0.8-3.7-1.5-6.3-2.1s-5.4-1.2-8.5-1.8c-3.1-0.6-6.2-1.5-9.3-2.5c-3.1-1.1-6-2.4-8.6-4.2c-2.6-1.7-4.7-4-6.3-6.8
					s-2.4-6.3-2.4-10.6c0-4.9,1.4-9.4,4.1-13.4c2.7-4,6.9-7.2,12.3-9.7c5.5-2.4,12.3-3.6,20.4-3.6c5.3,0,10.6,0.6,15.8,1.7
					s9.9,2.9,14,5.2l-8,19.3c-3.9-2-7.7-3.4-11.4-4.4s-7.2-1.5-10.7-1.5c-2.6,0-4.6,0.2-6.1,0.7s-2.6,1.1-3.2,1.8
					c-0.6,0.8-1,1.6-1,2.5c0,1.4,0.8,2.4,2.4,3.2s3.7,1.5,6.3,2s5.5,1.1,8.6,1.7s6.2,1.4,9.3,2.5s5.9,2.4,8.5,4.2
					c2.6,1.7,4.7,4,6.3,6.8s2.4,6.3,2.4,10.4c0,4.8-1.4,9.2-4.1,13.3c-2.8,4-6.8,7.3-12.3,9.7C554.6,331.9,547.8,333.2,539.6,333.2z
					"/>
				<path class="st2" d="M611,331.3h-26.7v-79.1H611V331.3z M637.4,302.2h-28.2v-21.9h28.2V302.2z M635.6,252.2h26.7v79.1h-26.7
					V252.2z"/>
				<path class="st2" d="M716.7,333.2c-6.4,0-12.3-1-17.8-3.1c-5.5-2-10.2-4.9-14.2-8.6s-7.1-8.1-9.3-13.2c-2.2-5-3.3-10.5-3.3-16.5
					s1.1-11.5,3.3-16.6c2.2-5,5.3-9.4,9.3-13.1s8.7-6.6,14.2-8.6s11.4-3.1,17.8-3.1c6.5,0,12.4,1,17.9,3.1c5.4,2,10.1,4.9,14.1,8.6
					s7.1,8.1,9.3,13.1s3.3,10.5,3.3,16.6c0,6-1.1,11.5-3.3,16.5s-5.3,9.4-9.3,13.2c-4,3.7-8.7,6.6-14.1,8.6
					C729.1,332.1,723.1,333.2,716.7,333.2z M716.7,311.6c2.5,0,4.8-0.5,6.9-1.4c2.1-0.9,4-2.2,5.7-3.9c1.6-1.7,2.9-3.8,3.8-6.2
					c0.9-2.4,1.4-5.2,1.4-8.3c0-3.1-0.5-5.9-1.4-8.3s-2.2-4.5-3.8-6.2s-3.5-3-5.7-3.9c-2.1-0.9-4.5-1.4-6.9-1.4s-4.8,0.5-6.9,1.4
					c-2.1,0.9-4,2.2-5.7,3.9c-1.6,1.7-2.9,3.8-3.8,6.2c-0.9,2.4-1.4,5.2-1.4,8.3c0,3.1,0.5,5.9,1.4,8.3s2.2,4.5,3.8,6.2
					s3.5,3,5.7,3.9C711.8,311.1,714.2,311.6,716.7,311.6z"/>
				<path class="st2" d="M771,331.3v-79.1h38.1c7.4,0,13.8,1.2,19.2,3.6c5.4,2.4,9.5,5.9,12.5,10.3c2.9,4.5,4.4,9.8,4.4,15.9
					s-1.5,11.4-4.4,15.8s-7.1,7.9-12.5,10.3s-11.8,3.7-19.2,3.7h-23.3l11.9-11.4v30.8H771V331.3z M797.7,303.4l-11.9-12.1h21.6
					c3.7,0,6.4-0.8,8.2-2.5s2.7-3.9,2.7-6.8s-0.9-5.1-2.7-6.8c-1.8-1.7-4.5-2.5-8.2-2.5h-21.6l11.9-12.1V303.4z"/>
				<path class="st2" d="M892.8,333.2c-12.1,0-21.6-3.3-28.4-9.8c-6.8-6.6-10.2-15.7-10.2-27.6v-43.5h26.7V295
					c0,6,1.1,10.3,3.3,12.8s5.1,3.8,8.8,3.8c3.8,0,6.7-1.3,8.9-3.8c2.1-2.5,3.2-6.8,3.2-12.8v-42.7h26.2v43.5
					c0,11.8-3.4,21-10.2,27.6C914.4,329.9,904.9,333.2,892.8,333.2z"/>
			</g>
		</g>
		<g>
			<path class="st0" d="M387.3,177.4l-7.9-9.4l6.4-28.4l32.9-9.5c5.3,5.2,18.3,19.1,18,23.4c0,0.4-0.1,0.6-0.4,0.8
				c-4.3,3.2-19.3,30.8-21.4,34.6L387.3,177.4z"/>
			<path class="st0" d="M418.6,130.7c7.1,7.1,17.9,19.2,17.7,22.8c0,0.3-0.1,0.4-0.2,0.4c-0.7,0.5-2.9,2.2-12.7,19
				c-3.9,6.7-7.5,13.2-8.7,15.4l-27.1-11.4l-7.7-9.1l6.3-27.8L418.6,130.7 M418.9,129.6l-33.5,9.6l-6.6,28.9l8.2,9.6l28.2,11.9
				c0,0,17-31.5,21.5-34.8C441.1,151.5,418.9,129.6,418.9,129.6L418.9,129.6z"/>
		</g>
		<g>
			<path class="st0" d="M925.8,195.5c-0.4-2.2-3-8-13.2-24.4c-6.5-10.4-13.3-20.7-14.7-22.8l9.9-8.3l12.6,7.3l23.2,31.2
				C937.4,184.4,928.8,192.7,925.8,195.5z"/>
			<path class="st0" d="M907.8,140.6l12.2,7.1l22.9,30.8c-5.7,5.5-13.4,12.9-16.8,16.1c-0.9-2.9-4-9.2-13.1-23.7
				c-6.2-9.9-12.7-19.7-14.5-22.4L907.8,140.6 M907.7,139.4l-10.6,8.8c0,0,30.6,45.6,28,48.4c-0.2,0.2-0.2,0.3-0.2,0.3
				c0.3,0,19.2-18.3,19.2-18.3l-23.5-31.7L907.7,139.4L907.7,139.4z"/>
		</g>
	</g>
	<g>
		<polygon class="st2" points="442.4,513.3 535.4,291.2 837.1,291.2 942.2,546.5 442.4,546.5 		"/>
		<path class="st3" d="M650.5,291.2c-38.4,0-76.7,0-115.1,0l-93,222.1v33.2h67.8c7.9-18.8,15.8-37.6,23.7-56.4
			c-8.1-15.4-16.6-37.9-10-60.5c7.6-26.2,30.6-36.4,61-62.5C602.9,351.5,627,327.5,650.5,291.2z"/>
		<path class="st4" d="M837.1,291.2c-44.2,0-88.4,0-132.5,0c71.4,17.7,90.7,32.4,90.6,43.8c-0.2,15.9-38,21.2-40,43.5
			c-0.8,8.2,3.6,16.5,43,51.5c42.3,37.6,55.4,44.2,61.5,63c5,15.3,3.5,33-5.3,53.4c29.3,0,58.6,0,87.9,0L837.1,291.2z"/>
	</g>
	<g>
		<path class="st2" d="M208.5,555.6c0,0,271.5-155.2,328.6-123.2s269.2,123.2,269.2,123.2H208.5z"/>
		<path class="st3" d="M537.1,432.3c-57-31.9-328.6,123.2-328.6,123.2h97.7c22.7-3.4,51.6-12.1,70.8-35.8c5.7-7.1,8.7-13,9.7-15.1
			c11.2-21.1,50.1-45.6,165.3-64.4C546.4,437.4,541.3,434.7,537.1,432.3z"/>
		<path class="st4" d="M537.3,431.8c-8.7-4.9-22.5-5.4-39.5-2.8c1.3,0.3,2.6,0.7,3.8,1.2c0,0,1.8,0.7,3.4,1.6
			c4.2,2.3,1.2,26.8,8.9,35.6c7.6,8.6,21.1-3.1,44.1,3.8c10.4,3.1,7,5.4,32.1,19c22.6,12.3,22.3,8.8,34.8,17.4
			c11.2,7.7,19.1,15.8,24.5,13c2.6-1.3,2.4-4,3.8-6c12-16.5,122.7,41,122.7,41l0,0h32.2C808.2,555.6,594.7,463.9,537.3,431.8z"/>
	</g>
	<g>
		<path class="st2" d="M719.4,599.1c42.5-89.2,134.5-140.4,224.3-127.6c107.3,15.2,156.6,114,160.5,122.2"/>
		<g>
			<path class="st4" d="M943.7,471.5c-16.2-2.3-32.4-2.5-48.4-0.8c1.1,0.1,2.2,0.2,3.3,0.4c0,0,1.7,0.2,3.3,0.4
				c4.6,0.6,50.2,18.8,58.6,22c25.7,9.8,37.5,6.4,41.7,16.2c3.1,7.1-1.4,13-2.3,20.1c-1.8,13.8,9.5,34,62.4,63.9
				c-114.2,1.6-228.4,3.2-342.7,4.9c-0.1,0.2-0.2,0.4-0.3,0.6l384.8-5.5C1100.3,585.5,1051,486.7,943.7,471.5z"/>
			<path class="st3" d="M952.2,472.9c-2.8-0.5-5.6-1-8.5-1.4c-89.8-12.7-181.8,38.4-224.3,127.6l72.8-1
				c20.3-17.1,29.8-33.8,34.7-45.9c7.2-17.5,6.6-29.7,18.5-41.7c8.9-9,18.8-11.8,31.7-15.4C895,489.9,918.9,482.9,952.2,472.9z"/>
		</g>
	</g>
</g>
<path class="st3" d="M0,663.2c193-53.6,351.8-59.3,467.6-52.4c213.4,12.7,239,55.2,435.1,61.9c346.8,11.8,543.9-123.6,593.6-48.8
	c32,48.2-16.6,154.5-88.1,207.6c-88.3,65.6-183.8,26.5-424.8,20.7c-38.6-0.9-130.6,1.7-314.4,6.9c-483.3,13.7-687.3,52.1-735.1-42.8
	c-6.3-12.6-13.4-34.3-6.9-69"/>
</svg>
