<?xml version="1.0" encoding="utf-8"?>
<!-- Generator: Adobe Illustrator 26.3.1, SVG Export Plug-In . SVG Version: 6.00 Build 0)  -->
<svg version="1.1" id="Layer_1" xmlns="http://www.w3.org/2000/svg" xmlns:xlink="http://www.w3.org/1999/xlink" x="0px" y="0px"
	 viewBox="0 0 100 100" style="enable-background:new 0 0 100 100;" xml:space="preserve">
<style type="text/css">
	.st0{fill:#FF855B;}
	.st1{fill:#FF635B;}
	.st2{fill:#C7385B;}
	.st3{fill:#62245B;}
	.st4{fill:#83005B;}
	.st5{fill:none;stroke:#FF855B;stroke-width:2;stroke-miterlimit:10;}
</style>
<g>
	<circle class="st0" cx="50.3" cy="50.1" r="35.9"/>
	<path class="st1" d="M54.2,14.3c2.8,5.1,4.4,11,4.4,17.3c0,19.8-16.1,35.9-35.9,35.9c-1.3,0-2.6-0.1-3.9-0.2
		c6.1,11.1,17.9,18.6,31.5,18.6c19.8,0,35.9-16.1,35.9-35.9C86.2,31.5,72.2,16.3,54.2,14.3z"/>
	<path class="st2" d="M59,15.2c3.4,5.5,5.3,11.9,5.3,18.9c0,19.8-16,35.9-35.9,35.9c-3,0-5.9-0.4-8.7-1.1C26,79.1,37.3,86,50.3,86
		c19.8,0,35.9-16.1,35.9-35.9C86.2,33.2,74.6,19.1,59,15.2z"/>
	<path class="st3" d="M67.7,18.5c3.1,5.3,4.9,11.5,4.9,18.1c0,19.8-16.1,35.9-35.9,35.9c-6.2,0-12.1-1.6-17.2-4.4
		c6.2,10.7,17.8,17.8,31,17.8c19.8,0,35.9-16.1,35.9-35.9C86.4,36.4,78.8,24.6,67.7,18.5z"/>
	<path class="st4" d="M67.8,18.6c4.9,6.2,7.9,14,7.9,22.5C75.7,60.9,59.6,77,39.8,77c-6.3,0-12.3-1.7-17.5-4.5
		C28.9,80.7,39,86,50.3,86c19.8,0,35.9-16.1,35.9-35.9C86.2,36.5,78.7,24.7,67.8,18.6z"/>
</g>
<circle class="st5" cx="50.3" cy="50.1" r="45.4"/>
<g>
	<ellipse class="st0" cx="18.8" cy="83.8" rx="7.3" ry="7.3"/>
	<path class="st1" d="M19.6,76.5c0.6,1,0.9,2.2,0.9,3.5c0,4-3.3,7.3-7.3,7.3c-0.3,0-0.5,0-0.8,0c1.2,2.3,3.7,3.8,6.4,3.8
		c4,0,7.3-3.3,7.3-7.3C26.1,80,23.2,76.9,19.6,76.5z"/>
	<path class="st2" d="M20.6,76.7c0.7,1.1,1.1,2.4,1.1,3.8c0,4-3.3,7.3-7.3,7.3c-0.6,0-1.2-0.1-1.8-0.2c1.3,2.1,3.6,3.5,6.2,3.5
		c4,0,7.3-3.3,7.3-7.3C26.1,80.3,23.7,77.5,20.6,76.7z"/>
	<path class="st3" d="M22.3,77.3c0.6,1.1,1,2.3,1,3.7c0,4-3.3,7.3-7.3,7.3c-1.3,0-2.5-0.3-3.5-0.9c1.3,2.2,3.6,3.6,6.3,3.6
		c4,0,7.3-3.3,7.3-7.3C26.2,81,24.6,78.6,22.3,77.3z"/>
</g>
</svg>
