<?xml version="1.0" encoding="utf-8"?>
<!-- Generator: Adobe Illustrator 26.3.1, SVG Export Plug-In . SVG Version: 6.00 Build 0)  -->
<svg version="1.1" id="Layer_1" xmlns="http://www.w3.org/2000/svg" xmlns:xlink="http://www.w3.org/1999/xlink" x="0px" y="0px"
	 viewBox="0 0 100 100" style="enable-background:new 0 0 100 100;" xml:space="preserve">
<style type="text/css">
	.st0{fill:none;stroke:#E6E6E6;stroke-miterlimit:10;}
	.st1{fill:#702963;}
	.st2{fill:#802963;}
	.st3{fill:#7D2963;}
	.st4{fill:#852963;}
	.st5{font-family:'MontserratAlternates-Black';}
	.st6{font-size:12px;}
	.st7{font-size:10px;}
</style>
<line class="st0" x1="66.9" y1="16" x2="75.1" y2="12.1"/>
<line class="st0" x1="78.5" y1="27.8" x2="86.6" y2="23.9"/>
<line class="st0" x1="76.8" y1="6.9" x2="89.7" y2="20.9"/>
<line class="st0" x1="71.1" y1="90.5" x2="64.7" y2="82.8"/>
<line class="st0" x1="76.1" y1="84.6" x2="71.9" y2="79.8"/>
<line class="st0" x1="80.2" y1="81.3" x2="76.9" y2="77.5"/>
<line class="st0" x1="83.6" y1="78.8" x2="79.1" y2="73.9"/>
<line class="st0" x1="87.8" y1="75.8" x2="81.8" y2="70.1"/>
<line class="st0" x1="91.3" y1="72" x2="84.4" y2="69.2"/>
<line class="st0" x1="93.9" y1="69" x2="87" y2="63.4"/>
<line class="st0" x1="15.2" y1="78.9" x2="20.5" y2="75.6"/>
<line class="st0" x1="10.9" y1="84.3" x2="14" y2="89.7"/>
<line class="st0" x1="20.3" y1="83.9" x2="25.6" y2="80.6"/>
<line class="st0" x1="14" y1="34" x2="8.5" y2="27.4"/>
<line class="st0" x1="12.8" y1="23.2" x2="16.9" y2="19.9"/>
<line class="st0" x1="16.8" y1="14.3" x2="19" y2="13.5"/>
<line class="st0" x1="30.9" y1="9" x2="33.1" y2="7.1"/>
<line class="st0" x1="27.1" y1="22.1" x2="21.5" y2="15.5"/>
<line class="st0" x1="38.5" y1="13.1" x2="33" y2="6.5"/>
<g>
	<circle class="st1" cx="49.6" cy="50" r="39.7"/>
</g>
<g>
	<path class="st2" d="M50.4,10.3c-4.3,0-8.5,0.7-12.4,2c10.2,7.2,16.9,19.1,16.9,32.5c0,17.6-11.5,32.5-27.3,37.8
		c6.5,4.6,14.4,7.3,22.9,7.3c22,0,39.7-17.8,39.7-39.7S72.3,10.3,50.4,10.3z"/>
</g>
<g>
	<path class="st3" d="M61.2,12c2.2,4.9,3.4,10.4,3.4,16.2c0,22-17.8,39.7-39.7,39.7c-4,0-7.9-0.6-11.5-1.7
		c6.2,13.9,20.1,23.6,36.3,23.6c22,0,39.7-17.8,39.7-39.7C89.4,32.1,77.5,16.9,61.2,12z"/>
</g>
<g>
	<path class="st4" d="M53.2,10.3C62.7,17.6,68.9,29,68.9,42c0,22-17.8,39.7-39.7,39.7c-1.2,0-2.4-0.1-3.6-0.2c6.7,5.1,15,8.1,24,8.1
		c22,0,39.7-17.8,39.7-39.7C89.4,29.2,73.5,12.1,53.2,10.3z"/>
</g>
<text transform="matrix(0.7613 -0.6484 0.6484 0.7613 7.8929 30.2623)" class="st1 st5 st6">HTML</text>
<text transform="matrix(-0.6484 -0.7613 0.7613 -0.6484 21.9811 87.1903)" class="st1 st5 st6">JS</text>
<text transform="matrix(-0.7613 0.6484 -0.6484 -0.7613 95.2802 68.0048)" class="st1 st5 st7">REACT</text>
<text transform="matrix(0.6484 0.7613 -0.7613 0.6484 71.9413 8.1891)" class="st3 st5 st6">CSS</text>
</svg>
